<?xml version="1.0" encoding="utf-8"?>
<!-- Generator: Adobe Illustrator 15.0.0, SVG Export Plug-In . SVG Version: 6.00 Build 0)  -->
<!DOCTYPE svg PUBLIC "-//W3C//DTD SVG 1.1//EN" "http://www.w3.org/Graphics/SVG/1.1/DTD/svg11.dtd">
<svg version="1.1" id="Layer_1" xmlns="http://www.w3.org/2000/svg" xmlns:xlink="http://www.w3.org/1999/xlink" x="0px" y="0px"
	 width="250px" height="250px" viewBox="0 0 250 250" enable-background="new 0 0 250 250" xml:space="preserve">
<g>
	<path fill="#E6E9EE" d="M141.688,248.551H14.252c-7.071,0-12.805-5.732-12.805-12.805V14.252c0-7.071,5.733-12.805,12.805-12.805
		h127.436c7.071,0,12.806,5.733,12.806,12.805v221.494C154.492,242.818,148.76,248.551,141.688,248.551z"/>
	<rect x="1.448" y="32.165" fill="#FFFFFF" width="153.044" height="185.669"/>
	<circle fill="#FFFFFF" cx="22.219" cy="16.661" r="5.999"/>
	<path fill="#231F20" d="M22.22,24.108c-4.106,0-7.447-3.341-7.447-7.447s3.341-7.447,7.447-7.447c4.106,0,7.447,3.34,7.447,7.447
		C29.667,20.767,26.326,24.108,22.22,24.108z M22.22,12.11c-2.509,0-4.551,2.042-4.551,4.551c0,2.509,2.042,4.551,4.551,4.551
		c2.509,0,4.551-2.042,4.551-4.551C26.771,14.152,24.729,12.11,22.22,12.11z"/>
	<path fill="#231F20" d="M69.79,18.903h-2.835c-0.799,0-1.448-0.648-1.448-1.448s0.649-1.448,1.448-1.448h2.835
		c0.799,0,1.448,0.648,1.448,1.448S70.589,18.903,69.79,18.903z"/>
	<path fill="#231F20" d="M98.029,18.903H76.568c-0.799,0-1.447-0.648-1.447-1.448s0.648-1.448,1.447-1.448h21.461
		c0.8,0,1.447,0.648,1.447,1.448C99.477,18.255,98.829,18.903,98.029,18.903z"/>
	<path fill="#231F20" d="M60.748,18.903h-2.836c-0.799,0-1.448-0.648-1.448-1.448s0.648-1.448,1.448-1.448h2.836
		c0.799,0,1.448,0.648,1.448,1.448S61.547,18.903,60.748,18.903z"/>
	<path fill="#FFFFFF" d="M90.777,239.459H65.165c-4.747,0-8.594-3.848-8.594-8.594l0,0c0-2.15,1.744-3.895,3.895-3.895h35.009
		c2.151,0,3.896,1.742,3.896,3.895l0,0C99.37,235.611,95.521,239.459,90.777,239.459z"/>
	<path fill="#231F20" d="M90.777,240.904H65.165c-5.537,0-10.042-4.504-10.042-10.041c0-2.945,2.397-5.34,5.343-5.34h35.009
		c2.945,0,5.344,2.395,5.344,5.34C100.818,236.4,96.314,240.904,90.777,240.904z M60.466,228.418c-1.349,0-2.447,1.098-2.447,2.445
		c0,3.943,3.206,7.146,7.146,7.146h25.612c3.939,0,7.146-3.202,7.146-7.146c0-1.348-1.099-2.445-2.446-2.445H60.466z"/>
	<path fill="#FFFFFF" d="M166.621,42.794c-45.246,0-81.928,36.681-81.928,81.931c0,12.068,2.632,23.516,7.318,33.832l-23.627,42.973
		l45.684-13.967c14.227,11.912,32.551,19.09,52.553,19.09c45.25,0,81.93-36.68,81.93-81.927
		C248.551,79.475,211.871,42.794,166.621,42.794z"/>
	<path fill="#231F20" d="M247.104,124.725c0,44.376-36.104,80.479-80.48,80.479c-18.848,0-37.182-6.658-51.623-18.75
		c-0.375-0.312-0.884-0.418-1.353-0.274l-42.274,12.924l21.907-39.847c0.221-0.399,0.238-0.883,0.051-1.297
		c-4.77-10.5-7.188-21.683-7.188-33.234c0-44.378,36.104-80.482,80.479-80.482v-2.896c-3.619,0-7.179,0.257-10.683,0.708V14.252
		C155.939,6.394,149.546,0,141.688,0H14.252C6.394,0,0,6.394,0,14.252v221.494C0,243.605,6.394,250,14.252,250h127.436
		c7.858,0,14.252-6.395,14.252-14.254V207.41c3.528,0.455,7.097,0.689,10.683,0.689c45.978,0,83.379-37.402,83.379-83.375
		L247.104,124.725L247.104,124.725z M2.896,14.252c0-6.262,5.095-11.356,11.356-11.356h127.436c6.263,0,11.356,5.095,11.356,11.356
		v16.464H2.896V14.252z M153.045,235.746c0,6.264-5.096,11.359-11.357,11.359H14.252c-6.262,0-11.356-5.098-11.356-11.359v-16.463
		h150.149V235.746z M153.045,216.387H2.896V33.612h150.149v8.857c-39.537,6.506-69.798,40.904-69.798,82.256
		c0,11.723,2.403,23.082,7.147,33.768L67.116,200.83c-0.284,0.516-0.227,1.154,0.145,1.611c0.373,0.457,0.984,0.641,1.547,0.471
		l44.938-13.736c11.341,9.312,24.938,15.416,39.299,17.795V216.387L153.045,216.387z"/>
	<path fill="#231F20" d="M250,124.725h-2.896c0-0.635-0.008-1.267-0.021-1.896l2.896-0.068C249.992,123.414,250,124.068,250,124.725
		z M246.908,119.04c-0.047-0.631-0.098-1.261-0.156-1.89l2.881-0.271c0.062,0.649,0.115,1.304,0.162,1.957L246.908,119.04z
		 M246.311,113.382c-0.086-0.626-0.182-1.251-0.285-1.873l2.857-0.472c0.105,0.645,0.203,1.293,0.297,1.943L246.311,113.382z
		 M245.32,107.786c-0.133-0.618-0.271-1.234-0.42-1.847l2.816-0.677c0.15,0.637,0.297,1.275,0.436,1.918L245.32,107.786z
		 M243.932,102.271c-0.176-0.605-0.355-1.21-0.551-1.812l2.762-0.875c0.199,0.624,0.387,1.251,0.57,1.882L243.932,102.271z
		 M242.152,96.861c-0.221-0.595-0.447-1.187-0.68-1.774l2.689-1.068c0.242,0.609,0.479,1.225,0.703,1.842L242.152,96.861z
		 M239.988,91.588c-0.26-0.578-0.527-1.15-0.803-1.721l2.607-1.258c0.285,0.591,0.562,1.187,0.832,1.785L239.988,91.588z
		 M237.459,86.485c-0.303-0.557-0.611-1.11-0.924-1.659l2.51-1.439c0.328,0.569,0.646,1.143,0.959,1.721L237.459,86.485z
		 M234.574,81.575c-0.342-0.534-0.688-1.063-1.041-1.59l2.41-1.61c0.361,0.545,0.721,1.094,1.074,1.647L234.574,81.575z
		 M231.35,76.884c-0.377-0.509-0.762-1.013-1.148-1.512l2.289-1.778c0.398,0.518,0.797,1.039,1.188,1.565L231.35,76.884z
		 M227.807,72.433c-0.412-0.48-0.83-0.956-1.252-1.427l2.156-1.935c0.438,0.487,0.867,0.98,1.293,1.479L227.807,72.433z
		 M223.959,68.244c-0.443-0.45-0.893-0.895-1.348-1.334l2.014-2.082c0.471,0.455,0.936,0.917,1.396,1.383L223.959,68.244z
		 M219.828,64.336c-0.477-0.419-0.955-0.831-1.438-1.237l1.861-2.217c0.502,0.421,0.994,0.849,1.486,1.28L219.828,64.336z
		 M215.436,60.729c-0.502-0.384-1.01-0.761-1.52-1.132l1.703-2.341c0.527,0.384,1.053,0.775,1.572,1.171L215.436,60.729z
		 M210.801,57.441c-0.527-0.347-1.059-0.688-1.596-1.022l1.535-2.457c0.555,0.347,1.105,0.7,1.652,1.058L210.801,57.441z
		 M205.947,54.487c-0.547-0.308-1.1-0.61-1.658-0.907l1.357-2.557c0.576,0.307,1.15,0.619,1.719,0.939L205.947,54.487z
		 M200.906,51.888c-0.568-0.269-1.143-0.53-1.719-0.786l1.172-2.646c0.596,0.265,1.191,0.536,1.781,0.814L200.906,51.888z
		 M195.695,49.653c-0.59-0.228-1.182-0.45-1.777-0.665l0.982-2.724c0.617,0.223,1.229,0.452,1.84,0.687L195.695,49.653z
		 M190.322,47.789c-0.602-0.185-1.209-0.364-1.82-0.537l0.789-2.786c0.631,0.178,1.258,0.363,1.883,0.555L190.322,47.789z
		 M184.832,46.311c-0.615-0.143-1.232-0.277-1.852-0.405l0.584-2.835c0.643,0.132,1.283,0.272,1.922,0.42L184.832,46.311z
		 M179.252,45.227c-0.625-0.098-1.25-0.189-1.879-0.273l0.385-2.87c0.65,0.087,1.299,0.181,1.943,0.283L179.252,45.227z
		 M173.607,44.541c-0.629-0.054-1.26-0.101-1.896-0.141l0.186-2.89c0.652,0.041,1.309,0.09,1.957,0.146L173.607,44.541z
		 M167.926,44.252c-0.434-0.006-0.869-0.01-1.305-0.01v-2.896c0.451,0,0.9,0.003,1.348,0.01L167.926,44.252z"/>
	<circle fill="#E54750" cx="166.623" cy="124.724" r="69.875"/>
	<rect x="122.369" y="109.033" fill="#FFD05B" width="88.508" height="53.104"/>
	<polygon fill="#324A5E" points="166.621,72.73 122.369,109.033 166.621,145.336 210.877,109.033 	"/>
	<polygon fill="#FFFFFF" points="198.199,83.907 198.199,119.422 166.619,145.336 135.051,119.434 135.051,83.907 	"/>
	<polygon fill="#F9B54C" points="158.107,132.818 122.37,162.137 210.877,162.137 210.877,162.137 175.139,132.818 	"/>
	<path fill="#231F20" d="M234.014,13.442c-0.371,0-0.74-0.142-1.021-0.424c-0.566-0.565-0.566-1.482,0-2.047l2.482-2.484
		c0.566-0.565,1.482-0.565,2.047,0c0.566,0.566,0.566,1.483,0,2.047l-2.482,2.484C234.756,13.3,234.385,13.442,234.014,13.442z"/>
	<path fill="#231F20" d="M226.238,21.22c-0.371,0-0.742-0.142-1.025-0.424c-0.564-0.565-0.564-1.482,0-2.047l2.484-2.485
		c0.564-0.565,1.479-0.565,2.047,0c0.564,0.564,0.564,1.482,0,2.047l-2.482,2.485C226.979,21.078,226.607,21.22,226.238,21.22z"/>
	<path fill="#231F20" d="M236.498,21.22c-0.371,0-0.74-0.142-1.023-0.424l-2.482-2.485c-0.566-0.565-0.566-1.482,0-2.047
		c0.564-0.565,1.48-0.565,2.047,0l2.482,2.485c0.566,0.565,0.566,1.481,0,2.047C237.24,21.078,236.871,21.22,236.498,21.22z"/>
	<path fill="#231F20" d="M228.723,13.442c-0.371,0-0.744-0.142-1.023-0.424l-2.484-2.484c-0.562-0.565-0.562-1.481,0-2.047
		c0.564-0.565,1.48-0.565,2.051,0l2.48,2.484c0.562,0.565,0.562,1.482,0,2.047C229.461,13.3,229.092,13.442,228.723,13.442z"/>
	<path fill="#231F20" d="M210.234,217.793c-0.371,0-0.742-0.143-1.025-0.426c-0.564-0.564-0.564-1.482,0-2.047l2.486-2.484
		c0.562-0.566,1.479-0.566,2.047,0c0.564,0.564,0.564,1.48,0,2.047l-2.484,2.484C210.975,217.65,210.605,217.793,210.234,217.793z"
		/>
	<path fill="#231F20" d="M202.457,225.568c-0.369,0-0.742-0.143-1.023-0.422c-0.564-0.566-0.564-1.484,0-2.049l2.484-2.484
		c0.564-0.564,1.482-0.564,2.047,0c0.566,0.566,0.566,1.482,0,2.047l-2.484,2.486C203.197,225.428,202.826,225.568,202.457,225.568z
		"/>
	<path fill="#231F20" d="M212.719,225.568c-0.371,0-0.742-0.143-1.023-0.422l-2.484-2.486c-0.562-0.564-0.562-1.48,0-2.047
		c0.564-0.564,1.48-0.564,2.049,0l2.484,2.484c0.562,0.564,0.562,1.48,0,2.049C213.459,225.428,213.09,225.568,212.719,225.568z"/>
	<path fill="#231F20" d="M204.941,217.793c-0.369,0-0.74-0.143-1.023-0.426l-2.484-2.484c-0.564-0.566-0.564-1.48,0-2.047
		s1.48-0.566,2.047,0l2.484,2.484c0.566,0.562,0.566,1.479,0,2.047C205.682,217.65,205.311,217.793,204.941,217.793z"/>
	<path fill="#231F20" d="M42.568,76.203c-0.371,0-0.741-0.141-1.024-0.424c-0.565-0.565-0.565-1.482,0-2.048l2.485-2.483
		c0.565-0.565,1.482-0.565,2.047,0s0.565,1.482,0,2.048l-2.485,2.483C43.309,76.062,42.938,76.203,42.568,76.203z"/>
	<path fill="#231F20" d="M34.792,83.981c-0.371,0-0.741-0.142-1.024-0.425c-0.565-0.564-0.565-1.481,0-2.047l2.484-2.485
		c0.566-0.565,1.482-0.565,2.047,0c0.566,0.565,0.566,1.482,0,2.048l-2.484,2.484C35.532,83.839,35.162,83.981,34.792,83.981z"/>
	<path fill="#231F20" d="M45.053,83.981c-0.37,0-0.741-0.142-1.023-0.425l-2.485-2.484c-0.565-0.565-0.565-1.481,0-2.048
		c0.565-0.565,1.482-0.565,2.047,0l2.485,2.485c0.565,0.565,0.565,1.481,0,2.047C45.794,83.839,45.423,83.981,45.053,83.981z"/>
	<path fill="#231F20" d="M37.275,76.203c-0.371,0-0.741-0.141-1.024-0.424l-2.484-2.483c-0.565-0.566-0.565-1.482,0-2.048
		c0.566-0.565,1.482-0.565,2.047,0l2.484,2.483c0.566,0.566,0.566,1.482,0,2.048C38.016,76.062,37.646,76.203,37.275,76.203z"/>
	<path fill="#231F20" d="M78.598,53.051H62.976c-0.799,0-1.448-0.649-1.448-1.448s0.648-1.448,1.448-1.448h15.622
		c0.801,0,1.448,0.647,1.448,1.448C80.046,52.403,79.398,53.051,78.598,53.051z"/>
	<path fill="#231F20" d="M84.742,58.738H77.1c-0.799,0-1.447-0.648-1.447-1.448s0.648-1.448,1.447-1.448h7.643
		c0.799,0,1.447,0.648,1.447,1.448S85.541,58.738,84.742,58.738z"/>
	<path fill="#231F20" d="M92.965,53.051h-7.281c-0.8,0-1.447-0.649-1.447-1.448s0.647-1.448,1.447-1.448h7.281
		c0.801,0,1.448,0.647,1.448,1.448C94.413,52.403,93.766,53.051,92.965,53.051z"/>
	<path fill="#231F20" d="M71.526,58.738h-1.489c-0.799,0-1.448-0.648-1.448-1.448s0.648-1.448,1.448-1.448h1.489
		c0.8,0,1.448,0.648,1.448,1.448S72.326,58.738,71.526,58.738z"/>
	<path fill="#231F20" d="M37.903,160.742H22.281c-0.799,0-1.448-0.648-1.448-1.449c0-0.799,0.648-1.447,1.448-1.447h15.622
		c0.8,0,1.448,0.648,1.448,1.447C39.351,160.094,38.703,160.742,37.903,160.742z"/>
	<path fill="#231F20" d="M44.046,166.428h-7.642c-0.799,0-1.448-0.648-1.448-1.447c0-0.801,0.648-1.447,1.448-1.447h7.642
		c0.799,0,1.448,0.646,1.448,1.447C45.494,165.779,44.846,166.428,44.046,166.428z"/>
	<path fill="#231F20" d="M52.271,160.742H44.99c-0.799,0-1.448-0.648-1.448-1.449c0-0.799,0.648-1.447,1.448-1.447h7.281
		c0.799,0,1.448,0.648,1.448,1.447C53.718,160.094,53.07,160.742,52.271,160.742z"/>
	<path fill="#231F20" d="M30.832,166.428h-1.489c-0.799,0-1.448-0.648-1.448-1.447c0-0.801,0.649-1.447,1.448-1.447h1.489
		c0.799,0,1.448,0.646,1.448,1.447C32.279,165.779,31.631,166.428,30.832,166.428z"/>
	<circle fill="#E6E9EE" cx="183.793" cy="19.771" r="4.129"/>
	<circle fill="#84DBFF" cx="234.014" cy="208.041" r="4.127"/>
	<circle fill="#FFD05B" cx="175.537" cy="233.215" r="4.127"/>
	<path fill="#FFFFFF" d="M187.922,96.435H145.33c-0.799,0-1.447-0.649-1.447-1.448c0-0.8,0.648-1.448,1.447-1.448h42.592
		c0.799,0,1.447,0.648,1.447,1.448C189.369,95.786,188.721,96.435,187.922,96.435z"/>
	<path fill="#FFFFFF" d="M187.922,102.979H145.33c-0.799,0-1.447-0.648-1.447-1.447c0-0.8,0.648-1.448,1.447-1.448h42.592
		c0.799,0,1.447,0.648,1.447,1.448C189.369,102.331,188.721,102.979,187.922,102.979z"/>
	<path fill="#FFFFFF" d="M187.922,109.524H145.33c-0.799,0-1.447-0.648-1.447-1.448c0-0.799,0.648-1.447,1.447-1.447h42.592
		c0.799,0,1.447,0.648,1.447,1.447C189.369,108.875,188.721,109.524,187.922,109.524z"/>
	<path fill="#FFFFFF" d="M187.922,116.07H145.33c-0.799,0-1.447-0.648-1.447-1.448c0-0.799,0.648-1.448,1.447-1.448h42.592
		c0.799,0,1.447,0.649,1.447,1.448S188.721,116.07,187.922,116.07z"/>
</g>
</svg>
