<?xml version="1.0" encoding="utf-8"?>
<!-- Generator: Adobe Illustrator 15.0.0, SVG Export Plug-In . SVG Version: 6.00 Build 0)  -->
<!DOCTYPE svg PUBLIC "-//W3C//DTD SVG 1.1//EN" "http://www.w3.org/Graphics/SVG/1.1/DTD/svg11.dtd">
<svg version="1.1" id="Layer_1" xmlns="http://www.w3.org/2000/svg" xmlns:xlink="http://www.w3.org/1999/xlink" x="0px" y="0px"
	 width="250px" height="250px" viewBox="0 0 250 250" enable-background="new 0 0 250 250" xml:space="preserve">
<g>
	<path fill="#FFFFFF" d="M231.641,192.854H18.36V69.819c0-5.394,4.374-9.766,9.766-9.766h193.748c5.394,0,9.767,4.372,9.767,9.766
		V192.854L231.641,192.854z"/>
	<rect x="18.36" y="77.648" fill="#84DBFF" width="213.279" height="115.207"/>
	<path fill="#FFFFFF" d="M18.36,209.784v-16.93h213.281v16.93c0,4.547-3.73,8.23-8.332,8.23H26.691
		C22.091,218.015,18.36,214.331,18.36,209.784z"/>
	<polygon fill="#FFFFFF" points="156.934,232.931 147.896,218.015 102.104,218.015 93.066,232.931 	"/>
	<path fill="#FFFFFF" d="M172.395,245.259c-0.789-6.934-6.738-12.328-13.972-12.328H91.577c-7.229,0-13.183,5.396-13.972,12.328
		H172.395z"/>
	<g>
		<ellipse fill="#CED5E0" cx="125" cy="205.435" rx="6.367" ry="6.289"/>
	</g>
	<g>
		<path fill="#FFFFFF" stroke="#231F20" stroke-miterlimit="10" d="M66.75,185.261"/>
	</g>
	<ellipse fill="#E54750" cx="124.996" cy="109.648" rx="64.759" ry="63.968"/>
	<g>
		<ellipse fill="#FFFFFF" cx="124.996" cy="109.648" rx="49.677" ry="49.072"/>
	</g>
	<g>
		<ellipse fill="#E54750" cx="124.996" cy="109.648" rx="34.596" ry="34.173"/>
	</g>
	<g>
		<ellipse fill="#FFFFFF" cx="124.996" cy="109.648" rx="21.132" ry="20.875"/>
	</g>
	<g>
		<ellipse fill="#E54750" cx="124.996" cy="109.648" rx="9.432" ry="9.317"/>
	</g>
	<polygon fill="#FFD05B" points="186.186,64.906 170.846,64.359 185.316,50.063 200.657,50.611 	"/>
	<polygon fill="#FFD05B" points="170.468,48.918 170.834,64.345 185.247,50.006 184.881,34.581 	"/>
	<g>
		<g>
			<path fill="#231F20" d="M234.316,238.856c-0.375,0-0.75-0.146-1.037-0.431c-0.571-0.569-0.571-1.5,0-2.071l2.515-2.515
				c0.572-0.571,1.499-0.571,2.071,0c0.572,0.57,0.572,1.5,0,2.072l-2.512,2.514C235.064,238.712,234.691,238.856,234.316,238.856z"
				/>
		</g>
		<g>
			<path fill="#231F20" d="M226.448,246.724c-0.374,0-0.75-0.143-1.036-0.43c-0.572-0.572-0.572-1.498,0-2.07l2.515-2.516
				c0.571-0.572,1.499-0.572,2.071,0c0.57,0.572,0.57,1.502,0,2.072l-2.516,2.514C227.197,246.581,226.822,246.724,226.448,246.724z
				"/>
		</g>
		<g>
			<path fill="#231F20" d="M236.83,246.724c-0.376,0-0.75-0.143-1.036-0.43l-2.515-2.514c-0.571-0.572-0.571-1.5,0-2.072
				c0.572-0.572,1.502-0.572,2.074,0l2.512,2.516c0.572,0.572,0.572,1.498,0,2.07C237.579,246.581,237.204,246.724,236.83,246.724z"
				/>
		</g>
		<g>
			<path fill="#231F20" d="M228.962,238.856c-0.376,0-0.75-0.146-1.035-0.431l-2.515-2.514c-0.572-0.572-0.572-1.5,0-2.072
				c0.572-0.571,1.499-0.571,2.07,0l2.516,2.515c0.57,0.571,0.57,1.5,0,2.071C229.712,238.712,229.336,238.856,228.962,238.856z"/>
		</g>
	</g>
	<g>
		<path fill="#231F20" d="M221.872,58.589h-27.206l7.021-6.936c0.416-0.411,0.547-1.03,0.336-1.574
			c-0.215-0.545-0.729-0.911-1.312-0.932l-14.029-0.501l-0.334-14.1c-0.016-0.585-0.375-1.106-0.918-1.325
			c-0.546-0.218-1.162-0.092-1.578,0.321L169.438,47.88c-0.285,0.283-0.44,0.671-0.434,1.073l0.229,9.636h-2.89
			c-11.339-8.983-25.713-14.375-41.346-14.375c-15.634,0-30.007,5.391-41.347,14.375H28.126c-6.191,0-11.23,5.039-11.23,11.23
			v139.965c0,5.346,4.395,9.695,9.798,9.695h72.812l-7.264,11.985h-0.664c-7.909,0-14.541,5.859-15.428,13.627l-0.187,1.632h98.072
			l-0.188-1.632c-0.883-7.768-7.517-13.627-15.426-13.627h-0.666l-7.262-11.985h72.812c5.399,0,9.795-4.351,9.795-9.695V69.819
			C233.104,63.627,228.064,58.589,221.872,58.589z M185.896,51.55l11.317,0.404l-11.608,11.465l-11.317-0.403L185.896,51.55z
			 M183.498,38.023l0.27,11.389l-11.549,11.49l-0.271-11.389L183.498,38.023z M124.996,47.144c16.918,0,32.293,6.602,43.661,17.317
			l-44.691,44.145c-0.575,0.568-0.581,1.496-0.013,2.071c0.288,0.29,0.665,0.436,1.043,0.436c0.372,0,0.744-0.142,1.029-0.423
			l44.717-44.171c10.857,11.227,17.548,26.416,17.548,43.129c0,34.464-28.394,62.503-63.294,62.503s-63.293-28.039-63.293-62.503
			C61.703,75.183,90.096,47.144,124.996,47.144z M19.825,69.819c0-4.577,3.725-8.301,8.301-8.301h52.062
			c-4.701,4.276-8.772,9.215-12.07,14.665H19.825V69.819z M158.423,234.396c5.853,0,10.839,3.938,12.218,9.397H79.357
			c1.381-5.459,6.371-9.397,12.221-9.397H158.423z M154.333,231.466H95.667l7.261-11.986h44.146L154.333,231.466z M230.173,209.784
			c0,3.73-3.08,6.766-6.864,6.766H26.693c-3.788,0-6.868-3.035-6.868-6.766v-15.465h210.348V209.784z M230.173,191.39H19.825V79.113
			H66.45c-4.893,9.123-7.677,19.512-7.677,30.535c0,36.08,29.708,65.433,66.223,65.433s66.225-29.354,66.225-65.433
			c0-11.023-2.785-21.412-7.681-30.535h46.633V191.39z M230.173,76.183h-48.298c-2.221-3.668-4.816-7.081-7.695-10.239l11.955,0.426
			c0.018,0.001,0.034,0.001,0.051,0.001c0.385,0,0.754-0.152,1.028-0.422l4.486-4.43h30.172c4.578,0,8.301,3.724,8.301,8.301V76.183
			L230.173,76.183z"/>
		<path fill="#231F20" d="M225.372,21.015c0.376,0,0.75-0.143,1.036-0.429l2.514-2.513c0.572-0.571,0.572-1.499,0-2.071
			c-0.572-0.572-1.499-0.572-2.07,0l-2.515,2.513c-0.571,0.571-0.571,1.499,0,2.071C224.623,20.872,224.997,21.015,225.372,21.015z"
			/>
		<path fill="#231F20" d="M217.505,28.884c0.375,0,0.749-0.143,1.035-0.429l2.515-2.514c0.571-0.572,0.571-1.499,0-2.071
			c-0.572-0.572-1.5-0.572-2.072,0l-2.514,2.514c-0.572,0.572-0.572,1.5,0,2.072C216.755,28.741,217.129,28.884,217.505,28.884z"/>
		<path fill="#231F20" d="M226.41,23.87c-0.574-0.572-1.499-0.572-2.073,0c-0.569,0.571-0.569,1.499,0,2.071l2.515,2.514
			c0.285,0.286,0.66,0.429,1.035,0.429c0.373,0,0.75-0.143,1.035-0.429c0.572-0.571,0.572-1.5,0-2.072L226.41,23.87z"/>
		<path fill="#231F20" d="M218.982,20.586c0.285,0.286,0.662,0.429,1.035,0.429c0.377,0,0.75-0.143,1.035-0.429
			c0.572-0.572,0.572-1.5,0-2.071l-2.514-2.513c-0.572-0.572-1.499-0.572-2.071,0c-0.571,0.572-0.571,1.5,0,2.071L218.982,20.586z"
			/>
		<path fill="#231F20" d="M32.887,5.443c0.374,0,0.75-0.143,1.036-0.429L36.437,2.5c0.572-0.572,0.572-1.499,0-2.071
			c-0.572-0.572-1.499-0.572-2.071,0l-2.514,2.514c-0.572,0.572-0.572,1.499,0,2.071C32.137,5.3,32.513,5.443,32.887,5.443z"/>
		<path fill="#231F20" d="M25.019,13.311c0.376,0,0.75-0.143,1.036-0.429l2.514-2.513c0.57-0.572,0.57-1.5,0-2.072
			c-0.572-0.572-1.499-0.572-2.073,0l-2.512,2.513c-0.572,0.572-0.572,1.499,0,2.071C24.269,13.167,24.643,13.311,25.019,13.311z"/>
		<path fill="#231F20" d="M34.365,12.881c0.286,0.286,0.662,0.429,1.036,0.429s0.75-0.143,1.036-0.429
			c0.572-0.572,0.572-1.5,0-2.071l-2.514-2.513c-0.572-0.572-1.5-0.572-2.072,0c-0.572,0.572-0.572,1.5,0,2.072L34.365,12.881z"/>
		<path fill="#231F20" d="M26.495,5.014c0.288,0.286,0.662,0.429,1.036,0.429c0.375,0,0.751-0.143,1.038-0.429
			c0.57-0.571,0.57-1.5,0-2.071l-2.514-2.514c-0.572-0.572-1.499-0.572-2.071,0c-0.572,0.571-0.572,1.499,0,2.071L26.495,5.014z"/>
		<path fill="#231F20" d="M100.395,14.986h15.804c0.811,0,1.465-0.656,1.465-1.465s-0.654-1.465-1.465-1.465h-15.804
			c-0.81,0-1.465,0.656-1.465,1.465S99.585,14.986,100.395,14.986z"/>
		<path fill="#231F20" d="M114.684,17.81c-0.81,0-1.465,0.656-1.465,1.465s0.655,1.465,1.465,1.465h7.73
			c0.809,0,1.465-0.656,1.465-1.465s-0.656-1.465-1.465-1.465H114.684z"/>
		<path fill="#231F20" d="M123.367,14.986h7.365c0.81,0,1.466-0.656,1.466-1.465s-0.656-1.465-1.466-1.465h-7.365
			c-0.807,0-1.465,0.656-1.465,1.465S122.561,14.986,123.367,14.986z"/>
		<path fill="#231F20" d="M107.536,17.81c-0.81,0-1.466,0.656-1.466,1.465s0.656,1.465,1.466,1.465h1.507
			c0.809,0,1.465-0.656,1.465-1.465s-0.656-1.465-1.465-1.465H107.536z"/>
	</g>
	<g>
		<path fill="#231F20" d="M50.158,230.056c0-0.809-0.656-1.465-1.465-1.465H32.887c-0.809,0-1.465,0.656-1.465,1.465
			c0,0.81,0.656,1.465,1.465,1.465h15.806C49.501,231.521,50.158,230.864,50.158,230.056z"/>
		<path fill="#231F20" d="M54.907,234.343h-7.73c-0.809,0-1.465,0.656-1.465,1.465c0,0.81,0.656,1.465,1.465,1.465h7.73
			c0.809,0,1.465-0.655,1.465-1.465C56.372,234.999,55.715,234.343,54.907,234.343z"/>
		<path fill="#231F20" d="M63.229,228.591h-7.366c-0.809,0-1.465,0.656-1.465,1.465c0,0.81,0.656,1.465,1.465,1.465h7.366
			c0.807,0,1.465-0.655,1.465-1.465C64.694,229.247,64.036,228.591,63.229,228.591z"/>
		<path fill="#231F20" d="M41.538,234.343h-1.507c-0.809,0-1.465,0.656-1.465,1.465c0,0.81,0.656,1.465,1.465,1.465h1.507
			c0.809,0,1.465-0.655,1.465-1.465C43.003,234.999,42.347,234.343,41.538,234.343z"/>
	</g>
	<g>
		<circle fill="#84DBFF" cx="182.762" cy="10.589" r="4.176"/>
	</g>
	<g>
		<circle fill="#E54750" cx="245.824" cy="150.755" r="4.176"/>
	</g>
	<g>
		<circle fill="#E6E9EE" cx="60.239" cy="30.338" r="4.176"/>
	</g>
	<g>
		<circle fill="#FFD05B" cx="4.176" cy="77.648" r="4.176"/>
	</g>
	<g>
		<circle fill="#E6E9EE" cx="200.994" cy="234.876" r="4.176"/>
	</g>
</g>
</svg>
