<?xml version="1.0" encoding="utf-8"?>
<!-- Generator: Adobe Illustrator 15.0.0, SVG Export Plug-In . SVG Version: 6.00 Build 0)  -->
<!DOCTYPE svg PUBLIC "-//W3C//DTD SVG 1.1//EN" "http://www.w3.org/Graphics/SVG/1.1/DTD/svg11.dtd">
<svg version="1.1" id="Layer_1" xmlns="http://www.w3.org/2000/svg" xmlns:xlink="http://www.w3.org/1999/xlink" x="0px" y="0px"
	 width="230px" height="35px" viewBox="-16 -2.5 230 35" enable-background="new -16 -2.5 230 35" xml:space="preserve">
<g>
	<rect x="-16" y="6.765" fill="#F9F9F9" width="49.271" height="16.423"/>
	<path fill="#09599E" d="M-13.947-2.473h45.165c1.129,0,2.054,0.923,2.054,2.053v7.186H-16v-7.187
		C-16-1.551-15.076-2.473-13.947-2.473z"/>
	<path fill="#E59703" d="M-16,23.188h49.271v7.186c0,1.131-0.923,2.053-2.053,2.053h-45.164c-1.129,0-2.053-0.922-2.053-2.053
		V23.188z"/>
	<path opacity="0.05" fill="#FFFFFF" enable-background="new    " d="M-13.947,32.376c-1.129,0-2.053-0.925-2.053-2.054V-0.421
		c0-1.13,0.924-2.054,2.053-2.054h45.165c1.129,0,2.054,0.924,2.054,2.054"/>
	<g>
		<polygon fill="#00589F" points="3.042,19.289 4.529,10.614 6.89,10.614 5.402,19.289 		"/>
		<path fill="#00589F" d="M13.974,10.871c-0.462-0.154-1.181-0.36-2.104-0.36c-2.362,0-4.003,1.181-4.003,2.874
			c0,1.232,1.181,1.95,2.053,2.361c0.924,0.411,1.232,0.719,1.232,1.077c0,0.563-0.719,0.873-1.437,0.873
			c-0.924,0-1.437-0.155-2.207-0.461L7.199,17.03l-0.309,1.95c0.564,0.258,1.592,0.46,2.618,0.46c2.464,0,4.107-1.181,4.107-2.978
			c0-0.975-0.617-1.745-2.002-2.359c-0.821-0.411-1.334-0.668-1.334-1.078c0-0.359,0.411-0.77,1.334-0.77
			c0.77,0,1.334,0.153,1.745,0.309l0.205,0.102L13.974,10.871"/>
		<path fill="#00589F" d="M20.03,10.664h-1.848c-0.564,0-0.975,0.153-1.231,0.719l-3.49,7.956h2.464c0,0,0.411-1.081,0.513-1.285
			c0.257,0,2.668,0,3.028,0c0.051,0.311,0.308,1.285,0.308,1.285h2.207L20.03,10.664 M17.104,16.208
			c0.205-0.514,0.923-2.412,0.923-2.412s0.205-0.513,0.309-0.821l0.153,0.771c0,0,0.462,2.054,0.564,2.514h-1.949V16.208z"/>
		<path fill="#00589F" d="M1.04,10.664l-2.309,5.902l-0.256-1.18c-0.411-1.386-1.796-2.875-3.285-3.644l2.156,7.543h2.515
			l3.748-8.674H1.041"/>
		<path fill="#F9A51A" d="M-3.425,10.614h-3.798l-0.051,0.205c2.977,0.718,4.926,2.464,5.748,4.516l-0.822-3.952
			C-2.451,10.819-2.913,10.664-3.425,10.614"/>
	</g>
</g>
<path fill="#4361C3" d="M46.341-2.499h45.165c1.13,0,2.053,0.924,2.053,2.054v30.792c0,1.131-0.923,2.056-2.053,2.056H46.341
	c-1.129,0-2.053-0.925-2.053-2.056V-0.447C44.288-1.576,45.211-2.499,46.341-2.499z"/>
<path fill="#FFAF38" d="M74.825,7.766c4.104,0,7.442,3.336,7.442,7.44c0,4.106-3.338,7.442-7.442,7.442
	c-4.105,0-7.442-3.336-7.442-7.442C67.383,11.102,70.72,7.766,74.825,7.766z"/>
<rect x="68.411" y="11.358" fill="#FFAF38" width="5.133" height="1.026"/>
<path fill="#EB3636" d="M63.021,22.649c-4.105,0-7.442-3.336-7.442-7.442c0-4.105,3.336-7.44,7.442-7.44s7.442,3.336,7.442,7.44
	C70.463,19.313,67.127,22.649,63.021,22.649z"/>
<path fill="#FFAF38" d="M68.411,18.543v-1.026h6.671v1.026H68.411z M68.411,11.358h6.671v1.026h-6.671V11.358z M74.57,14.438h-6.673
	V13.41h6.672L74.57,14.438L74.57,14.438z M74.57,16.49h-6.673v-1.026h6.672L74.57,16.49L74.57,16.49z"/>
<path opacity="0.05" fill="#FFFFFF" enable-background="new    " d="M46.341,32.401h0.923L93.558,0.477v-0.924
	c0-1.129-0.923-2.053-2.053-2.053H46.341c-1.129,0-2.053,0.924-2.053,2.053v30.793C44.288,31.477,45.211,32.401,46.341,32.401z"/>
<g>
	<path fill="#F7F6F4" d="M106.191-2.5h45.164c1.13,0,2.054,0.924,2.054,2.053v30.793c0,1.13-0.924,2.054-2.054,2.054h-45.164
		c-1.131,0-2.054-0.924-2.054-2.054V-0.447C104.138-1.576,105.061-2.5,106.191-2.5z"/>
	<path fill="#053385" d="M130.93,14.026l-4.721,6.928c-0.053,0.104-0.208,0.154-0.363,0.154h-1.435c-0.205,0-0.31-0.204-0.205-0.411
		l1.486-2.106l-1.539-4.669c-0.052-0.154,0.053-0.309,0.258-0.309h1.385c0.205,0,0.36,0.103,0.413,0.309l0.819,2.822l1.951-2.926
		c0.051-0.103,0.205-0.205,0.361-0.205h1.435C130.93,13.615,131.033,13.873,130.93,14.026z M122.256,19.159h-1.282
		c-0.155,0-0.258-0.154-0.258-0.309l0.05-0.413c0,0-0.717,0.821-1.949,0.821c-0.718,0-1.333-0.206-1.798-0.718
		c-0.461-0.563-0.665-1.384-0.514-2.206c0.26-1.694,1.594-2.875,3.184-2.875c0.667,0,1.385,0.153,1.693,0.615l0.102,0.153
		l0.053-0.41c0-0.103,0.102-0.205,0.257-0.205h1.436c0.154,0,0.257,0.153,0.257,0.309l-0.767,4.926
		C122.613,19.005,122.461,19.159,122.256,19.159z M120.974,15.412c-0.208-0.258-0.565-0.412-0.926-0.412
		c-0.819,0-1.436,0.564-1.59,1.385c-0.052,0.411,0,0.771,0.205,1.028c0.208,0.257,0.565,0.409,0.978,0.409
		c0.819,0,1.436-0.562,1.589-1.383C121.28,16.027,121.178,15.669,120.974,15.412z M113.531,16.387h-0.924
		c-0.205,0-0.359,0.155-0.411,0.359l-0.311,2.054c-0.05,0.205-0.205,0.361-0.41,0.361h-1.385c-0.155,0-0.258-0.156-0.258-0.311
		l1.181-7.698c0.052-0.205,0.207-0.36,0.412-0.36h2.98c0.975,0,1.742,0.257,2.155,0.771c0.358,0.462,0.512,1.13,0.358,1.95
		C116.558,15.463,115.431,16.387,113.531,16.387z M114.559,12.845c-0.259-0.308-0.771-0.308-1.284-0.308h-0.207
		c-0.102,0-0.204,0.103-0.257,0.206l-0.309,2.002h0.461c0.771,0,1.591,0,1.745-1.078C114.761,13.308,114.71,13,114.559,12.845z"/>
	<path fill="#199DDB" d="M146.583,18.851c-0.052,0.206-0.205,0.36-0.413,0.36h-1.231c-0.153,0-0.256-0.154-0.256-0.309l1.233-7.801
		c0-0.102,0.103-0.206,0.254-0.206h1.386c0.155,0,0.258,0.153,0.258,0.308L146.583,18.851z M143.301,19.159h-1.285
		c-0.155,0-0.258-0.154-0.258-0.309l0.05-0.413c0,0-0.717,0.821-1.949,0.821c-0.718,0-1.333-0.206-1.797-0.718
		c-0.461-0.563-0.666-1.384-0.512-2.206c0.257-1.694,1.591-2.875,3.181-2.875c0.667,0,1.386,0.153,1.693,0.615l0.104,0.153
		l0.05-0.41c0-0.103,0.103-0.205,0.258-0.205h1.438c0.152,0,0.258,0.153,0.258,0.309l-0.771,4.926
		C143.709,19.005,143.503,19.159,143.301,19.159z M142.016,15.412c-0.208-0.258-0.562-0.412-0.925-0.412
		c-0.82,0-1.436,0.564-1.59,1.385c-0.052,0.411,0,0.771,0.204,1.028c0.208,0.257,0.565,0.409,0.979,0.409
		c0.819,0,1.435-0.562,1.589-1.383C142.326,16.027,142.272,15.669,142.016,15.412z M134.575,16.387h-0.924
		c-0.207,0-0.36,0.155-0.413,0.359l-0.36,2.206c0,0.154-0.154,0.257-0.308,0.257h-1.539c-0.155,0-0.258-0.154-0.258-0.307
		l1.181-7.701c0.052-0.205,0.206-0.36,0.412-0.36h2.977c0.978,0,1.748,0.257,2.157,0.771c0.359,0.462,0.511,1.13,0.359,1.95
		C137.653,15.463,136.522,16.387,134.575,16.387z M135.599,12.845c-0.259-0.308-0.771-0.308-1.284-0.308h-0.206
		c-0.104,0-0.205,0.103-0.255,0.206l-0.311,2.002h0.46c0.771,0,1.591,0,1.745-1.078C135.806,13.308,135.753,13,135.599,12.845z"/>
	<path opacity="0.12" fill="#FFFFFF" enable-background="new    " d="M106.96,32.4c-1.538,0-2.822-1.283-2.822-2.873V0.374
		c0-1.591,1.233-2.874,2.822-2.874h43.678c1.538,0,2.823,1.283,2.823,2.874"/>
</g>
<path fill="#2AA0D0" d="M166.19-2.401h45.163c1.129,0,2.055,0.924,2.055,2.054v30.795c0,1.129-0.926,2.053-2.055,2.053H166.19
	c-1.13,0-2.055-0.924-2.055-2.053V-0.348C164.139-1.478,165.061-2.401,166.19-2.401z"/>
<path fill="#2AA0D0" d="M198.011,10.944h-6.158c-0.257,0-0.512,0.206-0.512,0.461c0-0.257-0.258-0.461-0.514-0.461h-2.977
	c-0.208,0-0.412,0.102-0.463,0.308l-1.642,4.106l-2.054-4.157c-0.103-0.154-0.257-0.308-0.461-0.308h-2.67
	c-0.307,0-0.514,0.205-0.514,0.513v4.823l-2.256-5.029c-0.104-0.206-0.257-0.309-0.462-0.309h-2.72
	c-0.205,0-0.359,0.103-0.461,0.309l-3.542,7.698c-0.053,0.155-0.053,0.36,0.052,0.513c0.103,0.153,0.257,0.258,0.411,0.258h2.207
	c0.204,0,0.411-0.104,0.461-0.309l0.771-1.745h2.821l0.719,1.745c0.102,0.204,0.257,0.309,0.462,0.309h4.104
	c0.309,0,0.514-0.207,0.514-0.514v-2.926l1.281,3.131c0.104,0.204,0.258,0.309,0.464,0.309h1.591c0.204,0,0.411-0.104,0.461-0.309
	l1.334-3.182v2.977c0,0.309,0.205,0.514,0.511,0.514h2.056c0.257,0,0.512-0.207,0.512-0.462c0,0.257,0.258,0.462,0.514,0.462h6.157
	c0.31,0,0.514-0.207,0.514-0.514v-1.539c0-0.308-0.204-0.513-0.514-0.513h-3.592V16.59h3.49c0.309,0,0.514-0.207,0.514-0.513v-1.54
	c0-0.309-0.205-0.513-0.514-0.513h-3.49v-0.512h3.592c0.31,0,0.514-0.207,0.514-0.514V11.46
	C198.522,11.199,198.269,10.944,198.011,10.944z M175.481,15.049l0.46-1.027l0.462,1.027H175.481z"/>
<path fill="#2AA0D0" d="M206.582,17.564l-2.054-2.207l2.054-2.207c0.104-0.103,0.153-0.205,0.153-0.359v-1.333
	c0-0.155-0.05-0.257-0.153-0.36c-0.104-0.103-0.207-0.153-0.361-0.153h-1.384c-0.153,0-0.309,0.051-0.411,0.153l-1.797,2.157
	l-1.848-2.104c-0.103-0.155-0.204-0.206-0.359-0.206h-1.386c-0.308,0-0.514,0.206-0.514,0.513v7.698
	c0,0.309,0.207,0.514,0.514,0.514h1.231c0.156,0,0.258-0.052,0.36-0.155l1.953-2.053l1.949,2.053
	c0.103,0.104,0.257,0.155,0.359,0.155h1.333c0.155,0,0.257-0.052,0.36-0.155c0.104-0.103,0.153-0.205,0.153-0.36v-1.231
	C206.735,17.769,206.686,17.666,206.582,17.564z M199.551,16.588v-2.515l1.18,1.233L199.551,16.588z"/>
<polygon fill="#FFFFFF" points="174.711,15.562 177.174,15.562 175.941,12.791 "/>
<polygon fill="#FFFFFF" points="199.038,17.923 201.45,15.357 199.038,12.791 "/>
<path fill="#FFFFFF" d="M206.993,17.205l-1.745-1.848l1.745-1.848c0.154-0.206,0.257-0.462,0.257-0.719v-1.333
	c0-0.257-0.103-0.513-0.307-0.719c-0.208-0.205-0.464-0.309-0.721-0.309h-1.385c-0.308,0-0.564,0.104-0.771,0.359l-1.437,1.643
	l-1.435-1.643c-0.208-0.204-0.463-0.359-0.771-0.359h-1.385c-0.207,0-0.36,0.052-0.514,0.155c-0.154-0.104-0.307-0.155-0.514-0.155
	h-6.157c-0.207,0-0.361,0.052-0.514,0.155c-0.154-0.104-0.309-0.155-0.513-0.155h-2.978c-0.411,0-0.82,0.257-0.975,0.667
	l-1.232,3.08l-1.539-3.131c-0.155-0.359-0.514-0.564-0.925-0.564h-2.618c-0.563,0-1.025,0.462-1.025,1.027v2.411l-1.283-2.823
	c-0.154-0.36-0.513-0.615-0.925-0.615h-2.72c-0.412,0-0.77,0.257-0.925,0.615l-3.541,7.699c-0.154,0.309-0.102,0.667,0.052,0.975
	c0.206,0.309,0.512,0.462,0.872,0.462h2.207c0.41,0,0.77-0.258,0.923-0.615l0.614-1.438h2.158l0.564,1.438
	c0.153,0.41,0.514,0.667,0.976,0.667h4.104c0.563,0,1.027-0.462,1.027-1.026v-0.36l0.308,0.771c0.156,0.359,0.513,0.615,0.925,0.615
	h1.591c0.41,0,0.771-0.259,0.975-0.615l0.308-0.771v0.257c0,0.563,0.463,1.027,1.027,1.027h2.054c0.205,0,0.359-0.051,0.514-0.154
	c0.153,0.104,0.307,0.154,0.513,0.154h6.157c0.208,0,0.36-0.051,0.514-0.154c0.154,0.104,0.308,0.154,0.512,0.154h1.233
	c0.257,0,0.564-0.104,0.769-0.309l1.591-1.693l1.591,1.693c0.206,0.205,0.463,0.309,0.77,0.309h1.231
	c0.258,0,0.514-0.104,0.721-0.309c0.204-0.205,0.308-0.462,0.308-0.719v-1.231C207.248,17.666,207.146,17.409,206.993,17.205z
	 M190.826,19.154h-2.056V13.56l-2.308,5.595h-1.59l-2.258-5.543v5.543h-4.105l-0.822-2.054h-3.49l-0.872,2.054h-2.207l3.543-7.698
	h2.72l3.232,7.184v-7.184h2.618l2.565,5.183l2.054-5.183h2.978v7.698H190.826z M198.011,12.996h-4.105v1.54h4.003v1.54h-4.003v1.539
	h4.105v1.538h-6.158v-7.697h6.158V12.996z M204.99,19.154l-2.359-2.463l-2.361,2.463h-1.231v-7.698h1.386l2.205,2.565l2.207-2.565
	h1.385v1.333l-2.411,2.567l2.411,2.566v1.231H204.99z"/>
<path opacity="0.05" fill="#FFFFFF" enable-background="new    " d="M166.19,32.499h0.922l46.296-31.923v-0.923
	c0-1.13-0.926-2.054-2.055-2.054H166.19c-1.13,0-2.055,0.924-2.055,2.054v30.795C164.139,31.575,165.061,32.499,166.19,32.499z"/>
</svg>
