<?xml version="1.0" encoding="utf-8"?>
<!-- Generator: Adobe Illustrator 15.0.0, SVG Export Plug-In . SVG Version: 6.00 Build 0)  -->
<!DOCTYPE svg PUBLIC "-//W3C//DTD SVG 1.1//EN" "http://www.w3.org/Graphics/SVG/1.1/DTD/svg11.dtd">
<svg version="1.1" id="Layer_1" xmlns="http://www.w3.org/2000/svg" xmlns:xlink="http://www.w3.org/1999/xlink" x="0px" y="0px"
	 width="21px" height="21.667px" viewBox="128 22.5 21 21.667" enable-background="new 128 22.5 21 21.667" xml:space="preserve">
<g>
	<defs>
		<path id="SVGID_1_" d="M148.756,31.291h-10.012v4.151h5.763c-0.536,2.637-2.784,4.151-5.763,4.151
			c-3.516,0-6.349-2.833-6.349-6.35c0-3.516,2.833-6.349,6.349-6.349c1.515,0,2.882,0.538,3.957,1.417l3.125-3.126
			c-1.905-1.66-4.348-2.686-7.082-2.686C132.786,22.5,128,27.286,128,33.244s4.786,10.744,10.744,10.744
			c5.371,0,10.256-3.906,10.256-10.744C149,32.609,148.902,31.926,148.756,31.291z"/>
	</defs>
	<clipPath id="SVGID_2_">
		<use xlink:href="#SVGID_1_"  overflow="visible"/>
	</clipPath>
	<path clip-path="url(#SVGID_2_)" fill="#FBBC05" d="M127.023,39.594V26.895l8.302,6.349L127.023,39.594z"/>
</g>
<g>
	<defs>
		<path id="SVGID_3_" d="M148.756,31.291h-10.012v4.151h5.763c-0.536,2.637-2.784,4.151-5.763,4.151
			c-3.516,0-6.349-2.833-6.349-6.35c0-3.516,2.833-6.349,6.349-6.349c1.515,0,2.882,0.538,3.957,1.417l3.125-3.126
			c-1.905-1.66-4.348-2.686-7.082-2.686C132.786,22.5,128,27.286,128,33.244s4.786,10.744,10.744,10.744
			c5.371,0,10.256-3.906,10.256-10.744C149,32.609,148.902,31.926,148.756,31.291z"/>
	</defs>
	<clipPath id="SVGID_4_">
		<use xlink:href="#SVGID_3_"  overflow="visible"/>
	</clipPath>
	<path clip-path="url(#SVGID_4_)" fill="#EA4335" d="M127.023,26.895l8.302,6.349l3.418-2.979l11.721-1.905v-6.837h-23.441V26.895z"
		/>
</g>
<g>
	<defs>
		<path id="SVGID_5_" d="M148.756,31.291h-10.012v4.151h5.763c-0.536,2.637-2.784,4.151-5.763,4.151
			c-3.516,0-6.349-2.833-6.349-6.35c0-3.516,2.833-6.349,6.349-6.349c1.515,0,2.882,0.538,3.957,1.417l3.125-3.126
			c-1.905-1.66-4.348-2.686-7.082-2.686C132.786,22.5,128,27.286,128,33.244s4.786,10.744,10.744,10.744
			c5.371,0,10.256-3.906,10.256-10.744C149,32.609,148.902,31.926,148.756,31.291z"/>
	</defs>
	<clipPath id="SVGID_6_">
		<use xlink:href="#SVGID_5_"  overflow="visible"/>
	</clipPath>
	<path clip-path="url(#SVGID_6_)" fill="#34A853" d="M127.023,39.594l14.651-11.233l3.857,0.488l4.933-7.325v23.441h-23.441V39.594z
		"/>
</g>
<g>
	<defs>
		<path id="SVGID_7_" d="M148.756,31.291h-10.012v4.151h5.763c-0.536,2.637-2.784,4.151-5.763,4.151
			c-3.516,0-6.349-2.833-6.349-6.35c0-3.516,2.833-6.349,6.349-6.349c1.515,0,2.882,0.538,3.957,1.417l3.125-3.126
			c-1.905-1.66-4.348-2.686-7.082-2.686C132.786,22.5,128,27.286,128,33.244s4.786,10.744,10.744,10.744
			c5.371,0,10.256-3.906,10.256-10.744C149,32.609,148.902,31.926,148.756,31.291z"/>
	</defs>
	<clipPath id="SVGID_8_">
		<use xlink:href="#SVGID_7_"  overflow="visible"/>
	</clipPath>
	<path clip-path="url(#SVGID_8_)" fill="#4285F4" d="M150.465,44.965l-15.139-11.721l-1.954-1.465l17.093-4.884V44.965z"/>
</g>
</svg>
