<?xml version="1.0" encoding="utf-8"?>
<!-- Generator: Adobe Illustrator 15.0.0, SVG Export Plug-In . SVG Version: 6.00 Build 0)  -->
<!DOCTYPE svg PUBLIC "-//W3C//DTD SVG 1.1//EN" "http://www.w3.org/Graphics/SVG/1.1/DTD/svg11.dtd">
<svg version="1.1" id="Layer_1" xmlns="http://www.w3.org/2000/svg" xmlns:xlink="http://www.w3.org/1999/xlink" x="0px" y="0px"
	 width="190px" height="58px" viewBox="0 0 190 58" enable-background="new 0 0 190 58" xml:space="preserve">
<g>
	<path fill="#F4F4F3" d="M28.812,57.623c8.231,0,33.57,0,41.801,0c10.275,0,38.498,0,48.773,0c8.232,0,33.57,0,41.801,0
		c15.914,0,28.812-12.898,28.812-28.811S177.102,0,161.188,0c-8.23,0-33.568,0-41.801,0c-10.275,0-38.498,0-48.773,0
		c-8.231,0-33.57,0-41.801,0C12.9,0,0,12.899,0,28.812S12.9,57.623,28.812,57.623z"/>
</g>
<g>
	<g>
		<linearGradient id="SVGID_1_" gradientUnits="userSpaceOnUse" x1="36.2979" y1="38.4072" x2="36.3689" y2="18.8021">
			<stop  offset="0" style="stop-color:#00E3FF"/>
			<stop  offset="1" style="stop-color:#00C2FF"/>
		</linearGradient>
		<path fill="url(#SVGID_1_)" d="M29.595,14.544c-0.447,0.36-0.718,0.991-0.718,1.841l0,0v24.854l0,0
			c0,0.852,0.271,1.48,0.718,1.842l14.237-14.268L29.595,14.544z"/>
		<linearGradient id="SVGID_2_" gradientUnits="userSpaceOnUse" x1="29.5952" y1="21.5059" x2="48.623" y2="21.5059">
			<stop  offset="0" style="stop-color:#00F076"/>
			<stop  offset="1" style="stop-color:#11D574"/>
		</linearGradient>
		<path fill="url(#SVGID_2_)" d="M48.623,24.01l-16.586-9.389c-0.98-0.554-1.861-0.542-2.441-0.077l14.237,14.268L48.623,24.01z"/>
		<linearGradient id="SVGID_3_" gradientUnits="userSpaceOnUse" x1="29.5952" y1="36.1182" x2="48.623" y2="36.1182">
			<stop  offset="0" style="stop-color:#FF3A44"/>
			<stop  offset="1" style="stop-color:#E02453"/>
		</linearGradient>
		<path fill="url(#SVGID_3_)" d="M29.595,43.08c0.581,0.467,1.461,0.477,2.441-0.078l16.586-9.389l-4.791-4.801L29.595,43.08z"/>
		<linearGradient id="SVGID_4_" gradientUnits="userSpaceOnUse" x1="43.832" y1="28.8115" x2="55.25" y2="28.8115">
			<stop  offset="0" style="stop-color:#FFBB00"/>
			<stop  offset="1" style="stop-color:#FFDD00"/>
		</linearGradient>
		<path fill="url(#SVGID_4_)" d="M55.229,28.569c-0.081-0.484-0.407-0.958-0.977-1.354c-0.095-0.066-0.197-0.13-0.306-0.192
			l-5.323-3.014l-4.791,4.802l4.791,4.801l5.324-3.014C54.924,30.047,55.352,29.295,55.229,28.569z"/>
	</g>
	<g>
		<path fill="#31363C" d="M65.478,22.026c0.546,0.311,1.148,0.466,1.811,0.466c0.627,0,1.196-0.142,1.708-0.424
			s0.924-0.669,1.238-1.157c0.313-0.486,0.498-1.024,0.552-1.61v-0.716H66.95v0.757h2.844c-0.075,0.709-0.337,1.272-0.788,1.688
			c-0.449,0.416-1.023,0.624-1.718,0.624c-0.498,0-0.947-0.114-1.346-0.342c-0.399-0.229-0.712-0.554-0.94-0.977
			c-0.229-0.422-0.343-0.914-0.343-1.473c0-0.56,0.114-1.052,0.343-1.479c0.228-0.425,0.541-0.753,0.94-0.982
			c0.399-0.228,0.848-0.342,1.346-0.342c0.498,0,0.934,0.114,1.309,0.342c0.375,0.229,0.662,0.552,0.859,0.968h1.115
			c-0.267-0.683-0.691-1.21-1.274-1.586c-0.582-0.374-1.252-0.562-2.009-0.562c-0.662,0-1.265,0.155-1.811,0.464
			c-0.546,0.311-0.977,0.744-1.294,1.3c-0.318,0.556-0.477,1.181-0.477,1.877c0,0.695,0.159,1.319,0.477,1.871
			C64.501,21.284,64.932,21.716,65.478,22.026z"/>
		<polygon fill="#31363C" points="72.014,22.432 75.848,22.432 75.848,21.664 72.944,21.664 72.944,19.209 75.542,19.209 
			75.542,18.442 72.944,18.442 72.944,16.059 75.848,16.059 75.848,15.291 72.014,15.291 		"/>
		<polygon fill="#31363C" points="78.774,22.432 79.705,22.432 79.705,16.059 81.647,16.059 81.647,15.301 76.82,15.301 
			76.82,16.059 78.774,16.059 		"/>
		<rect x="85.525" y="15.301" fill="#31363C" width="0.931" height="7.131"/>
		<polygon fill="#31363C" points="89.554,22.432 90.485,22.432 90.485,16.059 92.428,16.059 92.428,15.301 87.6,15.301 87.6,16.059 
			89.554,16.059 		"/>
		<path fill="#31363C" d="M101.357,22.038c0.547-0.312,0.975-0.742,1.289-1.294c0.314-0.553,0.471-1.179,0.471-1.882
			s-0.156-1.329-0.471-1.882c-0.314-0.552-0.742-0.983-1.289-1.294c-0.545-0.309-1.152-0.464-1.82-0.464
			c-0.662,0-1.266,0.155-1.811,0.464c-0.545,0.311-0.977,0.744-1.294,1.3c-0.316,0.556-0.476,1.181-0.476,1.877
			c0,0.695,0.159,1.321,0.476,1.877c0.317,0.556,0.749,0.988,1.294,1.299c0.545,0.31,1.148,0.466,1.811,0.466
			C100.205,22.503,100.812,22.347,101.357,22.038z M97.251,20.354c-0.229-0.429-0.343-0.928-0.343-1.493
			c0-0.573,0.113-1.072,0.343-1.499c0.228-0.426,0.54-0.754,0.937-0.987c0.395-0.232,0.846-0.348,1.35-0.348
			c0.506,0,0.955,0.115,1.35,0.348s0.707,0.561,0.936,0.987c0.229,0.427,0.344,0.926,0.344,1.499c0,0.565-0.115,1.064-0.344,1.493
			c-0.229,0.431-0.541,0.761-0.939,0.993c-0.398,0.232-0.848,0.346-1.346,0.346s-0.945-0.114-1.344-0.346
			C97.793,21.115,97.479,20.785,97.251,20.354z"/>
		<polygon fill="#31363C" points="109.949,15.291 109.018,15.291 109.018,20.958 105.275,15.291 104.344,15.291 104.344,22.432 
			105.275,22.432 105.275,16.753 109.018,22.432 109.949,22.432 		"/>
		<path fill="#31363C" d="M68.965,32.918h4.611c-0.122,1.15-0.547,2.062-1.277,2.736s-1.658,1.012-2.787,1.012
			c-0.806,0-1.533-0.186-2.18-0.557c-0.646-0.371-1.155-0.896-1.526-1.582c-0.37-0.686-0.555-1.482-0.555-2.389
			c0-0.907,0.185-1.706,0.555-2.397c0.371-0.69,0.879-1.221,1.526-1.591c0.647-0.37,1.374-0.556,2.18-0.556
			c0.808,0,1.516,0.186,2.124,0.556c0.607,0.37,1.072,0.893,1.393,1.567h1.807c-0.431-1.105-1.12-1.962-2.064-2.57
			c-0.945-0.608-2.031-0.913-3.26-0.913c-1.072,0-2.05,0.252-2.934,0.755c-0.885,0.502-1.584,1.205-2.098,2.106
			c-0.515,0.901-0.772,1.915-0.772,3.043c0,1.129,0.258,2.139,0.772,3.035c0.514,0.895,1.213,1.594,2.098,2.098
			c0.884,0.504,1.862,0.756,2.934,0.756c1.018,0,1.942-0.23,2.771-0.689c0.829-0.459,1.498-1.084,2.006-1.873
			c0.509-0.793,0.808-1.662,0.896-2.613v-1.162h-6.219V32.918z"/>
		<path fill="#31363C" d="M83.543,29.261c-0.697-0.381-1.476-0.572-2.339-0.572s-1.642,0.191-2.339,0.572
			c-0.696,0.382-1.246,0.929-1.649,1.643c-0.404,0.714-0.605,1.534-0.605,2.462c0,0.939,0.196,1.768,0.588,2.48
			c0.392,0.713,0.934,1.264,1.625,1.65c0.691,0.387,1.462,0.58,2.314,0.58c0.862,0,1.647-0.193,2.354-0.58
			c0.708-0.387,1.27-0.938,1.684-1.65c0.415-0.713,0.622-1.541,0.622-2.48s-0.201-1.764-0.604-2.471
			C84.789,30.187,84.239,29.643,83.543,29.261z M83.816,35.223c-0.293,0.508-0.677,0.891-1.152,1.145s-0.984,0.381-1.525,0.381
			c-0.543,0-1.039-0.123-1.493-0.373c-0.454-0.248-0.815-0.627-1.086-1.135c-0.271-0.508-0.407-1.135-0.407-1.875
			c0-0.729,0.139-1.348,0.415-1.857c0.277-0.508,0.645-0.887,1.104-1.136c0.458-0.249,0.964-0.374,1.517-0.374
			c0.541,0,1.045,0.125,1.509,0.374s0.84,0.628,1.127,1.136c0.288,0.51,0.431,1.129,0.431,1.857
			C84.255,34.096,84.108,34.715,83.816,35.223z"/>
		<path fill="#31363C" d="M94.156,29.261c-0.696-0.381-1.476-0.572-2.338-0.572c-0.862,0-1.642,0.191-2.338,0.572
			c-0.697,0.382-1.247,0.929-1.65,1.643c-0.404,0.714-0.605,1.534-0.605,2.462c0,0.939,0.196,1.768,0.589,2.48
			c0.393,0.713,0.935,1.264,1.625,1.65c0.691,0.387,1.463,0.58,2.314,0.58c0.863,0,1.646-0.193,2.354-0.58
			c0.707-0.387,1.269-0.938,1.683-1.65c0.416-0.713,0.623-1.541,0.623-2.48s-0.201-1.764-0.606-2.471
			C95.403,30.187,94.853,29.643,94.156,29.261z M94.429,35.223c-0.292,0.508-0.677,0.891-1.151,1.145
			c-0.476,0.254-0.985,0.381-1.526,0.381c-0.543,0-1.04-0.123-1.493-0.373c-0.454-0.248-0.816-0.627-1.087-1.135
			c-0.271-0.508-0.405-1.135-0.405-1.875c0-0.729,0.137-1.348,0.415-1.857c0.276-0.508,0.644-0.887,1.103-1.136
			s0.965-0.374,1.518-0.374c0.542,0,1.045,0.125,1.509,0.374s0.84,0.628,1.128,1.136c0.288,0.51,0.431,1.129,0.431,1.857
			C94.869,34.096,94.722,34.715,94.429,35.223z"/>
		<path fill="#31363C" d="M105.533,30.496c-0.287-0.519-0.727-0.95-1.318-1.293c-0.594-0.342-1.281-0.514-2.064-0.514
			c-0.807,0-1.541,0.194-2.199,0.581c-0.656,0.387-1.174,0.932-1.549,1.634c-0.377,0.702-0.564,1.517-0.564,2.446
			c0,0.918,0.188,1.736,0.564,2.455c0.375,0.717,0.893,1.275,1.549,1.674c0.658,0.398,1.393,0.598,2.199,0.598
			c0.783,0,1.469-0.178,2.057-0.531c0.584-0.354,1.027-0.797,1.326-1.326v1.906c0,0.939-0.264,1.67-0.787,2.189
			c-0.525,0.52-1.203,0.779-2.033,0.779c-0.729,0-1.354-0.17-1.873-0.506c-0.52-0.338-0.863-0.781-1.029-1.336h-1.492
			c0.145,0.975,0.615,1.742,1.41,2.307c0.797,0.564,1.793,0.846,2.984,0.846c0.873,0,1.641-0.184,2.299-0.547
			c0.656-0.365,1.162-0.871,1.516-1.52c0.354-0.645,0.531-1.383,0.531-2.213v-9.287h-1.525V30.496z M105.117,35.166
			c-0.275,0.512-0.648,0.906-1.119,1.176c-0.469,0.271-0.986,0.406-1.551,0.406c-0.562,0-1.078-0.135-1.541-0.406
			c-0.465-0.27-0.834-0.664-1.111-1.176c-0.275-0.516-0.414-1.121-0.414-1.816c0-0.688,0.139-1.283,0.414-1.793
			c0.277-0.508,0.646-0.895,1.111-1.16c0.463-0.266,0.979-0.398,1.541-0.398c0.564,0,1.082,0.136,1.551,0.408
			c0.471,0.27,0.844,0.66,1.119,1.168c0.277,0.508,0.416,1.107,0.416,1.791C105.533,34.051,105.395,34.65,105.117,35.166z"/>
		<rect x="109.613" y="25.654" fill="#31363C" width="1.51" height="12.271"/>
		<path fill="#31363C" d="M119.912,29.253c-0.664-0.376-1.428-0.565-2.291-0.565c-0.883,0-1.664,0.191-2.346,0.572
			c-0.68,0.382-1.207,0.926-1.582,1.634c-0.377,0.707-0.564,1.531-0.564,2.471s0.193,1.768,0.58,2.48s0.92,1.264,1.6,1.65
			c0.682,0.387,1.453,0.58,2.312,0.58c1.084,0,1.992-0.275,2.721-0.822c0.73-0.547,1.217-1.258,1.461-2.131h-1.627
			c-0.176,0.51-0.482,0.914-0.92,1.219c-0.436,0.305-0.98,0.457-1.635,0.457c-0.795,0-1.473-0.25-2.029-0.756
			c-0.559-0.502-0.867-1.203-0.92-2.098h7.264c0.031-0.318,0.049-0.623,0.049-0.912c0-0.828-0.18-1.572-0.539-2.23
			S120.574,29.629,119.912,29.253z M114.688,32.719c0.078-0.861,0.383-1.537,0.92-2.023s1.186-0.729,1.949-0.729
			c0.531,0,1.014,0.107,1.451,0.322c0.436,0.215,0.781,0.53,1.035,0.945c0.256,0.414,0.381,0.91,0.381,1.484H114.688z"/>
		<path fill="#31363C" d="M132.133,26.367h-3.73v11.559h1.51V33.1h2.221c1.35,0,2.354-0.316,3.01-0.951
			c0.658-0.637,0.988-1.436,0.988-2.398c0-0.995-0.34-1.808-1.02-2.438C134.432,26.682,133.438,26.367,132.133,26.367z
			 M133.992,31.311c-0.4,0.363-1.02,0.547-1.859,0.547h-2.221v-4.246h2.221c1.637,0,2.455,0.713,2.455,2.139
			C134.588,30.426,134.389,30.943,133.992,31.311z"/>
		<rect x="138.004" y="25.654" fill="#31363C" width="1.51" height="12.271"/>
		<path fill="#31363C" d="M149.215,30.496c-0.287-0.519-0.725-0.95-1.311-1.293c-0.586-0.342-1.275-0.514-2.072-0.514
			c-0.807,0-1.541,0.194-2.197,0.581c-0.658,0.387-1.176,0.932-1.551,1.634s-0.564,1.517-0.564,2.446
			c0,0.918,0.189,1.736,0.564,2.455c0.375,0.717,0.889,1.275,1.543,1.674c0.65,0.398,1.381,0.598,2.188,0.598
			c0.785,0,1.473-0.174,2.066-0.523c0.59-0.348,1.035-0.787,1.334-1.318v1.691h1.525v-9.087h-1.525V30.496z M148.801,35.166
			c-0.277,0.512-0.65,0.906-1.119,1.176c-0.471,0.271-0.988,0.406-1.551,0.406c-0.564,0-1.078-0.135-1.543-0.406
			c-0.465-0.27-0.834-0.664-1.111-1.176c-0.275-0.516-0.414-1.121-0.414-1.816c0-0.688,0.139-1.283,0.414-1.793
			c0.277-0.508,0.646-0.895,1.111-1.16s0.979-0.398,1.543-0.398c0.562,0,1.08,0.136,1.551,0.408c0.469,0.27,0.842,0.66,1.119,1.168
			c0.275,0.508,0.414,1.107,0.414,1.791C149.215,34.051,149.076,34.65,148.801,35.166z"/>
		<polygon fill="#31363C" points="159.562,28.838 156.744,36.201 153.893,28.838 152.217,28.838 155.881,37.826 154.09,42.203 
			155.65,42.203 161.123,28.838 		"/>
	</g>
</g>
</svg>
