<svg xmlns="http://www.w3.org/2000/svg" xmlns:xlink="http://www.w3.org/1999/xlink" width="1145" height="620" xmlns:v="https://vecta.io/nano"><style><![CDATA[.B{opacity:.3}.C{fill:#fff}.D{opacity:.5}.E{fill:#db1d1d}.F{fill:#eaeaea}.G{opacity:.2}.H{fill:#ffb0b0}.I{fill:#e7e7e7}.J{fill:#3c3c3b}.K{fill:#a7b0bf}.L{fill:#9c2c32}.M{fill:#2a2a2a}.N{fill:#e1a58f}]]></style><ellipse fill="#a0d9ea" cx="-1695.148" cy="235.937" rx="329.034" ry="8.628"/><path fill="#ff9797" d="M-1747.325-132.063l-16.382 8.73a2.98 2.98 0 0 1-4.009-1.305h0c-.747-1.47-.162-3.264 1.305-4l11.672-8.81c1.468-.746 2.648 3.02 3.395 4.487h0c.747 1.47 5.487.16 4.02.908z"/><path d="M-1629.274-260.67l-9.456 9.407a72.38 72.38 0 0 0-11.617 15.093l-12.05 20.85-37.04 28.74-22.495 17.754-18.932 7.518.02 8.3 13.07 20.3 22.2-4.463 37.628-12.887 32.48-23.514 24.268-18.68a51.17 51.17 0 0 0 15.101-18.793h0c2.643-5.625 3.807-11.832 3.385-18.033l-.202-2.963c-.534-7.824-3.566-15.268-8.652-21.236l-1.53-1.795c-5.47-6.418-14.188-9.045-22.293-6.716l-3.886 1.116z" class="E"/><path d="M-1592.913-232.035l.202 2.96c.21 3.102.024 6.206-.54 9.234-.574 3.03-1.523 6-2.845 8.8-3.467 7.377-8.64 13.82-15.104 18.792l-24.266 18.677-32.48 23.52-37.627 12.884-22.2 4.46-4.75-7.374 7.632-1.64 37.556-13.93 32.333-25.666 24.15-20.396c6.43-5.43 11.562-12.488 14.98-20.585 1.303-3.088 2.233-6.34 2.786-9.67a44.44 44.44 0 0 0 .478-10.163l-.222-3.263c-.413-6.058-2.06-11.912-4.78-17.153 5.534.482 10.782 3.095 14.51 7.475l1.534 1.8c5.088 5.967 8.12 13.41 8.654 21.235z" class="D"/><path d="M-1618.43-262.598l-9.328 9.322c-5.047 5.038-9.404 10.725-12.966 16.9l-13.44 23.367-41.33 32.2-25.103 19.89-20.16 8.035-.087-.133-.018-8.3 18.93-7.516 22.495-17.754 37.04-28.74 12.047-20.85a72.34 72.34 0 0 1 11.618-15.096l9.457-9.41 3.884-1.115c2.3-.662 4.65-.924 6.96-.812z" class="C G"/><path d="M-1744.076-133.248l-4.205 1.537a12.68 12.68 0 0 1-9.031-.121l-.04-.016-2.1-1.997a9.2 9.2 0 0 0-7.686-2.433l-.915.135a4.88 4.88 0 0 0-3.94 3.354l-.27.85c-.622 1.96-.126 4.102 1.292 5.6l2.906 3.05c.736.772.446 2.056-.557 2.42a5.6 5.6 0 0 1-6.191-1.657l-1.154-1.37c-2.144-2.55-3.14-5.873-2.757-9.184l.614-5.258a8.63 8.63 0 0 1 6.33-7.33l24.59-2.67.2-.17 4.97 10.94-2.044 4.33z" class="H"/><use xlink:href="#B" class="E"/><g class="C"><use xlink:href="#B"/><path d="M-1756.83-151.844l18.383-7.524 2.168 5.298-18.383 7.524z" class="G"/></g><path d="M-1749.024-132.764l18.383-7.524 2.168 5.298-18.383 7.524z" class="D"/><path d="M-1621.283 84.58l14.05 19.304-65.52 47.686-5.11-7.02 2.392-5.32 11.06-14.313 2.365-5.18.85-1.862.904-1.973.847-1.86.904-1.974 3.618-7.927-2.795-6.914 19.836-15.78 6.367-6.477z" class="C"/><path d="M-1672.708 151.407l-4.683-6.436 65.522-47.68 4.683 6.436z" class="B"/><path d="M-1656.97 123.448a1.11 1.11 0 0 1-.334.396 1.09 1.09 0 0 1-1.119.099l-4.522-2.23.9-1.975 4.583 2.258c.535.262.76.914.493 1.452zm1.863-3.78a1.11 1.11 0 0 1-.334.4 1.09 1.09 0 0 1-1.118.093l-4.635-2.286.904-1.973 4.7 2.313c.538.267.76.915.493 1.453zm1.862-3.78a1.04 1.04 0 0 1-.332.398 1.09 1.09 0 0 1-1.121.096l-4.746-2.34.904-1.974 4.8 2.366c.538.268.76.916.494 1.454zm1.865-3.787c-.08.162-.197.296-.334.396a1.09 1.09 0 0 1-1.119.099l-4.86-2.396.902-1.977 4.92 2.425c.536.26.757.916.5 1.453zm1.863-3.77c-.083.162-.197.3-.335.4a1.09 1.09 0 0 1-1.12.095l-4.97-2.45.9-1.977 5.03 2.48c.54.265.758.916.494 1.453z" class="D"/><path fill="#494949" d="M-1558.66-107.18l-.826 2.152 3.393 14.063-6.602.388 1.713 5.306.062 3.73c.001.016.003.03.001.046l-.096 1.94-.177 1.888-.12.942-.3 1.866-.18.927-.308 1.384-.353 1.37c-.953 3.46-2.335 6.805-4.123 9.95a42.69 42.69 0 0 1-2.911 4.449l-1.506 2.025a43.36 43.36 0 0 1-4.501 5.131l-14.316 13.95c-8.6 8.383-18.04 15.847-28.174 22.285l-7.592 4.826a174.32 174.32 0 0 1-19.012 10.479l-16.138 7.62c-.998.37-2.005.727-3.013 1.066l-14.378 4.924c.39.318.774.645 1.154.976 1.252 1.09 2.455 2.233 3.608 3.435.334.338.66.695.984 1.047.165.176.32.36.482.535a59.15 59.15 0 0 1 1.858 2.205l14.497 18.12 34.1 40.32c-2.625 3.465-6.043 6.994-10.1 10.373a82.07 82.07 0 0 1-6.156 4.637c-1.17.806-2.378 1.592-3.624 2.357-2.41 1.484-4.833 2.822-7.235 4.008-3.646 1.802-7.247 3.244-10.686 4.32l-59.766-71.82c-.743-.892-1.414-1.83-2.008-2.824l-4.44-7.355a22.91 22.91 0 0 1-2.685-6.551l-1.362-5.733c-.35-1.47-.55-2.97-.61-4.468s.03-3.012.275-4.504c.912-5.607 3.862-10.685 8.294-14.24l19.566-15.698 73.746-50.787 6.08-19.242 60.448-21.25 3.047 9.432z"/><path d="M-1558.66-107.18l-.826 2.152 3.393 14.063-6.602.388 1.713 5.306.062 3.73c.001.016.003.03.001.046l-.096 1.94-.177 1.888-.12.942-.3 1.866-.18.927-.308 1.384-.353 1.37c-.953 3.46-2.335 6.805-4.123 9.95a42.69 42.69 0 0 1-2.911 4.449l-1.506 2.025a43.36 43.36 0 0 1-4.501 5.131l-14.316 13.95c-8.6 8.383-18.04 15.847-28.174 22.285l-7.592 4.826a174.32 174.32 0 0 1-19.012 10.479l-16.138 7.62c-.998.37-2.005.727-3.013 1.066l-14.378 4.924c.39.318.774.645 1.154.976 1.252 1.09 2.455 2.233 3.608 3.435.334.338.66.695.984 1.047.165.176.32.36.482.535.643.72 1.26 1.452 1.862 2.204l14.494 18.122 34.1 40.32c-2.625 3.465-6.043 6.994-10.1 10.373l-21.12-27.51-24.042-31.322-15.15-18.798c-.023-.03-.05-.06-.077-.092-3.468-4.282-1.69-10.7 3.52-12.494l3.252-1.113c6.02-2.072 11.925-4.475 17.682-7.2l18.338-8.656c5.333-2.522 10.532-5.304 15.575-8.35l3.113-1.924 7.476-4.725c7.25-4.586 14.148-9.696 20.628-15.293 2.43-2.097 4.803-4.26 7.1-6.486l14.114-13.623c1.607-1.553 3.094-3.223 4.435-5.002l1.5-1.97c.088-.122.177-.24.262-.37.01-.015.018-.03.028-.043 2.446-3.806 1.37-10.404-.57-17.376-1.285-4.614-2.943-9.392-4.216-13.626-.684-2.297-1.254-4.436-1.6-6.304-.156-.86-.26-1.665-.298-2.4l10.508-1.19.92-.324 8.444-2.97 3.048 9.432z" class="D"/><path fill="#ff9797" d="M-1734.98-126.6l-15.73 9.854a2.98 2.98 0 0 1-4.091-1.021h0a2.98 2.98 0 0 1 1.021-4.09l11.028-9.604c1.412-.848 2.853 2.826 3.7 4.238h0c.848 1.412 5.484-.224 4.073.623z"/><path d="M-1803.817-120.535l2.297 5.934.227.512.188.414.615 1.223a24.66 24.66 0 0 0 1.766 2.814l.485.654a.31.31 0 0 1 .059.077l.983 1.178.55.602.505.53.647.62.537.486.7.595 7.52 6.153c.207.168.278.447.175.686l-5.377 12.902 5.98 2.484 5.37-12.895a7.05 7.05 0 0 0 .531-3.229c-.13-1.9-1.03-3.688-2.575-4.956l-7.525-6.153c-1.333-1.094-2.504-2.362-3.494-3.772-.867-1.236-1.585-2.582-2.128-4.006l-1.993-5.176-.466-1.397-.168-.64c-.478-2.055-.64-4.154-.37-6.244l22.045 5.086 1.45-6.303-24.536-5.66a4.04 4.04 0 0 0-.913-.104l-.24.006c-.026 0-.04 0-.045.007a.86.86 0 0 0-.181.02c-.04 0-.078.007-.1.013l-.155.025-.13.026-.35.09c-.04.012-.084.032-.123.045l-.097.04-.104.04-.15.064c-.013.006-.02.013-.026.02-.02.006-.033.013-.045.02l-.227.123a1.38 1.38 0 0 0-.194.116h-.006c-.02.013-.033.026-.052.046a3.96 3.96 0 0 0-1.592 2.238c-1.33 4.865-1.07 9.938.74 14.648z" class="F"/><path d="M-1799.722-122.2l1.993 5.177c.453 1.178 1.022 2.304 1.695 3.358 1.067 1.67 2.394 3.164 3.928 4.42l7.525 6.152c1.372 1.127 2.232 2.66 2.498 4.3.214 1.27.078 2.608-.453 3.876l-4.853 11.653 1.423.595 5.37-12.895a7.05 7.05 0 0 0 .531-3.229 7.01 7.01 0 0 0-2.575-4.956l-7.525-6.153c-1.333-1.094-2.504-2.362-3.494-3.772-.867-1.236-1.585-2.582-2.128-4.006l-1.993-5.176-.466-1.397-.168-.64c-.414-1.767-.543-3.728-.3-6.23l-1.876-1.96c-.526 3.856-.144 8.2.878 10.876zm-3.194-15.268a3.91 3.91 0 0 1 1.152.097l24.536 5.662-1.2 5.26 1.702.396 1.45-6.303-24.536-5.662c-1.107-.26-2.213-.027-3.094.55z" class="C D"/><g class="B"><path d="M-1798.66-131.146l21.922 5.095.24-1.042-24.102-5.994c-.045.356 1.967 1.586 1.94 1.94zm-5.157 10.61l2.297 5.934.227.512.188.414.615 1.223a24.66 24.66 0 0 0 1.766 2.814l.485.654a.31.31 0 0 1 .059.077l.983 1.178.55.602.505.53.647.62.537.486.7.595 7.52 6.153c.207.168.278.447.175.686l-5.377 12.902 5.98 2.484.518-1.242-4.556-1.9 5.377-12.902c.013-.032.026-.06.026-.1.058-.22-.02-.446-.2-.595l-7.52-6.154c-2.724-2.225-4.95-5.008-6.528-8.133a24.94 24.94 0 0 1-1.042-2.33l-1.986-5.176c-1.812-4.7-2.07-9.783-.744-14.65.162-.6.446-1.112.815-1.546a3.8 3.8 0 0 1 .822-.731c-.007-.007-.026-.007-.04 0a.86.86 0 0 0-.181.02c-.04 0-.078.007-.1.013a1.35 1.35 0 0 0-.155.025c-.045.007-.1.014-.13.026a4.34 4.34 0 0 0-.35.091c-.045.02-.084.032-.123.045-.032.014-.064.025-.097.04a4.16 4.16 0 0 0-.278.123c-.02.006-.033.013-.045.02a3.61 3.61 0 0 0-.227.123 1.22 1.22 0 0 0-.181.116.23.23 0 0 0-.07.046 3.96 3.96 0 0 0-1.592 2.238c-1.327 4.865-1.068 9.938.744 14.648z"/><path d="M-1801.106-113.675l.615 1.223a24.66 24.66 0 0 0 1.766 2.814l.485.654a.31.31 0 0 1 .059.077l.983 1.178.55.602.505.53.647.62.537.486.7.595 7.454 6.102h6.742c-.13-1.9-1.03-3.688-2.575-4.956l-7.525-6.153c-1.333-1.094-2.504-2.362-3.494-3.772l-7.448-.001z"/></g><path d="M-1594.705 20.243l21.055-14.578c2.58-1.786 5.432-3.078 8.477-3.84l18.362-4.59-.94-3.766-18.362 4.6c-3.5.876-6.78 2.36-9.746 4.415l-21.055 14.576 2.2 3.193z" class="E"/><path d="M-1596.918 17.047l.608.874 20.447-14.15c2.97-2.058 6.244-3.54 9.745-4.42l18.363-4.588.64 2.55.304-.078-.945-3.766-18.363 4.588c-3.5.88-6.775 2.36-9.745 4.42l-21.055 14.57z" class="C D"/><path d="M-1596.917 17.045l2.212 3.197 21.055-14.578a25.94 25.94 0 0 1 8.477-3.844l18.363-4.588-.304-1.217-18.06 4.51a25.94 25.94 0 0 0-8.477 3.843l-21.055 14.578-1.605-2.322-.606.42z" class="B"/><path d="M-1546.178-1.09h19.925V-11.44h-22.646v7.63a2.72 2.72 0 0 0 2.721 2.721z" class="E"/><path d="M-1800.566-69.287l9.132 3.7 9.745-24.044a1.23 1.23 0 0 0-.679-1.604l-6.848-2.775c-.63-.256-1.35.05-1.605.68l-9.745 24.043z" class="F"/><path d="M-1783.51-91.697l-10.208 25.188 2.283.925 9.745-24.044a1.23 1.23 0 0 0-.679-1.604l-1.14-.465z" class="C D"/><path d="M-1790.82-93.33l-9.745 24.044 2.283.926 10.208-25.187-1.14-.462c-.63-.255-1.35.05-1.605.68zm241.92 81.9v7.628a2.72 2.72 0 0 0 2.724 2.724h19.923v-.646h-18.628a2.72 2.72 0 0 1-2.724-2.725v-6.98h-1.295z" class="B"/><g fill="#c1c1c1"><path d="M-1483.428 216.662l-1.804.716-73.06-184.016 1.804-.716zm15.728-6.272l-1.804.716-73.02-184.035 1.804-.716z"/><path d="M-1418.134 92.33l.716 1.804-184.028 73.017-.716-1.804zm-6.06-15.537l.715 1.803-184.038 73-.715-1.803z"/><path d="M-1466.88 33.9l1.782.77-78.45 181.8-1.782-.77zm-15.324-6.662l1.782.77-78.5 181.77-1.782-.77z"/><path d="M-1424.987 167.902l-.77 1.782-181.787-78.488.77-1.782zm6.7-15.476l-.77 1.782-181.8-78.45.77-1.782z"/></g><g fill="#d8d8d8"><use xlink:href="#C"/><use xlink:href="#C" x="16.823"/><path d="M-1611.896 129.292h197.997v1.94h-197.997zm0-16.824h197.997v1.94h-197.997z"/><path d="M-1437.65 57.173l1.372 1.373-140.02 139.98-1.372-1.373zm-11.872-11.947l1.373 1.373-140 140-1.373-1.373z"/><path d="M-1448.17 197.124l-1.373 1.373-140-140 1.373-1.373zm11.94-11.86l-1.372 1.372-140.002-140.002 1.372-1.372z"/></g><path fill="#8a8a8a" d="M-1627.426 121.85c0 63.25 51.278 114.528 114.527 114.528S-1398.37 185.1-1398.37 121.85-1449.65 7.323-1512.9 7.323s-114.527 51.28-114.527 114.527zm19.625 0c0-52.417 42.485-94.902 94.902-94.902s94.903 42.485 94.903 94.902-42.485 94.903-94.903 94.903-94.902-42.485-94.902-94.903z"/><path d="M-1627.426 121.85c0 63.25 51.278 114.528 114.527 114.528S-1398.37 185.1-1398.37 121.85-1449.65 7.323-1512.9 7.323s-114.527 51.28-114.527 114.527zm2.465 0c0-61.896 50.166-112.062 112.062-112.062s112.063 50.166 112.063 112.062-50.166 112.062-112.063 112.062-112.062-50.165-112.062-112.062z" class="B"/><path d="M-1616.426 121.85c0 57.174 46.354 103.528 103.528 103.528s103.528-46.354 103.528-103.528-46.355-103.527-103.528-103.527-103.528 46.354-103.528 103.527zm8.625 0c0-52.417 42.485-94.902 94.902-94.902s94.903 42.485 94.903 94.902-42.485 94.903-94.903 94.903-94.902-42.485-94.902-94.903z" class="I"/><path d="M-1609.956 121.85c0 53.602 43.456 97.06 97.057 97.06s97.058-43.457 97.058-97.06-43.456-97.057-97.058-97.057-97.057 43.456-97.057 97.057zm2.155 0c0-52.417 42.485-94.902 94.902-94.902s94.903 42.485 94.903 94.902-42.485 94.903-94.903 94.903-94.902-42.485-94.902-94.903z" class="G"/><path d="M-1532.3 121.85c0 .62 1.32 1.172 1.38 1.777.06.617-1.13 1.413-1.01 2.01.12.606 1.523.9 1.7 1.474.18.592-.83 1.605-.596 2.17s1.667.572 1.957 1.11-.5 1.734-.16 2.244 1.746.233 2.136.707-.155 1.8.28 2.232 1.758-.11 2.232.28.197 1.794.708 2.136 1.7-.45 2.244-.16.542 1.72 1.11 1.957c.564.233 1.58-.775 2.17-.598.584.178.867 1.58 1.473 1.7.598.117 1.394-1.07 2.01-1.012.604.06 1.156 1.38 1.777 1.38s1.172-1.32 1.777-1.38c.617-.06 1.413 1.13 2 1.012.607-.12.9-1.523 1.474-1.7.59-.18 1.605.83 2.17.597s.57-1.667 1.11-1.956 1.735.5 2.244.16.234-1.747.708-2.136 1.8.154 2.232-.28-.1-1.757.28-2.23 1.793-.197 2.136-.71-.45-1.7-.16-2.244 1.72-.54 1.956-1.11-.775-1.58-.596-2.17c.177-.584 1.58-.867 1.7-1.473.118-.6-1.07-1.395-1.01-2.012.06-.605 1.38-1.156 1.38-1.777s-1.32-1.172-1.38-1.776c-.06-.617 1.13-1.413 1.01-2.01-.12-.606-1.523-.9-1.7-1.474-.18-.59.83-1.605.596-2.17s-1.668-.57-1.957-1.1.5-1.736.16-2.245-1.746-.233-2.136-.708.155-1.798-.28-2.232-1.758.11-2.232-.28-.197-1.793-.708-2.136-1.702.45-2.244.16-.542-1.72-1.11-1.956c-.564-.234-1.58.775-2.17.596-.584-.176-.867-1.58-1.473-1.7-.598-.12-1.394 1.07-2.01 1-.605-.06-1.156-1.38-1.777-1.38s-1.172 1.32-1.777 1.38c-.617.06-1.413-1.13-2-1-.607.12-.9 1.523-1.474 1.7-.59.18-1.604-.83-2.17-.596s-.57 1.668-1.11 1.957-1.735-.5-2.244-.16-.234 1.746-.708 2.136-1.8-.154-2.232.28.1 1.758-.28 2.232-1.793.196-2.136.707.45 1.7.16 2.244-1.72.54-1.957 1.11c-.234.564.776 1.578.597 2.17-.177.584-1.58.866-1.7 1.473-.118.598 1.07 1.394 1.01 2.01-.06.604-1.38 1.156-1.38 1.776z" class="M"/><circle cx="-1513.312" cy="121.85" r="14.235" class="I"/><path d="M-1512.665.206c59.174 0 108.485 42.268 119.39 98.255.245 1.255.7 2.46 1.373 3.546l2.7 4.363c.28.453-.134 1.016-.65.885l-7.727-1.947c-1.1-.275-1.92-1.184-2.104-2.303-8.987-54.28-56.154-95.682-112.982-95.682-61.3 0-111.35 48.162-114.383 108.71-.09 1.825-2.066 2.916-3.65 2.002l-2.175-1.256c-.797-.46-1.276-1.332-1.222-2.252 3.79-63.766 56.714-114.32 121.43-114.32z" class="E"/><path d="M-1510.722 5.383c-32.087 0-61.094 13.193-81.884 34.455 20.64-20.117 48.84-32.514 79.943-32.514 56.83 0 103.994 41.397 112.98 95.68.188 1.12 1.003 2.032 2.103 2.304l7.727 1.947c.518.137.93-.434.652-.887l-1-1.637-5.43-1.365c-1.1-.27-1.915-1.184-2.103-2.304-8.986-54.28-56.15-95.678-112.98-95.678zm-123.372 109.143a2.45 2.45 0 0 0 1.222 2.252l2.175 1.256c1.482.854 3.307-.045 3.604-1.656-.537.104-1.125.026-1.663-.285l-2.174-1.255a2.45 2.45 0 0 1-1.223-2.251c1.792-30.186 14.597-57.406 34.455-77.7-20.965 20.492-34.546 48.5-36.396 79.65z" class="B"/><path d="M-1599.64 36.815c21.928-21.45 51.938-34.668 85.035-34.668 59.173 0 108.485 42.265 119.394 98.254.24 1.256.7 2.46 1.372 3.546l1.7 2.724 2.297.582c.518.137.932-.433.653-.886l-2.698-4.36c-.673-1.087-1.133-2.3-1.372-3.546-10.9-55.988-60.22-98.254-119.394-98.254-34.08 0-64.892 14.02-86.976 36.6zm-29.396 81.503c1.048-.194 1.922-1.08 1.986-2.284 1.443-28.826 13.55-54.844 32.443-74.197-20.007 19.535-32.896 46.336-34.384 76.14a2.04 2.04 0 0 1-.045.342z" class="C D"/><g fill="#c1c1c1"><path d="M-1857.25 216.657l-1.804.715-72.96-184.052 1.804-.715zm15.64-6.202l-1.804.715-72.96-184.052 1.804-.715z"/><path d="M-1791.865 92.42l.716 1.804-184.028 72.997-.716-1.804zm-6.205-15.635l.716 1.804-184.028 72.997-.716-1.804z"/><path d="M-1840.507 33.908l1.782.77-78.5 181.77-1.782-.77zm-15.56-6.642l1.782.77-78.505 181.76-1.782-.77z"/><path d="M-1798.816 167.77l-.77 1.782-181.734-78.582.77-1.782zm6.733-15.316l-.77 1.782-181.787-78.488.77-1.782z"/></g><g fill="#d8d8d8"><use xlink:href="#C" x="-373.762"/><use xlink:href="#C" x="-356.938"/><path d="M-1985.658 129.292h197.998v1.94h-197.998zm0-16.824h197.998v1.94h-197.998z"/><path d="M-1811.373 57.133l1.373 1.373-140.02 139.98-1.373-1.373zm-11.942-11.833l1.372 1.373-140.02 139.982-1.372-1.373z"/><path d="M-1821.87 197.162l-1.372 1.373-140.02-139.98 1.372-1.373zm11.782-11.977l-1.373 1.373-140.002-140.002 1.373-1.373z"/></g><path fill="#8a8a8a" d="M-2001.187 121.85c0 63.25 51.278 114.528 114.528 114.528S-1772.13 185.1-1772.13 121.85-1823.4 7.323-1886.66 7.323s-114.528 51.28-114.528 114.527zm19.625 0c0-52.417 42.485-94.902 94.903-94.902s94.902 42.485 94.902 94.902-42.485 94.903-94.902 94.903-94.903-42.485-94.903-94.903z"/><path d="M-2001.187 121.85c0 63.25 51.278 114.528 114.528 114.528S-1772.13 185.1-1772.13 121.85-1823.4 7.323-1886.66 7.323s-114.528 51.28-114.528 114.527zm2.465 0c0-61.896 50.166-112.062 112.062-112.062s112.062 50.166 112.062 112.062-50.166 112.062-112.062 112.062-112.062-50.165-112.062-112.062z" class="B"/><path d="M-1990.187 121.85c0 57.174 46.354 103.528 103.528 103.528s103.528-46.354 103.528-103.528-46.355-103.527-103.528-103.527-103.528 46.354-103.528 103.527zm8.625 0c0-52.417 42.485-94.902 94.903-94.902s94.902 42.485 94.902 94.902-42.485 94.903-94.902 94.903-94.903-42.485-94.903-94.903z" class="I"/><path d="M-1983.717 121.85c0 53.602 43.456 97.06 97.058 97.06s97.057-43.457 97.057-97.06-43.456-97.057-97.057-97.057-97.058 43.456-97.058 97.057zm2.155 0c0-52.417 42.485-94.902 94.903-94.902s94.902 42.485 94.902 94.902-42.485 94.903-94.902 94.903-94.903-42.485-94.903-94.903z" class="G"/><circle cx="-1886.659" cy="121.85" r="18.764" class="M"/><circle cx="-1886.659" cy="121.85" r="14.235" class="I"/><path d="M-1904.298 115.438c3.164-3.23 7.583-5.234 12.462-5.234 9.647 0 17.47 7.823 17.47 17.47 0 4.14-1.436 7.94-3.85 10.936 6.12-3.088 10.32-9.428 10.32-16.76 0-10.365-8.398-18.764-18.764-18.764-8.113-.001-15.017 5.144-17.638 12.35z" class="B C"/><path d="M-1886.66.206c67.177 0 121.645 54.47 121.645 121.645 0 6.324 1.922 14.645 1.588 21.234-.062 1.234-1.474 1.91-2.5 1.22l-6.688-4.513c-.5-.344-.77-.947-.686-1.556.77-5.353 1.167-10.822 1.167-16.386 0-63.25-51.28-114.528-114.528-114.528a116.14 116.14 0 0 0-9.333.377 1.86 1.86 0 0 1-1.725-.859l-2.035-3.227a1.87 1.87 0 0 1 1.398-2.853 122.89 122.89 0 0 1 11.696-.555z" class="E"/><path d="M-1898.35.762a122.45 122.45 0 0 1 11.693-.557c67.177 0 121.646 54.47 121.646 121.645 0 6.322 1.92 14.644 1.585 21.237-.045 1.01-1.01 1.65-1.92 1.456.227-6.5-1.604-14.586-1.604-20.752 0-67.177-54.47-121.645-121.646-121.645-3.85 0-7.674.18-11.433.53-.034-.93.645-1.816 1.68-1.914z" class="C D"/><path d="M-1898.35.762l.258-.025c0 .316.097.64.278.938l2.038 3.23a1.86 1.86 0 0 0 1.728.854l9.33-.375c63.25 0 114.528 51.278 114.528 114.527 0 5.564-.395 11.032-1.165 16.383-.1.615.175 1.217.686 1.56l6.684 4.5c.18.123.382.2.576.238l-.02.485c-.06 1.23-1.47 1.91-2.498 1.218l-6.685-4.51a1.59 1.59 0 0 1-.686-1.56 114.97 114.97 0 0 0 1.164-16.384c0-63.25-51.28-114.528-114.528-114.528-3.145 0-6.256.13-9.33.377a1.86 1.86 0 0 1-1.728-.854l-2.038-3.23c-.736-1.178.022-2.725 1.407-2.854z" class="B"/><path d="M-1681.287 106.007c5.502 0 11.01-.84 16.295-2.538l17.062-5.484-3.168-9.855-17.062 5.483c-10.878 3.496-22.932 2.48-33.07-2.793a43.33 43.33 0 0 1-19.126-19.917l-44.71-95.205a90.4 90.4 0 0 0-8.44-14.354l-18.688-25.957-8.4 6.05 18.688 25.957a80.04 80.04 0 0 1 7.471 12.705l44.7 95.205a53.74 53.74 0 0 0 23.72 24.701c7.646 3.978 16.174 6.003 24.718 6.003z" class="E"/><path d="M-1800.597-58.57l.783 1.093 6.322-4.548 18.693 25.952c3.242 4.504 6.076 9.33 8.438 14.354l44.71 95.206a43.29 43.29 0 0 0 19.126 19.916c10.133 5.273 22.188 6.3 33.064 2.796l17.062-5.487 2.536 7.895 1.928-.62-3.17-9.86-17.062 5.486c-10.876 3.495-22.93 2.48-33.064-2.795a43.3 43.3 0 0 1-19.127-19.916l-44.71-95.207c-2.362-5.02-5.196-9.848-8.438-14.352L-1792.2-64.61l-8.398 6.042z" class="C D"/><path d="M-1800.597-58.564l18.687 25.96a79.95 79.95 0 0 1 7.474 12.708l44.705 95.2c4.957 10.554 13.38 19.327 23.72 24.704 7.648 3.974 16.176 6 24.724 6 5.5 0 11.006-.835 16.293-2.536l17.062-5.48-.634-1.968-15.134 4.86c-5.287 1.702-10.793 2.536-16.293 2.536-8.547 0-17.076-2.025-24.724-5.998a53.75 53.75 0 0 1-23.721-24.704l-44.705-95.2a80.02 80.02 0 0 0-7.473-12.708l-17.904-24.866-2.078 1.494z" class="B"/><path d="M-1664.602 139.575l1.703-10.213-27.24-4.54c-11.788-1.965-22.95-6.95-32.283-14.416-8.407-6.725-15.25-15.44-19.788-25.205l-31.16-67.04c-3.014-6.482-7.23-12.2-12.534-16.993l-26.434-23.892-6.942 7.68 26.434 23.893c4.268 3.857 7.662 8.46 10.087 13.676l31.16 67.04c5.208 11.205 13.06 21.208 22.71 28.927a80.67 80.67 0 0 0 37.049 16.542l27.238 4.54z" class="E"/><path d="M-1819.278-15.037l.22.195 4.775-5.293 26.438 23.895c5.3 4.795 9.518 10.51 12.533 16.992l31.155 67.04c4.542 9.764 11.382 18.48 19.793 25.202 9.33 7.467 20.492 12.456 32.28 14.416l27.24 4.542-1.236 7.377 1.47.246 1.708-10.21-27.24-4.542c-11.79-1.96-22.95-6.95-32.28-14.417-8.412-6.723-15.25-15.438-19.793-25.2l-31.155-67.04c-3.016-6.484-7.234-12.197-12.534-16.992l-26.438-23.895-6.935 7.686z" class="C D"/><path d="M-1819.278-15.04l26.432 23.89a42.48 42.48 0 0 1 10.087 13.68l31.155 67.033c5.208 11.207 13.064 21.21 22.71 28.93 10.708 8.567 23.52 14.287 37.05 16.545l27.234 4.537.473-2.834-25.766-4.29a80.71 80.71 0 0 1-37.05-16.545c-9.647-7.72-17.502-17.723-22.71-28.93l-31.156-67.034c-2.426-5.222-5.823-9.822-10.087-13.68l-26.212-23.695-2.16 2.394z" class="B"/><path d="M-1882.02 125.45l24.31-38.2a254.79 254.79 0 0 0 20.791-40.169l47.97-117.197a1.47 1.47 0 0 0-.803-1.915l-7.46-3.055a1.47 1.47 0 0 0-1.916.803l-47.97 117.198c-5.46 13.34-12.152 26.27-19.89 38.43l-24.31 38.2 9.28 5.905z" class="E"/><path d="M-1891.3 119.55l9.28 5.9 1.12-1.76-6.516-4.14 24.3-38.2c7.74-12.158 14.43-25.094 19.9-38.43l47.966-117.2-1.967-.804a1.47 1.47 0 0 0-1.915.804l-47.966 117.2c-5.46 13.335-12.15 26.27-19.9 38.43l-24.3 38.202z" class="C D"/><path d="M-1884.786 123.688l2.763 1.76 24.3-38.195a254.99 254.99 0 0 0 20.79-40.168l47.973-117.2a1.47 1.47 0 0 0-.803-1.915l-7.466-3.055a1.47 1.47 0 0 0-1.916.803l6.858 2.81-48.528 118.56a254.99 254.99 0 0 1-20.79 40.168l-23.19 36.434z" class="B"/><g class="M"><circle cx="-1518.488" cy="105.028" r="1.941"/><circle cx="-1522.37" cy="105.028" r="1.941"/><circle cx="-1526.253" cy="105.028" r="1.941"/></g><path d="M-1512.096 124.913l-3.866.366-12.93-136.5 3.866-.366z" class="E"/><path d="M-1513.32 124.905l-2.588.24.012.123 3.87-.362-12.94-136.528-1.282.123z" class="C D"/><path d="M-1528.833-11.26l12.94 136.528 1.282-.123-12.93-136.405 2.59-.24-.013-.123z" class="B"/><path d="M-1510.847 122.97l-3.028 2.43L-1613.5 1.17l3.028-2.43z" class="E"/><path d="M-1512.12 122.9l-2.24 1.8.505.634 3.028-2.433-99.646-124.234-.79.634z" class="C D"/><path d="M-1613.5 1.098l99.646 124.234.79-.634-99.14-123.6 2.24-1.8-.505-.634z" class="B"/><path d="M-1510.576 124.274l62.617-137-4.678.812-61.47 134.587z" class="E"/><path d="M-1511.642 123.786l1.067.49 62.616-137.013-1.405.246z" class="C D"/><path d="M-1514.107 122.66l3.532 1.617.227-.49-2.465-1.126 61.47-134.587 3.274-.563.1-.246-4.678.81z" class="B"/><path d="M-1511.86 125.12l-117.77 7.114-.234-3.875 117.77-7.114z" class="E"/><path d="M-1629.897 128.325l.078 1.287 117.686-7.112.155 2.583.078-.006-.234-3.87z" class="C D"/><path d="M-1629.898 128.33l.233 3.87 117.764-7.117-.078-1.288-117.686 7.11-.155-2.58z" class="B"/><path d="M-1598.904-28.733c.613 0 1.158-.437 1.272-1.062.128-.704-.338-1.38-1.042-1.507l-13.714-2.493-13.606-19.3a1.29 1.29 0 0 0-1.803-.312c-.584.413-.724 1.22-.312 1.803l13.912 19.735c.196.277.492.467.826.527l14.235 2.59a1.3 1.3 0 0 0 .232.021z" class="F"/><path d="M-1628.23-52.875a1.27 1.27 0 0 1 1.585.427l13.607 19.302 13.717 2.49a1.3 1.3 0 0 1 1.042 1.507 1.12 1.12 0 0 1-.097.291c.375-.16.66-.504.744-.938a1.3 1.3 0 0 0-1.042-1.507l-13.718-2.492L-1626-53.096a1.28 1.28 0 0 0-1.798-.31 1.19 1.19 0 0 0-.433.531z" class="C D"/><path d="M-1628.107-51.606l13.912 19.735a1.31 1.31 0 0 0 .822.53l14.235 2.59a1.54 1.54 0 0 0 .234.019c.51 0 .976-.304 1.177-.77-.162.085-.344.123-.53.123a1.31 1.31 0 0 1-.233-.02l-14.235-2.588a1.3 1.3 0 0 1-.822-.53l-13.912-19.735a1.28 1.28 0 0 1-.123-1.268.84.84 0 0 0-.215.116c-.588.408-.723 1.218-.31 1.8z" class="B"/><path d="M-1598.706-29.38h18.316c.038 0 .076-.01.113-.03l4.704-2.588c.25-.137.422-.697.4-1.327s-.207-1.145-.46-1.22l-4.693-1.41 5.227-1.85c.26-.093.454-.654.45-1.307s-.205-1.193-.467-1.262l-5.978-1.56 6.004-2.347c.253-.1.44-.636.44-1.27s-.182-1.176-.434-1.283l-9.146-3.882c-.284-.12-.555.35-.604 1.056s.142 1.373.426 1.494l6.018 2.555-6.794 2.656c-.26.102-.448.662-.44 1.312s.207 1.187.468 1.255l5.74 1.495-4.974 1.76c-.26.093-.452.646-.45 1.295s.2 1.193.46 1.27l5.594 1.68-1.67.918h-18.26c-.29 0-.52.58-.52 1.294s.23 1.295.52 1.295z" class="F"/><path d="M-1580.316-35.307l4.693 1.404c.217.064.4.452.442.958a2.53 2.53 0 0 0 .018-.382c-.013-.628-.207-1.146-.46-1.224l-3.703-1.106-1 .35zm-.77-5.98l5.977 1.56c.22.06.397.453.45.963.013-.1.018-.225.018-.348-.005-.654-.206-1.2-.467-1.262l-4.983-1.302-.994.4zm6.425-3.954a2.34 2.34 0 0 0 .019-.311c.002-.634-.184-1.178-.434-1.28l-9.146-3.882c-.285-.124-.554.35-.604 1.056a2.94 2.94 0 0 0 .011.549c.065-.653.32-1.074.593-.957l9.146 3.882c.203.084.365.466.415.944zm-9.723 8.108c-.262.1-.452.648-.45 1.295a2.21 2.21 0 0 0 .019.311c.05-.498.217-.88.43-.958l4.972-1.76-1.053-.272-3.92 1.384zm5.21-8.165l-6 2.343c-.26.104-.45.666-.44 1.313 0 .104.008.2.018.297.047-.5.214-.88.423-.964l6.794-2.652-.794-.337zm-20.056 14.623a2.43 2.43 0 0 0 .019.323c.057-.557.26-.97.504-.97h18.26l1.67-.918-.76-.227-.9.498h-18.26c-.288.001-.523.583-.523 1.295z" class="C D"/><path d="M-1579.326-36.304l4.236-1.5c.26-.1.454-.653.45-1.307a2.28 2.28 0 0 0-.018-.3c-.05.498-.217.88-.43.958l-5.226 1.85 1 .297zm4.686-9.246a2.41 2.41 0 0 0-.02-.336c-.05.492-.212.88-.423.964l-6.002 2.343.993.26 5-1.954c.254-.104.44-.642.442-1.276zm-4.534-.395l.794-.3-6.018-2.556c-.207-.1-.366-.472-.416-.944l-.01.098c-.05.705.142 1.37.426 1.494l5.225 2.22zm-5.64 9.77a2.78 2.78 0 0 0-.019.337c.003.646.2 1.2.46 1.274l4.834 1.45.76-.422-5.595-1.676c-.216-.07-.4-.458-.44-.963zm5.413-3.366l-5.738-1.494c-.22-.06-.395-.447-.45-.96a2.54 2.54 0 0 0-.018.35c.008.653.207 1.183.468 1.255l4.685 1.223 1.053-.376zm-19.83 8.866c0 .712.235 1.294.523 1.294h18.316c.04 0 .076-.012.113-.03l4.704-2.588c.248-.137.422-.693.4-1.327l-.018-.266c-.044.466-.196.84-.392.944l-4.704 2.588c-.037.02-.073.033-.112.033h-18.316c-.243 0-.447-.414-.504-.97-.015.104-.02.213-.02.324z" class="B"/><path d="M-1605.677-18.406l5.48 2.22 5.847-14.426a.74.74 0 0 0-.407-.963l-4.11-1.665a.74.74 0 0 0-.963.407l-5.847 14.426z" class="F"/><path d="M-1595.444-31.85l-6.124 15.11 1.37.555 5.847-14.426a.74.74 0 0 0-.407-.963l-.686-.277z" class="C D"/><path d="M-1599.83-32.832l-5.846 14.426 1.37.555 6.124-15.1-.685-.277a.74.74 0 0 0-.963.406z" class="B"/><path d="M-1615.37.127l9.132 3.7 9.745-24.045c.255-.63-.05-1.35-.68-1.605l-6.848-2.775c-.63-.255-1.35.05-1.605.68L-1615.37.127z" class="F"/><path d="M-1598.312-22.283l-10.208 25.186 2.283.926 9.745-24.045c.255-.63-.05-1.35-.68-1.605l-1.14-.462z" class="C D"/><path d="M-1605.625-23.917L-1615.37.128l2.283.925 10.208-25.187-1.14-.463c-.63-.255-1.35.05-1.605.68z" class="B"/><path fill="#666" d="M-1646.48-58.096c0 .233.045.453.136.653.078.175.182.33.31.467.272.29.653.484 1.087.5l5.28.312c2.782.16 5.526.68 8.18 1.533l16.248 5.26 3.456 1.313 11.174 4.917a17.2 17.2 0 0 0 6.917 1.456l6.166-.013c1.437-.06 2.86-.324 4.226-.79l29.214-9.933c.504-.168.912-.53 1.152-1.003.207-.42.343-.867.4-1.32a4.47 4.47 0 0 0 .033-.529c0-.635-.143-1.27-.434-1.852-.673-1.346-1.56-2.575-2.62-3.637s-2.42-1.785-3.888-2.083a7.51 7.51 0 0 0-1.469-.149l-.498.02-20.278 1.23-15.536-.04-34.954-2.22a25.22 25.22 0 0 0-10.178 1.462c-1.41.518-2.602 1.502-3.37 2.783l-.544.905a1.42 1.42 0 0 0-.209.745z"/><path d="M-1646.477-58.095a1.61 1.61 0 0 0 .446 1.119c.006.007.013.014.02.02.757-.95 1.805-1.676 3.008-2.076 3.255-1.1 6.723-1.56 10.18-1.36l36.1 2.1 15.516-.032 19.638-1.12a8.05 8.05 0 0 1 1.482.137c1.47.27 2.828.938 3.89 1.928a12.98 12.98 0 0 1 2.621 3.365c.174.33.297.672.37 1.028.1-.123.2-.265.278-.414.29-.582.434-1.216.434-1.85s-.143-1.268-.434-1.85a13.99 13.99 0 0 0-2.621-3.637 7.66 7.66 0 0 0-3.889-2.084c-.485-.098-.977-.148-1.47-.148-.168 0-.337.006-.5.02l-20.278 1.23-15.536-.04-34.953-2.22c-3.455-.213-6.924.278-10.178 1.462a6.58 6.58 0 0 0-3.371 2.782l-.543.906c-.138.225-.21.477-.21.743z" class="B C"/><path d="M-1646.345-57.443c.078.175.182.33.31.467.272.29.653.484 1.087.5l5.28.312c2.782.16 5.526.68 8.18 1.533l16.248 5.26 3.456 1.313 11.174 4.917a17.2 17.2 0 0 0 6.917 1.456l6.166-.013c1.437-.06 2.86-.324 4.226-.79l29.214-9.933c.504-.168.912-.53 1.152-1.003.207-.42.343-.867.4-1.32-.006-.07-.02-.135-.032-.207-.233.272-.53.473-.874.59l-29.214 9.933c-1.56.53-3.196.803-4.847.803h-5.545a17.2 17.2 0 0 1-6.917-1.456l-11.175-4.918c-1.132-.498-2.284-.932-3.455-1.313l-16.248-5.26a32.87 32.87 0 0 0-8.179-1.534l-5.28-.312c-.427-.026-.796-.214-1.067-.49-.13.154-.252.323-.362.498l-.544.828-.072.13z" class="B"/><path d="M-1553.43-10.794h114.567l9.318-4.142c1.633-.726 2.37-2.638 1.643-4.27s-2.638-2.37-4.27-1.643l-8.062 3.584h-113.194c-1.787 0-3.235 1.45-3.235 3.235s1.447 3.237 3.234 3.237z" class="E"/><path d="M-1556.664-14.03c.588-.782 1.534-1.294 2.588-1.294h113.195l8.062-3.585a3.25 3.25 0 0 1 1.307-.278c1.242 0 2.426.72 2.963 1.922.188.427.278.867.278 1.307.68-.906.86-2.142.368-3.248-.537-1.203-1.72-1.922-2.963-1.922a3.27 3.27 0 0 0-1.308.279l-8.062 3.584h-113.194c-1.784 0-3.234 1.45-3.234 3.235z" class="C D"/><path d="M-1556.664-14.03c0 .893.362 1.702.944 2.3.59.583 1.396.945 2.29.945h114.567l9.318-4.142a3.23 3.23 0 0 0 1.921-2.956c-.317.427-.75.782-1.274 1.016l-9.318 4.14h-114.566c-.893 0-1.702-.362-2.29-.945a3.24 3.24 0 0 1-.945-2.289 3.19 3.19 0 0 0-.647 1.94z" class="B"/><path d="M-1603.846-.318l-46.39 115.485-10.208-4.1v-.002L-1614.08-4.35l6.883 2.71z" class="E"/><path d="M-1603.846-.318l-46.39 115.485-3.347-1.346 46.386-115.46z" class="B"/><path d="M-1653.042 112.476l3.347 1.345-.536 1.344-.002-.002-10.2-4.1L-1614.08-4.35l3.354 1.322-45.836 114.09z" class="C D"/><path d="M-1699.662 134.468c0 5.48 1.2 10.68 3.334 15.36a36.57 36.57 0 0 0 4.786 7.757c6.77 8.45 17.174 13.854 28.85 13.854 4.167 0 7.73-.336 11.763-1.008l139.344-26.605c2.19-.403 3.03-3.1 1.458-4.672l-4.726-4.725a2.77 2.77 0 0 0-2.326-.787l-12.045 1.634c-1.09.142-2.057-.7-2.057-1.795v-20.394a1.8 1.8 0 0 1 .531-1.277c.33-.33.78-.53 1.277-.53a2.84 2.84 0 0 0 2.769-3.476l-.726-3.146c-.29-1.25-1.385-2.15-2.662-2.198l-127.562-4.624c-1.68-.236-3.293-.336-5.042-.336-20.417.001-36.966 16.55-36.966 36.97zm95.786-16.94c0-2.73 2.178-4.954 4.907-5.008l57.915-1.196a2.33 2.33 0 0 1 2.38 2.332v20.858a2.3 2.3 0 0 1-.578 1.532 2.32 2.32 0 0 1-1.439.773l-57.6 6.742c-2.97.35-5.585-1.977-5.585-4.975V117.53z" class="E"/><path d="M-1696.437 119.337c6.292-11.42 18.438-19.15 32.4-19.15 1.748 0 3.36.1 5.042.336l127.56 4.624c1.277.048 2.373.948 2.662 2.198l.726 3.146a2.5 2.5 0 0 1 .054.37c1-.61 1.58-1.814 1.29-3.06l-.726-3.146c-.29-1.25-1.385-2.15-2.662-2.198l-127.56-4.624c-1.68-.236-3.293-.336-5.042-.336-15.03.001-27.963 8.967-33.744 21.84zm92.634-2.608c-.88.907-1.418 2.13-1.418 3.488v21.06a5.01 5.01 0 0 0 5.586 4.974l57.6-6.742c.578-.08 1.082-.362 1.438-.772a2.3 2.3 0 0 0 .578-1.533v-.584c-.208.1-.437.168-.672.2l-57.6 6.742c-2.97.35-5.585-1.977-5.585-4.975v-21.06a3.95 3.95 0 0 1 .073-.8zm71.71-2.23c-.33.33-.53.78-.53 1.276v20.395c0 1.096.968 1.936 2.057 1.795l12.046-1.634a2.77 2.77 0 0 1 2.326.786l4.725 4.727a2.69 2.69 0 0 1 .793 1.646c1.485-.867 1.882-3.004.552-4.336l-4.726-4.725a2.77 2.77 0 0 0-2.326-.787l-12.045 1.634c-1.09.142-2.057-.7-2.057-1.795v-19.453c-.31.08-.593.25-.814.47z" class="C D"/><path d="M-1699.662 134.468c0 20.42 16.55 36.97 36.97 36.97 4.167 0 7.73-.336 11.763-1.008l139.344-26.605c1.526-.282 2.4-1.674 2.252-3.025-.27.162-.57.276-.907.337l-139.344 26.604c-4.033.673-7.596 1.01-11.763 1.01-20.42 0-36.97-16.55-36.97-36.97 0-5.392 1.156-10.514 3.226-15.13a36.82 36.82 0 0 0-4.571 17.819zm161.754-1.11a2.3 2.3 0 0 0 .578-1.532V110.97c0-1.305-1.07-2.36-2.38-2.334l-57.916 1.197a4.99 4.99 0 0 0-4.833 4.208c.88-.914 2.117-1.492 3.49-1.52l57.915-1.196a2.33 2.33 0 0 1 2.38 2.332v20.273c.296-.135.558-.33.766-.57zm11.26-25.187c-.423.262-.928.416-1.48.416a1.8 1.8 0 0 0-1.808 1.808v.94c.148-.04.302-.06.464-.06a2.83 2.83 0 0 0 2.823-3.104z" class="B"/><circle fill="#202020" cx="-1662.133" cy="134.792" r="25.235"/><g class="I"><circle cx="-1662.133" cy="134.792" r="18.764"/><path d="M-1663.684 155.82h3.102c.93 0 1.684-.754 1.684-1.684v-38.7c0-.93-.754-1.685-1.684-1.685h-3.102c-.93 0-1.684.754-1.684 1.685v38.7c0 .93.754 1.684 1.684 1.684z"/><path d="M-1648.36 150.758l2.194-2.193c.658-.658.658-1.725 0-2.383l-27.358-27.357c-.658-.657-1.724-.657-2.382 0l-2.193 2.193c-.658.658-.658 1.725 0 2.383l27.358 27.357a1.68 1.68 0 0 0 2.381 0z"/><path d="M-1641.104 136.342v-3.102c0-.93-.754-1.685-1.685-1.685h-38.69c-.93 0-1.685.755-1.685 1.685v3.102c0 .93.754 1.685 1.685 1.685h38.69c.93 0 1.685-.754 1.685-1.685z"/><path d="M-1646.167 121.018l-2.194-2.193c-.657-.657-1.724-.657-2.38 0l-27.358 27.357c-.658.658-.658 1.725 0 2.383l2.193 2.193c.658.658 1.724.658 2.382 0l27.358-27.357c.658-.658.658-1.725 0-2.383z"/></g><circle cx="-1662.133" cy="134.792" r="12.294" class="K"/><path d="M-1692.894 149.252c1.223 2.686 2.776 5.2 4.607 7.468l28.567-17.05.518-.37.2-.168c.146-.126.285-.26.414-.395l.1-.1a5.59 5.59 0 0 0 .427-.556l.116-.182a6.12 6.12 0 0 0 .298-.531c.013-.03.033-.064.052-.104a5.19 5.19 0 0 0 .252-.672c.02-.053.032-.098.045-.143a5.6 5.6 0 0 0 .142-.654c.006-.025.013-.045.013-.07.032-.214.052-.428.058-.64.006-.04 0-.084 0-.123v-.078l-.006-.35c-.007-.11-.026-.22-.04-.323 0-.026-.006-.045-.006-.07v-.02l-.02-.136c-.02-.116-.055-.23-.078-.343l-.045-.207c-.026-.104-.065-.2-.097-.305l-.078-.232-.13-.29-.104-.232c-.1-.176-.188-.344-.297-.512-.155-.246-.336-.466-.518-.673l-.097-.1a6.16 6.16 0 0 0-.608-.562c-.013-.014-.026-.02-.04-.025-.22-.176-.453-.33-.7-.467-.006-.006-.02-.013-.026-.02-.246-.136-.505-.245-.764-.342-.026-.014-.052-.02-.078-.033a5.85 5.85 0 0 0-1.605-.316c-.045 0-.083 0-.13-.008a6.67 6.67 0 0 0-.79.033l-.104.02a5.25 5.25 0 0 0-.712.143c-.026.006-.058.006-.09.02l-.07.02-.168.06-.31.116c-.07.025-.142.06-.207.09l-.26.123-.22.116-.324.207-.116.07-26.985 18.938z" class="B"/><path d="M-1722.605 155.786l62.125-15.812c3.083-.785 4.897-3.972 4-7.023s-4.15-4.746-7.167-3.736l-60.785 20.365 1.827 6.206z" class="F"/><path d="M-1724.432 149.58l.458 1.56 59.662-19.988a5.67 5.67 0 0 1 1.834-.293 5.63 5.63 0 0 1 5.333 4.029c.238.812.283 1.627.165 2.408a5.58 5.58 0 0 0 .5-4.344 5.63 5.63 0 0 0-5.333-4.029 5.67 5.67 0 0 0-1.834.293l-60.785 20.365z" class="C D"/><path d="M-1724.432 149.577l1.825 6.21 62.126-15.81c2.264-.574 3.848-2.455 4.166-4.62a5.58 5.58 0 0 1-3.5 2.685l-62.126 15.81-1.367-4.652-1.124.377z" class="B"/><circle cx="-1662.133" cy="134.792" r="3.882" class="K"/><path d="M-1665.18 132.39c.66-.523 1.495-.835 2.4-.835 2.142 0 3.882 1.74 3.882 3.883 0 .905-.31 1.74-.835 2.4a3.87 3.87 0 0 0 1.482-3.047c0-2.142-1.74-3.882-3.882-3.882-1.235.001-2.342.583-3.047 1.482z" class="B C"/><path d="M-1666.016 134.792c0 2.143 1.74 3.883 3.882 3.883a3.87 3.87 0 0 0 3.048-1.482 3.85 3.85 0 0 1-2.401.835c-2.142 0-3.882-1.74-3.882-3.882 0-.906.3-1.74.834-2.4a3.87 3.87 0 0 0-1.481 3.046z" class="B"/><path d="M-1710.065 150.18l-17.52 6.732-2.32-6.04 17.52-6.732z" class="F"/><path d="M-1731.497 152.188l21.034-8.082c.863-.332 1.294-1.3.962-2.164l-.2-.497c-.332-.863-1.3-1.294-2.164-.962l-21.033 8.08c-.864.332-1.294 1.3-.963 2.164l.2.497c.332.863 1.3 1.295 2.164.963zm3.25 8.456l21.033-8.082c.863-.33 1.294-1.3.962-2.164l-.2-.497c-.332-.863-1.3-1.295-2.164-.963l-21.033 8.082c-.863.332-1.294 1.3-.962 2.164l.2.497c.33.864 1.3 1.294 2.164.963z" fill="#202020"/><circle fill="#d3d3d3" cx="-1720.052" cy="150.563" r="2.588"/><path d="M-1722.522 149.797a2.56 2.56 0 0 1 1.294-1.093 2.59 2.59 0 0 1 3.344 1.487c.216.564.223 1.158.054 1.693.392-.654.49-1.48.193-2.25a2.59 2.59 0 0 0-3.344-1.488c-.768.297-1.317.923-1.54 1.65z" class="B C"/><path d="M-1722.467 151.49a2.59 2.59 0 0 0 3.344 1.488 2.58 2.58 0 0 0 1.542-1.65 2.57 2.57 0 0 1-1.294 1.094 2.59 2.59 0 0 1-3.344-1.488c-.217-.564-.223-1.158-.055-1.693-.39.653-.49 1.48-.193 2.25z" class="B"/><circle cx="-1512.898" cy="121.851" r="7.531" class="E"/><path d="M-1519.033 117.484a7.57 7.57 0 0 1 2.899-.576 7.53 7.53 0 0 1 7.531 7.532 7.48 7.48 0 0 1-1.397 4.367c2.724-1.14 4.633-3.824 4.633-6.956a7.53 7.53 0 0 0-7.531-7.532c-2.53 0-4.77 1.25-6.135 3.165z" class="C D"/><circle cx="-1512.898" cy="121.85" r="4.53" class="K"/><path d="M-1516.454 119.05a4.49 4.49 0 0 1 2.8-.973c2.5 0 4.53 2.03 4.53 4.53 0 1.057-.362 2.03-.974 2.8a4.52 4.52 0 0 0 1.729-3.557c0-2.498-2.03-4.53-4.53-4.53a4.52 4.52 0 0 0-3.554 1.729z" class="B C"/><path d="M-1517.428 121.85c0 2.5 2.03 4.53 4.53 4.53 1.442 0 2.733-.68 3.556-1.73a4.49 4.49 0 0 1-2.8.975c-2.5 0-4.53-2.03-4.53-4.53 0-1.057.362-2.03.974-2.8a4.52 4.52 0 0 0-1.729 3.555z" class="B"/><circle cx="-1886.659" cy="121.851" r="7.531" class="E"/><path d="M-1892.794 117.484a7.57 7.57 0 0 1 2.899-.576c4.16 0 7.532 3.37 7.532 7.532 0 1.63-.518 3.138-1.398 4.367 2.724-1.14 4.633-3.824 4.633-6.956a7.53 7.53 0 0 0-7.531-7.532c-2.53 0-4.77 1.25-6.135 3.165z" class="C D"/><circle cx="-1886.659" cy="121.85" r="4.529" class="K"/><path d="M-1890.215 119.05a4.49 4.49 0 0 1 2.801-.973c2.5 0 4.53 2.03 4.53 4.53 0 1.057-.362 2.03-.974 2.8a4.52 4.52 0 0 0 1.729-3.557c0-2.498-2.03-4.53-4.53-4.53a4.52 4.52 0 0 0-3.556 1.729z" class="B C"/><path d="M-1891.188 121.85c0 2.5 2.03 4.53 4.53 4.53 1.44 0 2.732-.68 3.555-1.73a4.49 4.49 0 0 1-2.8.975c-2.5 0-4.53-2.03-4.53-4.53 0-1.057.362-2.03.974-2.8-1.05.823-1.73 2.114-1.73 3.555z" class="B"/><path fill="#1a1a1a" d="M-1782.836-130.865c-.732 2.478-.8 4.906-.336 6.82s1.498 3.31 2.95 3.737l7.446 2.202.313.08 5.312-17.974c-.102-.042-.202-.07-.307-.103l-7.446-2.2c-2.908-.86-6.464 2.475-7.932 7.44z"/><path d="M-1768.708-131.867l.307.103 1.25-4.234c-.102-.042-.202-.07-.307-.103l-7.446-2.2c-2.86-.846-6.354 2.37-7.854 7.197.884-2.467 3.787-3.796 6.604-2.963l7.445 2.2z" class="B C"/><path d="M-1782.902-130.62c-.673 2.39-.728 4.723-.27 6.573.474 1.912 1.498 3.31 2.95 3.737l7.446 2.202.313.08 1.252-4.234c-.11-.02-.208-.05-.313-.08l-7.446-2.2c-1.452-.43-2.617-1.35-3.316-2.5-.656-1.068-.907-2.34-.616-3.577z" class="B"/><path d="M-1773.528-128.113c-1.468 4.965-1.13 9.45.752 10.007.068.02.133.04.204.048 1.872.255 4.454-3.252 5.87-8.037s1.154-9.13-.555-9.936a1.26 1.26 0 0 0-.198-.07c-1.883-.557-4.605 3.024-6.072 7.988z"/><path fill="#666" d="M-1770.426-127.195a23.77 23.77 0 0 0-.62 2.623c-.136.803-.215 1.572-.267 2.297l-.01.286a5.52 5.52 0 0 0 1.511.71l26.26 7.758c.036.017.075.02.112.032l3.115-10.536c-.037-.01-.072-.027-.11-.033l-.197-.064-26.06-7.705a6.52 6.52 0 0 0-.611-.146l-.345-.04c-.037-.012-.078-.01-.117-.015l-.2-.012c-.13-.013-.258-.017-.38-.012l-.147.247-1.026 2.078a23.3 23.3 0 0 0-.906 2.533z"/><path d="M-1769.522-129.728a9.56 9.56 0 0 1 2.093.383l26.37 7.803.733-2.482c-.037-.01-.072-.027-.11-.033l-.197-.064-26.06-7.705a6.52 6.52 0 0 0-.611-.146l-.345-.04c-.037-.012-.078-.01-.117-.015l-.2-.012c-.13-.013-.258-.017-.38-.012a4.74 4.74 0 0 0-.147.247l-1.027 2.077z" class="B C"/><path d="M-1771.046-124.572c-.136.803-.215 1.572-.267 2.297l-.01.286a5.52 5.52 0 0 0 1.511.71l26.26 7.758c.036.017.075.02.112.032l.734-2.48-.312-.086-26.062-7.705c-.72-.215-1.38-.49-1.966-.813z" class="B"/><path d="M-1745.606-119.857c-.86 2.9-.03 5.727 1.854 6.283l.203.053c1.838.368 3.94-1.514 4.77-4.318s.088-5.527-1.655-6.218a2.01 2.01 0 0 0-.199-.065c-1.884-.557-4.113 1.355-4.973 4.265z"/><g class="C"><path d="M-1744.294-122.445c.62-.29 1.26-.363 1.87-.184l.197.065c1.746.69 2.486 3.413 1.657 6.218-.295 1-.752 1.883-1.312 2.588 1.308-.592 2.52-2.11 3.103-4.082.83-2.805.09-5.527-1.657-6.22l-.197-.064c-1.235-.365-2.615.334-3.66 1.678z" class="B"/><path d="M-1666.818 93.422l9.733 23.71-80.465 33.032-3.54-8.62 3.85-4.94 15.178-12.106 2.345-2.97 2.8-3.556 1.445-1.827 1.358-1.724 1.445-1.828 1.357-1.723 4.435-5.62-1.153-7.92 24.702-11.4 8.29-5.13z"/></g><path d="M-1737.74 150.167l-3.244-7.903 80.467-33.027 3.244 7.903z" class="B"/><path d="M-1713.93 124.86a1.16 1.16 0 0 1-.45.326c-.388.16-.847.104-1.192-.182l-4.147-3.478 1.44-1.83 4.203 3.522c.492.4.56 1.148.145 1.642zm2.906-3.468c-.128.15-.283.263-.452.332a1.17 1.17 0 0 1-1.189-.188l-4.25-3.565 1.445-1.827 4.3 3.607c.493.416.56 1.148.145 1.64zm2.904-3.468a1.13 1.13 0 0 1-.448.33c-.388.16-.848.1-1.192-.187l-4.354-3.648 1.445-1.828 4.403 3.7a1.16 1.16 0 0 1 .146 1.64zm2.905-3.464a1.16 1.16 0 0 1-1.64.144l-4.455-3.737 1.443-1.83 4.512 3.78a1.17 1.17 0 0 1 .14 1.643zm2.908-3.467a1.21 1.21 0 0 1-.45.332 1.17 1.17 0 0 1-1.193-.187l-4.557-3.82 1.444-1.83 4.613 3.865c.493.414.555 1.148.144 1.64z" class="D"/><path fill="#494949" d="M-1559.26-120.374l2.51 34.846-.833 3.638c-.002.014-.004.028-.01.044l-.555 1.86-.623 1.79-.34.886-.736 1.74-.396.857-.627 1.27-.67 1.245a43.45 43.45 0 0 1-6.377 8.679 42.87 42.87 0 0 1-3.889 3.627l-1.946 1.607a43.4 43.4 0 0 1-5.593 3.91l-17.23 10.134c-10.35 6.09-21.3 11.087-32.676 14.924l-8.523 2.876c-6.864 2.313-13.862 4.2-20.962 5.643l-20.218 4.112a173.78 173.78 0 0 1-14.7 2.336l-4.524.466-6.675.595-9.573.857c1.4 1.863 2.67 3.803 3.837 5.813.26.442.5.896.755 1.347l.368.682c.48.912.933 1.837 1.37 2.775l10.474 22.596 11.468 23.076 17.626 43.162c-.75.6-1.542 1.214-2.366 1.814-3.14 2.273-2.917 2.51-6.958 4.477-3.69 1.794-7.716 3.412-11.986 4.788-7.29 2.35-12.475 3.696-18.88 4.09l-23.843-42.635-29.746-61.074a24.43 24.43 0 0 1-1.37-3.452l-2.75-8.8c-.758-2.433-1.135-4.968-1.118-7.517l.048-6.32a25 25 0 0 1 .507-4.816c.328-1.58.806-3.13 1.44-4.623 2.382-5.615 6.762-10.15 12.3-12.722l24.414-11.356 89.875-34.065 11.26-18.502 68.452-6.675z"/><path d="M-1556.752-85.53l-.832 3.637c-.002.016-.003.03-.01.045l-.555 1.86-.623 1.79-.34.887-.735 1.74-.396.857-.63 1.27-.67 1.245c-1.75 3.134-3.9 6.052-6.376 8.68a42.72 42.72 0 0 1-3.889 3.627l-1.946 1.607a43.46 43.46 0 0 1-5.595 3.91l-17.23 10.135c-10.35 6.1-21.3 11.086-32.676 14.922l-8.523 2.877c-6.863 2.313-13.86 4.2-20.962 5.643l-20.218 4.112c-4.867.988-9.767 1.768-14.7 2.335a158.84 158.84 0 0 1-4.523.466l-6.676.596-9.572.857c1.39 1.863 2.67 3.8 3.836 5.812.26.443.51.898.757 1.348l.367.682a53.78 53.78 0 0 1 1.375 2.775l10.468 22.596 11.47 23.077 17.625 43.16c-.75.61-1.542 1.215-2.366 1.814-3.138 2.273-2.917 2.51-6.958 4.477l-1.236-2.818-21.477-44.808-17.043-38.802-10.98-23.472c-.016-.038-.037-.077-.054-.116-2.52-5.354.973-11.588 6.868-12.123l3.673-.33a188.02 188.02 0 0 0 20.276-2.968l21.332-4.33a186.87 186.87 0 0 0 14.522-3.56c.072-.02.14-.04.2-.062a175.76 175.76 0 0 0 7.379-2.304l8.997-3.008c12.007-4.02 23.566-9.25 34.492-15.608l18.434-10.723a45.34 45.34 0 0 0 5.666-3.941l2.062-1.676c3.697-3.014 4.442-9.858 4.29-17.455-.095-4.703-.526-9.7-.81-14.232l-.202-4.045c-.067-1.87-.07-3.605.03-5.145.058-.932.155-1.797.304-2.572l11.253 1.447 10.607-1.033 2.507 34.844z" class="D"/><path d="M-1604.005-271.297l-24.644 33.377-24.415-39.743 34.838-34.407 4.83 13.862z" class="H"/><path d="M-1617.328-303.876l-9.798 2.47-3.49 19.39-6.35 11.65c-2.95 4.122-4.86 5.42-7.533 6.65l-2.723-4.438-5.844-9.51 32.04-31.64 3.697 5.426z" class="B"/><path d="M-1614.623-330.25l2.49 29.728-13.386.23-7.07 16.14-7.245 8.85c-1.598 1.817-3 2.762-4.367 3.323-1.047.433-2.07.636-3.154.83l-7.8 1.404c-3.1.558-6.326-2.33-7.536-6.752l-2.96-4.988c-.657-2.395-2.188-4.213-3.927-4.64l-2.35-.584c-.38-.092-.743-.285-1.08-.568s-.645-.65-.9-1.085c-.8-1.36-1.014-3.177-.52-4.593l2.894-8.32c.564-1.622.645-3.58.22-5.47l-1.765-7.895a22.39 22.39 0 0 1-.496-6.598l1.885-24.92 16.42-9.94 8.47-1.977c1.23-.4 2.19-.663 3.035-.838l20.426 3.688 8.72 24.974z" class="H"/><path fill="#4d4d4d" d="M-1608.636-326.847l.024.475.084 1.953c.162 3.905-.056 7.822-.634 11.69l-.125.77-1.594 9.732c-.017.092-.032.19-.053.282a6.96 6.96 0 0 1-.19.722 5.61 5.61 0 0 1-.159.452 9.87 9.87 0 0 1-.176.409c-.054.118-.117.237-.176.352-.067.125-.14.246-.212.363a6.95 6.95 0 0 1-1.809 1.954c-.216.157-.435.3-.665.435-1.288.74-2.818 1.077-4.393.88-.106-.014-.212-.028-.314-.047-.13-.023-.258-.048-.386-.08-.098-.02-.192-.045-.286-.07-.074-.02-.146-.04-.224-.068a2.12 2.12 0 0 1-.245-.079c-.27-.092-.536-.205-.8-.333l-.26-.137c-.026-.014-.047-.024-.07-.04-.104-.057-.2-.115-.3-.177-.106-.07-.22-.144-.322-.22-.298-.214-.583-.443-.846-.695-.583-.573-1.072-1.247-1.427-1.993-.255-.528-.448-1.1-.563-1.69l-2.695-13.7-1.778-11.05a4.46 4.46 0 0 0-4.44-3.751c-.26 0-.513.026-.764.072a4.46 4.46 0 0 0-3.658 4.306l-.225 12.395c-.543.46-1.165.742-1.803.856-1.755.316-3.623-.62-4.306-2.454l-4.032-10.89-5.26-6.95-15.65 1.367s-2.265.17-4.41-.742c-1.474-.63-1.704-1.116-1.77-1.3-.062-.158 1.05-4.233.84-6.916-.323-4.093.644-4.06 1.558-9.27l7.213-2.833c3.902-.938 5.522-1.742 8.957-2.846l10.163-2.37c1.23-.4 2.19-.663 3.035-.838 2.086-.437 3.458-.345 6.576-.436l5.383-.084c3.134.34 3.445.448 6.38.983l4.28 1.945c2.93 1.614 5.31 5.788 6.787 8.784l.733 1.614c1.424 2.897 2.447 5.282 3.18 7.593 1.135 3.55 1.6 6.914 1.82 11.67z"/><path d="M-1609.505-334.16a60.88 60.88 0 0 1 .869 7.312l.024.475.03.58.058 1.37c.167 3.91-.054 7.832-.638 11.697a23.21 23.21 0 0 1-.116.765l-1.602 9.74c-.017.092-.032.19-.053.282a5.94 5.94 0 0 1-.19.722 5.61 5.61 0 0 1-.159.452c-.055.137-.1.274-.176.41-.054.118-.117.237-.176.352-.067.125-.14.246-.212.363a6.95 6.95 0 0 1-1.809 1.954 7.16 7.16 0 0 1-.665.435c-1.288.74-2.818 1.077-4.393.88-.102-.015-.203-.03-.305-.048-.13-.023-.263-.047-.396-.08-.098-.02-.192-.045-.286-.07-.074-.02-.146-.04-.224-.068a2.12 2.12 0 0 1-.245-.079c-.27-.092-.536-.205-.8-.333l-.26-.137c-.026-.014-.047-.024-.07-.04-.104-.057-.2-.115-.3-.177-.106-.07-.22-.144-.322-.22.585-.877.978-1.913 1.133-3.065l1.345-10.304c.57-4.357.715-8.788.432-13.232l-.098-1.46a69.14 69.14 0 0 0-.957-7.852 70.89 70.89 0 0 0-6.055-18.493c-1.483-3.037-3.738-5.6-6.498-7.386l.794-.01c3.134.34 3.445.448 6.38.983l4.28 1.945c2.93 1.614 5.31 5.788 6.787 8.784l.733 1.614c1.424 2.897 2.447 5.282 3.18 7.593.37 1.44.687 2.89.95 4.352z" class="B"/><ellipse transform="matrix(-.9842 .1772 -.1772 -.9842 -3291.0061 -344.2303)" cx="-1630.131" cy="-319.076" rx="8.645" ry="13.525" class="H"/><path d="M-1627.288-326.546a3.4 3.4 0 0 0-1.69-.126c-2.786.5-4.404 4.44-3.62 8.787.423 2.352 1.46 4.345 2.768 5.603-2.176-.69-4.146-3.385-4.77-6.855-.784-4.357.833-8.294 3.61-8.794 1.286-.232 2.594.31 3.703 1.385z" class="B"/><path d="M-1541.692-151.802l-.716 35.675-8.185 11.77-.05 14.463h-.006l-18.724-3.44-.377-.05-40.115-5.285-30.047 1.314-1.277-5.86 2.58-13.977 7.837-13.036.132-1.36 1.875-19.7a5.55 5.55 0 0 0 .023-.682 5.92 5.92 0 0 0-.055-.754 6.34 6.34 0 0 0-.362-1.426l-11.97-31.138-9.66-41.06 1.237-9.708c.593-4.653 1.628-9.226 3.095-13.655a72.64 72.64 0 0 1 5.662-12.806c2.53-4.504 6.1-8.34 10.408-11.196l3.882-2.57c3.11-2.062 6.55-3.578 10.172-4.478l4.952-1.226a32.74 32.74 0 0 1 2.093-.448 32.44 32.44 0 0 1 6.399-.506l.6.017.612.026.523.037.696.052c.28.026.558.058.832.092a26.74 26.74 0 0 1 1.179.164c2.9.455 5.69 1.294 8.334 2.485.41.18.81.374 1.21.575a29.43 29.43 0 0 1 1.76.952 31.45 31.45 0 0 1 2.266 1.441 48.35 48.35 0 0 1 1.087.788l.773.615c.374.293.73.6 1.08.912a17.94 17.94 0 0 1 .725.653c3.037 2.84 5.9 5.844 8.6 9 .91 1.064 1.797 2.146 2.666 3.24l1.274 1.64 1.854 2.508 1.783 2.557c.776 1.147 1.533 2.312 2.266 3.49l1.087 1.777.702 1.196.348.6a120.36 120.36 0 0 1 5.116 9.968l.653 1.46c2.867 6.508 5.162 13.26 6.85 20.183l2.146 8.803c2.054 8.436 3.204 17.066 3.42 25.748l.753 30.155z" class="E"/><path d="M-1542.444-181.957l.75 30.154-.716 35.676-8.178 11.77-.06 14.464-11.156-2.048 2.248-13.997-.04-.134-4.18-14.294 3.662-51.756c-.5-10.245-1.93-20.464-4.268-30.477l-2.446-10.445c-3.074-13.15-7.688-25.837-13.708-37.686-2.937-5.778-6.215-11.306-9.816-16.54-3.598-5.24-7.5-10.188-11.714-14.796a30.93 30.93 0 0 0-.825-.873l.6.017.612.027.524.037.697.053a20.69 20.69 0 0 1 .831.091 26.49 26.49 0 0 1 1.178.165 32.57 32.57 0 0 1 8.335 2.485c.41.18.81.372 1.21.573a30.92 30.92 0 0 1 1.762.953c.772.445 1.527.925 2.265 1.442.37.253.73.518 1.088.788l.774.613c.374.295.73.6 1.082.912a23.53 23.53 0 0 1 .725.655 111.26 111.26 0 0 1 11.254 12.239l1.274 1.64 1.854 2.51a103.1 103.1 0 0 1 1.782 2.555 112.75 112.75 0 0 1 2.267 3.493l1.086 1.777 1.053 1.796a119.6 119.6 0 0 1 5.113 9.97l.653 1.46a121.48 121.48 0 0 1 6.849 20.186l2.145 8.8c2.054 8.434 3.204 17.066 3.42 25.747z" class="D"/><path d="M-1555.344-219.623l-13.43-33.26c-2.365-3.85-5.5-7.164-9.232-9.727l-4.99-3.436c-2.008-1.383-4.167-2.534-6.434-3.433l-11.027-4.37c-4.512-1.17-9.246-1.19-13.767-.056l-7.803 1.956a16.14 16.14 0 0 0-9.467 7.741h0c-2.454 4.526-4.413 9.303-5.842 14.25l-.125.43c-.83 2.87-1.48 5.787-1.943 8.737l-1.35 8.558c-.455 4.314-.462 8.665-.022 12.98l.546 5.365c.14 1.388.328 2.77.56 4.144l1.716 10.13-3.414 3.752-2.265-14.02c-.4-2.41-.638-4.843-.746-7.283l-.226-5.123c-.204-4.637.104-9.28.92-13.848h0c.53-2.964 1.28-5.885 2.248-8.737l.828-2.44c.93-2.74 2.025-5.423 3.28-8.032l3.097-6.44 2.047-3.71a16.14 16.14 0 0 1 9.174-7.564l5.237-1.7 4.437-1.23a39.66 39.66 0 0 1 8.542-1.386l.528-.027a25.69 25.69 0 0 1 9.991 1.473l6.094 2.185c2.454.88 4.793 2.052 6.966 3.493l7.146 4.737c3.108 2.06 5.836 4.642 8.066 7.63l8.062 10.807 5.895 11.57-3.298 15.877z" class="J"/><path d="M-1550.555-104.4l-.032.053-.005.001-.055 14.463-18.725-3.44-.376-.05-40.117-5.285-30.048 1.314-1.276-5.86 1.54-8.364h.004l29.32-1.28 48.746 6.42 3.368.617z" class="C"/><path d="M-1546.3-117.66c-48.714-26.727-71.39-76.15-71.39-76.15l1.577-20.575s30.195 49.85 78.91 76.577l-9.095 20.148z" class="J"/><path d="M-1581.436-229.896a36.49 36.49 0 0 1 .348 10.582 51.09 51.09 0 0 1-8.272 22.645l-16.985 25.484-23.218 32.7-.45.35 1.25-13.14c.02-.225.03-.457.02-.682-.003-.254-.02-.504-.056-.752a6.27 6.27 0 0 0-.36-1.428l-11.97-31.137-4.047-17.197 4.644-23.22c1.25-6.254 3.317-12.316 6.158-18.023l7.706-9.044 2.443-3.65c6.93-4.805 15.14-6.673 22.38-2.348l2.025 1.212a36.57 36.57 0 0 1 15.009 17.333l1.144 2.745c1.02 2.448 1.765 4.99 2.23 7.58z" opacity=".8"/><path d="M-1626.2-263.148l-8.775 10.045a72.38 72.38 0 0 0-10.533 15.869l-10.562 21.642-34.94 31.26-21.198 19.284-18.36 8.822.6 8.278 14.46 19.338 21.833-6.003 36.634-15.486 30.756-25.73 22.902-20.332c6.095-5.4 10.81-12.2 13.75-19.8h0a36.57 36.57 0 0 0 2.115-18.227l-.41-2.942a36.57 36.57 0 0 0-10.116-20.578l-1.652-1.685c-5.905-6.02-14.786-8.03-22.708-5.14l-3.797 1.386z" class="E"/><path d="M-1587.936-237.125l.408 2.94c.428 3.078.458 6.19.106 9.25-.36 3.06-1.1 6.082-2.223 8.978-2.942 7.6-7.653 14.39-13.752 19.802l-22.9 20.33-30.755 25.73-36.634 15.483-21.833 6.002-5.254-7.024 7.5-2.168 36.5-16.52 30.458-27.864 22.664-22.035c6.037-5.865 10.662-13.266 13.505-21.582a43.07 43.07 0 0 0 2.103-9.841 44.48 44.48 0 0 0-.234-10.171l-.45-3.24c-.835-6.015-2.888-11.74-5.968-16.777a21.5 21.5 0 0 1 14.999 6.442l1.656 1.687a36.56 36.56 0 0 1 10.115 20.577z" class="D"/><path d="M-1615.53-265.83l-8.653 9.95a81.02 81.02 0 0 0-11.752 17.775l-11.773 24.25-38.978 35-23.65 21.598-19.547 9.426-.097-.127-.598-8.278 18.36-8.82 21.198-19.283 34.94-31.26 10.56-21.64a72.28 72.28 0 0 1 10.534-15.871l8.775-10.047 3.796-1.383c2.248-.824 4.574-1.25 6.886-1.3z" class="C G"/><path d="M-1731.822-128l-4.087 1.83c-2.84 1.27-6.05 1.452-9.018.5l-.04-.014-2.235-1.844c-2.183-1.802-5.073-2.5-7.836-1.89l-.903.2a4.88 4.88 0 0 0-3.696 3.621l-.21.865c-.483 2 .16 4.102 1.68 5.487l3.112 2.84c.788.72.588 2.02-.387 2.452-2.08.923-4.61.517-6.292-1.22l-1.248-1.286a12.11 12.11 0 0 1-3.392-8.969l.245-5.287c.162-3.527 2.464-6.604 5.802-7.755l24.343-4.382.178-.185 5.722 10.567-1.738 4.465z" class="H"/><use xlink:href="#D" class="E"/><g class="C"><use xlink:href="#D"/><path d="M-1745.752-145.605l17.8-8.79 2.533 5.132-17.8 8.79z" class="G"/></g><path d="M-1736.656-127.187l17.81-8.79 2.533 5.133-17.81 8.79z" class="G"/><path d="M-1611.854-127.776l-19.556-1.393.638-1.056.13-1.36c6.364-.496 12.186.315 18.787 3.8zm-16.943-24.942c4.24-2.067 7.786-3.13 11.384-3.8l-11.33 4.543c-.003-.254-.02-.504-.055-.752zm4.55 36.312l-14.824 1.704.125-.667.034-.18.05-.268c4.806-.86 9.628-1.343 14.615-.6z" class="D"/><path d="M-1541.692-151.802l-.716 35.675-6.11 8.79a9.08 9.08 0 0 1-9.47-8.183l-14.62-149.61 2.666 3.24 1.274 1.64 1.854 2.508 1.783 2.557 2.266 3.49 1.087 1.777.702 1.196.348.6a120.36 120.36 0 0 1 5.116 9.968l.653 1.46c2.867 6.508 5.162 13.26 6.85 20.183l2.146 8.803c2.054 8.436 3.204 17.066 3.42 25.748l.752 30.155z"/><path d="M-1410.526-126.204l-127.85 17.077a9.08 9.08 0 0 1-10.199-7.793l-19.862-148.682c-.444-3.32.968-6.46 3.433-8.376a8.93 8.93 0 0 1 3.381-1.639l.982-.187.134-.017 127.71-17.06c.335-.047.664-.07.997-.078a9.08 9.08 0 0 1 9.203 7.871l19.865 148.682c.663 4.97-2.83 9.536-7.796 10.202z" class="E"/><path d="M-1422.594-285.086l4.66 34.882-145.842 19.484-5.198-38.907a5.02 5.02 0 0 1 4.309-5.638l131.87-17.617a9.08 9.08 0 0 1 10.2 7.796zm-34.483 47.286l-65.507 8.752 11.07 82.864 68.66-9.173-14.188-82.448z"/><path d="M-1522.59-229.093l65.346-8.73 10.626 79.55-65.346 8.73z" class="J"/><path d="M-1462.186-197.435l-45.036 6.017a7.22 7.22 0 0 1-8.111-6.199l-4.252-31.83 59.346-7.928 4.253 31.83a7.22 7.22 0 0 1-6.2 8.111zm-51.462 12.448l59.347-7.927 4.178 31.277-59.347 7.927z" class="E"/><path d="M-1417.85-286.845l4.217 31.568-150.734 20.138-5.198-38.907a5.02 5.02 0 0 1 4.309-5.637l133.45-17.83c6.802-.908 13.048 3.87 13.956 10.667z" class="J"/><path d="M-1422.322-286.248l3.62 27.096-141.8 18.943-4.6-34.435c-.037-.277.16-.53.434-.567l133.45-17.83c4.325-.577 8.3 2.473 8.887 6.792z" class="E"/><path fill="#ededed" d="M-1562.105-252.15l-1.475-11.046 141.79-18.94 1.475 11.046z"/><path d="M-1534.146-109.688L-1557-280.786l16.1-2.15 22.854 171.098zm103.22-13.792l-22.854-171.097 16.1-2.15 22.854 171.097z" class="J"/><path d="M-1501.512-114.05l-36.863 4.924a9.08 9.08 0 0 1-10.199-7.793l-19.862-148.682c-.444-3.32.968-6.46 3.433-8.376a8.93 8.93 0 0 1 3.381-1.639l.982-.187.134-.017 7.467 16.63c6.748 15.03 11.124 30.63 13.054 46.553 1.347 11.102 2.64 23.674 3.6 34.383.708 7.9 4.046 19.3 6.296 30.34 2.823 13.864 13.09 25.952 28.577 33.866z"/><path d="M-1638.048-331.604c.002.014.003.02.001.027-.018.057-.1.12-.298.206l-1.717.7-29.397 11.947-.504.22-1.718.73-.962.38-.302.114-.716.27-.277.104-.648.23-3.293 1.06-1.332.377-.666.177h-.003l-6.734 1.702-.426.1c-.92.2-2.264.394-3.553.5l-2.158.07-.6-.036-.14-.02-.263-.056-.134-.036-3.874-1.13-.406-.127-.396-.138-.343-.14-.418-.185-.058-.026-.12-.06-.26-.134-.224-.123-.736-.454-.334-.23c-.956-.71-1.76-1.577-2.362-2.575-.77-1.276-1.767-2.058-.243-2.81l22.026-10.988 2.656-1.315 5.08-2.51a3.46 3.46 0 0 1 2.338-.27l19.04 4.728a3.96 3.96 0 0 0 .43.075h.003c.048.007.1.01.15.013l.51.035.204.007.436.008.248.002.416-.002.24-.002.214-.004.3-.008.44-.013.636-.026.28-.015.407-.02 9.562-.322z" class="E"/><path d="M-1638.342-331.366l-31.114 12.647c-3.355 1.5-6.85 2.725-10.422 3.653l-6.734 1.702c-1.504.395-4.91.814-6.73.633-.188-.018-.36-.062-.537-.114l-3.873-1.13a10.37 10.37 0 0 1-2.962-1.388c.094.013.18.035.27.04 1.83.188 5.23-.233 6.73-.625l6.734-1.702c3.58-.93 7.066-2.154 10.42-3.66l24.48-9.953c3.438.413 16.13-1.174 13.735-.102z"/><path d="M-1609.897-338.26h-.003l-.848.318-1.367.5-1.334.47-.675.23-.22.076-1.266.417-.834.27-.21.065-.084.03-1.106.338-.89.27-.592.176-.33.095-.553.163-.833.232-.48.13-.47.128-.84.224-1.534.397c-3.72.94-7.58 1.75-11.547 2.42l-4.153.64c-3.385.47-6.72.812-9.98 1.032l-1.004.062c-1.948.12-3.852.192-5.725.225-1.375.024-2.73.027-4.07.003l-2.443-.066v.003l-.42-.018-.572-.02-.98-.05-1.122-.067-.82-.056c-.2-.012-.424-.025-.636-.046l-.806-.064-.504-.044-.554-.05-1.284-.128-.847-.096c-.046-.007-.094-.01-.14-.018l-.973-.118-.79-.106-.9-.125-.604-.094a82.64 82.64 0 0 1-2.895-.495c.028-.356.1-.937.21-1.697l.07-.482.106-.697 1.08-6.577 1.154-6.765a20.25 20.25 0 0 1 .441-1.927 19.83 19.83 0 0 1 11.354-12.925l12.156-5.156c.57-.24 1.15-.453 1.74-.632.104-.033.212-.066.323-.094l.32-.088a6.39 6.39 0 0 1 .468-.116c.017-.006.03-.008.045-.014l.008-.001a.85.85 0 0 1 .075-.016c.023-.004.045-.01.07-.015l.37-.078c.035-.006.07-.015.1-.02l.494-.087c.01-.002.026-.001.04-.004.153-.026.3-.05.467-.068.055-.01.113-.02.17-.023a5.59 5.59 0 0 1 .234-.025h.003a1.75 1.75 0 0 1 .164-.019c.078-.01.152-.014.23-.02.017-.003.032-.006.05-.006s.03-.002.047-.002h.003a14.9 14.9 0 0 1 .734-.042 7.41 7.41 0 0 1 .368-.009l.292-.002c.044-.001.09 0 .137 0l.335.008c.01-.002.02 0 .03.001.062-.001.12.003.18.005l.472.023.12.012.217.016c.103.006.206.02.31.028.01.001.018.003.03.003l.508.065c.015 0 .033.003.052.006.183.025.367.056.554.087l.57.108 10.524 2.173c1.213.254 2.39.615 3.516 1.08.375.153.745.32 1.11.495a19.72 19.72 0 0 1 1.07.561 19.68 19.68 0 0 1 5.279 4.314c1.405 1.614 2.55 3.466 3.377 5.498l6.457 15.878z" class="E"/><path d="M-1616.356-354.14l6.458 15.878c-4.505 1.718-9.357 3.242-14.462 4.528l-7.978-18.952c-3.002-7.126-8.25-12.895-14.3-15.84 1.797-.194 3.618-.1 5.407.263l10.524 2.175c6.476 1.344 11.86 5.824 14.35 11.947z"/><path d="M-1646.14-368.568l-.32.135h-.003l-1.562.648h-.003l-1.84.762c-3.72 1.545-6.762 4.288-8.877 7.854-.594.998-1.114 2.063-1.557 3.18-.9 2.283-1.476 4.8-1.68 7.478l-.095 1.305-.244 3.322-.7 9.936-.123 1.974-.137 2.468c-.004.03-.004.06-.006.087v.003l-.42-.018-.572-.02-.98-.05-1.122-.067-.82-.056c-.2-.012-.424-.025-.636-.046l-.806-.064-.504-.044-.554-.05-1.284-.128-.847-.096c-.046-.007-.094-.01-.14-.018l-.973-.118-.79-.106-.9-.125-.604-.094a82.64 82.64 0 0 1-2.895-.495c.028-.356.1-.938.21-1.697l.07-.482.106-.697 1.08-6.577 1.154-6.765a20.25 20.25 0 0 1 .441-1.927c1.61-5.772 5.768-10.554 11.354-12.925l12.156-5.156c.57-.24 1.15-.453 1.74-.632.104-.033.212-.066.323-.094l.32-.088a6.39 6.39 0 0 1 .468-.116c.017-.006.03-.008.045-.014h.012c.022-.007.045-.01.07-.02s.045-.01.07-.015l.37-.078c.035-.006.07-.015.1-.02l.494-.087c.01-.002.026-.001.04-.004.153-.026.3-.05.467-.068.055-.01.113-.02.17-.023l.23-.028.17-.017c.078-.01.152-.014.23-.02.017-.003.032-.006.05-.006s.034 0 .05 0z" class="C"/><ellipse transform="matrix(-.9928 .1194 -.1194 -.9928 -3325.2329 -538.0861)" cx="-1646.492" cy="-368.69" rx="2.263" ry=".869" class="E"/><path d="M-3803.717-2490.028h2965.434V-821.97h-2965.434z" class="C"/><defs><path id="A" d="M-3803.717-2490.028h2965.434V-821.97h-2965.434z"/><path id="B" d="M-1756.83-151.842l18.382-7.524 9.97 24.36-18.382 7.524z"/><path id="C" d="M-1522.28 22.852h1.94V220.85h-1.94z"/><path id="D" d="M-1745.757-145.62l17.8-8.79 11.65 23.6-17.8 8.79z"/><path id="E" d="M120.573 531.497h11.512v15.146h-11.512z"/><path id="F" d="M169.135 345.37h11.512v15.147h-11.512z"/><path id="G" d="M791.82 300.92h11.513v15.147H791.82z"/><path id="H" d="M874.54 246.813h11.512v15.146H874.54z"/><path id="I" d="M874.54 267.493h11.512v15.147H874.54z"/></defs><clipPath id="J"><use xlink:href="#A"/></clipPath><path clip-path="url(#J)" fill="#dfeef7" d="M-24.782-1214.098c-176.977-85.53-386.35-80.226-576.67-31.092s-367.162 138.852-546.558 219.188-366.754 152.7-563.02 163.514c-281.507 15.494-553.444-96.48-806.97-219.812-192.118-93.458-380.696-196.985-584.595-263.284-101.922-33.14-207.712-56.893-315.085-61.12-213.02-8.387-453.408 85.608-620.108 215.302-152.208 118.42-287.543 318.997-238.402 519.947 32.214 131.73 124.24 246.305 244.372 308.976 101.815 53.114 218.988 68.468 333.72 73.395l2310.003 112.007c402.9 19.86 818.806 37.85 1197.075-102.306 213.477-79.097 427.53-236.765 454.03-462.876 22.88-195.225-110.812-386.307-287.788-471.84z"/><defs><path id="K" d="M-3803.717-2490.028h2965.434V-821.97h-2965.434z"/></defs><clipPath id="L"><use xlink:href="#K"/></clipPath><path clip-path="url(#L)" fill="#dfeef7" d="M-506.82-2279.893c-336.854 107.458-711.482 91.945-1038.3-42.995-273.23-112.814-529.893-309.262-825.29-298.25-425.804 15.874-748.71 458.573-1174.79 462.474-129.92 1.19-261.894-42.625-357.554-130.546s-151.197-221.22-134.767-350.104c25.076-196.69 200.744-339.102 378.757-426.438 340.302-166.958 728.473-210.172 1107.52-208.26s757.11 46.264 1136.148 43.207c502.87-4.056 1031.416-87.137 1489.697 119.926 73.726 33.312 180.61 89.716 210.112 171.703 27.26 75.756-62.812 156.65-108.21 208.683C59.35-2596.2-81.47-2482.617-237.38-2396.33c-85.74 47.452-176.072 86.65-269.44 116.436z"/><defs><filter  filterUnits="userSpaceOnUse" x="-2666.156" y="-2060.17" width="1991.788" height="823.915"><feColorMatrix values="1 0 0 0 0 0 1 0 0 0 0 0 1 0 0 0 0 0 1 0"/></filter></defs><mask maskUnits="userSpaceOnUse" x="-2666.156" y="-2060.17" width="1991.788" height="823.915" id="N"/><linearGradient id="O" gradientUnits="userSpaceOnUse" x1="-2756.56" y1="-1641.822" x2="-332.324" y2="-1655.166"><stop offset=".043" stop-color="#fff"/><stop offset=".781" stop-color="#ccdae3"/></linearGradient><path mask="url(#N)" fill="url(#O)" d="M-716.793-1317.25c-4.365-.048-8.654.593-12.824 1.802v-379.06h-30.33v-301.316l-30.33 17.713v-82.057h-7.982v86.72l-122.92 71.786v149.09h-33.523v-48.65h-19.156v48.65h-27.14v215h-46.294v-364.09h-39.91v-28.248h-19.156v28.248h-27.138v-26.68h-19.156v26.68h-55.873v73.536l-129.305-61.17v-76.71h-7.98v72.934l-44.698-21.145v376.646h-35.12v-125.55h-30.33v-12.555h9.578v-14.124h-33.523v14.124h9.578v12.555h-33.52v-36.095H-1523v36.095h-20.753v-98.87h-7.98v98.87h-7.982v-98.87h-7.98v98.87h-25.542v-160.074h-44.697v-50.22h-17.56v-76.898h-7.98v76.898h-57.47v-14.124h9.58v-14.125h-33.523v14.125h9.578v14.124h-22.35v50.22h-47.89v216.57h-12.77v-123.98h-57.47v-84.745h-7.982v84.745h-33.523v-43.942h-19.156v43.942h-43.102v193.03h-15.963v-379.784l-54.276-21.66v-102.32h-7.982v99.133l-33.522-13.378v-85.755h-7.982v82.57l-57.47-22.935v444.128h-15.964v-285.623h-46.294v-31.387h-54.276v-83.176h-7.98v83.176h-17.56v31.387h-35.12v175.77h-35.12v-83.176h-71.836v-108.286h-7.982v108.286h-23.945v-43.942h-19.156v43.942h-38.312v138.104h-55.873v-17.264h9.578v-14.124h-33.523v14.124h9.578v17.264h-36.716v54.927h-7.982v205.86c-15.614 11.717-24.25 35.48-19.71 56.594 1.63 7.576 4.973 15.006 10.586 19.29.854.652 1.778 1.178 2.73 1.64a35.91 35.91 0 0 0-2.354 8.516h16.733v9.416h212.315v-9.416h1742.512c4.772-7.48 7.834-16.188 8.05-25.5.568-25.05-20.873-45.848-42.415-46.08z"/><g fill="#a3be57"><path d="M-2155.826-1317.817a1.29 1.29 0 0 0-.23-1.106c-10.087-13.333-24.608-22.17-39.938-21.9-28.252.48-53.014 31.714-52.216 64.274.032 1.336-1.7 1.887-2.43.77l-13.923-21.043-7.386-11.426c-7.56-11.37-25.247-4.43-32.145 4.068-2.907 3.582-4.812 7.947-5.564 12.492-.8 4.882.557 9.607-.575 14.44-2.2 9.437-9.23 16.1-17.938 19.822-4.846 2.072-10.026 3.3-15.228 4.078a96.23 96.23 0 0 1-8.559.856c-1.63.094-3.233-.522-4.855-.37-.903.086-1.82.466-2.35 1.203-.923 1.286-.376 3.08.314 4.505.24.497.523 1.016 1 1.278.404.218.885.222 1.345.222l172.317-.016c1.062 0 1.678-1.172 1.103-2.063-5.247-8.133-7.42-19.07-4.844-28.838 3.827-14.506 17.564-24.336 30.405-22.236.938.153 1.738-.667 1.52-1.597-1.308-5.68-1.164-11.72.164-17.407zm92.368 17.524c12.686-2.94 25.116 10.883 26.203 25.874.755 10.415-2.806 20.515-8.514 28.745h173.783c-8.527-5.02-14.97-14.967-15.878-26.243-.7-8.67 2-17.386 6.768-24.075-1.5-1.384-3.133-2.582-4.904-3.528-7.705-4.118-16.77-3.06-24.257 1.47 3.63-12.886 1.9-28.48-5.466-39.325-12.258-18.053-34.846-23.207-54.032-17.62-27.604 8.04-49.844 36.795-53.805 69.57 4.47-25.84-18.094-52.646-40.4-47.994a28.29 28.29 0 0 0-6.232 2.077c7.17 7.584 10.165 20.417 6.734 31.05zm297.818 25.4c7.35-9.002 20.565-12.26 30.333-6.168 10.644 6.64 16.097 21.26 15.457 35.386h142.8c-2.43-9.314-1.5-17.64 5.287-22.926l-.313-1.32c-.746-3.613-.935-7.358-.627-11.052a31.46 31.46 0 0 0-11.666 13.208c8.52-16.837 1.272-41.6-14.312-48.9s-35.557 4.74-39.43 23.75c1.854-21.968-15.6-43.368-34.567-42.365s-34.678 24.158-31.118 45.84c-7.04-12.954-17.878-23.726-30.776-26.85s-27.715 2.727-34.4 15.94c-.73 1.444-1.307 2.977-1.783 4.55 4.074 5.8 6.023 13.717 5.107 20.897zm316.584-20.768c8.964 2.35 17.452 10.102 18.964 20.643 1.697 11.833-5.347 22.04-14.112 29.345h93.73c.862-6.027 1.278-12.133 1.287-18.243-.313-1.36-.54-2.75-.604-4.167-.083-1.83.027-3.638.286-5.408-1.373-19.577-7.004-38.77-16.503-55.02-20.987-11.304-48.477 6.66-53.412 32.214-.98-11.584-10.264-22.268-20.663-23.7-16.686-2.302-28.325 10.4-36.285 26.296.022.104.054.206.075.312 8.916-2.6 18.273-4.62 27.236-2.27zm242.93 42.204c3.478.895 5.877 3.965 7.113 7.782h90.513c1.564-6.848 4.244-13.206 7.553-18.354-6.326-12.793-21.18-18.354-33.916-15.5-13.812 3.086-25.436 13.713-35.665 24.94 1.07-22.453-14.532-44.053-33.505-47.467.23.232.48.432.7.677 11.436 12.56 9.995 37.282-2.794 47.93z"/><path d="M-995.785-1245.674c-.396-5.502 1.004-11.165 3.387-16.004 2.715-5.5 6.705-10.104 11.378-13.383-5.444-11.672-8.1-25.002-6.9-38.722.338-3.83 1.35-7.666 2.842-11.355-10.4 5.93-18.462 17.515-19.238 30.53-2.352-24.23-25.332-44.062-45.98-37.682-22.354 6.908-34 42.067-21.388 64.624-8.254-14.773-20.793-9.53-29.26 3.64-3.3 5.146-5.988 11.505-7.553 18.353h112.714zm122.287-22.22c5.056 6.198 8.554 14.052 9.497 22.22h95.66c4.773-7.48 7.834-16.188 8.05-25.5.578-25.047-20.864-45.844-42.405-46.077s-41.3 16.037-53.293 36.86c.7-11.9-5.926-23.308-14.983-28.578 4.188 12.877 2.74 28.095-2.525 41.077z"/></g><g fill="#769559"><path d="M-2155.447-1298.368c-13.396-3.587-28.435 6.507-32.468 21.793-2.802 10.62.013 22.624 6.287 30.9h135.86c5.708-8.23 9.27-18.33 8.514-28.745-1.087-15-13.518-28.814-26.203-25.874 3.43-10.634.438-23.467-6.732-31.052a22.54 22.54 0 0 0-3.482-3.027c-9.622-6.722-23.24-4.27-30.665 5.522-7.966-13.155-24.634-17.935-36.943-10.593-7.08 4.224-12.187 12.154-14.396 21.02-1.636 6.544-1.698 13.597.23 20.054zm267.584 26.45c.9 11.276 7.35 21.222 15.878 26.243h152.137c.64-14.127-4.813-28.746-15.457-35.386-9.768-6.093-22.984-2.834-30.333 6.168.916-7.18-1.033-15.108-5.108-20.896-2.077-2.95-4.687-5.354-7.758-6.8-12.86-6.008-28.6 3.412-34.233 18.136 3.595-16.16-2.174-34.57-13.863-44.253s-28.536-10-40.5-.763c-3.964 3.063-7.614 7.605-7.848 13.134-.216 5.105 3.946 10.322 8.056 9.45-5.582 1.762-10.52 5.7-14.212 10.883-4.768 6.7-7.468 15.404-6.77 24.075zm315.787 1.997l.313 1.32c-6.778 5.286-7.717 13.6-5.287 22.926h65.37c3.644-1.713 7.574-2.706 11.497-3.115 5.946-.62 12.343.336 17.783 3.115h38.196c8.766-7.304 15.8-17.512 14.112-29.345-1.512-10.54-10-18.293-18.964-20.643s-18.32-.317-27.235 2.27c-.02-.105-.053-.207-.075-.312-3.138-14.508-13.492-26.592-25.968-30.25-12.566-3.683-26.727 1.34-35.386 12.555-9.624-2.253-20.14 1.566-26.95 9.8-4.594 5.547-7.395 12.98-8.033 20.636-.307 3.694-.118 7.44.628 11.052z"/><path d="M-1500.184-1248.8c-3.923.4-7.854 1.402-11.497 3.115h29.28c-5.44-2.78-11.836-3.735-17.783-3.115zm150.394-19.294c.064 1.417.3 2.806.604 4.167 1.153 4.997 3.863 9.497 7.374 12.7-2.317 1.263-4.366 3.146-5.813 5.554h148.612c-1.236-3.817-3.636-6.888-7.113-7.782 12.8-10.65 14.23-35.37 2.794-47.93-.223-.245-.472-.444-.7-.677-11.575-11.72-32.035-8.493-40.28 6.665-12.643-15.778-34.102-20.944-51.1-12.3-3.493 1.777-7.153 4.67-7.656 9.065-.073.644-.012 1.28.134 1.896-8.755-3.497-18.216-4.633-26.97-1.438-9.672 3.527-17.95 13.3-19.608 24.684a28.41 28.41 0 0 0-.288 5.407zm368.77-6.976c-4.673 3.28-8.663 7.873-11.378 13.383-2.383 4.84-3.782 10.502-3.387 16.004h39.34c-.498-.34-1-.655-1.5-1.012-9.697-7.04-17.726-16.906-23.075-28.375zm91.695 29.386H-864c-.943-8.167-4.44-16.02-9.497-22.22-3.65 9.005-9.126 16.923-15.827 22.22z"/><path d="M-981.02-1275.06c5.35 11.47 13.378 21.335 23.075 28.375.49.356 1.002.67 1.5 1.012h67.12c6.7-5.296 12.177-13.214 15.827-22.22 5.264-12.982 6.713-28.2 2.524-41.077-2.343-7.202-6.43-13.675-12.624-18.595-8.855-7.033-22.752-5.48-28.743 4.283 4.54-11.52-1.175-27.67-11.96-30.995-6.95-2.145-14.335 1.57-18.98 7.847-11.744-13.743-33.833 1.607-41.8 21.292-1.493 3.69-2.504 7.526-2.842 11.355-1.21 13.72 1.458 27.05 6.902 38.722z"/></g><path d="M-1641.123-1808.2l5.76 14.318 252.102-105.55-5.486-13.636zm73.94 183.87l4.6 11.448c6.97 17.306 26.3 25.866 43.356 19.002l186.705-75.08c19.824-7.977 29.895-29.92 22.262-48.948l-6.6-16.378c-16.298 21.52-72.588 73.304-250.335 109.956z" fill="#d88a21"/><path fill="#c54941" d="M-1478.104-1835.167c-24.48 11.4-35.08 40.487-23.68 64.966 16.756 35.98 80.79 57.655 80.79 57.655s24.613-62.964 7.857-98.94c-11.4-24.48-40.486-35.08-64.965-23.68zm28.268 60.696c-9.042 4.21-19.786.295-23.998-8.748s-.295-19.787 8.748-23.998 19.786-.295 23.997 8.747.295 19.787-8.747 24z"/><path d="M-1412.342-1784.978c-1.37.64-2.238 2.017-2.222 3.53.1 9.33-1.007 19.902-3.332 31.498-2.33 11.612-5.382 21.73-7.47 28-11.445-4.558-35.196-15.088-52.57-30a3.84 3.84 0 0 0-4.119-.56h0c-2.297 1.07-2.746 4.16-.83 5.816 25.104 21.694 61.888 34.15 61.888 34.15s14.138-36.17 13.687-69.346c-.034-2.533-2.69-4.177-4.986-3.108l-.048.022z" class="L"/><path fill="#c54941" d="M-1475.04-1828.59c-20.814 9.694-29.86 34.513-20.168 55.327 12.2 26.193 53.53 44.826 69.845 51.323 2.087-6.28 5.14-16.398 7.47-28 5.005-24.954 4.376-45.173-1.818-58.473-9.694-20.814-34.515-29.86-55.328-20.167zm25.205 54.12c-9.042 4.21-19.786.295-23.998-8.748s-.295-19.787 8.748-23.998 19.786-.295 23.997 8.747.295 19.787-8.747 24z"/><path d="M-1475.04-1828.6c12.28-5.72 25.954-4.913 37.094.983 1.197.634 2.617.685 3.846.113h0c2.562-1.193 2.688-4.797.212-6.16-13.187-7.256-29.523-8.354-44.214-1.513s-24.363 20.054-27.295 34.816c-.55 2.77 2.3 4.995 4.852 3.8h0c1.228-.572 2.103-1.692 2.388-3.017 2.654-12.32 10.837-23.305 23.117-29.024zm37.807 38.517c-1.353.63-2.3 1.867-2.638 3.32-1.217 5.218-4.73 9.844-9.965 12.282s-11.036 2.15-15.812-.276c-1.33-.676-2.887-.747-4.24-.117l-.067.03c-2.455 1.144-2.595 4.57-.252 5.93 6.93 4.02 15.646 4.705 23.46 1.065s12.898-10.75 14.28-18.643c.467-2.668-2.246-4.767-4.7-3.623l-.068.03z" fill="#df675e"/><path d="M-1465.086-1807.216c4.993-2.326 10.506-2.172 15.15-.046 1.213.555 2.6.537 3.82-.027h0c2.622-1.22 2.654-4.917.07-6.217-6.695-3.37-14.81-3.753-22.13-.343s-12.248 9.868-13.978 17.16c-.668 2.814 2.183 5.168 4.804 3.947h0c1.2-.562 2.123-1.62 2.48-2.906 1.362-4.925 4.792-9.243 9.786-11.568z" class="L"/><path d="M-1540.884-1516.615l-31.845 104.303-21.112-6.446 31.845-104.303zm-309.984 104.217l35.06-113.504c1.506-4.88.606-10.258-2.402-14.387a16.36 16.36 0 0 0-12.974-6.679l-70.504-.734-.232 22.07 62.723.653-32.762 106.07 21.092 6.512z" fill="#c1cfcf"/><path d="M-1519.903-1509.65l-82.524-11.286c-8.2-1.12-14.293-8.115-14.293-16.38h124.65c9.936 0 14.202 12.608 6.3 18.642h0a45.97 45.97 0 0 1-34.144 9.024zm-414.1-37.44h80.637v21.937h-80.637z" fill="#322c3c"/><path d="M-1710.945-1707.133l.128.58.095.467.13.704.125.7.096.617.343 2.41.478 4.56.287 4.425.12 4.36c.057 5.78-.296 11.48-.936 17.134-1.385 11.283-4.004 22.388-8.097 32.923-4.056 10.54-9.423 20.51-15.808 29.6-6.347 9.134-13.835 17.25-21.844 24.464l-3.004 2.71c-.99.92-2.076 1.693-3.11 2.545l-6.293 4.948c-4.362 2.994-8.62 6.17-13.15 8.763-2.246 1.333-4.448 2.762-6.73 3.998l-6.865 3.625-3.438 1.78-3.496 1.602-6.987 3.183c-18.76 8.05-38.058 13.503-57.368 17.582-7.6 1.605-15.062-3.255-16.667-10.854a14.07 14.07 0 0 1 9.629-16.352l.2-.06c17.485-5.294 34.458-11.773 50-20.11l5.73-3.24 2.86-1.61c.938-.557 1.83-1.17 2.748-1.75l5.464-3.513c1.805-1.184 3.477-2.517 5.22-3.758 3.545-2.427 6.656-5.277 9.933-7.923 1.545-1.412 3.032-2.87 4.553-4.288.74-.727 1.552-1.392 2.23-2.164l2.094-2.267c11.317-11.95 19.354-25.93 23.6-40.77 2.16-7.412 3.22-15.094 3.488-22.722.082-3.813-.018-7.624-.39-11.335l-.325-2.75-.42-2.662c-.16-.86-.314-1.72-.5-2.496-.084-.42-.18-.752-.267-1.098l-.065-.26-.057-.172-.053-.168-.014-.04.012.073.027.146c-3.184-12.783 4.6-25.726 17.38-28.91s25.726 4.6 28.91 17.382z" class="N"/><path d="M-1685.512-1684.285l-36.816-97.288-11.778 8.594a52.34 52.34 0 0 0-21.116 36.028l-7.403 61.486c19.28 3.035 48.228-5.886 77.113-8.82z" class="L"/><path fill="#2f273b" d="M-1647.037-1613.63c-2.13.001-4.28-.64-6.146-1.97-66.567-47.456-97.714-94.292-92.574-139.205 7.454-65.133 88.304-99.216 91.74-100.634 5.412-2.232 11.61.34 13.844 5.754 2.232 5.408-.34 11.602-5.744 13.84h0c-.728.302-72.807 30.805-78.785 83.515-4.156 36.656 24.047 76.852 83.826 119.468 4.768 3.398 5.877 10.02 2.48 14.786a10.59 10.59 0 0 1-8.641 4.447z"/><g fill="#f0c8aa"><path d="M-1663.24-1813.58l-51.872 28.642-25.422-46.04 46.985-44.774z"/><path d="M-1664.098-1827.25c3.902 5.186 2.494 55.905-28.366 72.793-16.635 9.104-32.624-10.78-31.554-28.703.387-6.48 6.226-19.19 21.376-30.596s34.64-18.68 38.544-13.494z"/></g><path d="M-1682.485-1852.37c-2.61 27.748-21.175 87.938-36.88 59.5l-18.25-33.053 46.985-44.773 8.147 18.327z" class="N"/><g fill="#f0c8aa"><path d="M-1580.475-1776.944l.092 1.35.052 1.054.07 1.97.062 3.775-.078 7.307a259.7 259.7 0 0 1-.803 14.281c-.8 9.438-2.074 18.773-3.795 28.03-3.48 18.5-8.787 36.696-16.17 54.152-7.355 17.45-16.797 34.14-28.274 49.332-11.478 15.176-24.89 28.903-39.826 40.445-7.455 5.783-15.23 11.084-23.252 15.892-8.057 4.74-16.332 9-24.75 12.832-16.9 7.47-34.352 13.233-51.994 17.24-17.635 4.072-35.415 6.673-53.152 8.122-17.742 1.42-35.44 1.717-53.023 1.192-7.47-.222-13.343-6.457-13.12-13.926.214-7.168 5.965-12.867 13.03-13.118l.092-.003c16.7-.557 33.32-1.896 49.67-4.25 16.342-2.38 32.413-5.804 47.95-10.443 15.562-4.576 30.48-10.635 44.525-17.92 6.972-3.734 13.72-7.773 20.192-12.147 6.426-4.437 12.55-9.218 18.34-14.326 11.6-10.197 21.625-21.92 30.05-34.655 8.413-12.754 15.133-26.607 20.2-41.12 2.53-7.256 4.652-14.675 6.387-22.2 1.717-7.53 3.026-15.17 3.984-22.85.927-7.685 1.483-15.418 1.644-23.103.073-3.84.05-7.666-.087-11.428l-.296-5.55-.218-2.65-.125-1.24-.066-.55-.03-.217-.015-.1c-.003-.02 0 .046.001.065-1.45-14.564 9.183-27.546 23.747-28.995s27.55 9.183 28.998 23.748z"/><path d="M-1884.865-1521.796c3.953-4.403 4.334-10.22 9.575-12.976 3.595-1.9 10.27-.765 13.955 3 13.413 13.707 13.544-10.41 4.575-16.396-6.482-4.327-13.087-10.59-21.446-10.515-19.562.174-32.146 19.674-34.23 37.008-1.544 12.86 17.43 11.168 27.57-.12z"/></g><path d="M-1648.353-1706.897c-.35-19.778-4.278-42.58-10.998-61.266-.512-1.423-2.945-1.03-2.685.564 3.324 20.286 9.062 42.058 9.424 62.706.016.886.85 1.84 1.74 1.95 26.78 3.313 51.78-.778 76.508-12.312.485-.227.25-.967-.28-.8-24.32 7.692-48.356 13.46-73.708 9.158z" class="L"/><path d="M-1881.658-1542.777c.383-.428-.27-.983-.666-.583-4.902 4.945-10.332 10.652-12.075 17.633-.634 2.537-1.48 9.586 2.575 9.658.943.017 1.263-1.3.617-1.86-3.633-3.154.42-11.2 2.1-14.307 2.066-3.783 4.56-7.337 7.438-10.54zm-8.418-4.353c-8.114 7.84-18.905 22.262-11.834 33.755.822 1.336 3.22.2 2.5-1.26-5.16-10.4 2.395-24.504 9.916-31.986.353-.353-.228-.85-.58-.508zm-3.307-6.98c-6.973 5.517-12.496 11.824-15.5 20.33-1.78 5.023-5.06 14.64-.557 19.03.78.762 2.005-.188 1.688-1.144-4.124-12.436 5.727-29.6 14.823-37.562.374-.326-.037-.976-.443-.654z" class="N"/><path fill="#322c3c" d="M-1874.067-1543.498l30.23 2.154-2.355 22.38-38.674-2.832s-.573-22.513 10.798-21.702z"/><path fill="#fffbe6" d="M-53.615-2060.37c7.195 3.567 14.208 7.194 21.132 11.024 142.222-156.812 459.407-171.843 758.258-23.685 27.878 13.822 54.676 28.583 80.397 44.294 220.702-95.682 547.5-72.894 859.52 81.798 318.104 157.707 536.354 410.606 588.614 648.168 54.218 16.18 108.938 37.6 163.1 64.4 327.98 162.314 513.948 458.48 423.874 676.046-30.43 73.515-88.408 128.408-164.413 163.635-17.96 8.324-44.544 5.874-68.748-6.126l-3092.07-1532.96c-35.475-17.587-55.782-50.452-44.545-73.284l.21-.422c63.353-127.78 275.88-151.45 474.662-52.898z"/><g opacity=".15"><path fill="#7cb8d0" d="M1089.14 459.618v132.11H28.997V452.135H58.04v62.7l65.26-.66V347.438h35.558V180.7h33.62v-71.077H253.2v67.2h42.654v156.424l1.667.543 20 6.437 10.004 3.257 27.22 8.803 6.747 2.17 1.356.426 3.374 1.087 97.678 31.563v-228.78h65.92v91.746h125.363v-72.356h98.22V362.95h127.96V213.04h47.85v-85.308h107.254v411.03h38.777v-79.143z"/><path d="M37.48 452.135H49V591.73H37.48zM164.823 188.34h11.516v403.4h-11.516zm15.625 0h11.517v403.4h-11.517zm21.482-71.116h11.517v474.504H201.93zm15.628 0h11.518v474.504h-11.518zm15.665 0H244.7v474.504h-11.478zm23.5 71.116h11.517v403.4h-11.517zm15.665 0h11.516v403.4h-11.516zm202.14-22.297h11.48V591.73h-11.48zm17.45 0h11.48V591.73h-11.48zm17.45 0h11.478V591.73h-11.478zM532.7 258.64h11.48v333.087H532.7zm17.452 0h11.478v333.087h-11.478zm111.48-73.674h11.48V591.73h-11.48zm17.914 0h11.518V591.73h-11.518zm17.955 0h11.478V591.73h-11.478zm17.914 0h11.517V591.73h-11.517zm17.954 0h11.48V591.73h-11.48zm155.105 34.24h11.48v372.522h-11.48zm22.607 0h11.516v372.522h-11.516zm27.298-83.37h11.517V591.73H938.37zm19.387 0h11.518V591.73h-11.518zm19.39 0h11.518V591.73h-11.518zm19.39 0h11.517V591.73h-11.517zm19.388 0h11.517V591.73h-11.517z" class="C"/><path fill="#a0d9ea" d="M1123.11 459.618v132.1H28.997V452.135H92.01v62.7l65.26-.66V309.32l1.6.427 5.972 1.667 15.627 4.266 12.37 3.412 9.112 2.482 8.376 2.327 3.14.853.97.272 3.14.853 8.376 2.327 7.29 1.977 2.676.737 8.802 2.442 2.714.735 4.11 1.125 5.194 1.436 6.32 1.705 4.148 1.165 1.046.27 4.148 1.163 6.28 1.706 12.02 3.296 6.825 1.9 4.692 1.278 4.146 1.125 1.514.428V567.18l18.73-.66V370.703h25.204l-.31-30.48-.35-30.905h25.205v18.73l33.93-.232V277.64h79.84v51.07h28.422v-34.6h32.3v76.583h35.868V266.978h10.664V246.62h8.26v-33.58h12.1v-26.523H666.7v27.648h17.216v35.363l5.234.04 1.9.04 4.536.038h.58v16.713h1.32l9.81-.04-.386 103.105h.155l1.9-.038 4.535-.077 1.822-.038v-76.43h11.596l4.536-.038h21.947l7.482-.04h26.484l48.742-.078v-59.87h84.805V538.1h18.34V279.58h59.445v213.93h15.5v-93.062l1.705 1.163 6.7 4.614 4.808 3.333 3.063 2.095 5.97 4.1 5.545 3.838 7.87 5.43 11.518 7.91.66.466v88.525s4.77 1.01 8.376 1.163c2.17.038 3.878-.193 3.878-1.163v-62.313l48.79.001z"/><g class="C"><path d="M38.44 474.806H49.95v15.147H38.44z"/><use xlink:href="#E"/><use xlink:href="#F"/><path d="M188.9 345.37h11.512v15.147H188.9zm19.774 0h11.5v15.147h-11.5z"/><use xlink:href="#F" x="59.319"/><path d="M188.9 408.383h11.512v15.147H188.9zm19.774 0h11.5v15.147h-11.5z"/><use xlink:href="#F" x="59.319" y="63.013"/><use xlink:href="#E" x="83.975" y="-60.102"/><path d="M224.322 471.395h11.513v15.146h-11.513zm51.378 0h11.512v15.146H275.7zm-72.5 21.325h11.512v15.147H203.2zm19.77 0h11.5v15.147h-11.5zm44.885-88.704h11.513v15.147h-11.513z"/><use xlink:href="#E" x="48.562" y="-83.047"/><use xlink:href="#F" x="119.46" y="58.646"/><path d="M424.9 292.857h11.512V319.5H424.9zm18.092 0h11.5V319.5h-11.5zm18.108 0h11.5V319.5h-11.5zm-272.2 81.918h11.512v15.146H188.9zm19.774 0h11.5v15.146h-11.5z"/><use xlink:href="#E" x="107.881" y="-156.722"/><use xlink:href="#F" x="193.721" y="4.848"/><path d="M388.7 350.218h11.512v15.147H388.7zm25.85 0h11.513v15.147H414.56zm-76.26 43.017h11.512v15.146H338.3z"/><use xlink:href="#E" x="232.65" y="-138.262"/><path d="M368.146 393.235h11.513v15.146h-11.513zm14.924 0h11.513v15.146H383.07zm14.924 0h11.5v15.146h-11.5z"/><use xlink:href="#E" x="292.345" y="-138.262"/><use xlink:href="#E" x="402.562" y="-138.262"/><path d="M620.78 277.7h11.513v15.148H620.78zm17.005 0h11.513v15.148h-11.513zm-40.108 28.468h11.5v15.147h-11.5zm17.347 0h11.513v15.147h-11.513zm17.346 0h11.512v15.147H632.37zm17.35 0h11.5v15.147h-11.5zm17.345 0h11.513v15.147h-11.513zm-44.245 33.607h11.513v15.146H622.82zm13.4 0h11.518v15.146H636.23z"/><use xlink:href="#F" x="425.088" y="44.552"/><path d="M609.27 389.922h11.5v15.147h-11.5zm55.618 0H676.4v15.147h-11.512zm14.966 0h11.516v15.147h-11.516z"/><use xlink:href="#F" x="559.839" y="-44.45"/><use xlink:href="#G"/><use xlink:href="#G" y="29.304"/><use xlink:href="#G" y="58.61"/><use xlink:href="#E" x="651.859" y="-173.705"/><path d="M744.16 357.792h11.512v15.146H744.16zm66.078-56.872h11.513v15.147h-11.513zm0 29.304h11.513v15.147h-11.513z"/><use xlink:href="#H"/><use xlink:href="#E" x="779.275" y="-284.684"/><use xlink:href="#I"/><use xlink:href="#F" x="730.713" y="-77.877"/><path d="M946.38 289.8h11.513v15.147H946.38zm15.52 0h11.512v15.147H961.9zm-14.214 23.952h11.512V328.9h-11.512z"/><use xlink:href="#E" x="860.773" y="-184.085"/><use xlink:href="#F" x="812.211" y="27.568"/><path d="M981.346 398.464h11.512v15.148h-11.512z"/><use xlink:href="#F" x="812.211" y="78.63"/><path d="M1022.062 423.53h11.513v15.146h-11.513z"/><use xlink:href="#F" x="874.255" y="127.118"/><use xlink:href="#E" x="983.525" y="-69.877"/><path d="M1083.376 461.62h11.513v15.146h-11.513z"/><use xlink:href="#H" y="61.679"/><path d="M842.39 306.178h11.512v15.147H842.39z"/><use xlink:href="#E" x="779.275" y="-223.005"/><use xlink:href="#H" y="102.677"/><use xlink:href="#E" x="779.275" y="-182.007"/><use xlink:href="#H" y="143.687"/><use xlink:href="#E" x="779.275" y="-140.997"/><use xlink:href="#I" y="163.997"/><use xlink:href="#F" x="730.713" y="86.12"/><use xlink:href="#I" y="204.995"/><use xlink:href="#F" x="730.713" y="127.118"/><path d="M810.238 359.53h11.513v15.147h-11.513z"/><use xlink:href="#G" y="117.222"/><use xlink:href="#E" x="608.401" y="-107.967"/><use xlink:href="#F" x="559.839" y="106.715"/><use xlink:href="#E" x="608.401" y="-50.855"/><use xlink:href="#E" x="608.401" y="-22.3"/><path d="M623.64 222.256h36.698v15.147H623.64z"/><use xlink:href="#E" x="223.482" y="-67.677"/><path d="M358.98 465.252h11.5V480.4h-11.5zm127.22 1.98h11.512v15.146H486.2zm20.712 0h11.513v15.146h-11.513zM71.46 493.587h11.512v15.146H71.46z"/></g><path fill="#7ab2cd" d="M28.997 452.135H92.01v1.125H28.997z"/><path fill="#01a765" d="M1145 652.793l-.166 4.207H8.365c-3.403-16.236.115-34.268 10.2-46.912 18.492-23.188 44.507-49.196 57.595-49.196 17.138 0 16.708 35 50.12 35 24.66 0 58.525-33.195 73.153-33.195 16.796 0 46.99 30.818 75.798 30.818 71.275 0 50.795-99.35 121.572-99.35 90.038 0 110.188 112.738 189.865 112.738 75.78 0 88.7-100.37 162.293-100.37 43.848 0 67.86 36.813 96.677 63.847 11.202 10.51 23.13 19.538 37.23 24.352 6.943 2.37 14.413 3.722 22.584 3.722 7.347 0 14.388-.994 21.216-2.683 11.457-2.84 22.304-7.637 32.956-12.985 25.385-12.756 49.65-28.66 78.424-28.66 46.33-.002 106.95 35.01 106.95 98.667z"/><path d="M534.76 610.924c0 5.612-3.72 11.632-9.63 17.137h-390.8c-6.847-5.33-12.423-12.078-15.866-20.666-1.096-2.728-4.48-5.562-4.48-10.416 0-4.02 3.375-5.464 8.072-5.464 17.458 0 32.58 11.83 33.727 11.83 9.936 0 15.77-10.943 19.167-21.827 3.048-9.766 16.22-11.35 21.545-2.6 6.698 10.98 9.564 20.85 15.84 20.85 14.74 0 29.236-33.685 33.228-33.685 22.9 0 21.55 42.52 43.9 42.52 25.23 0 33.34-39.626 44.504-56.977 3.638-.343 6.116-3.57 10.6-3.57 40.384 0 25.483 40.62 50 40.62 18.512 0 34.4-27.828 52.396-27.828 39.927 0 34.8 45.304 58.4 45.304 8.1 0 13.994-5.76 22.562-7.734 4.806 4.02 6.822 8.27 6.822 12.514zm505.27-7.574c0 8.354-8.24 17.597-19.65 24.712H651.9c-12.372-6.028-22.834-14.924-28.175-28.238-1.096-2.73-4.483-5.562-4.483-10.416 0-4.026 3.374-5.47 8.075-5.47 17.457 0 32.58 11.836 33.727 11.836 9.933 0 15.77-10.944 19.164-21.827 3.047-9.77 16.224-11.35 21.55-2.612 6.7 10.977 9.565 20.852 15.84 20.852 14.74 0 29.233-33.686 33.225-33.686 22.894 0 21.555 42.52 43.915 42.52 25.23 0 33.34-39.626 44.505-56.98 2.33-.217 4.18-1.617 6.4-2.603 1.245-.55 2.6-.967 4.213-.967 23.542 0 28.295 13.8 33.02 25.316 3.384 8.238 6.75 15.305 16.973 15.305 9.413 0 18.15-7.193 26.827-14.264 8.392-6.838 16.73-13.564 25.566-13.564 2.654 0 5.108.2 7.4.578 31.983 5.247 28.973 44.727 51.02 44.727 8.103 0 14-5.762 22.562-7.735 4.8 4.02 6.816 8.268 6.816 12.513z" fill="#33dd96"/></g></svg>