<?xml version="1.0" encoding="utf-8"?>
<!-- Generator: Adobe Illustrator 15.0.0, SVG Export Plug-In . SVG Version: 6.00 Build 0)  -->
<!DOCTYPE svg PUBLIC "-//W3C//DTD SVG 1.1//EN" "http://www.w3.org/Graphics/SVG/1.1/DTD/svg11.dtd">
<svg version="1.1" id="Layer_1" xmlns="http://www.w3.org/2000/svg" xmlns:xlink="http://www.w3.org/1999/xlink" x="0px" y="0px"
	 width="110px" height="100px" viewBox="-5 0 110 100" enable-background="new -5 0 110 100" xml:space="preserve">
<path fill="#589442" d="M67.805,78.208c0,4.936-2.502,13.023-8.423,16.848c-5.243,3.385-13.619,2.808-18.718,2.808
	c-5.344,0-12.641,1.557-18.718-1.872c-6.265-3.533-11.23-12.123-11.23-16.846c0-3.697,0.548-9.776,6.551-17.783
	c2.809-3.742,10.086-8.36,12.167-12.165c2.039-3.731,1.858-7.748,2.808-11.231c-2.808-0.936-9.358-10.295-6.551-10.295h25.268
	c2.721,0,0,5.615-4.678,11.23c1.562,4.294,2.278,8.86,4.678,13.103c2.924,5.168,8.174,6.314,11.232,10.295
	C66.27,67.606,67.805,75.26,67.805,78.208z"/>
<circle fill="#FFFFFF" cx="39.834" cy="75.831" r="15.542"/>
<g>
	<path fill="#589442" d="M39.794,87.632c-0.017,0-0.034,0-0.051,0c-0.775-0.029-1.381-0.681-1.353-1.453l0.042-1.14
		c0.028-0.774,0.721-1.396,1.453-1.354c0.775,0.028,1.381,0.68,1.352,1.455l-0.04,1.139C41.168,87.035,40.547,87.632,39.794,87.632z
		"/>
</g>
<g>
	<path fill="#589442" d="M39.439,68.631c-0.017,0-0.034,0-0.05-0.002c-0.776-0.026-1.381-0.679-1.354-1.454l0.044-1.214
		c0.028-0.772,0.709-1.394,1.454-1.353c0.774,0.029,1.381,0.681,1.353,1.453l-0.044,1.213
		C40.814,68.034,40.191,68.631,39.439,68.631z"/>
</g>
<g>
	<path fill="#589442" d="M39.351,85.284c-3.201,0-5.288-2.143-5.862-2.812c-0.504-0.59-0.436-1.476,0.154-1.979
		c0.59-0.505,1.477-0.436,1.979,0.154c0.273,0.316,1.716,1.894,3.889,1.828c1.113-0.039,2.928-0.535,3.377-1.735
		c0.286-0.771,0.068-1.843-0.531-2.609c-0.712-0.913-1.853-1.103-3.172-1.321c-1.55-0.258-3.479-0.58-4.692-2.358
		c-0.989-1.454-1.174-3.483-0.459-5.052c1.08-2.362,3.896-3.205,6.044-2.986c2.566,0.257,4.121,1.99,4.671,2.723
		c0.465,0.62,0.339,1.5-0.281,1.967c-0.622,0.463-1.499,0.34-1.966-0.28c-0.256-0.343-1.205-1.464-2.706-1.615
		c-1.21-0.123-2.747,0.353-3.208,1.36c-0.312,0.683-0.217,1.652,0.226,2.305c0.512,0.75,1.409,0.934,2.831,1.17
		c1.578,0.262,3.539,0.589,4.925,2.363c1.206,1.543,1.578,3.631,0.947,5.318c-0.937,2.506-3.768,3.481-5.908,3.559
		C39.523,85.281,39.435,85.284,39.351,85.284z"/>
</g>
<g>
	<path fill="#445462" d="M32.709,22.991c-0.776,0-1.404-0.628-1.404-1.404V10.824h-6.613c-0.774,0-1.404-0.629-1.404-1.403
		c0-3.058,0-9.421,5.412-9.421c3.289,0,5.413,2.518,5.413,6.414v15.173C34.113,22.362,33.484,22.991,32.709,22.991z M26.117,8.017
		h5.189V6.414c0-1.347-0.339-3.606-2.605-3.606C26.779,2.808,26.221,4.695,26.117,8.017z"/>
</g>
<g>
	<path fill="#445462" d="M92.605,77.272c-0.774,0-1.403-0.629-1.403-1.404V8.948c0-3.094-2.517-5.61-5.61-5.61H30.837
		c-0.774,0-1.404-0.629-1.404-1.404s0.629-1.404,1.404-1.404h54.755c4.643,0,8.418,3.777,8.418,8.418v66.92
		C94.01,76.646,93.381,77.272,92.605,77.272z"/>
</g>
<g>
	<path fill="#445462" d="M70.145,86.632c-0.773,0-1.402-0.629-1.402-1.404c0-0.774,0.629-1.403,1.402-1.403h20.824
		c1.817-0.034,4.913-0.583,4.913-3.86v-1.755H73.889c-0.775,0-1.404-0.629-1.404-1.403c0-0.773,0.629-1.402,1.404-1.402h23.397
		c0.774,0,1.403,0.629,1.403,1.402v3.158c0,4.024-2.948,6.579-7.695,6.669L70.145,86.632L70.145,86.632z"/>
</g>
<g>
	<path fill="#61C4F2" d="M73.889,37.03c-0.486,0-0.94-0.252-1.197-0.672l-9.508-15.56l-5.324,3.803
		c-0.536,0.385-1.271,0.34-1.76-0.104l-9.127-8.296l-3.761,5.267c-0.45,0.629-1.328,0.776-1.96,0.326
		c-0.63-0.451-0.775-1.327-0.325-1.959l4.68-6.551c0.232-0.326,0.595-0.537,0.992-0.58c0.398-0.041,0.797,0.088,1.095,0.357
		l9.456,8.598l5.629-4.021c0.318-0.226,0.714-0.311,1.098-0.233c0.382,0.078,0.714,0.311,0.918,0.644l8.793,14.389l7.412-19.765
		c0.271-0.727,1.082-1.096,1.807-0.821c0.728,0.272,1.094,1.081,0.822,1.806l-8.423,22.461c-0.188,0.503-0.647,0.854-1.183,0.905
		C73.977,37.028,73.934,37.03,73.889,37.03z"/>
</g>
<g>
	<path fill="#445462" d="M83.247,46.389H56.105c-0.774,0-1.402-0.629-1.402-1.403c0-0.775,0.628-1.404,1.402-1.404h27.142
		c0.774,0,1.403,0.629,1.403,1.404C84.65,45.76,84.021,46.389,83.247,46.389z"/>
</g>
<g>
	<path fill="#445462" d="M83.247,54.812H67.338c-0.775,0-1.404-0.631-1.404-1.405s0.629-1.402,1.404-1.402h15.909
		c0.774,0,1.403,0.628,1.403,1.402C84.65,54.184,84.021,54.812,83.247,54.812z"/>
</g>
<ellipse fill="#445462" cx="82.667" cy="98.406" rx="1.487" ry="1.593"/>
<g>
	<path fill="#445462" d="M31.772,39.837c-0.304,0-0.608-0.098-0.865-0.3l-0.358-0.277c-1.214-0.94-3.25-2.512-4.647-4.767
		c-0.92-1.485-1.597-3.805-2.068-7.092c-0.059-0.403,0.061-0.811,0.328-1.119c0.267-0.308,0.654-0.484,1.061-0.484h21.525
		c0.775,0,1.404,0.628,1.404,1.404c0,0.775-0.629,1.403-1.404,1.403H26.875c0.377,2.021,0.851,3.501,1.414,4.408
		c1.129,1.824,2.844,3.148,3.979,4.024l0.373,0.291c0.611,0.478,0.717,1.361,0.237,1.97C32.601,39.653,32.188,39.837,31.772,39.837z
		"/>
</g>
<g>
	<path fill="#445462" d="M45.812,39.837c-0.416,0-0.828-0.185-1.105-0.538c-0.479-0.609-0.373-1.492,0.237-1.97l0.375-0.291
		c1.135-0.876,2.848-2.201,3.979-4.024c0.7-1.132,1.265-3.155,1.675-6.011c0.109-0.769,0.823-1.301,1.588-1.189
		c0.77,0.109,1.301,0.821,1.19,1.588c-0.472,3.287-1.147,5.607-2.067,7.091c-1.398,2.255-3.434,3.827-4.647,4.767l-0.358,0.277
		C46.421,39.739,46.116,39.837,45.812,39.837z"/>
</g>
<g>
	<path fill="#445462" d="M33.646,99.733c-8.22,0-15.596-3.096-19.733-8.28c-4.599-5.765-4.917-14.513-3.266-20.206
		c2.336-8.061,7.912-13.461,13.589-18.101c3.898-3.188,6.134-7.74,6.134-12.494v-2.22c0-0.775,0.629-1.404,1.403-1.404
		c0.775,0,1.404,0.628,1.404,1.404v2.22c0,5.6-2.611,10.945-7.164,14.666c-5.326,4.354-10.546,9.39-12.669,16.71
		c-1.502,5.179-1.034,12.912,2.764,17.674c3.608,4.523,10.165,7.224,17.538,7.224c0.775,0,1.404,0.628,1.404,1.404
		C35.049,99.104,34.42,99.733,33.646,99.733z"/>
</g>
<g>
	<path fill="#445462" d="M19.606,40.773c-0.212,0-0.426-0.048-0.628-0.148c-4.52-2.26-7.327-6.685-7.327-11.55
		c0-0.775,0.629-1.404,1.404-1.404h6.551c0.776,0,1.404,0.628,1.404,1.404c0,0.776-0.628,1.404-1.404,1.404h-5.044
		c0.471,3.229,2.555,6.077,5.672,7.635c0.694,0.347,0.974,1.189,0.627,1.884C20.617,40.489,20.12,40.773,19.606,40.773z"/>
</g>
<g>
	<path fill="#445462" d="M4.797,63.347c-0.305,0-0.613-0.098-0.87-0.304c-0.608-0.479-0.711-1.362-0.229-1.972
		c2.068-2.61,4.729-5.214,8.371-8.19c3.668-2.997,6.133-8.427,6.133-13.511c0-0.775,0.629-1.404,1.404-1.404
		c0.776,0,1.404,0.629,1.404,1.404c0,5.973-2.812,12.129-7.164,15.685c-3.482,2.848-6.008,5.313-7.947,7.761
		C5.622,63.167,5.212,63.347,4.797,63.347z"/>
</g>
<g>
	<path fill="#445462" d="M44.876,99.733c-0.775,0-1.404-0.629-1.404-1.403c0-0.776,0.629-1.404,1.404-1.404
		c7.324,0,13.835-2.698,17.416-7.22c3.771-4.762,4.235-12.499,2.745-17.682c-2.109-7.319-7.292-12.356-12.58-16.708
		c-4.671-3.844-7.113-11.403-7.113-16.883c0-0.775,0.629-1.404,1.403-1.404c0.775,0,1.404,0.628,1.404,1.404
		c0,4.77,2.277,11.578,6.089,14.715c5.639,4.64,11.175,10.044,13.494,18.102c1.639,5.69,1.32,14.438-3.241,20.199
		C60.384,96.638,53.05,99.733,44.876,99.733z"/>
</g>
<g>
	<path fill="#445462" d="M45.812,39.837H32.709c-0.776,0-1.404-0.628-1.404-1.404s0.628-1.404,1.404-1.404h13.102
		c0.775,0,1.403,0.628,1.403,1.404S46.587,39.837,45.812,39.837z"/>
</g>
<g>
	<path fill="#445462" d="M75.529,99.733H2.632C1.732,99.733,1,99.104,1,98.33c0-0.776,0.731-1.404,1.632-1.404h72.897
		c0.902,0,1.635,0.628,1.635,1.404C77.164,99.104,76.434,99.733,75.529,99.733z"/>
</g>
</svg>
