<?xml version="1.0" encoding="utf-8"?>
<!-- Generator: Adobe Illustrator 15.0.0, SVG Export Plug-In . SVG Version: 6.00 Build 0)  -->
<!DOCTYPE svg PUBLIC "-//W3C//DTD SVG 1.1//EN" "http://www.w3.org/Graphics/SVG/1.1/DTD/svg11.dtd">
<svg version="1.1" id="Layer_1" xmlns="http://www.w3.org/2000/svg" xmlns:xlink="http://www.w3.org/1999/xlink" x="0px" y="0px"
	 width="110px" height="100px" viewBox="-10 -10 110 100" enable-background="new -10 -10 110 100" xml:space="preserve">
<g>
	<circle fill="#F86464" cx="81.615" cy="1.319" r="5.783"/>
	<g>
		<path fill="#F86464" d="M84.793-5.41c-0.162,0-0.328-0.029-0.489-0.089c-0.72-0.27-1.085-1.073-0.814-1.792l0.676-1.805
			c0.271-0.72,1.073-1.083,1.793-0.815c0.721,0.27,1.086,1.073,0.815,1.793l-0.677,1.805C85.887-5.755,85.356-5.41,84.793-5.41z"/>
	</g>
	<g>
		<path fill="#F86464" d="M78.158-5.185c-0.528,0-1.034-0.304-1.268-0.817l-0.798-1.755c-0.318-0.7-0.009-1.525,0.691-1.843
			c0.696-0.319,1.524-0.009,1.844,0.691l0.797,1.755c0.318,0.7,0.009,1.525-0.691,1.843C78.548-5.226,78.352-5.185,78.158-5.185z"/>
	</g>
	<g>
		<path fill="#F86464" d="M73.493-0.334c-0.163,0-0.328-0.029-0.49-0.09l-1.804-0.677c-0.721-0.27-1.085-1.073-0.814-1.793
			c0.271-0.719,1.07-1.084,1.793-0.813l1.805,0.677c0.72,0.27,1.085,1.073,0.813,1.793C74.587-0.679,74.057-0.334,73.493-0.334z"/>
	</g>
	<g>
		<path fill="#F86464" d="M71.965,7.097c-0.529,0-1.035-0.303-1.269-0.815c-0.318-0.701-0.009-1.526,0.691-1.844l1.754-0.797
			c0.698-0.318,1.525-0.009,1.844,0.691c0.318,0.7,0.009,1.525-0.69,1.844L72.54,6.972C72.354,7.057,72.157,7.097,71.965,7.097z"/>
	</g>
	<g>
		<path fill="#F86464" d="M77.892,12.638c-0.162,0-0.327-0.029-0.488-0.089c-0.721-0.271-1.085-1.073-0.815-1.793l0.677-1.805
			c0.271-0.72,1.073-1.083,1.793-0.815c0.721,0.271,1.086,1.073,0.815,1.793l-0.677,1.805
			C78.986,12.292,78.456,12.638,77.892,12.638z"/>
	</g>
	<g>
		<path fill="#F86464" d="M86.003,12.363c-0.529,0-1.035-0.303-1.269-0.817l-0.798-1.755c-0.319-0.7-0.01-1.525,0.69-1.844
			c0.698-0.318,1.526-0.01,1.844,0.691l0.799,1.755c0.318,0.7,0.009,1.525-0.691,1.844C86.392,12.322,86.195,12.363,86.003,12.363z"
			/>
	</g>
	<g>
		<path fill="#F86464" d="M91.541,6.434c-0.162,0-0.327-0.029-0.488-0.089l-1.806-0.676c-0.72-0.27-1.085-1.073-0.815-1.793
			c0.271-0.72,1.074-1.083,1.793-0.815l1.806,0.677c0.72,0.27,1.085,1.073,0.814,1.792C92.636,6.088,92.104,6.434,91.541,6.434z"/>
	</g>
	<g>
		<path fill="#F86464" d="M89.512-0.878c-0.529,0-1.035-0.304-1.269-0.817c-0.317-0.7-0.009-1.525,0.691-1.843l1.755-0.797
			c0.696-0.318,1.524-0.01,1.844,0.691c0.318,0.7,0.009,1.525-0.691,1.843l-1.755,0.797C89.9-0.919,89.705-0.878,89.512-0.878z"/>
	</g>
</g>
<path fill="#61C4F2" d="M56.806,1.845c0.123-0.346,0.203-0.712,0.203-1.098c0-1.812-1.482-3.294-3.295-3.294
	c0-3.623-2.964-6.587-6.587-6.587c-3.066,0-5.653,2.126-6.379,4.974c-0.729-0.361-1.54-0.582-2.405-0.582
	c-3.02,0-5.489,2.47-5.489,5.49c0,0.376,0.039,0.743,0.111,1.098H56.806z"/>
<path fill="#61C4F2" d="M15.241,23.905c0.105-0.296,0.175-0.61,0.175-0.942c0-1.553-1.271-2.823-2.824-2.823
	c0-3.106-2.541-5.647-5.647-5.647c-2.628,0-4.846,1.822-5.468,4.264c-0.626-0.309-1.32-0.5-2.062-0.5
	c-2.59,0-4.707,2.118-4.707,4.706c0,0.322,0.033,0.637,0.096,0.942H15.241z"/>
<g>
	<g>
		<path fill="#445462" d="M98.499,72.261H-8.607c-0.77,0-1.393-0.623-1.393-1.393s0.623-1.393,1.393-1.393H98.499
			c0.77,0,1.393,0.623,1.393,1.393S99.269,72.261,98.499,72.261z"/>
	</g>
	<g>
		<path fill="#445462" d="M98.499,90.001H-8.607c-0.77,0-1.393-0.625-1.393-1.393c0-0.77,0.623-1.393,1.393-1.393H98.499
			c0.77,0,1.393,0.623,1.393,1.393C99.892,89.376,99.269,90.001,98.499,90.001z"/>
	</g>
	<g>
		<path fill="#445462" d="M98.499,80.978h-4.137c-0.768,0-1.389-0.621-1.389-1.389s0.621-1.389,1.389-1.389h4.137
			c0.768,0,1.389,0.621,1.389,1.389S99.267,80.978,98.499,80.978z M87.742,80.978h-4.137c-0.768,0-1.389-0.621-1.389-1.389
			s0.621-1.389,1.389-1.389h4.137c0.768,0,1.389,0.621,1.389,1.389S88.51,80.978,87.742,80.978z M76.985,80.978h-4.137
			c-0.768,0-1.389-0.621-1.389-1.389s0.621-1.389,1.389-1.389h4.137c0.768,0,1.389,0.621,1.389,1.389S77.753,80.978,76.985,80.978z
			 M66.229,80.978h-4.137c-0.768,0-1.389-0.621-1.389-1.389s0.621-1.389,1.389-1.389h4.137c0.768,0,1.389,0.621,1.389,1.389
			S66.996,80.978,66.229,80.978z M55.472,80.978h-4.137c-0.768,0-1.389-0.621-1.389-1.389s0.621-1.389,1.389-1.389h4.137
			c0.768,0,1.389,0.621,1.389,1.389S56.239,80.978,55.472,80.978z M44.715,80.978h-4.137c-0.768,0-1.389-0.621-1.389-1.389
			s0.621-1.389,1.389-1.389h4.137c0.768,0,1.389,0.621,1.389,1.389S45.482,80.978,44.715,80.978z M33.959,80.978h-4.138
			c-0.767,0-1.388-0.621-1.388-1.389s0.621-1.389,1.388-1.389h4.138c0.767,0,1.389,0.621,1.389,1.389S34.726,80.978,33.959,80.978z
			 M23.202,80.978h-4.138c-0.767,0-1.388-0.621-1.388-1.389s0.621-1.389,1.388-1.389h4.138c0.767,0,1.389,0.621,1.389,1.389
			S23.969,80.978,23.202,80.978z M12.445,80.978H8.308c-0.767,0-1.388-0.621-1.388-1.389S7.541,78.2,8.308,78.2h4.138
			c0.767,0,1.389,0.621,1.389,1.389S13.212,80.978,12.445,80.978z M1.688,80.978h-4.138c-0.767,0-1.388-0.621-1.388-1.389
			S-3.216,78.2-2.449,78.2h4.138c0.767,0,1.389,0.621,1.389,1.389S2.455,80.978,1.688,80.978z"/>
	</g>
</g>
<circle fill="#589442" cx="76.654" cy="50.757" r="13.884"/>
<circle fill="#589442" cx="12.99" cy="50.757" r="13.884"/>
<g>
	<path fill="#445462" d="M13.237,72.261c-11.857,0-21.504-9.646-21.504-21.504S1.38,29.252,13.237,29.252
		c9.123,0,17.28,5.78,20.297,14.385c0.255,0.726-0.127,1.52-0.853,1.775c-0.727,0.252-1.521-0.129-1.775-0.854
		c-2.626-7.49-9.727-12.522-17.669-12.522c-10.321,0-18.72,8.397-18.72,18.72c0,10.321,8.398,18.719,18.72,18.719
		c8.809,0,16.316-5.99,18.258-14.568c0.17-0.75,0.918-1.223,1.666-1.051c0.749,0.17,1.22,0.916,1.05,1.666
		C31.981,65.378,23.356,72.261,13.237,72.261z"/>
</g>
<g>
	<path fill="#445462" d="M76.654,72.261c-11.857,0-21.504-9.646-21.504-21.504s9.646-21.504,21.504-21.504
		s21.505,9.647,21.505,21.504S88.512,72.261,76.654,72.261z M76.654,32.037c-10.321,0-18.719,8.397-18.719,18.72
		c0,10.321,8.397,18.719,18.719,18.719c10.322,0,18.72-8.397,18.72-18.719C95.374,40.435,86.977,32.037,76.654,32.037z"/>
</g>
<g>
	<path fill="#445462" d="M77.907,51.933c-0.486,0-0.959-0.256-1.215-0.709L64.536,29.654c-0.016-0.028-0.029-0.056-0.043-0.084
		l-8.261-17.295c-0.206-0.432-0.176-0.939,0.079-1.343c0.255-0.405,0.699-0.65,1.178-0.65h7.009c3.938,0,7.14,3.276,7.14,7.302
		c0,0.769-0.624,1.392-1.393,1.392c-0.77,0-1.393-0.623-1.393-1.392c0-2.491-1.953-4.518-4.354-4.518h-4.801l7.288,15.261
		l12.133,21.528c0.378,0.671,0.141,1.52-0.528,1.897C78.373,51.874,78.138,51.933,77.907,51.933z"/>
</g>
<g>
	<path fill="#445462" d="M41.244,51.933H11.639c-0.529,0-1.012-0.301-1.247-0.773c-0.235-0.475-0.182-1.04,0.138-1.461
		l19.657-25.911c0.264-0.347,0.674-0.55,1.109-0.55h31.947c0.77,0,1.393,0.623,1.393,1.392s-0.623,1.393-1.393,1.393H31.988
		L14.442,49.147h26.802c0.769,0,1.393,0.623,1.393,1.393C42.637,51.309,42.013,51.933,41.244,51.933z"/>
</g>
<g>
	<path fill="#445462" d="M41.243,51.933c-0.322,0-0.647-0.112-0.911-0.34c-0.581-0.504-0.645-1.383-0.141-1.965l22.433-25.91
		c0.504-0.58,1.382-0.645,1.964-0.141c0.582,0.503,0.645,1.382,0.141,1.964l-22.432,25.91
		C42.021,51.769,41.634,51.933,41.243,51.933z"/>
</g>
<g>
	<path fill="#445462" d="M41.244,51.933c-0.579,0-1.12-0.364-1.317-0.943L26.969,13.024c-0.249-0.729,0.14-1.52,0.867-1.768
		c0.731-0.25,1.52,0.14,1.769,0.868l12.957,37.965c0.249,0.729-0.14,1.52-0.867,1.769C41.545,51.908,41.393,51.933,41.244,51.933z"
		/>
</g>
<path fill="#589442" d="M34.535,13.052H22.037c-1.652,0-3.005-1.353-3.005-3.005l0,0c0-1.653,1.353-3.004,3.005-3.004l12.498,2.216
	c1.684,0.336,3.005,0.485,3.005,2.138l0,0C37.54,13.049,36.188,13.052,34.535,13.052z"/>
</svg>
