<?xml version="1.0" encoding="utf-8"?>
<!-- Generator: Adobe Illustrator 15.0.0, SVG Export Plug-In . SVG Version: 6.00 Build 0)  -->
<!DOCTYPE svg PUBLIC "-//W3C//DTD SVG 1.1//EN" "http://www.w3.org/Graphics/SVG/1.1/DTD/svg11.dtd">
<svg version="1.1" id="Layer_1" xmlns="http://www.w3.org/2000/svg" xmlns:xlink="http://www.w3.org/1999/xlink" x="0px" y="0px"
	 width="25px" height="25px" viewBox="0 0 25 25" enable-background="new 0 0 25 25" xml:space="preserve">
<path marker-end="none" marker-start="none" fill="#B3B3B3" d="M4.466,24.716c-0.196,0-0.362-0.143-0.391-0.337L2.477,13.501
	L0.75,17.044c-0.072,0.148-0.224,0.229-0.377,0.223c-0.051-0.004-0.103-0.016-0.151-0.04c-0.196-0.096-0.277-0.332-0.182-0.529
	l2.158-4.428c0.023-0.049,0.056-0.09,0.095-0.125l0.063-0.037l0.044-0.063c0.073-0.083,0.179-0.137,0.299-0.137h0.562l0.091-0.332
	c0.095-0.224,0.243-0.427,0.429-0.603c0.362-0.346,0.877-0.618,1.466-0.831c1.182-0.43,2.772-0.66,4.371-0.688
	c0.707-0.011,1.453,0.017,2.185,0.096l0.076,0.01l5.091-6.069l3.052-3.385c0.127-0.139,0.342-0.143,0.474-0.009l1.004,1.03
	c0.118,0.12,0.124,0.312,0.012,0.441l-3.043,3.505c-0.005,0.007-0.014,0.015-0.019,0.02l-4.884,4.77l0.336,0.079
	c0.325,0.092,0.633,0.2,0.916,0.322l0.147,0.072l5.075-4.059l3.673-2.729c0.151-0.113,0.366-0.073,0.469,0.085l0.767,1.212
	c0.091,0.142,0.059,0.329-0.075,0.431l-3.689,2.849c-0.006,0.006-0.015,0.012-0.021,0.015l-4.889,3.176l0.131,0.183
	c0.063,0.104,0.115,0.212,0.157,0.325l0.021,0.083h0.635c0.151,0,0.281,0.085,0.346,0.207l0.016,0.033l0.034,0.044l2.158,4.428
	c0.097,0.194,0.014,0.433-0.181,0.526c-0.05,0.025-0.102,0.038-0.152,0.04c-0.154,0.009-0.306-0.073-0.376-0.221l-1.64-3.362
	l-1.621,10.778c-0.028,0.192-0.194,0.335-0.392,0.335H4.466z M15.071,23.927l1.488-9.899L14.9,16.872
	c-0.07,0.122-0.2,0.195-0.342,0.195H5.661c-0.133,0-0.259-0.065-0.331-0.178l-2.01-3.081l1.487,10.118H15.071z M14.333,16.279
	l2.089-3.581H3.539l2.335,3.581H14.333z M4.76,11.908l0.059-0.274c0.052-0.153,0.122-0.292,0.203-0.419l0.151-0.193l-0.035,0.014
	c-0.352,0.157-0.623,0.328-0.81,0.508c-0.121,0.115-0.2,0.226-0.247,0.335l-0.007,0.029H4.76z M6.691,11.908l-0.009-0.1
	c0.013-0.363,0.169-0.702,0.371-1.002l0.221-0.277l-0.559,0.294c-0.22,0.117-0.428,0.239-0.611,0.378
	C5.85,11.397,5.66,11.614,5.564,11.9l-0.002,0.008H6.691z M8.222,11.908l0.074-0.376l0.062-0.1l-0.19-0.014l-0.53-0.06l-0.001,0.001
	c-0.076,0.132-0.125,0.249-0.149,0.353l-0.002,0.196H8.222z M9.955,11.908l0.037-0.273l0.072-0.14l-0.171,0.004l-0.556-0.012
	l-0.21,0.188c-0.053,0.062-0.083,0.112-0.1,0.154l-0.016,0.079H9.955z M12.652,11.908l-0.009-0.087
	c-0.019-0.072-0.045-0.133-0.08-0.187c-0.062-0.095-0.167-0.198-0.361-0.305l-0.045-0.022l-0.136,0.022
	c-0.174,0.028-0.349,0.052-0.524,0.073l-0.229,0.022l-0.003,0.003c-0.257,0.107-0.382,0.21-0.445,0.295
	c-0.032,0.042-0.054,0.086-0.068,0.136l-0.007,0.05H12.652z M14.045,11.908l-0.008-0.015c-0.001-0.204-0.039-0.339-0.108-0.448
	c-0.07-0.107-0.199-0.226-0.45-0.349c-0.024-0.013-0.048-0.027-0.067-0.042l-0.021-0.018l-0.081,0.022l-0.161,0.041l0.009,0.01
	c0.024,0.031,0.048,0.063,0.069,0.097c0.088,0.135,0.147,0.276,0.182,0.422l0.034,0.281H14.045z M15.724,11.908l-0.019-0.035
	c-0.175-0.269-0.476-0.519-0.899-0.739l-0.206-0.1l0.174,0.406c0.037,0.144,0.053,0.295,0.054,0.448l-0.01,0.02H15.724z
	 M15.808,10.845l4.7-3.052L20.037,7.11l-4.456,3.564l0.013,0.008L15.808,10.845z M9.563,10.707l-0.007-0.02
	c-0.013-0.03-0.028-0.059-0.045-0.086c-0.035-0.054-0.085-0.112-0.157-0.17l-0.275-0.167H9.054l-0.492,0.033L8.23,10.623
	l-0.006,0.006l0.273,0.026c0.352,0.029,0.701,0.046,1.046,0.052H9.563z M10.374,10.697l0.193-0.008
	c0.112-0.006,0.225-0.014,0.337-0.021l0.09-0.009l-0.016-0.04c-0.01-0.024-0.023-0.044-0.04-0.066
	c-0.064-0.085-0.189-0.188-0.447-0.295l-0.003-0.003l-0.28-0.009h-0.004l0.15,0.349L10.374,10.697z M11.785,10.564l0.113-0.016
	l0.568-0.113l-0.021-0.004c-0.177-0.029-0.355-0.054-0.538-0.075L11.7,10.335l0.065,0.13L11.785,10.564z M12.809,9.696l4.927-4.813
	l-0.603-0.575L12.636,9.67L12.809,9.696z M7.779,7.471C7.678,7.48,7.574,7.449,7.491,7.379c-0.167-0.14-0.188-0.39-0.048-0.556
	c0.159-0.188,0.288-0.34,0.389-0.483c0.102-0.143,0.157-0.25,0.179-0.338C8.031,5.922,8.03,5.85,7.996,5.76
	C7.958,5.661,7.873,5.525,7.697,5.35c-0.44-0.419-0.676-0.846-0.696-1.283C6.979,3.63,7.178,3.272,7.403,3
	c0.315-0.375,0.433-0.609,0.439-0.769C7.844,2.166,7.829,2.095,7.77,2.007C7.703,1.914,7.582,1.793,7.366,1.656
	C7.183,1.537,7.128,1.293,7.245,1.109c0.12-0.183,0.363-0.237,0.546-0.118C8.06,1.162,8.273,1.348,8.419,1.56
	C8.57,1.777,8.642,2.014,8.631,2.263C8.612,2.729,8.307,3.151,8.01,3.504c-0.16,0.194-0.228,0.363-0.221,0.525
	c0.009,0.163,0.097,0.409,0.459,0.756c0.229,0.228,0.395,0.454,0.485,0.691c0.096,0.249,0.103,0.491,0.042,0.725
	c-0.059,0.22-0.173,0.418-0.299,0.596C8.351,6.973,8.197,7.154,8.047,7.331C7.976,7.415,7.879,7.463,7.779,7.471z M10.709,7.471
	c-0.1,0.008-0.205-0.021-0.288-0.092c-0.166-0.14-0.188-0.389-0.048-0.556c0.158-0.188,0.288-0.34,0.388-0.483
	c0.102-0.143,0.157-0.25,0.179-0.339c0.02-0.079,0.02-0.151-0.016-0.241c-0.037-0.099-0.123-0.235-0.298-0.41
	c-0.441-0.419-0.675-0.846-0.696-1.283C9.91,3.63,10.108,3.274,10.333,3c0.316-0.375,0.434-0.609,0.439-0.771
	c0.002-0.063-0.013-0.135-0.072-0.222c-0.066-0.094-0.188-0.214-0.404-0.352c-0.183-0.119-0.237-0.362-0.119-0.547
	c0.117-0.183,0.363-0.237,0.546-0.118c0.267,0.171,0.481,0.357,0.626,0.569c0.151,0.218,0.222,0.455,0.212,0.703
	c-0.019,0.467-0.325,0.889-0.621,1.241c-0.159,0.193-0.228,0.363-0.221,0.525c0.009,0.163,0.098,0.411,0.458,0.756
	c0.229,0.228,0.394,0.454,0.485,0.691c0.094,0.249,0.102,0.491,0.042,0.723c-0.058,0.222-0.173,0.42-0.298,0.597
	c-0.125,0.176-0.279,0.356-0.429,0.535C10.907,7.415,10.811,7.463,10.709,7.471z M21.038,7.418l3.202-2.473l-0.42-0.666L20.55,6.707
	L21.038,7.418z M18.182,4.413l2.644-3.045l-0.554-0.566l-2.717,3.012L18.182,4.413z"/>
</svg>
