<?xml version="1.0" encoding="utf-8"?>
<!-- Generator: Adobe Illustrator 15.0.0, SVG Export Plug-In . SVG Version: 6.00 Build 0)  -->
<!DOCTYPE svg PUBLIC "-//W3C//DTD SVG 1.1//EN" "http://www.w3.org/Graphics/SVG/1.1/DTD/svg11.dtd">
<svg version="1.1" id="Layer_1" xmlns="http://www.w3.org/2000/svg" xmlns:xlink="http://www.w3.org/1999/xlink" x="0px" y="0px"
	 width="162px" height="35px" viewBox="0 0 162 35" enable-background="new 0 0 162 35" xml:space="preserve">
<path fill="#FFFFFF" d="M53.783,14.965c-8.221-13.955-23.886-13.929-32.12,0c2.736-7.26,9.062-11.982,16.06-11.982
	C44.733,2.983,51.06,7.706,53.783,14.965L53.783,14.965z M37.815,28.08c-2.644,0-4.998-1.264-6.498-3.209h3.88
	c0.776,0.42,1.684,0.656,2.631,0.656c0.96,0,1.854-0.236,2.644-0.656h3.144H44.3C42.813,26.816,40.458,28.08,37.815,28.08
	L37.815,28.08z M37.815,34.551H19.94c-0.71,0-1.276-0.564-1.276-1.275l0,0c0-0.697,0.565-1.273,1.276-1.273h9.325
	c-0.934-0.619-1.815-1.328-2.591-2.145H13.732c-0.71,0-1.276-0.566-1.276-1.275l0,0c0-0.695,0.565-1.273,1.276-1.273h10.917
	c-0.486-0.764-0.907-1.58-1.25-2.436H8.234c-0.71,0-1.276-0.578-1.276-1.275c0-0.693,0.565-1.273,1.276-1.273h14.363h21.019h9.404
	C51.494,29.316,45.259,34.551,37.815,34.551L37.815,34.551z M27.371,19.701h26.293c2.065,0,2.302-1.17,2.025-2.71
	C54.229,8.704,48.311,2.43,39.63,1.26c-0.066-0.96-0.855-1.71-1.815-1.71s-1.75,0.736-1.829,1.67
	c-1.973,0.224-4.143,0.881-5.248,1.355c-6.366,2.907-9.996,7.602-11.561,14.573H1.276C0.565,17.149,0,17.728,0,18.426
	c0,0.709,0.565,1.275,1.276,1.275h22.583H27.371z"/>
<g>
	<path fill="#FFFFFF" d="M78.079,9.667H69.51v5.493h7.163c0.664,0,1.159,0.149,1.486,0.447s0.491,0.695,0.491,1.193
		s-0.166,0.894-0.498,1.187c-0.332,0.293-0.825,0.44-1.479,0.44H69.51v7.074c0,0.898-0.203,1.566-0.608,2s-0.925,0.652-1.56,0.652
		c-0.645,0-1.17-0.221-1.575-0.66s-0.607-1.104-0.607-1.992V8.979c0-0.625,0.093-1.135,0.278-1.531
		c0.186-0.395,0.476-0.683,0.872-0.863c0.395-0.181,0.9-0.271,1.516-0.271h10.254c0.693,0,1.209,0.154,1.545,0.461
		c0.338,0.309,0.506,0.711,0.506,1.209c0,0.508-0.168,0.916-0.506,1.223C79.288,9.514,78.772,9.667,78.079,9.667z"/>
	<path fill="#FFFFFF" d="M96.167,20.023c0,1.191-0.186,2.291-0.557,3.297s-0.908,1.869-1.611,2.592s-1.543,1.277-2.52,1.662
		c-0.977,0.387-2.075,0.58-3.296,0.58c-1.211,0-2.3-0.195-3.267-0.586s-1.805-0.949-2.513-1.678
		c-0.708-0.727-1.244-1.586-1.611-2.578c-0.365-0.99-0.549-2.088-0.549-3.289c0-1.211,0.186-2.319,0.557-3.325
		s0.903-1.865,1.597-2.578s1.533-1.262,2.52-1.647s2.075-0.579,3.267-0.579c1.211,0,2.31,0.195,3.296,0.586s1.831,0.947,2.534,1.67
		s1.238,1.582,1.604,2.578C95.984,17.724,96.167,18.822,96.167,20.023z M92.153,20.023c0-1.631-0.358-2.9-1.077-3.808
		c-0.717-0.908-1.682-1.362-2.893-1.362c-0.781,0-1.47,0.203-2.065,0.608s-1.055,1.003-1.377,1.794
		c-0.322,0.792-0.483,1.713-0.483,2.768c0,1.045,0.158,1.959,0.477,2.74c0.316,0.781,0.771,1.379,1.361,1.793
		c0.591,0.416,1.287,0.623,2.088,0.623c1.211,0,2.176-0.455,2.893-1.369C91.795,22.898,92.153,21.635,92.153,20.023z"/>
	<path fill="#FFFFFF" d="M113.537,20.023c0,1.191-0.186,2.291-0.557,3.297s-0.908,1.869-1.611,2.592s-1.543,1.277-2.52,1.662
		c-0.977,0.387-2.075,0.58-3.296,0.58c-1.211,0-2.3-0.195-3.267-0.586s-1.805-0.949-2.513-1.678
		c-0.708-0.727-1.244-1.586-1.611-2.578c-0.365-0.99-0.549-2.088-0.549-3.289c0-1.211,0.186-2.319,0.557-3.325
		s0.903-1.865,1.597-2.578s1.533-1.262,2.52-1.647s2.075-0.579,3.267-0.579c1.211,0,2.31,0.195,3.296,0.586s1.831,0.947,2.534,1.67
		s1.238,1.582,1.604,2.578C113.354,17.724,113.537,18.822,113.537,20.023z M109.523,20.023c0-1.631-0.358-2.9-1.077-3.808
		c-0.717-0.908-1.682-1.362-2.893-1.362c-0.781,0-1.47,0.203-2.065,0.608s-1.055,1.003-1.377,1.794
		c-0.322,0.792-0.483,1.713-0.483,2.768c0,1.045,0.158,1.959,0.477,2.74c0.316,0.781,0.771,1.379,1.361,1.793
		c0.591,0.416,1.287,0.623,2.088,0.623c1.211,0,2.176-0.455,2.893-1.369C109.165,22.898,109.523,21.635,109.523,20.023z"/>
	<path fill="#FFFFFF" d="M121.005,25.502v-6.811l-5.244-8.13c-0.459-0.732-0.784-1.304-0.974-1.714
		c-0.191-0.41-0.286-0.767-0.286-1.069c0-0.498,0.192-0.928,0.579-1.289c0.385-0.361,0.861-0.542,1.428-0.542
		c0.596,0,1.047,0.169,1.355,0.505c0.307,0.338,0.769,1.009,1.384,2.015l4.014,6.519l4.058-6.519c0.244-0.4,0.449-0.737,0.615-1.011
		s0.349-0.529,0.549-0.77c0.2-0.238,0.423-0.422,0.667-0.549s0.542-0.19,0.894-0.19c0.547,0,1.004,0.179,1.369,0.534
		c0.367,0.357,0.55,0.77,0.55,1.238c0,0.381-0.093,0.762-0.278,1.143s-0.503,0.908-0.952,1.582l-5.376,8.248v6.811
		c0,0.889-0.205,1.553-0.615,1.992s-0.933,0.66-1.567,0.66c-0.645,0-1.167-0.219-1.567-0.652S121.005,26.4,121.005,25.502z"/>
	<path fill="#FFFFFF" d="M143.209,21.006h-7.822c0.01,0.908,0.192,1.709,0.55,2.402c0.355,0.693,0.829,1.215,1.42,1.566
		s1.243,0.527,1.956,0.527c0.479,0,0.915-0.055,1.312-0.168c0.395-0.111,0.778-0.287,1.149-0.527
		c0.371-0.238,0.713-0.496,1.025-0.77s0.718-0.645,1.216-1.113c0.205-0.176,0.498-0.264,0.879-0.264c0.41,0,0.742,0.113,0.996,0.338
		s0.381,0.541,0.381,0.951c0,0.361-0.142,0.783-0.425,1.268c-0.283,0.482-0.71,0.947-1.282,1.391
		c-0.57,0.445-1.289,0.814-2.152,1.107c-0.865,0.293-1.858,0.439-2.981,0.439c-2.568,0-4.565-0.732-5.991-2.197
		s-2.139-3.453-2.139-5.963c0-1.182,0.176-2.277,0.527-3.289c0.352-1.01,0.864-1.877,1.538-2.6s1.504-1.276,2.49-1.662
		s2.08-0.579,3.281-0.579c1.562,0,2.902,0.329,4.021,0.989c1.118,0.658,1.956,1.511,2.513,2.556s0.835,2.109,0.835,3.194
		c0,1.006-0.288,1.658-0.864,1.955C145.064,20.857,144.254,21.006,143.209,21.006z M135.387,18.734h7.251
		c-0.098-1.367-0.467-2.389-1.105-3.068c-0.641-0.679-1.482-1.019-2.527-1.019c-0.996,0-1.814,0.345-2.453,1.032
		C135.911,16.37,135.523,17.387,135.387,18.734z"/>
	<path fill="#FFFFFF" d="M162,22.924c0,1.104-0.269,2.049-0.806,2.834c-0.537,0.787-1.331,1.383-2.38,1.787
		c-1.051,0.406-2.327,0.609-3.831,0.609c-1.436,0-2.666-0.221-3.691-0.66s-1.782-0.988-2.271-1.648
		c-0.488-0.658-0.732-1.32-0.732-1.984c0-0.439,0.156-0.814,0.469-1.127s0.708-0.469,1.187-0.469c0.42,0,0.742,0.102,0.967,0.307
		s0.439,0.494,0.645,0.865c0.41,0.713,0.901,1.244,1.472,1.596c0.572,0.352,1.351,0.527,2.337,0.527c0.801,0,1.458-0.178,1.97-0.535
		c0.514-0.355,0.77-0.764,0.77-1.223c0-0.703-0.267-1.215-0.799-1.537s-1.408-0.631-2.629-0.924
		c-1.377-0.342-2.498-0.699-3.361-1.076c-0.865-0.375-1.556-0.871-2.073-1.486s-0.776-1.373-0.776-2.271
		c0-0.801,0.239-1.558,0.718-2.271s1.184-1.282,2.116-1.706c0.933-0.426,2.059-0.638,3.377-0.638c1.035,0,1.965,0.107,2.791,0.322
		c0.824,0.215,1.513,0.503,2.064,0.864s0.972,0.762,1.26,1.201s0.433,0.869,0.433,1.289c0,0.459-0.153,0.835-0.462,1.128
		c-0.307,0.293-0.744,0.439-1.311,0.439c-0.41,0-0.76-0.117-1.047-0.352c-0.289-0.234-0.618-0.586-0.989-1.055
		c-0.303-0.391-0.659-0.703-1.069-0.938s-0.967-0.352-1.67-0.352c-0.723,0-1.323,0.153-1.802,0.462
		c-0.479,0.307-0.718,0.69-0.718,1.149c0,0.42,0.176,0.765,0.527,1.032c0.352,0.27,0.825,0.491,1.421,0.667s1.416,0.391,2.461,0.645
		c1.24,0.303,2.253,0.664,3.04,1.084c0.785,0.42,1.381,0.914,1.787,1.486C161.797,21.539,162,22.191,162,22.924z"/>
</g>
</svg>
