<?xml version="1.0" encoding="utf-8"?>
<!-- Generator: Adobe Illustrator 15.0.0, SVG Export Plug-In . SVG Version: 6.00 Build 0)  -->
<!DOCTYPE svg PUBLIC "-//W3C//DTD SVG 1.1//EN" "http://www.w3.org/Graphics/SVG/1.1/DTD/svg11.dtd">
<svg version="1.1" id="Layer_1" xmlns="http://www.w3.org/2000/svg" xmlns:xlink="http://www.w3.org/1999/xlink" x="0px" y="0px"
	 width="900px" height="400px" viewBox="0 0 900 400" enable-background="new 0 0 900 400" xml:space="preserve">
<g opacity="0.15">
	<rect x="243" y="312" fill="#070707" width="3" height="5"/>
	<rect x="243" y="329" fill="#070707" width="3" height="6"/>
	<rect x="243" y="347" fill="#070707" width="3" height="5"/>
	<rect x="228" y="312" fill="#070707" width="3" height="5"/>
	<rect x="228" y="329" fill="#070707" width="3" height="6"/>
	<rect x="228" y="347" fill="#070707" width="3" height="5"/>
	<rect x="243" y="295" fill="#070707" width="3" height="5"/>
	<rect x="228" y="295" fill="#070707" width="3" height="5"/>
	<rect x="243" y="364" fill="#070707" width="3" height="5"/>
	<rect x="243" y="381" fill="#070707" width="3" height="6"/>
	<rect x="228" y="364" fill="#070707" width="3" height="5"/>
	<rect x="228" y="381" fill="#070707" width="3" height="6"/>
	<path fill="#070707" d="M211.581,164.662c0.736,0.384,1.641,0.134,2.024-0.6L227.749,137h19.119l14.144,27.062
		c0.268,0.513,0.79,0.789,1.331,0.789c0.233,0,0.471-0.064,0.693-0.18c0.734-0.383,0.918-1.293,0.535-2.028L249,134.916v-14.37
		c0-0.829-0.671-1.5-1.5-1.5s-1.5,0.671-1.5,1.5V134h-8v-13.454c0-0.829-0.671-1.5-1.5-1.5s-1.5,0.671-1.5,1.5V134h-7v-13.454
		c0-0.829-0.671-1.5-1.5-1.5s-1.5,0.671-1.5,1.5v14.371l-14.263,27.721C210.354,163.372,210.846,164.278,211.581,164.662z"/>
	<path fill="#070707" d="M227.939,113.146l9.369-8.752l9.369,8.752c0.289,0.27,0.657,0.404,1.023,0.404
		c0.401,0,0.801-0.16,1.097-0.476c0.565-0.605,0.533-1.555-0.072-2.12l-11.417-10.666l-11.417,10.666
		c-0.605,0.565-0.638,1.515-0.072,2.12C226.384,113.679,227.334,113.711,227.939,113.146z"/>
	<path fill="#070707" d="M237,198.852c-6.14,0-11,4.994-11,11.133V230h22v-20.016C248,203.846,243.14,198.852,237,198.852z M245,227
		h-16v-17.016c0-4.484,3.515-8.133,8-8.133s8,3.648,8,8.133V227z"/>
	<path fill="#070707" d="M237,245.277c-6.14,0-11,4.995-11,11.135V276h22v-19.588C248,250.272,243.14,245.277,237,245.277z M245,273
		h-16v-16.588c0-4.485,3.515-8.135,8-8.135s8,3.649,8,8.135V273z"/>
	<path fill="#070707" d="M339,286.983c0,0.828,0.671,1.5,1.5,1.5s1.5-0.672,1.5-1.5V252h17.636c0.829,0,1.364-1.084,1.364-1.912
		v-36.405c0-6.022,5.037-10.683,11.06-10.683h85.226c6.023,0,10.715,4.66,10.715,10.683v36.405c0,0.828,0.881,1.912,1.709,1.912H487
		v34.983c0,0.828,0.672,1.5,1.5,1.5s1.5-0.672,1.5-1.5V252h45v37h41.213c0.828,0,1.5-0.672,1.5-1.5s-0.672-1.5-1.5-1.5H538v-37
		h-49.248h-1.5H471v-35.317c0-7.677-6.037-13.683-13.715-13.683H372.06c-7.677,0-14.06,6.006-14.06,13.683V249h-15.907h-1.5H290v37
		h-27V181.9v-1.5v-7.814c0-0.829-0.671-1.5-1.5-1.5s-1.5,0.671-1.5,1.5V181h-9v-17.517c0-0.829-0.671-1.5-1.5-1.5
		s-1.5,0.671-1.5,1.5V181h-10v-17.517c0-0.829-0.671-1.5-1.5-1.5s-1.5,0.671-1.5,1.5V181h-9v-17.517c0-0.829-0.671-1.5-1.5-1.5
		s-1.5,0.671-1.5,1.5V181h-10v-8.414c0-0.829-0.671-1.5-1.5-1.5s-1.5,0.671-1.5,1.5v7.814v1.5V342h-53v-28.121l29.522,16.782
		c0.234,0.133,0.498,0.196,0.75,0.196c0.522,0,1.034-0.272,1.31-0.759c0.41-0.72,0.142-1.636-0.579-2.045L157,310.428v-16.196
		l-13.5-9.03l-13.5,9.03v16.196l-30.512,17.626c-0.72,0.409-0.735,1.325-0.325,2.045c0.276,0.486,0.901,0.759,1.423,0.759
		c0.251,0,0.092-0.063,0.326-0.196L130,313.879V342H88v-13H72v68H61v-26.617c0-3.56-1.73-6.895-4.657-8.922
		c-3.694-2.557-8.817-2.557-12.511,0c-2.927,2.027-4.832,5.362-4.832,8.922V397H24V291h53v-3H21v112h242V289h30v-37h46V286.983z
		 M133,295.804l10.5-6.954l10.5,6.954V342h-21V295.804z M75,332h10v11.195V397H75V332z M42,370.383c0-2.575,1.43-4.988,3.548-6.455
		c2.673-1.852,6.331-1.851,9.004,0c2.118,1.467,3.448,3.88,3.448,6.455V397H42V370.383z M120,397h-15v-26.617
		c0-2.575,1.35-4.988,3.468-6.455c2.674-1.852,5.872-1.85,8.544,0c2.118,1.467,2.988,3.88,2.988,6.455V397z M151,397h-15v-26.617
		c0-2.575,1.335-4.988,3.453-6.455c2.674-1.852,5.879-1.85,8.551,0c2.118,1.467,2.996,3.88,2.996,6.455V397z M182,397h-15v-26.617
		c0-2.575,1.32-4.988,3.438-6.455c2.674-1.852,5.886-1.85,8.558,0c2.118,1.467,3.003,3.88,3.003,6.455V397z M260,397h-75v-26.617
		c0-3.56-1.34-6.895-4.267-8.922c-3.695-2.557-8.511-2.557-12.206,0c-2.927,2.027-4.527,5.362-4.527,8.922V397h-10v-26.617
		c0-3.56-1.325-6.895-4.252-8.922c-3.695-2.557-8.519-2.557-12.213,0c-2.927,2.027-4.534,5.362-4.534,8.922V397h-10v-26.617
		c0-3.56-1.311-6.895-4.237-8.922c-3.694-2.557-8.526-2.557-12.221,0c-2.927,2.027-4.542,5.362-4.542,8.922V397H88v-52h124.275
		c0.829,0,0.725-0.977,0.725-1.805V184h47v102.983V397z"/>
	<path fill="#070707" d="M291.5,242.057c0.829,0,1.5-0.672,1.5-1.5v-16.841c0-0.829-0.671-1.5-1.5-1.5s-1.5,0.671-1.5,1.5v16.841
		C290,241.385,290.671,242.057,291.5,242.057z"/>
	<path fill="#070707" d="M302,223.716v16.841c0,0.828,0.671,1.5,1.5,1.5s1.5-0.672,1.5-1.5v-16.841c0-0.829-0.671-1.5-1.5-1.5
		S302,222.887,302,223.716z"/>
	<path fill="#070707" d="M314,223.716v16.841c0,0.828,0.671,1.5,1.5,1.5s1.5-0.672,1.5-1.5v-16.841c0-0.829-0.671-1.5-1.5-1.5
		S314,222.887,314,223.716z"/>
	<path fill="#070707" d="M326,223.716v16.841c0,0.828,0.671,1.5,1.5,1.5s1.5-0.672,1.5-1.5v-16.841c0-0.829-0.671-1.5-1.5-1.5
		S326,222.887,326,223.716z"/>
	<path fill="#070707" d="M340.5,222.216c-0.829,0-1.5,0.671-1.5,1.5v16.841c0,0.828,0.671,1.5,1.5,1.5s1.5-0.672,1.5-1.5v-16.841
		C342,222.887,341.329,222.216,340.5,222.216z"/>
	<path fill="#070707" d="M291.988,215.051c0.829,0,1.5-0.672,1.5-1.5c0-12.573,10.229-22.803,22.802-22.803
		s22.803,10.229,22.803,22.803c0,0.828,0.671,1.5,1.5,1.5s1.036-0.672,1.036-1.5c0-10.041-5.628-18.755-14.628-23.018v-7.827
		c0-3.813-2.174-6.706-5.988-6.706H317v-12.668c0-0.829-0.671-1.5-1.5-1.5s-1.5,0.671-1.5,1.5V176h-2.431
		c-3.814,0-7.569,2.893-7.569,6.706v7.827c-8,4.262-13.838,12.977-13.838,23.018C290.162,214.379,291.159,215.051,291.988,215.051z
		 M307,182.706c0-2.159,2.409-3.706,4.569-3.706h9.443c2.16,0,2.988,1.547,2.988,3.706v6.534c-2-0.963-5.471-1.492-8.5-1.492
		c-3.029,0-5.5,0.529-8.5,1.492V182.706z"/>
	<path fill="#070707" d="M488.5,242.057c0.828,0,1.5-0.672,1.5-1.5v-16.841c0-0.829-0.672-1.5-1.5-1.5s-1.5,0.671-1.5,1.5v16.841
		C487,241.385,487.672,242.057,488.5,242.057z"/>
	<path fill="#070707" d="M499,223.716v16.841c0,0.828,0.672,1.5,1.5,1.5s1.5-0.672,1.5-1.5v-16.841c0-0.829-0.672-1.5-1.5-1.5
		S499,222.887,499,223.716z"/>
	<path fill="#070707" d="M511,223.716v16.841c0,0.828,0.672,1.5,1.5,1.5s1.5-0.672,1.5-1.5v-16.841c0-0.829-0.672-1.5-1.5-1.5
		S511,222.887,511,223.716z"/>
	<path fill="#070707" d="M523,223.716v16.841c0,0.828,0.672,1.5,1.5,1.5s1.5-0.672,1.5-1.5v-16.841c0-0.829-0.672-1.5-1.5-1.5
		S523,222.887,523,223.716z"/>
	<path fill="#070707" d="M536.5,222.216c-0.828,0-1.5,0.671-1.5,1.5v16.841c0,0.828,0.672,1.5,1.5,1.5s1.5-0.672,1.5-1.5v-16.841
		C538,222.887,537.328,222.216,536.5,222.216z"/>
	<path fill="#070707" d="M488.752,215.051c0.828,0,1.5-0.672,1.5-1.5c0-12.573,10.229-22.803,22.802-22.803
		s22.803,10.229,22.803,22.803c0,0.828,0.672,1.5,1.5,1.5s1.154-0.672,1.154-1.5c0-10.042-5.511-18.756-14.511-23.018v-7.827
		c0-3.813-2.411-6.706-6.225-6.706H514v-12.668c0-0.829-0.672-1.5-1.5-1.5s-1.5,0.671-1.5,1.5V176h-2.668
		c-3.814,0-7.332,2.893-7.332,6.706v7.828c-8,4.262-13.955,12.976-13.955,23.017C487.045,214.379,487.924,215.051,488.752,215.051z
		 M504,182.706c0-2.159,2.172-3.706,4.332-3.706h9.443c2.159,0,3.225,1.547,3.225,3.706v6.534c-3-0.963-5.471-1.492-8.5-1.492
		s-5.5,0.529-8.5,1.492V182.706z"/>
	<path fill="#070707" d="M445.5,276.688c0.829,0,1.5-0.672,1.5-1.5v-38.065l-5.751-6.381l-4.442,4.835l-22.218-22.302
		l-22.259,22.302l-4.928-4.835L381,237.123v38.064c0,0.828,0.671,1.5,1.5,1.5s1.5-0.672,1.5-1.5v-36.863l3.423-3.234l4.728,4.78
		l22.437-22.353l22.394,22.353l4.247-4.78l2.772,3.234v36.864C444,276.017,444.671,276.688,445.5,276.688z"/>
	<path fill="#070707" d="M424.5,267.875c0.829,0,1.5-0.672,1.5-1.5v-13.833c0-6.725-5.275-12.196-12-12.196s-12,5.472-12,12.196
		v13.832c0,0.828,0.671,1.5,1.5,1.5s1.5-0.672,1.5-1.5v-13.832c0-5.071,3.929-9.196,9-9.196s9,4.125,9,9.196v13.833
		C423,267.203,423.671,267.875,424.5,267.875z"/>
	<path fill="#070707" d="M373,163.332v27.765c0,0.829,0.671,1.5,1.5,1.5s1.5-0.671,1.5-1.5v-27.765c0-0.829-0.671-1.5-1.5-1.5
		S373,162.503,373,163.332z"/>
	<path fill="#070707" d="M389,163.332v27.765c0,0.829,0.671,1.5,1.5,1.5s1.5-0.671,1.5-1.5v-27.765c0-0.829-0.671-1.5-1.5-1.5
		S389,162.503,389,163.332z"/>
	<path fill="#070707" d="M405,163.332v27.765c0,0.829,0.671,1.5,1.5,1.5s1.5-0.671,1.5-1.5v-27.765c0-0.829-0.671-1.5-1.5-1.5
		S405,162.503,405,163.332z"/>
	<path fill="#070707" d="M421,163.332v27.765c0,0.829,0.671,1.5,1.5,1.5s1.5-0.671,1.5-1.5v-27.765c0-0.829-0.671-1.5-1.5-1.5
		S421,162.503,421,163.332z"/>
	<path fill="#070707" d="M436,163.332v27.765c0,0.829,0.671,1.5,1.5,1.5s1.5-0.671,1.5-1.5v-27.765c0-0.829-0.671-1.5-1.5-1.5
		S436,162.503,436,163.332z"/>
	<path fill="#070707" d="M453.5,161.832c-0.828,0-1.5,0.671-1.5,1.5v27.765c0,0.829,0.672,1.5,1.5,1.5s1.5-0.671,1.5-1.5v-27.765
		C455,162.503,454.328,161.832,453.5,161.832z"/>
	<path fill="#070707" d="M375.073,152h79.198c0.828,0,1.117-0.932,1.117-1.76c0-17.714-11.389-33.105-27.389-38.87V97h-2.121
		c0.126-1,0.068-1.701,0.068-2.497c0-5.755-4.948-10.869-9.948-11.606v-9.839c0-0.829-0.671-1.5-1.5-1.5s-1.5,0.671-1.5,1.5v9.839
		c-6,0.738-9.776,5.852-9.776,11.606c0,0.724,0.153,1.497,0.287,2.497H400v14.371c-16,5.764-26.716,21.156-26.716,38.87
		C373.284,151.068,374.245,152,375.073,152z M406.31,94.503c0-4.61,3.751-8.539,8.362-8.539s8.362,4.018,8.362,8.628
		c0,1.017-0.036,1.408-0.232,2.408h-16.208C406.41,96,406.31,95.233,406.31,94.503z M403,100h2.483c0.008,0,0.015,0.003,0.023,0.003
		c0.012,0,0.024-0.003,0.036-0.003H425v10.414c-3-0.991-7.156-1.533-11-1.533s-7,0.542-11,1.533V100z M402.177,114.256
		c0.277-0.019,0.536-0.236,0.751-0.385c3.702-1.203,7.646-1.925,11.744-1.925s8.042,0.625,11.744,1.828
		c0.216,0.149,0.474,0.48,0.751,0.499C441.604,119.3,452.111,133,452.733,149h-76.122C377.234,133,387.74,119.284,402.177,114.256z"
		/>
	<path fill="#070707" d="M189.245,246.05c-0.164-1.759-4.245-43.06-32.245-55.051v-11.001c0-2.916-1.799-4.998-4.558-4.998h-16.266
		c-2.758,0-5.177,2.083-5.177,4.998v11.001c-28,11.991-31.772,53.292-31.936,55.051L98.999,248h90.621L189.245,246.05z M102.341,245
		c1.083-8,7.049-41,30.647-51h11.004c0.829,0,1.5-0.671,1.5-1.5s-0.671-1.5-1.5-1.5H134v-11.002c0-1.261,1.073-1.998,2.177-1.998
		h16.266c1.104,0,1.558,0.737,1.558,1.998v13.016l1.164,0.689C178.97,203.246,185.191,237,186.277,245H102.341z"/>
	<path fill="#070707" d="M134.5,171.334c0.829,0,1.5-0.671,1.5-1.5v-8.064c0-0.829-0.671-1.5-1.5-1.5s-1.5,0.671-1.5,1.5v8.064
		C133,170.663,133.671,171.334,134.5,171.334z"/>
	<path fill="#070707" d="M142,161.77v8.064c0,0.829,0.671,1.5,1.5,1.5s1.5-0.671,1.5-1.5v-8.064c0-0.829-0.671-1.5-1.5-1.5
		S142,160.941,142,161.77z"/>
	<path fill="#070707" d="M152.5,160.27c-0.829,0-1.5,0.671-1.5,1.5v8.064c0,0.829,0.671,1.5,1.5,1.5s1.5-0.671,1.5-1.5v-8.064
		C154,160.941,153.329,160.27,152.5,160.27z"/>
	<path fill="#070707" d="M134.561,156.333c0.822,0.125,1.584-0.436,1.71-1.253c0.014-0.087,1.376-8.401,7.722-12.935
		c6.329,4.521,7.701,12.803,7.722,12.934c0.113,0.742,0.752,1.272,1.48,1.272c0.075,0,0.151-0.005,0.228-0.017
		c0.819-0.125,1.135-0.89,1.01-1.709c-0.062-0.411-1.434-9.827-9.434-15.067V131h4.885c0.829,0,1.5-0.671,1.5-1.5
		s-0.671-1.5-1.5-1.5H145v-5.173c0-0.829-0.671-1.5-1.5-1.5s-1.5,0.671-1.5,1.5V128h-3.898c-0.829,0-1.5,0.671-1.5,1.5
		s0.671,1.5,1.5,1.5H142v8.558c-8,5.24-8.878,14.656-8.94,15.067C132.935,155.443,133.743,156.207,134.561,156.333z"/>
	<path fill="#070707" d="M102,262.75v-10.064c0-0.828-0.671-1.5-1.5-1.5s-1.5,0.672-1.5,1.5v10.064c0,0.828,0.671,1.5,1.5,1.5
		S102,263.578,102,262.75z"/>
	<path fill="#070707" d="M114,262.75v-10.064c0-0.828-0.671-1.5-1.5-1.5s-1.5,0.672-1.5,1.5v10.064c0,0.828,0.671,1.5,1.5,1.5
		S114,263.578,114,262.75z"/>
	<path fill="#070707" d="M127,262.75v-10.064c0-0.828-0.671-1.5-1.5-1.5s-1.5,0.672-1.5,1.5v10.064c0,0.828,0.671,1.5,1.5,1.5
		S127,263.578,127,262.75z"/>
	<path fill="#070707" d="M139,262.75v-10.064c0-0.828-0.671-1.5-1.5-1.5s-1.5,0.672-1.5,1.5v10.064c0,0.828,0.671,1.5,1.5,1.5
		S139,263.578,139,262.75z"/>
	<path fill="#070707" d="M152,262.75v-10.064c0-0.828-0.671-1.5-1.5-1.5s-1.5,0.672-1.5,1.5v10.064c0,0.828,0.671,1.5,1.5,1.5
		S152,263.578,152,262.75z"/>
	<path fill="#070707" d="M164,262.75v-10.064c0-0.828-0.671-1.5-1.5-1.5s-1.5,0.672-1.5,1.5v10.064c0,0.828,0.671,1.5,1.5,1.5
		S164,263.578,164,262.75z"/>
	<path fill="#070707" d="M176,262.75v-10.064c0-0.828-0.671-1.5-1.5-1.5s-1.5,0.672-1.5,1.5v10.064c0,0.828,0.671,1.5,1.5,1.5
		S176,263.578,176,262.75z"/>
	<path fill="#070707" d="M189,252.686c0-0.828-0.671-1.5-1.5-1.5s-1.5,0.672-1.5,1.5v10.064c0,0.828,0.671,1.5,1.5,1.5
		s1.5-0.672,1.5-1.5V252.686z"/>
	<path fill="#070707" d="M187.5,295.234c0.829,0,1.5-0.672,1.5-1.5V272H99v21.734c0,0.828,0.671,1.5,1.5,1.5s1.5-0.672,1.5-1.5V275
		h84v18.734C186,294.562,186.671,295.234,187.5,295.234z"/>
	<path fill="#070707" d="M86.5,314.577c-0.829,0-1.5,0.672-1.5,1.5v5.965c0,0.828,0.671,1.5,1.5,1.5s1.5-0.672,1.5-1.5v-5.965
		C88,315.249,87.329,314.577,86.5,314.577z"/>
	<path fill="#070707" d="M80.5,314.577c-0.829,0-1.5,0.672-1.5,1.5v5.965c0,0.828,0.671,1.5,1.5,1.5s1.5-0.672,1.5-1.5v-5.965
		C82,315.249,81.329,314.577,80.5,314.577z"/>
	<path fill="#070707" d="M73.5,314.577c-0.829,0-1.5,0.672-1.5,1.5v5.965c0,0.828,0.671,1.5,1.5,1.5s1.5-0.672,1.5-1.5v-5.965
		C75,315.249,74.329,314.577,73.5,314.577z"/>
	<path fill="#070707" d="M72.381,309.013c-0.125,0.818,0.438,1.584,1.257,1.708c0.077,0.012,0.153,0.018,0.228,0.018
		c0.729,0,1.368-0.531,1.481-1.274c0.009-0.062,0.937-5.84,5.325-9.141c4.361,3.286,5.317,9.083,5.326,9.141
		c0.125,0.82,0.891,1.385,1.709,1.257c0.819-0.124,1.382-0.89,1.257-1.708c-0.049-0.321-1.269-7.898-7.498-11.78l-0.793-0.494
		l-0.793,0.494C73.649,301.114,72.43,308.691,72.381,309.013z"/>
	<rect x="43" y="322" fill="#070707" width="3" height="4"/>
	<rect x="43" y="334" fill="#070707" width="3" height="4"/>
	<rect x="43" y="346" fill="#070707" width="3" height="4"/>
	<rect x="54" y="322" fill="#070707" width="3" height="4"/>
	<rect x="54" y="334" fill="#070707" width="3" height="4"/>
	<rect x="54" y="346" fill="#070707" width="3" height="4"/>
	<path fill="#070707" d="M78,269.609c0-1.095,0-26.493-20-34.509v-6.43c0-2.125-0.933-3.671-2.96-3.671H44.932
		c-2.027,0-3.932,1.546-3.932,3.671v6.43c-20,8.016-20,33.414-20,34.509V272h57V269.609z M24.419,269
		c0.373-6,2.696-25.153,18.724-31.017L44,237.178v-8.507c0-0.463,0.565-0.671,0.932-0.671H55.04c0.366,0-0.04,0.208-0.04,0.671
		v8.507l1.343,0.806C72.34,243.835,75.171,263,75.551,269H24.419z"/>
	<path fill="#070707" d="M55.5,214.659c-0.829,0-1.5,0.671-1.5,1.5v5.012c0,0.829,0.671,1.5,1.5,1.5s1.5-0.671,1.5-1.5v-5.012
		C57,215.33,56.329,214.659,55.5,214.659z"/>
	<path fill="#070707" d="M43.5,222.671c0.829,0,1.5-0.671,1.5-1.5v-5.012c0-0.829-0.671-1.5-1.5-1.5s-1.5,0.671-1.5,1.5v5.012
		C42,222,42.671,222.671,43.5,222.671z"/>
	<path fill="#070707" d="M44.237,212.158c0.823,0.127,1.584-0.438,1.709-1.256c0.008-0.051,0.752-4.684,4.236-7.414
		c3.458,2.717,4.23,7.367,4.237,7.414c0.113,0.742,0.752,1.273,1.481,1.273c0.075,0,0.151-0.006,0.228-0.018
		c0.819-0.125,1.041-0.89,0.916-1.709c-0.04-0.261-1.044-6.148-6.044-9.573V194h3.992c0.829,0,1.5-0.671,1.5-1.5s-0.671-1.5-1.5-1.5
		H51v-3.639c0-0.829-0.671-1.5-1.5-1.5s-1.5,0.671-1.5,1.5V191h-2.627c-0.829,0-1.5,0.671-1.5,1.5s0.671,1.5,1.5,1.5H48v6.876
		c-5,3.425-5.321,9.312-5.361,9.573C42.514,211.269,43.418,212.033,44.237,212.158z"/>
	<path fill="#070707" d="M78,282.463v-6.254c0-0.828-0.671-1.5-1.5-1.5s-1.5,0.672-1.5,1.5v6.254c0,0.828,0.671,1.5,1.5,1.5
		S78,283.291,78,282.463z"/>
	<path fill="#070707" d="M67,276.209v6.254c0,0.828,0.671,1.5,1.5,1.5s1.5-0.672,1.5-1.5v-6.254c0-0.828-0.671-1.5-1.5-1.5
		S67,275.381,67,276.209z"/>
	<path fill="#070707" d="M60,276.209v6.254c0,0.828,0.671,1.5,1.5,1.5s1.5-0.672,1.5-1.5v-6.254c0-0.828-0.671-1.5-1.5-1.5
		S60,275.381,60,276.209z"/>
	<path fill="#070707" d="M52,276.209v6.254c0,0.828,0.671,1.5,1.5,1.5s1.5-0.672,1.5-1.5v-6.254c0-0.828-0.671-1.5-1.5-1.5
		S52,275.381,52,276.209z"/>
	<path fill="#070707" d="M44,276.209v6.254c0,0.828,0.671,1.5,1.5,1.5s1.5-0.672,1.5-1.5v-6.254c0-0.828-0.671-1.5-1.5-1.5
		S44,275.381,44,276.209z"/>
	<path fill="#070707" d="M36,276.209v6.254c0,0.828,0.671,1.5,1.5,1.5s1.5-0.672,1.5-1.5v-6.254c0-0.828-0.671-1.5-1.5-1.5
		S36,275.381,36,276.209z"/>
	<path fill="#070707" d="M29,276.209v6.254c0,0.828,0.671,1.5,1.5,1.5s1.5-0.672,1.5-1.5v-6.254c0-0.828-0.671-1.5-1.5-1.5
		S29,275.381,29,276.209z"/>
	<path fill="#070707" d="M22.5,283.963c0.829,0,1.5-0.672,1.5-1.5v-6.254c0-0.828-0.671-1.5-1.5-1.5s-1.5,0.672-1.5,1.5v6.254
		C21,283.291,21.671,283.963,22.5,283.963z"/>
	<path fill="#070707" d="M692.428,154.807c0-4.713-3.835-8.548-8.548-8.548s-8.548,3.835-8.548,8.548s3.835,8.548,8.548,8.548
		S692.428,159.521,692.428,154.807z M678.332,154.807c0-3.06,2.488-5.548,5.548-5.548s5.548,2.489,5.548,5.548
		s-2.488,5.548-5.548,5.548S678.332,157.867,678.332,154.807z"/>
	<path fill="#070707" d="M667.675,201.623c0,8.936,7.27,16.205,16.205,16.205s16.205-7.27,16.205-16.205s-7.27-16.205-16.205-16.205
		S667.675,192.688,667.675,201.623z M683.88,188.418c7.281,0,13.205,5.924,13.205,13.205s-5.924,13.205-13.205,13.205
		s-13.205-5.924-13.205-13.205S676.599,188.418,683.88,188.418z"/>
	<path fill="#070707" d="M678.738,196.482c2.836-2.834,7.447-2.834,10.283,0c0.293,0.293,0.677,0.439,1.061,0.439
		s0.768-0.146,1.061-0.439c0.586-0.586,0.586-1.536,0-2.121c-4.004-4.005-10.521-4.005-14.525,0c-0.586,0.585-0.586,1.535,0,2.121
		S678.152,197.068,678.738,196.482z"/>
	<path fill="#070707" d="M683.5,261.911c-8.489,0-15.5,6.906-15.5,15.396v23.695c0,0.828,0.672,1.5,1.5,1.5s1.5-0.672,1.5-1.5
		v-23.695c0-6.835,5.665-12.396,12.5-12.396s12.5,5.561,12.5,12.396v23.695c0,0.828,0.672,1.5,1.5,1.5s1.5-0.672,1.5-1.5v-23.695
		C699,268.817,691.989,261.911,683.5,261.911z"/>
	<path fill="#070707" d="M705.909,249h-44.058c-0.828,0-1.5,0.672-1.5,1.5s0.672,1.5,1.5,1.5h44.058c0.828,0,1.5-0.672,1.5-1.5
		S706.737,249,705.909,249z"/>
	<path fill="#070707" d="M705.909,229h-44.058c-0.828,0-1.5,0.672-1.5,1.5s0.672,1.5,1.5,1.5h44.058c0.828,0,1.5-0.672,1.5-1.5
		S706.737,229,705.909,229z"/>
	<path fill="#070707" d="M661.5,244.468c0.828,0,1.5-0.672,1.5-1.5v-6.405c0-0.828-0.672-1.5-1.5-1.5s-1.5,0.672-1.5,1.5v6.405
		C660,243.796,660.672,244.468,661.5,244.468z"/>
	<path fill="#070707" d="M672,242.968v-6.405c0-0.828-0.672-1.5-1.5-1.5s-1.5,0.672-1.5,1.5v6.405c0,0.828,0.672,1.5,1.5,1.5
		S672,243.796,672,242.968z"/>
	<path fill="#070707" d="M680,242.968v-6.405c0-0.828-0.672-1.5-1.5-1.5s-1.5,0.672-1.5,1.5v6.405c0,0.828,0.672,1.5,1.5,1.5
		S680,243.796,680,242.968z"/>
	<path fill="#070707" d="M689,242.968v-6.405c0-0.828-0.672-1.5-1.5-1.5s-1.5,0.672-1.5,1.5v6.405c0,0.828,0.672,1.5,1.5,1.5
		S689,243.796,689,242.968z"/>
	<path fill="#070707" d="M515.854,262h-5.6c-0.828,0-1.5,0.672-1.5,1.5s0.672,1.5,1.5,1.5h5.6c0.828,0,1.5-0.672,1.5-1.5
		S516.682,262,515.854,262z"/>
	<path fill="#070707" d="M515.854,274h-5.6c-0.828,0-1.5,0.672-1.5,1.5s0.672,1.5,1.5,1.5h5.6c0.828,0,1.5-0.672,1.5-1.5
		S516.682,274,515.854,274z"/>
	<path fill="#070707" d="M515.854,286h-5.6c-0.828,0-1.5,0.672-1.5,1.5s0.672,1.5,1.5,1.5h5.6c0.828,0,1.5-0.672,1.5-1.5
		S516.682,286,515.854,286z"/>
	<path fill="#070707" d="M313.49,265h5.6c0.829,0,1.5-0.672,1.5-1.5s-0.671-1.5-1.5-1.5h-5.6c-0.829,0-1.5,0.672-1.5,1.5
		S312.662,265,313.49,265z"/>
	<path fill="#070707" d="M313.49,277h5.6c0.829,0,1.5-0.672,1.5-1.5s-0.671-1.5-1.5-1.5h-5.6c-0.829,0-1.5,0.672-1.5,1.5
		S312.662,277,313.49,277z"/>
	<path fill="#070707" d="M313.49,289h5.6c0.829,0,1.5-0.672,1.5-1.5s-0.671-1.5-1.5-1.5h-5.6c-0.829,0-1.5,0.672-1.5,1.5
		S312.662,289,313.49,289z"/>
	<path fill="#070707" d="M313.49,301h5.6c0.829,0,1.5-0.672,1.5-1.5s-0.671-1.5-1.5-1.5h-5.6c-0.829,0-1.5,0.672-1.5,1.5
		S312.662,301,313.49,301z"/>
	<path fill="#070707" d="M313.49,313h5.6c0.829,0,1.5-0.672,1.5-1.5s-0.671-1.5-1.5-1.5h-5.6c-0.829,0-1.5,0.672-1.5,1.5
		S312.662,313,313.49,313z"/>
	<path fill="#070707" d="M319.091,322h-5.6c-0.829,0-1.5,0.672-1.5,1.5s0.671,1.5,1.5,1.5h5.6c0.829,0,1.5-0.672,1.5-1.5
		S319.919,322,319.091,322z"/>
	<path fill="#070707" d="M319.091,334h-5.6c-0.829,0-1.5,0.672-1.5,1.5s0.671,1.5,1.5,1.5h5.6c0.829,0,1.5-0.672,1.5-1.5
		S319.919,334,319.091,334z"/>
	<path fill="#070707" d="M320.59,347.5c0-0.828-0.671-1.5-1.5-1.5h-5.6c-0.829,0-1.5,0.672-1.5,1.5s0.671,1.5,1.5,1.5h5.6
		C319.919,349,320.59,348.328,320.59,347.5z"/>
	<path fill="#070707" d="M698,242.968v-6.405c0-0.828-0.672-1.5-1.5-1.5s-1.5,0.672-1.5,1.5v6.405c0,0.828,0.672,1.5,1.5,1.5
		S698,243.796,698,242.968z"/>
	<path fill="#070707" d="M705.5,235.062c-0.828,0-1.5,0.672-1.5,1.5v6.405c0,0.828,0.672,1.5,1.5,1.5s1.5-0.672,1.5-1.5v-6.405
		C707,235.734,706.328,235.062,705.5,235.062z"/>
	<path fill="#070707" d="M799.293,256.401c0.069,0.01,0.138,0.014,0.205,0.014c0.738,0,1.382-0.545,1.484-1.297l5.023-36.759
		l5.021,36.759c0.103,0.752,0.746,1.297,1.484,1.297c0.067,0,0.136-0.005,0.205-0.014c0.82-0.112,1.396-0.868,1.283-1.689
		l-6.508-47.638c-0.004-0.029-0.015-0.057-0.021-0.086c-0.011-0.053-0.021-0.105-0.037-0.155c-0.016-0.048-0.034-0.093-0.053-0.139
		c-0.019-0.042-0.036-0.083-0.058-0.124c-0.025-0.048-0.055-0.094-0.086-0.139c-0.022-0.033-0.046-0.066-0.071-0.098
		c-0.035-0.043-0.074-0.084-0.114-0.123c-0.028-0.028-0.057-0.055-0.088-0.081c-0.042-0.036-0.087-0.067-0.134-0.099
		c-0.034-0.022-0.068-0.045-0.104-0.064c-0.049-0.027-0.1-0.05-0.151-0.07c-0.038-0.017-0.077-0.032-0.117-0.045
		c-0.054-0.018-0.109-0.029-0.166-0.04c-0.028-0.005-0.054-0.017-0.083-0.021c-0.016-0.002-0.031,0-0.047-0.001
		c-0.053-0.005-0.105-0.006-0.159-0.005c-0.051,0-0.102,0-0.151,0.005c-0.017,0.001-0.032-0.001-0.049,0.001
		c-0.03,0.004-0.057,0.016-0.086,0.021c-0.056,0.011-0.109,0.021-0.162,0.039c-0.041,0.013-0.08,0.029-0.12,0.045
		c-0.051,0.021-0.102,0.043-0.149,0.07c-0.036,0.02-0.07,0.041-0.104,0.064c-0.048,0.031-0.094,0.063-0.137,0.1
		c-0.029,0.025-0.057,0.051-0.084,0.078c-0.042,0.041-0.081,0.082-0.118,0.127c-0.024,0.03-0.046,0.062-0.068,0.094
		c-0.031,0.046-0.062,0.093-0.088,0.143c-0.021,0.039-0.038,0.08-0.056,0.121c-0.02,0.045-0.038,0.092-0.054,0.14
		c-0.016,0.051-0.026,0.103-0.037,0.154c-0.006,0.03-0.017,0.058-0.021,0.087l-6.51,47.638
		C797.897,255.533,798.473,256.289,799.293,256.401z"/>
	<path fill="#070707" d="M832,202.283c0-1.272,1.083-2.308,2.356-2.308c2.927,0,5.331-2.097,5.331-5.024
		c0-1.784,1.476-2.952,3.26-2.952h15.771c1.784,0,3.236,1.167,3.236,2.952c0,2.927,2.096,5.166,5.022,5.166
		c1.272,0,2.022,0.893,2.022,2.166V255h3v-52.717c0-2.927-2.096-5.308-5.022-5.308c-1.272,0-2.165-0.751-2.165-2.024
		c0-3.438-2.655-5.952-6.094-5.952h-15.771c-3.438,0-6.235,2.513-6.235,5.952c0,1.272-1.083,2.166-2.355,2.166
		c-2.927,0-5.356,2.239-5.356,5.166V255h3V202.283z"/>
	<path fill="#070707" d="M742,202.283c0-1.272,1.471-2.308,2.744-2.308c2.927,0,5.525-2.097,5.525-5.024
		c0-1.784,1.669-2.952,3.453-2.952h15.771c1.784,0,3.236,1.167,3.236,2.952c0,2.927,2.208,5.166,5.134,5.166
		c1.273,0,2.136,0.893,2.136,2.166V255h3v-52.717c0-2.927-2.209-5.308-5.136-5.308c-1.271,0-2.22-0.751-2.22-2.024
		c0-3.438-2.712-5.952-6.15-5.952h-15.771c-3.438,0-6.235,2.513-6.235,5.952c0,1.272-1.471,2.166-2.743,2.166
		c-2.927,0-5.744,2.239-5.744,5.166V255h3V202.283z"/>
	<path fill="#070707" d="M772,255v-42.933c0-3.468-2.478-6.29-5.945-6.29c-1.918,0-3.464,0.865-4.618,2.223
		c-1.154-1.357-3.05-2.223-4.968-2.223c-3.469,0-6.469,2.822-6.469,6.29V255h3v-42.933c0-1.813,1.686-3.29,3.5-3.29
		s3.5,1.477,3.5,3.29v15.34c0,0.829,0.672,1.5,1.5,1.5s1.5-0.671,1.5-1.5v-15.34c0-1.813,1.186-3.29,3-3.29s3,1.477,3,3.29V255H772z
		"/>
	<path fill="#070707" d="M861,255v-42.933c0-3.468-2.365-6.29-5.833-6.29c-1.918,0-3.407,0.865-4.562,2.223
		c-1.154-1.357-3.135-2.223-5.053-2.223c-3.469,0-6.553,2.822-6.553,6.29V255h3v-42.933c0-1.813,1.686-3.29,3.5-3.29
		s3.5,1.477,3.5,3.29v15.34c0,0.829,0.672,1.5,1.5,1.5s1.5-0.671,1.5-1.5v-15.34c0-1.813,1.187-3.29,3-3.29s3,1.477,3,3.29V255H861z
		"/>
	<path fill="#070707" d="M861,279.313c0-3.469-2.365-6.29-5.833-6.29c-1.918,0-3.407,0.865-4.562,2.223
		c-1.154-1.357-3.135-2.223-5.053-2.223c-3.469,0-6.553,2.821-6.553,6.29V306h3v-26.687c0-1.814,1.686-3.29,3.5-3.29
		s3.5,1.476,3.5,3.29v15.339c0,0.828,0.672,1.5,1.5,1.5s1.5-0.672,1.5-1.5v-15.339c0-1.814,1.187-3.29,3-3.29s3,1.476,3,3.29V306h3
		V279.313z"/>
	<path fill="#070707" d="M772,306v-26.687c0-3.469-2.478-6.29-5.945-6.29c-1.918,0-3.464,0.865-4.618,2.223
		c-1.154-1.357-3.05-2.223-4.968-2.223c-3.469,0-6.469,2.821-6.469,6.29V306h3v-26.687c0-1.814,1.686-3.29,3.5-3.29
		s3.5,1.476,3.5,3.29v15.339c0,0.828,0.672,1.5,1.5,1.5s1.5-0.672,1.5-1.5v-15.339c0-1.814,1.186-3.29,3-3.29s3,1.476,3,3.29V306
		H772z"/>
	<path fill="#070707" d="M824.705,291.724c0-10.312-8.389-18.7-18.699-18.7c-10.312,0-18.7,8.389-18.7,18.7s8.389,18.7,18.7,18.7
		C816.316,310.424,824.705,302.035,824.705,291.724z M806.006,307.424c-8.657,0-15.7-7.043-15.7-15.7s7.043-15.7,15.7-15.7
		c8.656,0,15.699,7.043,15.699,15.7S814.662,307.424,806.006,307.424z"/>
	<path fill="#070707" d="M739,319.873v7.33c0,0.828,0.672,1.5,1.5,1.5s1.5-0.672,1.5-1.5v-7.33c0-0.828-0.672-1.5-1.5-1.5
		S739,319.045,739,319.873z"/>
	<path fill="#070707" d="M752.5,318.373c-0.828,0-1.5,0.672-1.5,1.5v7.33c0,0.828,0.672,1.5,1.5,1.5s1.5-0.672,1.5-1.5v-7.33
		C754,319.045,753.328,318.373,752.5,318.373z"/>
	<path fill="#070707" d="M764.5,318.373c-0.828,0-1.5,0.672-1.5,1.5v7.33c0,0.828,0.672,1.5,1.5,1.5s1.5-0.672,1.5-1.5v-7.33
		C766,319.045,765.328,318.373,764.5,318.373z"/>
	<path fill="#070707" d="M775,319.873v7.33c0,0.828,0.672,1.5,1.5,1.5s1.5-0.672,1.5-1.5v-7.33c0-0.828-0.672-1.5-1.5-1.5
		S775,319.045,775,319.873z"/>
	<path fill="#070707" d="M787,319.873v7.33c0,0.828,0.672,1.5,1.5,1.5s1.5-0.672,1.5-1.5v-7.33c0-0.828-0.672-1.5-1.5-1.5
		S787,319.045,787,319.873z"/>
	<path fill="#070707" d="M798,319.873v7.33c0,0.828,0.672,1.5,1.5,1.5s1.5-0.672,1.5-1.5v-7.33c0-0.828-0.672-1.5-1.5-1.5
		S798,319.045,798,319.873z"/>
	<path fill="#070707" d="M810,319.873v7.33c0,0.828,0.672,1.5,1.5,1.5s1.5-0.672,1.5-1.5v-7.33c0-0.828-0.672-1.5-1.5-1.5
		S810,319.045,810,319.873z"/>
	<path fill="#070707" d="M823.5,328.703c0.828,0,1.5-0.672,1.5-1.5v-7.33c0-0.828-0.672-1.5-1.5-1.5s-1.5,0.672-1.5,1.5v7.33
		C822,328.031,822.672,328.703,823.5,328.703z"/>
	<path fill="#070707" d="M834,319.873v7.33c0,0.828,0.672,1.5,1.5,1.5s1.5-0.672,1.5-1.5v-7.33c0-0.828-0.672-1.5-1.5-1.5
		S834,319.045,834,319.873z"/>
	<path fill="#070707" d="M845,319.873v7.33c0,0.828,0.672,1.5,1.5,1.5s1.5-0.672,1.5-1.5v-7.33c0-0.828-0.672-1.5-1.5-1.5
		S845,319.045,845,319.873z"/>
	<path fill="#070707" d="M857,319.873v7.33c0,0.828,0.672,1.5,1.5,1.5s1.5-0.672,1.5-1.5v-7.33c0-0.828-0.672-1.5-1.5-1.5
		S857,319.045,857,319.873z"/>
	<path fill="#070707" d="M870.5,318.373c-0.828,0-1.5,0.672-1.5,1.5v7.33c0,0.828,0.672,1.5,1.5,1.5s1.5-0.672,1.5-1.5v-7.33
		C872,319.045,871.328,318.373,870.5,318.373z"/>
	<rect x="676" y="339" fill="#070707" width="4" height="5"/>
	<rect x="686" y="339" fill="#070707" width="5" height="5"/>
	<rect x="676" y="349" fill="#070707" width="4" height="4"/>
	<rect x="686" y="349" fill="#070707" width="5" height="4"/>
	<rect x="686" y="358" fill="#070707" width="5" height="5"/>
	<rect x="676" y="329" fill="#070707" width="4" height="5"/>
	<rect x="686" y="329" fill="#070707" width="5" height="5"/>
	<rect x="547" y="307" fill="#070707" width="5" height="4"/>
	<rect x="537" y="307" fill="#070707" width="5" height="4"/>
	<rect x="537" y="317" fill="#070707" width="5" height="4"/>
	<rect x="537" y="326" fill="#070707" width="5" height="5"/>
	<rect x="547" y="297" fill="#070707" width="5" height="5"/>
	<rect x="537" y="297" fill="#070707" width="5" height="5"/>
	<rect x="274" y="314" fill="#070707" width="5" height="5"/>
	<rect x="286" y="314" fill="#070707" width="5" height="5"/>
	<rect x="274" y="325" fill="#070707" width="5" height="6"/>
	<rect x="286" y="325" fill="#070707" width="5" height="6"/>
	<rect x="274" y="302" fill="#070707" width="5" height="6"/>
	<rect x="286" y="302" fill="#070707" width="5" height="6"/>
	<rect x="274" y="337" fill="#070707" width="5" height="5"/>
	<rect x="286" y="337" fill="#070707" width="5" height="5"/>
	<rect x="274" y="348" fill="#070707" width="5" height="6"/>
	<rect x="286" y="348" fill="#070707" width="5" height="6"/>
	<path fill="#070707" d="M713,251.312c0,7.953,6.569,14.688,14.522,14.688H869v39.592c0,0.828,0.672,1.5,1.5,1.5s1.5-0.672,1.5-1.5
		V266h4.68c0.828,0,1.5-0.672,1.5-1.5s-0.672-1.5-1.5-1.5h-5.609H727.522c-6.299,0-11.522-5.389-11.522-11.688v-98.35
		c0-0.029,0.043-0.057,0.041-0.086c-0.004-0.068,0.018-0.136,0.004-0.204c-0.01-0.054-0.017-0.104-0.033-0.156
		c-0.013-0.042-0.015-0.083-0.031-0.124c-0.032-0.078-0.07-0.151-0.114-0.222c-0.008-0.013-0.012-0.026-0.02-0.038l-0.002-0.004
		c-0.002-0.002-0.002-0.005-0.004-0.007l-7.607-11.454l-6.366,9.585L683.88,123.17l-17.987,27.082l-6.695-9.585L651,152.51v148.492
		c0,0.828,0.672,1.5,1.5,1.5s1.5-0.672,1.5-1.5V153.416l5.001-7.327l4.999,7.327v20.565c0,0.829,0.672,1.5,1.5,1.5
		s1.5-0.671,1.5-1.5v-20.566l16.5-24.823l16.5,24.823v20.566c0,0.829,0.672,1.5,1.5,1.5s1.5-0.671,1.5-1.5v-20.566l5-7.326l5,7.326
		V251.312z"/>
	<path fill="#070707" d="M634,260.312c0-2.791-1.959-5.062-4.75-5.062c-1.812-9.923-13.826-79.328-13.854-152.81l2.693-9.733
		c0.216-0.8-0.22-1.623-1.02-1.838c-0.801-0.211-1.604,0.417-1.818,1.216L612.916,101h-6.339l-2.355-8.915
		c-0.215-0.8-1.034-1.349-1.838-1.138c-0.8,0.215-1.274,0.999-1.059,1.799l2.601,9.655c-0.021,73.504-12.625,142.933-14.438,152.857
		c-2.79,0.001-5.488,2.263-5.488,5.053V268h50V260.312z M617.246,256l-3.294-25.52c-0.285-2.178-2.019-3.886-4.214-3.886
		s-3.929,1.802-4.214,3.979L602.23,256h-9.265c2.117-12,13.796-80,13.957-152h5.632c0.161,72,11.839,140,13.956,152H617.246z
		 M614.221,256h-8.965l3.243-25.131c0.132-1.008,0.982-1.274,1.239-1.274s1.107,0.36,1.239,1.368L614.221,256z M631,265h-44v-4.688
		c0-1.138,1.78-1.312,2.918-1.312h39.642c1.138,0,1.44,0.175,1.44,1.312V265z"/>
	<path fill="#070707" d="M585.5,278.648c0.828,0,1.5-0.672,1.5-1.5v-4.533c0-0.828-0.672-1.5-1.5-1.5s-1.5,0.672-1.5,1.5v4.533
		C584,277.977,584.672,278.648,585.5,278.648z"/>
	<path fill="#070707" d="M599,277.148v-4.533c0-0.828-0.672-1.5-1.5-1.5s-1.5,0.672-1.5,1.5v4.533c0,0.828,0.672,1.5,1.5,1.5
		S599,277.977,599,277.148z"/>
	<path fill="#070707" d="M611,277.148v-4.533c0-0.828-0.672-1.5-1.5-1.5s-1.5,0.672-1.5,1.5v4.533c0,0.828,0.672,1.5,1.5,1.5
		S611,277.977,611,277.148z"/>
	<path fill="#070707" d="M622,277.148v-4.533c0-0.828-0.672-1.5-1.5-1.5s-1.5,0.672-1.5,1.5v4.533c0,0.828,0.672,1.5,1.5,1.5
		S622,277.977,622,277.148z"/>
	<path fill="#070707" d="M634,277.148v-4.533c0-0.828-0.672-1.5-1.5-1.5s-1.5,0.672-1.5,1.5v4.533c0,0.828,0.672,1.5,1.5,1.5
		S634,277.977,634,277.148z"/>
	<path fill="#070707" d="M562.5,330.486c-0.828,0-1.5,0.672-1.5,1.5v4.533c0,0.828,0.672,1.5,1.5,1.5s1.5-0.672,1.5-1.5v-4.533
		C564,331.158,563.328,330.486,562.5,330.486z"/>
	<path fill="#070707" d="M573,331.986v4.533c0,0.828,0.672,1.5,1.5,1.5s1.5-0.672,1.5-1.5v-4.533c0-0.828-0.672-1.5-1.5-1.5
		S573,331.158,573,331.986z"/>
	<path fill="#070707" d="M584,331.986v4.533c0,0.828,0.672,1.5,1.5,1.5s1.5-0.672,1.5-1.5v-4.533c0-0.828-0.672-1.5-1.5-1.5
		S584,331.158,584,331.986z"/>
	<path fill="#070707" d="M596,331.986v4.533c0,0.828,0.672,1.5,1.5,1.5s1.5-0.672,1.5-1.5v-4.533c0-0.828-0.672-1.5-1.5-1.5
		S596,331.158,596,331.986z"/>
	<path fill="#070707" d="M608,331.986v4.533c0,0.828,0.672,1.5,1.5,1.5s1.5-0.672,1.5-1.5v-4.533c0-0.828-0.672-1.5-1.5-1.5
		S608,331.158,608,331.986z"/>
	<path fill="#070707" d="M619,331.986v4.533c0,0.828,0.672,1.5,1.5,1.5s1.5-0.672,1.5-1.5v-4.533c0-0.828-0.672-1.5-1.5-1.5
		S619,331.158,619,331.986z"/>
	<path fill="#070707" d="M631,331.986v4.533c0,0.828,0.672,1.5,1.5,1.5s1.5-0.672,1.5-1.5v-4.533c0-0.828-0.672-1.5-1.5-1.5
		S631,331.158,631,331.986z"/>
	<path fill="#070707" d="M643,331.986v4.533c0,0.828,0.672,1.5,1.5,1.5s1.5-0.672,1.5-1.5v-4.533c0-0.828-0.672-1.5-1.5-1.5
		S643,331.158,643,331.986z"/>
	<path fill="#070707" d="M655,331.986v4.533c0,0.828,0.672,1.5,1.5,1.5s1.5-0.672,1.5-1.5v-4.533c0-0.828-0.672-1.5-1.5-1.5
		S655,331.158,655,331.986z"/>
	<path fill="#070707" d="M603.779,87.267l5.967-5.393l5.968,5.393c0.287,0.259,0.646,0.387,1.006,0.387
		c0.409,0,0.816-0.167,1.113-0.494c0.555-0.615,0.384-1.563-0.23-2.119L611,79.186V63.6c0-0.829-0.672-1.5-1.5-1.5
		s-1.5,0.671-1.5,1.5v15.586l-6.355,5.855c-0.614,0.556-0.601,1.504-0.046,2.119C602.156,87.776,603.166,87.822,603.779,87.267z"/>
	<path fill="#070707" d="M655.355,324h-8.089c-9.623-22-12.636-39.698-12.666-39.871c-0.001-0.008-0.005-0.23-0.006-0.238
		c-0.011-0.061-0.03-0.224-0.048-0.281c-0.012-0.039-0.021-0.134-0.036-0.171c-0.02-0.049-0.046-0.12-0.071-0.166
		c-0.021-0.041-0.04-0.097-0.065-0.135c-0.025-0.039-0.058-0.081-0.087-0.118c-0.031-0.038-0.06-0.082-0.094-0.117
		s-0.074-0.065-0.112-0.098c-0.035-0.029-0.067-0.062-0.105-0.088c-0.044-0.031-0.093-0.056-0.141-0.081
		c-0.036-0.021-0.071-0.043-0.109-0.06c-0.049-0.021-0.101-0.036-0.152-0.052c-0.042-0.014-0.082-0.03-0.126-0.039
		c-0.048-0.011-0.099-0.015-0.149-0.021c-0.049-0.006-0.098,0.263-0.148,0.262c-0.009,0-0.018,0.273-0.027,0.273h-23.384h-23.383
		c-0.01,0-0.019-0.273-0.027-0.273c-0.047,0.001-0.093-0.129-0.139-0.125c-0.055,0.006-0.109-0.059-0.162-0.047
		c-0.032,0.008-0.062-0.015-0.093-0.006c-0.064,0.019-0.128,0.021-0.188,0.048c-0.02,0.009-0.037,0.012-0.057,0.021
		c-0.067,0.033-0.134,0.063-0.195,0.107c-0.017,0.012-0.031,0.024-0.048,0.037c-0.059,0.045-0.116,0.091-0.168,0.145
		c-0.021,0.021-0.037,0.046-0.057,0.067c-0.043,0.051-0.086,0.1-0.122,0.154c-0.02,0.03-0.034,0.063-0.052,0.095
		c-0.029,0.054-0.06,0.106-0.083,0.164c-0.014,0.034-0.022,0.071-0.033,0.107c-0.019,0.06-0.038,0.117-0.05,0.179
		c-0.001,0.008-0.005,0.447-0.006,0.455c-0.03,0.173-3.032,17.871-12.666,39.871h-8.09c-0.828,0-1.5,0.672-1.5,1.5
		s0.672,1.5,1.5,1.5h91.234c0.828,0,1.5-0.672,1.5-1.5S656.184,324,655.355,324z M587.596,286h22.143h22.143
		c0.86,4,4.196,19,12.115,38h-16.088c-2.058-7-3.93-13.649-5.559-20.047c-1.469-5.768-6.655-10.012-12.611-10.012
		s-11.142,4.353-12.609,10.12c-1.633,6.408-3.505,12.938-5.561,19.938h-16.087C583.399,305,586.736,290,587.596,286z
		 M609.738,296.725c4.584,0,8.574,3.531,9.704,7.969c1.568,6.161,3.364,12.307,5.33,19.307h-30.067
		c1.963-7,3.759-13.137,5.331-19.307C601.165,300.256,605.155,296.725,609.738,296.725z"/>
	<path fill="#070707" d="M658.029,346.729c-0.014-0.028-0.033-0.052-0.049-0.078c-0.026-0.048-0.054-0.094-0.085-0.138
		c-0.029-0.041-0.062-0.078-0.096-0.115c-0.03-0.034-0.06-0.068-0.093-0.1c-0.039-0.036-0.079-0.067-0.121-0.1
		c-0.035-0.026-0.07-0.054-0.108-0.077c-0.043-0.027-0.088-0.05-0.134-0.072c-0.041-0.021-0.082-0.041-0.126-0.058
		c-0.047-0.018-0.095-0.031-0.144-0.044c-0.045-0.013-0.09-0.024-0.136-0.033c-0.054-0.009-0.108,0.043-0.163,0.04
		c-0.031-0.002-0.061,0.046-0.093,0.046h-93.888c-0.029,0-0.057-0.049-0.086-0.047c-0.058,0.003-0.115-0.021-0.172-0.01
		c-0.045,0.006-0.087,0.004-0.129,0.016c-0.051,0.014-0.101,0.021-0.149,0.04c-0.043,0.016-0.083,0.032-0.124,0.053
		c-0.046,0.022-0.092,0.044-0.135,0.071c-0.038,0.024-0.073,0.049-0.108,0.076c-0.041,0.031-0.082,0.062-0.12,0.099
		c-0.034,0.031-0.064,0.065-0.095,0.1c-0.032,0.037-0.065,0.075-0.095,0.116c-0.031,0.043-0.058,0.089-0.085,0.136
		c-0.016,0.027-0.035,0.051-0.049,0.079c-9.385,19.153-19.437,36.297-29.879,50.836L529.864,400h21.69
		c4.737,0,9.062-2.628,11.288-6.762c1.79-3.328,3.529-6.771,5.213-10.07l1.906-3.746c4.571-8.945,10.261-20.084,39.776-20.084
		c29.515,0,35.204,11.127,39.776,20.07l1.947,3.81c1.67,3.273,3.397,6.719,5.173,10.021c2.225,4.134,6.549,6.761,11.287,6.761
		h21.691l-1.705-2.436C677.466,383.025,667.414,365.882,658.029,346.729z M667.922,397c-3.632,0-6.944-2.023-8.645-5.184
		c-1.761-3.272-3.48-6.674-5.143-9.934l-1.949-3.828c-4.683-9.162-11.097-21.717-42.447-21.717
		c-31.352,0-37.765,12.545-42.447,21.707l-1.908,3.732c-1.676,3.285-3.408,6.742-5.182,10.04c-1.701,3.16-5.015,5.183-8.646,5.183
		h-15.861c9.779-14,19.197-30,28.028-48h92.034c8.831,18,18.249,34,28.028,48H667.922z"/>
	<path fill="#070707" d="M501.557,377H490v-53h8.707c0.828,0,1.293-1.13,1.293-1.958V307.46c0-0.001,0-0.002,0-0.003l0,0
		c0-0.002,0-0.003,0-0.005c0-0.098,0.094-0.193,0.074-0.288c-0.01-0.053,0.021-0.103,0.006-0.154
		c-0.013-0.041,0.004-0.083-0.012-0.123c-0.021-0.051-0.037-0.098-0.063-0.146c-0.021-0.037-0.031-0.075-0.055-0.111
		c-0.027-0.042-0.058-0.078-0.09-0.117c-0.029-0.036-0.055-0.075-0.088-0.108c-0.04-0.04-0.085-0.074-0.13-0.11
		c-0.03-0.024-0.057-0.053-0.09-0.075c-0.084-0.057-0.174-0.106-0.27-0.146l-84.612-35.861l-84.615,35.861
		c-0.094,0.039-0.183,0.088-0.266,0.146c-0.038,0.025-0.069,0.057-0.104,0.086c-0.04,0.032-0.082,0.062-0.118,0.1
		c-0.036,0.035-0.064,0.076-0.096,0.116c-0.03,0.036-0.062,0.07-0.087,0.109c-0.025,0.038-0.043,0.08-0.065,0.12
		c-0.024,0.045-0.051,0.088-0.071,0.136c-0.018,0.045-0.029,0.093-0.043,0.139s-0.099,0.091-0.109,0.14
		c-0.019,0.097-0.097,0.196-0.097,0.296v14.582c0,0.828,0.806,1.958,1.635,1.958H339v53h-11.214
		c-7.857,0-14.786,5.904-14.786,13.762v7.631c0,0.828,1.207,1.607,2.036,1.607h199.271c0.828,0,0.693-0.779,0.693-1.607v-7.631
		C515,382.904,509.414,377,501.557,377z M487,377h-11v-53h11V377z M445,377v-53h28v53H445z M431,377v-53h11v53H431z M400,377v-53h28
		v53H400z M386,377v-53h11v53H386z M356,377v-53h27v53H356z M332,308.45l82.5-34.98l82.5,34.98V321H332V308.45z M342,324h11v53h-11
		V324z M512,397H316v-6.238c0-6.203,5.583-10.762,11.786-10.762h173.771c6.203,0,10.443,4.559,10.443,10.762V397z"/>
	<path fill="#070707" d="M394.799,295.36c0.195,0,0.394-0.038,0.585-0.119l19.288-8.175l19.287,8.175
		c0.763,0.325,1.643-0.032,1.966-0.796c0.324-0.763-0.033-1.643-0.795-1.966l-20.458-8.671l-20.458,8.671
		c-0.763,0.323-1.119,1.203-0.795,1.966C393.66,295.018,394.215,295.36,394.799,295.36z"/>
	<rect x="397" y="306" fill="#070707" width="3" height="3"/>
	<rect x="407" y="306" fill="#070707" width="3" height="4"/>
	<rect x="418" y="306" fill="#070707" width="3" height="4"/>
	<rect x="429" y="306" fill="#070707" width="3" height="4"/>
	<path fill="#070707" d="M430.795,388h-32.248c-0.829,0-1.5,0.672-1.5,1.5s0.671,1.5,1.5,1.5h32.248c0.829,0,1.5-0.672,1.5-1.5
		S431.624,388,430.795,388z"/>
	<path fill="#070707" d="M864.914,338H747.588c-8.896,0-16.588,6.756-16.588,15.651V397h-15v-91.408c0-0.828-0.672-1.5-1.5-1.5
		s-1.5,0.672-1.5,1.5v91.444c0,0.265,0.124,0.509,0.244,0.725c-0.12,0.216-0.17,0.468-0.17,0.731c0,0.828,0.697,1.508,1.525,1.508
		H881v-46.349C881,344.756,873.81,338,864.914,338z M771,397h-24v-21.513c0-5.028,2.173-9.729,5.944-13.595
		c1.751-1.794,3.923-3.385,6.287-4.736c2.364,1.352,4.35,2.942,6.101,4.736c3.771,3.864,5.668,8.565,5.668,13.595V397z M821,397h-31
		v-31.629c0-8.668,6.832-15.721,15.5-15.721s15.5,7.053,15.5,15.721V397z M865,397h-24v-21.513c0-5.028,2.072-9.729,5.844-13.595
		c1.753-1.796,3.875-3.386,6.238-4.736c2.363,1.351,4.424,2.941,6.175,4.736c3.771,3.864,5.743,8.565,5.743,13.595V397z M878,397
		h-10v-21.513c0-5.828-2.247-11.254-6.577-15.69c-2.137-2.19-4.685-4.101-7.611-5.676c-0.443-0.24-0.968-0.239-1.411-0.001
		c-2.928,1.576-5.569,3.485-7.708,5.677c-4.33,4.438-6.692,9.863-6.692,15.69V397h-14v-31.629c0-10.322-8.178-18.721-18.5-18.721
		s-18.5,8.398-18.5,18.721V397h-13v-21.513c0-5.828-2.146-11.254-6.477-15.69c-2.136-2.189-4.633-4.1-7.562-5.676
		c-0.443-0.24-0.942-0.24-1.386,0c-2.929,1.576-5.659,3.486-7.795,5.676c-4.33,4.438-6.78,9.863-6.78,15.69V397h-10v-43.349
		c0-7.241,6.347-12.651,13.588-12.651h117.326c7.241,0,13.086,5.41,13.086,12.651V397z"/>
</g>
</svg>
