<?xml version="1.0" encoding="utf-8"?>
<!-- Generator: Adobe Illustrator 15.0.0, SVG Export Plug-In . SVG Version: 6.00 Build 0)  -->
<!DOCTYPE svg PUBLIC "-//W3C//DTD SVG 1.1//EN" "http://www.w3.org/Graphics/SVG/1.1/DTD/svg11.dtd">
<svg version="1.1" id="Layer_1" xmlns="http://www.w3.org/2000/svg" xmlns:xlink="http://www.w3.org/1999/xlink" x="0px" y="0px"
	 width="195px" height="110px" viewBox="0 0 195 110" enable-background="new 0 0 195 110" xml:space="preserve">
<linearGradient id="SVGID_1_" gradientUnits="userSpaceOnUse" x1="81.9521" y1="17.0176" x2="182.1466" y2="65.8857" gradientTransform="matrix(1 0 0 1 8 9)">
	<stop  offset="0" style="stop-color:#A27BFC"/>
	<stop  offset="1" style="stop-color:#6775FF"/>
</linearGradient>
<path opacity="0.15" fill="url(#SVGID_1_)" enable-background="new    " d="M95.409,16.96c-3.309,19.776,9.277,69.276,34.854,74.521
	c16.243,3.708,46.685-2.335,58.779-17.105c25.364-24.896-36.134-77.574-74.138-74.222C104.9,0.964,97.163,6.474,95.409,16.96z"/>
<linearGradient id="SVGID_2_" gradientUnits="userSpaceOnUse" x1="-533.79" y1="260.6719" x2="-475.8731" y2="288.9199" gradientTransform="matrix(-0.9183 -0.3958 0.3958 -0.9183 -472.5859 90.8608)">
	<stop  offset="0" style="stop-color:#A27BFC"/>
	<stop  offset="1" style="stop-color:#6775FF"/>
</linearGradient>
<path opacity="0.15" fill="url(#SVGID_2_)" enable-background="new    " d="M115.807,66.352c6.361-9.79,11.158-39.046-1.262-47.654
	c-7.799-5.669-25.435-9.363-35.317-4.235c-19.312,7.51,1.233,49.573,22.276,56.422C107.026,72.725,112.434,71.545,115.807,66.352z"
	/>
<linearGradient id="SVGID_3_" gradientUnits="userSpaceOnUse" x1="-9.5869" y1="79.6172" x2="22.6178" y2="95.3245" gradientTransform="matrix(1 0 0 1 8 9)">
	<stop  offset="0" style="stop-color:#A27BFC"/>
	<stop  offset="1" style="stop-color:#6775FF"/>
</linearGradient>
<path opacity="0.15" fill="url(#SVGID_3_)" enable-background="new    " d="M0.167,85.707c-1.063,6.356,2.982,22.265,11.203,23.951
	c5.221,1.192,15.005-0.751,18.893-5.497c8.152-8.001-11.614-24.934-23.829-23.856C3.218,80.565,0.73,82.337,0.167,85.707z"/>
</svg>
