<?xml version="1.0" encoding="utf-8"?>
<!-- Generator: Adobe Illustrator 15.0.0, SVG Export Plug-In . SVG Version: 6.00 Build 0)  -->
<!DOCTYPE svg PUBLIC "-//W3C//DTD SVG 1.1//EN" "http://www.w3.org/Graphics/SVG/1.1/DTD/svg11.dtd">
<svg version="1.1" id="Layer_1" xmlns="http://www.w3.org/2000/svg" xmlns:xlink="http://www.w3.org/1999/xlink" x="0px" y="0px"
	 width="25px" height="25px" viewBox="0 0 25 25" enable-background="new 0 0 25 25" xml:space="preserve">
<path marker-end="none" marker-start="none" fill="#333333" d="M11.929,22.507C6.022,22.521,0.33,18.466,0,9.782
	c-0.023-0.598,0.847-0.719,0.988-0.137c2.1,8.621,13.467,9.355,14.906-0.292c0.002-0.01,0.005-0.027,0.009-0.036
	c0.482-2.172,2.404-3.071,4.359-3l0.103,0.005l0.25-0.589c0.223-0.689,0.259-1.427,0.115-2.301c-0.055-0.33,0.227-0.62,0.56-0.577
	l2.159,0.275c0.249,0.032,0.439,0.247,0.437,0.502c-0.012,1.064-0.249,1.951-0.647,2.816l-0.31,0.602l0.113,0.062
	c1.284,0.76,2.152,2.026,1.92,3.654l-0.083,0.41C23.833,18.473,17.785,22.493,11.929,22.507z M11.929,21.504
	c5.42-0.013,10.992-3.729,11.957-10.467c0.003-0.018,0.005-0.038,0.013-0.056c0.173-0.669,0.097-1.264-0.153-1.77l-0.149-0.234
	l-0.079,0.049c-0.538,0.267-1.187,0.397-1.838,0.4c-0.29,0.002-0.58-0.02-0.86-0.067c-1.011-0.167-2.015-0.662-2.522-1.568
	l-0.029-0.057l-0.402,0.245c-0.312,0.237-0.57,0.537-0.754,0.906l-0.23,0.65l-0.177,0.944c-1.868,8.185-10.755,8.741-14.904,3.24
	L1.531,13.33l0.133,0.521C3.281,19.117,7.562,21.513,11.929,21.504z M11.716,18.356c-0.233-0.004-0.44-0.17-0.486-0.407
	c-0.054-0.272,0.126-0.534,0.396-0.588c1.483-0.285,2.633-0.949,3.421-2.073c0.158-0.224,0.473-0.28,0.701-0.122
	c0.224,0.159,0.279,0.474,0.12,0.699c-0.964,1.377-2.365,2.155-4.053,2.48C11.783,18.353,11.75,18.356,11.716,18.356z M21.685,8.424
	c0.23-0.003,0.453-0.025,0.664-0.064l0.529-0.154L22.551,7.97c-0.866-0.523-1.994-0.756-3.022-0.629l-0.272,0.057l0.076,0.135
	c0.365,0.438,0.966,0.722,1.649,0.837C21.218,8.408,21.456,8.425,21.685,8.424z M22.012,6.644l0.244-0.46
	c0.304-0.629,0.502-1.234,0.583-1.914l0.023-0.202l-1.064-0.136l0.006,0.075c0.05,0.774-0.038,1.496-0.285,2.187L21.396,6.47
	l0.115,0.024c0.135,0.034,0.27,0.072,0.401,0.116L22.012,6.644z"/>
</svg>
