<?xml version="1.0" encoding="utf-8"?>
<!-- Generator: Adobe Illustrator 15.0.0, SVG Export Plug-In . SVG Version: 6.00 Build 0)  -->
<!DOCTYPE svg PUBLIC "-//W3C//DTD SVG 1.1//EN" "http://www.w3.org/Graphics/SVG/1.1/DTD/svg11.dtd">
<svg version="1.1" id="Layer_1" xmlns="http://www.w3.org/2000/svg" xmlns:xlink="http://www.w3.org/1999/xlink" x="0px" y="0px"
	 width="25px" height="25px" viewBox="0 0 25 25" enable-background="new 0 0 25 25" xml:space="preserve">
<path marker-end="none" marker-start="none" fill="#333333" d="M6.941,23.943c-2.598-0.006-4.688-1.064-5.942-3.119l-0.318-0.586
	L0.65,20.197l-0.235-0.463c-1.169-2.678-0.042-7.962,5.572-9.233c4.844-1.126,6.535-0.743,9.528-4.17
	c0.445-0.551,0.896-1.009,1.353-1.376L17.072,4.8l-0.037-0.036c-0.305-0.359-0.529-0.783-0.708-1.245
	c-0.155-0.404,0.187-0.828,0.614-0.759l5.033,0.807l0.055,0.024l0.619-0.953c0.264-0.432,0.509-0.877,0.738-1.332
	c0.142-0.276,0.479-0.387,0.757-0.245c0.275,0.139,0.388,0.478,0.247,0.754c-0.244,0.48-0.503,0.949-0.779,1.405L22.943,4.25
	l0.067,0.081l1.936,4.194c0.178,0.383-0.114,0.793-0.501,0.799c-0.054,0.002-0.113-0.006-0.168-0.023
	c-0.224-0.066-0.435-0.143-0.632-0.231l-0.439-0.24l-0.067,0.256c-0.503,1.677-1.694,3.379-2.433,4.624
	c-2.225,3.729-5.233,7.94-9.535,9.448C9.664,23.688,8.239,23.945,6.941,23.943z M6.954,22.824c1.143,0.002,2.431-0.234,3.846-0.729
	c3.88-1.359,6.71-5.227,8.938-8.963c0.502-0.846,1.088-1.727,1.586-2.665c0.436-0.813,0.762-1.601,0.88-2.319l0.021-0.168V7.978
	l-0.208-0.306L21.82,7.876c-0.305,0.295-0.634,0.542-0.967,0.763c-0.312,0.207-0.737,0.052-0.848-0.309
	c-0.219-0.723-0.374-1.465-0.439-2.222l-0.011-0.213l-0.229-0.017c-0.427-0.042-0.796-0.132-1.122-0.266l-0.191-0.095l-0.215,0.148
	c-0.449,0.324-0.922,0.778-1.424,1.393c-3.306,3.786-5.492,3.461-10.137,4.54c-4.875,1.106-5.678,5.598-4.805,7.657l0.182,0.334
	l0.048,0.102C2.618,21.678,4.439,22.818,6.954,22.824z M2.902,16.498C2.875,16.5,2.849,16.5,2.821,16.496
	c-0.071-0.006-0.145-0.025-0.213-0.061c-0.277-0.143-0.385-0.48-0.245-0.758c0.8-1.553,2.02-2.795,4.073-3.216
	c0.306-0.063,0.603,0.133,0.667,0.438c0.062,0.302-0.134,0.601-0.438,0.663c-1.647,0.34-2.619,1.308-3.298,2.631
	C3.271,16.375,3.093,16.484,2.902,16.498z M23.16,7.337l-1.11-2.401l-0.386-0.277l-3.747-0.602l0.034,0.044
	c0.08,0.087,0.166,0.164,0.262,0.233c0.371,0.275,0.934,0.472,1.861,0.44c0.316-0.011,0.58,0.242,0.583,0.558
	c0.003,0.452,0.043,0.901,0.114,1.343l0.106,0.53l0.154-0.134c0.235-0.23,0.436-0.485,0.597-0.783
	c0.236-0.442,0.893-0.376,1.035,0.105c0.097,0.332,0.239,0.625,0.439,0.882L23.16,7.337z"/>
</svg>
