<?xml version="1.0" encoding="utf-8"?>
<!-- Generator: Adobe Illustrator 15.0.0, SVG Export Plug-In . SVG Version: 6.00 Build 0)  -->
<!DOCTYPE svg PUBLIC "-//W3C//DTD SVG 1.1//EN" "http://www.w3.org/Graphics/SVG/1.1/DTD/svg11.dtd">
<svg version="1.1" id="Layer_1" xmlns="http://www.w3.org/2000/svg" xmlns:xlink="http://www.w3.org/1999/xlink" x="0px" y="0px"
	 width="25px" height="25px" viewBox="0 0 25 25" enable-background="new 0 0 25 25" xml:space="preserve">
<path marker-end="none" marker-start="none" fill="#333333" d="M12.814,25c-0.312,0-0.561-0.251-0.561-0.562V23.58l-0.2-0.017
	l-0.315-0.055l-0.362,0.996c-0.081,0.222-0.288,0.361-0.511,0.369c-0.013,0-0.029,0-0.042,0c-0.055-0.004-0.113-0.015-0.165-0.034
	c-0.292-0.107-0.441-0.43-0.334-0.719l0.343-0.946l-0.258-0.117c-0.103-0.053-0.207-0.106-0.309-0.164l-0.395-0.257L9.56,22.703
	c-0.417,0.101-0.831,0.151-1.238,0.156c-3.965,0.06-6.782-4.087-6.762-8.468C1.58,9.307,4.628,5.674,8.976,4.563l0.8-0.171
	l0.271-0.156c0.257-0.213,0.433-0.582,0.552-1.148c0.167-0.796,0.172-1.625,0.302-2.605C10.938,0.206,11.179-0.003,11.46,0
	l2.428,0.01l0.13,0.031l0.087,0.005l0.144,0.096l0.035,0.036l0.098,0.132l0.021,0.047l0.028,0.152l0.01,0.033l0.003,0.033
	l0.049,0.683c0.125,1.374,0.375,2.387,1,2.778l0.342,0.142l0.971,0.145c5.012,1.03,7.279,5.651,7.191,9.983
	c-0.072,3.556-2.035,8.266-6.223,8.402c-0.295,0.01-0.598-0.004-0.908-0.045l-0.84-0.169l-0.018,0.015
	c-0.299,0.22-0.609,0.407-0.936,0.564l-0.133,0.062l0.361,0.987c0.107,0.289-0.043,0.611-0.336,0.719
	c-0.055,0.02-0.109,0.03-0.164,0.034c-0.016,0-0.031,0-0.047,0c-0.222-0.008-0.426-0.147-0.506-0.369l-0.373-1.017l-0.025,0.005
	c-0.141,0.03-0.285,0.055-0.431,0.073l-0.047,0.006v0.866C13.373,24.749,13.122,25,12.814,25z M12.76,22.486
	c2.94,0,5.56-3.345,5.56-7.744c0-0.929-0.115-1.819-0.332-2.643c-0.078-0.297,0.1-0.604,0.4-0.682c0.299-0.081,0.604,0.1,0.684,0.4
	c0.242,0.916,0.371,1.901,0.371,2.925c0,2.671-0.902,5.143-2.373,6.794l-0.018,0.018l0.688,0.031
	c3.215-0.104,5.068-3.933,5.137-7.306c0.086-4.253-2.26-8.504-7.222-8.997c-0.024-0.004-0.048-0.007-0.073-0.015
	c-1.742-0.41-2.095-2.514-2.218-4.043l-0.007-0.094l-1.396-0.008l-0.016,0.142c-0.064,0.673-0.122,1.439-0.25,2.057
	c-0.182,0.856-0.561,1.764-1.544,2.131c-0.035,0.01-0.068,0.019-0.102,0.027C5.768,6.21,2.7,9.523,2.681,14.397
	c-0.018,4.067,2.559,7.388,5.625,7.342l0.322-0.022l-0.174-0.174c-1.473-1.647-2.381-4.118-2.381-6.801
	c0-3.513,1.546-6.628,3.885-8.054c0.264-0.163,0.609-0.078,0.771,0.186c0.163,0.263,0.077,0.609-0.188,0.769
	c-1.923,1.175-3.347,3.87-3.347,7.099C7.194,19.165,9.833,22.486,12.76,22.486z M3.953,14.397c-0.309,0-0.562-0.249-0.563-0.558
	c-0.003-1.457,0.492-2.708,1.284-3.807c0.182-0.251,0.533-0.308,0.782-0.128c0.253,0.181,0.308,0.531,0.127,0.783
	c-0.68,0.946-1.075,1.97-1.072,3.148C4.511,14.145,4.261,14.397,3.953,14.397z M17.896,10.719c-0.219,0.012-0.434-0.106-0.535-0.314
	c-0.6-1.226-1.434-2.179-2.387-2.762c-0.265-0.16-0.348-0.506-0.188-0.769c0.162-0.264,0.506-0.349,0.771-0.186
	c1.167,0.713,2.134,1.846,2.81,3.225c0.137,0.276,0.021,0.613-0.256,0.75C18.04,10.697,17.968,10.714,17.896,10.719z"/>
</svg>
