<?xml version="1.0" encoding="utf-8"?>
<!-- Generator: Adobe Illustrator 15.0.0, SVG Export Plug-In . SVG Version: 6.00 Build 0)  -->
<!DOCTYPE svg PUBLIC "-//W3C//DTD SVG 1.1//EN" "http://www.w3.org/Graphics/SVG/1.1/DTD/svg11.dtd">
<svg version="1.1" id="Layer_1" xmlns="http://www.w3.org/2000/svg" xmlns:xlink="http://www.w3.org/1999/xlink" x="0px" y="0px"
	 width="25px" height="25px" viewBox="0 0 25 25" enable-background="new 0 0 25 25" xml:space="preserve">
<path marker-end="none" marker-start="none" fill="#333333" d="M0.365,23.934c-0.067-0.068-0.127-0.146-0.177-0.232
	c-0.326-0.561-0.194-1.352,0.116-2.188l0.343-0.807l0.675-1.643c1.667-3.812,3.929-7.457,6.342-11.031l0.466-0.714
	c1.15-1.613,2.421-2.386,3.729-2.342c0.458,0.017,0.888,0.13,1.292,0.324l0.028,0.016l0.005-0.103
	c0.021-0.422,0.059-0.778,0.108-1.068c0.064-0.375,0.165-0.72,0.348-0.976c0.126-0.173,0.315-0.336,0.576-0.396
	c0.19-0.045,0.366-0.02,0.511,0.028l0.05,0.02l0.013-0.05c0.08-0.298,0.161-0.557,0.241-0.781c0.148-0.418,0.324-0.791,0.561-1.033
	c0.147-0.147,0.383-0.305,0.688-0.293c0.301,0.011,0.512,0.172,0.641,0.313c0.195,0.205,0.336,0.504,0.438,0.77
	c0.124,0.322-0.037,0.685-0.359,0.808c-0.283,0.108-0.594,0-0.75-0.247l-0.041,0.101c-0.133,0.379-0.281,0.916-0.443,1.65
	l-0.004,0.003l0.009-0.007c0.066-0.047,0.138-0.089,0.215-0.125c0.282-0.133,0.598-0.152,0.905-0.035
	c0.062,0.023,0.119,0.05,0.174,0.083l0.039,0.025l0.063-0.272c0.042-0.152,0.085-0.296,0.13-0.433
	c0.16-0.499,0.396-1.02,0.789-1.305c0.312-0.226,0.693-0.28,1.062-0.126c0.243,0.098,0.461,0.277,0.661,0.508l0.138,0.182
	l0.158-0.136c0.218-0.176,0.414-0.327,0.59-0.453c0.332-0.237,0.665-0.441,0.957-0.515c0.161-0.041,0.488-0.088,0.767,0.144
	c0.276,0.229,0.292,0.555,0.284,0.714c-0.014,0.313-0.154,0.683-0.318,1.055c-0.091,0.196-0.2,0.416-0.326,0.653l-0.108,0.203
	l0.206,0.144c0.08,0.067,0.154,0.138,0.216,0.217c0.206,0.263,0.282,0.583,0.194,0.896L22.469,5.69l0.088,0.142
	c0.05,0.108,0.095,0.227,0.134,0.352l0.02,0.077c0.229-0.071,0.425-0.128,0.602-0.172c0.329-0.08,0.657-0.133,0.924-0.107
	C24.399,6,24.724,6.069,24.906,6.394c0.174,0.316,0.064,0.625-0.005,0.775c-0.119,0.254-0.354,0.519-0.596,0.761
	c-0.134,0.133-0.288,0.274-0.458,0.426l-0.108,0.093l0.09,0.154c0.044,0.083,0.077,0.168,0.103,0.254
	c0.124,0.446-0.029,0.892-0.465,1.146c-0.337,0.198-0.806,0.254-1.299,0.257c-0.264,0.004-0.569-0.01-0.912-0.042l-0.202-0.019
	c0.01,0.119,0.01,0.235-0.004,0.347c-0.055,0.391-0.292,0.72-0.709,0.866c-0.236,0.083-0.517,0.098-0.84,0.061l-0.298-0.045
	l0.011,0.02c0.187,0.405,0.297,0.838,0.307,1.296c0.026,1.307-0.763,2.567-2.395,3.694l-0.721,0.457
	c-4.119,2.699-8.329,5.209-12.77,6.848l-0.833,0.326c-0.854,0.289-1.65,0.4-2.208,0.051C0.51,24.066,0.433,24.004,0.365,23.934z
	 M1.277,23.061c0.061,0.025,0.195,0.047,0.473-0.004c0.347-0.059,0.816-0.213,1.419-0.475c0.007-0.006,0.027-0.012,0.033-0.016
	l1.5-0.59l-0.597-0.596c-0.082-0.082-0.167-0.172-0.246-0.264c-0.227-0.258-0.201-0.652,0.058-0.881
	c0.262-0.225,0.655-0.201,0.882,0.059c0.279,0.316,0.619,0.607,0.942,0.955c0.06,0.062,0.102,0.135,0.13,0.213l0.525-0.234
	c1.056-0.496,2.103-1.033,3.142-1.607l1.016-0.576l-0.026-0.02c-0.221-0.234-0.475-0.467-0.725-0.723
	c-0.082-0.082-0.166-0.168-0.246-0.262c-0.227-0.258-0.201-0.652,0.059-0.879c0.259-0.229,0.655-0.201,0.882,0.057
	c0.276,0.314,0.618,0.607,0.944,0.955c0.056,0.062,0.101,0.133,0.13,0.209l0.009,0.062l1.058-0.633
	c1.029-0.635,2.057-1.289,3.081-1.963c0.005-0.002,0.022-0.014,0.029-0.018c1.98-1.15,2.538-2.242,2.521-3.061
	c-0.018-0.855-0.654-1.749-1.809-2.487c-0.037-0.025-0.068-0.048-0.098-0.079l-0.002-0.002l-0.083,0.007
	c-0.344,0.021-0.64-0.24-0.661-0.587c-0.021-0.345,0.24-0.639,0.588-0.66c1.805-0.108,2.316-0.53,2.411-0.715
	c0.07-0.132,0-0.463-0.456-0.873c-0.367-0.326-0.225-0.932,0.248-1.066c1.019-0.285,1.75-0.539,2.248-0.763l0.223-0.11l0.168-0.14
	l0.135-0.064l-0.092-0.065c-0.064-0.032-0.144-0.066-0.235-0.103c-0.353-0.14-0.498-0.562-0.308-0.892
	c0.152-0.269,0.289-0.515,0.405-0.736l0.079-0.154L20.896,3.39c-0.2,0.161-0.42,0.351-0.667,0.569
	c-0.296,0.262-0.762,0.184-0.956-0.161c-0.214-0.375-0.377-0.579-0.479-0.679l-0.04-0.038l-0.016,0.021
	c-0.063,0.097-0.154,0.276-0.255,0.585c-0.146,0.45-0.281,1.063-0.4,1.818c-0.092,0.594-0.895,0.724-1.172,0.189
	c-0.197-0.385-0.348-0.541-0.424-0.606L16.456,5.11c-0.036,0.035-0.084,0.094-0.139,0.186c-0.111,0.171-0.222,0.418-0.327,0.732
	c-0.213,0.636-0.378,1.474-0.467,2.395c-0.03,0.342-0.338,0.594-0.681,0.561c-0.172-0.016-0.319-0.101-0.423-0.223
	c-0.102-0.125-0.156-0.286-0.139-0.459l0.021-0.201l-0.025-0.034c-0.723-1.165-1.61-1.812-2.458-1.842
	c-0.825-0.028-1.922,0.517-3.099,2.48C8.716,8.711,8.704,8.729,8.7,8.734c-1.03,1.522-2.023,3.051-2.95,4.588l-0.875,1.488
	l0.183,0.141c0.276,0.316,0.616,0.605,0.942,0.953c0.235,0.254,0.223,0.65-0.03,0.885c-0.254,0.234-0.648,0.221-0.883-0.031
	c-0.22-0.234-0.476-0.465-0.725-0.721l-0.103-0.109l-0.268,0.49c-0.823,1.559-1.561,3.137-2.179,4.742
	c-0.003,0.012-0.012,0.031-0.017,0.041C1.204,22.455,1.229,22.92,1.277,23.061z M8.469,12.82c-0.082-0.084-0.166-0.173-0.245-0.264
	c-0.226-0.261-0.201-0.654,0.058-0.882c0.259-0.227,0.654-0.204,0.881,0.059c0.277,0.314,0.62,0.604,0.944,0.951
	c0.234,0.255,0.222,0.65-0.03,0.886c-0.254,0.234-0.649,0.221-0.883-0.031C8.976,13.305,8.72,13.076,8.469,12.82z M9.861,9.333
	C9.832,9.305,9.808,9.271,9.788,9.231c-0.176-0.298-0.076-0.68,0.223-0.855c0.534-0.31,1.119-0.523,1.741-0.505
	c0.633,0.024,1.222,0.286,1.756,0.791c0.25,0.236,0.26,0.632,0.021,0.881c-0.238,0.252-0.633,0.264-0.886,0.025
	c-0.34-0.326-0.646-0.437-0.934-0.447c-0.301-0.01-0.655,0.091-1.069,0.333C10.381,9.609,10.053,9.551,9.861,9.333z M14.102,13.143
	c-0.084-0.082-0.165-0.17-0.246-0.262c-0.227-0.259-0.201-0.653,0.061-0.881c0.256-0.228,0.651-0.203,0.88,0.058
	c0.279,0.314,0.619,0.607,0.943,0.955c0.236,0.252,0.223,0.648-0.029,0.883c-0.254,0.236-0.648,0.223-0.885-0.029
	C14.604,13.629,14.35,13.398,14.102,13.143z M14.587,6.413l0.041-0.185c0.055-0.208,0.113-0.41,0.176-0.594
	c0.113-0.338,0.258-0.694,0.451-1l0.096-0.125l-0.05,0.019c-0.216,0.054-0.461-0.007-0.626-0.204
	c-0.03-0.033-0.058-0.064-0.084-0.094l-0.033-0.038l-0.011,0.05c-0.007,0.033-0.014,0.074-0.021,0.117
	c-0.055,0.306-0.093,0.737-0.109,1.331c0,0.086-0.021,0.169-0.052,0.245l-0.101,0.137l0.004,0.004L14.587,6.413z M18.312,9.861
	l0.152,0.056c0.4,0.142,0.717,0.232,0.964,0.281c0.13,0.024,0.23,0.037,0.307,0.043l0.062,0.001l-0.012-0.053
	c-0.025-0.104-0.078-0.261-0.173-0.479c-0.196-0.447,0.179-0.937,0.661-0.867c0.831,0.119,1.444,0.169,1.886,0.166
	c0.177,0,0.312-0.011,0.42-0.017l-0.014-0.049c-0.038-0.048-0.085-0.102-0.144-0.165c-0.247-0.262-0.217-0.682,0.062-0.912
	c0.101-0.082,0.195-0.158,0.284-0.235l0.147-0.125l-0.134,0.042c-0.109,0.038-0.225,0.078-0.35,0.122
	c-0.379,0.134-0.785-0.121-0.83-0.521c-0.018-0.148-0.037-0.273-0.057-0.379l-0.06-0.242l-0.315,0.154
	c-0.362,0.165-0.813,0.331-1.35,0.508l-0.174,0.053l0.135,0.285c0.155,0.409,0.174,0.853-0.056,1.293
	c-0.222,0.428-0.632,0.747-1.214,0.974L18.312,9.861z"/>
</svg>
