<?xml version="1.0" encoding="utf-8"?>
<!-- Generator: Adobe Illustrator 15.0.0, SVG Export Plug-In . SVG Version: 6.00 Build 0)  -->
<!DOCTYPE svg PUBLIC "-//W3C//DTD SVG 1.1//EN" "http://www.w3.org/Graphics/SVG/1.1/DTD/svg11.dtd">
<svg version="1.1" id="Layer_1" xmlns="http://www.w3.org/2000/svg" xmlns:xlink="http://www.w3.org/1999/xlink" x="0px" y="0px"
	 width="25px" height="25px" viewBox="0 0 25 25" enable-background="new 0 0 25 25" xml:space="preserve">
<path marker-end="none" marker-start="none" fill="#4C4C4C" d="M7.009,24.998c-0.101,0.004-0.2,0-0.296-0.009
	c-0.486-0.039-0.924-0.23-1.25-0.624l-0.041-0.059l-0.246-0.063c-0.169-0.059-0.339-0.146-0.479-0.274
	c-0.186-0.167-0.311-0.397-0.326-0.679c-0.021-0.38,0.155-0.771,0.415-1.164l0.124-0.132c2.131-1.621,4.323-3.076,6.579-4.345
	l1.448-0.764l-0.066-0.854c0.628-0.544,0.756-1.313,1.031-2.2l0.102-0.299l-0.241-0.937c0.377-0.33,0.41-0.621,0.369-1.03
	c-0.028-0.291-0.139-0.77-0.106-1.282l0.042-0.246l-0.29-0.452c-0.241-0.446-0.402-0.905-0.485-1.379L13.283,8.16l-0.469,0.001
	L12.5,8.061l-0.058,0.3c-0.067,0.204-0.167,0.407-0.314,0.597l-0.15,0.162l0.17,0.375c0.296,0.917-0.003,1.993-0.423,2.775
	c-0.457,0.854-1.362,1.877-2.311,1.86l-0.36-0.065c-1.495-0.375-2.983-0.881-3.953-1.829C4.2,11.355,3.807,10.159,4.091,8.561
	l0.147-0.643l0.044-0.877C4.37,6.246,4.606,5.472,5.14,4.824L5.395,4.56l0.303-0.782c0.358-0.731,0.874-1.355,1.604-1.811
	l0.388-0.211l0.337-0.282c0.671-0.509,1.398-0.809,2.146-0.983l0.84-0.142l0.61-0.184c1.554-0.377,3.021-0.074,4.392,0.567
	c1.89,0.788,3.383,2.002,4.34,3.732l0.363,0.744l0.336,0.623c0.627,1.345,0.75,2.8,0.51,4.315l-0.129,0.643l0.131,0.703
	c0.242,1.962-0.346,3.98-1.631,6.022c-0.42,0.675-0.938,1.274-1.604,1.699l-0.597,0.3l-0.931,0.824
	c-1.969,1.693-3.996,3.084-6.015,3.504L9.93,23.949L9.293,24.29c-0.719,0.359-1.388,0.604-1.979,0.683
	C7.211,24.987,7.109,24.995,7.009,24.998z M6.849,23.906c0.525,0.037,1.367-0.222,2.64-0.95l5.931-5.093l-0.282-0.057l-8.305,6.099
	L6.849,23.906z M5.83,23.298l7.024-5.157l-0.282,0.146c-1.665,0.907-3.295,1.92-4.895,3.031l-2.034,1.48l-0.088,0.146
	c-0.033,0.062-0.055,0.112-0.07,0.153l-0.027,0.086l0.082,0.038c0.032,0.012,0.075,0.025,0.127,0.038L5.83,23.298z M11.766,22.404
	l0.132-0.053c1.627-0.702,3.348-2.037,5.155-3.684l0.173-0.105c0.182-0.069,0.354-0.157,0.521-0.263l0.362-0.279l-0.687,0.046
	l-0.553-0.019L11.766,22.404z M17.234,16.981c0.465,0.008,0.92-0.022,1.359-0.096l0.52-0.114l0.371-0.636
	c0.707-1.331,1.055-2.595,1.049-3.801l-0.025-0.386l-0.816,0.532c-0.557,0.334-1.126,0.616-1.707,0.815
	c-0.658,0.23-1.332,0.359-2.02,0.344c-0.268-0.004-0.537-0.032-0.807-0.084l0,0l-0.17,0.444c-0.211,0.663-0.363,1.391-0.744,2.04
	l-0.191,0.279l0.032,0.02l0.376,0.149C15.352,16.798,16.307,16.969,17.234,16.981z M9.461,13.041
	c0.262-0.033,0.837-0.402,1.31-1.282c0.513-0.958,0.552-1.883,0.088-2.355l0.004-0.039l-0.722-0.375
	C9.382,8.634,8.633,8.393,7.896,8.297C7.16,8.202,6.426,8.249,5.682,8.477L5.173,8.675L5.159,8.737
	c-0.239,1.318,0.1,2.139,0.7,2.724c0.743,0.728,1.971,1.18,3.463,1.561l0.048,0.014C9.392,13.044,9.424,13.047,9.461,13.041z
	 M16.166,12.558c0.482-0.012,0.971-0.111,1.463-0.283c0.748-0.259,1.504-0.684,2.266-1.216l0.463-0.343v-0.055
	c0.322-1.385,0.326-2.657-0.062-3.812L20.23,6.69l-0.398,0.586c-0.939,1.25-2.205,2.275-3.942,2.965l-0.788,0.267l0.008,0.176
	c0.021,0.215,0.065,0.458,0.098,0.774c0.031,0.307,0.031,0.635-0.069,0.967l-0.001,0.002l0.305,0.081
	C15.682,12.548,15.923,12.565,16.166,12.558z M14.951,9.418l0.527-0.179c1.861-0.735,3.098-1.89,3.961-3.312l0.227-0.408
	l-0.254-0.522c-0.707-1.281-1.76-2.245-3.127-2.944l-0.693-0.322l-0.005,0.865c-0.061,1.518-0.386,3.018-1.04,4.495l-0.232,0.477
	l0.041,0.448c0.062,0.357,0.184,0.71,0.373,1.059L14.951,9.418z M11.231,8.338l0.021-0.018c0.22-0.268,0.25-0.617,0.239-1.125
	l-0.236-0.517c-0.744-1.426-1.86-2.453-3.491-2.98l-0.623-0.16L7.061,3.621C6.757,4.009,6.537,4.473,6.378,5.009l-0.157,0.25
	C5.695,5.73,5.448,6.366,5.359,7.155L5.345,7.45l0.023-0.009c0.895-0.274,1.784-0.332,2.666-0.218
	c0.875,0.113,1.731,0.396,2.57,0.791L11.231,8.338z M13.119,7.102c0.047-0.001,0.093-0.006,0.138-0.016l0.104-0.035l0.195-0.396
	c0.715-1.614,1.001-3.264,0.953-4.945l-0.023-0.401l-0.49-0.123c-0.879-0.177-1.76-0.135-2.671,0.2l-0.126,0.028
	c-1.067,0.12-2.021,0.437-2.834,1.187L8.23,2.691l-0.03,0.018l0.817,0.326c1.43,0.679,2.467,1.753,3.188,3.128l0.331,0.718
	l0.16,0.113c0.098,0.052,0.192,0.083,0.286,0.098C13.027,7.1,13.074,7.103,13.119,7.102z"/>
</svg>
