<?xml version="1.0" encoding="utf-8"?>
<!-- Generator: Adobe Illustrator 15.0.0, SVG Export Plug-In . SVG Version: 6.00 Build 0)  -->
<!DOCTYPE svg PUBLIC "-//W3C//DTD SVG 1.1//EN" "http://www.w3.org/Graphics/SVG/1.1/DTD/svg11.dtd">
<svg version="1.1" id="Layer_1" xmlns="http://www.w3.org/2000/svg" xmlns:xlink="http://www.w3.org/1999/xlink" x="0px" y="0px"
	 width="25px" height="25px" viewBox="0 0 25 25" enable-background="new 0 0 25 25" xml:space="preserve">
<path marker-end="none" marker-start="none" fill="#4C4C4C" d="M0,21.86v-1.147h25v1.147H0z M1.602,19.351v-1.146h0.803
	l-0.007-0.242c-0.006-2.632,0.965-5.626,2.917-7.594c1.763-1.776,4.022-2.749,6.329-2.916l0.031,0l-0.002-0.508l-0.053-0.017
	c-0.698-0.258-1.196-0.934-1.196-1.729c0-1.015,0.816-1.839,1.823-1.839c1.008,0,1.825,0.824,1.825,1.839
	c0,0.795-0.498,1.471-1.198,1.729l-0.063,0.021l0,0.489l0.029,0.001c2.39,0.116,4.745,1.092,6.568,2.93
	c1.994,2.013,2.967,5.08,2.914,7.769l-0.003,0.067h1.092v1.146H1.602z M21.178,18.205l0.003-0.091
	c0.047-2.39-0.812-5.152-2.58-6.934c-3.444-3.472-9.038-3.472-12.48,0c-1.73,1.743-2.592,4.439-2.584,6.781l0.006,0.244H21.178z
	 M6.495,15.844c-0.331,0.61-1.156,0.301-1.124-0.186c0.385-2.38,1.741-4.206,4.086-5.249c0.481-0.224,1.023,0.526,0.459,1.05
	C7.922,12.346,6.817,13.85,6.495,15.844z M12.246,5.892c0.379,0,0.688-0.311,0.688-0.694c0-0.38-0.309-0.691-0.688-0.691
	c-0.378,0-0.687,0.312-0.687,0.691C11.559,5.582,11.867,5.892,12.246,5.892z"/>
</svg>
