<?xml version="1.0" encoding="utf-8"?>
<!-- Generator: Adobe Illustrator 15.0.0, SVG Export Plug-In . SVG Version: 6.00 Build 0)  -->
<!DOCTYPE svg PUBLIC "-//W3C//DTD SVG 1.1//EN" "http://www.w3.org/Graphics/SVG/1.1/DTD/svg11.dtd">
<svg version="1.1" id="Layer_1" xmlns="http://www.w3.org/2000/svg" xmlns:xlink="http://www.w3.org/1999/xlink" x="0px" y="0px"
	 width="25px" height="25px" viewBox="0 0 25 25" enable-background="new 0 0 25 25" xml:space="preserve">
<path marker-end="none" marker-start="none" fill="#333333" d="M0.665,24.564c-0.429,0.062-0.774-0.354-0.632-0.762l7.075-20.41
	c0.026-0.074,0.067-0.142,0.117-0.198l0.105-0.079L7.249,2.863c-0.146-0.9,0.44-2.024,1.366-2.325
	c0.034-0.012,0.069-0.021,0.104-0.025c9.306-1.213,17.238,11.35,16.187,19.624c-0.002,0.018-0.006,0.039-0.01,0.055
	c-0.357,1.574-2.176,2.002-3.162,1.428c-0.035-0.021-0.07-0.045-0.1-0.074l-0.07-0.064L0.665,24.564z M1.545,23.193l17.434-2.572
	l0.004-0.26c0.002-0.635-0.049-0.953-0.494-1.396c-0.512-0.514-0.432-1.375-0.395-1.834c0.023-0.301,0.049-0.541,0.051-0.762
	c0.002-0.115-0.006-0.195-0.014-0.25l-0.016-0.062l-0.121-0.047c-0.482-0.168-1.617-0.475-1.971-1.186
	c-0.072-0.145-0.115-0.309-0.115-0.488c0-0.357,0.17-0.895,0.26-1.234c0.09-0.347,0.125-0.57,0.125-0.693l-0.006-0.056l-0.096-0.054
	c-0.393-0.139-1.395-0.153-1.9-1.001c-0.004-0.003-0.012-0.02-0.014-0.024l-0.023-0.044c-0.004-0.004-0.012-0.019-0.014-0.023
	c-0.338-0.71-0.064-1.895-0.451-2.263l-0.074-0.013c-0.111-0.002-0.334,0.042-0.752,0.204c-0.215,0.083-0.49,0.198-0.725,0.275
	c-0.226,0.077-0.528,0.163-0.823,0.134l-0.022-0.002c-0.104-0.014-0.203-0.036-0.297-0.072c-0.229-0.087-0.403-0.236-0.524-0.42
	c-0.416-0.625-0.155-1.536-0.155-1.913l-0.022-0.286l-0.16-0.146l-0.42-0.178l-0.272-0.07L9.366,6.459
	c-0.476,0.029-1.239,0.089-1.817-0.3L7.473,6.09L1.545,23.193z M12.443,20.93c-0.228-0.014-0.437-0.164-0.514-0.395l-0.592-1.748
	L9.8,18.426c-0.31-0.072-0.503-0.379-0.434-0.689l0.404-1.793c0.067-0.293,0.345-0.486,0.641-0.445l1.362,0.182l0.844-1.383
	c0.142-0.232,0.425-0.336,0.684-0.244c2.89,1,2.583,5.668-0.628,6.842C12.598,20.924,12.519,20.932,12.443,20.93z M6.359,20.918
	c-1.033,0-1.896-0.816-1.896-1.857s0.866-1.859,1.897-1.859c1.03,0,1.896,0.82,1.896,1.859C8.256,20.104,7.39,20.918,6.359,20.918z
	 M22.697,20.713c0.359,0.004,0.781-0.178,0.98-0.537l0.082-0.221l0.086-1.465C23.799,11.048,17.113,1.32,9.645,1.596L8.949,1.654
	L8.635,1.881c-0.172,0.217-0.243,0.516-0.241,0.72l0.02,0.081l0.069,0.005c0.004,0,0.021,0.003,0.027,0.004
	c7.023,0.977,12.736,9.302,13.578,16.303C22.09,19,22.09,19.02,22.092,19.025l0.084,1.328l0.061,0.176l0.109,0.098L22.697,20.713z
	 M20.211,20.439l0.807-0.119l-0.08-1.197l-0.201-1.26C19.531,11.912,14.936,5.567,9.522,4.079L8.354,3.837L8.256,3.828L7.994,4.587
	l0.031,0.079c0.009,0.057-0.069,0.245,1.459,0.582l0.191,0.05l0.272-0.005c0.014,0,0.033,0,0.046,0.002
	c0.474,0.027,1.072,0.181,1.384,0.829c0.012,0.025,0.021,0.05,0.03,0.078l0.056,0.179l0.096,0.225
	c0.011,0.026,0.021,0.052,0.027,0.079c0.038,0.143,0.058,0.293,0.058,0.453c0,0.405-0.077,0.803-0.08,1.047l0.017,0.124l0.08-0.016
	c0.182-0.054,0.485-0.179,0.95-0.338c0.436-0.149,1.209-0.399,1.795-0.07c0.08,0.046,0.156,0.1,0.229,0.167
	c0.65,0.625,0.641,1.954,0.697,2.486l0.027,0.15l0.178,0.191c0.068,0.035,0.148,0.042,0.268,0.055
	c0.307,0.032,0.857,0.043,1.385,0.57c0.107,0.108,0.18,0.232,0.229,0.354c0.189,0.484,0.045,1.128-0.051,1.524
	c-0.102,0.402-0.18,0.664-0.211,0.824l-0.016,0.096l0.074,0.066c0.297,0.201,1.135,0.43,1.492,0.605
	c0.191,0.098,0.316,0.254,0.396,0.391c0.244,0.439,0.234,1.184,0.236,1.658c0,0.596,0.012,0.885,0.037,1.031l0.025,0.098
	l0.414,0.516c0.35,0.561,0.396,1.105,0.395,1.703V20.439z M6.359,19.762c0.426,0,0.74-0.33,0.74-0.701
	c0-0.369-0.314-0.701-0.739-0.701c-0.427,0-0.74,0.332-0.74,0.701C5.62,19.434,5.934,19.762,6.359,19.762z M12.811,19.543
	l0.248-0.164c1.328-1.043,1.282-3.062,0.381-3.916l-0.129-0.08l-0.746,1.223c-0.119,0.195-0.343,0.303-0.571,0.27l-1.21-0.16
	l-0.162,0.717l1.292,0.303c0.195,0.047,0.352,0.191,0.417,0.379L12.811,19.543z M18.947,18.504l0.266-0.262l-0.338,0.148
	L18.947,18.504z M18.205,15.977l0.41-0.225l-0.076-0.076l-0.256,0.143L18.205,15.977z M18.283,15.818l0.133-0.264L18.283,15.818z
	 M18.539,15.676l0.059-0.029l-0.15-0.156l-0.031,0.064L18.539,15.676z M8.789,14.984c-1.39,0-2.546-1.098-2.546-2.487
	c0-1.388,1.158-2.486,2.546-2.486c1.389,0,2.545,1.098,2.545,2.486C11.334,13.887,10.177,14.984,8.789,14.984z M16.637,14.594
	l0.4-0.256H17l-0.383,0.191L16.637,14.594z M16.541,14.566l0.076-0.037l-0.059-0.193l-0.072,0.002L16.541,14.566z M8.789,13.828
	c0.782,0,1.389-0.613,1.389-1.331c0-0.716-0.607-1.33-1.389-1.33c-0.783,0-1.39,0.614-1.39,1.33
	C7.399,13.215,8.006,13.828,8.789,13.828z M16.416,12.275l0.416-0.137l-0.023-0.04l-0.352,0.138L16.416,12.275z M16.457,12.237
	l0.273-0.274l0.078,0.136l0.072-0.03l-0.1-0.156L16.457,12.237z M11.302,8.929l0.032-0.086l-0.203-0.166L11.053,8.73L11.302,8.929z
	 M13.826,8.889l0.043-0.046l0.219-0.391l-0.033-0.022l-0.23,0.458L13.826,8.889z M11.377,8.877l0.107-0.391l0.001-0.04l-0.151,0.397
	L11.377,8.877z M13.854,8.869l0.382-0.4l-0.112-0.082l-0.036,0.064l0.083,0.056l-0.302,0.335L13.854,8.869z M11.131,8.677
	l0.355-0.235l-0.41,0.191L11.131,8.677z"/>
</svg>
