<?xml version="1.0" encoding="utf-8"?>
<!-- Generator: Adobe Illustrator 15.0.0, SVG Export Plug-In . SVG Version: 6.00 Build 0)  -->
<!DOCTYPE svg PUBLIC "-//W3C//DTD SVG 1.1//EN" "http://www.w3.org/Graphics/SVG/1.1/DTD/svg11.dtd">
<svg version="1.1" id="Layer_1" xmlns="http://www.w3.org/2000/svg" xmlns:xlink="http://www.w3.org/1999/xlink" x="0px" y="0px"
	 width="25px" height="25px" viewBox="0 0 25 25" enable-background="new 0 0 25 25" xml:space="preserve">
<g id="Group">
	<path marker-end="none" marker-start="none" fill="#333333" d="M8.742,24.996c-1.245-0.029-2.493-0.312-3.552-0.963l-0.52-0.367
		l-0.026-0.018l-0.097-0.07c-0.164-0.168-0.307-0.4-0.446-0.492c-0.119-0.078-0.19-0.211-0.188-0.352
		c0.013-2.027,0.256-4.02,0.049-5.797l-0.053-0.326l-0.069-0.252C3.818,16.236,3.808,16.119,3.808,16
		c0-1.903,2.661-3.167,5.469-3.167c0.35,0,0.7,0.021,1.043,0.059l0.8,0.138l-0.01-0.092c0-1.914,2.661-3.175,5.467-3.175
		c2.785,0,5.467,1.251,5.467,3.166c0,0.12-0.01,0.236-0.031,0.35l-0.027,0.102L22,13.45c-0.058,2.294-0.281,4.425-0.096,6.384
		c0.011,0.131-0.039,0.262-0.137,0.352c-1.08,0.977-3.312,1.764-5.544,1.738c-0.56-0.004-1.119-0.062-1.665-0.182l-0.023-0.006
		l0.012,0.432c0.012,0.248,0.029,0.496,0.053,0.738c0.012,0.133-0.039,0.266-0.137,0.354c-1.012,0.906-3.064,1.668-5.188,1.734
		C9.099,25.002,8.92,25.002,8.742,24.996z M8.99,24.158c1.8-0.004,3.581-0.564,4.589-1.27l0.169-0.133l-0.015-0.205l-0.026,0.018
		c-0.546,0.342-1.099,0.598-1.667,0.762l-0.116,0.016c-0.181-0.002-0.344-0.119-0.397-0.301c-0.064-0.221,0.062-0.455,0.286-0.52
		c0.475-0.141,0.959-0.361,1.447-0.666l0.437-0.297l-0.009-0.383c0.002-1.051,0.064-2.135,0.115-3.219l0.008-0.176l-0.061,0.053
		c-1.02,0.834-2.705,1.33-4.473,1.33c-1.319,0-2.599-0.277-3.587-0.766l-0.824-0.52l0.013,0.287l0,0.52l0.417,0.23
		c0.482,0.238,0.962,0.398,1.434,0.475c0.228,0.037,0.384,0.254,0.347,0.482c-0.034,0.201-0.204,0.344-0.404,0.352l-0.077-0.004
		c-0.567-0.094-1.125-0.281-1.678-0.555L4.86,19.637l-0.012,0.412c-0.026,0.631-0.059,1.256-0.08,1.867l-0.011,0.629
		c0.154,0.15,0.289,0.324,0.362,0.4l0.021,0.021C6.192,23.824,7.591,24.16,8.99,24.158z M16.127,21.084
		c1.43,0.033,2.863-0.305,3.916-0.791l0.914-0.531l0.095-0.074l-0.015-0.211l-0.026,0.02c-0.547,0.34-1.101,0.598-1.667,0.76
		l-0.115,0.018c-0.182-0.002-0.346-0.121-0.397-0.301c-0.065-0.223,0.063-0.455,0.284-0.521c0.475-0.139,0.959-0.361,1.447-0.666
		l0.441-0.299l-0.01-0.732c0.007-0.471,0.023-0.947,0.043-1.424l0.069-1.611l-0.054,0.047c-1.02,0.832-2.703,1.33-4.475,1.33
		l-0.869-0.088l-0.102-0.006l-0.098-0.014l-0.775-0.08l0.008,0.086c0,0.125-0.01,0.242-0.032,0.355l-0.026,0.102l0.014,0.072
		c-0.029,1.152-0.101,2.26-0.141,3.32l-0.02,1.027l0.183,0.049C15.178,21.02,15.65,21.072,16.127,21.084z M9.277,18.328
		c2.786,0,4.627-1.211,4.627-2.328c0-0.701-0.715-1.434-1.954-1.888l-0.298-0.098l-0.101-0.018l-0.031-0.011l-0.036-0.022
		l-0.331-0.087c-0.562-0.131-1.195-0.203-1.877-0.203c-2.281,0-3.939,0.812-4.458,1.725l-0.151,0.391L4.65,15.98l0.01,0.023
		l0.006,0.023l0.066,0.383l0.207,0.367C5.569,17.627,7.17,18.328,9.277,18.328z M9.257,17.26c-0.701,0-1.354-0.125-1.849-0.35
		c-0.247-0.109-0.473-0.256-0.642-0.436c-0.17-0.182-0.299-0.42-0.299-0.703c0-0.281,0.129-0.52,0.299-0.703
		c0.169-0.18,0.396-0.324,0.642-0.435c0.495-0.224,1.148-0.351,1.849-0.351c0.699,0,1.352,0.127,1.845,0.351
		c0.248,0.11,0.473,0.255,0.642,0.435c0.171,0.184,0.3,0.422,0.3,0.703c0,0.283-0.128,0.521-0.3,0.703
		c-0.168,0.18-0.395,0.326-0.642,0.436C10.609,17.135,9.956,17.26,9.257,17.26z M9.257,16.422c0.303,0,0.587-0.027,0.841-0.076
		l0.38-0.115l-0.282,0.004c-0.138-0.055-0.252-0.066-0.346-0.057c-0.095,0.01-0.192,0.043-0.294,0.107
		c-0.073,0.047-0.155,0.068-0.236,0.064c-0.135-0.004-0.266-0.072-0.348-0.195l-0.051-0.137l-0.005-0.033v-0.031l-0.251,0.031
		c-0.083-0.033-0.127-0.039-0.153-0.035c-0.017,0.002-0.052,0.008-0.105,0.059c-0.076,0.068-0.17,0.104-0.264,0.107
		c-0.121,0.008-0.242-0.039-0.329-0.137c-0.155-0.172-0.142-0.438,0.03-0.594l0.092-0.041l-0.181,0.055
		c-0.388,0.174-0.448,0.34-0.448,0.373c0,0.037,0.055,0.197,0.448,0.373C8.118,16.309,8.646,16.422,9.257,16.422z M10.534,16.213
		l0.225-0.068c0.386-0.174,0.447-0.338,0.447-0.373c0-0.037-0.056-0.195-0.447-0.373c-0.363-0.164-0.894-0.275-1.501-0.275
		l-0.5,0.045l0.217,0.035c0.094,0.037,0.166,0.105,0.212,0.188l0.029,0.146l0.551-0.195c0.234-0.023,0.482,0.01,0.74,0.111
		c0.214,0.086,0.32,0.33,0.236,0.547L10.534,16.213z M16.578,15.256c2.785,0,4.629-1.21,4.629-2.329
		c0-1.127-1.863-2.327-4.629-2.327c-2.787,0-4.629,1.209-4.629,2.327l0.028,0.25l0.032,0.089l0.222,0.064
		c0.765,0.281,1.417,0.674,1.865,1.154l0.371,0.504l0.39,0.096C15.388,15.193,15.969,15.256,16.578,15.256z M16.561,14.188
		c-0.701,0-1.355-0.128-1.851-0.351c-0.247-0.111-0.472-0.256-0.642-0.436c-0.17-0.184-0.299-0.42-0.299-0.704
		c0-0.282,0.129-0.519,0.299-0.701c0.17-0.182,0.395-0.325,0.642-0.436c0.495-0.224,1.147-0.352,1.851-0.352
		c0.697,0,1.352,0.128,1.846,0.352c0.246,0.111,0.472,0.254,0.641,0.436c0.172,0.183,0.301,0.419,0.301,0.701
		c0,0.284-0.129,0.521-0.301,0.704c-0.17,0.18-0.395,0.324-0.641,0.436C17.912,14.061,17.258,14.188,16.561,14.188z M16.561,13.349
		c0.303,0,0.588-0.027,0.842-0.076l0.301-0.091l-0.178,0.002c-0.137-0.055-0.252-0.067-0.344-0.057
		c-0.096,0.009-0.193,0.043-0.295,0.107c-0.075,0.047-0.156,0.068-0.238,0.064c-0.133-0.003-0.265-0.071-0.34-0.193l-0.045-0.192
		l-0.229,0.024l-0.041-0.006c-0.082-0.032-0.128-0.036-0.152-0.033c-0.018,0.001-0.053,0.008-0.107,0.058
		c-0.074,0.069-0.168,0.104-0.262,0.109c-0.121,0.005-0.244-0.041-0.33-0.138c-0.156-0.171-0.143-0.437,0.029-0.593l0.246-0.114
		l0.016-0.009l-0.379,0.113c-0.387,0.177-0.445,0.341-0.445,0.374c0,0.039,0.055,0.197,0.445,0.374
		C15.418,13.236,15.949,13.349,16.561,13.349z M17.904,13.119l0.156-0.047c0.387-0.175,0.447-0.339,0.447-0.374
		c0-0.036-0.057-0.195-0.447-0.374c-0.363-0.163-0.895-0.275-1.5-0.275L15.992,12.1l0.311,0.052
		c0.095,0.038,0.168,0.106,0.213,0.188l0.028,0.146l0.551-0.194c0.233-0.023,0.481,0.01,0.739,0.111
		c0.215,0.085,0.322,0.329,0.236,0.545L17.904,13.119z M2.983,11.86L2.91,11.854c-0.371-0.066-0.506-0.662-0.056-0.813l14.989-5.076
		l4.474-1.338c0.231-0.071,0.476,0.073,0.53,0.311l0.314,1.429c0.047,0.211-0.075,0.423-0.281,0.49l-4.53,1.449l-0.031,0.008
		L3.079,11.848L2.983,11.86L2.983,11.86z M2.424,10.917c-0.375,0.008-0.623-0.548-0.212-0.787l13.64-7.897l4.104-2.185
		c0.214-0.113,0.481-0.023,0.58,0.197l0.604,1.338c0.09,0.198,0.012,0.433-0.178,0.539l-4.141,2.305l-0.027,0.013L2.588,10.877
		l-0.145,0.038L2.424,10.917z M11.175,9.11l6.509-1.509l-0.168-0.638L11.175,9.11z M18.492,7.38l3.767-1.206l-0.135-0.613
		l-3.808,1.14L18.492,7.38z M9.935,6.628l6.091-2.76l-0.297-0.595L9.935,6.628z M16.775,3.493l3.441-1.915l-0.262-0.577
		l-3.496,1.858L16.775,3.493z"/>
</g>
</svg>
