<?xml version="1.0" encoding="utf-8"?>
<!-- Generator: Adobe Illustrator 15.0.0, SVG Export Plug-In . SVG Version: 6.00 Build 0)  -->
<!DOCTYPE svg PUBLIC "-//W3C//DTD SVG 1.1//EN" "http://www.w3.org/Graphics/SVG/1.1/DTD/svg11.dtd">
<svg version="1.1" id="Layer_1" xmlns="http://www.w3.org/2000/svg" xmlns:xlink="http://www.w3.org/1999/xlink" x="0px" y="0px"
	 width="25px" height="25px" viewBox="0 0 25 25" enable-background="new 0 0 25 25" xml:space="preserve">
<path marker-end="none" marker-start="none" fill="#333333" d="M11.037,24.992c-0.317,0.02-0.622,0-0.91-0.058
	c-1.464-0.248-2.344-0.886-3.211-2.161l-0.25-0.399l-0.241-0.069c-1.015-0.364-2.275-1.212-2.847-2.25l-0.1-0.238L3.24,19.733
	c-1.208-0.485-2.46-1.563-3.001-2.676c-0.009-0.017-0.016-0.037-0.024-0.055c-0.751-2.092,0.584-5.612,2.343-8.673
	c1.789-3.113,4.238-6.12,6.141-7.201c1.693-1.042,3.866-0.365,5.037,1.29l0.255,0.414l0.163,0.04
	c0.901,0.425,1.704,0.547,2.423,0.26c0.73-0.293,1.524-1.071,2.267-2.793c0.148-0.341,0.583-0.449,0.872-0.215l3.413,2.762
	c0.306,0.248,0.271,0.727-0.073,0.924c-2.631,1.521-2.556,3.3-1.563,5.024l0.041,0.123l0.402,0.111
	c1.854,0.62,3.15,2.424,2.47,4.753c-0.561,1.665-3.089,4.637-5.876,7.05C16.138,22.939,13.258,24.862,11.037,24.992z M10.661,23.869
	c0.114,0.005,0.233,0.003,0.358-0.005c1.722-0.127,4.292-1.699,6.772-3.844c2.785-2.411,5.093-5.211,5.54-6.537
	c0.715-2.452-1.646-4.254-4.163-3.272c-0.363,0.141-0.76-0.125-0.767-0.515c-0.05-2.979-1.422-3.871-3.837-3.57l-0.432,0.067
	l-1.273,1.254c-1.386,1.45-2.633,3.027-3.577,4.751C9.19,12.37,9.02,12.472,8.842,12.49c-0.11,0.009-0.221-0.013-0.322-0.067
	c-0.272-0.151-0.374-0.492-0.224-0.764c1.001-1.83,2.316-3.491,3.754-4.99l1.378-1.356l0.015-0.282
	c-0.023-2.651-2.643-3.875-4.17-2.931C7.625,3.032,5.301,5.814,3.533,8.891c-1.578,2.744-2.545,5.434-2.395,7.088l0.13,0.614
	l0.468,0.694c0.604,0.704,1.515,1.326,2.301,1.53c0.192,0.051,0.343,0.198,0.398,0.389c0.228,0.792,1.369,1.672,2.318,2.024
	l0.321,0.096l0.529-0.331c1.53-1.038,3.407-2.836,4.947-4.684c0.197-0.238,0.553-0.27,0.793-0.071
	c0.237,0.199,0.269,0.554,0.071,0.792c-1.573,1.887-3.531,3.778-5.196,4.903l-0.356,0.223l0.288,0.396
	c0.624,0.783,1.235,1.113,2.184,1.271C10.437,23.849,10.546,23.861,10.661,23.869z M3.937,11.678
	c-0.094-0.002-0.184-0.027-0.267-0.072c-0.272-0.153-0.367-0.496-0.214-0.768c0.415-0.736,0.845-1.45,1.292-2.138
	c0.17-0.256,0.518-0.332,0.78-0.162C5.787,8.709,5.86,9.056,5.69,9.318c-0.432,0.661-0.849,1.355-1.253,2.075
	C4.33,11.578,4.135,11.681,3.937,11.678z M19.486,8.95l0.458-0.085l0.298-0.017l-0.094-0.182c-0.736-1.725-0.599-3.564,1.279-5.101
	l0.389-0.292l-2.25-1.821l-0.319,0.579c-0.658,1.107-1.407,1.805-2.249,2.145c-0.568,0.226-1.139,0.279-1.698,0.21l-0.821-0.182
	l0.033,0.166l0.053,0.644l0.498-0.056c2.273-0.098,3.887,0.878,4.337,3.353L19.486,8.95z M6.337,7.901
	C6.227,7.899,6.119,7.863,6.026,7.796C5.773,7.613,5.717,7.261,5.899,7.009c1.194-1.653,2.524-3.096,4.056-4.187
	c0.254-0.179,0.606-0.12,0.786,0.13c0.179,0.254,0.12,0.607-0.133,0.788C9.204,4.738,7.958,6.081,6.811,7.669
	C6.696,7.826,6.516,7.908,6.337,7.901z"/>
</svg>
