<?xml version="1.0" encoding="utf-8"?>
<!-- Generator: Adobe Illustrator 15.0.0, SVG Export Plug-In . SVG Version: 6.00 Build 0)  -->
<!DOCTYPE svg PUBLIC "-//W3C//DTD SVG 1.1//EN" "http://www.w3.org/Graphics/SVG/1.1/DTD/svg11.dtd">
<svg version="1.1" id="Layer_1" xmlns="http://www.w3.org/2000/svg" xmlns:xlink="http://www.w3.org/1999/xlink" x="0px" y="0px"
	 width="25px" height="25px" viewBox="0 0 25 25" enable-background="new 0 0 25 25" xml:space="preserve">
<path marker-end="none" marker-start="none" fill="#333333" d="M8.69,21.357c-4.875,0-8.986-3.802-8.673-8.156
	c0.018-0.247,0.224-0.438,0.471-0.438h2.242c0.112,0,0.222,0.039,0.306,0.112c0.238,0.203,0.479,0.392,0.717,0.563l0.639,0.424
	l-0.004-0.026C3.732,9.789,7.196,5.437,12.214,3.7c4.015-1.387,8.171-0.8,10.548,1.39l0.398,0.417l0.514-0.461
	c0.172-0.167,0.336-0.344,0.502-0.529c0.172-0.195,0.471-0.212,0.666-0.04c0.193,0.174,0.213,0.471,0.039,0.667
	c-0.176,0.197-0.357,0.391-0.549,0.577l-0.588,0.529l0.049,0.066c0.289,0.451,0.518,0.948,0.682,1.482
	c1.25,4.104-2.033,8.738-7.049,10.724c-0.195,0.075-0.393,0.148-0.592,0.217c-0.691,0.239-1.385,0.42-2.068,0.545l-0.049-0.002
	l-0.215,0.172C12.877,20.633,10.821,21.357,8.69,21.357z M8.69,20.415c4.188,0,7.89-3.062,8.21-6.474l0.014-0.234h-1.941
	l-0.654,0.41c-3.771,2.248-7.646,2.819-11.496-0.197l-0.261-0.213H0.954l-0.002,0.25C1.138,17.374,4.511,20.415,8.69,20.415z
	 M16.084,17.981l0.443-0.134c0.186-0.065,0.371-0.132,0.551-0.204c4.801-1.899,7.537-6.151,6.494-9.571
	c-0.135-0.441-0.328-0.852-0.574-1.232l-0.025-0.036l-0.477,0.28l0.221,0.207c0.203,0.162,0.234,0.461,0.072,0.664
	c-0.092,0.115-0.227,0.173-0.363,0.175c-0.105,0.002-0.213-0.033-0.301-0.105c-0.594-0.477-0.977-1.099-1.289-1.681
	c-0.125-0.231-0.039-0.517,0.191-0.639c0.227-0.124,0.516-0.038,0.639,0.191l0.262,0.43l0.037-0.024l0.408-0.239l-0.258-0.27
	c-2.057-1.89-5.742-2.531-9.591-1.201c-5.134,1.774-8.129,6.226-7.046,9.773l0.005,0.059l0.417,0.178
	c2.864,1.051,5.737,0.173,8.677-1.761c0.078-0.05,0.168-0.077,0.26-0.077h2.555c0.252,0,0.459,0.2,0.471,0.452
	c0.068,1.633-0.52,3.186-1.537,4.488L16.084,17.981z M8.768,17.812c-2.105,0.032-4.211-0.743-6.297-2.251
	c-0.213-0.152-0.259-0.447-0.108-0.659c0.153-0.209,0.448-0.258,0.66-0.105c3.843,2.773,7.616,2.856,11.45-0.312
	c0.201-0.164,0.5-0.137,0.666,0.063c0.164,0.202,0.139,0.499-0.064,0.665C12.98,16.942,10.874,17.782,8.768,17.812z M12.127,6.996
	c-0.166,0.001-0.33-0.084-0.417-0.241c-0.128-0.227-0.046-0.514,0.18-0.643c1.866-1.047,3.784-1.299,5.724-0.979
	c0.26,0.042,0.432,0.286,0.389,0.543c-0.043,0.257-0.287,0.429-0.543,0.387c-1.742-0.289-3.443-0.062-5.107,0.873
	C12.28,6.976,12.203,6.994,12.127,6.996z"/>
</svg>
