<?xml version="1.0" encoding="utf-8"?>
<!-- Generator: Adobe Illustrator 15.0.0, SVG Export Plug-In . SVG Version: 6.00 Build 0)  -->
<!DOCTYPE svg PUBLIC "-//W3C//DTD SVG 1.1//EN" "http://www.w3.org/Graphics/SVG/1.1/DTD/svg11.dtd">
<svg version="1.1" id="Layer_1" xmlns="http://www.w3.org/2000/svg" xmlns:xlink="http://www.w3.org/1999/xlink" x="0px" y="0px"
	 width="25px" height="25px" viewBox="0 0 25 25" enable-background="new 0 0 25 25" xml:space="preserve">
<path marker-end="none" marker-start="none" fill="#4C4C4C" d="M4.424,24.623c-1.489,0-2.699-1.209-2.699-2.699V8.397H0.214
	c-0.217-0.387-0.346-0.773,0-1.16h0.833L1.054,7.03c0.034-0.276,0.11-0.544,0.22-0.801c0.217-0.503,0.562-0.958,0.959-1.371
	l0.419-0.18h8.889v-0.67L11.487,3.99c-0.713-0.263-1.222-0.947-1.222-1.751c0-1.028,0.833-1.862,1.863-1.862
	c1.028,0,1.862,0.834,1.862,1.862c0,0.804-0.508,1.489-1.223,1.751l-0.064,0.021v0.667h9.457l0.457,0.225
	c0.484,0.622,0.771,1.303,0.93,2.005l0.055,0.329h1.197c0.289,0.387,0.246,0.773,0,1.16h-1.877v13.526
	c0,1.49-1.211,2.699-2.697,2.699H4.424z M20.225,23.463c0.846,0,1.535-0.691,1.535-1.539V8.397H2.886v13.526
	c0,0.848,0.689,1.539,1.538,1.539H20.225z M4.376,16.857v-6.621c0.323-0.256,0.68-0.376,1.162,0v6.621
	C5.169,17.066,4.783,17.07,4.376,16.857z M6.876,14.428v-4.19c0.367-0.31,0.755-0.301,1.161,0v4.19
	C7.631,14.672,7.243,14.678,6.876,14.428z M22.404,7.237l-0.105-0.485c-0.104-0.317-0.246-0.616-0.434-0.897L2.907,5.84L2.832,5.927
	c-0.221,0.26-0.383,0.513-0.49,0.76c-0.068,0.16-0.115,0.319-0.133,0.479l0.003,0.071H22.404z M12.128,2.941
	c0.386,0,0.701-0.314,0.701-0.702c0-0.385-0.315-0.701-0.701-0.701c-0.387,0-0.701,0.316-0.701,0.701
	C11.427,2.627,11.741,2.941,12.128,2.941z"/>
</svg>
