<?xml version="1.0" encoding="utf-8"?>
<!-- Generator: Adobe Illustrator 15.0.0, SVG Export Plug-In . SVG Version: 6.00 Build 0)  -->
<!DOCTYPE svg PUBLIC "-//W3C//DTD SVG 1.1//EN" "http://www.w3.org/Graphics/SVG/1.1/DTD/svg11.dtd">
<svg version="1.1" id="Layer_1" xmlns="http://www.w3.org/2000/svg" xmlns:xlink="http://www.w3.org/1999/xlink" x="0px" y="0px"
	 width="25px" height="25px" viewBox="0 0 25 25" enable-background="new 0 0 25 25" xml:space="preserve">
<path marker-end="none" marker-start="none" fill="#333333" d="M12.133,25c-1.529,0-2.941-0.131-3.983-0.4
	c-0.519-0.131-0.978-0.307-1.317-0.531c-0.345-0.232-0.631-0.566-0.631-1.021v-0.553L6.16,22.465
	c-0.149-0.119-0.276-0.262-0.353-0.428c-0.024-0.053-0.044-0.109-0.058-0.168l-0.008-0.076l-0.032-0.059
	c-0.022-0.053-0.035-0.113-0.035-0.176v-0.205L5.666,21.32l0.008-0.072v-5.762l-0.008-0.035l0.008-0.07V3.835
	c0-0.125,0.05-0.237,0.132-0.319l0.005-0.004l0.033-0.098c0.212-0.472,0.843-0.762,1.447-0.952c0.504-0.161,1.127-0.293,1.829-0.391
	l0.197-0.023L9.317,2.042C9.248,1.796,9.213,1.552,9.217,1.32C9.226,0.87,9.395,0.381,9.848,0.137
	c0.786-0.423,1.827,0.182,2.413,1.181c0.069,0.119,0.131,0.241,0.183,0.364l0.073,0.203l0.8,0.019
	c1.099,0.05,2.09,0.175,2.892,0.354c0.534,0.118,1.001,0.264,1.362,0.438c0.34,0.162,0.684,0.392,0.829,0.73l0.034,0.106
	l0.043,0.052c0.048,0.071,0.076,0.157,0.076,0.251v17.723c0,0.062-0.014,0.123-0.035,0.176L18.5,21.768l-0.012,0.102
	c-0.014,0.059-0.031,0.115-0.057,0.168c-0.077,0.166-0.205,0.309-0.354,0.426l-0.041,0.031v0.553c0,0.455-0.286,0.789-0.627,1.02
	c-0.337,0.227-0.793,0.402-1.307,0.533C15.064,24.869,13.661,25,12.133,25z M12.133,24.098c1.488,0,2.81-0.131,3.744-0.371
	c0.473-0.121,0.814-0.262,1.027-0.406c0.194-0.133,0.23-0.229,0.23-0.273v-0.113l-0.014,0.006c-0.279,0.096-0.592,0.18-0.934,0.252
	c-1.089,0.238-2.516,0.379-4.068,0.379c-1.551,0-2.978-0.141-4.07-0.379c-0.339-0.072-0.653-0.156-0.932-0.252l-0.014-0.006v0.113
	c0,0.041,0.031,0.139,0.232,0.271c0.216,0.145,0.562,0.287,1.037,0.408C9.314,23.967,10.642,24.098,12.133,24.098z M12.119,22.668
	c1.504,0,2.865-0.137,3.879-0.355c0.509-0.111,0.914-0.24,1.203-0.373c0.145-0.066,0.249-0.129,0.319-0.188
	c0.054-0.041,0.077-0.068,0.088-0.082v-0.025l0.042-0.143v-6.594l-0.178,0.16c-0.997,0.822-2.46,1.252-3.17,1.387
	c-3.138,0.596-6.133,1.191-7.532,4.314l-0.195,0.498v0.209l0.007,0.008c0.025,0.049,0.041,0.104,0.047,0.16l0.001,0.023
	c0.01,0.016,0.033,0.043,0.088,0.084c0.071,0.059,0.176,0.121,0.319,0.188c0.289,0.133,0.695,0.262,1.205,0.373
	C9.256,22.531,10.616,22.668,12.119,22.668z M6.575,19.34l0.149-0.227c1.793-2.465,4.768-3.012,7.417-3.516
	c1.301-0.244,3.488-1.135,3.488-2.443l0.021-0.113V9.038l-0.178,0.163c-0.997,0.82-2.46,1.252-3.17,1.386
	c-3.138,0.595-6.133,1.194-7.532,4.313l-0.195,0.5V19.34z M6.575,13.473l0.149-0.227c1.793-2.466,4.768-3.013,7.417-3.517
	c1.301-0.246,3.488-1.137,3.488-2.444l0.021-0.112v-0.77l-0.069,0.042c-0.372,0.17-0.847,0.316-1.394,0.434
	c-1.089,0.238-2.516,0.377-4.068,0.377c-1.551,0-2.978-0.14-4.07-0.377C7.505,6.763,7.03,6.617,6.658,6.446L6.575,6.397V13.473z
	 M12.119,6.356c1.504,0,2.865-0.138,3.879-0.357c0.509-0.11,0.914-0.239,1.203-0.372c0.145-0.067,0.249-0.13,0.319-0.187
	c0.054-0.041,0.077-0.071,0.088-0.083V5.331l0.042-0.143V4.764l-0.102,0.061c-0.369,0.172-0.843,0.317-1.385,0.436
	c-1.084,0.237-2.502,0.377-4.045,0.377c-1.542,0-2.96-0.141-4.046-0.377C7.532,5.142,7.06,4.997,6.69,4.825L6.575,4.757v0.407
	l0.007,0.009c0.025,0.048,0.041,0.103,0.047,0.158L6.63,5.356C6.64,5.37,6.663,5.4,6.718,5.441C6.79,5.498,6.894,5.56,7.038,5.627
	C7.327,5.76,7.733,5.889,8.242,6C9.256,6.219,10.616,6.356,12.119,6.356z M12.119,4.737c1.494,0,2.846-0.137,3.854-0.357
	c0.504-0.11,0.908-0.238,1.193-0.372c0.143-0.067,0.246-0.129,0.317-0.184c0.018-0.015,0.032-0.027,0.042-0.039l0.027-0.029
	L17.528,3.73c-0.012-0.011-0.025-0.023-0.04-0.037c-0.068-0.055-0.168-0.117-0.305-0.184c-0.279-0.134-0.674-0.261-1.17-0.372
	c-0.744-0.165-1.684-0.285-2.738-0.333L12.674,2.79l-0.036,0.321l-0.02,0.055h0.8c0.248,0,0.45,0.203,0.45,0.452
	c0,0.248-0.202,0.45-0.45,0.45H11.75l-0.014-0.001l-0.317,0.022c-0.488-0.028-1.002-0.333-1.414-0.799L9.73,2.907L9.244,2.964
	C8.582,3.058,8.01,3.179,7.564,3.321C7.266,3.416,7.04,3.514,6.88,3.609c-0.084,0.05-0.136,0.092-0.167,0.124L6.688,3.758
	l0.025,0.026c0.012,0.011,0.025,0.023,0.043,0.039c0.07,0.055,0.173,0.117,0.316,0.184C7.358,4.141,7.761,4.27,8.265,4.379
	C9.273,4.6,10.626,4.737,12.119,4.737z M11.504,3.185c0.051,0,0.088-0.013,0.112-0.025c0.058-0.03,0.153-0.132,0.158-0.407
	c0.005-0.267-0.083-0.619-0.292-0.979c-0.21-0.359-0.48-0.619-0.728-0.756C10.5,0.875,10.341,0.896,10.276,0.93
	c-0.057,0.031-0.152,0.133-0.157,0.409c-0.005,0.266,0.083,0.619,0.292,0.978c0.209,0.358,0.479,0.617,0.727,0.755
	C11.298,3.162,11.42,3.187,11.504,3.185z"/>
</svg>
