<?xml version="1.0" encoding="utf-8"?>
<!-- Generator: Adobe Illustrator 15.0.0, SVG Export Plug-In . SVG Version: 6.00 Build 0)  -->
<!DOCTYPE svg PUBLIC "-//W3C//DTD SVG 1.1//EN" "http://www.w3.org/Graphics/SVG/1.1/DTD/svg11.dtd">
<svg version="1.1" id="Layer_1" xmlns="http://www.w3.org/2000/svg" xmlns:xlink="http://www.w3.org/1999/xlink" x="0px" y="0px"
	 width="25px" height="25px" viewBox="0 0 25 25" enable-background="new 0 0 25 25" xml:space="preserve">
<path marker-end="none" marker-start="none" fill="#333333" d="M12.294,23.067c-5.185,0.11-9.623-3.437-11.269-9.052
	c-0.004-0.008-0.008-0.027-0.009-0.037c-0.491-2.196-0.454-3.588-0.107-4.614c0.252-0.757,0.677-1.299,1.047-1.747l0.209-0.262
	L1.842,6.313c-0.364-1.019-0.806-1.788-1.62-2.417c-0.367-0.282-0.261-0.864,0.185-0.997l2.504-0.75
	c0.268-0.08,0.555,0.047,0.677,0.299c0.28,0.586,0.579,1.192,0.893,1.818l0.765,1.526l0.119-0.087c1.066-0.495,2.376,0,3.4,0.425
	c0.575,0.238,1.128,0.494,1.683,0.71c0.55,0.218,1.053,0.378,1.497,0.434c1.528,0.139,2.778-0.305,3.959-1.051
	c1.219-0.766,2.369-1.855,3.58-2.864c0.131-0.107,0.301-0.153,0.465-0.122l0.689,0.124c0.141,0.023,0.266,0.099,0.354,0.211
	c0.566,0.735,0.834,1.703,0.637,2.823l0,0l0.016-0.004c0.117-0.036,0.246-0.031,0.363,0.013l0.754,0.288
	c0.135,0.051,0.244,0.148,0.309,0.275c0.43,0.858,0.543,1.88,0.201,2.978l-0.125,0.323l0.211-0.068
	c0.16-0.048,0.334-0.024,0.479,0.067l0.775,0.499c0.121,0.076,0.205,0.195,0.242,0.332c0.375,1.389,0.057,2.982-1.281,4.458
	c-0.004,0.006-0.018,0.02-0.023,0.025c-1.381,1.354-2.764,2.276-4.312,2.847l-0.57,0.185l0.094,0.15
	c0.076,0.121,0.104,0.265,0.078,0.406c-0.24,1.308-1.135,2.509-2.828,3.207c-0.008,0.001-0.023,0.009-0.031,0.012
	C14.729,22.821,13.492,23.042,12.294,23.067z M11.637,21.919c0.927,0.041,1.883-0.051,2.854-0.282l1.098-0.319l0.467-0.22
	c0.74-0.402,1.197-0.921,1.451-1.467l0.152-0.48l-0.162-0.256l-0.1-0.01l-0.07-0.025l-2.398-0.318
	c-2.83-0.402-5.61-1.082-7.591-3.727c-1.493-2.166-1.786-6.054-3.365-6.728c-0.29-0.123-0.424-0.458-0.3-0.749
	C3.795,7.05,4.13,6.916,4.42,7.038c2.231,0.953,2.496,5.155,3.844,7.111c1.989,2.657,4.852,3.007,8.189,3.44l1.068,0.146
	l1.139-0.311c1.223-0.422,2.338-1.086,3.451-2.063l0.627-0.582l0.361-0.441c0.66-0.908,0.838-1.791,0.73-2.565l-0.033-0.174
	l-0.355-0.227l-2.723,0.875c-2.988,0.927-6.041,1.556-9.227-0.126c-2.143-1.236-4.067-4.267-5.796-4.953L5.541,7.122L5.352,7.145
	c-0.151,0.04-0.307,0.014-0.431-0.062L4.846,7.016L4.803,7.011C4.646,6.971,4.51,6.867,4.434,6.715
	C4.103,6.055,3.778,5.408,3.462,4.777L2.777,3.38L1.671,3.71l0.141,0.155c0.755,0.929,1.125,2.028,1.47,3.242
	C3.305,7.183,3.309,7.26,3.301,7.333L3.288,7.374l0.027,0.09C3.337,7.606,3.301,7.76,3.206,7.885
	c-0.529,0.69-0.957,1.072-1.215,1.841c-0.221,0.654-0.312,1.621-0.015,3.26l0.147,0.723l0.388,1.146
	C4.167,19.11,7.625,21.74,11.637,21.919z M17.209,15.696c-0.314,0-0.568-0.255-0.568-0.569c0-0.316,0.256-0.569,0.57-0.569
	c1.725,0.004,3.133-0.461,4.248-1.405c0.24-0.201,0.598-0.172,0.801,0.069c0.205,0.239,0.176,0.601-0.066,0.803
	C20.838,15.172,19.152,15.701,17.209,15.696z M3.391,14.044c-0.222,0.002-0.435-0.126-0.528-0.343
	c-0.507-1.167-0.528-2.356-0.357-3.507C2.551,9.881,2.84,9.667,3.153,9.713c0.311,0.045,0.525,0.336,0.478,0.645
	c-0.15,1.029-0.116,1.984,0.277,2.889c0.125,0.288-0.007,0.622-0.295,0.749C3.539,14.027,3.465,14.044,3.391,14.044z M15.467,12.035
	c1.588,0.051,3.184-0.347,4.879-0.872l1.363-0.437v-0.024c0.008-0.073,0.033-0.146,0.074-0.213c0.623-1.06,0.656-1.98,0.396-2.707
	l-0.047-0.108l-0.281-0.105l-0.975,0.551c-1.191,0.684-2.371,1.365-3.6,1.844c-1.67,0.655-3.457,0.946-5.5,0.359
	c-0.326-0.107-0.648-0.249-0.964-0.412l-0.722-0.418l0.328,0.332c0.537,0.519,1.074,0.981,1.624,1.299
	C13.2,11.733,14.33,12,15.467,12.035z M13.975,9.5c0.998-0.002,1.947-0.232,2.889-0.599c0.773-0.302,1.541-0.698,2.314-1.128
	l0.955-0.542l0.008-0.016c0.072-0.132,0.115-0.212,0.176-0.348l0.029-0.063l0.062-0.198c0.268-0.891,0.141-1.592-0.166-2.109
	l-0.037-0.055l-0.189-0.033l-0.719,0.606c-0.91,0.783-1.809,1.56-2.785,2.173c-1.166,0.735-2.456,1.247-4.009,1.253
	c-0.223,0-0.449-0.011-0.682-0.032c-0.604-0.077-1.211-0.279-1.788-0.504L9.246,7.577L9.632,7.84
	c0.288,0.195,0.573,0.385,0.865,0.572c0.575,0.363,1.115,0.658,1.616,0.821C12.756,9.417,13.375,9.5,13.975,9.5z"/>
</svg>
