<?xml version="1.0" encoding="utf-8"?>
<!-- Generator: Adobe Illustrator 15.0.0, SVG Export Plug-In . SVG Version: 6.00 Build 0)  -->
<!DOCTYPE svg PUBLIC "-//W3C//DTD SVG 1.1//EN" "http://www.w3.org/Graphics/SVG/1.1/DTD/svg11.dtd">
<svg version="1.1" id="Layer_1" xmlns="http://www.w3.org/2000/svg" xmlns:xlink="http://www.w3.org/1999/xlink" x="0px" y="0px"
	 width="25px" height="25px" viewBox="0 0 25 25" enable-background="new 0 0 25 25" xml:space="preserve">
<path id="Fire" fill="#333333" d="M22.357,10.132c-0.154,0.029-0.805,0.161-1.568,0.623c-0.404,0.244-0.674,0.48-0.842,0.629
	c-0.135,0.118-0.677,0.607-1.268,1.5c-0.339,0.511-0.539,0.92-0.563,0.969c-0.021,0.042-0.048,0.089-0.083,0.141
	c-0.085,0.131-0.287,0.051-0.262-0.102c0.035-0.204,0.059-0.365,0.074-0.473c0.127-0.915,0.504-3.628-0.361-5.986
	c-0.395-1.079-1.028-2.115-1.028-2.115c-0.331-0.54-0.587-0.873-0.587-0.873c-2.479-3.218-6.166-4.15-7.919-4.442
	C7.81-0.021,7.724,0.153,7.83,0.249C8.805,1.13,9.411,2.01,9.769,2.617c0.358,0.608,0.856,1.472,1.049,2.703
	c0.126,0.806,0.069,1.439,0.046,1.655c-0.086,0.792-0.306,1.371-0.431,1.694C10.204,9.259,9.949,9.688,9.821,9.89
	c-0.185,0.293-0.375,0.547-0.556,0.763c-0.091,0.109-0.269,0.032-0.251-0.11c0.021-0.178,0.043-0.398,0.057-0.644
	c0.062-1.123-0.121-1.96-0.121-1.96C8.796,7.202,8.59,6.227,7.767,5.495C7.54,5.293,7.306,5.146,7.092,5.038
	C6.96,4.971,6.825,5.122,6.907,5.244C7.2,5.68,7.526,6.343,7.505,7.143C7.485,7.925,7.144,8.598,6.87,9.121
	c-0.09,0.173-0.25,0.477-0.517,0.826c-0.092,0.12-0.136,0.167-0.337,0.422c-0.204,0.258-0.334,0.435-0.431,0.562
	c-0.298,0.395-0.664,0.839-0.745,0.939c-1.787,2.218-1.84,4.652-1.84,4.652c-0.018,1.092,0.257,1.94,0.418,2.423
	c0.075,0.225,0.404,1.177,1.178,2.268c0.232,0.327,0.666,0.926,1.354,1.562c0.065,0.061,0.17,0.047,0.218-0.028
	c1.527-2.37,3.06-3.878,4.339-4.876c0.774-0.604,2.224-1.621,2.657-3.398c0.344-1.408-0.076-2.78-0.609-3.855
	c-0.069-0.14,0.103-0.274,0.221-0.172c1.096,0.946,3.233,3.184,3.603,6.624c0.297,2.771-0.64,5.541-2.486,7.695
	c-0.087,0.102,0,0.256,0.132,0.234c0.666-0.111,1.174-0.271,1.479-0.369c0.542-0.176,1.426-0.469,2.299-1.115
	c1.928-1.426,3.137-4.096,3.09-6.521c-0.02-1.029-0.265-1.902,0.016-3.418c0.175-0.942,0.443-1.548,0.674-1.965
	c0.288-0.523,0.617-0.932,0.908-1.238c0.097-0.101,0.009-0.266-0.128-0.24C22.36,10.131,22.359,10.132,22.357,10.132z"/>
</svg>
