<?xml version="1.0" encoding="utf-8"?>
<!-- Generator: Adobe Illustrator 15.0.0, SVG Export Plug-In . SVG Version: 6.00 Build 0)  -->
<!DOCTYPE svg PUBLIC "-//W3C//DTD SVG 1.1//EN" "http://www.w3.org/Graphics/SVG/1.1/DTD/svg11.dtd">
<svg version="1.1" id="Layer_1" xmlns="http://www.w3.org/2000/svg" xmlns:xlink="http://www.w3.org/1999/xlink" x="0px" y="0px"
	 width="25px" height="25px" viewBox="0 0 25 25" enable-background="new 0 0 25 25" xml:space="preserve">
<path marker-end="none" marker-start="none" fill="#333333" d="M12.582,19.873c-4.364,0.048-8.205-1.883-8.263-4.582
	c-0.001-0.026,0.001-0.053,0.005-0.077c0.025-0.165,0.081-0.313,0.163-0.446l0.052-0.066l-0.572-0.217
	c-0.21-0.094-0.407-0.201-0.588-0.318c-0.729-0.475-1.237-1.162-1.237-2.037v-0.194l0.012-0.256l-1.584,0.28
	c-0.023,0.004-0.046,0.007-0.068,0.008c-0.34,0.013-0.598-0.332-0.468-0.664l0.655-1.676c0.125-0.318,0.532-0.412,0.783-0.179
	l1.043,0.972l0.157-0.258c0.362-0.529,0.921-0.954,1.709-1.136l0.087-0.015L4.412,8.788C4.407,8.763,4.406,8.737,4.406,8.71
	c0.059-2.708,3.917-4.629,8.264-4.583c4.396,0.048,8.129,2.078,8.07,4.769c0,0.021-0.002,0.041-0.006,0.061l-0.021,0.087
	l0.281,0.081c0.681,0.231,1.192,0.66,1.526,1.181l0.047,0.08l0.958-0.893c0.251-0.233,0.659-0.141,0.784,0.179l0.655,1.676
	c0.129,0.331-0.129,0.677-0.467,0.663c-0.024,0-0.048-0.003-0.069-0.008l-1.443-0.254L23,11.935v0.194
	c0,0.875-0.505,1.557-1.232,2.028c-0.182,0.118-0.378,0.226-0.588,0.319l-0.648,0.244l0.057,0.106
	c0.027,0.068,0.048,0.142,0.061,0.218c0.002,0.02,0.004,0.039,0.004,0.061C20.712,17.803,16.966,19.826,12.582,19.873z M12.572,19
	c4.072-0.045,7.057-1.806,7.201-3.693l0.004-0.141l-0.008-0.027c-0.009-0.011-0.021-0.02-0.043-0.032
	c-0.062-0.03-0.174-0.065-0.375-0.085l-0.194-0.011l-0.159,0.024c-2.145,0.285-4.289,0.406-6.431,0.396
	c-2.142-0.012-4.282-0.155-6.418-0.394l-0.267-0.041L5.865,15c-0.41,0.009-0.598,0.125-0.658,0.281l-0.011,0.037l0.011,0.137
	C5.43,17.334,8.477,19.043,12.572,19z M12.428,17.765c-0.141,0.002-0.279-0.063-0.365-0.186c-0.139-0.199-0.091-0.473,0.105-0.611
	l0.439-0.306c0.197-0.139,0.471-0.091,0.609,0.106c0.137,0.198,0.09,0.473-0.107,0.61l-0.438,0.306
	C12.597,17.736,12.512,17.763,12.428,17.765z M16.453,17.326c-0.141,0.003-0.279-0.062-0.367-0.186
	c-0.137-0.199-0.09-0.473,0.108-0.609l0.437-0.307c0.199-0.139,0.473-0.09,0.611,0.107c0.137,0.197,0.09,0.471-0.108,0.609
	l-0.438,0.307C16.623,17.3,16.539,17.325,16.453,17.326z M8.743,17.064c-0.141-0.001-0.278-0.069-0.362-0.195l-0.262-0.395
	c-0.135-0.2-0.08-0.472,0.121-0.605c0.202-0.134,0.473-0.08,0.607,0.121l0.262,0.394c0.134,0.2,0.08,0.474-0.12,0.608
	C8.912,17.042,8.827,17.064,8.743,17.064z M12.572,14.556c2.109,0.009,4.215-0.11,6.32-0.388c0.996-0.113,1.828-0.375,2.398-0.744
	c0.562-0.367,0.835-0.805,0.835-1.295v-0.194c0-0.107-0.01-0.217-0.025-0.325l-0.039-0.165l-0.025-0.029
	c-0.044-0.075-0.07-0.16-0.072-0.246l0.002-0.023l-0.077-0.19c-0.387-0.751-1.275-1.364-2.862-1.063
	c-4.391,0.804-8.674,0.617-12.901,0c-2.372-0.439-3.108,0.928-3.108,2.042v0.194c0,0.49,0.273,0.934,0.839,1.303
	c0.57,0.373,1.401,0.637,2.385,0.734C8.355,14.404,10.465,14.543,12.572,14.556z M15.67,13.357c-0.434,0-0.826-0.115-1.181-0.26
	c-0.347-0.144-0.685-0.332-0.981-0.482c-0.629-0.317-1.154-0.52-1.78-0.365c-0.565,0.139-1.02,0.475-1.549,0.711
	c-0.598,0.266-1.266,0.385-2.121-0.043c-0.516-0.26-1.089-0.704-1.625-0.894c-0.251-0.088-0.444-0.105-0.6-0.061
	c-0.145,0.04-0.322,0.151-0.508,0.46c-0.124,0.207-0.394,0.273-0.6,0.148c-0.208-0.124-0.275-0.393-0.149-0.601
	c0.271-0.449,0.611-0.733,1.019-0.85c0.397-0.113,0.791-0.043,1.13,0.078c0.644,0.229,1.28,0.711,1.726,0.935
	c0.569,0.287,0.958,0.212,1.373,0.027c0.482-0.214,1-0.589,1.695-0.761c0.959-0.236,1.74,0.106,2.384,0.436
	c0.316,0.16,0.619,0.328,0.922,0.453c0.291,0.119,0.565,0.191,0.846,0.191c0.542,0,0.911-0.267,1.341-0.628
	c0.202-0.171,0.439-0.382,0.694-0.542c0.269-0.164,0.582-0.294,0.962-0.294c0.118,0,0.333-0.027,0.561-0.041
	c0.201-0.012,0.521-0.025,0.774,0.077c0.076,0.031,0.162,0.079,0.239,0.153c0.173,0.167,0.178,0.445,0.009,0.619
	c-0.148,0.15-0.379,0.172-0.55,0.063l-0.035-0.026c-0.028-0.009-0.127-0.028-0.384-0.013c-0.195,0.013-0.443,0.042-0.614,0.042
	c-0.167,0-0.324,0.055-0.499,0.163c-0.187,0.116-0.361,0.272-0.594,0.468C17.139,12.888,16.556,13.357,15.67,13.357z M23.746,10.896
	l-0.08-0.205l-0.172,0.161L23.746,10.896z M1.252,10.851l0.253-0.043l-0.171-0.161L1.252,10.851z M12.525,9.55
	c1.572,0.016,3.152-0.064,4.744-0.271l1.59-0.247l0.002-0.003c0.047-0.03,0.105-0.053,0.171-0.064l0.788-0.131l0.037-0.001
	l0.003-0.141c-0.146-1.894-3.147-3.647-7.2-3.69C8.586,4.959,5.52,6.659,5.293,8.547L5.284,8.678l0.028,0.079
	c0.018,0.03,0.044,0.057,0.08,0.08c0.085,0.055,0.25,0.117,0.551,0.123c0.061,0.001,0.119,0.015,0.169,0.039l0.018,0.013L6.268,9.03
	C8.344,9.332,10.426,9.528,12.525,9.55z M20.204,8.962l-0.062-0.051l-0.082-0.03l-0.107-0.002l0.082,0.067L20.204,8.962z
	 M16.04,8.182c-0.085-0.001-0.169-0.028-0.242-0.081l-0.612-0.438c-0.197-0.14-0.242-0.414-0.103-0.61
	c0.141-0.195,0.415-0.242,0.61-0.102l0.613,0.437c0.196,0.141,0.242,0.414,0.102,0.61C16.32,8.123,16.18,8.186,16.04,8.182z
	 M7.908,7.876c-0.169-0.002-0.33-0.103-0.399-0.271C7.417,7.381,7.524,7.126,7.748,7.033l0.743-0.306
	C8.715,6.636,8.97,6.742,9.062,6.966c0.093,0.223-0.014,0.479-0.238,0.571L8.081,7.843C8.025,7.867,7.967,7.876,7.908,7.876z
	 M12.077,7.702c-0.141,0.002-0.28-0.062-0.366-0.188c-0.138-0.198-0.09-0.471,0.108-0.609l0.438-0.306
	c0.198-0.138,0.471-0.091,0.608,0.107c0.14,0.199,0.092,0.471-0.105,0.609l-0.438,0.307C12.246,7.674,12.162,7.699,12.077,7.702z"/>
</svg>
