<?xml version="1.0" encoding="utf-8"?>
<!-- Generator: Adobe Illustrator 15.0.0, SVG Export Plug-In . SVG Version: 6.00 Build 0)  -->
<!DOCTYPE svg PUBLIC "-//W3C//DTD SVG 1.1//EN" "http://www.w3.org/Graphics/SVG/1.1/DTD/svg11.dtd">
<svg version="1.1" id="Layer_1" xmlns="http://www.w3.org/2000/svg" xmlns:xlink="http://www.w3.org/1999/xlink" x="0px" y="0px"
	 width="25px" height="25px" viewBox="0 0 25 25" enable-background="new 0 0 25 25" xml:space="preserve">
<path marker-end="none" marker-start="none" fill="#333333" d="M2.261,24.997c-0.667,0.022-1.282-0.086-1.719-0.454
	C0.19,24.246,0.03,23.853,0,23.427l0.006-0.375V12.393c0.029-1.348,1.023-2.421,1.796-3.233c1.02-1.077,1.449-1.585,1.449-2.055
	V0.573L3.824,0h3.397l0.573,0.573v6.531c0,0.225,0.111,0.5,0.386,0.871C8.454,8.343,8.823,8.72,9.238,9.16
	c0.776,0.812,1.769,1.886,1.802,3.233l-0.003,10.659l0.006,0.375c-0.033,0.426-0.19,0.819-0.543,1.116
	c-0.436,0.368-1.053,0.477-1.716,0.454H2.261z M13.053,24.448c-0.352,0-0.583-0.372-0.422-0.687c0.208-0.412,0.609-0.68,1.103-0.844
	c0.042-0.013,0.087-0.02,0.132-0.023c1.112-0.038,2.026-0.259,2.75-0.649l0.493-0.336v-3.741c0-0.648-0.151-0.935-0.504-1.092
	c-4.485-1.954-5.13-4.579-4.516-7.25c0.576-2.507,2.198-4.944,2.243-6.833c0.008-0.256,0.219-0.461,0.475-0.461h7.336
	c0.242,0,0.442,0.182,0.47,0.421c0.226,2.062,1.418,4.134,1.999,6.251l0.057,0.256l0.021,0.029c0.024,0.057,0.038,0.119,0.038,0.187
	l-0.004,0.021l0.096,0.415c0.425,2.434-0.326,4.698-4.053,6.59l-0.728,0.346l-0.219,0.2c-0.21,0.25-0.344,0.602-0.344,0.921v3.743
	l0.492,0.334c0.723,0.391,1.635,0.611,2.751,0.649c0.044,0.004,0.089,0.011,0.133,0.023c0.49,0.164,0.893,0.432,1.103,0.844
	c0.158,0.314-0.069,0.687-0.423,0.687H13.053z M2.039,23.855c0.063,0.002,0.13,0.002,0.202-0.002h6.56
	c0.579,0.019,0.848-0.09,0.962-0.187c0.081-0.067,0.17-0.203,0.134-0.557l-0.005-0.059v-1.087H4.304
	c-0.952,0-1.723-0.771-1.723-1.723v-5.831c0-0.952,0.771-1.722,1.723-1.722h5.588v-0.281c-0.019-0.822-0.646-1.58-1.482-2.461
	C7.788,9.293,6.648,8.211,6.648,7.104v-1.92H4.395v1.92c0,0.595-0.289,1.119-0.613,1.555C3.454,9.099,3.022,9.539,2.634,9.947
	c-0.837,0.882-1.466,1.639-1.483,2.461v10.644L1.148,23.11C1.11,23.464,1.199,23.6,1.281,23.667
	C1.382,23.753,1.599,23.846,2.039,23.855z M20.557,23.501l-0.095-0.022c-0.668-0.217-1.259-0.532-1.766-0.959
	c-0.105-0.09-0.167-0.222-0.167-0.361v-3.99c0-0.71,0.372-1.5,0.994-1.918c0.021-0.016,0.046-0.029,0.07-0.041
	c4.095-1.822,4.657-3.845,4.291-5.934l-0.03-0.126H12.991l-0.123,0.713c-0.206,1.919,0.542,3.789,4.12,5.347
	c0.863,0.39,1.068,1.165,1.068,1.959v3.99c0,0.14-0.062,0.271-0.17,0.361c-0.504,0.427-1.096,0.742-1.767,0.959l-0.091,0.022H20.557
	z M9.892,20.82v-6.986H4.304c-0.318,0-0.576,0.26-0.576,0.577v5.831c0,0.318,0.257,0.578,0.576,0.578H9.892z M16.307,14.839
	c-0.036-0.002-0.073-0.007-0.106-0.016c-0.572-0.152-1.018-0.387-1.36-0.698c-0.344-0.311-0.559-0.676-0.711-1.051
	c-0.096-0.245,0.023-0.52,0.267-0.618c0.241-0.095,0.518,0.023,0.613,0.266c0.11,0.276,0.256,0.51,0.469,0.701
	c0.211,0.191,0.512,0.364,0.961,0.484c0.256,0.064,0.405,0.325,0.341,0.576c-0.056,0.206-0.235,0.343-0.437,0.353
	C16.329,14.839,16.317,14.839,16.307,14.839z M2.742,12.732c-0.399-0.008-0.792-0.037-0.981-0.589
	c0.617-1.029,1.337-2.004,2.292-2.714c0.5,0.037,0.711,0.362,0.684,0.921C3.955,10.929,3.327,11.755,2.742,12.732z M23.614,9.202
	l-0.126-0.42c-0.512-1.538-1.298-3.182-1.66-4.803l-0.086-0.5h-6.515L15.187,3.83C14.916,5.29,14.092,6.902,13.5,8.479l-0.254,0.724
	H23.614z M15.247,8.306c-0.076,0.003-0.156-0.012-0.229-0.051c-0.231-0.113-0.327-0.402-0.21-0.635
	c0.456-0.907,0.702-1.815,0.805-2.727c0.031-0.261,0.263-0.446,0.526-0.418c0.256,0.028,0.444,0.262,0.416,0.524
	c-0.117,1.011-0.391,2.03-0.9,3.046C15.575,8.206,15.413,8.302,15.247,8.306z M6.648,4.04V1.145H4.395V4.04H6.648z"/>
</svg>
