<?xml version="1.0" encoding="utf-8"?>
<!-- Generator: Adobe Illustrator 15.0.0, SVG Export Plug-In . SVG Version: 6.00 Build 0)  -->
<!DOCTYPE svg PUBLIC "-//W3C//DTD SVG 1.1//EN" "http://www.w3.org/Graphics/SVG/1.1/DTD/svg11.dtd">
<svg version="1.1" id="Layer_1" xmlns="http://www.w3.org/2000/svg" xmlns:xlink="http://www.w3.org/1999/xlink" x="0px" y="0px"
	 width="25px" height="25px" viewBox="0 0 25 25" enable-background="new 0 0 25 25" xml:space="preserve">
<path marker-end="none" marker-start="none" fill="#333333" d="M10.428,24.313c-0.707,0.001-1.415,0-2.106-0.013
	c-1.385-0.023-2.732-0.09-3.914-0.26c-0.878-0.127-1.696-0.313-2.38-0.603c-0.228-0.096-0.442-0.205-0.636-0.325
	c-0.813-0.499-1.342-1.239-1.342-2.258c0-0.022,0-0.042,0.003-0.065c0.032-0.26,0.099-0.511,0.21-0.736
	c0.111-0.228,0.265-0.43,0.472-0.601l0.068-0.044l-0.037-0.03c-0.086-0.104-0.132-0.242-0.118-0.389
	c0.058-0.586,0.234-1.128,0.611-1.527c0.387-0.41,0.918-0.604,1.548-0.611h19.499c0.008,0,0.025,0,0.035,0.002
	c0.646,0.044,1.166,0.271,1.527,0.688c0.35,0.407,0.492,0.929,0.533,1.458c0.01,0.146-0.037,0.282-0.127,0.387l-0.027,0.022
	l0.152,0.109c0.191,0.176,0.33,0.379,0.426,0.599c0.096,0.218,0.148,0.451,0.174,0.687c0,0.018,0.002,0.034,0.002,0.052
	c0,0.971-0.488,1.69-1.258,2.185c-0.74,0.477-1.752,0.76-2.889,0.939c-0.572,0.09-1.189,0.156-1.846,0.204
	c-1.305,0.094-2.748,0.119-4.236,0.123c-0.742,0.003-1.496,0-2.248,0C11.84,24.307,11.134,24.312,10.428,24.313z M12.523,23.246
	c0.771,0,1.529,0.003,2.268,0c2.219-0.01,4.262-0.059,5.896-0.314c1.09-0.171,1.928-0.429,2.48-0.785
	c0.457-0.292,0.703-0.64,0.76-1.091l0.01-0.17l-0.029-0.179c-0.045-0.181-0.123-0.307-0.223-0.4
	c-0.123-0.111-0.338-0.22-0.723-0.264l-8.205-0.014l-2.291,1.94c-0.102,0.087-0.226,0.128-0.352,0.126
	c-0.125-0.001-0.25-0.048-0.347-0.138l-2.137-1.93h-7.33c-0.466,0.007-0.735,0.113-0.893,0.243
	c-0.132,0.109-0.233,0.275-0.286,0.533l-0.012,0.08l0.011,0.181c0.059,0.477,0.329,0.84,0.826,1.146
	c0.596,0.365,1.486,0.617,2.611,0.78l1.649,0.161l0.501,0.028l1.387,0.049l0.421,0.01L12.523,23.246z M12.135,20.861l3.473-2.945
	l-6.733-0.003L12.135,20.861z M1.718,19.027L1.848,19c0.144-0.021,0.293-0.03,0.449-0.033h6.161l-1.001-0.906l-0.112-0.147h-4.53
	c-0.403,0.005-0.637,0.122-0.786,0.277c-0.079,0.085-0.148,0.198-0.205,0.346L1.718,19.027z M23.332,19.027l-0.09-0.457
	c-0.045-0.142-0.107-0.25-0.182-0.336c-0.127-0.147-0.334-0.275-0.717-0.316l-5.262-0.002l-0.033,0.114
	c-0.031,0.062-0.072,0.118-0.131,0.165l-0.908,0.771h6.811c0.004,0,0.021,0.001,0.027,0.001c0.16,0.01,0.312,0.028,0.459,0.054
	L23.332,19.027z M6.721,16.643c-0.688-0.017-1.295-0.196-1.831-0.436c-0.858-0.392-1.545-0.619-2.17-0.621
	c-0.593-0.004-1.183,0.197-1.834,0.785c-0.216,0.197-0.553,0.18-0.75-0.04c-0.196-0.217-0.179-0.553,0.04-0.749
	c0.823-0.741,1.659-1.062,2.55-1.059c0.863,0.005,1.728,0.316,2.602,0.718c0.497,0.221,1.04,0.363,1.647,0.338
	s1.323-0.227,2.169-0.744c1.042-0.609,1.919-0.792,2.792-0.68c0.423,0.055,0.83,0.178,1.232,0.332
	c0.398,0.152,0.811,0.346,1.236,0.538c0.479,0.217,0.801,0.388,1.193,0.439c0.365,0.048,0.844,0,1.584-0.352
	c0.988-0.472,1.779-0.773,2.568-0.826c0.807-0.054,1.555,0.155,2.457,0.57c0.541,0.241,1.137,0.39,1.816,0.327
	c0.293-0.027,0.551,0.187,0.578,0.478c0.025,0.291-0.188,0.549-0.479,0.577c-0.906,0.087-1.686-0.118-2.354-0.415
	c-0.832-0.382-1.391-0.516-1.949-0.478c-0.572,0.038-1.201,0.256-2.182,0.724c-0.877,0.418-1.564,0.529-2.184,0.446
	c-0.303-0.04-0.568-0.126-0.812-0.222c-0.233-0.094-0.447-0.198-0.677-0.3c-0.917-0.422-1.528-0.703-2.166-0.787
	c-0.598-0.078-1.241,0.028-2.111,0.538c-0.966,0.591-1.853,0.856-2.665,0.893C6.921,16.644,6.821,16.645,6.721,16.643z
	 M3.457,13.961c-0.605-0.01-1.116-0.211-1.483-0.625c-0.352-0.4-0.514-0.937-0.567-1.519c-0.007-0.072,0.002-0.142,0.022-0.208
	l0.013-0.022L1.407,11.58c-0.784-0.247-1.248-0.836-1.354-1.692C0.049,9.865,0.049,9.843,0.049,9.82C0.049,4.298,5.769,0,12.523,0
	C19.297,0,25,4.283,25,9.82c0,0.018-0.002,0.037-0.002,0.053c-0.08,0.789-0.475,1.386-1.248,1.666l-0.148,0.039l0.012,0.021
	c0.023,0.065,0.033,0.136,0.027,0.208c-0.039,0.523-0.168,1.042-0.496,1.448c-0.338,0.422-0.834,0.657-1.457,0.703
	c-0.012,0.002-0.029,0.002-0.039,0.002H3.457z M21.74,12.9c0.293-0.059,0.465-0.168,0.578-0.309c0.137-0.17,0.232-0.445,0.264-0.862
	l0.004-0.021H2.461l0.003,0.012c0.042,0.46,0.16,0.748,0.305,0.915c0.136,0.151,0.341,0.259,0.696,0.265H21.74z M22.803,10.648
	l0.316-0.034c0.289-0.053,0.461-0.148,0.566-0.243c0.1-0.091,0.178-0.217,0.223-0.4l0.029-0.178l-0.057-0.851
	c-0.57-4.343-5.328-7.882-11.357-7.882c-6.013,0-10.784,3.552-11.356,7.885L1.111,9.79l0.031,0.17
	c0.118,0.447,0.435,0.68,1.16,0.688H22.803z M20.662,9.349c-0.17,0.004-0.34-0.076-0.443-0.226c-0.168-0.241-0.109-0.572,0.129-0.74
	l0.531-0.371c0.24-0.167,0.572-0.107,0.74,0.131c0.168,0.24,0.109,0.573-0.131,0.739l-0.531,0.371
	C20.867,9.317,20.766,9.348,20.662,9.349z M3.981,9.245C3.81,9.243,3.644,9.161,3.542,9.006L3.224,8.529
	C3.062,8.286,3.126,7.956,3.37,7.793c0.244-0.161,0.572-0.097,0.737,0.146l0.318,0.479c0.163,0.243,0.098,0.574-0.147,0.736
	C4.186,9.214,4.084,9.245,3.981,9.245z M12.41,8.767c-0.102-0.003-0.205-0.036-0.293-0.1l-0.744-0.529
	c-0.239-0.17-0.293-0.502-0.123-0.741c0.169-0.239,0.502-0.293,0.739-0.123l0.745,0.53c0.238,0.169,0.294,0.501,0.124,0.739
	C12.75,8.693,12.582,8.771,12.41,8.767z M17.322,7.863c-0.135,0.004-0.271-0.045-0.377-0.144l-0.957-0.903
	c-0.213-0.202-0.223-0.539-0.021-0.75c0.203-0.214,0.539-0.222,0.752-0.022l0.955,0.903c0.213,0.201,0.223,0.537,0.02,0.75
	C17.594,7.803,17.461,7.858,17.322,7.863z M6.868,7.599C6.781,7.6,6.694,7.584,6.614,7.542C6.351,7.411,6.245,7.093,6.376,6.83
	L6.8,5.98c0.131-0.262,0.45-0.368,0.712-0.237c0.262,0.13,0.369,0.45,0.236,0.713L7.324,7.304C7.235,7.484,7.055,7.591,6.868,7.599z
	 M20.957,6.908c-0.135-0.003-0.27-0.059-0.369-0.166c-1.609-1.692-3.525-2.696-5.682-3.192c-0.285-0.066-0.463-0.351-0.398-0.636
	c0.066-0.287,0.354-0.464,0.637-0.399c2.34,0.54,4.445,1.64,6.211,3.498c0.203,0.212,0.193,0.546-0.018,0.75
	C21.23,6.863,21.094,6.911,20.957,6.908z M9.66,3.829C9.453,3.826,9.256,3.703,9.172,3.5C9.062,3.23,9.191,2.918,9.461,2.807
	l0.904-0.372c0.27-0.112,0.582,0.018,0.692,0.288c0.111,0.271-0.018,0.582-0.289,0.695L9.866,3.789
	C9.798,3.817,9.728,3.829,9.66,3.829z"/>
</svg>
