<?xml version="1.0" encoding="utf-8"?>
<!-- Generator: Adobe Illustrator 15.0.0, SVG Export Plug-In . SVG Version: 6.00 Build 0)  -->
<!DOCTYPE svg PUBLIC "-//W3C//DTD SVG 1.1//EN" "http://www.w3.org/Graphics/SVG/1.1/DTD/svg11.dtd">
<svg version="1.1" id="Layer_1" xmlns="http://www.w3.org/2000/svg" xmlns:xlink="http://www.w3.org/1999/xlink" x="0px" y="0px"
	 width="25px" height="25px" viewBox="0 0 25 25" enable-background="new 0 0 25 25" xml:space="preserve">
<path marker-end="none" marker-start="none" fill="#333333" d="M4.798,1.046c-0.35,0.075-0.69,0.241-0.975,0.483
	C1.971,3.198,0.987,5.377,0.44,7.769C0.314,8.286,0.341,8.755,0.55,9.116l0.073,0.101L0.413,9.385
	c-0.414,0.408-0.443,0.963-0.396,1.446c0,0.014,0.003,0.029,0.005,0.039c0.295,1.625,0.684,3.878,2.245,5.067
	c0.011,0.008,0.024,0.016,0.035,0.022c0.16,0.101,0.31,0.183,0.457,0.239l0.132,0.031l-0.072,0.148
	c-0.21,0.623-0.146,1.309,0.208,2.013c0.005,0.01,0.013,0.02,0.021,0.032c1.384,2.248,3.362,3.742,5.904,4.469
	c0.014,0.003,0.026,0.007,0.041,0.01c0.541,0.104,1.135,0.146,1.659-0.128l0.223-0.146l0.091,0.148
	c0.103,0.12,0.224,0.238,0.372,0.362c0.01,0.007,0.019,0.014,0.032,0.023c1.636,1.127,3.901,0.773,5.514,0.552
	c0.013,0,0.027-0.003,0.039-0.006c0.464-0.106,0.984-0.304,1.248-0.828l0.036-0.098l0.161,0.058c0.4,0.105,0.859,0.008,1.332-0.253
	c2.156-1.172,3.988-2.706,5.095-4.942c0.317-0.682,0.268-1.484-0.13-2.059c-0.374-0.538-1.011-0.812-1.772-0.655l-0.819,0.164
	c-1.325,0.156-2.619,0.1-3.881-0.188l-0.161-0.004l-0.01-0.037c-0.151-0.439-0.462-0.793-0.925-1.002
	c-0.027-0.012-0.049-0.021-0.075-0.028c-0.618-0.166-1.169-0.382-1.649-0.662l-0.437-0.288V12.84
	c-0.026-0.505-0.224-0.988-0.597-1.406c-0.011-0.011-0.021-0.023-0.031-0.034l-1.676-1.54c-0.014-0.013-0.029-0.026-0.045-0.036
	c-0.426-0.31-0.847-0.439-1.252-0.445l-0.35,0.03l-0.05-0.052C10.347,8.945,9.83,8.371,9.364,7.659
	C9.349,7.636,9.333,7.615,9.315,7.597c-0.23-0.25-0.5-0.418-0.792-0.501L8.187,7.042L7.815,6.28
	C7.431,5.389,7.168,4.451,7.021,3.464L6.948,2.909l0.003-0.279c-0.057-0.775-0.492-1.314-1.112-1.53
	C5.51,0.986,5.149,0.972,4.798,1.046z M4.996,1.979C5.186,1.94,5.373,1.95,5.529,2.002c0.26,0.09,0.508,0.332,0.468,0.908
	c-0.002,0.028-0.002,0.056,0,0.082C6.15,4.436,6.521,5.797,7.126,7.07L7.19,7.195L1.625,8.834L1.53,8.764
	C1.235,8.626,1.312,8.229,1.367,7.987c0.521-2.279,1.434-4.251,3.085-5.739C4.616,2.106,4.808,2.019,4.996,1.979z M7.87,7.992
	c0.214-0.036,0.396,0,0.552,0.092L8.6,8.234l0.367,0.513C9.174,9.019,9.396,9.273,9.63,9.506l0.356,0.297L9.969,9.816l-6.197,5.372
	H3.77c-0.063,0.006-0.123,0.025-0.181,0.055c-0.183,0.101-0.271,0.114-0.336,0.106c-0.059-0.005-0.144-0.029-0.284-0.104
	L2.83,15.166l-0.197-0.17c-0.886-0.814-1.257-2.152-1.543-3.615l-0.126-0.656l-0.013-0.167c-0.002-0.159,0.012-0.275,0.045-0.36
	c0.024-0.065,0.07-0.14,0.188-0.215l0.136-0.064L7.62,8.062c0.005-0.003,0.021-0.005,0.027-0.009C7.724,8.025,7.8,8.003,7.87,7.992z
	 M2.521,10.131c-0.077,0.01-0.151,0.038-0.219,0.089c-0.205,0.146-0.344,0.34-0.434,0.541c-0.088,0.2-0.132,0.412-0.146,0.611
	c-0.012,0.199,0.005,0.398,0.046,0.58c0.041,0.179,0.115,0.367,0.236,0.52c0.042,0.053,0.093,0.108,0.16,0.154
	c0.207,0.16,0.508,0.116,0.667-0.095c0.146-0.2,0.12-0.476-0.072-0.635c-0.01-0.024-0.019-0.034-0.027-0.056
	c-0.012-0.026-0.024-0.061-0.035-0.105c-0.019-0.088-0.029-0.19-0.021-0.303c0.008-0.108,0.03-0.205,0.066-0.282
	c0.033-0.078,0.077-0.126,0.115-0.157c0.216-0.153,0.262-0.452,0.112-0.664C2.861,10.18,2.688,10.109,2.521,10.131z M11.091,10.354
	c0.063-0.013,0.122-0.021,0.188-0.021c0.18-0.004,0.366,0.041,0.555,0.143l0.177,0.112l1.62,1.489l0.231,0.346
	c0.177,0.375,0.164,0.813-0.065,1.3c-0.004,0.004-0.009,0.018-0.012,0.023l-3.144,7.704l-0.125,0.2
	c-0.224,0.307-0.49,0.396-0.855,0.381L9.19,21.966L8.369,21.69c-1.636-0.62-2.974-1.632-4.015-3.033L3.869,17.94L3.77,17.716
	c-0.149-0.395-0.149-0.738-0.044-1.048l0.16-0.313l6.667-5.781l0.354-0.171C10.969,10.38,11.029,10.365,11.091,10.354z
	 M14.746,13.911l0.003,0.001c0.416,0.26,0.875,0.471,1.359,0.64l0.6,0.185l0.197,0.127c0.184,0.156,0.283,0.395,0.273,0.726
	c-0.001,0.008,0,0.021-0.001,0.031l0.203,6.562l-0.022,0.146c-0.031,0.136-0.09,0.204-0.143,0.25
	c-0.07,0.058-0.176,0.109-0.33,0.152l-0.155,0.04l-1.328,0.164c-1.215,0.113-2.35,0.091-3.253-0.413l-0.226-0.138l-0.121-0.106
	c-0.115-0.109-0.163-0.184-0.185-0.237c-0.025-0.06-0.042-0.148-0.003-0.353l-0.002-0.092l3.054-7.489L14.746,13.911z M5.064,16.087
	C4.911,16.11,4.772,16.2,4.699,16.349c-0.309,0.623-0.165,1.33,0.108,1.872c0.135,0.266,0.31,0.512,0.506,0.704
	c0.186,0.18,0.429,0.355,0.708,0.408c0.009,0.002,0.021,0.004,0.032,0.007c0.26,0.038,0.504-0.139,0.544-0.399
	c0.037-0.244-0.119-0.475-0.353-0.537l-0.045-0.01c-0.002,0.002-0.024-0.002-0.069-0.03c-0.041-0.027-0.093-0.065-0.151-0.12
	c-0.113-0.112-0.228-0.271-0.321-0.453c-0.187-0.37-0.233-0.754-0.104-1.019c0.117-0.233,0.022-0.522-0.215-0.64
	C5.251,16.091,5.156,16.073,5.064,16.087z M18.14,15.862l1.025,0.179c1.193,0.146,2.407,0.11,3.634-0.099
	c0.026-0.004,0.053-0.012,0.079-0.019c0.543-0.194,0.846-0.021,0.999,0.206c0.19,0.271,0.237,0.708,0.058,1.1
	c-0.986,1.993-2.643,3.404-4.697,4.518c-0.273,0.154-0.452,0.188-0.559,0.183c-0.085-0.007-0.155-0.037-0.232-0.127l-0.125-0.097
	L18.14,15.862z M12.709,20.942c-0.032,0.005-0.062,0.012-0.091,0.025c-0.246,0.097-0.367,0.374-0.271,0.618
	c0.091,0.236,0.247,0.416,0.42,0.554c0.169,0.137,0.365,0.23,0.558,0.292c0.188,0.065,0.385,0.095,0.574,0.099
	c0.18,0.003,0.383-0.019,0.56-0.101c0.062-0.026,0.127-0.064,0.188-0.112c0.205-0.167,0.236-0.466,0.071-0.674
	c-0.157-0.191-0.432-0.231-0.632-0.1l-0.027,0.017c-0.009,0.004-0.021,0.008-0.035,0.008c-0.027,0.005-0.062,0.009-0.109,0.009
	c-0.09-0.002-0.193-0.02-0.297-0.056c-0.106-0.032-0.192-0.077-0.26-0.13c-0.065-0.055-0.104-0.105-0.123-0.151
	C13.15,21.024,12.927,20.904,12.709,20.942z"/>
</svg>
