<?xml version="1.0" encoding="utf-8"?>
<!-- Generator: Adobe Illustrator 15.0.0, SVG Export Plug-In . SVG Version: 6.00 Build 0)  -->
<!DOCTYPE svg PUBLIC "-//W3C//DTD SVG 1.1//EN" "http://www.w3.org/Graphics/SVG/1.1/DTD/svg11.dtd">
<svg version="1.1" id="Layer_1" xmlns="http://www.w3.org/2000/svg" xmlns:xlink="http://www.w3.org/1999/xlink" x="0px" y="0px"
	 width="25px" height="25px" viewBox="0 0 25 25" enable-background="new 0 0 25 25" xml:space="preserve">
<path marker-end="none" marker-start="none" fill="#4C4C4C" d="M9.751,25.09c-4.405,0-7.824-4.193-7.824-9.143
	c-0.221-5.105,3.186-9.34,7.835-9.169c0.812,0,1.601,0.148,2.341,0.421l0.248,0.108l0.096-0.737l0.082-0.404l-0.043,0.001
	C10.884,6.219,9.58,5.893,8.715,5.045c-1.002-0.983-1.25-2.503-0.938-4.383C7.953,0.342,8.166,0.189,8.416,0.2
	c1.493,0.235,2.769,0.743,3.7,1.631c0.469,0.448,0.84,0.981,1.105,1.596l0.143,0.383l0.119-0.236
	c0.571-1.06,1.327-2.007,2.214-2.864c0.258-0.319,1.152,0.238,0.779,0.805c-1.623,1.567-2.726,3.412-2.997,5.751l-0.006,0.08
	l0.338-0.147c0.741-0.273,1.53-0.421,2.345-0.421c4.658-0.178,8.045,4.07,7.836,9.167c0,4.951-3.422,9.145-7.826,9.145
	c-1.096,0-2.135-0.262-3.077-0.734l-0.027-0.014l-0.104-0.058l-0.102,0.058l-0.027,0.014C11.886,24.828,10.845,25.09,9.751,25.09z
	 M9.751,23.971c0.684,0,1.344-0.123,1.966-0.352l0.597-0.26l0.365-0.207h0.555l0.363,0.205l0.601,0.262
	c0.621,0.229,1.283,0.352,1.967,0.352c3.617,0,6.705-3.509,6.705-8.048c0.193-4.662-2.848-8.172-6.693-8.026
	c-0.693,0-1.355,0.125-1.979,0.353l-0.606,0.264l-0.357,0.203H12.68L12.32,8.513L11.716,8.25c-0.622-0.228-1.284-0.353-1.975-0.353
	c-3.843-0.141-6.896,3.362-6.696,8.025C3.045,20.462,6.134,23.971,9.751,23.971z M5.5,14.496c-0.353,0.615-1.165,0.419-1.115-0.089
	c0.188-2.365,2.004-4.474,4.069-5.188c0.431-0.083,0.878,0.658,0.366,1.058C7.146,10.857,5.652,12.605,5.5,14.496z M12.139,5.054
	c0.096,0,0.197-0.002,0.301-0.005l0.078-0.004l-0.068-0.377c-0.197-0.864-0.581-1.524-1.106-2.026
	c-0.535-0.51-1.248-0.887-2.146-1.133L8.805,1.415L8.8,1.464C8.67,2.838,8.958,3.716,9.499,4.245
	C10.014,4.75,10.863,5.049,12.139,5.054z"/>
</svg>
