<?xml version="1.0" encoding="utf-8"?>
<!-- Generator: Adobe Illustrator 15.0.0, SVG Export Plug-In . SVG Version: 6.00 Build 0)  -->
<!DOCTYPE svg PUBLIC "-//W3C//DTD SVG 1.1//EN" "http://www.w3.org/Graphics/SVG/1.1/DTD/svg11.dtd">
<svg version="1.1" id="Layer_1" xmlns="http://www.w3.org/2000/svg" xmlns:xlink="http://www.w3.org/1999/xlink" x="0px" y="0px"
	 width="25px" height="25px" viewBox="0 0 25 25" enable-background="new 0 0 25 25" xml:space="preserve">
<path marker-end="none" marker-start="none" fill="#333333" d="M4.322,24.998c-0.699-0.018-1.393-0.244-1.985-0.697
	c-1.585-1.213-1.766-3.527-0.515-5.145c0.467-0.605,1.082-1.043,1.751-1.289l0.053-0.018l-0.074-0.031
	c-0.159-0.086-0.314-0.186-0.461-0.299c-1.585-1.211-1.765-3.524-0.516-5.143c0.467-0.607,1.083-1.045,1.751-1.291l0.334-0.09
	l-0.007-0.003c-0.161-0.086-0.314-0.184-0.461-0.3C2.607,9.483,2.426,7.17,3.676,5.552c1.248-1.616,3.537-2.036,5.119-0.825
	L8.95,4.864l0.467-0.176c0.865-0.2,1.795-0.044,2.542,0.528c0.674,0.516,1.057,1.262,1.148,2.053l-0.003,0.425l0.226,0.103
	l0.697-0.862c0.734-0.999,1.178-1.934,1.34-2.808c0.211-1.132-0.051-2.204-0.891-3.24c-0.189-0.234-0.154-0.58,0.079-0.766
	c0.236-0.191,0.578-0.153,0.769,0.079c0.9,1.112,1.285,2.316,1.188,3.58l-0.02,0.142l0.137-0.091c1.412-0.865,3-0.898,4.189-0.356
	c1.508,0.688,2.36,2.33,1.344,4.144c-0.008,0.015-0.018,0.03-0.027,0.043c-0.513,0.746-1.303,1.07-2.063,1.05
	c-0.254-0.006-0.505-0.049-0.739-0.132c-0.968-0.325-1.728-1.256-1.566-2.558c0.002-0.016,0.006-0.033,0.01-0.05
	c0.127-0.569,0.672-1.019,1.245-1.117c0.673-0.113,1.344,0.227,1.705,1.08c0.118,0.278-0.012,0.597-0.287,0.715
	c-0.277,0.118-0.598-0.011-0.716-0.289c-0.188-0.445-0.401-0.451-0.519-0.432c-0.156,0.028-0.273,0.128-0.331,0.209l-0.027,0.054
	l-0.012,0.229c0.023,0.593,0.388,0.972,0.846,1.126c0.478,0.161,1.026,0.066,1.405-0.321l0.139-0.167l0.098-0.195
	c0.491-1.09-0.02-1.97-0.957-2.397c-1.046-0.479-2.633-0.373-3.921,0.879c-0.053,0.051-0.113,0.089-0.18,0.116l-0.173,0.03
	l-0.195,0.455c-0.243,0.511-0.552,1.021-0.919,1.533l-0.193,0.255l0.851-0.077c0.59,0.028,1.166,0.225,1.665,0.605
	c0.898,0.688,1.282,1.788,1.141,2.849l-0.025,0.085l0.187,0.086c0.146,0.082,0.288,0.172,0.423,0.278
	c1.586,1.21,1.768,3.523,0.518,5.142c-0.783,1.01-1.967,1.553-3.135,1.521c-0.699-0.018-1.393-0.242-1.986-0.697
	c-0.1-0.076-0.191-0.156-0.279-0.24l-0.156-0.162l0.028,0.186c0.087,0.93-0.18,1.914-0.806,2.721
	c-0.782,1.01-1.968,1.555-3.133,1.523c-0.526-0.012-1.047-0.143-1.526-0.398L8.26,20.975v0.484c-0.068,0.707-0.335,1.41-0.804,2.016
	C6.675,24.486,5.49,25.029,4.322,24.998z M4.353,23.906c0.813,0.023,1.663-0.346,2.241-1.096c0.927-1.197,0.734-2.809-0.316-3.613
	c-1.049-0.803-2.668-0.572-3.594,0.627c-0.924,1.197-0.733,2.809,0.315,3.609C3.393,23.736,3.868,23.893,4.353,23.906z
	 M10.102,20.469c0.814,0.023,1.664-0.35,2.243-1.1c0.926-1.197,0.733-2.809-0.315-3.609c-1.05-0.805-2.669-0.574-3.596,0.625
	c-0.924,1.199-0.733,2.809,0.316,3.611C9.143,20.299,9.617,20.453,10.102,20.469z M6.768,18.215v-0.361l-0.36,0.148l0.227,0.123
	L6.768,18.215z M16.438,17.137c0.812,0.023,1.661-0.348,2.238-1.096c0.929-1.199,0.735-2.811-0.312-3.613
	c-1.052-0.803-2.67-0.572-3.599,0.626c-0.924,1.197-0.732,2.807,0.316,3.611C15.477,16.967,15.949,17.123,16.438,17.137z
	 M5.108,17.125c0.812,0.023,1.661-0.348,2.241-1.096c0.924-1.201,0.734-2.809-0.316-3.611c-1.05-0.804-2.669-0.574-3.595,0.624
	c-0.926,1.198-0.733,2.81,0.316,3.61C4.148,16.957,4.621,17.111,5.108,17.125z M13.126,15.297l-0.028-0.184
	c-0.02-0.234-0.02-0.469,0.004-0.707l0.003-0.021l-0.101,0.055c-0.136,0.064-0.274,0.121-0.416,0.17l-0.226,0.064l0.024,0.012
	c0.104,0.062,0.205,0.133,0.305,0.209c0.098,0.074,0.191,0.156,0.279,0.24L13.126,15.297z M15.426,14.631
	c-0.104,0-0.209-0.031-0.305-0.094c-0.248-0.17-0.314-0.508-0.145-0.757c0.283-0.419,0.627-0.708,1.018-0.892
	c0.385-0.18,0.789-0.244,1.174-0.258c0.302-0.011,0.553,0.226,0.563,0.525c0.011,0.301-0.228,0.553-0.528,0.562
	c-0.292,0.01-0.537,0.059-0.746,0.158c-0.203,0.095-0.402,0.25-0.58,0.512C15.771,14.547,15.602,14.631,15.426,14.631z M4.11,14.59
	c-0.106,0-0.21-0.029-0.304-0.094C3.558,14.328,3.491,13.99,3.66,13.74c0.283-0.419,0.629-0.709,1.018-0.891
	c0.386-0.18,0.789-0.244,1.175-0.26c0.299-0.009,0.553,0.228,0.562,0.529c0.009,0.299-0.224,0.551-0.526,0.562
	c-0.292,0.008-0.537,0.055-0.747,0.156c-0.206,0.094-0.401,0.248-0.58,0.512C4.457,14.506,4.286,14.59,4.11,14.59z M9.014,14.568
	l0.309-0.141l0.316-0.1l-0.333-0.217l-0.327-0.324l0.036,0.185L9.014,14.568z M11.322,13.719c0.812,0.025,1.662-0.346,2.24-1.096
	c0.925-1.198,0.734-2.809-0.314-3.611c-1.052-0.804-2.668-0.574-3.594,0.626c-0.926,1.198-0.735,2.808,0.315,3.611
	C10.362,13.549,10.835,13.705,11.322,13.719z M8.004,11.848l-0.019-0.858l0.001-0.022l-0.099,0.055l-0.681,0.234l0.488,0.294
	L8.004,11.848z M15.227,11.291l0.1-0.054c0.595-0.284,1.246-0.409,1.886-0.362l0.149,0.022l0.004-0.452
	c-0.06-0.521-0.311-0.992-0.729-1.311C16.176,8.779,15.578,8.67,15.003,8.8l-0.356,0.135l0.09,0.13
	c0.402,0.655,0.566,1.432,0.492,2.206L15.227,11.291z M6.208,10.3C7.02,10.326,7.87,9.955,8.447,9.205
	c0.927-1.199,0.736-2.81-0.313-3.613C7.084,4.79,5.465,5.018,4.54,6.22C3.614,7.418,3.806,9.027,4.854,9.83
	C5.249,10.131,5.721,10.289,6.208,10.3z M10.111,7.874l0.1-0.054c0.557-0.267,1.165-0.395,1.767-0.37l0.047,0.005V7.393
	c-0.06-0.52-0.312-0.99-0.727-1.311c-0.31-0.236-0.678-0.362-1.06-0.383L9.683,5.748l0.186,0.384
	c0.219,0.541,0.303,1.132,0.247,1.721L10.111,7.874z M5.235,7.64c-0.105,0-0.212-0.031-0.304-0.094
	C4.682,7.379,4.615,7.041,4.782,6.79c0.284-0.421,0.631-0.708,1.02-0.892c0.386-0.179,0.789-0.245,1.175-0.258
	c0.298-0.01,0.552,0.227,0.562,0.525C7.549,6.468,7.313,6.72,7.012,6.729C6.721,6.738,6.475,6.787,6.265,6.886
	C6.059,6.981,5.864,7.135,5.688,7.399C5.583,7.554,5.411,7.64,5.235,7.64z"/>
</svg>
