<?xml version="1.0" encoding="utf-8"?>
<!-- Generator: Adobe Illustrator 15.0.0, SVG Export Plug-In . SVG Version: 6.00 Build 0)  -->
<!DOCTYPE svg PUBLIC "-//W3C//DTD SVG 1.1//EN" "http://www.w3.org/Graphics/SVG/1.1/DTD/svg11.dtd">
<svg version="1.1" id="Layer_1" xmlns="http://www.w3.org/2000/svg" xmlns:xlink="http://www.w3.org/1999/xlink" x="0px" y="0px"
	 width="25px" height="25px" viewBox="0 0 25 25" enable-background="new 0 0 25 25" xml:space="preserve">
<path marker-end="none" marker-start="none" fill="#333333" d="M11.39,24.999c-1.938-0.01-4.303-0.288-4.909-1.122
	c-0.037-0.05-0.062-0.107-0.072-0.169L4.26,12.181c-0.064-0.347,0.305-0.615,0.616-0.446c0.966,0.528,3.745,0.833,6.656,0.833
	c2.916,0,5.69-0.309,6.656-0.833c0.305-0.167,0.672,0.093,0.613,0.438l-1.914,11.526c-0.017,0.099-0.067,0.19-0.145,0.255
	C15.819,24.726,13.446,25.011,11.39,24.999z M11.395,24.16l0.888-0.029l-0.009-0.069l0.212-3.24l-0.186,0.052
	c-0.207,0.035-0.417,0.054-0.632,0.054c-0.271,0-0.534-0.029-0.79-0.084l-0.051-0.013l0.213,3.231l-0.012,0.086L11.395,24.16z
	 M10.202,24.117l-0.236-3.609l-0.083-0.045c-0.863-0.491-1.454-1.335-1.454-2.344c0-0.9,0.48-1.677,1.207-2.183l0.029-0.019
	l-0.167-2.559l-0.95-0.059c-0.319-0.025-0.63-0.053-0.931-0.088l-0.185-0.021l1.56,10.799l0.201,0.028L10.202,24.117z
	 M13.112,24.093l0.544-0.053c0.23-0.026,0.453-0.059,0.665-0.094l0.014-0.002l1.559-10.786l-0.092,0.012
	c-0.32,0.042-0.657,0.076-1.001,0.107l-0.984,0.068l-0.168,2.567l0.287,0.199c0.593,0.5,0.971,1.201,0.971,2.007
	c0,1.004-0.592,1.848-1.458,2.342l-0.101,0.046L13.112,24.093z M8.12,23.818L6.567,13.07L6.27,13.02
	c-0.207-0.039-0.405-0.08-0.59-0.125l-0.456-0.131L7.21,23.427l0.097,0.081c0.131,0.083,0.341,0.175,0.634,0.261L8.12,23.818z
	 M15.211,23.752l0.119-0.034c0.221-0.064,0.412-0.14,0.57-0.219l0.188-0.116l1.765-10.624l-0.47,0.134
	c-0.186,0.045-0.383,0.087-0.59,0.126l-0.031,0.004L15.211,23.752z M11.668,20.087c1.38,0,2.398-0.944,2.398-1.968
	c0-1.03-1.007-1.966-2.398-1.966c-1.383,0-2.4,0.943-2.4,1.966C9.269,19.151,10.276,20.087,11.668,20.087z M10.481,15.512
	l0.101-0.034c0.342-0.107,0.711-0.166,1.086-0.166c0.216,0,0.428,0.02,0.635,0.057l0.529,0.139l0.141-2.136l-1.443,0.037
	l-1.189-0.028L10.481,15.512z M11.53,11.914c-1.511,0-3.028-0.089-4.315-0.27c-0.643-0.09-1.234-0.203-1.742-0.341
	c-0.502-0.138-0.944-0.306-1.277-0.515C4,10.666,3.94,10.406,4.064,10.21c0.032-0.049,0.07-0.09,0.116-0.121l0.112-0.049
	L4.258,9.963c-0.229-0.692-0.22-1.435,0.06-2.035c0.35-0.749,1.08-1.197,2.086-1.088l0.268,0.047L6.668,6.799
	C6.666,6.75,6.663,6.695,6.66,6.629C6.645,6.421,6.622,6.123,6.667,5.864c0.342-1.883,2.151-2.747,3.739-2.722
	c1.331,0.019,2.662,0.657,3.075,1.953l0.048,0.19l0.092-0.058C15.13,4.438,16.752,5.6,16.609,7.27l0.223-0.035
	c1.327-0.106,2.449,1.162,2.062,2.682l-0.051,0.157l0.037,0.016c0.045,0.031,0.084,0.072,0.113,0.121
	c0.125,0.195,0.064,0.455-0.131,0.578c-0.661,0.418-1.805,0.687-3.018,0.856C14.559,11.825,13.041,11.914,11.53,11.914z
	 M11.53,11.074c1.483,0,2.959-0.087,4.199-0.26c0.621-0.087,1.175-0.195,1.637-0.322l0.482-0.157l0.047-0.154
	c0.775-1.44-0.498-2.647-1.661-1.859c-0.346,0.234-0.787-0.131-0.62-0.515c0.683-1.57-0.885-2.727-2.12-1.438
	c-0.266,0.278-0.737,0.078-0.722-0.306C12.822,4.704,11.683,4,10.394,3.98c-1.352-0.02-2.659,0.705-2.898,2.033
	C7.471,6.147,7.481,6.33,7.498,6.573C7.508,6.737,7.536,7.07,7.467,7.299C7.377,7.587,7.127,7.798,6.765,7.755
	C6.725,7.75,6.686,7.743,6.647,7.733C5.754,7.511,5.285,7.841,5.079,8.283C4.845,8.784,4.889,9.542,5.284,10.2
	c0.029,0.05,0.049,0.104,0.056,0.157l-0.001,0.02l0.356,0.115c0.464,0.127,1.019,0.235,1.638,0.322
	C8.57,10.987,10.048,11.074,11.53,11.074z M13.813,10.133c-0.212,0.004-0.398-0.153-0.425-0.369
	c-0.041-0.336-0.146-0.528-0.264-0.642c-0.117-0.114-0.292-0.193-0.555-0.22c-0.231-0.022-0.399-0.228-0.375-0.459
	c0.022-0.229,0.228-0.398,0.459-0.376c0.393,0.041,0.766,0.172,1.056,0.453c0.29,0.283,0.454,0.672,0.513,1.143
	c0.027,0.229-0.137,0.44-0.365,0.469C13.842,10.132,13.827,10.133,13.813,10.133z M5.926,9.853c-0.015,0-0.029,0-0.043-0.002
	C5.653,9.822,5.489,9.612,5.518,9.382c0.017-0.143,0.051-0.277,0.106-0.403c0.055-0.126,0.131-0.238,0.228-0.332
	C5.949,8.553,6.06,8.484,6.179,8.436C6.297,8.388,6.417,8.36,6.54,8.348C6.77,8.326,6.977,8.494,7,8.724
	c0.023,0.231-0.146,0.437-0.375,0.46C6.567,9.189,6.527,9.2,6.498,9.213c-0.029,0.01-0.048,0.024-0.06,0.038
	c-0.014,0.012-0.03,0.033-0.046,0.067C6.376,9.355,6.36,9.408,6.351,9.483C6.324,9.7,6.138,9.857,5.926,9.853z M8.636,6.694
	c-0.014,0-0.028-0.002-0.042-0.004C8.364,6.662,8.199,6.452,8.229,6.222c0.057-0.471,0.222-0.861,0.512-1.143
	c0.291-0.282,0.663-0.413,1.057-0.452c0.229-0.024,0.436,0.144,0.459,0.375s-0.144,0.437-0.376,0.46
	C9.618,5.489,9.442,5.567,9.326,5.683C9.208,5.796,9.103,5.988,9.062,6.325C9.035,6.54,8.849,6.697,8.636,6.694z M17.889,4.774
	c-0.486-0.015-0.98-0.253-1.244-0.728l-0.205-0.008c-0.354-0.034-0.664-0.233-0.854-0.481c-0.194-0.256-0.294-0.619-0.2-0.953
	l0.053-0.125c-0.175-0.188-0.275-0.414-0.291-0.664c-0.023-0.375,0.154-0.713,0.385-0.951c0.318-0.333,0.828-0.562,1.332-0.474
	l0.13,0.029l0.025-0.037c0.082-0.106,0.187-0.193,0.312-0.258c0.299-0.154,0.653-0.151,0.959-0.076
	c0.487,0.124,1.04,0.485,1.229,1.071l0.014,0.053l0.082,0.017c0.236,0.064,0.436,0.189,0.578,0.379
	c0.217,0.286,0.248,0.641,0.193,0.937c-0.057,0.297-0.207,0.595-0.441,0.804c-0.125,0.108-0.273,0.195-0.439,0.24l-0.045,0.01
	l-0.014,0.066c-0.17,0.662-0.721,1.053-1.293,1.132C18.066,4.772,17.979,4.777,17.889,4.774z M17.91,3.937
	c0.041,0.001,0.086-0.003,0.131-0.01c0.333-0.045,0.635-0.286,0.619-0.773c-0.008-0.286,0.266-0.497,0.539-0.417
	c0.059,0.017,0.115,0.008,0.186-0.054c0.08-0.071,0.15-0.193,0.178-0.331c0.025-0.138-0.004-0.231-0.039-0.276
	c-0.021-0.029-0.096-0.104-0.338-0.095c-0.238,0.011-0.436-0.18-0.436-0.419c0-0.322-0.297-0.604-0.663-0.697
	c-0.183-0.045-0.313-0.022-0.37,0.006c-0.023,0.011-0.061,0.029-0.056,0.145c0.016,0.374-0.43,0.581-0.704,0.328
	C16.73,1.135,16.373,1.2,16.135,1.447c-0.117,0.123-0.154,0.241-0.148,0.318c0.002,0.053,0.029,0.162,0.242,0.28
	c0.273,0.152,0.29,0.54,0.033,0.714c-0.117,0.079-0.096,0.174-0.008,0.288c0.108,0.144,0.276,0.206,0.449,0.111
	c0.25-0.136,0.561,0.013,0.615,0.292C17.376,3.764,17.613,3.931,17.91,3.937z"/>
</svg>
