<?xml version="1.0" encoding="utf-8"?>
<!-- Generator: Adobe Illustrator 15.0.0, SVG Export Plug-In . SVG Version: 6.00 Build 0)  -->
<!DOCTYPE svg PUBLIC "-//W3C//DTD SVG 1.1//EN" "http://www.w3.org/Graphics/SVG/1.1/DTD/svg11.dtd">
<svg version="1.1" id="Layer_1" xmlns="http://www.w3.org/2000/svg" xmlns:xlink="http://www.w3.org/1999/xlink" x="0px" y="0px"
	 width="25px" height="25px" viewBox="0 0 25 25" enable-background="new 0 0 25 25" xml:space="preserve">
<path marker-end="none" marker-start="none" fill="#4C4C4C" d="M13.074,25c-0.154,0.003-0.312-0.08-0.387-0.245l-1.301-2.914
	l-1.238-2.778l-0.001-0.002l-1.115-2.497L9.03,16.562v-0.001L7.911,14.05l-0.002-0.003l-0.001-0.003l-1.677-3.76
	c-0.022-0.048-0.035-0.095-0.039-0.141l0.007-0.054l-0.118-0.4C5.741,7.959,6.501,6.328,7.746,5.583
	c0.031-0.019,0.062-0.032,0.096-0.041l0.062-0.011l0.014-0.204c0.065-0.411,0.285-0.787,0.617-0.945
	c0.103-0.049,0.216-0.075,0.34-0.077l0.002,0.002l0.01-0.146c0.087-0.762,0.496-1.534,1.07-2.109
	c0.717-0.717,1.762-1.199,2.913-0.936c0.171,0.041,0.399,0,0.573-0.125c0.161-0.113,0.271-0.293,0.259-0.555
	c-0.024-0.425,0.541-0.604,0.768-0.241c0.145,0.23,0.51,0.689,0.762,1.197c0.189,0.383,0.354,0.866,0.28,1.363l-0.003,0.019
	l0.205,0.013c0.416,0.044,0.805,0.175,1.125,0.442c0.576,0.478,0.83,1.286,0.809,2.432l-0.01,0.177l0.174,0.06
	c0.307,0.136,0.574,0.336,0.801,0.607c0.65,0.792,0.799,2.067,0.578,3.689l-0.029,0.087l0.007,0.062c0,0.049-0.009,0.099-0.03,0.151
	l-5.684,14.245C13.385,24.908,13.23,24.994,13.074,25z M13.047,23.516l0.456-1.146l-0.294-0.119l-0.857-0.413l-0.045,0.021
	L13.047,23.516z M13.811,21.597l0.283-0.709l-0.009,0.007l-0.815,0.463l0.262,0.126L13.811,21.597z M12.351,20.915l0.099-0.048
	c0.406-0.213,0.806-0.439,1.19-0.676l0.99-0.649l-0.687-0.275c-0.459-0.203-0.904-0.418-1.334-0.644l-0.254-0.143l-1.277,0.627
	l0.654,1.466l0.534,0.301L12.351,20.915z M14.939,18.771l0.703-1.764l-0.566-0.284l-1.137,0.812l-0.746,0.446l1.072,0.517
	L14.939,18.771z M10.74,18.35l0.743-0.366l-0.125-0.072l-1.15-0.751L10.74,18.35z M12.351,17.521l1.134-0.68l0.754-0.539
	l-0.453-0.229l-1.426-0.902l-0.905,0.588l-0.986,0.559l0.195,0.146c0.364,0.256,0.739,0.502,1.128,0.739L12.351,17.521z
	 M15.951,16.233l0.122-0.307l-0.274,0.229L15.951,16.233z M9.73,15.764l0.174-0.084c0.514-0.269,1.01-0.557,1.486-0.858l0.237-0.165
	l-1.268-0.979l-0.364-0.331l-1.169,0.714l0.683,1.528l0.094,0.078L9.73,15.764z M14.987,15.75l1.121-0.931l0.452-0.424l-0.855-0.423
	l-1.008-0.604l-0.097,0.087c-0.321,0.279-0.653,0.554-0.991,0.815l-0.519,0.381l1.101,0.697L14.987,15.75z M12.345,14.161
	l0.424-0.292l1.229-0.993l-0.351-0.251l-0.875-0.724l-0.793,0.001l-0.051-0.002l-1.221,0.97l0.191,0.176L12.345,14.161z
	 M16.973,13.672l0.99-2.479l-0.375,0.124c-0.276,0.079-0.58,0.154-0.904,0.219l-0.13,0.021l-0.708,0.751l-0.513,0.474l0.765,0.458
	L16.973,13.672z M8.485,13.297l0.871-0.532l-0.499-0.457l-1.052-1.111l-0.319-0.14L8.485,13.297z M14.625,12.304l0.59-0.546
	l-0.654,0.073l-0.533,0.031l0.129,0.107L14.625,12.304z M10.086,12.302l0.613-0.487l-0.173-0.016
	c-0.243-0.027-0.48-0.061-0.715-0.097l-0.463-0.087l0.102,0.108L10.086,12.302z M12.454,11.079l0.472-0.005h0.002l0.464-0.005
	c2.403-0.084,4.369-0.548,4.973-0.95l0.001-0.003v-0.034c0.213-1.571,0.021-2.537-0.396-3.047c-0.391-0.474-1.087-0.675-2.27-0.401
	c-0.012,0.001-0.027,0.006-0.04,0.007c-2.935,0.379-5.408,0.536-7.189-0.044H8.467L8.348,6.567L8.303,6.535l-0.18-0.066L7.989,6.414
	C7.158,7.036,6.63,8.245,6.906,9.563l0.093,0.312l0.136,0.09c1.117,0.675,2.794,1.006,4.56,1.093l0.082,0.003l0.017-0.003
	l0.017,0.004L12.454,11.079z M8.126,9.805C7.993,9.81,7.858,9.748,7.777,9.632C7.63,9.428,7.562,9.199,7.544,8.979
	C7.527,8.762,7.557,8.544,7.612,8.348c0.057-0.194,0.141-0.379,0.244-0.535c0.1-0.153,0.235-0.305,0.407-0.398
	c0.04-0.021,0.082-0.041,0.129-0.056c0.217-0.073,0.454,0.046,0.525,0.265C8.984,7.829,8.884,8.048,8.69,8.132L8.662,8.145
	c0,0-0.013,0.009-0.037,0.031C8.603,8.197,8.576,8.229,8.551,8.269C8.496,8.352,8.445,8.458,8.412,8.577
	c-0.035,0.118-0.046,0.234-0.04,0.335c0.01,0.1,0.038,0.176,0.08,0.231c0.133,0.188,0.09,0.449-0.096,0.583
	C8.288,9.777,8.207,9.801,8.126,9.805z M11.342,6.146c1.032,0.005,2.224-0.092,3.58-0.253l0.623-0.078l0.449-0.085
	c0.275-0.041,0.539-0.058,0.789-0.05l0.029,0.003l0.002-0.051c0.018-1.025-0.219-1.522-0.506-1.762
	c-0.342-0.282-0.902-0.34-1.736-0.187c-1.648,0.3-3.867,1.344-5.612,1.457L8.887,5.138L8.865,5.157
	C8.828,5.198,8.764,5.293,8.738,5.463C8.72,5.567,8.725,5.661,8.741,5.737L8.78,5.82l0.259,0.075
	C9.689,6.066,10.458,6.143,11.342,6.146z M9.727,4.192l0.095-0.018c1.456-0.312,3.167-1.047,4.599-1.31l0.21-0.033l0.027-0.067
	c0.089-0.284,0.018-0.617-0.174-1.002c-0.053-0.11-0.115-0.217-0.18-0.322l-0.057-0.088L14.182,1.44
	c-0.078,0.087-0.165,0.164-0.258,0.23c-0.359,0.256-0.826,0.352-1.241,0.258c-0.797-0.184-1.563,0.137-2.137,0.711
	c-0.438,0.436-0.721,0.981-0.812,1.484L9.727,4.192z"/>
</svg>
