<?xml version="1.0" encoding="utf-8"?>
<!-- Generator: Adobe Illustrator 15.0.0, SVG Export Plug-In . SVG Version: 6.00 Build 0)  -->
<!DOCTYPE svg PUBLIC "-//W3C//DTD SVG 1.1//EN" "http://www.w3.org/Graphics/SVG/1.1/DTD/svg11.dtd">
<svg version="1.1" id="Layer_1" xmlns="http://www.w3.org/2000/svg" xmlns:xlink="http://www.w3.org/1999/xlink" x="0px" y="0px"
	 width="25px" height="25px" viewBox="0 0 25 25" enable-background="new 0 0 25 25" xml:space="preserve">
<path marker-end="none" marker-start="none" fill="#333333" d="M12.079,25c-0.928,0.01-1.838-0.474-2.249-0.811
	c-0.009-0.01-0.024-0.021-0.034-0.03c-1.034-1.006-2.322-2.124-4.294-5.719c-0.005-0.009-0.012-0.024-0.017-0.035
	C3.24,13.485,3.647,9.373,5.988,7.563l0.224-0.158L6.055,7.231C5.627,6.628,5.493,6.022,5.465,5.43
	c-0.014-0.334,0.278-0.6,0.607-0.552C6.749,4.973,7.47,5.115,8.161,5.607l0.094,0.074L8.232,5.348
	C8.227,4.787,8.346,4.245,8.506,3.73c0.08-0.258,0.338-0.414,0.602-0.368c0.561,0.101,1.21,0.241,1.769,0.643
	c0.255,0.181,0.479,0.409,0.668,0.69l0.038,0.063L11.58,4.616c-0.078-1.5-0.536-2.719-1.181-3.813
	c-0.149-0.252-0.065-0.579,0.188-0.729c0.253-0.151,0.58-0.064,0.73,0.188c0.721,1.225,1.238,2.605,1.327,4.289v0.079l0.308-0.377
	c0.111-0.114,0.231-0.216,0.357-0.31c0.562-0.399,1.211-0.539,1.77-0.639c0.264-0.046,0.521,0.11,0.602,0.367
	c0.199,0.644,0.334,1.333,0.246,2.043l-0.021,0.105l0.138-0.11c0.721-0.512,1.474-0.659,2.183-0.759
	c0.329-0.044,0.621,0.217,0.605,0.55c-0.025,0.617-0.168,1.252-0.613,1.879l-0.209,0.261l0.226,0.17
	c2.745,2.239,3.147,7.583,0.446,10.385c-1.917,1.906-3.182,3.32-4.784,5.816c-0.454,0.656-1.038,0.928-1.631,0.977
	C12.202,24.996,12.14,24.997,12.079,25z M11.946,23.911c0.058,0.001,0.117,0,0.176-0.006c0.349-0.024,0.667-0.166,0.886-0.48
	c1.648-2.566,2.969-4.042,4.913-5.978c2.979-3.086,1.442-9.392-2.394-9.594c-0.02-0.001-0.041-0.003-0.062-0.005
	c-2.326-0.395-4.629-0.537-6.925-0.174c-3.26,0.389-4.5,4.141-2.525,9.249l0.434,1.028l0.336,0.6
	c1.248,2.178,2.182,3.278,2.96,4.068l0.768,0.752l0.252,0.174C11.097,23.743,11.531,23.898,11.946,23.911z M12.428,21.989
	c-0.086,0.003-0.175-0.015-0.255-0.057c-0.263-0.134-0.371-0.452-0.238-0.717l0.17-0.338c0.131-0.262,0.453-0.369,0.716-0.235
	c0.262,0.13,0.369,0.451,0.237,0.713l-0.17,0.341C12.796,21.876,12.615,21.982,12.428,21.989z M9.271,20.558
	c-0.208-0.008-0.4-0.136-0.481-0.341L8.644,19.84c-0.108-0.273,0.028-0.582,0.303-0.689c0.274-0.105,0.583,0.03,0.691,0.302
	l0.146,0.378c0.108,0.273-0.03,0.582-0.304,0.688C9.412,20.547,9.34,20.559,9.271,20.558z M12.084,17.796
	c-0.019-0.001-0.036-0.003-0.055-0.003c-0.291-0.04-0.495-0.309-0.457-0.601l0.075-0.559c0.039-0.293,0.305-0.499,0.597-0.461
	c0.292,0.039,0.498,0.307,0.459,0.599l-0.075,0.562C12.591,17.606,12.354,17.804,12.084,17.796z M16.301,17.341
	c-0.118,0-0.238-0.037-0.338-0.121c-0.229-0.186-0.262-0.521-0.074-0.749l0.355-0.433c0.185-0.229,0.522-0.263,0.748-0.077
	c0.229,0.187,0.262,0.522,0.076,0.751l-0.355,0.434C16.607,17.273,16.455,17.34,16.301,17.341z M7.28,16.14
	c-0.207-0.005-0.402-0.133-0.481-0.338l-0.247-0.636c-0.108-0.273,0.027-0.583,0.303-0.688c0.273-0.108,0.584,0.025,0.689,0.301
	l0.247,0.634c0.107,0.275-0.029,0.584-0.302,0.69C7.42,16.13,7.349,16.143,7.28,16.14z M10.092,14.485
	c-0.27,0.009-0.507-0.192-0.541-0.466l-0.069-0.547c-0.039-0.291,0.168-0.559,0.46-0.595c0.292-0.039,0.559,0.168,0.596,0.46
	l0.069,0.546c0.039,0.292-0.169,0.56-0.461,0.597C10.128,14.483,10.11,14.485,10.092,14.485z M14.396,14.41
	c-0.052,0-0.105-0.006-0.157-0.025c-0.28-0.088-0.438-0.387-0.349-0.668l0.174-0.556c0.087-0.28,0.386-0.435,0.669-0.348
	c0.279,0.089,0.436,0.388,0.349,0.667l-0.175,0.557C14.836,14.266,14.623,14.41,14.396,14.41z M6.878,12.455
	c-0.036,0.002-0.07-0.001-0.108-0.007c-0.289-0.051-0.483-0.327-0.434-0.616c0.248-1.417,1.027-2.537,2.438-3.242
	c0.264-0.131,0.582-0.024,0.713,0.238C9.62,9.091,9.513,9.412,9.251,9.543c-1.104,0.55-1.674,1.382-1.864,2.469
	C7.343,12.269,7.126,12.449,6.878,12.455z M17.345,11.969c-0.229-0.007-0.435-0.162-0.497-0.393l-0.155-0.566
	c-0.076-0.284,0.089-0.577,0.372-0.653c0.284-0.078,0.576,0.087,0.656,0.371l0.155,0.567c0.079,0.284-0.091,0.577-0.374,0.656
	C17.45,11.964,17.396,11.97,17.345,11.969z M12.445,10.606c-0.017,0-0.038,0-0.055-0.002c-0.294-0.017-0.518-0.271-0.499-0.564
	l0.035-0.574c0.02-0.292,0.272-0.516,0.566-0.499c0.293,0.019,0.518,0.272,0.499,0.566l-0.037,0.573
	C12.937,10.382,12.714,10.596,12.445,10.606z M17.039,7.11l0.339-0.387c0.112-0.167,0.192-0.331,0.251-0.494l0.03-0.091
	l-0.144,0.036c-0.301,0.088-0.592,0.213-0.869,0.416l-0.348,0.304l0.174,0.027c0.133,0.034,0.264,0.073,0.391,0.116L17.039,7.11z
	 M7.187,6.905l0.072-0.027C7.378,6.837,7.498,6.8,7.62,6.767L7.826,6.72L7.549,6.477C7.28,6.284,7.005,6.169,6.722,6.087
	L6.647,6.068l0.015,0.043c0.054,0.155,0.129,0.311,0.236,0.464L7.187,6.905z M14.513,6.628l0.053-0.154
	c0.337-0.586,0.383-1.177,0.263-1.82l-0.043-0.201l-0.094,0.025c-0.293,0.078-0.545,0.179-0.76,0.333
	c-0.327,0.235-0.633,0.633-0.812,1.428c-0.016,0.071-0.047,0.137-0.087,0.193l-0.037,0.034l0.958,0.09L14.513,6.628z M9.597,6.48
	l0.504-0.046l1.013-0.033l-0.046-0.104c-0.18-0.793-0.485-1.192-0.812-1.427c-0.219-0.155-0.47-0.256-0.762-0.335L9.399,4.511
	L9.356,4.708C9.266,5.192,9.269,5.646,9.419,6.09L9.597,6.48z"/>
</svg>
