<?xml version="1.0" encoding="utf-8"?>
<!-- Generator: Adobe Illustrator 15.0.0, SVG Export Plug-In . SVG Version: 6.00 Build 0)  -->
<!DOCTYPE svg PUBLIC "-//W3C//DTD SVG 1.1//EN" "http://www.w3.org/Graphics/SVG/1.1/DTD/svg11.dtd">
<svg version="1.1" id="Layer_1" xmlns="http://www.w3.org/2000/svg" xmlns:xlink="http://www.w3.org/1999/xlink" x="0px" y="0px"
	 width="25px" height="25px" viewBox="0 0 25 25" enable-background="new 0 0 25 25" xml:space="preserve">
<path marker-end="none" marker-start="none" fill="#4C4C4C" d="M2.89,25l-0.445-0.197L0,22.084c0.051-0.47,0.365-0.722,0.888-0.801
	l2.268,2.522H20.8l2.338-2.598c0.448,0.034,0.751,0.293,0.887,0.798l-2.515,2.797L21.066,25H2.89z M5.778,22.968l-0.535-0.33
	c-2.09-4.178-3.025-8.645-2.204-13.503c0.063-0.295,0.247-0.477,0.588-0.498h16.218c0.361-0.012,0.506,0.196,0.582,0.468
	c0.124,0.568,0.221,1.136,0.286,1.704l0.029,0.31l0.341-0.004c2.305,0.088,3.545,1.837,3.457,3.671
	c-0.095,1.947-1.653,3.862-4.595,4.03l-0.003-0.049l-0.15,0.501c-0.357,1.121-0.8,2.24-1.317,3.355l-0.542,0.345H5.778z
	 M17.54,21.773l0.542-1.262c1.372-3.482,1.91-6.932,1.332-10.359l-0.062-0.321H4.142l-0.051,0.354
	c-0.461,3.678,0.139,7.124,1.523,10.413l0.544,1.176H17.54z M6.376,18.333c-0.806-2.03-1.006-4.147-0.817-6.304
	c0.351-0.277,0.78-0.337,1.191,0.105c-0.179,2.012,0.013,3.937,0.735,5.758C7.229,18.342,6.868,18.514,6.376,18.333z M20.268,17.571
	l0.438-0.059c1.785-0.387,2.587-1.647,2.642-2.783c0.055-1.127-0.604-2.215-2.017-2.398l-0.504-0.015l0.008,0.191
	c0.032,1.415-0.103,2.826-0.383,4.232L20.268,17.571z M6.387,7.512C6.054,7.072,6.074,6.678,6.37,6.318
	c0.52-0.007,0.833-0.111,1.019-0.226c0.174-0.107,0.263-0.24,0.304-0.384c0.097-0.333-0.031-0.81-0.28-1.131
	C7.066,4.128,6.604,3.803,6.205,3.245C5.753,2.611,5.682,1.711,6.071,1.01c0.417-0.753,1.295-1.167,2.474-0.955
	c0.269,0.374,0.228,0.764-0.212,1.177c-0.4-0.073-0.675-0.031-0.854,0.042c-0.175,0.072-0.29,0.183-0.363,0.315
	c-0.158,0.285-0.131,0.69,0.062,0.961c0.324,0.456,0.762,0.754,1.181,1.295c0.417,0.539,0.714,1.402,0.481,2.197
	c-0.123,0.42-0.389,0.799-0.823,1.065C7.594,7.37,7.047,7.503,6.387,7.512z M10.567,7.512c-0.475-0.378-0.444-0.779-0.015-1.194
	c0.518-0.007,0.833-0.111,1.017-0.226c0.175-0.107,0.263-0.24,0.305-0.384c0.097-0.333-0.032-0.81-0.28-1.131
	c-0.346-0.449-0.81-0.774-1.208-1.333C9.935,2.611,9.863,1.711,10.252,1.01c0.419-0.753,1.295-1.167,2.474-0.955
	c0.309,0.392,0.309,0.786-0.213,1.177c-0.4-0.073-0.674-0.031-0.852,0.042c-0.176,0.072-0.29,0.183-0.364,0.315
	c-0.16,0.285-0.131,0.69,0.061,0.961c0.325,0.456,0.762,0.754,1.18,1.295c0.416,0.539,0.713,1.402,0.481,2.197
	c-0.123,0.42-0.39,0.799-0.823,1.065C11.775,7.37,11.229,7.503,10.567,7.512z M14.718,7.512c-0.303-0.397-0.444-0.797-0.016-1.194
	c0.52-0.007,0.834-0.111,1.02-0.226c0.172-0.107,0.262-0.24,0.303-0.384c0.097-0.333-0.031-0.81-0.279-1.131
	c-0.348-0.449-0.812-0.774-1.209-1.333c-0.452-0.634-0.523-1.534-0.133-2.235c0.418-0.753,1.295-1.167,2.474-0.955
	c0.243,0.452,0.171,0.843-0.212,1.177c-0.4-0.073-0.675-0.031-0.854,0.042c-0.176,0.072-0.29,0.183-0.363,0.315
	c-0.159,0.285-0.133,0.69,0.061,0.961c0.324,0.456,0.763,0.754,1.182,1.295c0.416,0.539,0.713,1.402,0.48,2.197
	c-0.122,0.42-0.389,0.799-0.822,1.065C15.926,7.37,15.378,7.503,14.718,7.512z"/>
</svg>
