<?xml version="1.0" encoding="utf-8"?>
<!-- Generator: Adobe Illustrator 15.0.0, SVG Export Plug-In . SVG Version: 6.00 Build 0)  -->
<!DOCTYPE svg PUBLIC "-//W3C//DTD SVG 1.1//EN" "http://www.w3.org/Graphics/SVG/1.1/DTD/svg11.dtd">
<svg version="1.1" id="Layer_1" xmlns="http://www.w3.org/2000/svg" xmlns:xlink="http://www.w3.org/1999/xlink" x="0px" y="0px"
	 width="25px" height="25px" viewBox="0 0 25 25" enable-background="new 0 0 25 25" xml:space="preserve">
<path marker-end="none" marker-start="none" fill="#333333" d="M9.524,24.186c-0.275,0-0.498-0.223-0.49-0.498
	c0.061-3.297-0.77-5.426-2.084-6.893l-0.573-0.572l-0.744-0.486L5.25,15.842c-0.259,0.045-0.522,0.068-0.792,0.068
	C1.996,15.91,0,13.914,0,11.45c0-1.615,0.862-3.029,2.147-3.812l0.494-0.251L2.635,7.272c0-2.462,1.998-4.458,4.458-4.458
	c0.461,0,0.906,0.069,1.327,0.201l0.242,0.09l0.071-0.14c0.783-1.287,2.197-2.15,3.814-2.15c1.211,0,2.309,0.484,3.113,1.271
	l0.256,0.275c0.295-0.062,0.595-0.094,0.9-0.094c2.462,0,4.459,1.998,4.459,4.46l-0.008,0.16l0.547,0.109
	C23.655,7.545,25,9.249,25,11.269c0,2.461-1.998,4.459-4.458,4.459c-0.308,0-0.609-0.031-0.899-0.09l-0.155-0.049l-0.065,0.078
	c-2.368,1.961-3.976,4.334-3.681,7.988c0.021,0.287-0.205,0.529-0.488,0.529H9.524z M14.739,23.207l-0.012-0.215
	c-0.046-2.742,0.934-4.811,2.426-6.502l0.232-0.242l-0.245,0.1c-0.418,0.129-0.864,0.199-1.324,0.199
	c-0.303,0-0.599-0.031-0.885-0.09l-0.024-0.004l-0.274,0.572c-0.282,0.699-0.45,1.457-0.523,2.264
	c-0.024,0.254-0.237,0.443-0.486,0.443c-0.015,0.002-0.031,0-0.049,0c-0.27-0.025-0.467-0.264-0.442-0.533
	c0.081-0.885,0.27-1.74,0.597-2.541l0.242-0.516l-0.25-0.117c-0.377-0.201-0.719-0.451-1.02-0.748l-0.113-0.119l-0.11,0.119
	c-0.401,0.393-0.877,0.709-1.404,0.93l-0.141,0.051l0.19,0.4c0.325,0.801,0.512,1.656,0.595,2.539
	c0.026,0.27-0.172,0.51-0.442,0.535c-0.015,0-0.032,0.002-0.049,0.002c-0.249-0.002-0.462-0.189-0.483-0.443
	c-0.078-0.809-0.248-1.566-0.528-2.266l-0.25-0.523l-0.151,0.021c-0.147,0.016-0.298,0.023-0.449,0.023
	c-0.463,0-0.907-0.07-1.325-0.199L7.75,16.232l0.473,0.584c1.079,1.496,1.733,3.479,1.789,6.158v0.232H14.739z M9.366,15.568
	c0.808,0,1.554-0.277,2.146-0.744l0.536-0.521l0.149-0.203c0.195-0.262,0.591-0.262,0.788,0l0.147,0.203l0.536,0.521
	c0.592,0.467,1.337,0.744,2.148,0.744c0.718,0,1.389-0.221,1.944-0.596l0.508-0.418l0.062-0.078
	c0.145-0.174,0.387-0.229,0.591-0.129l0.269,0.131l0.648,0.201c0.227,0.045,0.462,0.068,0.703,0.068
	c1.919,0,3.479-1.559,3.479-3.479c0-1.573-1.051-2.907-2.487-3.333l-0.637-0.125L20.714,7.8c-0.289-0.012-0.506-0.275-0.461-0.562
	l0.023-0.155l0.018-0.355c0-1.92-1.559-3.479-3.479-3.479l-0.697,0.07l-0.268,0.07c-0.192,0.049-0.396-0.023-0.515-0.184
	l-0.11-0.146l-0.534-0.521c-0.592-0.465-1.336-0.743-2.146-0.743c-1.439,0-2.677,0.876-3.21,2.125L9.243,4.073
	C9.101,4.222,8.87,4.273,8.67,4.176L8.442,4.064L7.795,3.863C7.567,3.818,7.334,3.795,7.092,3.795c-1.919,0-3.477,1.557-3.477,3.478
	l0.015,0.35l0.005,0.026c0.037,0.24-0.108,0.47-0.339,0.541L3.091,8.253L2.654,8.478C1.65,9.086,0.981,10.192,0.981,11.45
	c0,1.923,1.558,3.479,3.478,3.479c0.564,0,1.094-0.133,1.554-0.365l0.266-0.148c0.202-0.113,0.458-0.068,0.611,0.107l0.022,0.031
	l0.509,0.418C7.976,15.348,8.646,15.568,9.366,15.568z M4.76,8.105c-0.034,0-0.065-0.003-0.101-0.011
	C4.397,8.043,4.223,7.786,4.274,7.521C4.46,6.563,4.84,5.837,5.424,5.355c0.589-0.479,1.322-0.657,2.114-0.64
	c0.271,0.008,0.484,0.233,0.478,0.502c-0.005,0.271-0.229,0.484-0.5,0.478C6.883,5.682,6.401,5.824,6.045,6.114
	c-0.356,0.292-0.652,0.785-0.81,1.594C5.19,7.939,4.986,8.103,4.76,8.105z M10.684,4.646c-0.141,0.004-0.283-0.052-0.383-0.165
	c-0.179-0.203-0.16-0.513,0.042-0.692c0.734-0.643,1.479-0.992,2.235-1.012c0.757-0.021,1.448,0.285,2.062,0.781
	c0.21,0.169,0.242,0.479,0.073,0.69c-0.169,0.21-0.478,0.243-0.688,0.072c-0.493-0.397-0.96-0.576-1.421-0.564
	c-0.462,0.014-0.995,0.223-1.613,0.77C10.904,4.604,10.792,4.643,10.684,4.646z"/>
</svg>
