<?xml version="1.0" encoding="utf-8"?>
<!-- Generator: Adobe Illustrator 15.0.0, SVG Export Plug-In . SVG Version: 6.00 Build 0)  -->
<!DOCTYPE svg PUBLIC "-//W3C//DTD SVG 1.1//EN" "http://www.w3.org/Graphics/SVG/1.1/DTD/svg11.dtd">
<svg version="1.1" id="Layer_1" xmlns="http://www.w3.org/2000/svg" xmlns:xlink="http://www.w3.org/1999/xlink" x="0px" y="0px"
	 width="25px" height="25px" viewBox="0 0 25 25" enable-background="new 0 0 25 25" xml:space="preserve">
<path marker-end="none" marker-start="none" fill="#333333" d="M4.466,24.717c-0.197,0-0.363-0.143-0.391-0.337L2.477,13.502
	L0.75,17.046c-0.072,0.146-0.224,0.229-0.377,0.221c-0.051-0.002-0.103-0.016-0.152-0.039c-0.195-0.096-0.277-0.333-0.181-0.529
	l2.159-4.428c0.022-0.049,0.056-0.09,0.094-0.124l0.063-0.038L2.4,12.045c0.073-0.083,0.179-0.137,0.3-0.137h0.561l0.091-0.332
	c0.095-0.224,0.243-0.427,0.428-0.604c0.362-0.346,0.878-0.618,1.466-0.831c1.182-0.43,2.772-0.66,4.372-0.688
	c0.707-0.011,1.453,0.018,2.185,0.096l0.076,0.011l5.092-6.07l3.053-3.384c0.126-0.139,0.342-0.144,0.473-0.009l1.003,1.03
	c0.118,0.121,0.124,0.312,0.013,0.441l-3.043,3.505c-0.006,0.007-0.014,0.014-0.02,0.02l-4.884,4.771l0.336,0.078
	c0.324,0.092,0.632,0.2,0.916,0.322l0.147,0.072l5.076-4.059l3.673-2.729c0.151-0.113,0.365-0.073,0.468,0.085l0.768,1.212
	c0.09,0.142,0.059,0.328-0.075,0.43l-3.689,2.85c-0.006,0.006-0.015,0.012-0.021,0.015l-4.891,3.176l0.132,0.183
	c0.063,0.104,0.116,0.213,0.157,0.325l0.022,0.083h0.636c0.15,0,0.279,0.084,0.345,0.207l0.015,0.033l0.035,0.043l2.158,4.429
	c0.096,0.195,0.014,0.432-0.182,0.526c-0.049,0.025-0.1,0.038-0.152,0.04c-0.152,0.01-0.305-0.073-0.376-0.221l-1.64-3.362
	l-1.621,10.778c-0.029,0.192-0.195,0.335-0.391,0.335H4.466z M15.071,23.927l1.489-9.899l-1.661,2.846
	c-0.069,0.122-0.2,0.194-0.341,0.194H5.661c-0.133,0-0.259-0.064-0.332-0.178l-2.01-3.081l1.487,10.118H15.071z M14.332,16.279
	l2.09-3.581H3.538l2.335,3.581H14.332z M4.76,11.908l0.059-0.274c0.052-0.153,0.122-0.292,0.203-0.419l0.151-0.192l-0.035,0.014
	c-0.352,0.157-0.623,0.328-0.811,0.507c-0.12,0.115-0.199,0.226-0.247,0.336l-0.007,0.029H4.76z M6.691,11.908l-0.009-0.101
	c0.014-0.362,0.17-0.702,0.371-1.002l0.222-0.276l-0.559,0.294c-0.219,0.116-0.429,0.238-0.612,0.378
	c-0.254,0.195-0.444,0.413-0.54,0.698l-0.002,0.008H6.691z M8.222,11.908l0.074-0.376l0.062-0.1l-0.19-0.014l-0.529-0.06
	L7.637,11.36c-0.076,0.131-0.125,0.248-0.148,0.352l-0.002,0.197H8.222z M9.955,11.908l0.037-0.273l0.072-0.139l-0.171,0.003
	l-0.555-0.011l-0.211,0.188c-0.053,0.062-0.083,0.112-0.099,0.153l-0.017,0.079H9.955z M12.652,11.908l-0.009-0.088
	c-0.019-0.072-0.045-0.133-0.08-0.186c-0.062-0.095-0.168-0.198-0.361-0.305l-0.045-0.022l-0.136,0.022
	c-0.175,0.027-0.35,0.052-0.525,0.073l-0.229,0.022l-0.003,0.002c-0.257,0.107-0.382,0.21-0.445,0.295
	c-0.032,0.042-0.054,0.085-0.068,0.136l-0.007,0.05H12.652z M14.044,11.908l-0.007-0.015c-0.002-0.204-0.039-0.34-0.109-0.448
	c-0.07-0.108-0.198-0.227-0.449-0.35c-0.025-0.013-0.049-0.027-0.068-0.042l-0.02-0.019l-0.081,0.022l-0.161,0.041l0.009,0.01
	c0.024,0.031,0.048,0.064,0.069,0.097c0.088,0.135,0.146,0.275,0.182,0.422l0.035,0.282H14.044z M15.724,11.908l-0.02-0.035
	c-0.175-0.269-0.475-0.519-0.897-0.739L14.6,11.034l0.174,0.406c0.037,0.145,0.053,0.296,0.055,0.448l-0.011,0.021H15.724z
	 M15.807,10.846l4.701-3.052l-0.469-0.683l-4.458,3.564l0.013,0.008L15.807,10.846z M9.563,10.708l-0.007-0.02
	c-0.013-0.03-0.028-0.059-0.046-0.086c-0.035-0.055-0.085-0.112-0.157-0.17l-0.275-0.167H9.054l-0.492,0.033L8.23,10.623
	l-0.006,0.006l0.273,0.026c0.352,0.029,0.701,0.046,1.045,0.052H9.563z M10.374,10.697l0.193-0.008
	c0.112-0.006,0.224-0.014,0.337-0.022l0.09-0.009l-0.016-0.04c-0.01-0.023-0.024-0.044-0.039-0.065
	c-0.065-0.085-0.19-0.188-0.447-0.295l-0.003-0.004l-0.279-0.008h-0.004l0.151,0.349L10.374,10.697z M11.785,10.564l0.113-0.016
	l0.568-0.113l-0.021-0.004c-0.177-0.029-0.355-0.053-0.538-0.075l-0.208-0.021l0.066,0.13L11.785,10.564z M12.809,9.696l4.927-4.813
	l-0.603-0.575L12.636,9.67L12.809,9.696z M7.778,7.471C7.678,7.48,7.574,7.45,7.491,7.379c-0.167-0.141-0.188-0.39-0.048-0.557
	C7.601,6.635,7.73,6.483,7.831,6.339C7.933,6.197,7.988,6.09,8.01,6.001C8.031,5.922,8.03,5.85,7.996,5.76
	c-0.039-0.1-0.124-0.235-0.299-0.41C7.256,4.931,7.021,4.503,7.001,4.067C6.979,3.63,7.178,3.273,7.402,3
	c0.315-0.375,0.433-0.609,0.439-0.769c0.002-0.065-0.013-0.136-0.073-0.224C7.702,1.913,7.582,1.793,7.366,1.656
	C7.182,1.537,7.128,1.293,7.245,1.109c0.12-0.183,0.363-0.237,0.546-0.119C8.06,1.162,8.273,1.348,8.419,1.56
	c0.15,0.217,0.222,0.454,0.211,0.703C8.612,2.729,8.307,3.151,8.01,3.504C7.851,3.698,7.782,3.867,7.789,4.03
	c0.008,0.162,0.097,0.409,0.459,0.755c0.229,0.228,0.395,0.454,0.485,0.692c0.096,0.249,0.103,0.49,0.042,0.724
	C8.716,6.422,8.602,6.62,8.476,6.797C8.351,6.973,8.197,7.154,8.047,7.331C7.976,7.415,7.879,7.462,7.778,7.471z M10.71,7.471
	c-0.101,0.009-0.206-0.021-0.289-0.091c-0.166-0.14-0.188-0.389-0.048-0.557c0.158-0.188,0.287-0.339,0.388-0.482
	c0.102-0.143,0.157-0.25,0.179-0.339c0.02-0.079,0.02-0.151-0.015-0.241c-0.037-0.1-0.123-0.235-0.298-0.41
	c-0.441-0.419-0.675-0.846-0.696-1.282C9.91,3.63,10.107,3.274,10.333,3c0.316-0.375,0.434-0.609,0.439-0.771
	c0.002-0.064-0.013-0.135-0.072-0.222c-0.065-0.095-0.187-0.214-0.404-0.352c-0.183-0.119-0.237-0.363-0.119-0.546
	c0.118-0.183,0.363-0.237,0.546-0.119c0.268,0.171,0.482,0.357,0.627,0.569c0.15,0.218,0.221,0.454,0.211,0.703
	c-0.019,0.467-0.324,0.889-0.622,1.241c-0.158,0.193-0.228,0.363-0.221,0.526c0.008,0.162,0.097,0.41,0.458,0.755
	c0.229,0.228,0.394,0.454,0.485,0.692c0.095,0.249,0.103,0.49,0.042,0.723c-0.058,0.222-0.173,0.42-0.298,0.596
	c-0.125,0.177-0.279,0.356-0.43,0.535C10.907,7.415,10.811,7.462,10.71,7.471z M21.039,7.418l3.202-2.473L23.82,4.279l-3.27,2.428
	L21.039,7.418z M18.183,4.413l2.643-3.045l-0.552-0.567l-2.719,3.012L18.183,4.413z"/>
</svg>
