<?xml version="1.0" encoding="utf-8"?>
<!-- Generator: Adobe Illustrator 15.0.0, SVG Export Plug-In . SVG Version: 6.00 Build 0)  -->
<!DOCTYPE svg PUBLIC "-//W3C//DTD SVG 1.1//EN" "http://www.w3.org/Graphics/SVG/1.1/DTD/svg11.dtd">
<svg version="1.1" id="Layer_1" xmlns="http://www.w3.org/2000/svg" xmlns:xlink="http://www.w3.org/1999/xlink" x="0px" y="0px"
	 width="25px" height="25px" viewBox="0 0 25 25" enable-background="new 0 0 25 25" xml:space="preserve">
<path marker-end="none" marker-start="none" fill="#333333" d="M12.812,25c-0.502-0.004-1.018-0.025-1.546-0.074
	C4.062,24.395,0.2,18.434,1.052,12.395c0.882-5.157,4.861-7.172,8.579-6.626L9.744,5.79L9.628,5.676
	c-0.266-0.313-0.492-0.711-0.64-1.222C8.9,4.138,9.084,3.807,9.403,3.715c0.318-0.092,0.65,0.094,0.741,0.412
	c0.187,0.656,0.559,0.996,0.965,1.236l0.182,0.092l-0.016-0.198c-0.069-1.584,0.032-3.16,0.206-4.723
	c0.037-0.329,0.332-0.566,0.66-0.531c0.33,0.038,0.57,0.334,0.531,0.663c-0.17,1.526-0.262,3.039-0.197,4.537l0.01,0.137
	l0.535-0.327c0.506-0.321,0.979-0.733,1.206-1.519c0.091-0.317,0.425-0.501,0.743-0.41c0.316,0.092,0.501,0.424,0.41,0.743
	c-0.256,0.88-0.734,1.448-1.227,1.849l-0.164,0.117l0.255-0.055c6.799-1.351,11.856,5.435,9.015,12.744
	c-1.856,4.408-5.331,6.402-9.945,6.512C13.146,24.998,12.98,25.002,12.812,25z M12.798,23.801c0.156,0.002,0.31,0,0.461-0.004
	c4.257-0.09,7.256-1.893,8.886-5.766c2.872-7.374-3.021-13.628-9.869-10.376c-0.074,0.037-0.152,0.056-0.232,0.059l-0.159-0.005
	c-0.078,0.011-0.154-0.013-0.227-0.05c-3.615-1.845-8.48-0.548-9.417,4.922c-0.765,5.396,2.663,10.671,9.12,11.15
	C11.854,23.773,12.333,23.797,12.798,23.801z M4.188,13.561c-0.329-0.018-0.584-0.299-0.569-0.628
	c0.096-1.939,0.952-3.569,2.732-4.75c0.276-0.182,0.65-0.106,0.83,0.17c0.184,0.278,0.11,0.648-0.167,0.832
	c-1.455,0.962-2.117,2.24-2.197,3.808C4.802,13.32,4.521,13.578,4.188,13.561z"/>
</svg>
