<?xml version="1.0" encoding="utf-8"?>
<!-- Generator: Adobe Illustrator 15.0.0, SVG Export Plug-In . SVG Version: 6.00 Build 0)  -->
<!DOCTYPE svg PUBLIC "-//W3C//DTD SVG 1.1//EN" "http://www.w3.org/Graphics/SVG/1.1/DTD/svg11.dtd">
<svg version="1.1" id="Layer_1" xmlns="http://www.w3.org/2000/svg" xmlns:xlink="http://www.w3.org/1999/xlink" x="0px" y="0px"
	 width="25px" height="25px" viewBox="0 0 25 25" enable-background="new 0 0 25 25" xml:space="preserve">
<path marker-end="none" marker-start="none" fill="#4C4C4C" d="M2.884,22.938L2.419,22.73l-2.557-2.842
	c-0.112-0.688,0.517-1.064,0.929-0.836l2.37,2.637H3.35l0.01-0.517c0.221-6.394,3.56-10.56,9.175-11.766l0.903-0.158l0.544-0.821
	c0.635-0.88,1.436-1.717,2.67-2.132l0.534-0.13l0.782-1.008c-0.983-1.098-0.646-2.667,0.111-3.485
	c0.455-0.492,1.159-0.831,1.937-0.597c0.56,0.17,1.042,0.603,1.432,1.264l0.095,0.196l0.137-0.052
	c1.631-0.396,2.801,0.753,2.875,2.059c0.08,1.393-1.029,2.576-3.07,2.51l-0.525-0.061l-0.864,1.161l-0.021,0.843
	c-0.045,0.714-0.151,1.435-0.362,2.14l-0.239,0.62l0.41,0.415c1.479,1.843,1.75,4.785,1.065,9.358l-0.024,0.16h0.685l2.442-2.717
	c0.437-0.279,1.08,0.042,0.929,0.836L22.35,22.73l-0.464,0.207H2.884z M19.658,21.689l0.065-0.42
	c0.766-5.184,0.166-7.604-1.375-8.885l-0.164-0.75c0.399-0.833,0.58-1.751,0.641-2.714l0.02-0.73l-1.361-0.816l-0.416,0.099
	c-1.267,0.416-1.942,1.44-2.732,2.679l-0.442,0.284c-5.665,0.759-9.061,4.487-9.286,10.752l-0.011,0.5H19.658z M8.095,18.373
	l-1.227-0.234c0.475-2.484,2.071-4.329,4.424-5.67l0.62,1.085C9.786,14.766,8.484,16.334,8.095,18.373z M10.935,17.874l-1.226-0.235
	c0.258-1.354,1.127-2.341,2.364-3.047l0.618,1.085C11.688,16.25,11.109,16.965,10.935,17.874z M19.362,7.045l0.809-1.087l0.62-0.24
	c2.114,0.41,2.549-0.541,2.517-1.103c-0.035-0.637-0.629-1.324-1.799-0.744l-0.855-0.322c-0.38-0.929-0.777-1.211-0.999-1.278
	c-0.192-0.058-0.425-0.002-0.659,0.25c-0.512,0.553-0.576,1.525,0.18,2.038l0.143,0.901l-0.826,1.063L19.362,7.045z"/>
</svg>
