<?xml version="1.0" encoding="utf-8"?>
<!-- Generator: Adobe Illustrator 15.0.0, SVG Export Plug-In . SVG Version: 6.00 Build 0)  -->
<!DOCTYPE svg PUBLIC "-//W3C//DTD SVG 1.1//EN" "http://www.w3.org/Graphics/SVG/1.1/DTD/svg11.dtd">
<svg version="1.1" id="Layer_1" xmlns="http://www.w3.org/2000/svg" xmlns:xlink="http://www.w3.org/1999/xlink" x="0px" y="0px"
	 width="25px" height="25px" viewBox="0 0 25 25" enable-background="new 0 0 25 25" xml:space="preserve">
<path marker-end="none" marker-start="none" fill="#4C4C4C" d="M2.31,20.336c-0.316,0.003-0.655-0.087-0.923-0.301
	C1.107,19.811,0.93,19.471,0.93,19.05v-8.462H0.434L0,10.152V5.173c0-0.42,0.817-0.505,0.87,0v4.543h0.991V4.561
	c0-0.492,0.872-0.525,0.872,0v5.156h0.937V5.111c0-0.465,0.872-0.498,0.872,0v5.041l-0.436,0.436H3.679v8.462
	c0,0.415-0.181,0.748-0.456,0.97C2.959,20.233,2.626,20.332,2.31,20.336z M22.758,20.336c-0.319,0.003-0.661-0.092-0.929-0.314
	c-0.279-0.231-0.45-0.578-0.45-1.003L21.345,5.962c0-0.498,0.303-0.849,0.657-1.048c0.346-0.193,0.773-0.272,1.174-0.268
	c0.4,0.002,0.826,0.089,1.168,0.282C24.694,5.127,25,5.473,25,5.962V13.5c-0.008,0.635-0.145,1.297-0.784,1.936l-0.088,0.08v3.503
	c0,0.418-0.177,0.759-0.449,0.988C23.415,20.229,23.079,20.332,22.758,20.336z M12.75,19.909c-4.382,0-7.937-3.554-7.937-7.937
	c0-4.381,3.555-7.936,7.937-7.936c4.381,0,7.936,3.555,7.936,7.936C20.687,16.355,17.132,19.909,12.75,19.909z M2.299,19.465
	c0.152-0.001,0.288-0.05,0.377-0.123c0.078-0.062,0.131-0.151,0.131-0.292v-8.462H1.801v8.462c0,0.158,0.057,0.246,0.129,0.305
	C2.014,19.422,2.146,19.467,2.299,19.465z M22.748,19.464c0.147-0.001,0.282-0.051,0.371-0.125c0.078-0.065,0.137-0.164,0.137-0.32
	v-3.918h0.169l-0.059-0.073c0.655-0.521,0.756-1.01,0.763-1.532V5.962c0-0.088-0.046-0.179-0.215-0.275
	c-0.181-0.102-0.451-0.168-0.746-0.171c-0.296-0.002-0.563,0.06-0.739,0.158c-0.166,0.092-0.213,0.186-0.213,0.288l0.035,13.056
	c0,0.174,0.062,0.271,0.135,0.332C22.469,19.421,22.599,19.467,22.748,19.464z M12.75,19.039c3.899,0,7.065-3.166,7.065-7.066
	c0-3.899-3.166-7.064-7.065-7.064c-3.9,0-7.065,3.165-7.065,7.064C5.685,15.873,8.85,19.039,12.75,19.039z M12.75,16.484
	c-2.491,0-4.51-2.02-4.51-4.511c0-2.488,2.02-4.509,4.51-4.509c2.489,0,4.511,2.021,4.511,4.509
	C17.261,14.465,15.239,16.484,12.75,16.484z M12.75,15.613c2.009,0,3.638-1.631,3.638-3.64c0-2.007-1.629-3.638-3.638-3.638
	s-3.639,1.631-3.639,3.638C9.111,13.982,10.741,15.613,12.75,15.613z M7.43,10.719c-0.23,0.418-0.838,0.334-0.868-0.07
	c0.146-1.84,1.561-3.481,3.167-4.037c0.399-0.046,0.652,0.505,0.286,0.823C8.71,7.886,7.548,9.248,7.43,10.719z"/>
</svg>
