<?xml version="1.0" encoding="utf-8"?>
<!-- Generator: Adobe Illustrator 15.0.0, SVG Export Plug-In . SVG Version: 6.00 Build 0)  -->
<!DOCTYPE svg PUBLIC "-//W3C//DTD SVG 1.1//EN" "http://www.w3.org/Graphics/SVG/1.1/DTD/svg11.dtd">
<svg version="1.1" id="Layer_1" xmlns="http://www.w3.org/2000/svg" xmlns:xlink="http://www.w3.org/1999/xlink" x="0px" y="0px"
	 width="25px" height="25px" viewBox="0 0 25 25" enable-background="new 0 0 25 25" xml:space="preserve">
<path marker-end="none" marker-start="none" fill="#4C4C4C" d="M5.851,25c-0.255,0-0.466-0.202-0.476-0.456
	c-0.01-0.36,0.132-0.658,0.378-0.879c0.227-0.199,0.52-0.311,0.804-0.38c0.03-0.007,0.063-0.012,0.093-0.012
	c2.445-0.093,3.426-0.896,3.875-1.909c0.238-0.535,0.344-1.173,0.382-1.891c0.022-0.36,0.028-0.73,0.025-1.104l-0.008-0.917
	l-0.602-0.06C6.197,16.849,3,14.474,3,11.478c0-0.304,0.282-0.527,0.578-0.459l0.343,0.071l-0.074-0.205
	c-0.135-0.436-0.208-0.898-0.208-1.38c0-2.401,1.827-4.378,4.168-4.617l0.236-0.011L8.01,4.613C7.997,4.477,7.993,4.34,7.993,4.195
	C7.993,1.881,9.874,0,12.189,0c2.318,0,4.196,1.881,4.196,4.195c0,0.146-0.007,0.292-0.021,0.429L16.32,4.896l0.449,0.069
	c1.8,0.369,3.237,1.733,3.714,3.491l0.023,0.104l0.019,0.014c0.069,0.073,0.107,0.168,0.105,0.276
	c-0.002,0.053-0.016,0.105-0.034,0.149h-0.002l0.038,0.293c0.014,0.145,0.019,0.29,0.019,0.434c0,0.338-0.035,0.666-0.099,0.981
	l-0.101,0.391l0.208-0.066c0.309-0.108,0.629,0.121,0.629,0.445c0,3.002-3.206,5.371-7.329,5.917l-0.567,0.055l-0.009,0.92
	c-0.001,0.374,0.003,0.744,0.024,1.104c0.041,0.718,0.146,1.355,0.384,1.891c0.447,1.01,1.425,1.816,3.874,1.909
	c0.033,0,0.063,0.005,0.093,0.012c0.285,0.069,0.578,0.181,0.806,0.38c0.248,0.221,0.388,0.519,0.377,0.879
	C18.934,24.798,18.724,25,18.468,25H5.851z M16.161,24.057l-0.306-0.062c-1.551-0.372-2.449-1.165-2.926-2.245
	c-0.306-0.688-0.424-1.457-0.465-2.224c-0.023-0.377-0.028-0.77-0.027-1.159l0.008-0.864l-0.301,0.013l-0.274-0.013l0.009,0.864
	c0.001,0.39-0.005,0.782-0.026,1.159c-0.042,0.767-0.159,1.536-0.464,2.224c-0.48,1.082-1.382,1.873-2.932,2.245l-0.301,0.062
	H16.161z M12.145,16.568c4.193,0,7.52-1.962,8.105-4.34l0.019-0.09l-0.112,0.03c-4.051,1.042-11.477,0.789-15.892-0.043l-0.26-0.05
	l0.033,0.153C4.623,14.612,7.938,16.568,12.145,16.568z M13.568,11.905c2.002-0.021,3.916-0.161,5.451-0.453l0.316-0.063
	l0.101-0.225c0.042-0.11,0.081-0.224,0.114-0.339l0.056-0.235l-0.087,0.1c-0.189,0.166-0.445,0.252-0.765,0.252
	c-0.24,0-0.45-0.039-0.628-0.13c-0.186-0.094-0.306-0.232-0.389-0.367c-0.111-0.176-0.158-0.343-0.227-0.493l-0.035-0.065
	C17.459,9.9,17.438,9.914,17.413,9.93c-0.076,0.06-0.196,0.156-0.313,0.231c-0.252,0.162-0.652,0.332-1.084,0.073
	c-0.42-0.251-0.586-0.735-0.689-1.069c-0.066-0.202-0.108-0.36-0.168-0.533c-0.056-0.166-0.115-0.296-0.186-0.398
	c-0.152-0.221-0.34-0.239-0.533-0.142c-0.228,0.116-0.451,0.404-0.499,0.781c-0.138,1.072-0.852,1.647-1.634,1.542
	c-0.096-0.012-0.188-0.034-0.276-0.064l-0.119-0.056l0.037,0.208c0.083,0.421,0.235,0.815,0.442,1.173l0.142,0.227H13.568z
	 M11.108,11.873l0.16-0.191l0.043-0.066l-0.05-0.104c-0.217-0.551-0.335-1.155-0.335-1.786c0-0.167,0.008-0.332,0.023-0.496
	l0.021-0.155l-0.026-0.104c-0.021-0.116-0.037-0.237-0.038-0.363c-0.007-0.159,0.085-0.297,0.22-0.363l0.033-0.006l0.062-0.181
	c0.026-0.074,0.057-0.148,0.085-0.223l0.125-0.258l-0.299-0.421C10.454,6.334,9.427,5.81,8.282,5.81
	c-2.042,0-3.697,1.657-3.697,3.696c0,0.573,0.13,1.119,0.363,1.605l0.113,0.195l0.119,0.021c1.156,0.189,2.476,0.336,3.856,0.438
	L11.108,11.873z M18.755,10.173c0.207,0,0.265-0.059,0.299-0.107c0.052-0.074,0.086-0.196,0.13-0.447
	c0.025-0.156,0.071-0.488,0.206-0.722c0.041-0.073,0.091-0.138,0.148-0.195l0.023-0.019l-0.03-0.119
	c-0.496-1.596-1.986-2.755-3.742-2.755c-1.894,0-3.474,1.344-3.84,3.13L11.893,9.3l0.039,0.068c0.143,0.174,0.322,0.265,0.474,0.285
	c0.338,0.045,0.684-0.202,0.771-0.877c0.077-0.611,0.444-1.127,0.914-1.368c0.504-0.256,1.124-0.179,1.517,0.393
	c0.127,0.184,0.211,0.389,0.277,0.581c0.062,0.183,0.124,0.395,0.172,0.555c0.118,0.377,0.215,0.554,0.354,0.639
	c0.046,0.025,0.072,0.025,0.096,0.021c0.039-0.005,0.095-0.027,0.176-0.08c0.197-0.126,0.397-0.33,0.643-0.412
	c0.224-0.073,0.475-0.036,0.667,0.176c0.029,0.033,0.058,0.067,0.082,0.103c0.166,0.254,0.234,0.521,0.317,0.659
	c0.031,0.048,0.054,0.072,0.087,0.087C18.515,10.149,18.594,10.173,18.755,10.173z M5.887,9.661
	c-0.218-0.009-0.411-0.17-0.448-0.396C5.323,8.572,5.681,7.942,6.081,7.523c0.38-0.395,0.959-0.758,1.475-0.7
	c0.012,0.001,0.021,0.004,0.031,0.005c0.258,0.038,0.438,0.276,0.399,0.534C7.95,7.621,7.711,7.8,7.452,7.762
	c-0.015-0.001-0.099,0.003-0.25,0.082C7.061,7.916,6.905,8.032,6.764,8.179C6.47,8.482,6.323,8.828,6.371,9.111
	C6.415,9.369,6.24,9.613,5.983,9.655C5.95,9.661,5.918,9.663,5.887,9.661z M11.972,6.721l0.064-0.084
	c0.793-0.962,1.948-1.613,3.254-1.747l0.066-0.003l0.024-0.07c0.039-0.191,0.061-0.397,0.061-0.622c0-1.791-1.457-3.249-3.252-3.249
	c-1.795,0-3.251,1.458-3.251,3.249c0,0.231,0.017,0.438,0.051,0.626l0.025,0.109l0.427,0.081c0.833,0.215,1.576,0.656,2.16,1.254
	L11.972,6.721z M10.168,4.545c-0.22-0.009-0.412-0.17-0.447-0.395c-0.114-0.697,0.242-1.328,0.644-1.745
	c0.378-0.393,0.958-0.755,1.474-0.7c0.011,0.001,0.02,0.001,0.031,0.004c0.259,0.037,0.438,0.277,0.399,0.535
	c-0.037,0.259-0.277,0.439-0.536,0.4c-0.013,0-0.1,0.005-0.25,0.082c-0.14,0.074-0.295,0.188-0.436,0.335
	c-0.295,0.305-0.44,0.649-0.395,0.933c0.044,0.257-0.13,0.501-0.388,0.544C10.233,4.543,10.202,4.545,10.168,4.545z"/>
</svg>
