<?xml version="1.0" encoding="utf-8"?>
<!-- Generator: Adobe Illustrator 15.0.0, SVG Export Plug-In . SVG Version: 6.00 Build 0)  -->
<!DOCTYPE svg PUBLIC "-//W3C//DTD SVG 1.1//EN" "http://www.w3.org/Graphics/SVG/1.1/DTD/svg11.dtd">
<svg version="1.1" id="Layer_1" xmlns="http://www.w3.org/2000/svg" xmlns:xlink="http://www.w3.org/1999/xlink" x="0px" y="0px"
	 width="25px" height="25px" viewBox="0 0 25 25" enable-background="new 0 0 25 25" xml:space="preserve">
<path marker-end="none" marker-start="none" fill="#4C4C4C" d="M12.5,25C5.599,25,0,19.398,0,12.497C0,5.599,5.599,0,12.5,0
	c6.9,0,12.498,5.599,12.498,12.497C24.998,19.398,19.4,25,12.5,25z M12.5,23.983c5.148,0,9.512-3.396,10.967-8.071l0.047-0.168
	l-0.047,0.07c-0.104,0.152-0.215,0.309-0.328,0.445c-0.211,0.264-0.533,0.593-0.965,0.673c-0.062,0.012-0.125,0.018-0.184,0.02
	c-0.422,0.004-0.791-0.25-1.088-0.626c-0.016-0.019-0.031-0.039-0.041-0.059c-0.184-0.27-0.219-0.598-0.223-0.856
	c-0.002-0.27,0.027-0.565,0.057-0.825c0.029-0.275,0.057-0.514,0.061-0.719c0.002-0.111-0.006-0.185-0.014-0.236l-0.01-0.043
	l-0.055,0.005l-0.041,0.058c-0.029,0.048-0.068,0.119-0.115,0.219c-0.084,0.167-0.197,0.413-0.33,0.626
	c-0.131,0.218-0.318,0.47-0.59,0.636c-0.295,0.184-0.645,0.244-1.035,0.147c-0.84-0.21-0.977-0.831-1.068-1.194l-0.016-0.056
	l-0.006,0.022c-0.66,2.119-2.639,3.661-4.977,3.661c-2.607,0-4.77-1.919-5.154-4.417l-0.003-0.039l-0.081,0.018
	c-0.122,0-0.237-0.023-0.344-0.068c-0.225-0.089-0.399-0.25-0.524-0.38c-0.123-0.131-0.25-0.294-0.347-0.409
	c-0.29-0.348-0.374-0.343-0.37-0.343c0.01,0-0.021-0.006-0.103,0.056c-0.147,0.108-0.241,0.255-0.323,0.466
	c-0.092,0.234-0.148,0.495-0.251,0.777C4.891,13.662,4.728,14,4.39,14.25c-0.338,0.252-0.777,0.371-1.334,0.371
	c-0.582,0-0.968-0.283-1.216-0.664c-0.113-0.173-0.195-0.362-0.258-0.537c-0.064-0.172-0.117-0.357-0.166-0.511
	c-0.11-0.362-0.186-0.554-0.292-0.672L1.024,12.17l-0.007,0.326C1.017,18.838,6.162,23.983,12.5,23.983z M12.5,16.694
	c2.316,0,4.195-1.88,4.195-4.198c0-2.312-1.879-4.192-4.195-4.192s-4.198,1.88-4.198,4.192C8.302,14.814,10.184,16.694,12.5,16.694z
	 M21.977,15.934c0.01,0.002,0.014,0,0.014,0c0.045-0.008,0.164-0.07,0.363-0.314c0.186-0.229,0.355-0.502,0.555-0.799
	c0.162-0.234,0.4-0.588,0.707-0.758c0.074-0.041,0.152-0.071,0.232-0.089l0.037-0.004l0.037-0.298
	c0.039-0.385,0.062-0.777,0.062-1.175c0-1.979-0.504-3.843-1.389-5.47L22.48,6.834l-0.266,0.059c-0.16,0.001-0.32-0.05-0.455-0.158
	c-0.307-0.246-0.357-0.69-0.115-0.993l0.078-0.062l-0.363-0.484c-0.471-0.567-0.99-1.09-1.559-1.557l-0.883-0.661L18.91,3.068
	c-0.021,0.088-0.064,0.173-0.127,0.247c-0.152,0.189-0.383,0.28-0.611,0.258c-0.137-0.012-0.27-0.062-0.385-0.154
	c-0.309-0.246-0.359-0.692-0.113-0.995l0.129-0.109l-0.326-0.167c-1.506-0.725-3.195-1.134-4.977-1.134
	c-1.075,0-2.121,0.149-3.11,0.427l-0.908,0.3l0.052,0.16C8.555,2.081,8.507,2.27,8.386,2.421C8.252,2.584,8.058,2.674,7.859,2.679
	C7.83,2.683,7.801,2.681,7.773,2.677C7.638,2.665,7.502,2.616,7.387,2.523L7.212,2.316L6.604,2.643
	c-2.874,1.725-4.929,4.664-5.457,8.108l-0.05,0.402l0.195,0.028c0.229,0.069,0.427,0.198,0.589,0.38
	c0.286,0.318,0.417,0.761,0.506,1.047c0.126,0.412,0.195,0.628,0.305,0.796c0.085,0.133,0.173,0.201,0.363,0.201
	c0.42,0,0.618-0.089,0.725-0.17c0.106-0.078,0.186-0.2,0.264-0.414c0.085-0.226,0.152-0.521,0.261-0.797
	c0.122-0.306,0.307-0.645,0.659-0.909c0.213-0.161,0.456-0.259,0.715-0.257c0.017,0,0.033,0,0.05,0.002
	c0.285,0.012,0.514,0.143,0.68,0.277c0.164,0.13,0.307,0.292,0.417,0.428c0.125,0.151,0.215,0.263,0.309,0.363
	c0.045,0.049,0.083,0.083,0.125,0.103l0.036-0.029l0.018-0.238C7.581,9.341,9.801,7.288,12.5,7.288c2.877,0,5.213,2.336,5.213,5.209
	l-0.008,0.269l0.17,0.073c0.418,0.285,0.533,0.69,0.609,1.001c0.051,0.201,0.072,0.276,0.111,0.332
	c0.016,0.028,0.053,0.08,0.215,0.121c0.135,0.033,0.201,0.007,0.256-0.023c0.07-0.045,0.158-0.137,0.258-0.301
	c0.225-0.369,0.381-0.867,0.682-1.146c0.086-0.082,0.209-0.167,0.369-0.205c0.209-0.049,0.422-0.068,0.627-0.022
	c0.271,0.061,0.477,0.228,0.6,0.445c0.154,0.27,0.176,0.591,0.172,0.843c-0.006,0.265-0.039,0.556-0.068,0.812
	c-0.031,0.271-0.053,0.505-0.051,0.702c0.002,0.157,0.021,0.239,0.041,0.276l0.076,0.105C21.885,15.908,21.951,15.93,21.977,15.934z
	 M3.12,10.541c-0.16,0.002-0.319-0.052-0.453-0.16c-0.309-0.245-0.358-0.692-0.116-0.993c0.242-0.303,0.689-0.348,0.998-0.104
	c0.307,0.247,0.36,0.691,0.116,0.995C3.527,10.448,3.326,10.537,3.12,10.541z M21.938,10.387c-0.137-0.01-0.271-0.062-0.387-0.154
	c-0.307-0.246-0.357-0.691-0.115-0.993c0.244-0.303,0.691-0.348,0.998-0.104c0.307,0.247,0.359,0.689,0.115,0.992
	C22.396,10.317,22.164,10.408,21.938,10.387z M6.824,9.225c-0.159,0.002-0.319-0.051-0.453-0.16
	C6.064,8.821,6.014,8.374,6.258,8.073C6.501,7.77,6.947,7.725,7.254,7.971c0.307,0.244,0.359,0.691,0.114,0.993
	C7.231,9.134,7.031,9.223,6.824,9.225z M18.898,8.298c-0.158,0-0.322-0.049-0.453-0.159c-0.309-0.243-0.359-0.689-0.115-0.993
	c0.242-0.3,0.689-0.347,0.996-0.102c0.307,0.247,0.359,0.689,0.117,0.993C19.305,8.208,19.102,8.296,18.898,8.298z M14.654,6.864
	c-0.158,0.001-0.318-0.052-0.453-0.158c-0.309-0.246-0.357-0.692-0.117-0.995c0.246-0.3,0.693-0.347,1-0.102
	c0.307,0.245,0.357,0.689,0.115,0.993C15.061,6.771,14.859,6.863,14.654,6.864z M10.342,6.533c-0.135-0.013-0.269-0.064-0.386-0.158
	C9.65,6.133,9.597,5.686,9.843,5.383c0.245-0.3,0.689-0.347,0.997-0.101c0.308,0.246,0.358,0.69,0.116,0.993
	C10.803,6.463,10.57,6.553,10.342,6.533z M5.736,5.729c-0.029,0-0.057,0-0.084-0.003C5.516,5.714,5.382,5.663,5.266,5.57
	C4.958,5.326,4.907,4.879,5.15,4.579c0.245-0.302,0.691-0.349,0.998-0.103c0.308,0.241,0.359,0.69,0.115,0.992
	C6.13,5.634,5.935,5.722,5.736,5.729z M12.861,3.458C12.703,3.46,12.543,3.406,12.406,3.3c-0.307-0.246-0.357-0.693-0.115-0.993
	c0.245-0.302,0.693-0.349,0.998-0.103c0.311,0.243,0.359,0.69,0.115,0.992C13.268,3.366,13.066,3.456,12.861,3.458z"/>
</svg>
