<?xml version="1.0" encoding="utf-8"?>
<!-- Generator: Adobe Illustrator 15.0.0, SVG Export Plug-In . SVG Version: 6.00 Build 0)  -->
<!DOCTYPE svg PUBLIC "-//W3C//DTD SVG 1.1//EN" "http://www.w3.org/Graphics/SVG/1.1/DTD/svg11.dtd">
<svg version="1.1" id="Layer_1" xmlns="http://www.w3.org/2000/svg" xmlns:xlink="http://www.w3.org/1999/xlink" x="0px" y="0px"
	 width="25px" height="25px" viewBox="0 0 25 25" enable-background="new 0 0 25 25" xml:space="preserve">
<path marker-end="none" marker-start="none" fill="#4C4C4C" d="M12.448,21.492c-2.022,0-3.934-0.158-5.622-0.441
	c-0.194-0.032-0.341-0.179-0.384-0.359l-0.003-0.079l0,0c-0.025-0.059-0.037-0.121-0.037-0.187v-2.912l-5.773,0.297
	c-0.017,0-0.033,0-0.05,0c-0.18-0.01-0.336-0.121-0.409-0.278l-0.011-0.046l-0.02-0.016C0.052,17.386,0,17.266,0,17.135V8.471
	c0-0.065,0.012-0.128,0.037-0.185L0.068,8.24l0.007-0.035c0.348-1.271,1.861-2.256,3.753-2.937c2.235-0.805,5.291-1.293,8.642-1.293
	c3.349,0,6.404,0.488,8.64,1.293c2.017,0.726,3.617,1.811,3.811,3.214l0.002,0.052l0.015,0.02c0.023,0.057,0.038,0.12,0.038,0.185
	v4.509L25,13.373l-0.024,0.434v3.328c0,1.454-1.727,2.511-3.861,3.197C18.873,21.054,15.809,21.492,12.448,21.492z M12.448,20.54
	c3.29,0,6.251-0.431,8.374-1.114c2.236-0.719,3.201-1.599,3.201-2.291v-1.852l-0.098,0.037c-0.395,0.068-0.801-0.055-1.097-0.159
	c-0.438-0.155-0.868-0.368-1.24-0.48c-0.387-0.116-0.497-0.058-0.535-0.019c-0.249,0.248-0.424,0.654-0.676,1.026
	c-0.283,0.421-0.709,0.849-1.453,0.849c-0.831,0-1.332-0.385-1.701-0.607c-0.333-0.201-0.638-0.348-1.265-0.189
	c-0.155,0.037-0.288,0.131-0.431,0.292c-0.158,0.18-0.271,0.373-0.458,0.634c-0.354,0.5-0.886,1.073-1.896,0.871
	c-0.506-0.102-0.728-0.491-0.846-0.728c-0.072-0.144-0.097-0.21-0.147-0.297c-0.021-0.034-0.036-0.056-0.062-0.069
	c-0.009-0.017-0.016-0.018-0.028-0.018c-0.297,0-0.475,0.036-0.588,0.079c-0.105,0.04-0.178,0.093-0.257,0.173
	c-0.189,0.19-0.416,0.55-0.926,0.855c-0.263,0.159-0.519,0.229-0.764,0.215c-0.147-0.009-0.292-0.047-0.43-0.114
	c-0.163-0.078-0.299-0.186-0.413-0.289c-0.112-0.104-0.222-0.221-0.318-0.32c-0.295-0.307-0.551-0.556-0.94-0.615l-0.102,0.003
	v3.754l0.896,0.128C9.551,20.453,10.968,20.54,12.448,20.54z M0.952,16.84l5.45-0.28v-4.057c0-0.15,0.071-0.291,0.191-0.381
	l5.078-3.781L0.952,8.779V16.84z M9.64,16.796c0.045-0.006,0.104-0.027,0.19-0.078c0.361-0.217,0.5-0.473,0.74-0.713
	c0.332-0.331,0.747-0.532,1.521-0.532c0.12,0,0.237,0.02,0.348,0.059c0.073,0.026,0.139,0.059,0.201,0.1
	c0.181,0.117,0.293,0.279,0.367,0.409c0.066,0.112,0.137,0.271,0.174,0.345c0.099,0.198,0.141,0.21,0.18,0.217
	c0.265,0.054,0.417,0.009,0.527-0.058c0.131-0.078,0.254-0.213,0.406-0.43c0.135-0.188,0.319-0.482,0.52-0.71
	c0.218-0.248,0.507-0.486,0.915-0.589c0.945-0.235,1.509,0.011,1.987,0.3c0.444,0.268,0.697,0.471,1.209,0.471
	c0.297,0,0.464-0.133,0.663-0.431c0.207-0.306,0.433-0.808,0.792-1.167c0.449-0.449,1.055-0.349,1.482-0.22
	c0.431,0.129,0.903,0.36,1.285,0.495c0.434,0.154,0.611,0.135,0.678,0.096c0.033-0.02,0.141-0.117,0.194-0.5l0.004-0.035V10.62
	l-0.188,0.185c-0.687,0.584-1.644,1.073-2.725,1.462c-2.235,0.804-5.291,1.292-8.64,1.292c-1.53,0-2.996-0.102-4.348-0.287
	l-0.77-0.127l-0.001,2.307l0.29,0.023c0.691,0.121,1.128,0.566,1.44,0.893c0.261,0.271,0.361,0.362,0.456,0.409
	C9.566,16.79,9.596,16.801,9.64,16.796z M2.691,15.289c-0.113,0-0.229-0.037-0.324-0.113c-0.22-0.175-0.257-0.493-0.083-0.709
	c0.174-0.216,0.493-0.249,0.712-0.072c0.219,0.174,0.255,0.492,0.082,0.707C2.98,15.225,2.837,15.287,2.691,15.289z M4.688,12.906
	c-0.114,0-0.229-0.037-0.324-0.114c-0.22-0.176-0.257-0.493-0.083-0.708s0.493-0.249,0.712-0.074
	c0.219,0.176,0.255,0.493,0.082,0.708C4.977,12.84,4.833,12.904,4.688,12.906z M12.471,12.606c3.27,0,6.21-0.479,8.317-1.237
	c2.19-0.788,3.199-1.762,3.199-2.602c0-0.836-1.02-1.818-3.199-2.604c-2.107-0.758-5.048-1.237-8.317-1.237
	c-3.271,0-6.213,0.479-8.32,1.237c-1.37,0.493-2.277,1.059-2.765,1.619L1.367,7.81l11.805-0.485
	c0.465-0.019,0.677,0.579,0.303,0.857l-5.503,4.099l0.281,0.046C9.56,12.508,10.982,12.606,12.471,12.606z M2.626,10.522
	c-0.114,0.001-0.229-0.035-0.324-0.113C2.083,10.233,2.046,9.916,2.221,9.7c0.174-0.215,0.493-0.249,0.711-0.073
	c0.22,0.175,0.257,0.493,0.083,0.709c-0.088,0.108-0.211,0.169-0.34,0.184C2.659,10.522,2.642,10.522,2.626,10.522z M6.764,10.198
	c-0.097-0.009-0.192-0.045-0.274-0.112C6.271,9.911,6.233,9.594,6.407,9.378S6.9,9.129,7.119,9.304
	c0.219,0.176,0.255,0.493,0.082,0.708c-0.087,0.108-0.21,0.17-0.338,0.184C6.83,10.2,6.797,10.2,6.764,10.198z"/>
</svg>
