<?xml version="1.0" encoding="utf-8"?>
<!-- Generator: Adobe Illustrator 15.0.0, SVG Export Plug-In . SVG Version: 6.00 Build 0)  -->
<!DOCTYPE svg PUBLIC "-//W3C//DTD SVG 1.1//EN" "http://www.w3.org/Graphics/SVG/1.1/DTD/svg11.dtd">
<svg version="1.1" id="Layer_1" xmlns="http://www.w3.org/2000/svg" xmlns:xlink="http://www.w3.org/1999/xlink" x="0px" y="0px"
	 width="25px" height="25px" viewBox="0 0 25 25" enable-background="new 0 0 25 25" xml:space="preserve">
<path marker-end="none" marker-start="none" fill="#4C4C4C" d="M7.981,22.345c-0.159,0.003-0.318,0.002-0.478-0.003
	c-2.557-0.083-5.215-1.289-6.444-2.968l-0.294-0.469L0.75,18.882l-0.017-0.027l-0.303-0.511c-1.061-2.177-0.047-5.084,1.795-7.219
	l0.282-0.306l0.059-0.073l0.014-0.007l0.121-0.133c0.493-0.499,1.031-0.943,1.595-1.307c0.003-0.002,0.014-0.009,0.017-0.01
	l8.918-5.203c0.768-0.474,1.754-0.834,2.84-1.019l0.109-0.014l0.004-0.001l0.547-0.074c2.24-0.225,4.775,0.3,6.648,2.062
	l0.547,0.574l0.029,0.033l0.322,0.381c1.584,2.262,0.41,7.232-2.08,8.748l-11.126,6.77C10.165,22.07,9.091,22.319,7.981,22.345z
	 M7.906,21.464c0.981-0.015,1.927-0.224,2.716-0.68L21.74,14.02c2.262-1.376,3.15-6.258,1.574-7.767
	c-0.012-0.011-0.021-0.022-0.031-0.034c-1.451-1.714-3.557-2.397-5.543-2.405l-0.254,0.008l0.09,0.075
	c1.006,0.921,1.701,2.235,1.459,4.178c-0.109,0.951-0.832,1.587-1.625,1.669c-0.105,0.011-0.209,0.012-0.311,0.003
	c-0.719-0.061-1.361-0.594-1.576-1.571c-0.002-0.011-0.004-0.024-0.006-0.035c-0.158-1.166-0.846-1.882-1.752-2.439L12.958,5.27
	l-1.571,0.917l0.362,0.233c1.314,0.928,2.383,2.338,2.091,4.683c-0.109,0.95-0.834,1.586-1.626,1.668l-0.311,0.003
	c-0.716-0.061-1.359-0.592-1.574-1.569c-0.002-0.011-0.005-0.023-0.007-0.035c-0.16-1.167-0.848-1.882-1.751-2.44L7.766,8.3
	L6.111,9.265l0.632,0.403c1.298,0.919,2.375,2.323,2.082,4.676c-0.095,0.832-0.662,1.424-1.333,1.613L7.2,16.011
	c-0.104,0.012-0.209,0.014-0.312,0.005c-0.718-0.061-1.36-0.594-1.575-1.57c-0.002-0.012-0.005-0.025-0.006-0.035
	c-0.141-1.021-0.686-1.697-1.425-2.224l-0.319-0.21l-0.624-0.333l-0.087,0.096c-1.81,2.117-2.584,4.933-1.366,6.655
	c0.011,0.017,0.022,0.033,0.03,0.05c0.162,0.307,0.384,0.6,0.655,0.876l0.191,0.178l0.171,0.002c2.901,0.612,5.45,0.714,8.521-1.175
	l6.764-4.182c0.207-0.129,0.48-0.062,0.609,0.144c0.129,0.208,0.064,0.481-0.145,0.608l-6.764,4.183
	c-2.087,1.283-3.967,1.716-5.82,1.702l-1.498-0.108l0.097,0.047c0.98,0.426,2.095,0.696,3.185,0.739
	C7.623,21.464,7.766,21.466,7.906,21.464z M7.109,15.131l0.144-0.026c0.333-0.095,0.641-0.396,0.695-0.866
	c0.281-2.259-0.912-3.432-2.333-4.236L5.209,9.792l-0.436,0.255l-1.086,0.833l-0.106,0.103l0.413,0.221
	c0.006,0.003,0.018,0.01,0.024,0.013c0.967,0.596,1.839,1.436,2.118,2.793l0.043,0.249l0.07,0.245
	C6.443,15.026,6.808,15.162,7.109,15.131z M11.993,11.893l0.13-0.002c0.386-0.04,0.777-0.357,0.839-0.894
	c0.276-2.211-0.855-3.373-2.218-4.174l-0.234-0.125L8.664,7.775l0.3,0.159c0.972,0.586,1.862,1.406,2.167,2.746l0.06,0.335
	C11.333,11.653,11.678,11.872,11.993,11.893z M17.32,8.863c0.383-0.04,0.775-0.357,0.838-0.894c0.201-1.624-0.354-2.673-1.189-3.43
	l-0.365-0.303l-0.432-0.285l-0.35,0.062c-0.607,0.134-1.172,0.329-1.666,0.571l-0.295,0.161l0.3,0.16
	c0.972,0.587,1.86,1.407,2.167,2.745l0.059,0.335C16.549,8.715,16.977,8.898,17.32,8.863z"/>
</svg>
