<?xml version="1.0" encoding="utf-8"?>
<!-- Generator: Adobe Illustrator 15.0.0, SVG Export Plug-In . SVG Version: 6.00 Build 0)  -->
<!DOCTYPE svg PUBLIC "-//W3C//DTD SVG 1.1//EN" "http://www.w3.org/Graphics/SVG/1.1/DTD/svg11.dtd">
<svg version="1.1" id="Layer_1" xmlns="http://www.w3.org/2000/svg" xmlns:xlink="http://www.w3.org/1999/xlink" x="0px" y="0px"
	 width="25px" height="25px" viewBox="0 0 25 25" enable-background="new 0 0 25 25" xml:space="preserve">
<path marker-end="none" marker-start="none" fill="#333333" d="M4.378,20.502c-1.841,0-3.335-1.494-3.335-3.336
	c0-0.273,0.033-0.537,0.095-0.792l0.005-0.019H0.479c-0.298,0-0.524-0.27-0.472-0.562c0.317-1.831,1.211-3.465,2.54-4.935
	l0.001-0.002l-0.038-0.042c-0.14-0.178-0.229-0.404-0.229-0.657V9.763c0-0.335,0.159-0.623,0.385-0.819
	C2.893,8.75,3.192,8.638,3.51,8.638h6.807c0.317,0,0.617,0.112,0.842,0.306c0.227,0.197,0.386,0.484,0.386,0.819v0.395
	c0,0.336-0.159,0.625-0.386,0.821c-0.113,0.097-0.244,0.173-0.387,0.226l-0.131,0.036l0.006,0.124
	c-0.215,1.401-0.155,2.279,0.126,2.796c0.241,0.449,0.721,0.734,1.743,0.734c1.9,0,3.237-0.145,4.072-0.531
	c0.748-0.345,1.098-0.885,1.031-1.879c-0.087-1.215-0.439-2.671-0.864-3.967L16.489,7.77l-0.918,0.549
	c-0.086,0.051-0.182,0.074-0.272,0.069c-0.155-0.009-0.302-0.092-0.387-0.235c-0.136-0.228-0.062-0.523,0.166-0.659l4.059-2.425
	c0.228-0.138,0.522-0.063,0.659,0.165c0.135,0.227,0.061,0.522-0.168,0.659l-1.086,0.649l0.066,0.048
	c0.043,0.046,0.078,0.101,0.102,0.162l0.137,0.398l1.156-0.562c0.266-0.13,0.587,0.012,0.67,0.296l0.447,1.528
	c0.066,0.224-0.041,0.463-0.25,0.566l-1.244,0.604l0.045,0.148c0.24,0.914,0.397,1.748,0.459,2.502l0.01,0.276l0.561-0.067
	c0.912-0.076,1.752-0.036,2.449,0.289c0.978,0.456,1.553,1.408,1.774,2.941c0.021,0.144-0.023,0.28-0.11,0.382l-0.012,0.008
	l0.056,0.145C24.949,16.512,25,16.833,25,17.166c0,1.816-1.475,3.29-3.29,3.29c-1.817,0-3.291-1.474-3.291-3.29
	c0-0.145,0.008-0.285,0.027-0.426l0.039-0.199l-0.097,0.07c-0.894,0.568-2.104,0.866-3.601,0.955c-0.006,0-0.021,0-0.027,0H8.356
	c-0.141,0-0.276-0.062-0.368-0.169l-0.28-0.331l0.005,0.1C7.713,19.008,6.219,20.502,4.378,20.502z M4.378,19.541
	c1.311,0,2.375-1.063,2.375-2.375c0-0.164-0.018-0.323-0.048-0.479L6.6,16.355H5.527l0.02,0.021c0.151,0.227,0.24,0.498,0.24,0.789
	c0,0.778-0.631,1.409-1.408,1.409c-0.779,0-1.409-0.631-1.409-1.409c0-0.291,0.088-0.562,0.24-0.789l0.018-0.021H2.163L2.07,16.602
	c-0.043,0.182-0.066,0.369-0.066,0.564C2.004,18.478,3.068,19.541,4.378,19.541z M21.71,19.495c1.285,0,2.329-1.044,2.329-2.329
	c0-0.236-0.035-0.463-0.101-0.678l-0.1-0.259l-1.075,0.011l0.114,0.137c0.152,0.227,0.24,0.498,0.24,0.789
	c0,0.778-0.631,1.409-1.409,1.409S20.3,17.944,20.3,17.166c0-0.291,0.088-0.562,0.24-0.789l0.097-0.117l-1.077,0.01l-0.014,0.028
	c-0.107,0.269-0.166,0.562-0.166,0.868C19.38,18.451,20.423,19.495,21.71,19.495z M4.378,17.613c0.246,0,0.449-0.199,0.449-0.447
	c0-0.247-0.203-0.449-0.449-0.449c-0.25,0-0.45,0.202-0.45,0.449S4.13,17.613,4.378,17.613z M21.709,17.613
	c0.247,0,0.448-0.199,0.448-0.447c0-0.247-0.201-0.449-0.448-0.449c-0.249,0-0.449,0.202-0.449,0.449S21.46,17.613,21.709,17.613z
	 M14.749,16.605l0.453-0.034c2.279-0.216,3.398-0.972,3.808-2.249c0.47-1.467,0.074-3.781-1.202-7.237l-0.002-0.014l-0.447,0.256
	l0.084,0.228c0.533,1.488,1.025,3.326,1.137,4.863c0.092,1.372-0.455,2.295-1.588,2.818c-1.047,0.484-2.582,0.617-4.474,0.617
	c-1.197,0-2.106-0.346-2.588-1.234c-0.333-0.614-0.419-1.424-0.349-2.386l0.111-0.949H3.51l-0.045-0.003l-0.174,0.185
	c-1.087,1.195-1.834,2.471-2.198,3.852l-0.017,0.076H1.83L1.87,15.39l0.018,0.005H7.33c0.141,0,0.275,0.062,0.367,0.171l0.88,1.04
	H14.749z M8.818,15.592c-0.032,0.002-0.063-0.001-0.096-0.007c-0.262-0.046-0.438-0.293-0.393-0.555
	c0.157-0.908-0.031-1.425-0.383-1.732c-0.382-0.335-1.08-0.532-2.184-0.498c-0.265,0.007-0.486-0.201-0.494-0.467
	c-0.009-0.264,0.199-0.486,0.465-0.493c1.181-0.037,2.186,0.157,2.845,0.735c0.692,0.605,0.887,1.521,0.698,2.619
	C9.235,15.422,9.041,15.585,8.818,15.592z M19.626,15.311l4.122-0.04l0.047-0.047l0.058-0.022l-0.017-0.075
	c-0.091-0.339-0.204-0.609-0.335-0.825c-0.204-0.339-0.456-0.557-0.759-0.697c-0.554-0.26-1.317-0.281-2.367-0.16l-0.249,0.033
	l-0.033,0.42c-0.041,0.252-0.096,0.492-0.167,0.719c-0.077,0.24-0.173,0.465-0.288,0.672L19.626,15.311z M10.317,10.323
	c0.17,0,0.269-0.103,0.269-0.165V9.763c0-0.058-0.095-0.165-0.269-0.165H3.51c-0.172,0-0.269,0.103-0.269,0.165v0.395
	c0,0.06,0.095,0.165,0.269,0.165H10.317z M19.568,8.546l0.517-0.252l-0.174-0.593l-0.566,0.276L19.568,8.546z"/>
</svg>
