<?xml version="1.0" encoding="utf-8"?>
<!-- Generator: Adobe Illustrator 15.0.0, SVG Export Plug-In . SVG Version: 6.00 Build 0)  -->
<!DOCTYPE svg PUBLIC "-//W3C//DTD SVG 1.1//EN" "http://www.w3.org/Graphics/SVG/1.1/DTD/svg11.dtd">
<svg version="1.1" id="Layer_1" xmlns="http://www.w3.org/2000/svg" xmlns:xlink="http://www.w3.org/1999/xlink" x="0px" y="0px"
	 width="25px" height="25px" viewBox="0 0 25 25" enable-background="new 0 0 25 25" xml:space="preserve">
<path marker-end="none" marker-start="none" fill="#4C4C4C" d="M8.276,19.319c-0.241,0.007-0.48,0.007-0.718,0
	C4.173,19.224,1.119,17.729,0,14.139l0.007-0.297c1.302-3.727,3.928-5.481,6.876-5.814l0.651-0.049l0.154-0.214
	c1.074-1.318,3.196-1.48,4.618-1.131c0.728,0.178,1.493,0.542,1.743,1.167c0.143,0.355,0.094,0.73-0.125,1.071
	c-0.103,0.161-0.24,0.313-0.409,0.457L13.48,9.353l0.279,0.131c1.533,0.793,2.949,1.861,4.109,3.116l0.3,0.342l0.16-0.459
	c0.459-1.192,1.099-2.13,1.982-2.631c1.223-0.694,2.736-0.456,4.474,0.682c0.181,0.089,0.232,0.239,0.21,0.421
	c-0.112,1.945-1.352,3.182-2.886,3.625l-0.281,0.07c0.618,0.672,1.076,1.671,0.68,2.978c-0.062,0.152-0.154,0.286-0.377,0.327
	c-0.125,0.021-0.25,0.03-0.372,0.034c-1.38,0.032-2.621-0.933-3.389-2.188L18.055,15.2l-0.127,0.144
	C15.733,17.618,11.886,19.219,8.276,19.319z M7.786,18.388c3.757,0.041,7.958-1.76,9.919-4.212l0.117-0.16l-0.649-0.783
	c-2.169-2.345-5.31-3.992-8.3-4.28c-0.79-0.076-1.568-0.057-2.317,0.069L6.241,9.087l0.221,0.159
	c2.095,1.813,2.282,5.859,0.443,8.482l-0.443,0.551l0.26,0.044C7.071,18.361,7.427,18.383,7.786,18.388z M5.345,18.06l0.375-0.353
	c2.157-2.344,1.947-6.694-0.272-8.039L5.013,9.462l-0.08,0.031c-1.554,0.664-2.878,1.919-3.749,3.919l-0.231,0.592l0.187,0.512
	c0.796,1.875,2.279,2.986,4.064,3.508L5.345,18.06z M21.68,17.044l0.027-0.222c0.072-1.18-0.881-1.896-1.359-2.104
	c-0.386-0.183-0.326-0.876,0.215-0.898c1.668,0.094,3.179-0.812,3.456-2.558l0.009-0.092l-0.053-0.034
	c-1.44-0.868-2.459-0.888-3.199-0.467c-0.831,0.472-1.49,1.592-1.937,3.316c-0.03,0.125-0.062,0.251-0.104,0.375l0.144,0.392
	c0.544,1.236,1.57,2.164,2.604,2.283L21.68,17.044z M5.423,14.162l-0.837-0.838l-0.829,0.828l-0.558-0.555l0.829-0.83l-0.835-0.836
	l0.572-0.572l0.835,0.835l0.829-0.828l0.558,0.557l-0.83,0.828l0.838,0.837L5.423,14.162z M12.48,8.901l0.229-0.144
	c0.228-0.155,0.356-0.29,0.421-0.393c0.074-0.115,0.062-0.173,0.045-0.213c-0.064-0.166-0.402-0.437-1.094-0.606
	C11.073,7.299,9.818,7.382,8.971,7.89L8.815,8.007l0.148,0.008c0.808,0.078,1.624,0.247,2.43,0.495L12.48,8.901z"/>
</svg>
