<?xml version="1.0" encoding="utf-8"?>
<!-- Generator: Adobe Illustrator 15.0.0, SVG Export Plug-In . SVG Version: 6.00 Build 0)  -->
<!DOCTYPE svg PUBLIC "-//W3C//DTD SVG 1.1//EN" "http://www.w3.org/Graphics/SVG/1.1/DTD/svg11.dtd">
<svg version="1.1" id="Layer_1" xmlns="http://www.w3.org/2000/svg" xmlns:xlink="http://www.w3.org/1999/xlink" x="0px" y="0px"
	 width="25px" height="25px" viewBox="0 0 25 25" enable-background="new 0 0 25 25" xml:space="preserve">
<path marker-end="none" marker-start="none" fill="#4C4C4C" d="M10.856,24.6c-0.106,0.02-0.223-0.011-0.311-0.094l-0.651-0.633
	L9.42,24.366c-0.187,0.197-0.518,0.122-0.602-0.137c-0.375-1.155-0.373-2.363-0.016-3.352l0.03-0.072l-0.132,0.021
	c-0.056,0.005-0.111,0.009-0.167,0.009c-0.659,0.006-1.288-0.375-1.568-1.019L2.037,8.479C1.71,7.729,1.972,6.872,2.615,6.42
	l0.033-0.021L2.484,6.342c-0.964-0.414-1.851-1.238-2.438-2.3c-0.132-0.239,0.038-0.53,0.309-0.533L1.039,3.5L1.021,2.592
	C1.018,2.348,1.252,2.171,1.484,2.241l0.834,0.252L2.45,1.778c0.043-0.233,0.296-0.363,0.51-0.26l1.218,0.585l0.832-0.875
	c0.179-0.19,0.497-0.129,0.594,0.111c0.391,0.956,0.385,2.251,0.002,3.335C5.541,4.855,5.467,5.028,5.382,5.196L5.358,5.235
	l0.148-0.023c0.716-0.079,1.432,0.312,1.735,1.007l4.927,11.337c0.304,0.697,0.099,1.487-0.446,1.957l-0.058,0.044l0.486,0.176
	c1.053,0.46,2.005,1.339,2.437,2.276c0.107,0.236-0.062,0.508-0.323,0.511l-1.209,0.01l-0.403,1.29
	c-0.069,0.226-0.337,0.325-0.537,0.195l-0.612-0.392l-0.385,0.781C11.064,24.514,10.964,24.582,10.856,24.6z M10.691,23.644
	l0.344-0.699c0.093-0.19,0.333-0.258,0.516-0.143l0.554,0.354l0.34-1.093c0.046-0.147,0.184-0.25,0.341-0.251l0.845-0.009
	l-0.045-0.062c-0.457-0.602-1.151-1.131-1.875-1.41c-0.12-0.048-0.241-0.086-0.362-0.118l-0.018-0.004l0.251,0.246
	c0.247,0.288,0.437,0.661,0.528,1.15c0.037,0.194-0.093,0.383-0.288,0.418c-0.195,0.036-0.384-0.093-0.42-0.288
	c-0.088-0.484-0.296-0.782-0.545-0.987c-0.129-0.106-0.272-0.193-0.425-0.268l-0.39-0.153l-0.206,0.088L9.821,20.45
	c-0.443,0.642-0.646,1.564-0.535,2.552l0.065,0.396l0.273-0.286c0.138-0.143,0.367-0.147,0.511-0.009L10.691,23.644z M8.526,19.989
	c0.11,0,0.222-0.023,0.33-0.07l2.096-0.913c0.43-0.186,0.625-0.685,0.44-1.112l-0.561-1.291l-3.182,2.663l0.094,0.214
	C7.881,19.802,8.196,19.991,8.526,19.989z M7.296,18.456l3.183-2.662L9.43,13.38l-3.182,2.662L7.296,18.456z M7.648,17.034
	c-0.199,0.004-0.388-0.11-0.473-0.305c-0.114-0.258,0.002-0.559,0.261-0.672l0.023-0.009c0.256-0.112,0.558,0.003,0.671,0.261
	c0.113,0.258-0.005,0.559-0.261,0.672l-0.024,0.01C7.781,17.02,7.714,17.034,7.648,17.034z M9.075,15.813
	c-0.199,0.001-0.388-0.115-0.471-0.31c-0.112-0.259,0.01-0.558,0.267-0.669l0.026-0.01c0.258-0.112,0.557,0.009,0.668,0.267
	c0.111,0.259-0.009,0.56-0.268,0.669l-0.024,0.012C9.208,15.8,9.141,15.813,9.075,15.813z M21.261,15.559
	c-0.045,0.008-0.09,0.008-0.135-0.003c-0.061-0.012-0.117-0.04-0.168-0.086c-0.901-0.813-1.503-1.862-1.688-2.896l-0.012-0.079
	l-0.035,0.036c-0.326,0.263-0.736,0.393-1.142,0.374c-0.327-0.015-0.651-0.123-0.931-0.332l-6.189-4.589
	c-0.611-0.452-0.829-1.236-0.592-1.918l0.044-0.107l-0.054,0.01C9.317,6.089,8.139,5.819,7.1,5.192
	c-0.234-0.14-0.233-0.479,0.001-0.618l0.587-0.35L7.221,3.447C7.095,3.238,7.21,2.968,7.448,2.914l0.847-0.2L8.053,2.03
	C7.973,1.807,8.128,1.567,8.365,1.55l1.347-0.099l0.283-1.177c0.062-0.252,0.366-0.359,0.572-0.199
	c0.815,0.632,1.455,1.759,1.665,2.89l0.059,0.488l0.042-0.036c0.581-0.424,1.397-0.444,2.008,0.009l6.188,4.59
	c0.609,0.451,0.828,1.236,0.59,1.918l-0.027,0.067l0.508-0.09c1.143-0.129,2.405,0.159,3.25,0.754
	c0.213,0.151,0.197,0.472-0.026,0.604l-1.044,0.613l0.297,1.318c0.051,0.232-0.131,0.449-0.367,0.438l-0.727-0.034l0.057,0.869
	c0.016,0.242-0.211,0.432-0.445,0.372l-0.882-0.223l-0.163,0.665C21.511,15.438,21.392,15.534,21.261,15.559z M5.896,15.233
	l3.183-2.662l-0.943-2.173l-3.184,2.664L5.896,15.233z M21.004,14.484l0.095-0.383c0.048-0.195,0.244-0.312,0.437-0.264l0.753,0.189
	l-0.051-0.775c-0.014-0.213,0.161-0.393,0.375-0.381l0.658,0.027l-0.25-1.116c-0.035-0.15,0.032-0.309,0.168-0.387l0.73-0.43
	l-0.072-0.032c-0.695-0.292-1.562-0.405-2.328-0.285c-0.127,0.019-0.253,0.047-0.375,0.077l-0.016,0.008l0.341,0.088
	c0.358,0.126,0.708,0.354,1.03,0.733c0.129,0.15,0.111,0.377-0.039,0.505c-0.151,0.13-0.379,0.112-0.509-0.038
	c-0.318-0.377-0.649-0.531-0.964-0.584c-0.166-0.029-0.334-0.033-0.504-0.021l-0.416,0.063l-0.131,0.18l0.002,0.037
	c-0.062,0.777,0.224,1.677,0.812,2.48L21.004,14.484z M4.601,12.252l3.182-2.661L6.84,7.421l-3.183,2.661L4.601,12.252z
	 M18.12,12.059c0.271,0.012,0.543-0.107,0.718-0.342L20.2,9.88c0.279-0.375,0.2-0.906-0.175-1.185l-1.981-1.468l-1.428,3.895
	l1.037,0.77C17.795,11.995,17.958,12.051,18.12,12.059z M4.958,10.879c-0.198-0.002-0.385-0.124-0.464-0.319
	c-0.106-0.26,0.021-0.559,0.282-0.664l0.023-0.009c0.26-0.106,0.558,0.022,0.664,0.282c0.104,0.259-0.021,0.557-0.282,0.663
	l-0.023,0.01C5.09,10.869,5.023,10.881,4.958,10.879z M15.907,10.596l1.43-3.894l-2.115-1.566L13.793,9.03L15.907,10.596z
	 M6.404,9.658C6.205,9.661,6.017,9.547,5.932,9.353C5.818,9.095,5.935,8.795,6.193,8.681l0.024-0.009
	c0.255-0.114,0.557,0.003,0.67,0.262C7,9.191,6.883,9.493,6.625,9.605L6.602,9.614C6.538,9.644,6.472,9.657,6.404,9.658z
	 M3.305,9.272l3.182-2.662L6.465,6.557c-0.188-0.427-0.686-0.625-1.114-0.44L3.253,7.029C2.826,7.216,2.629,7.714,2.814,8.142
	L3.305,9.272z M15.226,9.261c-0.099-0.004-0.197-0.034-0.283-0.096c-0.227-0.167-0.277-0.486-0.115-0.713l0.016-0.019
	c0.164-0.229,0.484-0.281,0.713-0.116c0.227,0.164,0.279,0.483,0.113,0.711l-0.016,0.021C15.552,9.192,15.388,9.265,15.226,9.261z
	 M13.083,8.505l1.43-3.896l-0.677-0.502c-0.375-0.278-0.906-0.199-1.183,0.173l-1.364,1.839c-0.277,0.376-0.198,0.905,0.176,1.185
	L13.083,8.505z M15.896,7.487c-0.114,0.006-0.231-0.027-0.329-0.101c-0.226-0.168-0.271-0.489-0.103-0.714l0.016-0.02
	c0.169-0.226,0.488-0.271,0.713-0.102c0.226,0.168,0.271,0.488,0.103,0.713l-0.016,0.021C16.185,7.412,16.041,7.48,15.896,7.487z
	 M3.628,5.938L3.702,5.89l0.184-0.469c0.05-0.163,0.085-0.326,0.094-0.494c0.019-0.322-0.056-0.676-0.35-1.072
	C3.512,3.694,3.547,3.468,3.706,3.35C3.867,3.233,4.09,3.266,4.209,3.427C4.505,3.826,4.648,4.22,4.69,4.595l0.009,0.354
	l0.007-0.016c0.06-0.11,0.114-0.227,0.163-0.346c0.288-0.719,0.376-1.591,0.248-2.333L5.101,2.177L4.52,2.791
	C4.41,2.904,4.241,2.936,4.101,2.867l-1.03-0.494L2.953,3.019C2.913,3.23,2.698,3.36,2.495,3.297L1.752,3.073l0.013,0.775
	c0.002,0.2-0.155,0.363-0.354,0.367L1.014,4.22l0.244,0.317C1.908,5.292,2.72,5.774,3.49,5.886c0.05,0.007,0.097,0.026,0.136,0.049
	L3.628,5.938z M9.782,5.273c0.444,0.009,0.861-0.062,1.224-0.204l0.009,0l0.158-0.212L11.114,4.47
	c-0.038-0.166-0.088-0.327-0.164-0.475c-0.144-0.288-0.387-0.559-0.838-0.756C9.93,3.159,9.847,2.948,9.926,2.766
	c0.079-0.183,0.291-0.267,0.472-0.187c0.458,0.199,0.777,0.467,1.002,0.774l0.184,0.3l0.001-0.018
	c-0.006-0.125-0.015-0.251-0.034-0.38c-0.107-0.767-0.467-1.564-0.95-2.145l-0.052-0.06l-0.198,0.824
	c-0.036,0.15-0.168,0.261-0.323,0.273L8.886,2.234l0.221,0.62c0.071,0.202-0.05,0.422-0.257,0.469L8.093,3.501l0.399,0.664
	c0.104,0.17,0.047,0.393-0.125,0.496L8.026,4.862l0.372,0.152C8.868,5.181,9.338,5.265,9.782,5.273z"/>
</svg>
