<?xml version="1.0" encoding="utf-8"?>
<!-- Generator: Adobe Illustrator 15.0.0, SVG Export Plug-In . SVG Version: 6.00 Build 0)  -->
<!DOCTYPE svg PUBLIC "-//W3C//DTD SVG 1.1//EN" "http://www.w3.org/Graphics/SVG/1.1/DTD/svg11.dtd">
<svg version="1.1" id="Layer_1" xmlns="http://www.w3.org/2000/svg" xmlns:xlink="http://www.w3.org/1999/xlink" x="0px" y="0px"
	 width="25px" height="25px" viewBox="0 0 25 25" enable-background="new 0 0 25 25" xml:space="preserve">
<path marker-end="none" marker-start="none" fill="#333333" d="M3.603,25c-1.284,0-2.356-0.91-2.605-2.121l-0.042-0.43l-0.426-2.309
	c-0.727-4.627-0.689-9.251,0.016-13.87l0.379-2.138l-0.155-0.33C0.373,2.575,1.294,1.58,2.73,0.983
	c1.522-0.632,3.75-0.956,5.968-0.981c2.221-0.027,4.515,0.244,6.171,0.858c1.414,0.521,2.623,1.438,2.537,2.773l-0.088,0.431
	l0.219,1.338l0.74-0.14c4.24-0.571,6.512,2.44,6.564,5.808c0.053,3.307-2.025,7.01-6.35,8.006l-0.715,0.129l-0.143,1.172
	c-0.098,0.684-0.207,1.373-0.332,2.059l-0.043,0.443C17.01,24.09,15.938,25,14.656,25H3.603z M14.656,23.938
	c0.768,0,1.41-0.547,1.561-1.273l0.004-0.043l-0.338,0.176c-0.311,0.121-0.652,0.186-1.021,0.186H3.393
	c-0.382,0-0.735-0.08-1.051-0.219l-0.31-0.172l0.008,0.072c0.147,0.727,0.792,1.273,1.562,1.273H14.656z M14.861,21.918
	c0.48,0,0.834-0.154,1.098-0.416c0.277-0.271,0.494-0.693,0.615-1.285l0.006-0.016l0.041-0.26c0.418-3.068,0.553-6.1,0.414-9.095
	l-0.152-2.186l-0.1,0.064c-0.207,0.109-0.42,0.174-0.641,0.188c-0.436,0.025-0.787-0.161-1.051-0.325
	c-0.561-0.351-0.938-0.705-1.678-0.705c-0.295,0-0.473,0.155-0.879,0.637c-0.323,0.382-0.829,1.011-1.748,1.011
	c-0.631,0-1.058-0.496-1.288-0.779C9.385,8.609,9.243,8.417,9.146,8.296C9.061,8.191,9.008,8.138,8.966,8.113L8.799,8.054
	c-0.385-0.081-0.621,0.1-0.809,0.374C7.738,8.792,7.622,9.279,7.596,9.43C7.53,9.805,7.608,10.745,7.44,11.554
	c-0.091,0.433-0.261,0.898-0.614,1.256c-0.37,0.376-0.881,0.575-1.529,0.566c-0.93-0.012-1.55-0.377-1.873-1.012
	c-0.289-0.567-0.294-1.279-0.278-1.84c0.017-0.564,0.071-1.146,0.011-1.562C3.131,8.77,3.084,8.657,3.04,8.593
	C3.006,8.546,2.956,8.501,2.843,8.478C2.45,8.394,1.622,8.594,1.401,8.925L1.279,9.046l-0.152,1.901
	c-0.162,3.012-0.021,6.022,0.451,9.03l0.04,0.221l0.011,0.021c0.094,0.477,0.316,0.91,0.625,1.217
	c0.301,0.301,0.686,0.482,1.138,0.482H14.861z M4.193,20.523c-0.269,0.004-0.502-0.197-0.534-0.471
	c-0.159-1.395-0.249-2.857-0.292-4.365c-0.008-0.291,0.223-0.535,0.518-0.547c0.292-0.008,0.537,0.225,0.545,0.52
	c0.044,1.482,0.131,2.914,0.286,4.271c0.034,0.293-0.176,0.555-0.468,0.59C4.23,20.521,4.211,20.523,4.193,20.523z M7.546,20.523
	c-0.27-0.002-0.497-0.207-0.523-0.484c-0.175-1.898-0.217-3.928-0.188-6.017c0.003-0.294,0.245-0.528,0.538-0.523
	c0.294,0.003,0.529,0.245,0.524,0.538c-0.027,2.066,0.015,4.055,0.185,5.906c0.027,0.291-0.188,0.551-0.48,0.578
	C7.582,20.523,7.564,20.523,7.546,20.523z M11.092,20.523c-0.017,0-0.036-0.002-0.053-0.002c-0.292-0.035-0.5-0.297-0.468-0.59
	c0.287-2.518,0.342-5.291,0.314-8.169c-0.004-0.294,0.233-0.534,0.526-0.537c0.292-0.003,0.534,0.232,0.537,0.525
	c0.029,2.891-0.026,5.717-0.321,8.301C11.596,20.326,11.363,20.527,11.092,20.523z M14.491,20.523c-0.017,0-0.035-0.002-0.053-0.004
	c-0.292-0.039-0.497-0.305-0.459-0.596c0.324-2.52,0.419-5.293,0.433-8.169c0-0.293,0.238-0.53,0.533-0.529
	c0.295,0,0.531,0.239,0.529,0.534c-0.014,2.888-0.109,5.714-0.443,8.3C14.998,20.334,14.76,20.531,14.491,20.523z M17.9,18.102
	l0.34-0.061c3.787-0.865,5.586-4.078,5.539-6.954c-0.045-2.827-1.842-5.259-5.396-4.765l-0.686,0.129l0.119,1.009l0.484-0.09
	c1.32-0.18,2.408,0.149,3.191,0.842c0.883,0.778,1.314,1.947,1.334,3.143c0.033,2.248-1.385,4.762-4.309,5.434l-0.516,0.092
	L17.9,18.102z M18.072,15.775l0.658-0.148c2.078-0.688,3.061-2.562,3.031-4.254c-0.027-1.806-1.213-3.471-3.797-2.86l-0.033,0.002
	l0.133,1.71c0.078,1.337,0.102,2.68,0.074,4.031L18.072,15.775z M5.311,12.315c0.408,0.005,0.623-0.113,0.758-0.25
	c0.149-0.153,0.26-0.393,0.33-0.727c0.146-0.713,0.058-1.558,0.151-2.09c0.035-0.206,0.183-0.873,0.566-1.427
	C7.533,7.218,8.281,6.718,9.34,7.106c0.061,0.022,0.116,0.051,0.164,0.078c0.313,0.189,0.497,0.497,0.821,0.899
	c0.266,0.33,0.398,0.385,0.462,0.385c0.361,0,0.572-0.203,0.936-0.635c0.163-0.194,0.374-0.449,0.631-0.646
	c0.277-0.21,0.623-0.367,1.06-0.367c1.123,0,1.824,0.604,2.24,0.865c0.225,0.14,0.336,0.171,0.426,0.165
	c0.086-0.004,0.266-0.054,0.592-0.359l0.07-0.045l-0.123-1.069c-0.104-0.741-0.225-1.479-0.361-2.216
	c-0.016-0.087-0.01-0.179,0.02-0.263c0.256-0.778-0.213-1.465-1.773-2.042c-1.491-0.551-3.641-0.817-5.793-0.792
	c-2.155,0.025-4.229,0.342-5.573,0.9C2.342,2.295,1.363,2.862,1.93,3.787l0.025,0.072l0.042,0.1L2,3.985l-0.003,0.1v0.083
	c-0.152,0.754-0.284,1.507-0.4,2.262L1.442,7.638L1.745,7.53c0.487-0.142,0.989-0.163,1.321-0.092
	C3.832,7.604,4.127,8.217,4.21,8.813c0.075,0.525,0.02,1.092,0,1.744c-0.018,0.598,0.013,1.032,0.161,1.326
	C4.484,12.105,4.697,12.308,5.311,12.315z M3.553,4.462C3.364,4.454,3.188,4.344,3.1,4.163C2.972,3.899,3.082,3.581,3.345,3.453
	c0.998-0.483,2.14-0.612,3.372-0.475C7.011,3.01,7.22,3.273,7.188,3.564S6.892,4.067,6.601,4.035
	c-1.093-0.121-2.021,0.001-2.79,0.374C3.727,4.449,3.638,4.465,3.553,4.462z"/>
</svg>
