<?xml version="1.0" encoding="utf-8"?>
<!-- Generator: Adobe Illustrator 15.0.0, SVG Export Plug-In . SVG Version: 6.00 Build 0)  -->
<!DOCTYPE svg PUBLIC "-//W3C//DTD SVG 1.1//EN" "http://www.w3.org/Graphics/SVG/1.1/DTD/svg11.dtd">
<svg version="1.1" id="Layer_1" xmlns="http://www.w3.org/2000/svg" xmlns:xlink="http://www.w3.org/1999/xlink" x="0px" y="0px"
	 width="25px" height="25px" viewBox="0 0 25 25" enable-background="new 0 0 25 25" xml:space="preserve">
<path marker-end="none" marker-start="none" fill="#333333" d="M9.995,22.744c-0.505-0.003-0.991-0.082-1.456-0.201l-0.534-0.159
	L7.2,22.566c-4.721,0.749-7.317-3.595-7.196-8.898c0-0.008,0-0.023,0.002-0.033C0.254,10.726,1.208,8.704,2.67,7.63
	c1.296-0.952,2.892-1.083,4.517-0.549l0.454,0.175L7.562,6.651L7.543,6.123L7.011,6.15C6.35,6.135,5.767,5.975,5.289,5.628
	c-0.866-0.624-1.208-1.726-1.19-3.11C4.153,2.22,4.332,2.049,4.627,2c1.102,0.008,2.088,0.232,2.872,0.785
	c0.15,0.104,0.29,0.218,0.419,0.342L8.072,3.3l0.136-0.099c0.123-0.057,0.266-0.064,0.403-0.016C8.882,3.288,9.02,3.59,8.919,3.86
	C8.617,4.671,8.528,5.576,8.607,6.564l0.076,0.568l0.236-0.136c2.326-1.15,4.581,0.494,5.789,3.156l0.103,0.247l0.431-0.405
	c0.571-0.47,1.212-0.79,1.892-0.864c0.468-0.048,0.926,0.022,1.359,0.216l0.58,0.353l0.08-0.25c0.189-0.727,0.24-1.405,0.125-2.038
	c-0.051-0.285,0.138-0.557,0.422-0.609c0.285-0.052,0.559,0.136,0.609,0.421c0.15,0.818,0.075,1.657-0.145,2.493l-0.082,0.261
	l0.174-0.034c1.333-0.19,2.565,0.13,3.452,1.061c0.996,1.046,1.448,2.748,1.243,5.003c0,0.009-0.004,0.025-0.004,0.033
	c-0.323,2.081-1.165,3.948-2.463,5.066c-0.836,0.722-1.839,1.113-2.956,1.068c-0.558-0.021-1.144-0.152-1.749-0.407l-0.215-0.099
	l-0.26,0.033c-0.999,0.097-2.132-0.018-3.201-0.972l-0.008-0.008l-0.031,0.038C12.631,22.28,11.257,22.752,9.995,22.744z
	 M9.97,21.696c0.925,0.011,1.91-0.307,2.975-1.299l0.319-0.318l0.305-0.529c1.527-2.909,1.314-6.476,0.186-8.967
	c-1.067-2.353-2.85-3.682-4.744-2.429L8.915,8.226l0.091,0.101c0.948,1.274,1.386,3.328,1.507,5.209
	c0.164,2.529-0.212,5.348-1.25,6.44c-0.199,0.21-0.531,0.22-0.741,0.021c-0.208-0.198-0.218-0.531-0.019-0.741
	c0.686-0.723,1.129-3.087,0.964-5.652c-0.165-2.577-0.911-4.751-2.027-5.303C5.843,7.59,4.392,7.667,3.292,8.474
	c-0.982,0.721-1.78,2.092-2.124,4.269l-0.118,0.97l0.007,0.883c0.184,4.455,2.503,7.995,6.824,6.743
	c0.103-0.03,0.211-0.029,0.314,0.006C8.764,21.54,9.354,21.69,9.97,21.696z M19.557,21.127c0.865,0.037,1.612-0.271,2.244-0.814
	c0.914-0.79,1.615-2.111,1.976-3.725l0.133-0.696l0.04-0.731c0.034-1.676-0.383-2.788-0.999-3.434
	c-0.688-0.722-1.728-0.973-2.999-0.662c-0.846,0.246-1.691,1.717-2.167,3.656c-0.472,1.926-0.438,3.729-0.049,4.32
	c0.159,0.241,0.092,0.566-0.149,0.726c-0.241,0.16-0.566,0.093-0.726-0.15c-0.671-1.018-0.556-3.257-0.095-5.143
	c0.299-1.229,0.811-2.558,1.551-3.452l0.307-0.327l-0.137-0.133c-0.42-0.333-0.84-0.433-1.243-0.388
	c-0.564,0.058-1.188,0.412-1.781,1.048c-0.05,0.055-0.106,0.096-0.168,0.122l-0.125,0.029l0.155,0.545
	c0.611,2.375,0.542,5.216-0.628,7.713l-0.11,0.206l0.033,0.006c0.064,0.021,0.125,0.058,0.18,0.104
	c0.885,0.787,1.809,0.813,2.769,0.665c0.106-0.017,0.215,0.002,0.31,0.048C18.479,20.958,19.037,21.104,19.557,21.127z
	 M22.781,15.391c-0.036-0.002-0.07-0.006-0.105-0.014c-0.283-0.06-0.463-0.341-0.4-0.622c0.068-0.319,0.045-0.812-0.112-1.269
	c-0.154-0.453-0.409-0.776-0.716-0.903c-0.268-0.108-0.397-0.413-0.289-0.681c0.109-0.269,0.415-0.399,0.684-0.288
	c0.686,0.278,1.098,0.906,1.313,1.532c0.21,0.612,0.259,1.301,0.144,1.829C23.244,15.225,23.024,15.394,22.781,15.391z
	 M2.897,13.179c-0.289,0.011-0.533-0.215-0.542-0.504c-0.025-0.669,0.184-1.511,0.582-2.226c0.396-0.714,1.03-1.394,1.924-1.585
	c0.282-0.058,0.562,0.121,0.622,0.403C5.542,9.55,5.362,9.83,5.079,9.888c-0.481,0.104-0.911,0.5-1.227,1.07
	c-0.315,0.57-0.468,1.222-0.45,1.679C3.412,12.925,3.187,13.17,2.897,13.179z M7.157,5.101l0.42-0.036l0-0.036l0.088-0.525
	L7.444,4.166C7.283,3.956,7.1,3.784,6.897,3.64C6.483,3.354,5.956,3.167,5.31,3.089L5.164,3.078l0.008,0.098
	C5.255,4.018,5.532,4.513,5.902,4.78C6.188,4.989,6.597,5.111,7.157,5.101z"/>
</svg>
