<?xml version="1.0" encoding="utf-8"?>
<!-- Generator: Adobe Illustrator 15.0.0, SVG Export Plug-In . SVG Version: 6.00 Build 0)  -->
<!DOCTYPE svg PUBLIC "-//W3C//DTD SVG 1.1//EN" "http://www.w3.org/Graphics/SVG/1.1/DTD/svg11.dtd">
<svg version="1.1" id="Layer_1" xmlns="http://www.w3.org/2000/svg" xmlns:xlink="http://www.w3.org/1999/xlink" x="0px" y="0px"
	 width="25px" height="25px" viewBox="0 0 25 25" enable-background="new 0 0 25 25" xml:space="preserve">
<path marker-end="none" marker-start="none" fill="#4C4C4C" d="M3.923,24.102l-0.543-0.545v-9.092L2.651,14.12
	c-2.314-1.422-3.056-4.246-2.45-6.469c0.682-2.497,3.031-4.234,6.565-2.94l0.136,0.056l0.096-0.352
	c1.685-4.38,8.795-4.966,10.66-0.062l0.111,0.405l0.404-0.194c2.457-1.009,4.934,0.274,6.101,2.294
	c1.285,2.224,1.026,5.326-2.116,7.526l-0.397,0.256v8.688l0.023,0.147l-0.538,0.627H3.923z M20.674,23.013v-7.907H4.467v7.907
	H20.674z M5.614,21.805v-5.521c0.344-0.223,0.709-0.206,1.088,0v5.521C6.29,22.055,5.949,21.945,5.614,21.805z M20.856,14.019
	l0.085-0.146c3.276-1.924,3.448-4.643,2.392-6.471c-1.024-1.774-3.167-2.733-5.181-1.621l-0.063,0.04L17.894,6.08
	c-0.546,0.663-1.248,1.306-2.407,1.754c-0.475-0.197-0.722-0.487-0.393-1.014c0.622-0.24,1.077-0.542,1.452-0.888l0.327-0.352
	l-0.22-0.789c-1.597-4.162-8.105-3.514-8.857,0.805C7.694,5.922,7.421,6.03,7.033,5.997C3.681,4.445,1.794,5.952,1.251,7.939
	c-0.576,2.108,0.333,4.782,2.853,5.672l0.288,0.407H20.856z M3.511,10.94c-0.822-0.912-0.823-2.06-0.326-2.918
	c0.487-0.846,1.474-1.428,2.6-1.231c0.201,0.438,0.082,0.778-0.188,1.071c-0.631-0.11-1.184,0.206-1.471,0.703
	c-0.279,0.484-0.288,1.112,0.191,1.647C4.344,10.685,4.132,10.974,3.511,10.94z"/>
</svg>
