<?xml version="1.0" encoding="utf-8"?>
<!-- Generator: Adobe Illustrator 15.0.0, SVG Export Plug-In . SVG Version: 6.00 Build 0)  -->
<!DOCTYPE svg PUBLIC "-//W3C//DTD SVG 1.1//EN" "http://www.w3.org/Graphics/SVG/1.1/DTD/svg11.dtd">
<svg version="1.1" id="Layer_1" xmlns="http://www.w3.org/2000/svg" xmlns:xlink="http://www.w3.org/1999/xlink" x="0px" y="0px"
	 width="25px" height="25px" viewBox="0 0 25 25" enable-background="new 0 0 25 25" xml:space="preserve">
<path marker-end="none" marker-start="none" fill="#333333" d="M7.265,25c-0.102-0.004-0.201-0.034-0.29-0.099
	c-0.233-0.168-0.287-0.496-0.118-0.73c0.759-1.05,1.487-2.127,2.19-3.222L9.6,20.031H9.35l-0.498-0.057l-0.034,0.229l-1.939,3.815
	c-0.099,0.194-0.301,0.298-0.503,0.286c-0.068-0.007-0.135-0.023-0.199-0.057c-0.258-0.132-0.36-0.447-0.229-0.701l1.388-2.732
	L7.092,20.86c-2.01,0.287-3.571-0.701-4.323-2.09c-0.735-1.353-0.693-3.128,0.498-4.28l0.267-0.228
	C0.752,12.078,2.037,8.37,5.116,8.189l0.237,0.009L5.275,8.07C4.679,6.877,4.872,5.677,5.516,4.798
	c0.611-0.832,1.66-1.379,2.709-1.244l0.327,0.079l0.031-0.25c0.408-2.076,1.596-3.154,3.035-3.351
	c1.164-0.161,2.386,0.281,3.271,1.07l0.381,0.391l0.129-0.145c1.226-1.109,2.812-1.076,4.093-0.333
	c1.587,0.924,2.748,3.041,1.716,4.987l-0.086,0.139l0.378,0.138c2.161,1.006,2.729,3.923,0.604,5.593l-0.324,0.218l0.443,0.335
	c1.081,1.072,1.107,2.779,0.474,4.153c-0.75,1.621-2.462,2.998-4.693,2.808l0.044,0.303c-0.024,1.299-1.37,2.5-2.824,2.978
	c-0.496,0.161-1.021,0.247-1.541,0.232c-1.254-0.036-2.472-0.645-3.129-2.14l-0.063-0.157l-1.194,1.876
	c-0.515,0.78-1.045,1.549-1.59,2.304C7.62,24.9,7.497,24.972,7.363,24.993C7.33,25,7.298,25,7.265,25z M13.742,21.864
	c0.383,0.005,0.775-0.066,1.154-0.189c1.581-0.519,2.499-1.825,1.861-2.652c-0.305-0.396,0.074-0.959,0.557-0.822
	c2.103,0.593,3.747-0.574,4.435-2.062c0.687-1.484,0.369-3.05-1.269-3.532c-0.479-0.142-0.503-0.812-0.038-0.99
	c3.029-1.161,2.229-4.362-0.26-4.625c-0.425-0.045-0.621-0.554-0.332-0.872c1.326-1.462,0.586-3.343-0.885-4.199
	c-1.328-0.769-3.247-0.623-4.101,2.447c-0.104,0.381-0.577,0.511-0.862,0.239c-1.306-1.246-4.357,0.507-2.508,3.266
	c0.3,0.447-0.196,1.001-0.673,0.756c-2.918-1.508-5.27,1.623-2.45,4.042c0.323,0.277,0.195,0.805-0.22,0.904
	c-3.08,0.741-2.245,5.905,2.014,5.378l0.094-0.015l0.815-1.349l0.147-0.268l-0.007-0.009c-0.033-0.034-0.06-0.073-0.083-0.118
	l-1.39-2.664c-0.137-0.255-0.035-0.572,0.22-0.705c0.257-0.133,0.571-0.035,0.704,0.221l1.15,2.205l0.522-0.973
	c0.615-1.169,1.206-2.359,1.774-3.568l0.484-1.053l-1.347-2.721c-0.128-0.259-0.021-0.57,0.239-0.698
	c0.256-0.128,0.57-0.023,0.698,0.235l0.962,1.944l0.066-0.152c0.535-1.235,1.053-2.49,1.545-3.761
	c0.104-0.269,0.405-0.401,0.675-0.299c0.271,0.105,0.404,0.409,0.299,0.676l-0.773,1.884l1.885-0.532
	c0.279-0.076,0.566,0.084,0.645,0.362c0.079,0.279-0.084,0.568-0.361,0.647l-2.421,0.678c-0.055,0.015-0.107,0.022-0.158,0.017
	l-0.062-0.021l-0.313,0.764c-0.544,1.248-1.108,2.478-1.698,3.688l-0.195,0.398l2.165-0.045c0.287-0.006,0.527,0.225,0.535,0.512
	c0.004,0.288-0.225,0.527-0.511,0.533l-2.72,0.058l-0.179,0.345c-0.435,0.844-0.883,1.677-1.345,2.501l-1.003,1.712l0.141,0.567
	C11.804,21.334,12.739,21.854,13.742,21.864z M6.611,19.86c0.234-0.013,0.48-0.05,0.737-0.111l0.333-0.109L7.39,19.507
	C5,18.198,4.541,14.805,6.487,13.238l0.598-0.377c-0.864-1.006-1.122-2.115-0.949-3.081l0.11-0.425L5.795,9.261
	c-2.771-0.347-4.032,2.882-1.037,4.562c0.372,0.208,0.352,0.752-0.035,0.931c-1.464,0.677-1.728,2.244-1.035,3.52
	C4.19,19.2,5.203,19.939,6.611,19.86z M6.771,8.382L7.01,8.105c0.673-0.674,1.671-1.05,2.816-0.889l0.233,0.054L10,7.111
	c-0.688-2.599,1.798-4.546,3.787-3.842l0.296,0.142l0.232-0.558c0.077-0.159,0.156-0.311,0.239-0.453L14.6,2.333l-0.09-0.128
	C13.131,0.575,9.815,0.127,9.5,4.41C9.473,4.803,9.033,5.026,8.7,4.813C7.27,3.907,4.854,5.888,6.497,8.07L6.771,8.382z"/>
</svg>
