<?xml version="1.0" encoding="utf-8"?>
<!-- Generator: Adobe Illustrator 15.0.0, SVG Export Plug-In . SVG Version: 6.00 Build 0)  -->
<!DOCTYPE svg PUBLIC "-//W3C//DTD SVG 1.1//EN" "http://www.w3.org/Graphics/SVG/1.1/DTD/svg11.dtd">
<svg version="1.1" id="Layer_1" xmlns="http://www.w3.org/2000/svg" xmlns:xlink="http://www.w3.org/1999/xlink" x="0px" y="0px"
	 width="25px" height="25px" viewBox="0 0 25 25" enable-background="new 0 0 25 25" xml:space="preserve">
<path marker-end="none" marker-start="none" fill="#333333" d="M6.619,24.998c-0.224-0.011-0.415-0.177-0.448-0.408L4.082,10.043
	c-0.04-0.288,0.182-0.544,0.473-0.544h0.312L3.028,4.331C2.929,4.056,3.101,3.758,3.387,3.702L5.724,3.25
	c0.243-0.046,0.483,0.102,0.55,0.34l0.479,1.72L7.33,5.228L7.224,4.221c-0.028-0.259,0.16-0.494,0.42-0.523L9.603,3.47
	c0.272-0.029,0.513,0.172,0.531,0.446l0.139,2.266h0.542l-0.202-5.536c-0.011-0.257,0.185-0.477,0.442-0.494L13.166,0
	c0.276-0.019,0.512,0.2,0.512,0.477v3.668h0.873l0.212-1.764c0.03-0.261,0.266-0.447,0.524-0.419l2.037,0.227
	c0.27,0.03,0.461,0.281,0.419,0.55L17.69,3.058l1.742,0.187c0.278,0.03,0.473,0.292,0.417,0.566l-0.362,1.837l1.291,0.322
	c0.273,0.068,0.43,0.358,0.333,0.623l-1.037,2.906h0.036c0.295,0,0.519,0.265,0.47,0.556l-2.462,14.549
	c-0.043,0.248-0.274,0.424-0.527,0.393c-3.643-0.43-7.265-0.557-10.875-0.003C6.683,24.998,6.65,25.001,6.619,24.998z
	 M17.251,24.006l2.294-13.555h-1.97c-1.03,1.912-3.043,3.201-5.354,3.201c-2.313,0-4.325-1.289-5.359-3.187l-1.757-0.014
	l1.944,13.537l0.919-0.119c0.145-0.015,0.289-0.031,0.435-0.044l0.243-0.022l-0.744-6.691c-0.029-0.26,0.16-0.496,0.422-0.524
	c0.26-0.03,0.497,0.159,0.526,0.42l0.748,6.727l0.112-0.006c0.872-0.05,1.741-0.064,2.613-0.053l2.225,0.094l0.752-6.762
	c0.029-0.261,0.267-0.45,0.526-0.42c0.264,0.028,0.451,0.265,0.423,0.524L15.5,23.84L17.251,24.006z M12.222,12.699l0.502-0.031
	V0.989l-1.141,0.082l0.425,11.615L12.222,12.699z M11.049,12.561l-0.199-5.425h-0.518l0.329,5.298l-0.002,0.014l0.325,0.102
	L11.049,12.561z M14.558,12.136l0.028-0.013c0.177-0.092,0.346-0.193,0.512-0.304l0.275-0.211l-0.005-0.126l1.351-8.398
	l-1.065-0.119L14.558,12.136z M9.68,12.019L9.212,4.478L8.222,4.592l0.705,6.691c0.007,0.064,0,0.128-0.018,0.188l-0.007,0.01
	l0.442,0.338L9.68,12.019z M13.678,11.46l0.759-6.36h-0.759V11.46z M16.516,10.358l0.219-0.346l0.117-0.245
	c0.08-0.165,0.246-0.269,0.43-0.269h0.473l1.059-5.361l-1.274-0.136L16.516,10.358z M6.933,9.499l-1.46-5.228l-1.36,0.264
	L5.88,9.499H6.933z M19.075,9.499l0.008-0.061l0.954-2.669l-0.735-0.185l-0.576,2.915H19.075z M7.692,8.665L7.43,6.178L7.013,6.238
	L7.692,8.665z"/>
</svg>
