<?xml version="1.0" encoding="utf-8"?>
<!-- Generator: Adobe Illustrator 15.0.0, SVG Export Plug-In . SVG Version: 6.00 Build 0)  -->
<!DOCTYPE svg PUBLIC "-//W3C//DTD SVG 1.1//EN" "http://www.w3.org/Graphics/SVG/1.1/DTD/svg11.dtd">
<svg version="1.1" id="Layer_1" xmlns="http://www.w3.org/2000/svg" xmlns:xlink="http://www.w3.org/1999/xlink" x="0px" y="0px"
	 width="25px" height="25px" viewBox="0 0 25 25" enable-background="new 0 0 25 25" xml:space="preserve">
<path marker-end="none" marker-start="none" fill="#333333" d="M2.287,24.389c-0.286,0-0.516-0.23-0.516-0.515
	c0-0.286,0.23-0.518,0.516-0.518h21.104c0.285,0,0.517,0.231,0.517,0.518c0,0.284-0.231,0.515-0.517,0.515H2.287z M4.249,22.147
	c-0.286,0-0.517-0.232-0.517-0.517V11.253L3.43,11.385c-0.283,0.097-0.581,0.148-0.877,0.148C1.391,11.533,0,10.722,0,9.471
	c0-0.007,0-0.022,0.001-0.028l0.002-0.048V9.327C0.011,9.284,0.021,9.242,0.04,9.199l2.358-5.697
	C2.48,3.309,2.667,3.183,2.876,3.183h0.632V0.515C3.508,0.231,3.741,0,4.025,0h16.771c0.284,0,0.516,0.231,0.516,0.515v2.667h0.684
	c0.204,0,0.391,0.122,0.472,0.312l2.489,5.695c0.075,0.171,0.049,0.353-0.042,0.49c-0.136,1.11-1.232,1.854-2.353,1.854
	c-0.146,0-0.297-0.012-0.444-0.037l-0.408-0.099v10.233c0,0.284-0.23,0.517-0.516,0.517H4.249z M13.37,21.115V13.21
	c0-0.285,0.229-0.516,0.517-0.516h5.373c0.286,0,0.517,0.231,0.517,0.516v7.905h0.9v-10.12l0.031-0.148l-0.187-0.163l-0.29,0.278
	c-0.452,0.364-1.053,0.571-1.646,0.571c-0.58,0-1.22-0.202-1.713-0.563l-0.312-0.273l-0.287,0.269
	c-0.461,0.36-1.071,0.567-1.659,0.567c-0.581,0-1.22-0.202-1.712-0.563l-0.331-0.287l-0.288,0.279
	c-0.452,0.364-1.051,0.571-1.644,0.571c-0.727,0-1.543-0.317-2.058-0.86c-0.519,0.538-1.34,0.86-2.055,0.86
	c-0.58,0-1.22-0.202-1.713-0.563l-0.066-0.057l0.018,0.082v1.549h7.136c0.283,0,0.517,0.232,0.517,0.516v5.978
	c0,0.285-0.234,0.518-0.517,0.518H4.765v1.56H13.37z M18.745,21.033v-7.309h-4.343v7.309H18.745z M11.386,18.522v-4.944H4.765v4.944
	H11.386z M17.271,18.017c-0.284,0-0.517-0.231-0.517-0.518v-0.747c0-0.286,0.232-0.518,0.517-0.518c0.286,0,0.518,0.231,0.518,0.518
	v0.747C17.789,17.785,17.558,18.017,17.271,18.017z M7.047,17.104c-0.135,0.006-0.269-0.039-0.371-0.136
	c-0.209-0.192-0.227-0.52-0.032-0.729l1.784-1.949c0.195-0.21,0.52-0.223,0.73-0.031c0.209,0.193,0.226,0.521,0.032,0.731
	l-1.787,1.946C7.308,17.041,7.177,17.1,7.047,17.104z M5.614,16.315c-0.133,0.005-0.266-0.039-0.37-0.138
	c-0.211-0.191-0.226-0.519-0.034-0.728l1.137-1.241c0.192-0.211,0.521-0.223,0.731-0.031c0.209,0.191,0.223,0.52,0.031,0.73
	l-1.137,1.24C5.876,16.252,5.746,16.307,5.614,16.315z M2.552,10.502c0.698,0,1.234-0.414,1.356-0.847l0.024-0.178l0-0.048
	C3.927,9.354,3.938,9.284,3.96,9.217l0.037-0.073l0.016-0.164l1.393-4.765H3.222L1.038,9.49l0.027,0.154
	C1.21,10.055,1.834,10.502,2.552,10.502z M6.527,10.502c0.736,0,1.353-0.439,1.495-0.855l0.032-0.169L8.05,9.43
	C8.045,9.354,8.056,9.284,8.079,9.217l0.005-0.005L8.074,9.05l0.724-4.833H6.483L5.003,9.271l-0.007,0.01l0.01,0.034
	c0.004,0.037,0.005,0.074,0.004,0.11L5.008,9.472L5.04,9.644C5.183,10.055,5.809,10.502,6.527,10.502z M10.64,10.502
	c0.692,0,1.217-0.411,1.337-0.846l0.026-0.179L12,9.43c-0.006-0.075,0.004-0.146,0.031-0.212l0.018-0.029V4.216H9.842L9.098,9.203
	L9.09,9.222l0.026,0.094c0.005,0.037,0.008,0.074,0.005,0.11L9.12,9.472l0.03,0.172C9.295,10.055,9.922,10.502,10.64,10.502z
	 M14.614,10.502c0.703,0,1.252-0.418,1.378-0.847l0.026-0.178L16.017,9.43c-0.002-0.036-0.002-0.073,0.003-0.109l0.005-0.018
	l-0.035-0.104l-0.706-4.982h-2.199v5.123l0.013,0.086l-0.003,0.047l0.03,0.172C13.271,10.055,13.896,10.502,14.614,10.502z
	 M18.586,10.502c0.694,0,1.22-0.411,1.343-0.846l0.025-0.179L19.949,9.43c-0.002-0.036,0-0.073,0.005-0.109l0.007-0.023
	l-0.019-0.032l-1.41-5.05h-2.205l0.686,4.839l-0.006,0.099l0.029,0.061c0.025,0.064,0.037,0.135,0.033,0.21l-0.002,0.047
	l0.029,0.172C17.242,10.055,17.868,10.502,18.586,10.502z M22.562,10.502c0.682,0,1.189-0.419,1.305-0.85l0.024-0.174L23.888,9.43
	l0.005-0.095l-2.235-5.119h-2.055l1.335,4.771l0.007,0.107l0.021,0.028c0.055,0.085,0.086,0.19,0.078,0.302l-0.005,0.047
	l0.033,0.172C21.217,10.055,21.841,10.502,22.562,10.502z M20.277,3.183v-2.15H4.543v2.15H20.277z"/>
</svg>
