<?xml version="1.0" encoding="utf-8"?>
<!-- Generator: Adobe Illustrator 15.0.0, SVG Export Plug-In . SVG Version: 6.00 Build 0)  -->
<!DOCTYPE svg PUBLIC "-//W3C//DTD SVG 1.1//EN" "http://www.w3.org/Graphics/SVG/1.1/DTD/svg11.dtd">
<svg version="1.1" id="Layer_1" xmlns="http://www.w3.org/2000/svg" xmlns:xlink="http://www.w3.org/1999/xlink" x="0px" y="0px"
	 width="25px" height="25px" viewBox="0 0 25 25" enable-background="new 0 0 25 25" xml:space="preserve">
<path marker-end="none" marker-start="none" fill="#4C4C4C" d="M12.271,22.639c-0.232,0.003-0.464,0.003-0.695-0.002
	c-2.886-0.051-5.741-0.679-8.07-2.016c-1.526-0.874-2.649-2.693-2.725-4.526l-0.001-0.144L0.65,15.793
	c-0.819-1.11-0.946-2.617-0.193-3.862l0.315-0.433L0.761,11.46C0.498,10.179,0.72,8.729,0.949,7.778
	c0.82-3.48,5.41-6.142,11.605-6.142c5.771,0,10.566,2.292,11.484,5.543l0.122,0.612c0.189,0.89,0.416,2.152,0.145,3.361
	l-0.069,0.233l0.193,0.205c0.343,0.464,0.514,1.034,0.528,1.612c0.014,0.579-0.126,1.184-0.42,1.736l-0.117,0.185l0.072,0.45
	c0.158,1.658-0.462,3.463-2.704,4.674C19.213,21.717,15.749,22.589,12.271,22.639z M12.264,21.566
	c3.285-0.049,6.57-0.868,9.005-2.256c1.57-0.848,2.13-1.985,2.176-3.103l-0.008-0.236l-0.53,0.4
	c-3.159,2.27-7.058,3.386-10.956,3.351c-3.439-0.028-6.877-0.955-9.801-2.773l-0.185-0.121l0.02,0.101
	c0.305,1.147,1.082,2.209,2.051,2.764c2.164,1.241,4.849,1.827,7.572,1.874C11.826,21.57,12.045,21.57,12.264,21.566z
	 M12.446,18.651c4.039-0.07,8.037-1.447,11.058-4.124c0.014-0.012,0.027-0.023,0.042-0.033l0.015-0.011l0.032-0.047
	c0.208-0.395,0.304-0.815,0.295-1.208c-0.007-0.261-0.061-0.501-0.153-0.71l-0.013-0.024l-0.31,0.411l-0.021,0.04L23.13,13.25
	c-1.612,1.676-5.411,2.81-9.346,3.068c-0.53,0.035-1.068,0.054-1.61,0.058c-3.79,0.019-7.745-0.794-10.303-2.938
	c-0.206-0.167-0.38-0.357-0.525-0.564l-0.092-0.15l-0.041,0.08c-0.301,0.723-0.223,1.52,0.178,2.171l0.236,0.319l0.551,0.394
	c2.779,1.888,6.111,2.872,9.461,2.959C11.907,18.655,12.176,18.655,12.446,18.651z M12.151,15.307
	c0.522-0.003,1.044-0.021,1.563-0.056c4.189-0.277,7.771-1.545,8.853-2.986c0.009-0.014,0.021-0.027,0.031-0.039
	c1.022-1.128,0.816-2.798,0.515-4.212c-0.003-0.017-0.007-0.034-0.008-0.051c-0.311-2.708-4.499-5.256-10.551-5.256
	c-6.041,0-9.92,2.588-10.563,5.319c-0.39,1.625-0.501,3.72,0.562,4.587C4.838,14.528,8.497,15.321,12.151,15.307z M12.553,13.291
	c-0.295,0-0.536-0.239-0.536-0.536c0-0.295,0.241-0.535,0.536-0.535c2.601,0,4.937-0.34,6.603-0.875
	c0.837-0.27,1.476-0.578,1.894-0.896c0.423-0.321,0.541-0.589,0.541-0.771c0-0.294,0.239-0.536,0.534-0.536
	c0.296,0,0.535,0.241,0.535,0.536c0,0.665-0.415,1.207-0.964,1.624c-0.551,0.418-1.315,0.772-2.212,1.061
	C17.687,12.941,15.235,13.291,12.553,13.291z M4.726,7.898c-0.07,0.003-0.141-0.008-0.21-0.034C4.241,7.759,4.101,7.449,4.205,7.173
	c0.61-1.609,2.165-2.565,4.166-3.127c0.285-0.08,0.58,0.084,0.66,0.371c0.08,0.285-0.086,0.58-0.371,0.66
	C6.796,5.6,5.638,6.412,5.207,7.552C5.128,7.759,4.933,7.89,4.726,7.898z"/>
</svg>
