<?xml version="1.0" encoding="utf-8"?>
<!-- Generator: Adobe Illustrator 15.0.0, SVG Export Plug-In . SVG Version: 6.00 Build 0)  -->
<!DOCTYPE svg PUBLIC "-//W3C//DTD SVG 1.1//EN" "http://www.w3.org/Graphics/SVG/1.1/DTD/svg11.dtd">
<svg version="1.1" id="Layer_1" xmlns="http://www.w3.org/2000/svg" xmlns:xlink="http://www.w3.org/1999/xlink" x="0px" y="0px"
	 width="25px" height="25px" viewBox="0 0 25 25" enable-background="new 0 0 25 25" xml:space="preserve">
<path marker-end="none" marker-start="none" fill="#4C4C4C" d="M4.994,25l-0.615-0.669c0.066-0.771,0.674-1.146,1.192-1.332
	l0.178-0.034c2.315-0.106,3.809-0.509,4.767-1.057l0.126-0.08v-3.994c0-1.223-0.099-1.861-0.256-2.245
	c-0.101-0.243-0.235-0.4-0.463-0.563l-0.23-0.146l-0.817-0.276C4.43,12.646,3.873,5.516,4.021,0.598
	C4.062,0.256,4.246,0.036,4.638,0h15.585c0.338,0.037,0.543,0.237,0.617,0.598c0.148,4.904-0.408,12.045-4.856,14.005l-0.817,0.276
	l-0.23,0.146c-0.229,0.163-0.361,0.32-0.462,0.563c-0.16,0.384-0.255,1.022-0.255,2.245v3.994l0.123,0.08
	c0.959,0.548,2.453,0.95,4.77,1.057l0.178,0.034c0.518,0.186,1.125,0.561,1.191,1.332L19.865,25H4.994z M15.818,23.768l-0.246-0.055
	c-0.959-0.261-1.727-0.613-2.332-1.052l-0.255-0.499v-4.328c0-0.93,0.05-1.64,0.187-2.201l0.113-0.363l-0.822,0.058l-0.892-0.064
	l0.119,0.37c0.134,0.562,0.186,1.271,0.186,2.201v4.328l-0.255,0.499c-0.606,0.438-1.374,0.791-2.333,1.052l-0.246,0.055H15.818z
	 M12.463,14.096c0.365,0,0.729-0.027,1.094-0.079l1.02-0.22l0.01-0.006l0.158-0.062c2.981-0.74,4.268-4.232,4.699-8.189l0.072-0.763
	H5.343l0.071,0.769c0.434,3.959,1.72,7.443,4.701,8.183l0.157,0.062l0.002-0.009C11.005,13.988,11.736,14.094,12.463,14.096z
	 M9.52,11.958c-1.545-1.313-2.238-3.176-2.278-5.456c0.41-0.44,0.821-0.275,1.231-0.024c0.037,2.03,0.638,3.515,1.845,4.541
	C10.381,11.662,9.976,11.837,9.52,11.958z M19.582,3.545l0.037-0.793l-0.008-1.52H5.249L5.241,2.758l0.037,0.788H19.582z"/>
</svg>
