<?xml version="1.0" encoding="utf-8"?>
<!-- Generator: Adobe Illustrator 15.0.0, SVG Export Plug-In . SVG Version: 6.00 Build 0)  -->
<!DOCTYPE svg PUBLIC "-//W3C//DTD SVG 1.1//EN" "http://www.w3.org/Graphics/SVG/1.1/DTD/svg11.dtd">
<svg version="1.1" id="Layer_1" xmlns="http://www.w3.org/2000/svg" xmlns:xlink="http://www.w3.org/1999/xlink" x="0px" y="0px"
	 width="25px" height="25px" viewBox="0 0 25 25" enable-background="new 0 0 25 25" xml:space="preserve">
<path marker-end="none" marker-start="none" fill="#4C4C4C" d="M0.653,23.963c-0.306,0.016-0.563-0.229-0.563-0.536V13.277
	l0.041-0.201l-0.069-0.131c-0.054-0.14-0.073-0.292-0.056-0.449c0.058-0.546,0.576-1.118,1.186-1.625l0.606-0.466L4.38,8.346V8.345
	C4.507,7.056,5.461,5.534,6.967,4.86c0.687-0.306,1.409-0.566,2.111-0.627l0.45,0.007l2.99-2.384
	c0.975-0.836,1.989-0.715,2.792-0.598c0.028,0.005,0.058,0.011,0.086,0.021c3.449,1.12,6.537,4.584,8.947,9
	c0.277,0.511,0.494,1.085,0.391,1.607l-0.063,0.213l0.005,0.009c0.028,0.063,0.043,0.134,0.043,0.207v9.946
	c0,0.286-0.225,0.522-0.51,0.536L0.653,23.963z M1.163,22.863l22.482-1.112v-3.208l-0.468,0.064
	c-0.177,0.05-0.343,0.121-0.505,0.207c-0.341,0.186-0.641,0.424-1.003,0.693c-0.343,0.256-0.739,0.538-1.205,0.71
	c-0.483,0.179-1.024,0.234-1.649,0.078c-0.336-0.084-0.635-0.237-0.898-0.405c-0.262-0.166-0.51-0.359-0.732-0.531
	c-0.492-0.379-0.838-0.627-1.225-0.703c-0.199-0.041-0.38,0.002-0.594,0.137c-0.233,0.145-0.465,0.372-0.746,0.663
	c-0.265,0.271-0.577,0.603-0.925,0.858c-0.359,0.263-0.799,0.477-1.332,0.477c-0.487,0-0.921-0.128-1.302-0.289
	c-0.373-0.158-0.73-0.366-1.025-0.525c-0.313-0.17-0.568-0.293-0.81-0.354c-0.223-0.057-0.426-0.053-0.64,0.033
	c-0.549,0.22-1.045,0.582-1.64,0.885c-0.464,0.236-0.985,0.432-1.593,0.438c-0.203,0.002-0.415-0.016-0.637-0.061
	c-0.791-0.158-1.51-0.704-2.129-0.98c-0.292-0.129-0.506-0.174-0.678-0.152c-0.149,0.02-0.342,0.099-0.577,0.395
	c-0.047,0.057-0.103,0.104-0.164,0.137l-0.005,0.002V22.863z M5.332,19.906c0.392-0.002,0.749-0.129,1.127-0.32
	c0.534-0.271,1.085-0.668,1.729-0.925c0.457-0.185,0.894-0.179,1.296-0.079c0.386,0.096,0.747,0.279,1.064,0.451
	c0.334,0.182,0.621,0.349,0.931,0.48c0.301,0.129,0.587,0.205,0.884,0.205c0.228,0,0.449-0.089,0.697-0.27
	c0.26-0.189,0.502-0.444,0.789-0.74c0.27-0.277,0.586-0.602,0.947-0.826c0.38-0.236,0.841-0.385,1.374-0.279
	c0.346,0.069,0.65,0.215,0.921,0.377c0.269,0.162,0.521,0.355,0.746,0.529c0.509,0.391,0.847,0.648,1.237,0.745
	c0.408,0.103,0.729,0.063,1.018-0.043c0.307-0.112,0.596-0.31,0.936-0.563c0.324-0.24,0.707-0.545,1.135-0.776
	c0.333-0.179,0.706-0.323,1.134-0.384l0.349-0.024v-2.083l-0.194,0.012c-0.282,0.041-0.535,0.137-0.778,0.268
	c-0.341,0.184-0.641,0.423-1.003,0.691c-0.343,0.258-0.739,0.539-1.205,0.711c-0.483,0.18-1.024,0.234-1.649,0.078
	c-0.336-0.084-0.635-0.238-0.898-0.404c-0.262-0.166-0.51-0.36-0.732-0.532c-0.492-0.379-0.838-0.627-1.225-0.704
	c-0.199-0.04-0.38,0.003-0.594,0.137c-0.233,0.146-0.465,0.373-0.746,0.663c-0.265,0.272-0.577,0.604-0.925,0.859
	c-0.359,0.262-0.799,0.477-1.332,0.477c-0.487,0-0.921-0.128-1.302-0.29c-0.373-0.158-0.73-0.365-1.025-0.525
	c-0.313-0.17-0.568-0.293-0.81-0.354C9.003,16.412,8.8,16.414,8.586,16.5c-0.549,0.221-1.045,0.583-1.64,0.886
	c-0.463,0.235-0.985,0.431-1.593,0.437c-0.202,0.004-0.415-0.016-0.637-0.059c-0.791-0.16-1.51-0.705-2.129-0.98
	c-0.292-0.131-0.506-0.176-0.678-0.153c-0.149,0.019-0.342,0.099-0.577,0.394c-0.047,0.058-0.103,0.104-0.164,0.137l-0.005,0.002
	v1.77l0.259-0.125c0.113-0.041,0.23-0.068,0.35-0.084c0.46-0.061,0.89,0.075,1.252,0.235c0.678,0.302,1.326,0.794,1.903,0.908
	C5.068,19.895,5.202,19.907,5.332,19.906z M5.332,16.751c0.392-0.003,0.749-0.128,1.127-0.321c0.534-0.271,1.085-0.668,1.729-0.925
	c0.457-0.183,0.894-0.178,1.296-0.079c0.386,0.096,0.747,0.28,1.064,0.452c0.334,0.181,0.621,0.349,0.931,0.481
	c0.301,0.127,0.587,0.203,0.884,0.203c0.228,0,0.449-0.088,0.697-0.27c0.26-0.189,0.502-0.443,0.789-0.74
	c0.27-0.277,0.586-0.6,0.947-0.826c0.38-0.236,0.841-0.385,1.374-0.279c0.344,0.07,0.65,0.215,0.921,0.379
	c0.269,0.16,0.521,0.354,0.746,0.529c0.509,0.391,0.847,0.646,1.237,0.744c0.408,0.103,0.729,0.064,1.018-0.043
	c0.307-0.113,0.596-0.31,0.936-0.563c0.324-0.241,0.707-0.546,1.135-0.777c0.333-0.179,0.706-0.323,1.134-0.383l0.349-0.024v-1.41
	l-0.117,0.037c-0.172,0.035-0.352,0.055-0.532,0.062L2.698,13.691l-0.73,0.035c-0.18,0-0.349-0.004-0.509-0.019l-0.296-0.045v2.112
	l0.259-0.125c0.113-0.041,0.23-0.067,0.35-0.084c0.46-0.06,0.89,0.076,1.252,0.236c0.678,0.303,1.326,0.793,1.903,0.907
	C5.068,16.738,5.202,16.752,5.332,16.751z M1.902,12.653c0.2,0.001,0.442-0.007,0.734-0.032c0.005,0,0.021,0,0.026-0.001
	l16.528-0.565l0.06-0.404c0.056-0.181,0.128-0.345,0.207-0.491c0.144-0.271,0.323-0.52,0.438-0.713
	c0.16-0.274,0.256-0.416-0.096-0.769c-0.014-0.013-0.105-0.089-0.798-0.057c-0.286,0.014-1.122,0.096-1.587-0.279
	c-0.029-0.023-0.057-0.049-0.084-0.075c-0.238-0.238-0.333-0.54-0.377-0.79c-0.046-0.251-0.053-0.521-0.057-0.741
	c-0.01-0.495-0.043-0.675-0.07-0.745l-0.042-0.038c-0.442-0.095-0.948-0.009-1.493-0.062c-0.266-0.026-0.603-0.097-0.871-0.337
	c-0.216-0.194-0.333-0.447-0.378-0.732l-0.012-0.15l-0.016-0.106l0.002-0.029L14.014,5.41c-0.025-0.396-0.135-0.505-0.177-0.539
	c-0.082-0.065-0.231-0.103-0.567-0.111c-0.264-0.007-0.727,0.012-1.105-0.114c-0.235-0.078-0.441-0.208-0.602-0.395l-0.111-0.173
	l-0.675,0.539l0.306,0.186c0.384,0.315,0.712,0.761,0.975,1.35c0.608,1.358,0.573,2.382-0.05,3.167
	c-0.575,0.723-1.599,1.142-2.379,1.49c-0.622,0.278-1.287,0.4-1.929,0.392c-1.236-0.016-2.383-0.517-2.954-1.322L4.567,9.569
	l-2.101,1.676c-0.004,0.003-0.017,0.013-0.022,0.016c-0.449,0.322-0.804,0.621-1.048,0.88c-0.132,0.141-0.212,0.251-0.26,0.329
	l-0.041,0.077l0.05,0.02C1.269,12.606,1.502,12.649,1.902,12.653z M20.269,12.018l2.686-0.092c0.635-0.028,0.712-0.201,0.719-0.218
	c0.033-0.084,0.037-0.351-0.271-0.915c-2.224-4.074-4.926-7.104-7.767-8.283l-0.53-0.196l-0.501-0.058
	c-0.518-0.035-0.953,0.04-1.402,0.426l-0.9,0.718l0.016,0.054c0.052,0.122,0.119,0.152,0.187,0.174
	c0.181,0.061,0.399,0.05,0.794,0.06c0.322,0.008,0.811,0.032,1.202,0.338c0.316,0.25,0.492,0.616,0.561,1.078l0.024,0.368
	l0.013,0.083l0.004,0.098c0.015,0.095,0.043,0.109,0.037,0.102c0.012,0.01,0.068,0.049,0.26,0.068
	c0.391,0.038,1.026-0.043,1.595,0.07c0.123,0.025,0.239,0.067,0.347,0.128c0.092,0.053,0.174,0.117,0.243,0.19
	c0.228,0.239,0.308,0.543,0.345,0.781c0.037,0.243,0.039,0.509,0.043,0.723c0.01,0.444,0.043,0.641,0.081,0.732l0.036,0.061
	c0.01,0.007,0.055,0.08,0.865,0.042c0.328-0.015,1.15-0.084,1.605,0.37c0.783,0.784,0.608,1.479,0.26,2.071
	c-0.157,0.269-0.293,0.444-0.414,0.672c-0.055,0.102-0.096,0.199-0.125,0.295L20.269,12.018z M7.695,10.135
	c0.478,0.01,0.991-0.078,1.494-0.303c0.997-0.446,1.624-0.733,1.978-1.179c0.283-0.356,0.431-0.902-0.088-2.062
	c-0.406-0.908-0.908-1.217-1.442-1.285C9.04,5.231,8.295,5.441,7.406,5.839C6.635,6.183,6.065,6.814,5.74,7.478
	C5.404,8.163,5.38,8.772,5.517,9.079C5.757,9.619,6.643,10.113,7.695,10.135z"/>
</svg>
