<?xml version="1.0" encoding="utf-8"?>
<!-- Generator: Adobe Illustrator 15.0.0, SVG Export Plug-In . SVG Version: 6.00 Build 0)  -->
<!DOCTYPE svg PUBLIC "-//W3C//DTD SVG 1.1//EN" "http://www.w3.org/Graphics/SVG/1.1/DTD/svg11.dtd">
<svg version="1.1" id="Layer_1" xmlns="http://www.w3.org/2000/svg" xmlns:xlink="http://www.w3.org/1999/xlink" x="0px" y="0px"
	 width="25px" height="25px" viewBox="0 0 25 25" enable-background="new 0 0 25 25" xml:space="preserve">
<path marker-end="none" marker-start="none" fill="#4C4C4C" d="M12.815,22.294c-0.185,0.004-0.387-0.014-0.604-0.054l-9.392-2.066
	l-0.091-0.029c-0.723-0.294-1.084-0.914-1.078-1.817l0.024-0.354L1.58,11.287l-0.388-0.27c-1.386-1.181-1.599-2.962-0.453-4.435
	c0.468-0.599,1.145-1.127,2.023-1.54l0.124-0.048l0.222-0.111c2.685-1.285,7.256-2.518,10.777-2.771
	c4.102-0.293,7.486,0.76,9.407,2.416c1.849,1.591,2.357,3.819,0.718,5.713l-0.179,0.188l0.086,6.113
	c0.051,1.01-0.256,1.879-1.073,2.355l-0.358,0.17c-2.121,0.901-4.06,1.71-5.622,2.276c-1.322,0.478-2.477,0.829-3.261,0.859
	l-0.34,0.038C13.127,22.273,12.978,22.291,12.815,22.294z M12.773,21.162c0.286,0,0.426-0.093,0.51-0.18
	c0.117-0.121,0.212-0.321,0.281-0.629l0.056-0.313l-0.106-7.534c-0.002-0.338,0.184-0.489,0.447-0.562
	c1.774-0.383,2.371-1.804,1.71-3.243c-0.688-1.503-2.842-3.155-6.938-3.417C6.778,5.16,5.232,5.366,4.061,5.748l-0.7,0.276
	L3.118,6.146C2.959,6.231,2.809,6.315,2.673,6.399L2.667,6.39L2.581,6.437C2.177,6.699,1.864,6.987,1.635,7.28
	c-0.851,1.09-0.629,2.402,0.79,3.219l0.284,0.484l0.098,6.996l-0.003,0.073C2.735,18.646,2.852,18.888,3,19.008l0.13,0.072
	l9.305,2.048C12.566,21.152,12.677,21.162,12.773,21.162z M14.583,20.886l0.34-0.096c0.438-0.126,0.956-0.297,1.555-0.515
	c1.529-0.555,3.442-1.35,5.565-2.254l0.023-0.01c0.491-0.183,0.762-0.572,0.719-1.437l-0.078-5.602l-0.323,0.165
	c-1.344,0.666-2.647,1.25-3.869,1.676c-1.312,0.457-2.569,0.748-3.696,0.742l-0.156-0.011l0.091,6.531l-0.004,0.083L14.583,20.886z
	 M4.528,17.207c-0.256,0-0.466-0.209-0.466-0.466V12.26c0-0.256,0.21-0.466,0.466-0.466c0.255,0,0.465,0.21,0.465,0.466v4.481
	C4.994,16.998,4.784,17.207,4.528,17.207z M15.808,12.34l0.178-0.018c0.656-0.109,1.377-0.308,2.156-0.579
	c1.161-0.405,2.417-0.967,3.736-1.621l1.309-0.668l0.162-0.204c0.935-1.287,0.579-2.683-0.795-3.866
	c-1.632-1.405-4.688-2.42-8.587-2.142c-1.462,0.105-3.108,0.387-4.71,0.769l-0.535,0.14l0.084,0.002
	c4.331,0.276,6.97,2.053,7.896,4.075c0.682,1.485,0.392,3.025-0.731,3.986L15.808,12.34z M3.182,9.523
	C3,9.523,2.829,9.416,2.755,9.237C2.46,8.526,2.72,7.81,3.203,7.3C3.639,6.84,4.302,6.502,4.919,6.56
	c0.256,0.023,0.444,0.25,0.42,0.506C5.316,7.321,5.09,7.509,4.834,7.485C4.579,7.462,4.178,7.622,3.879,7.939
	c-0.144,0.15-0.242,0.316-0.288,0.477C3.547,8.571,3.551,8.725,3.615,8.879c0.098,0.238-0.014,0.511-0.251,0.608
	C3.304,9.513,3.242,9.524,3.182,9.523z"/>
</svg>
