<?xml version="1.0" encoding="utf-8"?>
<!-- Generator: Adobe Illustrator 15.0.0, SVG Export Plug-In . SVG Version: 6.00 Build 0)  -->
<!DOCTYPE svg PUBLIC "-//W3C//DTD SVG 1.1//EN" "http://www.w3.org/Graphics/SVG/1.1/DTD/svg11.dtd">
<svg version="1.1" id="Layer_1" xmlns="http://www.w3.org/2000/svg" xmlns:xlink="http://www.w3.org/1999/xlink" x="0px" y="0px"
	 width="25px" height="25px" viewBox="0 0 25 25" enable-background="new 0 0 25 25" xml:space="preserve">
<path marker-end="none" marker-start="none" fill="#4C4C4C" d="M17.481,24.999c-0.035-0.002-0.074-0.006-0.11-0.016l-0.097-0.047
	H5.691c-0.227,0-0.433-0.139-0.516-0.348l-4.04-10.098c-0.151-0.375,0.135-0.758,0.505-0.762l0.112,0.016L1.71,13.042
	c-0.036-1.573,0.307-2.83,1.109-3.686c0.475-0.508,1.076-0.835,1.78-1.007l0.468-0.087L5.046,8.191
	c-0.426-1.676-0.31-2.91,0.501-3.65c0.547-0.5,1.319-0.668,2.162-0.668l0.242,0.009L7.915,3.535
	C7.897,3.066,8.006,2.608,8.146,2.209c0.279-0.788,0.74-1.501,0.931-1.897c0.241-0.497,0.986-0.373,1.052,0.177
	c0.044,0.366,0.27,0.622,0.617,0.771c0.363,0.157,0.803,0.167,1.128,0.052c2.012-0.716,4.07,0.016,5.454,1.181
	c1.112,0.938,1.927,2.277,1.828,3.539l-0.028,0.21l0.051,0.01c0.526,0.155,0.87,0.649,1.019,1.105
	c0.048,0.146,0.082,0.307,0.098,0.475l-0.004,0.154l0.063-0.011c0.082,0.002,0.163,0.023,0.238,0.062
	c1.861,0.979,3.098,3.083,2.811,5.402l-0.052,0.295l0.136,0.014c0.302,0.078,0.511,0.412,0.379,0.744l-4.039,10.098
	c-0.084,0.209-0.29,0.348-0.517,0.348h-1.565l-0.075,0.039C17.61,24.993,17.547,25.003,17.481,24.999z M6.775,23.825l-1.779-8.006
	l-2.38-0.68l-0.023,0.008l3.473,8.678H6.775z M10.018,23.825l-0.602-8.25l-2.32-1.191l-1.018,1.186l1.833,8.256H10.018z
	 M14.119,23.825l0.497-8.234l-2.209-1.627l-1.883,1.543l0.607,8.318H14.119z M17.088,23.825l2.049-8.148l-1.015-1.244l-2.395,1.184
	l-0.495,8.209H17.088z M18.936,23.825l3.38-8.451l-0.097-0.021l-0.074-0.051l-1.941,0.691l-1.968,7.832H18.936z M19.94,14.905
	l2.173-0.77L22.21,13.8c0.454-1.903-0.4-3.669-1.804-4.584l-0.12-0.071l-0.297,0.117L19.715,9.34l-0.113,0.069
	c-0.068,0.026-0.14,0.036-0.211,0.034L19.37,9.438l-0.542,0.154c-2.849,0.644-6.688,0.421-11.222-0.093
	C7.588,9.498,7.573,9.495,7.558,9.492c-0.5-0.101-0.953-0.158-1.361-0.176L5.786,9.317L5.742,9.322L5.727,9.317l-0.108,0
	c-0.912,0.053-1.559,0.34-1.989,0.797c-0.619,0.66-0.935,1.817-0.767,3.62l0.042,0.332l2.409,0.688l1.225-1.426
	c0.167-0.197,0.446-0.25,0.675-0.135l2.693,1.383l2.13-1.747c0.196-0.161,0.478-0.167,0.683-0.019l2.45,1.809l0.063-0.01
	l0.018,0.004l2.777-1.373c0.231-0.115,0.513-0.055,0.677,0.146L19.94,14.905z M4.553,13.349c-0.179,0.006-0.357-0.074-0.468-0.23
	C3.89,12.847,3.8,12.542,3.777,12.247c-0.024-0.291,0.016-0.582,0.089-0.841c0.075-0.262,0.188-0.509,0.327-0.717
	c0.132-0.202,0.314-0.406,0.543-0.532c0.053-0.027,0.111-0.054,0.173-0.074c0.29-0.096,0.604,0.063,0.7,0.355
	c0.09,0.272-0.044,0.565-0.302,0.68l-0.04,0.015c0,0.001-0.018,0.011-0.049,0.042C5.19,11.205,5.155,11.246,5.12,11.3
	c-0.073,0.109-0.14,0.254-0.185,0.41c-0.044,0.157-0.062,0.312-0.051,0.448c0.01,0.134,0.049,0.236,0.103,0.312
	c0.179,0.248,0.124,0.596-0.126,0.775C4.768,13.312,4.66,13.347,4.553,13.349z M13.964,8.871c1.545,0.03,2.901-0.042,4.069-0.249
	l1.074-0.246l0.037-0.051c0.188-0.403-0.116-1.042-0.352-1.012c-0.035,0.006-0.071,0.007-0.106,0.005
	c-2.854-0.163-6.811-1.729-9.595-2.197L8.975,5.103L8.91,5.116C8.805,5.125,8.696,5.105,8.6,5.054L8.587,5.047L8.57,5.044
	C7.414,4.903,6.673,5.02,6.296,5.363C5.958,5.67,5.733,6.366,6.118,7.893L6.209,8.21l0.138,0.002
	c0.212,0.012,0.429,0.032,0.651,0.061l0.735,0.123L8.769,8.51C10.687,8.71,12.419,8.842,13.964,8.871z M18.016,6.135l0.008-0.034
	c0.136-0.788-0.36-1.874-1.412-2.759c-1.177-0.992-2.83-1.531-4.365-0.984c-0.598,0.213-1.328,0.185-1.939-0.078
	c-0.236-0.101-0.462-0.242-0.655-0.422l-0.09-0.095L9.402,2.08c-0.076,0.162-0.147,0.329-0.207,0.5
	c-0.18,0.507-0.227,0.939-0.098,1.297l0.061,0.131l0.119,0.018c2.555,0.431,5.824,1.661,8.41,2.066L18.016,6.135z"/>
</svg>
