<?xml version="1.0" encoding="utf-8"?>
<!-- Generator: Adobe Illustrator 15.0.0, SVG Export Plug-In . SVG Version: 6.00 Build 0)  -->
<!DOCTYPE svg PUBLIC "-//W3C//DTD SVG 1.1//EN" "http://www.w3.org/Graphics/SVG/1.1/DTD/svg11.dtd">
<svg version="1.1" id="Layer_1" xmlns="http://www.w3.org/2000/svg" xmlns:xlink="http://www.w3.org/1999/xlink" x="0px" y="0px"
	 width="25px" height="25px" viewBox="0 0 25 25" enable-background="new 0 0 25 25" xml:space="preserve">
<g id="Group_1">
	<path marker-end="none" marker-start="none" fill="#4C4C4C" d="M3.808,25c-0.374-0.006-0.751-0.129-1.004-0.299
		c-0.265-0.18-0.733-0.645-0.789-0.992c-0.041-0.25,0-0.521,0.144-0.791c0-0.002,0.003-0.006,0.005-0.008l0.149-0.23l4.387-6.244
		l-1.15-0.799c-1.34-0.932-1.614-2.799-0.667-4.161l7.59-10.159c0.935-1.345,2.78-1.74,4.122-0.81l4.507,3.133
		c1.343,0.932,1.615,2.799,0.68,4.147l-7.009,10.564c-0.59,0.852-1.533,1.324-2.482,1.33c-0.572,0.006-1.146-0.158-1.649-0.51
		l-1.324-0.916l-4.456,6.287l-0.019,0.023c0,0.002-0.001,0.006-0.002,0.006C4.577,24.893,4.184,25.006,3.808,25z M3.84,24
		l0.082-0.008l0.107-0.09l4.425-6.248L7.56,17.033l-4.389,6.248c0,0.002-0.003,0.004-0.003,0.006l-0.018,0.02
		c-0.137,0.172,0.096,0.426,0.238,0.523C3.471,23.885,3.689,23.984,3.84,24z M12.279,18.627c0.611,0,1.229-0.301,1.619-0.867
		l1.793-2.701l-0.078-0.045c-0.006-0.002-0.009-0.004-0.01-0.006c-0.182-0.127-0.32-0.293-0.423-0.477
		c-0.18-0.32-0.253-0.713-0.313-0.967c-0.07-0.305-0.126-0.479-0.211-0.588c-0.055-0.068-0.152-0.159-0.457-0.166
		c-0.232-0.002-0.467,0.126-0.992,0.347c-0.391,0.164-1.037,0.4-1.641-0.018c-0.328-0.229-0.485-0.527-0.545-0.835
		c-0.054-0.273-0.027-0.554-0.012-0.736c0.015-0.218,0.018-0.33-0.001-0.409c-0.011-0.04-0.022-0.07-0.101-0.115
		c-0.086-0.045-0.168-0.07-0.771,0.198c-0.188,0.084-0.468,0.209-0.762,0.219c-0.357,0.016-0.687-0.126-0.935-0.46
		c-0.325-0.434-0.272-1.005-0.336-1.454C8.076,9.365,8.039,9.296,8.016,9.268L7.886,9.213l-2.152,2.878
		c-0.627,0.903-0.415,2.102,0.416,2.68l5.09,3.535C11.553,18.523,11.915,18.629,12.279,18.627z M16.28,14.17l4.625-6.975
		c0.636-0.913,0.424-2.115-0.408-2.691l-4.504-3.13c-0.831-0.579-2.028-0.358-2.668,0.56L8.531,8.353l0.068,0.034
		C8.601,8.388,8.604,8.39,8.607,8.394C8.951,8.64,9.093,9.031,9.146,9.398c0.039,0.257,0.049,0.47,0.061,0.632l0.078,0.341
		l0.043,0.041l0.134-0.032c0.061-0.019,0.139-0.051,0.246-0.1c0.174-0.078,0.439-0.207,0.705-0.271
		c0.289-0.069,0.643-0.082,0.995,0.109c0.351,0.19,0.545,0.472,0.624,0.787c0.068,0.273,0.042,0.558,0.027,0.746
		c-0.018,0.221-0.023,0.347-0.003,0.452c0.014,0.07,0.037,0.117,0.111,0.17c0.097,0.066,0.229,0.082,0.634-0.086
		c0.519-0.219,0.918-0.438,1.418-0.428c0.566,0.011,0.986,0.208,1.266,0.571c0.252,0.319,0.346,0.717,0.41,0.998
		c0.076,0.328,0.117,0.533,0.206,0.687l0.109,0.128L16.28,14.17z M13.688,3.812l-0.084-0.01c-0.006,0-0.01-0.002-0.011-0.003
		c-0.284-0.061-0.464-0.341-0.401-0.627c0.08-0.367,0.28-0.657,0.536-0.867c0.251-0.206,0.55-0.331,0.845-0.391
		c0.564-0.119,1.25-0.028,1.702,0.348c0.222,0.187,0.252,0.52,0.064,0.744c-0.187,0.222-0.52,0.25-0.741,0.064
		c-0.139-0.115-0.463-0.196-0.811-0.125C14.625,2.98,14.49,3.04,14.396,3.12c-0.092,0.072-0.149,0.163-0.177,0.278
		c-0.053,0.249-0.275,0.416-0.525,0.414H13.688z"/>
</g>
</svg>
