<?xml version="1.0" encoding="utf-8"?>
<!-- Generator: Adobe Illustrator 15.0.0, SVG Export Plug-In . SVG Version: 6.00 Build 0)  -->
<!DOCTYPE svg PUBLIC "-//W3C//DTD SVG 1.1//EN" "http://www.w3.org/Graphics/SVG/1.1/DTD/svg11.dtd">
<svg version="1.1" id="Layer_1" xmlns="http://www.w3.org/2000/svg" xmlns:xlink="http://www.w3.org/1999/xlink" x="0px" y="0px"
	 width="250px" height="250px" viewBox="0 0 250 250" enable-background="new 0 0 250 250" xml:space="preserve">
<g>
	<g>
		<path fill="#E54750" d="M197.885,170.123c-0.097,2.238-0.311,4.438-0.599,6.621h-12.238
			c-6.991-13.396-17.879-23.883-30.928-29.479v-39.075C178.385,116.146,196.396,140.624,197.885,170.123z"/>
	</g>
	<g>
		<path fill="#E54750" d="M95.876,108.192v39.076c-13.05,5.598-23.938,16.08-30.927,29.479H52.71
			c-0.271-2.123-0.483-4.268-0.599-6.447C53.54,140.721,71.571,116.146,95.876,108.192z"/>
	</g>
	<polygon fill="#E6E9EE" points="134.984,176.748 115.014,176.748 107.366,141.48 142.631,141.48 	"/>
	<path fill="#FFFFFF" d="M100.438,176.748c3.845-16.637,14.979-28.271,24.557-28.271c9.573,0,20.724,11.638,24.586,28.271h6.88
		c17.438-59.103,6.982-127.908-31.466-175.326C98.568,34.029,85.348,76.753,85.348,119.494c0,19.396,2.76,38.799,8.204,57.254
		H100.438L100.438,176.748z"/>
	<g>
		<path fill="#E54750" d="M138.29,28.21h-26.584c3.978-6.659,8.397-13.05,13.28-19.074C129.893,15.16,134.312,21.551,138.29,28.21z"
			/>
	</g>
	<g>
		<path fill="#84DBFF" d="M141.898,85.083c-1.371,8.089-8.418,14.249-16.913,14.249c-8.493,0-15.539-6.159-16.909-14.249
			c1.37-8.088,8.416-14.266,16.909-14.266C133.48,70.817,140.527,76.995,141.898,85.083z"/>
	</g>
	<g>
		<path fill="#231F20" d="M124.986,100.779c-9.107,0-16.819-6.5-18.338-15.454c-0.178-0.975-0.271-2.038-0.271-3.139
			c0-10.259,8.349-18.609,18.608-18.609c10.264,0,18.611,8.35,18.611,18.609c0,1.101-0.093,2.165-0.273,3.158
			C141.811,94.278,134.096,100.779,124.986,100.779z M124.986,66.473c-8.663,0-15.713,7.049-15.713,15.713
			c0,0.941,0.074,1.803,0.228,2.636c1.284,7.577,7.796,13.062,15.485,13.062c7.694,0,14.204-5.485,15.487-13.042
			c0.151-0.852,0.229-1.713,0.229-2.655C140.702,73.522,133.65,66.473,124.986,66.473z"/>
	</g>
	<g>
		<g>
			<path fill="#231F20" d="M192.607,80.984c-0.371,0-0.738-0.14-1.021-0.424c-0.566-0.564-0.566-1.482,0-2.046l2.482-2.485
				c0.564-0.565,1.481-0.565,2.049,0c0.566,0.566,0.566,1.482,0,2.048l-2.484,2.483C193.352,80.844,192.979,80.984,192.607,80.984z"
				/>
		</g>
		<g>
			<path fill="#231F20" d="M184.833,88.762c-0.371,0-0.744-0.144-1.024-0.426c-0.565-0.565-0.565-1.482,0-2.047l2.483-2.482
				c0.563-0.566,1.481-0.566,2.047,0c0.565,0.565,0.565,1.481,0,2.047l-2.485,2.483C185.57,88.619,185.201,88.762,184.833,88.762z"
				/>
		</g>
		<g>
			<path fill="#231F20" d="M195.092,88.762c-0.369,0-0.738-0.142-1.021-0.424l-2.482-2.485c-0.564-0.565-0.564-1.482,0-2.047
				c0.564-0.566,1.48-0.566,2.047,0l2.484,2.485c0.564,0.565,0.564,1.481,0,2.047C195.835,88.621,195.463,88.762,195.092,88.762z"/>
		</g>
		<g>
			<path fill="#231F20" d="M187.314,80.984c-0.371,0-0.741-0.14-1.022-0.424l-2.483-2.483c-0.565-0.566-0.565-1.484,0-2.048
				c0.563-0.565,1.48-0.565,2.045,0l2.485,2.485c0.565,0.564,0.565,1.482,0,2.046C188.057,80.844,187.688,80.984,187.314,80.984z"/>
		</g>
	</g>
	<g>
		<g>
			<path fill="#231F20" d="M227.65,18.744c-0.369,0-0.74-0.14-1.022-0.422c-0.563-0.565-0.563-1.482,0-2.049l2.483-2.485
				c0.563-0.563,1.479-0.563,2.047,0c0.566,0.566,0.566,1.484,0,2.05l-2.482,2.484C228.393,18.604,228.021,18.744,227.65,18.744z"/>
		</g>
		<g>
			<path fill="#231F20" d="M219.874,26.521c-0.372,0-0.742-0.141-1.022-0.424c-0.564-0.565-0.564-1.482,0-2.047l2.482-2.483
				c0.566-0.565,1.482-0.565,2.049,0c0.564,0.565,0.564,1.484,0,2.047l-2.484,2.483C220.613,26.379,220.245,26.521,219.874,26.521z"
				/>
		</g>
		<g>
			<path fill="#231F20" d="M230.137,26.522c-0.371,0-0.742-0.141-1.025-0.424l-2.481-2.485c-0.563-0.565-0.563-1.484,0-2.047
				c0.563-0.565,1.481-0.565,2.048,0l2.482,2.485c0.564,0.565,0.564,1.482,0,2.047C230.875,26.381,230.504,26.522,230.137,26.522z"
				/>
		</g>
		<g>
			<path fill="#231F20" d="M222.357,18.744c-0.371,0-0.74-0.14-1.023-0.422l-2.482-2.484c-0.564-0.566-0.564-1.482,0-2.05
				c0.563-0.563,1.48-0.563,2.047,0l2.484,2.485c0.565,0.567,0.565,1.482,0,2.049C223.1,18.604,222.729,18.744,222.357,18.744z"/>
		</g>
	</g>
	<g>
		<circle fill="#FFD05B" cx="191.432" cy="52.757" r="3.661"/>
	</g>
	<g>
		<circle fill="#4CDBC4" cx="223.764" cy="116.118" r="6.561"/>
	</g>
	<g>
		<circle fill="#4CDBC4" cx="22.213" cy="129.239" r="6.561"/>
	</g>
	<g>
		<g>
			<g>
				<path fill="#231F20" d="M29.991,44.206c-0.371,0-0.741-0.141-1.024-0.424c-0.565-0.565-0.565-1.482,0-2.047l2.484-2.483
					c0.566-0.567,1.482-0.567,2.047,0c0.565,0.566,0.565,1.482,0,2.045l-2.483,2.485C30.732,44.065,30.361,44.206,29.991,44.206z"/>
			</g>
			<g>
				<path fill="#231F20" d="M22.214,51.985c-0.371,0-0.741-0.144-1.023-0.426c-0.565-0.564-0.565-1.482,0-2.047l2.484-2.483
					c0.565-0.568,1.481-0.568,2.047,0c0.565,0.564,0.565,1.48,0,2.046l-2.484,2.484C22.955,51.841,22.584,51.985,22.214,51.985z"/>
			</g>
			<g>
				<path fill="#231F20" d="M32.475,51.985c-0.371,0-0.741-0.144-1.024-0.426l-2.484-2.484c-0.565-0.566-0.565-1.482,0-2.046
					c0.565-0.568,1.482-0.568,2.048,0l2.483,2.483c0.565,0.565,0.565,1.483,0,2.047C33.215,51.841,32.845,51.985,32.475,51.985z"/>
			</g>
			<g>
				<path fill="#231F20" d="M24.698,44.206c-0.371,0-0.741-0.141-1.023-0.424l-2.485-2.485c-0.565-0.563-0.565-1.479,0-2.045
					c0.565-0.567,1.481-0.567,2.047,0l2.485,2.483c0.565,0.563,0.565,1.482,0,2.047C25.439,44.065,25.068,44.206,24.698,44.206z"/>
			</g>
		</g>
		<g>
			<circle fill="#84DBFF" cx="64.053" cy="29.252" r="5.511"/>
		</g>
	</g>
	<g>
		<circle fill="#FFD05B" cx="32.622" cy="83.806" r="5.278"/>
	</g>
	<g>
		<path fill="#231F20" d="M231.786,195.508c-7.972,0-14.853,5.057-17.28,12.494c-1.921-0.706-3.908-1.061-5.931-1.061
			c-9.196,0-16.755,7.147-17.409,16.181c-0.76-0.114-1.509-0.171-2.264-0.171c-8.62,0-15.635,7.014-15.635,15.633
			c0,0,0,0.004,0,0.006c0,4.684-3.812,8.491-8.492,8.491c-4.686,0-8.493-3.81-8.493-8.491c0-4.712-3.831-8.542-8.541-8.542
			c-2.4,0-4.567,1.004-6.121,2.604l-5.175-55.82l3.75-17.296c3.414,4.479,6.312,10.396,7.973,17.539
			c0.15,0.655,0.734,1.118,1.411,1.118h6.88c0.643,0,1.207-0.42,1.389-1.035c2.246-7.615,4.021-15.355,5.336-23.161
			c8.402,5.75,15.545,13.765,20.578,23.417c0.252,0.479,0.746,0.779,1.286,0.779h12.238c0.726,0,1.338-0.537,1.437-1.258
			c0.314-2.394,0.517-4.601,0.607-6.723c0.079-1.27,0.117-2.553,0.117-3.837c0-26.507-13.567-50.526-34.041-62.337
			c-2.917-38.434-16.432-75.341-39.288-103.53c-0.552-0.679-1.701-0.679-2.25,0c-22.8,28.135-36.519,64.453-39.386,103.557
			c-20.41,11.83-33.916,35.841-33.916,62.31c0,1.334,0.04,2.67,0.098,3.996c0.109,2.055,0.309,4.196,0.608,6.553
			c0.093,0.724,0.708,1.269,1.437,1.269h12.24c0.539,0,1.034-0.301,1.283-0.779c5.036-9.654,12.186-17.65,20.595-23.398
			c1.332,7.825,3.096,15.555,5.334,23.145c0.182,0.615,0.747,1.035,1.388,1.035h6.886c0.674,0,1.26-0.465,1.412-1.122
			c1.65-7.142,4.543-13.056,7.95-17.533l3.751,17.298l-5.174,55.812c-1.553-1.599-3.717-2.602-6.117-2.602
			c-4.71,0-8.542,3.83-8.542,8.542c0,4.683-3.809,8.491-8.491,8.491c-4.684,0-8.492-3.809-8.492-8.491
			c0-0.004-0.002-0.007-0.002-0.012c-0.004-8.617-7.016-15.627-15.633-15.627c-0.755,0-1.503,0.057-2.263,0.171
			c-0.656-9.031-8.215-16.18-17.411-16.18c-2.021,0-4.009,0.354-5.93,1.06c-2.428-7.438-9.308-12.494-17.28-12.494
			C8.171,195.508,0,203.68,0,213.723c0,0.799,0.649,1.447,1.448,1.447c0.799,0,1.448-0.648,1.448-1.447
			c0-8.445,6.872-15.318,15.318-15.318c7.006,0,12.995,4.65,14.77,11.369c-0.009,0.002-0.016,0.004-0.025,0.006
			c0.167,0.604,0.299,1.221,0.397,1.844c-2.408-0.971-5.164-1.23-8.013-0.479c-0.772,0.207-1.233,0.998-1.028,1.771
			c0.207,0.771,0.998,1.235,1.771,1.028c6.562-1.745,12.351,3.207,12.351,9.445c0,0.801,0.649,1.448,1.448,1.448
			c0.8,0,1.448-0.647,1.448-1.448c0-4.074-1.941-7.707-4.932-10.033c-0.018-0.84-0.1-1.672-0.237-2.49
			c1.706-0.67,3.469-1.027,5.262-1.027c8.029,0,14.562,6.53,14.562,14.562c0,0.026-0.004,0.054-0.005,0.08
			c-0.007,1.396-0.256,2.785-0.676,4.153c-2.684-1.454-5.933-1.979-9.316-1.09c-0.773,0.204-1.235,0.997-1.03,1.771
			c0.206,0.774,1.003,1.234,1.77,1.033c6.598-1.75,12.353,3.209,12.353,9.444c0,0.801,0.648,1.448,1.448,1.448
			c0.799,0,1.448-0.647,1.448-1.448c0-3.729-1.631-7.078-4.199-9.403c0.031-0.062,0.073-0.111,0.095-0.179
			c0.477-1.353,0.779-2.729,0.917-4.117c8.102-1.517,15.044,4.703,15.044,12.491c0,0.006,0.002,0.007,0.002,0.011
			c0.004,6.277,5.111,11.384,11.388,11.384c6.279,0,11.389-5.108,11.389-11.389c0-3.113,2.533-5.646,5.646-5.646
			c3.112,0,5.646,2.531,5.646,5.646c0,0.801,0.647,1.448,1.448,1.448c0.711,0,1.277-0.524,1.396-1.204
			c0.012-0.045,0.04-0.062,0.045-0.114l5.539-60.524h17.329l5.539,60.524c0.007,0.078,0.045,0.128,0.063,0.192
			c0.147,0.64,0.696,1.126,1.383,1.126c0.798,0,1.447-0.647,1.447-1.448c0-3.113,2.53-5.646,5.646-5.646
			c3.114,0,5.646,2.531,5.646,5.646c0,6.278,5.108,11.389,11.389,11.389c6.279,0,11.39-5.108,11.39-11.389c0-0.002,0-0.004,0-0.004
			c0-7.79,6.958-14.004,15.045-12.493c0.142,1.39,0.44,2.769,0.918,4.117c0.022,0.063,0.065,0.117,0.099,0.179
			c-2.568,2.325-4.201,5.676-4.201,9.403c0,0.801,0.647,1.448,1.447,1.448c0.801,0,1.447-0.647,1.447-1.448
			c0-6.235,5.78-11.188,12.354-9.444c0.775,0.202,1.567-0.259,1.771-1.033c0.202-0.771-0.257-1.563-1.029-1.771
			c-3.385-0.892-6.634-0.367-9.315,1.09c-0.419-1.368-0.669-2.76-0.677-4.153c-0.002-0.026-0.006-0.054-0.006-0.08
			c0-8.03,6.532-14.562,14.562-14.562c1.791,0,3.553,0.355,5.254,1.023c-0.134,0.82-0.212,1.65-0.229,2.488
			c-2.992,2.328-4.931,5.965-4.931,10.039c0,0.801,0.647,1.448,1.448,1.448c0.8,0,1.449-0.647,1.449-1.448
			c0-6.236,5.785-11.191,12.347-9.445c0.778,0.207,1.569-0.258,1.772-1.028c0.203-0.772-0.256-1.563-1.028-1.771
			c-2.854-0.759-5.617-0.492-8.026,0.479c0.077-0.532,0.18-1.059,0.312-1.575c1.68-6.866,7.742-11.646,14.844-11.646
			c8.447,0,15.318,6.871,15.318,15.318c0,0.799,0.646,1.447,1.447,1.447c0.799,0,1.446-0.648,1.446-1.447
			C250,203.678,241.83,195.508,231.786,195.508z M165.652,107.606c18.641,11.625,30.897,34.042,30.897,58.771
			c0,1.225-0.036,2.448-0.112,3.684c-0.074,1.686-0.215,3.406-0.431,5.236h-10.091c-5.46-10.163-13.189-18.516-22.257-24.417
			C165.85,136.521,166.497,121.974,165.652,107.606z M124.993,3.737c5.668,7.16,10.729,14.876,15.174,23.025h-30.385
			C114.253,18.628,119.312,10.909,124.993,3.737z M64.078,175.297H53.994c-0.207-1.796-0.35-3.465-0.436-5.064
			c-0.056-1.271-0.094-2.562-0.094-3.854c0-24.708,12.209-47.15,30.812-58.789c-0.224,3.948-0.375,7.91-0.375,11.907
			c0,10.564,0.828,21.047,2.42,31.37C77.259,156.771,69.535,165.139,64.078,175.297z M99.298,175.298h-4.661
			c-5.205-18.002-7.842-36.769-7.842-55.802c0-32.366,7.482-63.305,21.412-89.838h33.492c22.264,42.714,27.811,96.715,13.676,145.64
			h-4.657c-4.071-15.94-15.218-28.271-25.724-28.271C114.486,147.027,103.355,159.355,99.298,175.298z M116.18,175.298
			l-4.021-18.553c4.164-4.41,8.809-6.821,12.836-6.821c4.026,0,8.675,2.414,12.845,6.823l-4.021,18.551H116.18z"/>
		<path fill="#231F20" d="M234.749,217.286c-3.627,0-6.579,2.948-6.579,6.575c0,0.802,0.648,1.449,1.448,1.449
			c0.801,0,1.446-0.647,1.446-1.449c0-2.028,1.652-3.682,3.685-3.682c2.028,0,3.683,1.651,3.683,3.682
			c0,0.802,0.646,1.449,1.446,1.449s1.447-0.647,1.447-1.449C241.325,220.234,238.375,217.286,234.749,217.286z"/>
		<path fill="#231F20" d="M216.65,232.9c-4.4,0-7.981,3.582-7.981,7.983c0,0.798,0.647,1.448,1.448,1.448
			c0.8,0,1.449-0.65,1.449-1.448c0-2.808,2.279-5.089,5.084-5.089c2.807,0,5.088,2.281,5.088,5.089c0,0.798,0.65,1.448,1.449,1.448
			c0.801,0,1.445-0.65,1.445-1.448C224.635,236.482,221.055,232.9,216.65,232.9z"/>
		<path fill="#231F20" d="M15.251,217.286c-3.626,0-6.577,2.948-6.577,6.575c0,0.802,0.648,1.449,1.448,1.449
			c0.799,0,1.448-0.647,1.448-1.449c0-2.028,1.652-3.682,3.682-3.682c2.031,0,3.682,1.651,3.682,3.682
			c0,0.802,0.648,1.449,1.448,1.449c0.8,0,1.448-0.647,1.448-1.449C21.829,220.234,18.879,217.286,15.251,217.286z"/>
		<path fill="#231F20" d="M33.349,232.9c-4.402,0-7.983,3.582-7.983,7.983c0,0.798,0.648,1.448,1.447,1.448
			c0.8,0,1.449-0.65,1.449-1.448c0-2.808,2.282-5.089,5.087-5.089c2.805,0,5.087,2.281,5.087,5.089c0,0.798,0.649,1.448,1.448,1.448
			c0.8,0,1.448-0.65,1.448-1.448C41.331,236.482,37.75,232.9,33.349,232.9z"/>
	</g>
</g>
</svg>
