<?xml version="1.0" encoding="utf-8"?>
<!-- Generator: Adobe Illustrator 15.0.0, SVG Export Plug-In . SVG Version: 6.00 Build 0)  -->
<!DOCTYPE svg PUBLIC "-//W3C//DTD SVG 1.1//EN" "http://www.w3.org/Graphics/SVG/1.1/DTD/svg11.dtd">
<svg version="1.1" id="Layer_1" xmlns="http://www.w3.org/2000/svg" xmlns:xlink="http://www.w3.org/1999/xlink" x="0px" y="0px"
	 width="130px" height="38px" viewBox="0 0 130 38" enable-background="new 0 0 130 38" xml:space="preserve">
<g>
	<path fill="#1C1916" d="M130,33.443c0,2.068-1.661,3.695-3.732,3.695H3.644C1.573,37.138,0,35.559,0,33.491V3.641
		C0,1.573,1.573,0,3.644,0h122.624c2.071,0,3.715,1.573,3.715,3.641v29.85L130,33.443z"/>
</g>
<g>
	<defs>
		<path id="SVGID_1_" d="M14.284,8.066v11.498v11.731c0,0.278,0.123,0.468,0.314,0.532l12.367-12.263L14.702,7.404
			C14.455,7.473,14.284,7.696,14.284,8.066"/>
	</defs>
	<clipPath id="SVGID_2_">
		<use xlink:href="#SVGID_1_"  overflow="visible"/>
	</clipPath>
	
		<linearGradient id="SVGID_3_" gradientUnits="userSpaceOnUse" x1="-953.3237" y1="3171.4224" x2="-953.1588" y2="3171.4224" gradientTransform="matrix(0 152.4785 152.4785 0 -483553.1562 145368.3594)">
		<stop  offset="0" style="stop-color:#207AB0"/>
		<stop  offset="0.3206" style="stop-color:#4A98B5"/>
		<stop  offset="0.7782" style="stop-color:#81C0BB"/>
		<stop  offset="1" style="stop-color:#97CFBE"/>
	</linearGradient>
	<rect x="14.284" y="7.404" clip-path="url(#SVGID_2_)" fill="url(#SVGID_3_)" width="12.682" height="24.423"/>
</g>
<g>
	<defs>
		<path id="SVGID_4_" d="M14.702,7.404l12.264,12.161l3.406-3.378l-5.12-2.956c0,0-0.009-0.005-0.026-0.015l-0.001,0
			c-0.004-0.002-0.008-0.005-0.014-0.008l-0.001-0.001c-0.004-0.002-0.008-0.004-0.012-0.006l-0.002-0.001c0,0-0.001,0-0.002-0.001
			l-0.003-0.002c0,0-0.001-0.001-0.002-0.001l-0.003-0.002c0,0,0,0-0.001,0l-0.003-0.002c-0.001,0-0.002-0.001-0.003-0.001
			l-9.83-5.675c-0.163-0.089-0.325-0.132-0.471-0.132C14.816,7.381,14.757,7.389,14.702,7.404"/>
	</defs>
	<clipPath id="SVGID_5_">
		<use xlink:href="#SVGID_4_"  overflow="visible"/>
	</clipPath>
	
		<linearGradient id="SVGID_6_" gradientUnits="userSpaceOnUse" x1="-934.0669" y1="3191.1899" x2="-933.902" y2="3191.1899" gradientTransform="matrix(97.541 0 0 -97.541 91124.125 311285.2812)">
		<stop  offset="0" style="stop-color:#59BBAA"/>
		<stop  offset="1" style="stop-color:#E6E89A"/>
	</linearGradient>
	<rect x="14.702" y="7.381" clip-path="url(#SVGID_5_)" fill="url(#SVGID_6_)" width="15.67" height="12.184"/>
</g>
<g>
	<defs>
		<path id="SVGID_7_" d="M14.599,31.827c0.145,0.048,0.329,0.026,0.529-0.084l1.432-0.827c2.789-1.611,8.693-5.02,8.693-5.02
			l2.56-1.477l2.56-1.478l-3.406-3.377L14.599,31.827z"/>
	</defs>
	<clipPath id="SVGID_8_">
		<use xlink:href="#SVGID_7_"  overflow="visible"/>
	</clipPath>
	
		<linearGradient id="SVGID_9_" gradientUnits="userSpaceOnUse" x1="-968.2729" y1="3174.2075" x2="-968.1077" y2="3174.2075" gradientTransform="matrix(0 76.793 76.793 0 -243734.4219 74376.1016)">
		<stop  offset="0" style="stop-color:#E43432"/>
		<stop  offset="0.1636" style="stop-color:#D43643"/>
		<stop  offset="0.7271" style="stop-color:#A23E7A"/>
		<stop  offset="1" style="stop-color:#8E4190"/>
	</linearGradient>
	<rect x="14.599" y="19.564" clip-path="url(#SVGID_8_)" fill="url(#SVGID_9_)" width="15.773" height="12.311"/>
</g>
<g>
	<defs>
		<path id="SVGID_10_" d="M26.966,19.564l3.406,3.377l3.744-2.162c0.566-0.327,1.016-0.586,1.176-0.679
			c0.558-0.322,0.525-0.761,0.081-1.026l-0.031-0.018c-0.005-0.003-0.01-0.006-0.015-0.008c-0.455-0.245-4.387-2.531-4.9-2.829
			l-0.055-0.032L26.966,19.564z"/>
	</defs>
	<clipPath id="SVGID_11_">
		<use xlink:href="#SVGID_10_"  overflow="visible"/>
	</clipPath>
	
		<linearGradient id="SVGID_12_" gradientUnits="userSpaceOnUse" x1="-993.4688" y1="3178.0728" x2="-993.3037" y2="3178.0728" gradientTransform="matrix(0 40.9551 40.9551 0 -130126.8438 40703.8203)">
		<stop  offset="0" style="stop-color:#F08779"/>
		<stop  offset="0.6326" style="stop-color:#F8B474"/>
		<stop  offset="1" style="stop-color:#FCCA72"/>
	</linearGradient>
	<rect x="26.966" y="16.187" clip-path="url(#SVGID_11_)" fill="url(#SVGID_12_)" width="8.885" height="6.755"/>
</g>
<path fill="#FAFAFA" d="M94.125,24.48c-0.476,0-0.911-0.088-1.304-0.263c-0.394-0.176-0.725-0.446-0.992-0.811h-0.08
	c0.054,0.427,0.08,0.832,0.08,1.214v3.01h-1.107V17.033h0.9l0.153,1h0.053c0.285-0.4,0.617-0.689,0.995-0.867
	c0.378-0.178,0.812-0.267,1.301-0.267c0.97,0,1.719,0.332,2.246,0.995c0.527,0.663,0.791,1.593,0.791,2.79
	c0,1.201-0.268,2.134-0.804,2.8C95.821,24.148,95.077,24.48,94.125,24.48 M93.964,17.841c-0.748,0-1.288,0.207-1.622,0.62
	c-0.333,0.414-0.505,1.073-0.514,1.976v0.247c0,1.028,0.171,1.763,0.514,2.206c0.343,0.443,0.892,0.664,1.648,0.664
	c0.632,0,1.127-0.255,1.486-0.767c0.358-0.511,0.537-1.216,0.537-2.116c0-0.912-0.179-1.612-0.537-2.099
	C95.118,18.084,94.614,17.841,93.964,17.841"/>
<rect x="98.618" y="13.963" fill="#FAFAFA" width="1.108" height="10.384"/>
<path fill="#FAFAFA" d="M106.095,24.347l-0.22-1.042h-0.053c-0.365,0.459-0.729,0.77-1.091,0.931
	c-0.363,0.163-0.815,0.244-1.358,0.244c-0.725,0-1.293-0.187-1.705-0.561c-0.412-0.374-0.617-0.905-0.617-1.595
	c0-1.477,1.181-2.251,3.543-2.322l1.242-0.041v-0.454c0-0.574-0.124-0.998-0.371-1.271c-0.247-0.274-0.642-0.41-1.184-0.41
	c-0.61,0-1.3,0.187-2.069,0.561l-0.34-0.848c0.36-0.196,0.755-0.35,1.184-0.461c0.43-0.111,0.86-0.167,1.292-0.167
	c0.872,0,1.518,0.193,1.939,0.58c0.42,0.387,0.63,1.008,0.63,1.862v4.992H106.095z M103.592,23.566c0.69,0,1.231-0.189,1.625-0.567
	c0.394-0.378,0.591-0.908,0.591-1.589V20.75l-1.108,0.046c-0.881,0.032-1.516,0.168-1.905,0.411
	c-0.389,0.242-0.583,0.62-0.583,1.131c0,0.4,0.121,0.705,0.363,0.914C102.817,23.462,103.156,23.566,103.592,23.566"/>
<path fill="#FAFAFA" d="M107.559,17.033h1.188l1.602,4.17c0.352,0.953,0.57,1.64,0.655,2.063h0.053
	c0.058-0.228,0.18-0.615,0.364-1.166c0.185-0.549,0.789-2.238,1.812-5.068h1.188l-3.144,8.328c-0.311,0.823-0.675,1.407-1.091,1.752
	c-0.416,0.344-0.926,0.517-1.531,0.517c-0.339,0-0.672-0.038-1.002-0.113V26.63c0.245,0.053,0.519,0.08,0.821,0.08
	c0.761,0,1.303-0.427,1.628-1.282l0.407-1.041L107.559,17.033z"/>
<path fill="#FAFAFA" d="M73.604,17.712c0.352,0.291,1.086,0.903,1.086,2.066c0,1.131-0.643,1.668-1.285,2.172
	c-0.199,0.198-0.428,0.414-0.428,0.75c0,0.335,0.229,0.52,0.398,0.657l0.551,0.428c0.673,0.566,1.284,1.086,1.284,2.143
	c0,1.438-1.392,2.891-4.023,2.891c-2.219,0-3.289-1.055-3.289-2.188c0-0.55,0.274-1.33,1.178-1.866
	c0.948-0.582,2.233-0.657,2.921-0.704c-0.214-0.275-0.459-0.565-0.459-1.039c0-0.26,0.077-0.413,0.153-0.597
	c-0.168,0.015-0.336,0.03-0.49,0.03c-1.621,0-2.539-1.208-2.539-2.401c0-0.704,0.322-1.484,0.979-2.05
	c0.872-0.719,1.912-0.841,2.739-0.841h3.151l-0.979,0.55H73.604z M72.517,24.505c-0.122-0.016-0.199-0.016-0.351-0.016
	c-0.138,0-0.965,0.031-1.606,0.246c-0.337,0.121-1.316,0.488-1.316,1.575c0,1.085,1.056,1.867,2.693,1.867
	c1.468,0,2.249-0.705,2.249-1.653C74.186,25.743,73.68,25.332,72.517,24.505 M72.961,21.599c0.351-0.353,0.381-0.842,0.381-1.117
	c0-1.101-0.658-2.815-1.927-2.815c-0.398,0-0.826,0.199-1.071,0.505c-0.26,0.321-0.336,0.734-0.336,1.132
	c0,1.025,0.596,2.723,1.913,2.723C72.303,22.027,72.715,21.843,72.961,21.599"/>
<path fill="#FAFAFA" d="M63.973,24.261c-2.428,0-3.726-1.895-3.726-3.605c0-2.001,1.634-3.711,3.956-3.711
	c2.244,0,3.649,1.756,3.649,3.604C67.852,22.351,66.463,24.261,63.973,24.261 M65.882,23.023c0.367-0.489,0.458-1.1,0.458-1.696
	c0-1.344-0.641-3.91-2.536-3.91c-0.504,0-1.007,0.199-1.374,0.52c-0.596,0.534-0.703,1.207-0.703,1.864c0,1.511,0.749,4,2.597,4
	C64.92,23.801,65.531,23.512,65.882,23.023"/>
<path fill="#FAFAFA" d="M55.694,24.261c-2.429,0-3.727-1.895-3.727-3.605c0-2.001,1.635-3.711,3.957-3.711
	c2.245,0,3.65,1.756,3.65,3.604C59.574,22.351,58.184,24.261,55.694,24.261 M57.604,23.023c0.367-0.489,0.458-1.1,0.458-1.696
	c0-1.344-0.642-3.91-2.536-3.91c-0.503,0-1.008,0.199-1.375,0.52c-0.596,0.534-0.703,1.207-0.703,1.864c0,1.511,0.749,4,2.597,4
	C56.642,23.801,57.252,23.512,57.604,23.023"/>
<path fill="#FAFAFA" d="M50.801,24.021l-2.196,0.507c-0.891,0.139-1.689,0.26-2.533,0.26c-4.238,0-5.851-3.117-5.851-5.559
	c0-2.979,2.288-5.742,6.204-5.742c0.829,0,1.627,0.123,2.349,0.322c1.152,0.323,1.689,0.721,2.027,0.952l-1.275,1.213l-0.537,0.123
	l0.384-0.614c-0.522-0.507-1.475-1.443-3.286-1.443c-2.426,0-4.253,1.843-4.253,4.53c0,2.886,2.088,5.604,5.436,5.604
	c0.983,0,1.489-0.199,1.95-0.384v-2.472L46.9,21.441l1.228-0.661h3.255l-0.399,0.384c-0.108,0.092-0.123,0.124-0.154,0.245
	c-0.016,0.139-0.03,0.584-0.03,0.738V24.021z"/>
<path fill="#FAFAFA" d="M78.457,23.579c-0.507-0.046-0.613-0.138-0.613-0.738v-0.169V14.15c0.003-0.033,0.005-0.067,0.009-0.099
	c0.062-0.538,0.215-0.63,0.692-0.907h-2.197l-1.152,0.553h1.174v0.007L76.369,13.7v8.973v0.507c0,0.306-0.061,0.353-0.415,0.813
	h2.718l0.568-0.337C78.98,23.625,78.719,23.609,78.457,23.579"/>
<path fill="#FAFAFA" d="M84.705,23.72c-0.167,0.091-0.335,0.199-0.501,0.274c-0.504,0.229-1.023,0.29-1.481,0.29
	c-0.487,0-1.25-0.032-2.028-0.595c-1.082-0.763-1.555-2.074-1.555-3.218c0-2.364,1.921-3.522,3.492-3.522
	c0.549,0,1.114,0.137,1.572,0.427c0.761,0.502,0.96,1.158,1.066,1.509l-3.583,1.449l-1.175,0.092
	c0.38,1.937,1.692,3.064,3.142,3.064c0.777,0,1.342-0.273,1.86-0.533L84.705,23.72z M83.272,19.175
	c0.289-0.106,0.442-0.198,0.442-0.412c0-0.609-0.686-1.312-1.51-1.312c-0.61,0-1.753,0.473-1.753,2.12
	c0,0.259,0.031,0.534,0.046,0.809L83.272,19.175z"/>
<polygon fill="#FAFAFA" points="86.178,17.054 86.178,18.06 86.055,18.06 86.055,17.054 85.722,17.054 85.722,16.949 86.51,16.949 
	86.51,17.054 "/>
<polygon fill="#FAFAFA" points="87.549,18.06 87.549,17.044 87.543,17.044 87.233,18.06 87.138,18.06 86.825,17.044 86.821,17.044 
	86.821,18.06 86.71,18.06 86.71,16.949 86.901,16.949 87.184,17.847 87.188,17.847 87.466,16.949 87.659,16.949 87.659,18.06 "/>
<path fill="#FCFCFC" d="M43.271,10.497h-0.763c0-0.104-0.073-0.402-0.217-0.892h-1.102c-0.149,0.482-0.225,0.779-0.225,0.892h-0.717
	c0-0.062,0.186-0.57,0.557-1.526c0.372-0.955,0.557-1.481,0.557-1.578h0.901c0,0.09,0.168,0.609,0.504,1.556
	C43.103,9.895,43.271,10.411,43.271,10.497 M42.169,9.15c-0.271-0.82-0.408-1.264-0.408-1.331h-0.038
	c0,0.062-0.141,0.506-0.422,1.331H42.169z"/>
<path fill="#FCFCFC" d="M46.345,10.497h-0.589c0-0.065-0.219-0.409-0.656-1.032c-0.458-0.656-0.719-1.105-0.782-1.347H44.28
	c0.04,0.348,0.06,0.663,0.06,0.944c0,0.393,0.011,0.871,0.033,1.435h-0.586c0.024-0.493,0.036-1.034,0.036-1.624
	c0-0.58-0.012-1.074-0.036-1.48h0.708c0,0.084,0.196,0.42,0.589,1.008c0.418,0.625,0.658,1.048,0.72,1.271h0.036
	C45.802,9.318,45.783,9,45.783,8.718c0-0.431-0.011-0.873-0.034-1.325h0.596c-0.022,0.394-0.033,0.888-0.033,1.48
	C46.312,9.471,46.323,10.012,46.345,10.497"/>
<path fill="#FCFCFC" d="M49.801,8.838c0,0.452-0.145,0.845-0.434,1.183c-0.289,0.337-0.694,0.505-1.216,0.505
	c-0.235,0-0.559-0.009-0.973-0.029c0.021-0.48,0.031-1.021,0.031-1.624c0-0.579-0.01-1.072-0.031-1.48h0.417
	c0.068,0,0.17-0.003,0.305-0.008c0.135-0.004,0.223-0.007,0.265-0.007c0.574,0,0.99,0.144,1.248,0.429
	C49.672,8.094,49.801,8.437,49.801,8.838 M49.15,8.94c0-0.305-0.089-0.562-0.267-0.771c-0.178-0.209-0.45-0.313-0.815-0.313
	c-0.069,0-0.162,0.007-0.282,0.021c0.016,0.318,0.024,0.65,0.024,0.997c0,0.38,0.008,0.757,0.024,1.13
	c0.104,0.02,0.207,0.031,0.31,0.031c0.342,0,0.595-0.106,0.759-0.318C49.068,9.504,49.15,9.246,49.15,8.94"/>
<path fill="#FCFCFC" d="M52.988,10.497h-0.706c-0.185-0.562-0.326-0.91-0.425-1.042c-0.099-0.132-0.257-0.198-0.477-0.198
	c-0.093,0-0.181,0.001-0.265,0.002c0,0.408,0.007,0.821,0.021,1.237h-0.663c0.02-0.48,0.031-1.021,0.031-1.624
	c0-0.579-0.011-1.072-0.031-1.48h0.412c0.048,0,0.147-0.003,0.299-0.008c0.152-0.004,0.292-0.007,0.421-0.007
	c0.729,0,1.094,0.25,1.094,0.749c0,0.396-0.208,0.671-0.625,0.827V8.99c0.161,0.044,0.302,0.17,0.422,0.375
	C52.62,9.572,52.783,9.949,52.988,10.497 M52.094,8.304c0-0.316-0.204-0.475-0.61-0.475c-0.149,0-0.281,0.011-0.396,0.034
	c0.018,0.246,0.026,0.567,0.026,0.963c0.087,0.003,0.162,0.005,0.222,0.005C51.841,8.831,52.094,8.655,52.094,8.304"/>
<path fill="#FCFCFC" d="M56.406,8.888c0,0.487-0.149,0.893-0.448,1.213c-0.299,0.321-0.668,0.481-1.109,0.481
	c-0.419,0-0.771-0.147-1.054-0.442c-0.283-0.294-0.424-0.669-0.424-1.124c0-0.488,0.149-0.893,0.448-1.214
	c0.299-0.321,0.668-0.481,1.109-0.481c0.419,0,0.771,0.147,1.054,0.441C56.264,8.057,56.406,8.432,56.406,8.888 M55.748,8.957
	c0-0.333-0.085-0.602-0.255-0.809c-0.17-0.207-0.38-0.31-0.629-0.31c-0.232,0-0.429,0.104-0.592,0.313
	c-0.162,0.208-0.243,0.471-0.243,0.789c0,0.331,0.086,0.599,0.257,0.807s0.38,0.312,0.628,0.312c0.232,0,0.43-0.104,0.591-0.314
	C55.667,9.536,55.748,9.273,55.748,8.957"/>
<path fill="#FCFCFC" d="M57.754,10.497h-0.675c0.021-0.493,0.031-1.034,0.031-1.624c0-0.58-0.01-1.074-0.031-1.48h0.675
	c-0.021,0.4-0.031,0.894-0.031,1.48C57.723,9.473,57.733,10.014,57.754,10.497"/>
<path fill="#FCFCFC" d="M61.21,8.838c0,0.452-0.145,0.845-0.434,1.183c-0.29,0.337-0.695,0.505-1.216,0.505
	c-0.235,0-0.56-0.009-0.973-0.029c0.021-0.48,0.031-1.021,0.031-1.624c0-0.579-0.01-1.072-0.031-1.48h0.417
	c0.068,0,0.17-0.003,0.305-0.008c0.135-0.004,0.223-0.007,0.265-0.007c0.574,0,0.99,0.144,1.249,0.429
	C61.081,8.094,61.21,8.437,61.21,8.838 M60.559,8.94c0-0.305-0.089-0.562-0.267-0.771c-0.178-0.209-0.45-0.313-0.815-0.313
	c-0.068,0-0.162,0.007-0.281,0.021c0.016,0.318,0.024,0.65,0.024,0.997c0,0.38,0.008,0.757,0.024,1.13
	c0.103,0.02,0.207,0.031,0.31,0.031c0.342,0,0.595-0.106,0.76-0.318C60.477,9.504,60.559,9.246,60.559,8.94"/>
<path fill="#FCFCFC" d="M65.795,10.497h-0.763c0-0.104-0.073-0.402-0.217-0.892h-1.102c-0.149,0.482-0.224,0.779-0.224,0.892h-0.717
	c0-0.062,0.186-0.57,0.557-1.526c0.371-0.955,0.557-1.481,0.557-1.578h0.901c0,0.09,0.168,0.609,0.504,1.556
	C65.627,9.895,65.795,10.411,65.795,10.497 M64.693,9.15c-0.271-0.82-0.408-1.264-0.408-1.331h-0.039
	c0,0.062-0.14,0.506-0.421,1.331H64.693z"/>
<path fill="#FCFCFC" d="M68.577,8.206c0,0.38-0.141,0.66-0.423,0.842c-0.282,0.181-0.628,0.271-1.039,0.271
	c-0.075,0-0.128-0.001-0.16-0.005c0,0.299,0.009,0.693,0.026,1.183h-0.67c0.021-0.459,0.031-1,0.031-1.624
	c0-0.572-0.01-1.066-0.031-1.48h0.415c0.059,0,0.172-0.003,0.339-0.008c0.167-0.004,0.311-0.007,0.434-0.007
	c0.302,0,0.558,0.068,0.766,0.205C68.473,7.721,68.577,7.928,68.577,8.206 M67.961,8.337c0-0.34-0.226-0.51-0.677-0.51
	c-0.113,0-0.232,0.012-0.357,0.036c0.017,0.3,0.026,0.64,0.026,1.021c0.04,0.003,0.085,0.005,0.138,0.005
	C67.671,8.888,67.961,8.704,67.961,8.337"/>
<path fill="#FCFCFC" d="M71.436,8.206c0,0.38-0.141,0.66-0.423,0.842c-0.282,0.181-0.628,0.271-1.039,0.271
	c-0.075,0-0.128-0.001-0.16-0.005c0,0.299,0.009,0.693,0.026,1.183h-0.67c0.021-0.459,0.031-1,0.031-1.624
	c0-0.572-0.01-1.066-0.031-1.48h0.415c0.059,0,0.171-0.003,0.338-0.008c0.167-0.004,0.312-0.007,0.434-0.007
	c0.302,0,0.557,0.068,0.766,0.205C71.332,7.721,71.436,7.928,71.436,8.206 M70.821,8.337c0-0.34-0.226-0.51-0.678-0.51
	c-0.112,0-0.232,0.012-0.357,0.036c0.018,0.3,0.026,0.64,0.026,1.021c0.04,0.003,0.086,0.005,0.138,0.005
	C70.531,8.888,70.821,8.704,70.821,8.337"/>
<path fill="#FCFCFC" d="M76.112,8.888c0,0.487-0.149,0.893-0.448,1.213c-0.299,0.321-0.668,0.481-1.109,0.481
	c-0.419,0-0.771-0.147-1.054-0.442c-0.283-0.294-0.424-0.669-0.424-1.124c0-0.488,0.149-0.893,0.448-1.214
	c0.299-0.321,0.668-0.481,1.109-0.481c0.42,0,0.771,0.147,1.054,0.441C75.97,8.057,76.112,8.432,76.112,8.888 M75.454,8.957
	c0-0.333-0.084-0.602-0.255-0.809s-0.38-0.31-0.629-0.31c-0.232,0-0.429,0.104-0.591,0.313c-0.163,0.208-0.243,0.471-0.243,0.789
	c0,0.331,0.085,0.599,0.256,0.807c0.17,0.208,0.38,0.312,0.628,0.312c0.232,0,0.429-0.104,0.591-0.314
	C75.373,9.536,75.454,9.273,75.454,8.957"/>
<path fill="#FCFCFC" d="M79.344,10.497h-0.589c0-0.065-0.219-0.409-0.656-1.032c-0.458-0.656-0.718-1.105-0.782-1.347h-0.038
	c0.04,0.348,0.06,0.663,0.06,0.944c0,0.393,0.011,0.871,0.034,1.435h-0.587c0.024-0.493,0.036-1.034,0.036-1.624
	c0-0.58-0.012-1.074-0.036-1.48h0.708c0,0.084,0.196,0.42,0.589,1.008c0.418,0.625,0.658,1.048,0.72,1.271h0.036
	C78.8,9.318,78.781,9,78.781,8.718c0-0.431-0.011-0.873-0.034-1.325h0.596c-0.022,0.394-0.033,0.888-0.033,1.48
	C79.311,9.471,79.322,10.012,79.344,10.497"/>
</svg>
