<?xml version="1.0" encoding="utf-8"?>
<!-- Generator: Adobe Illustrator 15.0.0, SVG Export Plug-In . SVG Version: 6.00 Build 0)  -->
<!DOCTYPE svg PUBLIC "-//W3C//DTD SVG 1.1//EN" "http://www.w3.org/Graphics/SVG/1.1/DTD/svg11.dtd">
<svg version="1.1" id="Layer_1" xmlns="http://www.w3.org/2000/svg" xmlns:xlink="http://www.w3.org/1999/xlink" x="0px" y="0px"
	 width="130px" height="38px" viewBox="0 2.5 130 38" enable-background="new 0 2.5 130 38" xml:space="preserve">
<g>
	<path fill="#1C1916" d="M130,35.943c0,2.067-1.661,3.695-3.732,3.695H3.644C1.573,39.639,0,38.059,0,35.991V6.141
		C0,4.073,1.573,2.5,3.644,2.5h122.624c2.071,0,3.715,1.573,3.715,3.641v29.85L130,35.943z"/>
</g>
<g>
	<path fill="#FFFFFF" d="M28.256,9.443h-8.805c-1.055,0-1.91,0.855-1.91,1.911v19.505c0,1.058,0.855,1.913,1.91,1.913h8.805
		c1.056,0,1.911-0.855,1.911-1.913V11.354C30.167,10.298,29.312,9.443,28.256,9.443z M23.854,31.369
		c-0.703,0-1.272-0.57-1.272-1.273s0.57-1.272,1.272-1.272c0.703,0,1.273,0.569,1.273,1.272S24.557,31.369,23.854,31.369z
		 M28.667,28.202h-9.625V13.815h9.625V28.202z"/>
	<g>
		<path fill="#FFFFFF" d="M37.378,12.92l-0.535,1.62h-0.688l1.751-5.153h0.803l1.757,5.153h-0.71l-0.55-1.62H37.378z M39.068,12.4
			l-0.512-1.483c-0.108-0.337-0.184-0.642-0.26-0.94h-0.022c-0.069,0.298-0.153,0.62-0.253,0.932L37.517,12.4H39.068z"/>
		<path fill="#FFFFFF" d="M41.156,10.84l0.726,2.073c0.123,0.343,0.223,0.65,0.299,0.955h0.023c0.084-0.305,0.19-0.612,0.312-0.955
			l0.719-2.073h0.704l-1.454,3.7h-0.642l-1.406-3.7H41.156z"/>
		<path fill="#FFFFFF" d="M47.035,13.654c0,0.321,0.016,0.634,0.055,0.886h-0.604l-0.062-0.465h-0.022
			c-0.199,0.291-0.604,0.55-1.132,0.55c-0.75,0-1.131-0.527-1.131-1.062c0-0.895,0.795-1.384,2.225-1.377v-0.076
			c0-0.306-0.085-0.864-0.841-0.855c-0.352,0-0.711,0.098-0.972,0.274l-0.153-0.452c0.307-0.191,0.757-0.32,1.224-0.32
			c1.141,0,1.415,0.772,1.415,1.514V13.654z M46.378,12.652c-0.734-0.016-1.567,0.114-1.567,0.833c0,0.443,0.29,0.642,0.626,0.642
			c0.49,0,0.803-0.306,0.91-0.619c0.023-0.07,0.031-0.146,0.031-0.215V12.652z"/>
		<path fill="#FFFFFF" d="M48.396,10.159c-0.251,0-0.42-0.198-0.42-0.436c0-0.237,0.176-0.428,0.436-0.428
			c0.26,0,0.428,0.191,0.428,0.428c0,0.237-0.168,0.436-0.435,0.436H48.396z M48.075,14.54v-3.7h0.673v3.7H48.075z"/>
		<path fill="#FFFFFF" d="M49.826,9.112h0.673v5.428h-0.673V9.112z"/>
		<path fill="#FFFFFF" d="M54.184,13.654c0,0.321,0.015,0.634,0.053,0.886h-0.604l-0.061-0.465h-0.022
			c-0.199,0.291-0.604,0.55-1.132,0.55c-0.748,0-1.131-0.527-1.131-1.062c0-0.895,0.795-1.384,2.225-1.377v-0.076
			c0-0.306-0.084-0.864-0.841-0.855c-0.352,0-0.711,0.098-0.97,0.274l-0.154-0.452c0.306-0.191,0.758-0.32,1.224-0.32
			c1.139,0,1.415,0.772,1.415,1.514V13.654z M53.526,12.652c-0.735-0.016-1.568,0.114-1.568,0.833c0,0.443,0.291,0.642,0.627,0.642
			c0.49,0,0.803-0.306,0.91-0.619c0.023-0.07,0.031-0.146,0.031-0.215V12.652z"/>
		<path fill="#FFFFFF" d="M55.223,9.112h0.672v2.316h0.016c0.237-0.413,0.665-0.672,1.261-0.672c0.918,0,1.561,0.764,1.561,1.88
			c0,1.331-0.841,1.988-1.667,1.988c-0.535,0-0.956-0.207-1.238-0.696h-0.016l-0.039,0.611h-0.58c0.023-0.252,0.03-0.626,0.03-0.955
			V9.112z M55.895,13.058c0,0.083,0.008,0.167,0.024,0.245c0.129,0.466,0.527,0.788,1.009,0.788c0.711,0,1.124-0.574,1.124-1.422
			c0-0.75-0.383-1.383-1.101-1.383c-0.459,0-0.887,0.32-1.018,0.825c-0.022,0.084-0.039,0.176-0.039,0.283V13.058z"/>
		<path fill="#FFFFFF" d="M59.535,9.112h0.673v5.428h-0.673V9.112z"/>
		<path fill="#FFFFFF" d="M61.667,12.805c0.015,0.91,0.588,1.285,1.261,1.285c0.482,0,0.78-0.084,1.025-0.184l0.121,0.474
			c-0.236,0.107-0.649,0.238-1.238,0.238c-1.131,0-1.82-0.757-1.82-1.866c0-1.124,0.665-2.003,1.744-2.003
			c1.207,0,1.521,1.063,1.521,1.743c0,0.138-0.007,0.245-0.023,0.322L61.667,12.805z M63.632,12.324
			c0.007-0.421-0.176-1.094-0.925-1.094c-0.687,0-0.979,0.627-1.031,1.094H63.632z"/>
		<path fill="#FFFFFF" d="M68.166,14.625c-0.994,0-1.774-0.734-1.774-1.904c0-1.239,0.818-1.964,1.835-1.964
			c1.063,0,1.781,0.772,1.781,1.896c0,1.376-0.955,1.973-1.835,1.973H68.166z M68.188,14.12c0.643,0,1.123-0.604,1.123-1.445
			c0-0.626-0.312-1.414-1.108-1.414c-0.787,0-1.13,0.733-1.13,1.438c0,0.811,0.457,1.422,1.107,1.422H68.188z"/>
		<path fill="#FFFFFF" d="M70.819,11.842c0-0.391-0.009-0.696-0.033-1.002h0.599l0.037,0.604h0.016
			c0.183-0.344,0.611-0.688,1.223-0.688c0.512,0,1.309,0.305,1.309,1.575v2.208h-0.673v-2.133c0-0.595-0.223-1.101-0.857-1.101
			c-0.435,0-0.779,0.314-0.901,0.688c-0.031,0.084-0.046,0.207-0.046,0.314v2.231h-0.672V11.842z"/>
		<path fill="#FFFFFF" d="M77.415,9.954v0.886h0.964v0.512h-0.964v1.996c0,0.458,0.131,0.719,0.505,0.719
			c0.185,0,0.292-0.015,0.391-0.046l0.029,0.512c-0.128,0.046-0.335,0.093-0.596,0.093c-0.313,0-0.565-0.107-0.726-0.283
			c-0.185-0.207-0.26-0.536-0.26-0.972v-2.019h-0.573V10.84h0.573v-0.681L77.415,9.954z"/>
		<path fill="#FFFFFF" d="M79.098,9.112h0.673v2.309h0.015c0.107-0.191,0.275-0.367,0.482-0.474
			c0.199-0.123,0.436-0.191,0.689-0.191c0.494,0,1.29,0.305,1.29,1.583v2.201h-0.672v-2.124c0-0.604-0.224-1.103-0.857-1.103
			c-0.436,0-0.771,0.307-0.902,0.673c-0.037,0.092-0.045,0.191-0.045,0.322v2.231h-0.673V9.112z"/>
		<path fill="#FFFFFF" d="M83.685,12.805c0.016,0.91,0.589,1.285,1.262,1.285c0.48,0,0.78-0.084,1.024-0.184l0.122,0.474
			c-0.237,0.107-0.649,0.238-1.239,0.238c-1.131,0-1.819-0.757-1.819-1.866c0-1.124,0.666-2.003,1.743-2.003
			c1.208,0,1.522,1.063,1.522,1.743c0,0.138-0.008,0.245-0.023,0.322L83.685,12.805z M85.649,12.324
			c0.006-0.421-0.176-1.094-0.926-1.094c-0.687,0-0.979,0.627-1.032,1.094H85.649z"/>
		<path fill="#FFFFFF" d="M88.998,10.159c-0.253,0-0.421-0.198-0.421-0.436c0-0.237,0.175-0.428,0.436-0.428
			s0.428,0.191,0.428,0.428c0,0.237-0.167,0.436-0.436,0.436H88.998z M88.677,14.54v-3.7h0.672v3.7H88.677z"/>
		<path fill="#FFFFFF" d="M90.45,9.456c0.32-0.061,0.742-0.107,1.276-0.107c0.657,0,1.14,0.153,1.445,0.43
			c0.282,0.244,0.459,0.619,0.459,1.078c0,0.466-0.139,0.833-0.405,1.1c-0.353,0.376-0.927,0.566-1.576,0.566
			c-0.198,0-0.381-0.008-0.533-0.045v2.063H90.45V9.456z M91.116,11.933c0.144,0.039,0.335,0.054,0.55,0.054
			c0.811,0,1.291-0.397,1.291-1.093c0-0.688-0.48-1.017-1.215-1.017c-0.291,0-0.511,0.03-0.626,0.054V11.933z"/>
		<path fill="#FFFFFF" d="M94.418,9.112h0.673v2.309h0.016c0.106-0.191,0.276-0.367,0.481-0.474c0.2-0.123,0.437-0.191,0.689-0.191
			c0.496,0,1.291,0.305,1.291,1.583v2.201h-0.673v-2.124c0-0.604-0.222-1.103-0.856-1.103c-0.435,0-0.771,0.307-0.902,0.673
			c-0.037,0.092-0.046,0.191-0.046,0.322v2.231h-0.673V9.112z"/>
		<path fill="#FFFFFF" d="M100.13,14.625c-0.994,0-1.774-0.734-1.774-1.904c0-1.239,0.818-1.964,1.835-1.964
			c1.063,0,1.781,0.772,1.781,1.896c0,1.376-0.956,1.973-1.835,1.973H100.13z M100.153,14.12c0.641,0,1.124-0.604,1.124-1.445
			c0-0.626-0.313-1.414-1.109-1.414c-0.788,0-1.133,0.733-1.133,1.438c0,0.811,0.459,1.422,1.108,1.422H100.153z"/>
		<path fill="#FFFFFF" d="M102.782,11.842c0-0.391-0.009-0.696-0.03-1.002h0.597l0.038,0.604h0.015
			c0.184-0.344,0.611-0.688,1.224-0.688c0.512,0,1.307,0.305,1.307,1.575v2.208h-0.672v-2.133c0-0.595-0.221-1.101-0.857-1.101
			c-0.435,0-0.779,0.314-0.9,0.688c-0.031,0.084-0.048,0.207-0.048,0.314v2.231h-0.672V11.842z"/>
		<path fill="#FFFFFF" d="M107.369,12.805c0.016,0.91,0.589,1.285,1.262,1.285c0.481,0,0.779-0.084,1.024-0.184l0.121,0.474
			c-0.237,0.107-0.649,0.238-1.237,0.238c-1.132,0-1.819-0.757-1.819-1.866c0-1.124,0.665-2.003,1.742-2.003
			c1.209,0,1.522,1.063,1.522,1.743c0,0.138-0.008,0.245-0.022,0.322L107.369,12.805z M109.334,12.324
			c0.008-0.421-0.177-1.094-0.925-1.094c-0.689,0-0.979,0.627-1.033,1.094H109.334z"/>
	</g>
	<g>
		<path fill="#FFFFFF" d="M40.547,18.031l-4.534,13.345h2.076l1.354-4.099h4.389l1.392,4.099h2.134l-4.553-13.345H40.547z
			 M41.622,20.225c0.153,0.595,0.319,1.213,0.531,1.882l1.222,3.537h-3.477l1.205-3.56C41.286,21.507,41.459,20.883,41.622,20.225z"
			/>
		<path fill="#FFFFFF" d="M53.223,21.491c-1.375,0-2.477,0.531-3.21,1.54l-0.081-1.329h-1.846l0.01,0.17
			c0.054,0.827,0.078,1.737,0.078,3.043v10.286h2.019v-4.8c0.626,0.749,1.626,1.186,2.76,1.186c1.18,0,2.267-0.462,3.06-1.302
			c0.884-0.933,1.351-2.276,1.351-3.882c0-1.418-0.405-2.645-1.173-3.546C55.438,21.976,54.385,21.491,53.223,21.491z M52.72,23.161
			c1.799,0,2.605,1.668,2.605,3.319c0,2.132-1.027,3.455-2.681,3.455c-1.129,0-2.107-0.768-2.379-1.873
			c-0.046-0.172-0.072-0.399-0.072-0.653v-1.624c0-0.147,0.033-0.326,0.064-0.5c0.01-0.055,0.021-0.11,0.028-0.163
			C50.587,23.968,51.587,23.161,52.72,23.161z"/>
		<path fill="#FFFFFF" d="M63.62,21.491c-1.375,0-2.477,0.531-3.21,1.54l-0.081-1.329h-1.846l0.01,0.17
			c0.055,0.829,0.077,1.737,0.077,3.043v10.286h2.02v-4.8c0.626,0.749,1.626,1.186,2.759,1.186c1.181,0,2.268-0.462,3.061-1.302
			c0.884-0.933,1.351-2.276,1.351-3.882c0-1.418-0.406-2.645-1.175-3.546C65.835,21.976,64.782,21.491,63.62,21.491z M63.117,23.161
			c1.8,0,2.605,1.668,2.605,3.319c0,2.132-1.028,3.455-2.682,3.455c-1.129,0-2.106-0.768-2.378-1.873
			c-0.046-0.172-0.071-0.399-0.071-0.653v-1.624c0-0.149,0.032-0.328,0.065-0.501c0.01-0.054,0.02-0.109,0.029-0.162
			C60.984,23.968,61.983,23.161,63.117,23.161z"/>
		<path fill="#FFFFFF" d="M76.644,23.685c-1.884-0.729-2.488-1.303-2.488-2.363c0-0.893,0.71-1.792,2.296-1.792
			c1.307,0,2.145,0.455,2.369,0.594l0.172,0.106l0.568-1.685l-0.111-0.066c-0.337-0.198-1.303-0.66-2.941-0.66
			c-2.573,0-4.371,1.521-4.371,3.695c0,1.755,1.125,2.982,3.544,3.86c1.713,0.642,2.35,1.298,2.35,2.422
			c0,1.272-0.983,2.062-2.566,2.062c-1.03,0-2.091-0.301-2.909-0.825L72.38,28.92l-0.542,1.725l0.099,0.064
			c0.763,0.511,2.197,0.878,3.412,0.878c3.47,0,4.701-2.116,4.701-3.927C80.05,25.792,79.063,24.639,76.644,23.685z"/>
		<path fill="#FFFFFF" d="M83.685,19.404l-1.981,0.622v1.676h-1.448v1.614h1.448v4.943c0,1.195,0.229,2.032,0.699,2.562
			c0.451,0.493,1.146,0.766,1.953,0.766c0.764,0,1.306-0.149,1.561-0.241l0.113-0.04l-0.097-1.616l-0.193,0.06
			c-0.255,0.078-0.517,0.108-0.939,0.108c-0.783,0-1.115-0.496-1.115-1.657v-4.885h2.435v-1.614h-2.435V19.404z"/>
		<path fill="#FFFFFF" d="M91.121,21.491c-2.824,0-4.797,2.108-4.797,5.125c0,2.928,1.909,4.971,4.644,4.971h0.02
			c2.31,0,4.797-1.61,4.797-5.145c0-1.438-0.445-2.672-1.287-3.572C93.651,21.968,92.482,21.491,91.121,21.491z M91.063,23.084
			c1.817,0,2.644,1.77,2.644,3.416c0,2.024-1.128,3.493-2.682,3.493h-0.02c-1.53,0-2.643-1.444-2.643-3.434
			C88.363,24.829,89.199,23.084,91.063,23.084z"/>
		<path fill="#FFFFFF" d="M101.968,21.583l-0.12-0.031c-0.178-0.044-0.324-0.062-0.503-0.062c-1.058,0-2.004,0.623-2.531,1.625
			l-0.061-1.415h-1.811l0.011,0.17c0.054,0.799,0.077,1.697,0.077,2.906l-0.02,6.598h2.02v-5.146c0-0.279,0.019-0.546,0.056-0.783
			c0.228-1.236,1.062-2.034,2.124-2.034c0.207,0,0.369,0.018,0.542,0.034l0.216,0.022V21.583z"/>
		<path fill="#FFFFFF" d="M106.508,21.471c-2.688,0-4.566,2.147-4.566,5.223c0,2.96,1.868,4.872,4.759,4.872
			c1.521,0,2.578-0.332,3.196-0.611l0.122-0.056l-0.389-1.504l-0.168,0.069c-0.551,0.222-1.281,0.45-2.53,0.45
			c-0.878,0-2.899-0.288-3.024-2.926l6.518,0.02l0.025-0.13c0.043-0.205,0.062-0.481,0.062-0.842
			C110.512,23.931,109.464,21.471,106.508,21.471z M106.373,23.008c0.614,0,1.114,0.189,1.481,0.564
			c0.581,0.591,0.683,1.462,0.695,1.879h-4.604C104.133,24.285,104.862,23.008,106.373,23.008z"/>
	</g>
</g>
</svg>
