<?xml version="1.0" encoding="utf-8"?>
<!-- Generator: Adobe Illustrator 15.0.0, SVG Export Plug-In . SVG Version: 6.00 Build 0)  -->
<!DOCTYPE svg PUBLIC "-//W3C//DTD SVG 1.1//EN" "http://www.w3.org/Graphics/SVG/1.1/DTD/svg11.dtd">
<svg version="1.1" id="Layer_1" xmlns="http://www.w3.org/2000/svg" xmlns:xlink="http://www.w3.org/1999/xlink" x="0px" y="0px"
	 width="190px" height="58px" viewBox="0 0 190 58" enable-background="new 0 0 190 58" xml:space="preserve">
<g>
	<path fill="#F4F4F3" d="M28.812,57.623c8.231,0,33.57,0,41.801,0c10.275,0,38.498,0,48.773,0c8.232,0,33.57,0,41.801,0
		c15.914,0,28.812-12.898,28.812-28.812C190,12.899,177.102,0,161.188,0c-8.23,0-33.568,0-41.801,0c-10.275,0-38.498,0-48.773,0
		c-8.231,0-33.57,0-41.801,0C12.9,0,0,12.899,0,28.812C0,44.725,12.9,57.623,28.812,57.623z"/>
</g>
<g>
	<g>
		<path fill="#31363C" d="M40.776,29.308c0-2.563,1.502-4.78,3.684-5.835c-1.639-2.355-4.351-3.5-7.416-3.5
			c-1.567,0-3.039,0.2-4.324,0.94c-0.734,0.423-1.644,0.423-2.378,0c-1.285-0.74-2.757-0.94-4.323-0.94
			c-5.008,0-9.064,3.056-9.064,9.438c0,6.384,4.057,16.703,9.064,16.703c1.132,0,2.213-0.485,3.211-0.969
			c1.45-0.702,3.152-0.702,4.602,0c1,0.483,2.08,0.969,3.213,0.969c3.589,0,6.692-5.308,8.16-10.665
			C42.627,34.569,40.776,32.151,40.776,29.308z"/>
		<path fill="#31363C" d="M35.819,16.536c1.334-1.512,2.001-3.336,2-5.028c-1.68,0.209-3.406,1.1-4.74,2.611s-2.003,3.336-2,5.029
			C32.758,18.938,34.484,18.049,35.819,16.536z"/>
	</g>
	<g>
		<path fill="#31363C" d="M66.714,20.56c0.641-0.318,1.133-0.779,1.475-1.382c0.34-0.604,0.512-1.314,0.512-2.137
			c0-0.82-0.172-1.534-0.512-2.141c-0.342-0.606-0.834-1.072-1.475-1.399c-0.641-0.326-1.398-0.489-2.273-0.489h-2.499v8.025h2.499
			C65.315,21.037,66.073,20.879,66.714,20.56z M62.989,13.864h1.451c1.027,0,1.816,0.279,2.365,0.84s0.824,1.34,0.824,2.337
			c0,0.991-0.272,1.76-0.818,2.31c-0.545,0.549-1.336,0.824-2.371,0.824h-1.451V13.864z"/>
		<path fill="#31363C" d="M74.184,15.021c-0.483-0.265-1.024-0.396-1.624-0.396c-0.599,0-1.14,0.132-1.623,0.396
			c-0.484,0.266-0.865,0.646-1.146,1.141s-0.421,1.065-0.421,1.71c0,0.652,0.137,1.227,0.409,1.721
			c0.272,0.496,0.647,0.877,1.128,1.146c0.48,0.269,1.016,0.403,1.606,0.403c0.599,0,1.144-0.135,1.636-0.403
			c0.49-0.27,0.881-0.65,1.168-1.146c0.289-0.494,0.432-1.068,0.432-1.721s-0.139-1.225-0.42-1.717
			C75.049,15.664,74.667,15.286,74.184,15.021z M74.374,19.161c-0.204,0.353-0.471,0.617-0.801,0.794s-0.684,0.265-1.06,0.265
			c-0.375,0-0.722-0.087-1.036-0.259c-0.315-0.173-0.566-0.436-0.754-0.789s-0.282-0.786-0.282-1.301
			c0-0.507,0.096-0.937,0.288-1.29c0.191-0.353,0.447-0.615,0.766-0.788s0.67-0.26,1.054-0.26c0.376,0,0.726,0.087,1.048,0.26
			s0.583,0.436,0.783,0.788c0.199,0.354,0.299,0.783,0.299,1.29S74.577,18.808,74.374,19.161z"/>
		<polygon fill="#31363C" points="80.806,16.029 82.325,21.037 83.408,21.037 85.378,14.727 84.341,14.727 82.913,20.036 
			81.382,14.727 80.311,14.727 78.745,20.024 77.294,14.727 76.224,14.727 78.204,21.037 79.286,21.037 		"/>
		<path fill="#31363C" d="M89.329,14.613c-0.432,0-0.824,0.087-1.182,0.264c-0.357,0.178-0.639,0.426-0.846,0.748v-0.898h-1.048
			v6.311h1.048v-3.489c0-0.659,0.162-1.162,0.488-1.508c0.327-0.346,0.766-0.518,1.318-0.518c0.545,0,0.976,0.166,1.291,0.501
			c0.314,0.334,0.472,0.815,0.472,1.444v3.569h1.036v-3.719c0-0.875-0.237-1.545-0.714-2.01
			C90.718,14.845,90.095,14.613,89.329,14.613z"/>
		<rect x="92.823" y="12.517" fill="#31363C" width="1.049" height="8.521"/>
		<path fill="#31363C" d="M96.482,20.738c0.48,0.269,1.016,0.403,1.607,0.403c0.598,0,1.143-0.135,1.633-0.403
			c0.492-0.27,0.883-0.65,1.17-1.146c0.289-0.494,0.432-1.068,0.432-1.721s-0.141-1.225-0.42-1.717
			c-0.281-0.49-0.662-0.868-1.146-1.134c-0.482-0.265-1.025-0.396-1.623-0.396c-0.6,0-1.141,0.132-1.623,0.396
			c-0.484,0.266-0.868,0.646-1.147,1.141s-0.42,1.065-0.42,1.71c0,0.652,0.137,1.227,0.408,1.721
			C95.626,20.088,96.002,20.469,96.482,20.738z M96.305,16.581c0.191-0.353,0.447-0.615,0.766-0.788s0.668-0.26,1.053-0.26
			c0.375,0,0.727,0.087,1.049,0.26c0.32,0.173,0.582,0.436,0.783,0.788c0.199,0.354,0.299,0.783,0.299,1.29s-0.102,0.937-0.305,1.29
			c-0.205,0.353-0.471,0.617-0.801,0.794s-0.684,0.265-1.059,0.265c-0.377,0-0.723-0.087-1.037-0.259
			c-0.314-0.173-0.566-0.436-0.756-0.789c-0.188-0.354-0.281-0.786-0.281-1.301C96.016,17.364,96.111,16.935,96.305,16.581z"/>
		<path fill="#31363C" d="M107.338,15.88c-0.199-0.362-0.504-0.661-0.91-0.898c-0.406-0.238-0.887-0.357-1.439-0.357
			c-0.561,0-1.068,0.134-1.525,0.403c-0.457,0.269-0.816,0.646-1.076,1.134c-0.262,0.488-0.393,1.053-0.393,1.699
			c0,0.636,0.131,1.204,0.393,1.703c0.26,0.499,0.617,0.887,1.07,1.163s0.959,0.415,1.52,0.415c0.545,0,1.023-0.121,1.434-0.363
			c0.41-0.241,0.719-0.546,0.928-0.915v1.174h1.059v-6.311h-1.059V15.88z M107.051,19.121c-0.193,0.356-0.453,0.628-0.779,0.816
			s-0.684,0.282-1.076,0.282c-0.391,0-0.748-0.094-1.07-0.282s-0.58-0.46-0.771-0.816c-0.191-0.357-0.287-0.777-0.287-1.261
			c0-0.477,0.096-0.892,0.287-1.245c0.191-0.353,0.449-0.621,0.771-0.806s0.68-0.276,1.07-0.276c0.393,0,0.75,0.094,1.076,0.283
			c0.326,0.188,0.586,0.458,0.779,0.812c0.191,0.354,0.287,0.768,0.287,1.243S107.242,18.764,107.051,19.121z"/>
		<path fill="#31363C" d="M115.861,21.037v-8.521h-1.059v3.339c-0.223-0.368-0.545-0.666-0.969-0.892
			c-0.422-0.227-0.879-0.34-1.369-0.34c-0.568,0-1.082,0.134-1.537,0.403c-0.457,0.269-0.816,0.646-1.076,1.134
			c-0.262,0.488-0.393,1.053-0.393,1.699c0,0.636,0.131,1.204,0.393,1.703c0.26,0.499,0.619,0.887,1.076,1.163
			c0.455,0.276,0.965,0.415,1.525,0.415c0.545,0,1.021-0.121,1.428-0.363c0.406-0.241,0.715-0.551,0.922-0.927v1.186H115.861z
			 M114.514,19.121c-0.191,0.356-0.451,0.628-0.777,0.816s-0.686,0.282-1.076,0.282c-0.393,0-0.748-0.094-1.07-0.282
			s-0.58-0.46-0.771-0.816c-0.193-0.357-0.289-0.777-0.289-1.261c0-0.477,0.096-0.892,0.289-1.245
			c0.191-0.353,0.449-0.621,0.771-0.806s0.678-0.276,1.07-0.276c0.391,0,0.75,0.094,1.076,0.283
			c0.326,0.188,0.586,0.458,0.777,0.812s0.289,0.768,0.289,1.243S114.705,18.764,114.514,19.121z"/>
		<path fill="#31363C" d="M121.055,20.738c0.48,0.269,1.016,0.403,1.607,0.403c0.598,0,1.143-0.135,1.633-0.403
			c0.492-0.27,0.883-0.65,1.17-1.146c0.289-0.494,0.432-1.068,0.432-1.721s-0.141-1.225-0.42-1.717
			c-0.279-0.49-0.662-0.868-1.146-1.134c-0.482-0.265-1.023-0.396-1.623-0.396s-1.141,0.132-1.623,0.396
			c-0.484,0.266-0.865,0.646-1.146,1.141c-0.279,0.495-0.42,1.065-0.42,1.71c0,0.652,0.137,1.227,0.41,1.721
			C120.199,20.088,120.576,20.469,121.055,20.738z M120.877,16.581c0.191-0.353,0.447-0.615,0.766-0.788s0.67-0.26,1.053-0.26
			c0.377,0,0.725,0.087,1.049,0.26c0.322,0.173,0.582,0.436,0.783,0.788c0.199,0.354,0.299,0.783,0.299,1.29
			s-0.102,0.937-0.305,1.29c-0.205,0.353-0.471,0.617-0.801,0.794s-0.684,0.265-1.059,0.265c-0.377,0-0.723-0.087-1.037-0.259
			c-0.314-0.173-0.566-0.436-0.754-0.789s-0.283-0.786-0.283-1.301C120.588,17.364,120.684,16.935,120.877,16.581z"/>
		<path fill="#31363C" d="M129.654,15.522c0.545,0,0.975,0.166,1.289,0.501c0.316,0.334,0.473,0.815,0.473,1.444v3.569h1.037v-3.719
			c0-0.875-0.238-1.545-0.715-2.01c-0.475-0.464-1.098-0.695-1.865-0.695c-0.43,0-0.822,0.087-1.18,0.264
			c-0.357,0.178-0.639,0.426-0.846,0.748v-0.898h-1.049v6.311h1.049v-3.489c0-0.659,0.162-1.162,0.488-1.508
			S129.102,15.522,129.654,15.522z"/>
		<path fill="#31363C" d="M139.369,21.037v-0.886h-0.773c-0.322,0-0.549-0.063-0.678-0.19c-0.131-0.127-0.197-0.344-0.197-0.65
			v-3.72h1.648v-0.864h-1.648v-1.588h-1.047v1.588h-0.818v0.864h0.818v3.72c0,0.614,0.145,1.055,0.438,1.324
			c0.291,0.268,0.729,0.402,1.312,0.402H139.369z"/>
		<path fill="#31363C" d="M141.363,17.548c0-0.659,0.162-1.162,0.488-1.508s0.766-0.518,1.318-0.518
			c0.545,0,0.975,0.166,1.289,0.501c0.316,0.334,0.473,0.815,0.473,1.444v3.569h1.037v-3.719c0-0.583-0.109-1.078-0.328-1.485
			s-0.52-0.713-0.904-0.915c-0.383-0.205-0.812-0.305-1.289-0.305c-0.453,0-0.861,0.087-1.229,0.264
			c-0.363,0.178-0.65,0.426-0.855,0.748v-3.108h-1.049v8.521h1.049V17.548z"/>
		<path fill="#31363C" d="M151.229,19.938c-0.305,0.211-0.682,0.316-1.135,0.316c-0.553,0-1.023-0.174-1.41-0.523
			c-0.389-0.35-0.602-0.835-0.641-1.457h5.045c0.021-0.222,0.033-0.434,0.033-0.633c0-0.576-0.125-1.092-0.373-1.548
			c-0.25-0.458-0.605-0.816-1.066-1.077c-0.459-0.261-0.99-0.392-1.588-0.392c-0.615,0-1.158,0.132-1.629,0.396
			c-0.473,0.266-0.84,0.644-1.102,1.134c-0.26,0.492-0.391,1.064-0.391,1.717s0.135,1.227,0.402,1.721
			c0.27,0.496,0.641,0.877,1.111,1.146c0.473,0.269,1.008,0.403,1.607,0.403c0.752,0,1.383-0.19,1.889-0.57
			c0.506-0.381,0.844-0.873,1.012-1.479h-1.127C151.744,19.444,151.529,19.727,151.229,19.938z M148.693,16.017
			c0.373-0.337,0.824-0.506,1.354-0.506c0.369,0,0.705,0.074,1.008,0.225c0.303,0.149,0.543,0.367,0.721,0.656
			c0.176,0.287,0.264,0.631,0.264,1.03h-3.984C148.109,16.822,148.322,16.355,148.693,16.017z"/>
		<path fill="#31363C" d="M123.787,31.342c-0.633-0.277-1.465-0.56-2.502-0.845c-0.855-0.24-1.52-0.454-1.994-0.643
			c-0.473-0.187-0.869-0.462-1.193-0.822c-0.322-0.36-0.484-0.825-0.484-1.396c0-0.796,0.271-1.415,0.812-1.857
			c0.539-0.444,1.238-0.666,2.094-0.666c0.916,0,1.652,0.229,2.207,0.688c0.557,0.457,0.871,0.987,0.947,1.588h2.252
			c-0.119-1.217-0.65-2.192-1.588-2.93c-0.939-0.734-2.145-1.104-3.615-1.104c-1.021,0-1.926,0.181-2.715,0.541
			s-1.4,0.872-1.836,1.532c-0.436,0.661-0.654,1.419-0.654,2.274c0,0.977,0.223,1.754,0.666,2.332
			c0.441,0.579,0.975,1.002,1.6,1.272c0.621,0.271,1.453,0.54,2.488,0.812c0.842,0.226,1.51,0.436,2.006,0.631
			c0.494,0.195,0.908,0.48,1.238,0.855c0.33,0.376,0.496,0.864,0.496,1.465c0,0.766-0.281,1.393-0.846,1.88
			c-0.562,0.489-1.332,0.733-2.309,0.733c-1.021,0-1.799-0.252-2.332-0.756c-0.533-0.502-0.836-1.121-0.912-1.857h-2.184
			c0.014,0.856,0.254,1.61,0.721,2.264c0.465,0.654,1.107,1.165,1.924,1.532c0.818,0.368,1.748,0.552,2.783,0.552
			c1.082,0,2.02-0.211,2.816-0.632c0.795-0.42,1.396-0.969,1.803-1.644c0.404-0.676,0.607-1.397,0.607-2.162
			c0-0.992-0.225-1.776-0.676-2.354S124.418,31.621,123.787,31.342z"/>
		<path fill="#31363C" d="M67.618,23.648l-5.677,15.612h2.162l1.263-3.493h6.847l1.263,3.493h2.162l-5.654-15.612H67.618z
			 M65.95,34.101l2.839-7.929l2.839,7.929H65.95z"/>
		<path fill="#31363C" d="M88.138,27.501c-0.894-0.525-1.889-0.788-2.986-0.788c-1.065,0-2,0.236-2.804,0.709
			c-0.804,0.474-1.407,1.063-1.813,1.769v-2.275h-2.05v18.202h2.05v-8.133c0.42,0.706,1.033,1.295,1.836,1.769s1.73,0.71,2.781,0.71
			c1.098,0,2.093-0.271,2.986-0.812c0.893-0.54,1.595-1.298,2.106-2.274c0.51-0.976,0.765-2.088,0.765-3.334
			c0-1.262-0.255-2.369-0.765-3.323C89.732,28.766,89.03,28.026,88.138,27.501z M88.351,35.509c-0.375,0.698-0.882,1.232-1.52,1.601
			c-0.639,0.367-1.341,0.551-2.105,0.551c-0.752,0-1.446-0.184-2.085-0.551c-0.638-0.368-1.149-0.902-1.532-1.601
			s-0.574-1.513-0.574-2.442c0-0.918,0.191-1.725,0.574-2.423s0.895-1.231,1.532-1.6c0.639-0.368,1.333-0.552,2.085-0.552
			c0.765,0,1.467,0.18,2.105,0.54c0.638,0.36,1.145,0.886,1.52,1.577c0.376,0.691,0.564,1.502,0.564,2.434
			C88.915,33.988,88.727,34.811,88.351,35.509z"/>
		<path fill="#31363C" d="M103.734,27.501c-0.893-0.525-1.887-0.788-2.984-0.788c-1.066,0-2,0.236-2.805,0.709
			c-0.805,0.474-1.408,1.063-1.812,1.769v-2.275h-2.051v18.202h2.051v-8.133c0.42,0.706,1.033,1.295,1.836,1.769
			s1.73,0.71,2.781,0.71c1.098,0,2.092-0.271,2.984-0.812c0.895-0.54,1.598-1.298,2.107-2.274c0.51-0.976,0.766-2.088,0.766-3.334
			c0-1.262-0.256-2.369-0.766-3.323S104.629,28.026,103.734,27.501z M103.949,35.509c-0.375,0.698-0.883,1.232-1.52,1.601
			c-0.639,0.367-1.342,0.551-2.107,0.551c-0.75,0-1.445-0.184-2.084-0.551c-0.639-0.368-1.148-0.902-1.531-1.601
			s-0.574-1.513-0.574-2.442c0-0.918,0.191-1.725,0.574-2.423s0.893-1.231,1.531-1.6s1.334-0.552,2.084-0.552
			c0.766,0,1.469,0.18,2.107,0.54c0.637,0.36,1.145,0.886,1.52,1.577s0.564,1.502,0.564,2.434
			C104.514,33.988,104.324,34.811,103.949,35.509z"/>
		<path fill="#31363C" d="M131.973,23.807h-2.051v3.108h-1.598v1.689h1.598v7.276c0,1.202,0.285,2.064,0.857,2.591
			c0.57,0.526,1.426,0.789,2.566,0.789h1.848v-1.735h-1.508c-0.633,0-1.074-0.123-1.33-0.371s-0.383-0.673-0.383-1.273v-7.276h3.221
			v-1.689h-3.221V23.807z"/>
		<path fill="#31363C" d="M146.877,27.49c-0.947-0.52-2.006-0.777-3.176-0.777c-1.174,0-2.232,0.258-3.178,0.777
			c-0.947,0.518-1.693,1.261-2.242,2.229s-0.82,2.084-0.82,3.347c0,1.275,0.266,2.397,0.799,3.367
			c0.531,0.969,1.268,1.715,2.207,2.24c0.938,0.526,1.986,0.789,3.143,0.789c1.172,0,2.236-0.263,3.199-0.789
			c0.961-0.525,1.723-1.271,2.287-2.24c0.562-0.97,0.844-2.092,0.844-3.367c0-1.277-0.273-2.396-0.822-3.358
			C148.57,28.748,147.822,28.008,146.877,27.49z M147.248,35.588c-0.398,0.69-0.922,1.21-1.566,1.555
			c-0.646,0.346-1.336,0.518-2.072,0.518s-1.412-0.169-2.027-0.506c-0.617-0.339-1.107-0.854-1.475-1.544
			c-0.369-0.691-0.553-1.539-0.553-2.544c0-0.992,0.188-1.833,0.562-2.524s0.875-1.205,1.498-1.543s1.311-0.507,2.062-0.507
			c0.734,0,1.418,0.169,2.049,0.507s1.143,0.852,1.531,1.543c0.391,0.691,0.586,1.532,0.586,2.524
			C147.844,34.057,147.646,34.896,147.248,35.588z"/>
		<path fill="#31363C" d="M155.062,28.92v-2.005h-2.051v12.346h2.051v-6.714c0-2.493,1.148-3.74,3.445-3.74h0.541V26.69
			c-0.961,0-1.775,0.194-2.443,0.585C155.936,27.667,155.422,28.215,155.062,28.92z"/>
		<path fill="#31363C" d="M173.047,32.614c0-1.126-0.244-2.136-0.732-3.03c-0.488-0.892-1.182-1.595-2.084-2.105
			c-0.9-0.51-1.938-0.766-3.107-0.766c-1.203,0-2.266,0.258-3.189,0.777c-0.922,0.518-1.641,1.258-2.15,2.218
			c-0.51,0.962-0.766,2.081-0.766,3.358c0,1.275,0.262,2.397,0.787,3.367c0.527,0.969,1.252,1.715,2.176,2.24
			c0.922,0.526,1.971,0.789,3.143,0.789c1.471,0,2.703-0.372,3.693-1.115c0.992-0.744,1.652-1.707,1.982-2.895h-2.207
			c-0.24,0.69-0.658,1.243-1.252,1.656c-0.592,0.412-1.332,0.619-2.217,0.619c-1.082,0-2.002-0.342-2.762-1.025
			c-0.758-0.683-1.174-1.633-1.248-2.85h9.865C173.023,33.418,173.047,33.005,173.047,32.614z M163.135,32.187
			c0.105-1.171,0.521-2.088,1.25-2.748s1.611-0.991,2.646-0.991c0.723,0,1.379,0.146,1.973,0.439
			c0.592,0.292,1.061,0.721,1.406,1.283c0.346,0.563,0.52,1.236,0.52,2.017H163.135z"/>
	</g>
</g>
</svg>
