<?xml version="1.0" encoding="utf-8"?>
<!-- Generator: Adobe Illustrator 15.0.0, SVG Export Plug-In . SVG Version: 6.00 Build 0)  -->
<!DOCTYPE svg PUBLIC "-//W3C//DTD SVG 1.1//EN" "http://www.w3.org/Graphics/SVG/1.1/DTD/svg11.dtd">
<svg version="1.1" id="Layer_1" xmlns="http://www.w3.org/2000/svg" xmlns:xlink="http://www.w3.org/1999/xlink" x="0px" y="0px"
	 width="110px" height="100px" viewBox="-10 -10 110 100" enable-background="new -10 -10 110 100" xml:space="preserve">
<g>
	<g>
		<polygon fill="#61C4F2" points="-6.248,60.09 -6.248,81.545 9.486,81.545 10.017,78.547 		"/>
	</g>
	<g>
		<rect x="-0.764" y="5.46" fill="#61C4F2" width="81.77" height="10.287"/>
	</g>
	<g>
		<path fill="#589442" d="M72.995,41.891c-12.891,0-23.34,10.449-23.34,23.34s10.449,23.34,23.34,23.34
			c12.89,0,23.339-10.449,23.339-23.34S85.885,41.891,72.995,41.891z M71.164,67.477c-1.979,0-3.584-1.662-3.584-3.713
			c0-2.049,1.605-3.711,3.584-3.711c1.979,0,3.584,1.662,3.584,3.711C74.748,65.814,73.144,67.477,71.164,67.477z"/>
	</g>
	<g>
		<rect x="5.253" y="26.104" fill="#F86464" width="8.94" height="8.941"/>
	</g>
	<g>
		<rect x="23.02" y="26.104" fill="#F86464" width="8.941" height="8.941"/>
	</g>
	<g>
		<rect x="40.787" y="26.104" fill="#F86464" width="8.941" height="8.941"/>
	</g>
	<g>
		<path fill="#445462" d="M45.258,80.057H14.493V60.09c0-0.791-0.641-1.432-1.431-1.432H-5.116V17.177h85.108V34.55
			c0,0.79,0.641,1.43,1.43,1.43c0.791,0,1.431-0.641,1.431-1.43V1.009c0-0.79-0.64-1.431-1.431-1.431H55.681v-2.784
			c0-2.169,1.765-3.934,3.934-3.934s3.934,1.765,3.934,3.934c0,1.89,2.86,1.893,2.86,0c0-3.747-3.047-6.794-6.794-6.794
			c-3.746,0-6.794,3.048-6.794,6.794v2.784H16.166v-2.784c0-2.169,1.765-3.934,3.934-3.934c2.168,0,3.934,1.765,3.934,3.934
			c0,0.79,0.641,1.43,1.43,1.43C28.657-1.775,26.447-10,20.1-10c-3.746,0-6.795,3.048-6.795,6.794v2.784H-6.547
			c-0.789,0-1.43,0.641-1.43,1.431C-7.977,33.837-8,74.863-8,81.545c0,0.791,0.648,1.432,1.449,1.432
			c0.344,0,21.082,0.031,21.413-0.059h30.396c0.789,0,1.43-0.641,1.43-1.432C46.688,80.697,46.047,80.057,45.258,80.057z
			 M11.633,78.207L-3.299,61.52h14.932V78.207z M13.305,2.439v4.726H6.626c-0.79,0-1.431,0.641-1.431,1.431
			c0,0.79,0.641,1.43,1.431,1.43h16.449c1.89,0,1.894-2.861,0-2.861h-6.909V2.439H52.82v4.726h-6.144c-1.89,0-1.893,2.861,0,2.861
			h16.449c1.89,0,1.894-2.861,0-2.861h-7.445V2.439h24.312v11.877H-5.116V2.439H13.305z M-5.1,63.797L9.502,80.115H-5.1V63.797z"/>
		<path fill="#445462" d="M42.386,86.551H-6.248c-1.89,0-1.893,2.861,0,2.861h48.634C44.275,89.412,44.278,86.551,42.386,86.551z"/>
		<path fill="#445462" d="M71.231,37.408c-14.499,0-26.296,11.797-26.296,26.297C44.936,78.203,56.732,90,71.231,90
			s26.296-11.797,26.296-26.295C97.527,49.205,85.73,37.408,71.231,37.408z M71.231,87.141c-12.923,0-23.435-10.514-23.435-23.436
			c0-12.924,10.512-23.436,23.435-23.436s23.436,10.512,23.436,23.436C94.667,76.627,84.154,87.141,71.231,87.141z"/>
		<path fill="#445462" d="M71.231,43.846c-10.95,0-19.858,8.908-19.858,19.859c0,1.889,2.861,1.893,2.861,0
			c0-9.373,7.625-17,16.997-17c15.072,0,22.693,18.301,12.03,28.996c-1.335,1.34,0.69,3.359,2.025,2.02
			C97.758,65.213,88.814,43.846,71.231,43.846z"/>
		<path fill="#445462" d="M58.655,24.674c-0.79,0-1.431,0.641-1.431,1.43v8.941c0,0.79,0.641,1.43,1.431,1.43h8.94
			c0.791,0,1.431-0.64,1.431-1.43v-8.941c0-0.79-0.64-1.43-1.431-1.43H58.655z M66.166,33.615h-6.08v-6.08h6.08V33.615z"/>
		<path fill="#445462" d="M5.253,42.639c-0.79,0-1.431,0.641-1.431,1.43v8.941c0,0.791,0.641,1.432,1.431,1.432h8.94
			c0.79,0,1.43-0.641,1.43-1.432v-8.941c0-0.789-0.64-1.43-1.43-1.43H5.253z M12.764,51.58h-6.08V45.5h6.08V51.58z"/>
		<path fill="#445462" d="M23.02,54.441h8.941c0.789,0,1.43-0.641,1.43-1.432v-8.941c0-0.789-0.641-1.43-1.43-1.43H23.02
			c-0.789,0-1.43,0.641-1.43,1.43v8.941C21.59,53.801,22.23,54.441,23.02,54.441z M24.451,45.5h6.079v6.08h-6.079V45.5z"/>
		<path fill="#445462" d="M23.078,72.018h8.939c0.791,0,1.431-0.641,1.431-1.432v-8.939c0-0.791-0.64-1.43-1.431-1.43h-8.939
			c-0.791,0-1.432,0.639-1.432,1.43v8.939C21.646,71.377,22.287,72.018,23.078,72.018z M24.508,63.076h6.08v6.08h-6.08V63.076z"/>
		<path fill="#445462" d="M44.244,42.639h-3.457c-0.79,0-1.431,0.641-1.431,1.43v8.941c0,1.891,2.86,1.895,2.86,0V45.5h2.027
			C46.134,45.5,46.137,42.639,44.244,42.639z"/>
		<path fill="#445462" d="M39.414,61.646v8.939c0,1.891,2.86,1.895,2.86,0v-8.939C42.274,59.756,39.414,59.754,39.414,61.646z"/>
		<path fill="#445462" d="M75.762,65.605c1.237-2.834-0.385-6.064-3.338-6.822v-8.707c0-0.789-0.641-1.43-1.431-1.43
			s-1.431,0.641-1.431,1.43v8.822c-1.957,0.676-3.369,2.531-3.369,4.717c0,3.945,4.396,6.346,7.713,4.18
			c4.934,4.934,4.778,4.977,5.568,4.977c1.262,0,1.915-1.537,1.012-2.441L75.762,65.605z M69.054,63.615
			c0-1.24,1.056-2.096,1.939-2.096c0.096,0,0.189-0.01,0.279-0.027c1.134,0.047,2.046,0.977,2.046,2.123
			C73.318,66.434,69.054,66.434,69.054,63.615z"/>
		<path fill="#445462" d="M47.709,87.611c-0.49,1.947,2.452,2.684,2.941,0.74S48.199,85.666,47.709,87.611z"/>
	</g>
</g>
</svg>
