<?xml version="1.0" encoding="utf-8"?>
<!-- Generator: Adobe Illustrator 15.0.0, SVG Export Plug-In . SVG Version: 6.00 Build 0)  -->
<!DOCTYPE svg PUBLIC "-//W3C//DTD SVG 1.1//EN" "http://www.w3.org/Graphics/SVG/1.1/DTD/svg11.dtd">
<svg version="1.1" id="Layer_1" xmlns="http://www.w3.org/2000/svg" xmlns:xlink="http://www.w3.org/1999/xlink" x="0px" y="0px"
	 width="20px" height="20px" viewBox="0 0 20 20" enable-background="new 0 0 20 20" xml:space="preserve">
<path marker-end="none" marker-start="none" fill="#B3B3B3" d="M8.342,19.451c-0.565,0.001-1.132,0-1.685-0.01
	c-1.107-0.018-2.186-0.072-3.131-0.208c-0.703-0.101-1.357-0.251-1.904-0.481c-0.182-0.077-0.354-0.164-0.509-0.261
	c-0.651-0.399-1.074-0.99-1.074-1.806c0-0.019,0-0.034,0.002-0.053c0.025-0.208,0.079-0.408,0.168-0.588
	c0.089-0.183,0.212-0.345,0.377-0.482l0.055-0.035l-0.029-0.022c-0.069-0.085-0.105-0.194-0.095-0.312
	c0.046-0.468,0.187-0.902,0.489-1.221c0.31-0.329,0.735-0.483,1.239-0.489h15.598c0.007,0,0.022,0,0.029,0.001
	c0.517,0.035,0.934,0.216,1.222,0.551c0.279,0.326,0.393,0.744,0.426,1.166c0.01,0.118-0.029,0.227-0.1,0.31l-0.023,0.018
	l0.121,0.088c0.155,0.142,0.266,0.304,0.342,0.479c0.077,0.174,0.119,0.36,0.139,0.549c0,0.015,0.002,0.027,0.002,0.042
	c0,0.777-0.391,1.352-1.006,1.746c-0.592,0.383-1.402,0.609-2.312,0.753c-0.457,0.071-0.951,0.124-1.475,0.164
	c-1.045,0.075-2.2,0.095-3.389,0.098c-0.596,0.001-1.198,0-1.799,0C9.472,19.446,8.907,19.449,8.342,19.451z M10.02,18.597
	c0.615,0,1.223,0.003,1.813,0c1.774-0.007,3.41-0.045,4.717-0.251c0.872-0.137,1.542-0.342,1.983-0.628
	c0.366-0.234,0.564-0.511,0.608-0.872l0.009-0.137l-0.023-0.144c-0.037-0.144-0.098-0.244-0.179-0.319
	c-0.099-0.088-0.271-0.176-0.577-0.211l-6.565-0.011l-1.832,1.552c-0.081,0.07-0.181,0.104-0.281,0.102
	c-0.1-0.001-0.2-0.038-0.278-0.109l-1.709-1.546H1.841c-0.373,0.007-0.588,0.093-0.714,0.194c-0.105,0.089-0.187,0.221-0.229,0.427
	l-0.009,0.064l0.008,0.146c0.047,0.381,0.263,0.672,0.661,0.916c0.477,0.292,1.189,0.494,2.089,0.624l1.319,0.128l0.402,0.023
	l1.109,0.04l0.336,0.008L10.02,18.597z M9.708,16.689l2.779-2.355l-5.388-0.003L9.708,16.689z M1.375,15.223L1.478,15.2
	c0.115-0.016,0.235-0.022,0.359-0.026h4.929l-0.801-0.725l-0.089-0.118H2.252c-0.323,0.005-0.509,0.098-0.628,0.222
	C1.561,14.62,1.505,14.712,1.46,14.83L1.375,15.223z M18.666,15.223l-0.071-0.365c-0.037-0.113-0.088-0.2-0.146-0.27
	c-0.103-0.117-0.269-0.22-0.575-0.252l-4.209-0.002l-0.026,0.09c-0.024,0.051-0.059,0.096-0.104,0.134l-0.728,0.616h5.448
	c0.004,0,0.017,0.002,0.022,0.002c0.128,0.007,0.25,0.021,0.367,0.042L18.666,15.223z M5.377,13.314
	c-0.551-0.013-1.036-0.156-1.464-0.348c-0.687-0.313-1.236-0.496-1.736-0.497c-0.474-0.003-0.946,0.157-1.468,0.629
	c-0.172,0.157-0.442,0.142-0.6-0.032c-0.157-0.175-0.143-0.443,0.032-0.6c0.659-0.594,1.327-0.852,2.04-0.848
	c0.691,0.004,1.382,0.254,2.082,0.575c0.398,0.176,0.832,0.291,1.318,0.269c0.486-0.02,1.059-0.18,1.735-0.594
	c0.833-0.488,1.535-0.634,2.233-0.544c0.338,0.044,0.664,0.143,0.985,0.265c0.318,0.123,0.648,0.277,0.989,0.432
	c0.382,0.173,0.641,0.309,0.955,0.352c0.292,0.039,0.675,0,1.268-0.281c0.789-0.378,1.423-0.62,2.054-0.66
	c0.646-0.043,1.244,0.123,1.965,0.455c0.433,0.193,0.909,0.312,1.453,0.262c0.234-0.021,0.44,0.148,0.464,0.382
	c0.02,0.233-0.15,0.439-0.384,0.463c-0.725,0.068-1.348-0.096-1.883-0.334c-0.665-0.305-1.112-0.411-1.559-0.381
	c-0.458,0.03-0.962,0.205-1.745,0.578c-0.702,0.335-1.252,0.424-1.746,0.358c-0.242-0.033-0.456-0.102-0.651-0.178
	c-0.187-0.075-0.357-0.159-0.541-0.24c-0.733-0.338-1.222-0.563-1.732-0.631c-0.479-0.062-0.993,0.023-1.688,0.432
	C6.979,13.07,6.27,13.283,5.62,13.311C5.537,13.315,5.457,13.317,5.377,13.314z M2.765,11.17c-0.484-0.008-0.893-0.169-1.186-0.501
	c-0.281-0.32-0.412-0.749-0.454-1.214C1.12,9.396,1.127,9.341,1.143,9.287L1.154,9.27L1.125,9.264
	C0.499,9.067,0.127,8.596,0.042,7.911C0.04,7.892,0.04,7.874,0.04,7.856C0.04,3.438,4.615,0,10.02,0C15.438,0,20,3.426,20,7.856
	c0,0.014-0.002,0.029-0.002,0.042C19.935,8.53,19.619,9.008,19,9.231l-0.119,0.031l0.009,0.017c0.019,0.053,0.027,0.109,0.022,0.167
	c-0.03,0.419-0.135,0.833-0.396,1.159c-0.271,0.338-0.668,0.526-1.166,0.563c-0.009,0.002-0.023,0.002-0.031,0.002H2.765z
	 M17.393,10.319c0.234-0.045,0.371-0.133,0.462-0.246c0.108-0.136,0.187-0.355,0.211-0.689l0.003-0.017H1.969l0.002,0.01
	C2.005,9.746,2.1,9.975,2.216,10.108c0.109,0.121,0.273,0.207,0.557,0.211H17.393z M18.241,8.519l0.253-0.027
	c0.231-0.043,0.37-0.119,0.454-0.194c0.081-0.074,0.142-0.175,0.179-0.322l0.023-0.142l-0.047-0.681
	c-0.455-3.474-4.261-6.305-9.084-6.305c-4.811,0-8.628,2.841-9.086,6.308L0.889,7.832l0.024,0.137
	c0.094,0.356,0.348,0.544,0.928,0.55H18.241z M16.529,7.479c-0.137,0.002-0.271-0.062-0.355-0.181
	c-0.133-0.192-0.087-0.457,0.104-0.592l0.425-0.297c0.192-0.133,0.458-0.086,0.592,0.105c0.136,0.192,0.088,0.458-0.105,0.591
	l-0.424,0.297C16.693,7.453,16.612,7.479,16.529,7.479z M3.185,7.396c-0.137-0.001-0.27-0.067-0.351-0.19L2.579,6.823
	c-0.13-0.195-0.078-0.458,0.117-0.588c0.195-0.129,0.458-0.078,0.589,0.117L3.54,6.734c0.13,0.194,0.078,0.458-0.118,0.589
	C3.349,7.371,3.268,7.396,3.185,7.396z M9.929,7.013c-0.082-0.002-0.164-0.028-0.235-0.08L9.099,6.509
	C8.907,6.373,8.864,6.108,9,5.917c0.135-0.191,0.402-0.235,0.591-0.099l0.596,0.425c0.19,0.135,0.235,0.4,0.099,0.59
	C10.2,6.954,10.065,7.017,9.929,7.013z M13.858,6.291c-0.107,0.004-0.218-0.036-0.303-0.115l-0.765-0.723
	c-0.17-0.161-0.179-0.431-0.017-0.6c0.161-0.171,0.431-0.178,0.601-0.018l0.764,0.723c0.171,0.16,0.178,0.43,0.017,0.6
	C14.075,6.243,13.969,6.287,13.858,6.291z M5.494,6.079C5.425,6.08,5.355,6.067,5.292,6.034c-0.21-0.105-0.295-0.359-0.191-0.57
	l0.34-0.68C5.545,4.575,5.8,4.489,6.01,4.594c0.209,0.104,0.295,0.36,0.189,0.57L5.86,5.843C5.789,5.987,5.644,6.073,5.494,6.079z
	 M16.766,5.526c-0.107-0.002-0.215-0.047-0.296-0.133C15.182,4.04,13.65,3.237,11.925,2.84c-0.229-0.053-0.37-0.28-0.318-0.509
	c0.053-0.23,0.282-0.372,0.51-0.32c1.87,0.432,3.556,1.312,4.968,2.798c0.163,0.169,0.156,0.437-0.014,0.6
	C16.985,5.49,16.876,5.528,16.766,5.526z M7.728,3.063C7.562,3.061,7.405,2.962,7.338,2.8C7.249,2.584,7.353,2.335,7.569,2.245
	l0.723-0.297c0.216-0.09,0.465,0.014,0.554,0.23c0.088,0.217-0.015,0.466-0.231,0.556L7.893,3.031
	C7.839,3.054,7.782,3.063,7.728,3.063z"/>
</svg>
