<?xml version="1.0" encoding="utf-8"?>
<!-- Generator: Adobe Illustrator 15.0.0, SVG Export Plug-In . SVG Version: 6.00 Build 0)  -->
<!DOCTYPE svg PUBLIC "-//W3C//DTD SVG 1.1//EN" "http://www.w3.org/Graphics/SVG/1.1/DTD/svg11.dtd">
<svg version="1.1" id="Layer_1" xmlns="http://www.w3.org/2000/svg" xmlns:xlink="http://www.w3.org/1999/xlink" x="0px" y="0px"
	 width="300px" height="300px" viewBox="0 0 300 300" enable-background="new 0 0 300 300" xml:space="preserve">
<g opacity="0.04">
	<g>
		<path fill="#232323" d="M124.027,291.01c0.038-0.104,0.077-0.206,0.106-0.306l0,0c1.159-3.339,0.315-6.401-0.278-7.914v-0.001
			c-0.436-0.175-0.855-0.224-1.419,0.023c0.564-0.247,1.034-0.219,1.469-0.044c-0.128-0.329-0.269-0.571-0.35-0.741
			c0.003-0.018,0-0.025,0.003-0.043c0.013-0.041,0.017-0.078,0.028-0.124c0.266,0.157-0.039-2.142-0.095-3.313
			c-0.028-0.097-0.057-0.187-0.085-0.267c-0.541-1.561-1.368-2.572-2.285-3.214c-0.14-0.59-0.475-1.731-1.168-2.998
			c-0.195-0.356-0.419-0.723-0.676-1.091c-0.385-0.553-0.844-1.107-1.389-1.633s-1.176-1.021-1.905-1.455
			c-0.384-0.229-0.783-0.431-1.195-0.61c-0.138-0.06-0.286-0.104-0.427-0.158c-0.28-0.107-0.56-0.217-0.852-0.304
			c-0.177-0.052-0.363-0.088-0.545-0.132c-0.269-0.066-0.538-0.134-0.816-0.182c-0.201-0.035-0.411-0.055-0.617-0.08
			c-0.273-0.034-0.545-0.068-0.827-0.087c-0.22-0.014-0.448-0.015-0.673-0.02c-0.281-0.005-0.562-0.009-0.85,0.001
			c-0.238,0.008-0.481,0.026-0.725,0.045c-0.29,0.022-0.582,0.047-0.879,0.083c-0.252,0.031-0.509,0.07-0.768,0.112
			c-0.302,0.048-0.607,0.102-0.917,0.164c-0.266,0.054-0.534,0.113-0.805,0.178c-0.154,0.037-0.303,0.062-0.458,0.102
			c-0.043,0.017-0.107,0.038-0.166,0.06c-0.066,0.023-0.14,0.049-0.225,0.077c-0.778,0.263-2.29,0.733-4.069,1.292
			c-4.017,1.384-7.713,2.613-11.164,3.739c-0.003,0.002-0.012,0.005-0.015,0.007c-0.041,0.021-0.134,0.055-0.254,0.096
			c-0.56,0.192-1.874,0.587-3.163,1.008c-1.393,0.449-2.733,0.878-4.05,1.298c-0.633,0.202-1.271,0.405-1.887,0.603
			c-0.054,0.014-0.128,0.03-0.214,0.05c-0.467,0.104-1.43,0.314-3.176,0.974l-0.016,0.01c-0.053,0.018-0.101,0.033-0.154,0.05
			c-3.508,1.121-6.548,2.152-9.375,3.134c-0.082,0.029-0.169,0.059-0.25,0.087c-1.291,0.449-3.181,1.106-5.283,1.994
			c-6.312,2.666-14.527,7.403-14.131,14.774c0,0.002,0,0.004,0,0.006c0.021,0.428,0.084,0.867,0.167,1.312
			c0.339,0.881,0.254,1.682-0.09,2.332c0.015,0.008,0.028,0.015,0.043,0.021c-0.013,0.024-0.023,0.051-0.036,0.075h2.324
			c0.1-0.098,0.201-0.193,0.299-0.271c0.123-0.099,0.242-0.182,0.35-0.25c0.216-0.138,0.39-0.22,0.468-0.254l2.059-0.715
			c0.177,0.237,0.366,0.485,0.564,0.742c0.188,0.242,0.384,0.493,0.587,0.748h2.444c-0.579-0.686-1.159-1.402-1.725-2.141
			l7.807-2.718l0,0c0.007,0.33,0.025,0.672,0.052,1.022c0.08,1.054,0.236,2.189,0.395,3.345c0.021,0.146,0.044,0.323,0.067,0.491
			h1.899c-0.034-0.25-0.064-0.494-0.099-0.748c-0.042-0.302-0.087-0.638-0.132-0.981c-0.059-0.449-0.118-0.916-0.167-1.393
			c-0.087-0.84-0.145-1.683-0.125-2.391l2.299-0.799c1.217,1.262,2.633,3.437,3.543,4.842c0.343,0.527,0.661,1.01,0.968,1.47h7.17
			l6.058-2.104c0.217,0.203,0.432,0.38,0.645,0.541c0.146,0.11,0.29,0.209,0.434,0.298c0.184,0.113,0.367,0.215,0.549,0.289
			c0.531,0.218,1.052,0.262,1.564,0.082c0.663-0.229,1.061-0.715,1.278-1.4c0.13-0.412,0.195-0.896,0.212-1.439l6.174-2.146
			c0.277,0.332,0.559,0.6,0.851,0.789c0.389,0.252,0.795,0.362,1.231,0.296c0.109-0.017,0.22-0.045,0.333-0.085
			c0.888-0.305,1.262-1.131,1.349-2.312l4.673-1.625c0.719,1.209,1.546,1.762,2.485,1.447c0.007-0.003,0.015-0.003,0.022-0.006
			c0.849-0.294,1.117-1.163,1.44-2.814c0.001-0.005,0.002-0.01,0.003-0.015l5.169-1.793c0.703,1.051,1.368,1.559,2.239,1.274
			c0.008-0.003,0.016-0.003,0.025-0.006c0.851-0.296,1.132-1.138,1.142-2.442c0,0,0-0.001,0-0.002l3.542-1.232
			c0.279-0.097,0.544-0.203,0.795-0.317c0.763-0.347,1.396-0.771,1.908-1.272c0.002-0.001,0.004-0.003,0.006-0.005
			c0.468,1.423,0.936,3.841-0.031,6.359c-0.533,1.383-1.424,2.639-2.675,3.76c-1.673,1.513-3.982,2.786-6.918,3.807
			c-2.047,0.711-3.994,1.4-5.875,2.074h5.647c0.283-0.099,0.56-0.196,0.846-0.296C118.971,297.728,122.583,294.8,124.027,291.01z
			 M73.118,299.765L73.118,299.765c-0.26-0.371-0.526-0.766-0.782-1.152c-0.256-0.387-0.503-0.766-0.725-1.106
			c-0.523-0.805-1.05-1.615-1.582-2.382c-0.532-0.766-1.067-1.487-1.608-2.113l5.846-2.029c-0.003,1.271,0.091,2.774,0.197,4.44
			c0.037,0.575,0.078,1.222,0.112,1.877c0.034,0.656,0.062,1.321,0.07,1.933L73.118,299.765z M76.448,297.052
			c-0.029-0.546-0.065-1.129-0.105-1.747c-0.022-0.362-0.048-0.762-0.072-1.181c-0.073-1.255-0.138-2.686-0.102-3.807l1.585-0.552
			c0.868,1,1.891,2.395,2.625,3.394c0.851,1.165,1.668,2.278,2.453,3.226l-6.321,2.198C76.5,298.108,76.477,297.598,76.448,297.052z
			 M86.8,297.327c-0.129,0.044-0.312-0.012-0.522-0.149l0.419-0.145l0.272-0.093C86.934,297.123,86.879,297.259,86.8,297.327z
			 M86.57,295.096l-1.819,0.629c-0.782-0.897-1.623-2.007-2.275-2.887c-0.217-0.294-0.414-0.562-0.58-0.788
			c-0.21-0.287-0.411-0.56-0.604-0.818s-0.38-0.505-0.562-0.739c-0.362-0.471-0.702-0.897-1.031-1.301l3.849-1.239l2.461-0.959
			c0.07,1.385,0.289,2.907,0.534,4.505c0.143,0.95,0.342,2.291,0.441,3.465L86.57,295.096z M88.626,292.801
			c-0.073-0.524-0.156-1.069-0.241-1.632c-0.007-0.046-0.015-0.103-0.023-0.15c-0.213-1.392-0.485-3.234-0.52-4.694
			c0-0.021-0.003-0.046-0.003-0.067l0,0l2.365-0.821c0.841,1.229,1.715,2.998,2.347,4.275c0.508,1.018,0.978,1.97,1.449,2.789
			l-5.189,1.806C88.764,293.827,88.7,293.324,88.626,292.801z M88.254,284.117c0.054-0.053,0.118-0.096,0.185-0.118
			c0.071-0.024,0.146-0.03,0.221-0.021L88.254,284.117z M95.813,291.868L95.813,291.868c-0.138-0.233-0.277-0.482-0.417-0.739
			c-0.418-0.769-0.831-1.601-1.154-2.254c-0.357-0.719-0.715-1.44-1.081-2.131s-0.737-1.351-1.122-1.945l3.871-1.346
			c0.023,0.32,0.054,0.65,0.092,0.988c0.112,1.015,0.281,2.104,0.457,3.209c0.169,1.099,0.409,2.611,0.497,3.819L95.813,291.868z
			 M98.798,290.833c-0.099-1.041-0.28-2.217-0.48-3.476c-0.174-1.097-0.475-3.033-0.554-4.552l1.702-0.591
			c0.181,0.32,0.362,0.669,0.541,1.04c0.539,1.11,1.069,2.412,1.59,3.685c0.382,0.937,0.73,1.792,1.066,2.545L98.798,290.833z
			 M97.989,280.735c0.035-0.051,0.082-0.085,0.131-0.101c0.004-0.002,0.029-0.003,0.087,0.024L97.989,280.735z M104.45,288.864
			c-0.39-0.858-0.786-1.842-1.108-2.635c-0.345-0.842-0.684-1.672-1.026-2.458c-0.342-0.785-0.688-1.524-1.045-2.184l0,0
			l3.897-1.356c-0.003,0.613,0.011,1.286,0.037,2.019c0.025,0.732,0.062,1.523,0.104,2.374c0.014,0.293,0.029,0.605,0.044,0.928
			c0.03,0.646,0.058,1.336,0.073,2c0.007,0.333,0.011,0.659,0.01,0.972L104.45,288.864z M107.314,287.868
			c-0.016-0.964-0.068-2.075-0.127-3.337c-0.037-0.715-0.079-1.571-0.106-2.44c-0.027-0.869-0.04-1.752-0.016-2.518l1.322-0.462
			c0.627,1.219,1.312,2.841,1.801,4.01c0.257,0.614,0.502,1.196,0.738,1.74c0.236,0.543,0.463,1.05,0.686,1.513L107.314,287.868z
			 M114.055,285.525l-0.646,0.225c-0.508-1.043-1.057-2.34-1.482-3.356c-0.609-1.455-1.178-2.8-1.743-3.906l2.744-0.954
			c0.107,1.328,0.357,2.852,0.617,4.459c0.131,0.795,0.285,1.75,0.404,2.654C113.988,284.947,114.024,285.243,114.055,285.525
			L114.055,285.525z M112.909,275.319c-0.008,0.08-0.013,0.153-0.02,0.233l-3.688,1.283c-0.12-0.164-0.239-0.313-0.36-0.446
			c-0.159-0.179-0.321-0.332-0.486-0.457c-0.33-0.25-0.674-0.388-1.037-0.394c-0.181-0.003-0.368,0.028-0.559,0.094
			c-0.625,0.216-1.023,0.74-1.26,1.55c-0.09,0.297-0.157,0.637-0.209,1.011l-5.077,1.77c-0.402-0.485-0.814-0.849-1.257-1.052
			c-0.452-0.203-0.935-0.236-1.452-0.056c-0.445,0.156-0.782,0.425-1.026,0.792c-0.318,0.46-0.492,1.079-0.564,1.81l-5.087,1.768
			c-0.551-0.571-1.134-0.965-1.758-1.092c-0.199-0.042-0.401-0.058-0.608-0.045c-0.207,0.014-0.418,0.057-0.637,0.133
			c-0.458,0.161-0.81,0.431-1.076,0.793c-0.376,0.504-0.583,1.179-0.688,1.952l-2.652,1.003l-5.112,1.697
			c-0.455-0.402-0.884-0.697-1.306-0.853h0c-0.318-0.116-0.635-0.151-0.954-0.096c-0.546,0.097-0.937,0.408-1.208,0.904
			c-0.194,0.353-0.328,0.802-0.417,1.334l-7.513,2.605c-0.595-0.436-1.189-0.708-1.793-0.751c-0.343-0.024-0.681,0.021-1.028,0.155
			c-0.215,0.085-0.41,0.191-0.58,0.319c-0.547,0.413-0.874,1.035-1.043,1.811l-9.141,3.18c-0.195-0.271-0.39-0.541-0.57-0.812
			c-0.018-0.019-0.033-0.043-0.046-0.062c-0.297-0.428-0.882-0.535-1.315-0.24c-0.328,0.229-0.468,0.625-0.375,0.994
			c0.009,0.047,0.025,0.096,0.045,0.145c0.025,0.061,0.053,0.115,0.092,0.17c0.087,0.122,0.19,0.272,0.316,0.45l-1.545,0.54
			c-0.015,0-0.032,0.008-0.045,0.014c-0.217,0.091-0.448,0.208-0.688,0.354c-0.109-0.419-0.181-0.833-0.22-1.245
			c-0.038-0.366-0.05-0.729-0.037-1.088c0.027-0.719,0.157-1.426,0.39-2.12c0.117-0.347,0.259-0.69,0.427-1.032
			c0.336-0.682,0.776-1.353,1.32-2.011c0.816-0.988,1.866-1.95,3.152-2.888c0.857-0.626,1.819-1.24,2.886-1.844
			c2.668-1.511,5.994-2.956,9.985-4.343c1.797-0.626,3.724-1.265,5.797-1.938c1.037-0.337,2.109-0.682,3.221-1.037
			c0.556-0.177,1.121-0.357,1.696-0.541c0.576-0.183,1.161-0.369,1.757-0.559c5.795-1.847,12.269-3.902,19.892-6.51
			c1.089-0.372,2.202-0.756,3.339-1.151c3.201-1.114,6.008-1.534,8.391-1.263c1.43,0.163,2.707,0.576,3.826,1.237
			c0.221,0.131,0.431,0.269,0.63,0.413c0.399,0.288,0.757,0.6,1.077,0.924c0.321,0.324,0.604,0.662,0.854,1.001
			c0.375,0.508,0.675,1.021,0.915,1.5c0.147,0.291,0.27,0.572,0.375,0.834c-0.47-0.074-0.918-0.085-1.328-0.052
			c-0.108-0.087-0.22-0.173-0.325-0.252c-1.044-0.777-1.994-1.166-2.895-0.855C113.437,273.315,113.038,274.142,112.909,275.319z
			 M115.084,274.786l-0.165,0.059c0.012-0.021,0.022-0.045,0.036-0.062C114.994,274.778,115.036,274.781,115.084,274.786z
			 M118.954,283.821l-3.074,1.067c-0.057-0.472-0.128-0.974-0.209-1.507c-0.081-0.534-0.172-1.098-0.268-1.693
			c-0.21-1.306-0.53-3.275-0.63-4.796l2.199-0.768c0.155,0.139,0.311,0.281,0.465,0.425c0.307,0.286,0.606,0.572,0.875,0.833
			c0.134,0.13,0.261,0.253,0.377,0.366l0,0c0.016,0.015,0.03,0.034,0.045,0.048c-0.035,0.184-0.022,0.372,0.048,0.541
			c0.067,0.161,0.176,0.299,0.327,0.404l0.472,0.336l0.336,0.24l-0.281,0.949c-0.063,0.216-0.042,0.437,0.038,0.628
			c0.105,0.252,0.319,0.458,0.605,0.543c0.124,0.036,0.249,0.046,0.37,0.031c0.363-0.043,0.685-0.297,0.795-0.672l0.097-0.332
			l0.282,0.198c0.022,0.017,0.047,0.026,0.067,0.039c-0.018,0.236-0.06,0.479-0.139,0.716
			C121.416,282.483,120.473,283.292,118.954,283.821z"/>
		<path fill="#232323" d="M97.989,280.735l0.218-0.076c-0.058-0.027-0.083-0.026-0.087-0.024
			C98.07,280.65,98.023,280.685,97.989,280.735z"/>
		<path fill="#232323" d="M114.919,274.845l0.165-0.059c-0.048-0.005-0.09-0.008-0.129-0.003
			C114.942,274.8,114.932,274.824,114.919,274.845z"/>
		<path fill="#232323" d="M46.93,4.88c0.045,0.119,0.096,0.251,0.156,0.394c0.32,0.765,0.938,1.859,2.04,2.603
			c0.228,0.154,0.462,0.287,0.721,0.393c0.333,0.162,0.697,0.274,1.08,0.349c0.01,0.072,0.021,0.149,0.046,0.221
			c0.085,0.24,0.173,0.474,0.268,0.7c0.429,1.025,0.979,1.926,1.647,2.703s1.456,1.43,2.362,1.959
			c1.983,1.166,4.528,1.734,7.632,1.7c1.673-0.019,3.518-0.222,5.534-0.596c0.055-0.027,2.328-0.507,4.12-0.95
			c1.71-0.461,3.526-1.022,5.467-1.698c0.16-0.057,0.329-0.117,0.488-0.173c0.011,0.013,3.874-1.355,4.942-1.789
			c1.926-0.71,3.964-1.479,6.144-2.303c1.352-0.531,4.235-1.69,5.16-1.998c2.052-0.771,4.186-1.521,6.445-2.352
			c0.026,0.027,3.322-1.244,4.166-1.522c2.245-0.812,4.606-1.652,7.093-2.521h-5.647c-6.484,2.321-12.054,4.425-17.091,6.329
			c-4.678,1.771-8.718,3.298-12.317,4.551c-5.956,2.07-10.709,3.101-14.525,3.142c-0.895,0.008-1.73-0.036-2.51-0.133
			c-1.89-0.234-3.445-0.786-4.68-1.659c-1.234-0.874-2.149-2.07-2.757-3.594c0.252-0.04,0.508-0.091,0.77-0.156
			s0.528-0.145,0.799-0.241l0.985-0.341l4.61-1.604c0.808,0.523,1.586,0.869,2.292,0.946c0.235,0.026,0.463,0.021,0.681-0.016
			c0.16-0.026,0.309-0.065,0.447-0.116c0.413-0.151,0.726-0.408,0.958-0.75c0.31-0.457,0.476-1.065,0.545-1.778l7.444-2.587l0,0
			c0.338,0.406,0.665,0.737,0.986,0.981c0.536,0.407,1.061,0.571,1.612,0.433c0.717-0.181,1.118-0.751,1.318-1.721
			c0.067-0.324,0.111-0.691,0.137-1.104L78.168,0h-7.17c0.09,0.135,0.184,0.277,0.271,0.406l-6.268,2.181
			c-0.037-0.521-0.095-1.064-0.164-1.623C64.799,0.649,64.754,0.322,64.71,0h-1.899c0.015,0.111,0.029,0.206,0.044,0.324
			c0.079,0.594,0.162,1.272,0.221,1.936c0.029,0.332,0.053,0.66,0.068,0.972l-2.802,0.974C59.127,3.231,57.672,1.726,56.214,0H53.77
			c0.874,1.097,1.883,2.291,2.941,3.388c0.521,0.542,1.054,1.059,1.587,1.53l-4.433,1.541c-0.759,0.265-1.449,0.385-2.064,0.361
			c-0.308-0.012-0.597-0.06-0.867-0.144s-0.521-0.204-0.752-0.36c-0.149-0.101-0.285-0.214-0.409-0.333
			c-0.124-0.12-0.235-0.247-0.337-0.375l0.022-0.07l0,0l0.284,0.203c0.421,0.298,1.012,0.199,1.309-0.227
			c0.303-0.423,0.198-1.013-0.222-1.311l-0.812-0.574l0.281-0.95c0.143-0.499-0.143-1.022-0.639-1.172
			c-0.25-0.072-0.505-0.036-0.717,0.08c-0.212,0.116-0.38,0.311-0.455,0.56l-0.096,0.331c0.006-0.555,0.125-1.027,0.305-1.426
			c0.13-0.289,0.297-0.526,0.473-0.741c0.09-0.111,0.18-0.217,0.274-0.31h-2.324C46.479,1.212,46.217,2.831,46.93,4.88z
			 M74.537,1.263c-0.01,0.061-0.027,0.119-0.041,0.171c-0.04-0.035-0.082-0.074-0.124-0.112L74.537,1.263z"/>
		<path fill="#232323" d="M129.392,50.508c1.438,1.711,3.5,2.944,5.34,3.241c0.262,0.042,0.519,0.065,0.77,0.068
			c1.361,0.009,3.015-0.094,4.625-0.197c2.173-0.137,4.628-0.292,5.661-0.076c1.062,0.229,2.141-0.021,3.169-0.701
			c1.186-0.776,2.1-2.109,2.688-3.682c0.182-0.482,0.221-1,0.308-1.524l0.024-0.143c0.224-1.346-0.041-2.696-0.991-3.942
			c-1.806-2.336-5.312-3.964-9.49-4.358c-1.241-0.117-2.3-0.3-3.388-0.494c-3.917-0.684-7.306-1.281-9.923,3.905
			c-0.315,0.626-0.533,1.275-0.643,1.936c-0.141,0.847-0.107,1.717,0.09,2.569c0,0.001,0,0.002,0.001,0.004c0-0.001,0-0.002,0-0.003
			C127.91,48.296,128.505,49.452,129.392,50.508z M148.038,44.247l0.015-0.087c-0.005,0.03,0.035,0.068,0.085,0.108l0-0.004
			c0.124,0.065,0.246,0.137,0.361,0.213c0.228,0.205,0.308,0.397,0.482,0.619c0.526,0.683,0.612,1.337,0.504,1.985l-0.01,0.062
			c-0.264,1.583-0.971,2.931-1.969,3.584c-0.108,0.071-0.114,0.161-0.258,0.22l0.011-0.085c-0.042,0.021-0.074,0.047-0.122,0.066
			L148.038,44.247z M143.366,42.713l0.07-0.647c0.932,0.207,1.813,0.488,2.599,0.836l-0.066,0.438l-1.144,7.594
			c-0.699-0.026-1.502-0.006-2.366,0.029L143.366,42.713z M138.452,42.17l0.093-0.83c0.741,0.123,1.54,0.244,2.388,0.34
			l-0.073,0.667l-0.959,8.759c-0.822,0.055-1.656,0.102-2.442,0.137L138.452,42.17z M134.011,42.442l0.18-1.66
			c0.547-0.018,1.165,0.04,1.858,0.143l-0.145,1.289l-0.975,8.891c0,0.038,0.001,0.07,0.001,0.109
			c-0.542-0.123-1.165-0.379-1.804-0.774L134.011,42.442z M130.034,44.956c0.067-0.405,0.207-0.817,0.407-1.213
			c0.02-0.042,0.039-0.077,0.057-0.112c0.331-0.643,0.665-1.15,1.006-1.548l-0.121,1.113l-0.548,5.024
			C130.316,47.416,129.816,46.264,130.034,44.956z"/>
		<path fill="#232323" d="M113.558,66.432c0.569,0.351,1.356,0.892,2.269,1.517c2.861,1.956,5.526,3.705,7.813,4.803
			c0.081,0.052,0.164,0.091,0.249,0.118c2.05,0.952,3.783,1.341,5.063,0.813c0.177-0.074,0.346-0.166,0.504-0.276
			c-0.001,0.001-0.002,0.002-0.003,0.003c0.008-0.005,0.017-0.008,0.024-0.013c2.266-1.62,3.6-3.555,3.966-5.754
			c0.048-0.292,0.079-0.589,0.096-0.887c0.224-4.418-3.234-8.823-6.306-12.74c-0.332-0.427-0.665-0.853-0.98-1.265
			c-1.758-2.277-3.972-3.548-6.583-3.778c-3.279-0.29-7.058,1.187-10.11,3.957c-0.272,0.25-0.52,0.509-0.733,0.794
			c-0.533,0.699-0.876,1.493-1.022,2.372C107.153,60.045,110.792,64.709,113.558,66.432z M130.713,67.188
			c-0.097,0.585-0.129,1.176-0.847,1.645c-0.154,0.922-1.036,1.704-2.097,2.468c-0.206,0.144-0.489,0.169-0.95,0.059
			c-0.163-0.038-0.344-0.089-0.553-0.161l0.418-0.451l3.12-3.66c0.026,0.08,0.038,0.159,0.056,0.238l0.184-0.198l0.843-1.012
			C130.902,66.483,130.772,66.833,130.713,67.188z M130.284,63.173l-1.404,1.552l-4.864,5.387c-0.699-0.379-1.486-0.836-2.357-1.372
			l5.523-6.347l1.663-1.913C129.411,61.382,129.907,62.284,130.284,63.173z M125.674,56.112c0.564,0.728,1.138,1.47,1.691,2.222
			l-1.727,1.992l-6.133,7.045c-0.709-0.463-1.458-0.966-2.257-1.509c-0.177-0.125-0.344-0.237-0.517-0.355l7.173-7.532
			L125.674,56.112z M120.302,54.059l1.721-1.762c0.759,0.433,1.444,1.047,2.072,1.811l-1.815,1.907l-7.679,8.074
			c-0.687-0.486-1.433-1.192-2.109-2.015L120.302,54.059z M110.295,56.509c0.111-0.667,0.428-1.229,0.963-1.709
			c1.297-1.18,3.14-2.372,5.119-2.957c0.949-0.283,1.939-0.426,2.915-0.366l-1.081,1.113l-7.152,7.33
			C110.465,58.759,110.122,57.55,110.295,56.509z"/>
		<path fill="#232323" d="M148.351,58.402c-1.62-0.993-3.479-1.469-5.247-1.386c-1.019,0.048-2.165,0.254-3.124,0.665
			c-2.611,1.121-4.369,3.549-5.447,6.18c-0.014,0.088-0.028,0.168-0.042,0.256c-0.051,0.305,0.196,0.647,0.193,0.935
			c-0.003,0.326,0.038,0.634,0.096,0.934c0.04-0.298,0.095-0.595,0.175-0.888c-0.029,3.593,3.632,5.509,6.622,7.076
			c1.024,0.536,1.989,1.042,2.68,1.547c0.836,0.61,1.814,1.029,2.862,1.244c1.047,0.214,2.164,0.224,3.279,0.016
			c1.559-0.292,2.882-0.967,3.668-1.841c0.139-0.144,0.245-0.299,0.348-0.454c0.538-0.845,0.878-1.762,1.038-2.721
			C156.112,65.988,153.308,61.45,148.351,58.402z M137.459,66.224c-0.269-0.506-0.579-1.082-0.478-1.693
			c0.008-0.05,0.017-0.1,0.025-0.15c0.942-1.815,2.064-3.542,3.915-4.354c0.011-0.007,0.077-0.002,0.147,0.004
			c0.062-0.001,0.131,0.005,0.196,0.005c0.737-0.307,1.428-0.478,2.194-0.497l-0.633,0.65l-5.298,6.045
			c-0.009-0.017-0.02-0.037-0.029-0.054L137.459,66.224z M141.638,69.347c-0.773-0.43-1.473-0.841-2.069-1.254
			c0.016-0.016,0.024-0.028,0.038-0.038l5.967-7.015l0.66-0.774c0.031-0.033,0.051-0.075,0.076-0.109
			c0.267,0.122,0.527,0.254,0.782,0.412c0.454,0.274,0.878,0.569,1.282,0.873c-0.03,0.027-0.059,0.047-0.084,0.082l-0.587,0.689
			l-6.046,7.099C141.648,69.323,141.646,69.335,141.638,69.347z M143.913,70.558l5.783-6.791l0.517-0.605
			c0.017-0.029,0.034-0.052,0.05-0.075c0.47,0.481,0.886,0.98,1.244,1.487l-0.462,0.544l-5.48,6.438
			C145.071,71.211,144.512,70.881,143.913,70.558z M152.753,67.003c0.063,0.196,0.115,0.384,0.16,0.577
			c0.149,0.678,0.186,1.344,0.081,1.973c-0.103,0.617-0.336,1.212-0.69,1.761c-0.267,0.416-1.164,0.958-2.365,1.181
			c-0.648,0.122-1.29,0.137-1.903,0.054l4.599-5.406L152.753,67.003z"/>
		<path fill="#232323" d="M294.707,273.574c-0.004,0.009-0.005,0.018-0.009,0.026c0.001-0.001,0.002-0.003,0.003-0.004
			c-0.082,0.176-0.143,0.357-0.185,0.545c-0.298,1.352,0.387,2.99,1.68,4.845c0.042,0.079,0.095,0.154,0.16,0.225
			c0.958,1.337,2.218,2.785,3.644,4.312v-3.809c-0.405-0.471-0.785-0.923-1.109-1.332l1.109-1.425v-3.756l-2.199,2.663l-0.37,0.489
			c-0.107-0.192-0.19-0.361-0.255-0.516c-0.189-0.435-0.213-0.718-0.107-0.946c0.567-1.178,1.185-2.183,2.065-2.493
			c0.214-0.501,0.524-0.737,0.866-0.894v-2.928c-0.104,0.031-0.212,0.055-0.315,0.091
			C297.583,269.412,295.909,271.061,294.707,273.574z"/>
		<path fill="#232323" d="M293.578,247.399c-0.917,0.323-1.761,0.818-2.5,1.494c-0.135,0.128-0.27,0.26-0.387,0.422
			c-0.725,0.925-1.159,2.347-1.176,3.932c-0.011,1.135,0.192,2.232,0.585,3.226c0.394,0.995,0.977,1.886,1.722,2.604
			c0.617,0.592,1.283,1.454,1.989,2.37c1.666,2.158,3.632,4.705,6.188,5.263v-6.202l-1.791,2.164
			c-0.008,0.016-0.018,0.025-0.031,0.044c-0.51-0.516-1.036-1.133-1.594-1.82c0.01-0.01,0.021-0.014,0.031-0.024l3.385-4.094v-3.965
			l-5.004,6.054c-0.423-0.534-0.845-1.027-1.27-1.453l5.387-6.516l0.456-0.549c0.144,0.067,0.287,0.149,0.431,0.225v-2.757
			C297.758,246.897,295.518,246.715,293.578,247.399z M296.961,249.542l-0.117,0.142l-4.525,5.468
			c-0.188-0.589-0.285-1.225-0.277-1.884c0.011-1.222,0.389-2.199,0.752-2.535c0.479-0.443,1.025-0.776,1.615-0.985
			c0.601-0.212,1.263-0.292,1.956-0.263C296.562,249.495,296.756,249.514,296.961,249.542z"/>
		<path fill="#232323" d="M26.302,255.798c-1.114-4.045-3.326-7.216-5.94-8.588c-1.393-0.719-2.768-0.746-4.055-0.291l-0.136,0.048
			c-0.501,0.177-1.004,0.306-1.447,0.567c-1.447,0.854-2.601,1.985-3.159,3.288c-0.492,1.13-0.55,2.236-0.141,3.243
			c0.393,0.979,0.667,3.424,0.909,5.587c0.178,1.604,0.364,3.25,0.609,4.59c0.046,0.246,0.114,0.495,0.2,0.746
			c0.613,1.761,2.184,3.576,4.12,4.695c1.194,0.689,2.436,1.074,3.651,1.14c-0.001,0.001-0.002,0.001-0.003,0.002
			c0.001,0,0.002,0,0.004,0c0.873,0.047,1.736-0.071,2.545-0.357c0.631-0.223,1.232-0.549,1.794-0.969
			c4.652-3.478,3.476-6.712,2.122-10.45C26.997,258.012,26.633,257,26.302,255.798z M13.73,252.174
			c0.033-0.152,0.12-0.173,0.171-0.292c0.47-1.097,1.675-2.027,3.188-2.562l0.06-0.021c0.619-0.219,1.279-0.248,2.042,0.151
			c0.249,0.134,0.452,0.179,0.693,0.368c0.096,0.1,0.188,0.208,0.273,0.318l-0.004,0.001c0.048,0.043,0.093,0.075,0.122,0.064
			l-0.084,0.03l-6.423,2.047c0.011-0.051,0.03-0.087,0.044-0.132L13.73,252.174z M14.164,254.558l7.28-2.444l0.419-0.141
			c0.479,0.713,0.91,1.532,1.274,2.414l-0.625,0.181l-7.966,2.325C14.431,256.036,14.312,255.242,14.164,254.558z M14.849,259.437
			l8.459-2.466l0.644-0.188c0.242,0.819,0.5,1.585,0.75,2.293l-0.801,0.236l-8.762,2.553
			C15.036,261.085,14.937,260.256,14.849,259.437z M23.843,267.399c-0.032,0.024-0.063,0.049-0.101,0.075
			c-0.355,0.267-0.736,0.475-1.124,0.611c-1.25,0.442-2.472,0.15-3.353-0.222l4.852-1.412l1.075-0.312
			C24.861,266.545,24.418,266.962,23.843,267.399z M24.403,263.733l-7.721,2.26c-0.5-0.561-0.861-1.129-1.076-1.643
			c0.038-0.007,0.07-0.011,0.108-0.018l8.586-2.504l1.244-0.366c0.222,0.665,0.386,1.264,0.463,1.805L24.403,263.733z"/>
		<path fill="#232323" d="M4.332,288.042c2.176,2.425,7.402,5.198,11.179,3.87c0.839-0.297,1.562-0.772,2.158-1.418
			c0.243-0.26,0.456-0.549,0.654-0.86c2.197-3.487,2.995-7.465,2.14-10.645c-0.68-2.531-2.316-4.49-4.864-5.826
			c-0.46-0.238-0.938-0.492-1.416-0.745c-4.391-2.345-9.329-4.985-13.642-3.997c-0.184,0.043-0.362,0.103-0.542,0.157v2.928
			c0.196-0.091,0.403-0.154,0.607-0.227c0.339-0.12,0.661-0.309,1.025-0.357l-0.85,1.006l-0.163,0.216
			c0.081,0.004,0.161,0.002,0.244,0.014L0,273.202v3.756l3.351-4.301l1.285-1.652c0.94,0.216,1.916,0.548,2.901,0.949l-1.595,1.97
			l-5.291,6.542c-0.232-0.263-0.439-0.505-0.65-0.751v3.809c0.772,0.827,1.592,1.677,2.443,2.548
			C3.218,286.862,3.887,287.543,4.332,288.042z M18.063,279.798c0.229,0.95,0.259,1.949,0.146,2.934
			c-0.233,2.051-1.087,4.073-2.023,5.556c-0.38,0.609-0.878,1.02-1.516,1.244c-0.995,0.352-2.245,0.225-3.492-0.158l5.977-8.317
			L18.063,279.798z M14.638,275.524c0.862,0.486,1.585,1.054,2.144,1.727l-1.437,2.001l-6.536,9.083
			c-0.928-0.522-1.753-1.135-2.351-1.727l6.618-8.965L14.638,275.524z M8.247,275.085l1.661-2.047
			c0.836,0.414,1.667,0.851,2.481,1.279l-1.527,2.065l-6.171,8.372c-0.146-0.148-0.285-0.294-0.439-0.446
			c-0.674-0.693-1.298-1.343-1.879-1.961L8.247,275.085z"/>
		<path fill="#232323" d="M1.93,266.738c-0.275,0.129-0.558,0.236-0.844,0.326c0.306,0.006,0.616-0.008,0.936-0.067
			c0.283-0.053,0.662,0.131,0.954,0.028c0.083-0.029,0.161-0.057,0.244-0.086c2.404-1.52,4.49-3.672,5.14-6.438
			c0.238-1.015,0.242-2.179,0.112-3.191c-0.225-1.755-1.017-3.503-2.276-4.926c-1.891-2.132-4.044-3.688-6.196-4.568v2.757
			c0.418,0.219,0.836,0.459,1.25,0.741c-0.02,0.021-0.039,0.041-0.065,0.063l-0.506,0.614L0,252.812v3.965l2.556-3.093l0.577-0.698
			c0.03-0.031,0.045-0.063,0.066-0.098c0.37,0.345,0.733,0.712,1.083,1.111c0.199,0.224,0.375,0.456,0.541,0.698
			c-0.029,0.03-0.067,0.058-0.094,0.094l-0.647,0.785L0,260.507v6.202C0.609,266.842,1.25,266.864,1.93,266.738z M0.361,264.404
			l5.033-6.269l0.53-0.735c0.115,0.757,0.066,1.467-0.108,2.247c0.012,0.062,0.03,0.129,0.04,0.19
			c0.019,0.067,0.035,0.133,0.03,0.145c-0.479,1.963-1.984,3.368-3.608,4.611c-0.048,0.017-0.096,0.034-0.143,0.051
			c-0.584,0.206-1.206,0-1.75-0.176l0.036-0.045C0.401,264.417,0.38,264.41,0.361,264.404z"/>
		<path fill="#232323" d="M78.114,164.445c0.206-0.259,0.295-0.587,0.242-0.915l-0.634-4.062l0.752-4.291
			c0-0.013-0.001-0.03,0.004-0.042c0.29-1.596-1.658-2.628-3.829-3.513c-2.833-1.152-7.627-2.575-14.257-4.227
			c-1.244-0.313-4.011-0.878-6.457-1.384c-1.855-0.376-3.77-0.773-4.433-0.934c-0.141-0.317-0.252-1.114-0.239-1.775
			c0.019-0.55-0.354-1.038-0.892-1.169l-4.406-1.1c-0.562-0.142-1.138,0.141-1.364,0.672l-1.711,3.905
			c-0.042,0.102-0.066,0.209-0.084,0.323l-1.306,3.989l-2.67,3.489c-0.205,0.264-0.288,0.604-0.224,0.932
			c0.083,0.473,0.415,0.964,0.918,1.451c-0.437,3.886-4.371,38.531-4.583,41.291c-0.287,3.838,6.443,7.302,12.816,8.891
			c3.73,0.928,6.914,1.318,9.433,1.188c3.202-0.164,5.333-1.171,6.136-2.994c1.157-2.625,14.904-37.405,15.489-38.887
			C77.396,165.055,77.843,164.789,78.114,164.445z M59.173,203.221c-0.703,1.594-5.021,2.418-12.841,0.467
			c-6.469-1.613-11.161-4.723-11.037-6.421c0.053-0.688,0.347-3.464,0.77-7.278c2.94,3.011,9.792,7.583,23.895,6.856
			c0.601-0.031,1.218-0.074,1.847-0.125C60.437,200.141,59.442,202.611,59.173,203.221z M62.79,194.263
			c-19.095,1.887-25.325-5.98-26.368-7.555c0.653-5.879,1.476-13.171,2.156-19.206c3.198,3.086,12.495,10.211,29.317,9.344
			c0.605-0.031,1.235-0.075,1.864-0.131C67.507,182.398,64.875,189.029,62.79,194.263z M70.735,174.251
			c-21.724,2.288-31.506-9.46-31.601-9.585c-0.063-0.073-0.137-0.141-0.217-0.201c0.345-3.044,0.629-5.554,0.804-7.085
			c4.204,2.438,11.677,4.761,16.461,5.983c0.054,0.015,0.089,0.024,0.131,0.034c0.12,0.029,0.239,0.059,0.353,0.088
			c5.325,1.295,12.541,2.517,17.179,2.277c0.089-0.005,0.17-0.016,0.258-0.02C73.445,167.411,72.213,170.519,70.735,174.251z"/>
		<path fill="#232323" d="M96.646,130.337l3.689,5.297l-0.131,0.016c-0.285,0.028-0.553,0.17-0.728,0.394
			c-0.011,0.005-0.017,0.017-0.022,0.022c-0.186,0.235-0.263,0.536-0.225,0.832l5.437,37.346c0.082,0.541,0.547,0.936,1.083,0.936
			c0.039,0,0.077-0.006,0.11-0.006l32.545-3.271c0.575-0.061,1.002-0.553,0.985-1.133l-1.424-37.745
			c-0.011-0.306-0.147-0.585-0.372-0.788c-0.23-0.197-0.531-0.291-0.832-0.263l-0.761,0.076l2.606-8.197
			c0.18-0.574-0.137-1.192-0.712-1.373l-1.593-0.509l-2.781-0.881c-0.274-0.087-0.575-0.06-0.833,0.077
			c-0.257,0.131-0.454,0.361-0.542,0.64l-0.843,2.66l0.351-4.739l0.24-3.305c0.022-0.29-0.076-0.575-0.262-0.793
			c-0.192-0.219-0.466-0.355-0.755-0.377l-1.577-0.104l-2.792-0.191c-0.602-0.039-1.111,0.405-1.16,0.996l0.005-2.451l0.027-8.175
			c0.005-0.29-0.109-0.618-0.317-0.827c-0.208-0.208-0.488-0.416-0.777-0.416l-0.931,0.022l-3.449,0.093
			c-0.296,0-0.575,0.213-0.783,0.421c-0.203,0.208-0.317,0.493-0.312,0.783l0.12,6.725c-0.115-0.087-0.252-0.159-0.4-0.191
			c-0.077-0.022-0.159-0.033-0.246-0.033l-1.922-0.027l-2.666-0.033c-0.345,0-0.663,0.18-0.871,0.449l-0.066-0.974l-0.323-4.733
			c-0.022-0.29-0.159-0.563-0.377-0.755c-0.225-0.186-0.51-0.279-0.805-0.257l-1.166,0.093l-3.203,0.263
			c-0.597,0.049-1.04,0.569-1.001,1.165l0.071,1.051c-0.235-0.29-0.607-0.443-0.997-0.389c-0.043,0.006-0.087,0.017-0.137,0.027
			l-1.412,0.383l-3.011,0.821c-0.28,0.077-0.52,0.263-0.662,0.514c-0.148,0.252-0.181,0.553-0.104,0.832l1.873,6.878l-1.982,0.799
			c-0.558,0.224-0.832,0.859-0.607,1.417l2.594,6.55c-0.268-0.065-0.553-0.027-0.804,0.121c-0.027,0.016-0.055,0.033-0.083,0.049
			l-1.489,1.067l-2.234,1.609C96.417,129.171,96.301,129.844,96.646,130.337z M137.162,169.827l-30.476,3.064l-3.285-22.566
			l5.749-0.542c0.673,1.439,2.705,3.835,8.742,3.835c0.499,0,1.019-0.016,1.566-0.055c7.522-0.459,9.575-3.699,10.128-5.274
			l6.711-1.346L137.162,169.827z M133.905,123.508l1.67,0.531l0.612,0.197l-2.557,8.054l-1.549,0.153l-1.045,0.104L133.905,123.508z
			 M125.617,136.296c0-0.154,0.367-0.323,0.377-0.52l1.358-18.561l0.098,0.007l0-0.007l1.829,0.126c0,0.001,0,0.002,0,0.003
			l0.326,0.019l-0.362,5.062c-0.003,0.04-0.004,0.08-0.007,0.12c-0.001,0.013-0.003,0.025-0.004,0.038l-0.719,9.916l-0.079,1.088
			c0,0.028,0.007,0.049,0.007,0.071c0,0.049-0.004,0.093,0.001,0.137c-0.132,0.197-0.312,0.438-0.542,0.711
			c-0.427,0.525-1.034,1.171-1.833,1.822c-0.011,0.011-0.225,0.022-0.235,0.033l-0.214-0.06V136.296z M122.879,106.414v0.306
			l0.079,21.373l-0.946-2.889l-0.366-1.097l-0.405-1.097l-0.248-10.996l-0.146-5.567L122.879,106.414z M118.325,122.731l0.515-0.175
			l0.191,0.542l5.13,14.539c-0.197,0.115-0.405,0.23-0.619,0.339c-0.455,0.229-0.947,0.449-1.467,0.646l-5.316-15.359
			L118.325,122.731z M114.75,114.02l1.417,0.022l0.991,0.016l-0.088,5.664l-0.016,1.127l-2.042,0.695
			c-0.175,0.06-0.328,0.169-0.455,0.301L114.75,114.02z M114.521,123.486l0.137,0.394l2.403,6.943l2.917,8.432
			c-0.679,0.153-1.401,0.279-2.167,0.356c-0.422,0.038-0.833,0.071-1.232,0.082c-0.148,0.005-0.285,0.005-0.427,0.005
			c-0.695,0-1.325-0.055-1.899-0.148l-0.115-0.295L114.521,123.486z M116.151,141.888c0.602,0,1.232-0.033,1.878-0.098
			c1.346-0.137,2.556-0.134,3.663-0.468c0.021-0.006,0.043,0.243,0.065,0.243c5.184-1.642,7.79-5.19,8.639-6.492l0.339-0.163
			l5.086-0.58l0.394,10.397l0.001,0.032l-7.735,1.538c-0.476,0.093-0.832,0.489-0.876,0.977c0,0.038-0.499,3.629-8.277,4.111
			c-6.159,0.377-8.141-1.742-8.327-2.886c-0.066-0.596-0.585-1.03-1.193-0.975l-6.723,0.634l-1.522-10.446l5.486-0.553l0.038-0.005
			c0.263,0.542,0.707,1.264,1.413,1.981C109.861,140.52,112.205,141.888,116.151,141.888z M110.327,107.842l0.553,8.109l1.204,17.62
			l-0.011,0.52l-0.739-1.849l-1.85-4.618l-1.336-19.6L110.327,107.842z M104.081,110.25l0.29-0.077l2.245,7.573l0.039,0.585
			l0.186,2.665l-1.637-4.093c-0.104-0.269-0.317-0.487-0.586-0.602c-0.268-0.11-0.569-0.115-0.837-0.006l-0.225,0.088l-1.522-5.571
			L104.081,110.25z M101.354,119.634l1.648-0.667l0.575-0.23l5.135,12.843l2.135,5.351c0.011,0.022,0.028,0.044,0.039,0.066
			c0.093,0.175,0.159,0.345,0.192,0.509l0.47,1.177c-0.191-0.104-0.367-0.208-0.531-0.323c-1.691-1.122-2.135-2.561-2.163-2.654
			c-0.137-0.52-0.64-0.864-1.171-0.81l-0.268,0.027L101.354,119.634z M100.626,128.849l0.4-0.29l3.263,4.426l0.86,2.167
			l-2.322,0.235l-0.027-0.038l-3.739-5.379L100.626,128.849z"/>
		<path fill="#232323" d="M257.501,104.575c-0.016,0.072-0.026,0.15-0.026,0.223c-0.113,1.253-0.181,2.538-0.181,3.874
			c0,8.364,2.647,15.346,7.658,20.184c4.85,4.682,11.659,7.152,19.69,7.152c5.615,0,10.907-1.572,15.357-4.499v-2.625
			c-4.259,3.164-9.582,5.053-15.357,5.053c-4.379,0-8.291-0.761-11.653-2.207c-8.612-3.698-13.623-11.85-13.623-23.058
			c0-0.228,0.005-0.456,0.011-0.684c0.052,0.062,0.109,0.124,0.16,0.181c0.938,1.041,1.907,2.118,2.7,4.387
			c0.16,0.456-0.011,1.321-0.177,2.165c-0.378,1.953-0.896,4.625,1.689,6.407c1.409,0.968,2.881,0.854,4.058,0.767
			c1.119-0.088,1.839-0.119,2.497,0.347c0.472,0.336,0.467,1.004,0.348,2.346c-0.161,1.802-0.399,4.511,2.876,5.832
			c0.083,0.031,0.166,0.062,0.249,0.093c2.425,0.875,4.74-0.073,6.787-0.907c1.368-0.564,2.658-1.093,3.752-0.989
			c0.533,0.052,0.845,0.341,1.389,0.896c0.735,0.735,1.693,1.704,3.611,1.704c0.373,0,0.771-0.037,1.218-0.114
			c2.472-0.445,3.461-1.901,4.254-3.071c0.638-0.938,1.036-1.481,1.881-1.688c0.57-0.145,1.274-0.026,2.021,0.099
			c0.401,0.067,0.848,0.136,1.311,0.165v-2.071c-0.286-0.027-0.604-0.075-0.969-0.135c-0.881-0.15-1.87-0.316-2.864-0.067
			c-1.653,0.409-2.421,1.538-3.094,2.532c-0.332,0.492-0.633,0.927-1.016,1.29l-1.042-1.859c-0.279-0.502-0.911-0.679-1.414-0.399
			c-0.498,0.28-0.674,0.912-0.395,1.409l0.98,1.75c-1.705,0.306-2.255-0.243-3.011-1.005c-0.606-0.611-1.358-1.373-2.664-1.497
			c-1.606-0.15-3.191,0.502-4.736,1.129c-1.859,0.762-3.621,1.487-5.295,0.875c-1.943-0.699-1.943-1.782-1.768-3.791
			c0.125-1.404,0.28-3.149-1.207-4.211c-1.301-0.927-2.658-0.823-3.859-0.73c-1.026,0.078-1.918,0.146-2.721-0.404
			c-1.373-0.948-1.229-2.258-0.829-4.309c0.228-1.16,0.44-2.258,0.093-3.242c-0.927-2.662-2.14-4.003-3.108-5.086
			c-0.647-0.72-1.172-1.305-1.514-2.139c0.404-3.931,1.42-7.37,3-10.265l1.529,1.347c0.196,0.176,0.44,0.259,0.684,0.259
			c0.285,0,0.575-0.119,0.777-0.352c0.378-0.43,0.337-1.083-0.093-1.46l-1.804-1.59c3.658-5.334,9.555-8.462,17.358-9.022
			l1.104,1.973c0.192,0.337,0.544,0.528,0.907,0.528c0.171,0,0.342-0.042,0.502-0.129c0.503-0.28,0.68-0.911,0.399-1.414
			l-0.591-1.046c0.094,0,0.177-0.005,0.265-0.005c6.865,0,12.293,1.868,16.394,4.889V85.86c-4.519-2.932-10.074-4.462-16.394-4.462
			C268.496,81.397,258.978,89.979,257.501,104.575z"/>
		<path fill="#232323" d="M298.721,102.834c0.146,0.435,0.55,0.709,0.984,0.709c0.099,0,0.197-0.018,0.295-0.047v-2.179
			l-0.621,0.206C298.835,101.706,298.545,102.296,298.721,102.834z"/>
		<path fill="#232323" d="M297.628,114.136c0.145,0.435,0.549,0.709,0.984,0.709c0.108,0,0.218-0.021,0.326-0.057l1.062-0.353
			v-2.183l-1.714,0.572C297.742,113.006,297.446,113.592,297.628,114.136z"/>
		<path fill="#232323" d="M294.777,94.926l2.644,0.347c0.041,0.005,0.088,0.005,0.135,0.005c0.513,0,0.958-0.378,1.025-0.901
			c0.072-0.569-0.326-1.087-0.896-1.16l-2.643-0.342c-0.555-0.073-1.088,0.321-1.16,0.891
			C293.809,94.335,294.208,94.854,294.777,94.926z"/>
		<path fill="#232323" d="M282.466,96.92l-0.372,2.186c-4.021,0.694-6.675,3.087-7.545,6.785l-2.467,0.622
			c-0.56,0.14-0.891,0.704-0.751,1.259c0.119,0.471,0.539,0.782,1.005,0.782c0.083,0,0.166-0.01,0.254-0.031l1.664-0.419
			c-0.006,0.197-0.021,0.394-0.021,0.601c0,6.438,3.984,10.436,10.41,10.436c6.218,0,10.395-4.754,10.395-9.193
			c0-1-0.083-1.932-0.229-2.802l0.793,0.575c0.182,0.135,0.399,0.202,0.611,0.202c0.316,0,0.633-0.15,0.834-0.425
			c0.343-0.461,0.238-1.108-0.223-1.45l-2.15-1.569c-0.202-0.15-0.445-0.207-0.679-0.197c-1.528-3.511-4.721-5.392-9.353-5.392
			c-0.146,0-0.274,0.016-0.414,0.016l0.284-1.631c0.094-0.56-0.284-1.098-0.85-1.196C283.099,95.977,282.564,96.36,282.466,96.92z
			 M284.643,100.959c5.596,0,8.321,2.942,8.321,8.986c0,3.372-3.42,7.122-8.321,7.122c-5.223,0-8.337-3.128-8.337-8.364
			C276.306,101.969,281.528,100.959,284.643,100.959z"/>
		<path fill="#232323" d="M294.374,118.771c-0.141-0.554-0.7-0.896-1.255-0.761c-0.554,0.134-0.896,0.694-0.762,1.253l0.628,2.584
			c0.119,0.477,0.543,0.792,1.01,0.792c0.078,0,0.161-0.01,0.243-0.031c0.555-0.135,0.897-0.694,0.763-1.248L294.374,118.771z"/>
		<path fill="#232323" d="M288.404,91.886c0.109,0,0.218-0.021,0.326-0.057l2.529-0.839c0.544-0.182,0.834-0.767,0.658-1.311
			c-0.182-0.543-0.772-0.839-1.312-0.658l-2.528,0.844c-0.544,0.181-0.84,0.767-0.658,1.311
			C287.564,91.611,287.969,91.886,288.404,91.886z"/>
		<path fill="#232323" d="M280.394,121.091l-2.523,0.845c-0.544,0.181-0.84,0.767-0.658,1.31c0.145,0.435,0.55,0.709,0.984,0.709
			c0.109,0,0.218-0.021,0.326-0.057l2.529-0.839c0.544-0.181,0.834-0.767,0.653-1.31
			C281.523,121.205,280.938,120.91,280.394,121.091z"/>
		<path fill="#232323" d="M274.725,89.462l2.643,0.342c0.047,0.005,0.089,0.01,0.135,0.01c0.514,0,0.959-0.383,1.026-0.901
			c0.072-0.57-0.327-1.087-0.896-1.166l-2.643-0.342c-0.56-0.067-1.089,0.327-1.161,0.896
			C273.756,88.866,274.155,89.389,274.725,89.462z"/>
		<path fill="#232323" d="M272.693,97.51c0.177,0.114,0.374,0.171,0.57,0.171c0.337,0,0.669-0.166,0.865-0.471l1.462-2.227
			c0.311-0.482,0.176-1.124-0.301-1.435c-0.482-0.316-1.125-0.182-1.436,0.3l-1.462,2.228
			C272.082,96.557,272.217,97.199,272.693,97.51z"/>
		<path fill="#232323" d="M270.704,113.26l-2.643-0.342c-0.57-0.078-1.089,0.326-1.161,0.891c-0.072,0.57,0.326,1.087,0.896,1.16
			l2.643,0.347c0.047,0.005,0.088,0.005,0.135,0.005c0.513,0,0.959-0.378,1.026-0.901
			C271.673,113.851,271.274,113.333,270.704,113.26z"/>
		<path fill="#232323" d="M265.45,99.955l-2.529,0.845c-0.544,0.181-0.839,0.766-0.658,1.31c0.146,0.43,0.55,0.709,0.985,0.709
			c0.108,0,0.217-0.021,0.326-0.057l2.528-0.839c0.544-0.181,0.835-0.772,0.652-1.311C266.579,100.069,265.989,99.773,265.45,99.955
			z"/>
		<path fill="#232323" d="M11.986,109.505c0-7.344-2.425-14.16-6.84-19.2C3.632,88.577,1.906,87.096,0,85.86v2.499
			c1.841,1.357,3.417,2.945,4.731,4.703L3.39,93.507c-0.544,0.181-0.834,0.767-0.658,1.31c0.145,0.435,0.549,0.709,0.984,0.709
			c0.109,0,0.218-0.015,0.327-0.052l1.901-0.632c2.685,4.356,3.969,9.52,3.969,14.663c0,0.072-0.005,0.14-0.005,0.207
			c-0.782,1.16-0.845,2.621-0.891,4.045c-0.037,1.041-0.073,2.03-0.394,2.678c-0.653,1.305-1.415,1.678-3.389,1.678
			c-2.021,0-2.332,1.906-2.534,3.17c-0.156,0.953-0.316,1.942-0.896,2.646c-0.47,0.576-1.003,0.682-1.804,0.606v2.071
			c1.14,0.073,2.394-0.121,3.41-1.362c0.933-1.139,1.156-2.522,1.332-3.63c0.077-0.477,0.212-1.285,0.368-1.414
			c0,0,0.031-0.016,0.124-0.016c0.818,0,1.575-0.062,2.254-0.249c-1.73,3.529-4.315,6.59-7.488,8.947v2.625
			c1.558-1.024,3.014-2.212,4.343-3.56C9.203,123.023,11.986,116.3,11.986,109.505z"/>
		<path fill="#232323" d="M5.825,109.951c0.187,0.342,0.539,0.533,0.902,0.533c0.171,0,0.347-0.046,0.507-0.134
			c0.498-0.28,0.679-0.912,0.399-1.409l-1.306-2.325c-0.28-0.497-0.912-0.678-1.409-0.394c-0.502,0.279-0.679,0.906-0.399,1.409
			L5.825,109.951z"/>
		<path fill="#232323" d="M2.561,102.648c0.544-0.181,0.84-0.767,0.658-1.31c-0.181-0.539-0.767-0.834-1.312-0.653L0,101.318v2.179
			c0.011-0.003,0.021-0.001,0.032-0.005L2.561,102.648z"/>
		<path fill="#232323" d="M2.125,112.639c-0.182-0.544-0.767-0.839-1.311-0.658L0,112.253v2.183l1.467-0.487
			C2.011,113.768,2.307,113.182,2.125,112.639z"/>
		<path fill="#232323" d="M212.712,144.386c1.467,0.13,3.353-0.422,4.805-1.404c1.287-0.871,2.141-1.991,2.48-3.236
			c0.181-0.679,0.623-1.016,1.328-1.5c0.853-0.6,2.149-1.5,1.863-3.481c-0.216-1.465-0.91-3.284-1.522-4.879
			c-0.374-0.975-0.759-1.979-0.847-2.454c-0.025-0.171,0.098-0.714,0.184-1.11c0.366-1.618,0.972-4.332-1.277-7.079
			c-1.76-2.145-3.362-3.078-4.529-3.757c-0.625-0.367-1.122-0.656-1.424-1.002c-0.263-0.311-0.423-0.759-0.635-1.339
			c-0.44-1.23-1.039-2.896-3.161-4.652c-3.066-2.541-6.542-1.845-7.863-1.592c-0.126,0.025-0.201,0.091-0.29,0.105
			c-0.903,0.145-3.979,1.178-6.035,2.569c-0.646,0.437-1.162,0.876-1.546,1.332c-1.397-0.485-3.155-0.802-4.755-1.083
			c-1.198-0.213-2.693-0.475-3.073-0.691l-0.274-0.161c-4.97-2.872-7.66-3.755-9.287-3.054c-0.304,0.13-0.61,0.3-0.921,0.51
			c-2.005,1.356-3.946,4.243-3.296,7.032c0.16,0.682-0.071,1.185-0.458,1.951c-0.472,0.928-1.184,2.336,0.01,3.945
			c0.88,1.189,2.352,2.452,3.653,3.575c0.789,0.678,1.602,1.378,1.905,1.76c0.1,0.136,0.252,0.673,0.365,1.063
			c0.446,1.595,1.2,4.269,4.482,5.625c2.559,1.054,4.415,1.116,5.767,1.166c0.727,0.028,1.303,0.045,1.733,0.213
			c0.381,0.141,0.739,0.471,1.199,0.883c0.973,0.87,2.306,2.062,4.999,2.604c3.494,0.701,5.714-0.627,6.874-1.495
			c0.094,0.072,0.183,0.147,0.273,0.214c0.954,0.755,2.143,1.698,2.377,2.067l0.164,0.265
			C208.956,142.116,210.971,144.239,212.712,144.386z M190.993,130.424c-0.823-0.316-1.662-0.343-2.542-0.373
			c-1.294-0.043-2.762-0.097-4.909-0.979c-2.163-0.894-2.621-2.541-3.032-3.994c-0.213-0.76-0.396-1.419-0.815-1.941
			c-0.442-0.566-1.271-1.278-2.227-2.1c-1.201-1.031-2.561-2.205-3.275-3.174c-0.236-0.315-0.261-0.396,0.213-1.333
			c0.436-0.859,1.031-2.038,0.663-3.641c-0.413-1.746,1.382-4.081,2.769-4.681c0.204-0.078,1.486-0.297,7.059,2.92l0.278,0.166
			c0.721,0.409,1.946,0.64,3.874,0.985c1.446,0.256,3.175,0.562,4.388,0.985c0.002,0.593,0.06,1.224,0.153,1.853
			c-0.989-0.482-2.444-0.741-3.721-0.969c-0.665-0.115-1.577-0.272-1.804-0.384l-0.165-0.099c-3.337-1.928-5.1-2.475-6.301-1.957
			c-0.211,0.09-0.417,0.208-0.629,0.351c-1.406,0.951-2.769,2.979-2.31,4.949c0.061,0.268-0.018,0.463-0.246,0.927
			c-0.315,0.604-0.884,1.734,0.043,2.981c0.588,0.792,1.543,1.614,2.379,2.336c0.462,0.395,0.985,0.846,1.123,1.017
			c0.048,0.081,0.12,0.355,0.177,0.55c0.31,1.093,0.823,2.921,3.106,3.869c1.701,0.701,2.925,0.739,3.821,0.773
			c0.415,0.012,0.746,0.022,0.95,0.103c0.155,0.061,0.358,0.239,0.614,0.473c0.169,0.149,0.356,0.316,0.57,0.487
			C191.133,130.496,191.068,130.456,190.993,130.424z M190.909,127.237c-0.599-0.228-1.161-0.247-1.763-0.269
			c-0.78-0.029-1.665-0.056-2.95-0.586c-1.164-0.485-1.405-1.332-1.656-2.237c-0.146-0.504-0.281-0.984-0.599-1.387
			c-0.311-0.392-0.827-0.833-1.475-1.39c-0.688-0.595-1.543-1.335-2.005-1.94c0.035-0.092,0.11-0.249,0.174-0.366
			c0.29-0.573,0.728-1.44,0.457-2.621c-0.195-0.846,0.748-2.079,1.442-2.421c0.249-0.01,1.183,0.111,4.115,1.809l0.178,0.106
			c0.522,0.293,1.293,0.442,2.601,0.672c1.077,0.19,2.415,0.43,3.083,0.761c0.897,0.446,1.375,0.808,1.962,1.375
			c0.291,0.865,0.601,1.567,0.85,1.97c0.112,0.21,0.317,1.081,0.484,1.773c0.379,1.596,0.898,3.767,1.841,5.862
			c-0.596,0.478-1.653,1.298-3.145,0.998c-1.164-0.229-1.674-0.683-2.21-1.163C191.92,127.84,191.499,127.462,190.909,127.237z
			 M196.783,133.795c-2.028-0.405-2.938-1.227-3.824-2.013c-0.202-0.187-0.41-0.362-0.623-0.542
			c0.455,0.227,1.001,0.422,1.677,0.552c2.266,0.455,3.948-0.554,4.841-1.227c0.084,0.124,0.158,0.255,0.238,0.374
			c0.505,0.713,1.248,1.444,2.071,2.16C200.229,133.678,198.838,134.205,196.783,133.795z M207.927,135.707
			c-0.04-0.071-0.095-0.14-0.148-0.208c-0.485-0.65-1.41-1.395-2.793-2.493c-1.388-1.094-3.109-2.459-3.854-3.506
			c-1.655-2.336-2.4-5.498-2.895-7.587c-0.301-1.257-0.479-2.01-0.795-2.511c-0.5-0.806-1.678-4.33-1.57-6.631
			c0.006-0.259,0.328-0.741,1.186-1.321c1.695-1.146,4.47-1.977,5.082-2.074c0.11-0.015,0.25-0.042,0.418-0.072
			c1.186-0.229,3.652-0.701,5.817,1.086c1.596,1.323,2.006,2.476,2.415,3.592c0.086,0.25,0.185,0.507,0.288,0.76
			c-0.293-0.411-0.682-0.841-1.212-1.28c-2.112-1.741-4.472-1.289-5.367-1.12c-0.074,0.013-0.14,0.027-0.2,0.038
			c-0.621,0.096-2.67,0.707-4.05,1.64c-1.05,0.709-1.603,1.528-1.644,2.436c-0.09,1.973,0.816,4.582,1.279,5.322
			c0.06,0.133,0.179,0.632,0.269,1.031c0.352,1.479,0.885,3.715,2.158,5.519c0.643,0.906,1.816,1.828,2.844,2.646
			c0.53,0.417,1.255,0.988,1.4,1.191l0.1,0.159c0.67,1.09,1.265,1.959,1.797,2.646c1.09,1.378,1.959,1.994,2.825,2.072
			c1.047,0.09,2.323-0.284,3.341-0.972c0.904-0.612,1.512-1.407,1.754-2.308c0.074-0.269,0.239-0.403,0.664-0.698
			c0.561-0.386,1.594-1.108,1.369-2.643c-0.143-0.979-0.594-2.157-0.985-3.195c-0.219-0.568-0.467-1.213-0.508-1.418
			c0.001-0.098,0.063-0.374,0.107-0.576c0.245-1.107,0.657-2.959-0.905-4.869c-1.166-1.424-2.219-2.045-2.99-2.495
			c-0.368-0.21-0.646-0.376-0.789-0.542c-0.115-0.126-0.21-0.4-0.321-0.709c-0.075-0.212-0.165-0.445-0.274-0.695
			c0.048,0.059,0.084,0.124,0.137,0.179c0.575,0.672,1.298,1.095,2.062,1.534c1.113,0.655,2.381,1.394,3.856,3.196
			c1.479,1.808,1.106,3.475,0.777,4.947c-0.172,0.771-0.323,1.438-0.203,2.094c0.128,0.712,0.515,1.729,0.965,2.908
			c0.568,1.475,1.209,3.157,1.388,4.346c0.055,0.393,0.04,0.47-0.817,1.073c-0.795,0.552-1.88,1.309-2.312,2.896
			c-0.229,0.84-0.923,1.453-1.471,1.823c-1.137,0.769-2.454,1.049-3.191,0.983c-0.211-0.022-1.45-0.441-4.83-5.917L207.927,135.707z
			 M214.45,126.198c0.09,0.489,0.327,1.119,0.635,1.919c0.325,0.849,0.732,1.907,0.851,2.661c-0.075,0.066-0.22,0.165-0.328,0.238
			c-0.525,0.37-1.324,0.926-1.645,2.09c-0.082,0.312-0.345,0.625-0.743,0.895c-0.578,0.392-1.264,0.569-1.675,0.553
			c-0.188-0.091-0.958-0.616-2.765-3.542l-0.106-0.169c-0.195-0.312-0.497-0.612-0.936-0.993c1.419-2.089,1.823-3.831,1.185-5.153
			c-1.245-2.576-4.298-5.464-5.535-6.17c-0.198-0.137-0.789-0.799-1.262-1.33c-0.243-0.271-0.505-0.569-0.787-0.875
			c0.08-0.07,0.177-0.15,0.307-0.237c0.531-0.36,1.227-0.657,1.817-0.875c0.594-0.213,1.086-0.343,1.216-0.363
			c0.079-0.016,0.173-0.035,0.288-0.053c0.733-0.141,2.108-0.401,3.309,0.594c0.909,0.754,1.144,1.401,1.391,2.078
			c0.169,0.473,0.366,1.009,0.772,1.487c0.414,0.48,0.902,0.767,1.424,1.07c0.674,0.395,1.441,0.839,2.32,1.916
			c0.795,0.975,0.602,1.836,0.401,2.754C214.468,125.2,214.36,125.687,214.45,126.198z M205.791,128.283
			c-0.597-0.492-1.155-0.995-1.445-1.402c-0.99-1.408-1.457-3.357-1.76-4.651c-0.178-0.73-0.293-1.202-0.479-1.565
			c0.012,0.007,0.024,0.014,0.027,0.019c0.833,0.475,3.54,3.019,4.536,5.092C206.803,126.048,206.723,126.855,205.791,128.283z"/>
		<path fill="#232323" d="M190.104,298.3c0.837-1.211,1.286-3.124,1.147-4.871c-0.122-1.549-0.675-2.845-1.591-3.755
			c-0.502-0.492-0.577-1.043-0.65-1.895c-0.101-1.037-0.244-2.609-2.109-3.338c-1.38-0.535-3.305-0.828-4.995-1.082
			c-1.032-0.156-2.096-0.316-2.552-0.475c-0.162-0.062-0.573-0.437-0.875-0.707c-1.228-1.117-3.289-2.981-6.788-2.38
			c-2.733,0.473-4.336,1.406-5.502,2.087c-0.628,0.362-1.124,0.651-1.574,0.743c-0.4,0.076-0.869-0.006-1.478-0.108
			c-1.288-0.224-3.032-0.523-5.606,0.456c-3.723,1.414-4.833,4.78-5.264,6.054c-0.041,0.122-0.021,0.221-0.052,0.305
			c-0.32,0.857-0.938,4.042-0.742,6.517c0.062,0.777,0.189,1.443,0.396,2.003c-0.687,0.604-1.383,1.362-2.06,2.146h3.423
			c0.097-0.092,0.197-0.198,0.292-0.281c0.176,0.099,0.366,0.189,0.554,0.281h10.002c-0.229-0.065-0.457-0.131-0.666-0.192
			c-1.241-0.358-1.984-0.575-2.576-0.548c-0.948,0.038-4.595-0.676-6.543-1.904c-0.223-0.133-0.483-0.65-0.564-1.683
			c-0.161-2.04,0.484-4.863,0.702-5.444c0.041-0.103,0.088-0.238,0.144-0.398c0.385-1.145,1.191-3.523,3.814-4.525
			c1.938-0.735,3.143-0.523,4.315-0.329c0.26,0.049,0.532,0.09,0.804,0.124c-0.503,0.053-1.068,0.179-1.712,0.424
			c-2.556,0.978-3.327,3.254-3.621,4.116c-0.026,0.07-0.046,0.135-0.066,0.192c-0.223,0.587-0.702,2.671-0.571,4.332
			c0.1,1.263,0.539,2.147,1.309,2.631c1.672,1.051,4.389,1.55,5.261,1.513c0.146,0.014,0.639,0.155,1.029,0.275
			c1.46,0.422,3.669,1.062,5.865,0.844c1.104-0.112,2.486-0.678,3.704-1.168c0.625-0.256,1.479-0.605,1.727-0.631l0.188-0.009
			c1.279-0.045,2.329-0.134,3.188-0.258c1.736-0.27,2.701-0.721,3.195-1.436c0.595-0.866,0.899-2.161,0.803-3.386
			c-0.086-1.089-0.479-2.009-1.143-2.664c-0.197-0.197-0.232-0.407-0.279-0.923c-0.06-0.677-0.178-1.932-1.624-2.493
			c-0.922-0.359-2.169-0.549-3.265-0.719c-0.602-0.091-1.285-0.192-1.484-0.259c-0.085-0.049-0.294-0.239-0.449-0.377
			c-0.842-0.76-2.249-2.031-4.681-1.614c-1.814,0.312-2.874,0.922-3.646,1.37c-0.363,0.217-0.646,0.377-0.861,0.419
			c-0.166,0.038-0.451-0.015-0.774-0.07c-0.222-0.038-0.469-0.075-0.74-0.104c0.074-0.013,0.149-0.013,0.223-0.03
			c0.869-0.169,1.593-0.589,2.352-1.037c1.118-0.646,2.387-1.384,4.682-1.778c2.303-0.395,3.569,0.751,4.688,1.764
			c0.586,0.529,1.092,0.99,1.722,1.21c0.683,0.24,1.758,0.405,3.006,0.595c1.563,0.233,3.342,0.506,4.465,0.937
			c0.368,0.146,0.429,0.197,0.53,1.241c0.088,0.963,0.211,2.28,1.378,3.439c0.618,0.614,0.809,1.52,0.86,2.179
			c0.108,1.368-0.297,2.651-0.719,3.261c-0.123,0.172-1.099,1.044-7.529,1.283l-0.324,0.013c-0.081,0-0.168,0.014-0.254,0.026
			c-0.806,0.102-1.909,0.539-3.546,1.2c-0.47,0.191-0.972,0.395-1.479,0.592h11.938C188.542,299.613,189.584,299.06,190.104,298.3z
			 M170.749,296.943c-1.713,0.167-3.639-0.388-4.914-0.763c-0.723-0.206-1.19-0.338-1.598-0.355c0.012-0.007,0.023-0.015,0.03-0.015
			c0.824-0.491,4.372-1.591,6.667-1.435c0.302,0.021,0.965,0.487,1.747,2.002C171.959,296.654,171.246,296.892,170.749,296.943z
			 M165.182,287.671c0.495,0.087,1.06,0.18,1.676,0.062c0.621-0.123,1.112-0.406,1.633-0.71c0.676-0.392,1.44-0.84,2.811-1.073
			c1.241-0.211,1.895,0.382,2.594,1.009c0.385,0.352,0.755,0.686,1.244,0.859c0.47,0.163,1.135,0.267,1.983,0.394
			c0.898,0.136,2.02,0.304,2.734,0.573c0.021,0.098,0.034,0.272,0.045,0.403c0.062,0.639,0.151,1.608,1.007,2.461
			c0.23,0.226,0.374,0.608,0.412,1.088c0.055,0.696-0.129,1.38-0.346,1.729c-0.172,0.12-1.009,0.531-4.445,0.658l-0.199,0.01
			c-0.368,0.017-0.778,0.13-1.326,0.323c-1.117-2.265-2.433-3.475-3.897-3.572c-2.854-0.187-6.873,1.044-8.098,1.772
			c-0.217,0.105-1.084,0.292-1.779,0.441c-0.356,0.078-0.744,0.159-1.149,0.254c-0.021-0.105-0.043-0.229-0.055-0.384
			c-0.051-0.641,0.033-1.392,0.135-2.014c0.106-0.622,0.237-1.113,0.283-1.236c0.025-0.077,0.056-0.167,0.097-0.276
			c0.239-0.707,0.69-2.032,2.148-2.586C163.794,287.437,164.472,287.552,165.182,287.671z"/>
		<path fill="#232323" d="M146.464,3.787l-0.275,0.16c-4.95,2.907-7.045,4.812-7.237,6.573c-0.036,0.328-0.04,0.679-0.01,1.052
			c0.19,2.413,1.744,5.525,4.491,6.335c0.672,0.197,0.995,0.647,1.471,1.36c0.575,0.869,1.448,2.183,3.437,1.938
			c1.468-0.179,3.292-0.836,4.912-1.415c0.979-0.353,1.988-0.714,2.471-0.79c0.167-0.02,0.709,0.113,1.104,0.207
			c1.607,0.398,4.306,1.062,7.104-1.125c2.179-1.706,3.148-3.291,3.858-4.441c0.383-0.619,0.682-1.112,1.04-1.403
			c0.311-0.262,0.774-0.412,1.359-0.608c1.237-0.417,2.931-0.989,4.73-3.064c2.334-2.694,2.272-5.28,2.091-6.717
			c0.108-0.046,0.218-0.086,0.32-0.132c1.128-0.458,2.534-1.026,2.971-1.048l0.312-0.012c2.679-0.099,4.72-0.312,6.238-0.658
			h-11.938c-1.263,0.49-2.56,0.938-3.472,1.032c-2.56,0.259-5.33-0.45-7.362-1.032h-10.002c0.365,0.179,0.742,0.349,1.134,0.5
			c-0.907,0.622-1.85,1.761-2.678,2.758c-0.428,0.522-1.016,1.238-1.224,1.379l-0.168,0.095c-3.323,1.953-4.668,3.216-4.81,4.517
			c-0.026,0.228-0.025,0.465-0.005,0.72c0.134,1.691,1.226,3.877,3.167,4.449c0.263,0.08,0.394,0.245,0.685,0.672
			c0.37,0.571,1.072,1.624,2.615,1.433c0.979-0.121,2.165-0.546,3.205-0.917c0.571-0.208,1.223-0.44,1.438-0.477
			c0.094-0.001,0.368,0.071,0.566,0.118c1.104,0.27,2.947,0.725,4.897-0.793c1.449-1.134,2.086-2.18,2.558-2.943
			c0.215-0.355,0.387-0.638,0.558-0.776c0.129-0.104,0.385-0.193,0.714-0.301c0.214-0.073,0.451-0.154,0.706-0.256
			c-0.06,0.042-0.125,0.079-0.19,0.128c-0.681,0.561-1.118,1.277-1.578,2.027c-0.677,1.104-1.447,2.354-3.272,3.788
			c-1.845,1.441-3.504,1.027-4.971,0.668c-0.766-0.19-1.43-0.356-2.09-0.248c-0.711,0.106-1.739,0.475-2.926,0.9
			c-1.489,0.537-3.181,1.14-4.376,1.285c-0.39,0.049-0.474,0.031-1.055-0.843c-0.532-0.802-1.264-1.902-2.84-2.373
			c-1.722-0.502-2.868-3.215-2.706-4.717c0.033-0.215,0.475-1.439,6.022-4.7l0.281-0.16c0.711-0.425,1.517-1.377,2.768-2.885
			c0.845-1.021,1.833-2.203,2.729-3.049h-3.423c-0.419,0.484-0.832,0.977-1.227,1.455C147.805,2.392,146.84,3.563,146.464,3.787z
			 M169.925,8.355c1.513-1.747,1.465-3.708,1.32-4.817c0.149-0.012,0.3-0.011,0.442-0.022c0.869-0.087,1.872-0.373,2.901-0.736
			c0.042,1.098-0.186,2.568-1.555,4.153c-1.354,1.565-2.518,1.951-3.638,2.334c-0.263,0.083-0.518,0.178-0.779,0.274
			C169.039,9.257,169.478,8.878,169.925,8.355z M165.937,8.069c-0.481,0.157-1.018,0.337-1.506,0.738
			c-0.493,0.408-0.786,0.888-1.103,1.401c-0.41,0.664-0.87,1.42-1.966,2.277c-0.996,0.773-1.851,0.565-2.763,0.337
			c-0.51-0.123-0.995-0.241-1.502-0.163c-0.494,0.077-1.133,0.309-1.936,0.597c-0.857,0.306-1.923,0.684-2.678,0.787
			c-0.062-0.076-0.161-0.218-0.232-0.332c-0.354-0.535-0.894-1.343-2.054-1.69c-0.833-0.247-1.44-1.676-1.395-2.449
			c0.114-0.222,0.68-0.974,3.603-2.688l0.181-0.102c0.513-0.31,1.022-0.907,1.867-1.931c0.696-0.843,1.565-1.888,2.183-2.306
			c0.831-0.56,1.382-0.798,2.164-1.028c0.896,0.173,1.659,0.25,2.133,0.232c0.238,0.006,1.096,0.258,1.781,0.454
			c1.574,0.458,3.719,1.077,6.007,1.291c0.122,0.754,0.313,2.078-0.684,3.227C167.265,7.62,166.619,7.84,165.937,8.069z"/>
		<path fill="#232323" d="M201.11,200.381c0.004-0.011,0.003-0.021,0.006-0.032c2.102-11.947-5.432-17.686-10.896-20.217
			c0.304-0.554,0.532-1.178,0.658-1.871c0.253-1.35-0.107-2.837-0.987-4.075c-0.69-0.977-2.023-2.234-4.42-2.684
			c-0.683-0.122-1.366-0.143-2.03-0.053c-2.425,0.329-4.204,2.014-4.645,4.397c-0.064,0.356-0.123,0.718-0.161,1.082
			c-0.049,0.432-0.067,0.864-0.04,1.295c-3.505,0.403-9.027,1.796-12.918,6.429c-2.382,2.842-3.735,6.425-4.043,10.695
			c-0.099,1.354-0.095,2.782,0.02,4.272c-1.324,0.435-2.876,1.418-3.004,3.197c-0.112,1.551,0.882,2.507,1.611,3.201
			c0.542,0.521,0.875,0.864,0.877,1.218c0.005,0.378-0.281,1.021-0.533,1.588c-0.455,1.024-0.974,2.185-0.534,3.241
			c0.249,0.586,0.732,1.017,1.445,1.289c0.562,0.211,1.109,0.173,1.629,0c0.294-0.102,0.576-0.242,0.841-0.411
			c0.137-0.085,0.263-0.179,0.388-0.272l0.013,0.203l3.434,48.439c0.026,0.309,0.181,0.58,0.419,0.747
			c0.114,0.087,0.245,0.146,0.388,0.178c0.116,0.025,0.233,0.025,0.344,0.01c0.317-0.043,0.608-0.235,0.764-0.533l25.134-47.828
			c0.337,0.072,0.731,0.111,1.154,0.054c0.136-0.018,0.271-0.046,0.408-0.086c0.537-0.154,1.293-0.549,1.842-1.57
			c0.589-1.093,0.667-2.107,0.575-2.898c0.888-0.104,1.853-0.543,2.432-1.64c0.841-1.584-0.036-3.144-0.942-4.086
			C200.677,202.513,200.924,201.425,201.11,200.381z M180.792,176.217c0.281-1.518,1.372-2.546,2.921-2.756
			c0.452-0.062,0.915-0.047,1.388,0.037c1.729,0.324,2.661,1.191,3.137,1.864c0.556,0.779,0.797,1.725,0.645,2.528
			c-0.214,1.146-0.887,2.567-2.899,2.84c-0.644,0.088-1.386,0.055-2.211-0.1c-1.612-0.299-2.578-0.844-2.949-1.659
			C180.485,178.224,180.608,177.204,180.792,176.217z M167.236,185.957c3.576-4.268,8.805-5.447,11.949-5.76
			c0.033,0.062,0.072,0.123,0.111,0.18c0.763,1.136,2.108,1.88,4.104,2.25c1.036,0.192,1.998,0.23,2.854,0.115
			c0.699-0.095,1.333-0.294,1.896-0.595c0.24-0.12,0.462-0.263,0.676-0.42c4.29,1.872,10.397,6.012,10.585,14.429
			c-0.184-0.825-0.445-1.619-1.054-1.956c-0.2-0.111-0.438-0.172-0.725-0.169c-1.131,0.01-1.61,1.196-2.179,2.563
			c-0.466,1.133-1.172,2.847-1.913,2.813c-0.422-0.316-0.549-2.501-0.616-3.674c-0.146-2.525-0.28-4.908-2.127-5.155
			c-1.741-0.225-2.576,2.039-3.729,5.175c-0.75,2.031-2.144,5.81-3.229,5.731c-0.823-0.631-0.039-5.995,0.291-8.288
			c0.637-4.341,0.951-6.523-0.693-6.828c-1.665-0.307-2.381,1.715-3.069,3.667c-0.262,0.752-0.688,1.957-1.007,2.363
			c-0.214-0.146-0.274-0.516-0.203-1.616c0.029-0.429,0.057-0.832,0.007-1.204c-0.121-0.849-0.66-1.579-1.444-1.96
			c-0.845-0.413-1.84-0.35-2.723,0.164c-1.145,0.667-1.467,2.451-1.905,4.922c-0.45,2.504-1.066,5.936-2.689,6.206
			c-0.24,0.038-0.336,0.01-0.354-0.008c-0.374-0.344-0.209-2.337-0.117-3.404c0.207-2.439,0.438-5.205-1.811-5.689
			c-1.286-0.271-2.489,0.153-3.486,0.77C165.24,188.844,166.106,187.298,167.236,185.957z M169.77,257.292l-0.172,0.32l-0.392-5.467
			l1.541,2.347l0.271,0.413L169.77,257.292z M172.098,252.85l-0.478-0.724l-2.705-4.134l-0.169-2.343l3.456,4.944l0.616,0.884
			L172.098,252.85z M173.882,249.454l-0.812-1.159l-4.602-6.591l-0.247-3.489l5.495,8.385l0.924,1.416L173.882,249.454z
			 M175.724,245.959l-1.13-1.726l-6.668-10.167l-0.197-2.814l7.451,11.371l1.272,1.942L175.724,245.959z M177.531,242.51
			l-1.484-2.262l-8.614-13.149l-0.155-2.17l9.271,13.992l1.604,2.419L177.531,242.51z M179.226,239.29l-1.751-2.646l-10.354-15.632
			c-0.038-0.057-0.081-0.112-0.129-0.156l-0.185-2.612l11.22,17.148l1.801,2.751L179.226,239.29z M180.907,236.088l-1.834-2.809
			l-12.406-18.953c-0.046-0.07-0.094-0.126-0.152-0.179l-0.179-2.531l13.312,20.607l1.813,2.806L180.907,236.088z M182.55,232.968
			l-1.756-2.717l-13.447-20.813c0.096-0.05,0.192-0.094,0.302-0.118c0.084-0.021,0.17-0.033,0.258-0.029
			c0.332-0.005,0.688,0.132,1.08,0.416c0.449,0.328,0.955,1.57,1.361,2.565c0.689,1.684,1.401,3.425,2.742,4.017
			c0.016,0.008,0.026,0.012,0.042,0.015c0.032,0.011,0.064,0.021,0.097,0.033c0.027,0.119,0.067,0.231,0.138,0.334l8.13,12.411
			l1.717,2.619L182.55,232.968z M184.297,229.644l-1.62-2.474l-7.256-11.064c0.332-0.157,0.659-0.351,0.989-0.564l6.926,10.562
			l1.563,2.39L184.297,229.644z M185.979,226.437l-1.479-2.253l-6.431-9.814c0.589-0.417,1.287-0.865,1.644-0.913
			c0.051-0.007,0.092-0.008,0.129,0.003c0.253,0.206,0.465,1.427,0.584,2.158c0.335,1.946,0.789,4.619,3.182,5.155
			c0.128,0.028,0.257,0.036,0.381,0.046l1.308,2.019l1.288,1.981c0.044,0.065,0.098,0.12,0.151,0.174L185.979,226.437z
			 M187.804,222.969l-1.431-2.207l-0.317-0.485c0.104-0.064,0.213-0.136,0.314-0.211c0.243-0.177,0.478-0.372,0.71-0.588
			l1.493,2.025L187.804,222.969z M189.624,219.507l-1.166-1.577c0.418-0.544,0.821-1.12,1.209-1.7l0.931,1.42L189.624,219.507z
			 M191.676,215.594l-0.8-1.223c0.41-0.634,0.838-1.26,1.01-1.391c0.291-0.157,0.728-0.073,1.122,0.078L191.676,215.594z
			 M199.484,206.796c-0.457,0.86-1.59,0.548-1.708,0.513c-0.401-0.13-0.845,0.002-1.106,0.334c-0.263,0.332-0.293,0.792-0.075,1.152
			c0.007,0.009,0.636,1.137-0.112,2.534c-0.254,0.47-0.515,0.551-0.604,0.573c-0.369,0.111-0.816-0.054-0.987-0.138
			c-0.439-0.299-2.317-1.453-3.96-0.575c-0.607,0.323-1.123,1.089-2.11,2.615c-0.029,0.045-0.051,0.078-0.071,0.112
			c-0.918,1.435-2.467,3.836-3.748,4.629c-0.34,0.215-0.665,0.31-0.95,0.246c-0.195-0.045-0.361-0.136-0.512-0.264
			c-0.6-0.528-0.852-1.712-1.111-3.254c-0.287-1.702-0.562-3.309-1.951-3.739c-1.38-0.428-2.793,0.598-4.164,1.593
			c-0.709,0.516-2.019,1.471-2.405,1.303c-0.594-0.262-1.217-1.801-1.677-2.927c-0.582-1.421-1.132-2.765-2.048-3.439
			c-1.244-0.901-2.333-0.887-3.027-0.717c-1.646,0.408-2.582,2.004-2.802,2.423c-0.643,0.891-1.724,1.831-2.123,1.685
			c-0.205-0.079-0.276-0.151-0.284-0.171c-0.106-0.252,0.295-1.151,0.511-1.636c0.354-0.796,0.724-1.619,0.709-2.441
			c-0.012-1.227-0.841-2.016-1.501-2.653c-0.664-0.632-1.034-1.018-0.993-1.586c0.084-1.158,2.215-1.569,2.23-1.571
			c0.531-0.088,0.9-0.573,0.849-1.108c-0.194-1.889-0.208-3.658-0.048-5.308c0.027-0.332,0.07-0.655,0.113-0.979
			c0.688-0.86,2.378-2.528,3.877-2.204c0.501,0.106,0.307,2.416,0.216,3.529c-0.179,2.082-0.343,4.05,0.764,5.067
			c0.362,0.335,1.021,0.701,2.062,0.52c0.666-0.11,1.218-0.39,1.685-0.797c0.161-0.141,0.304-0.308,0.444-0.477
			c0.084-0.1,0.164-0.202,0.241-0.311c0.086-0.122,0.168-0.249,0.247-0.382c0.069-0.116,0.139-0.233,0.202-0.357
			c0.073-0.141,0.142-0.287,0.208-0.437c0.058-0.129,0.115-0.257,0.168-0.392c0.062-0.157,0.119-0.32,0.175-0.483
			c0.047-0.137,0.096-0.271,0.139-0.412c0.053-0.173,0.102-0.35,0.149-0.526c0.038-0.138,0.077-0.273,0.112-0.414
			c0.047-0.189,0.09-0.382,0.133-0.573c0.029-0.131,0.061-0.26,0.088-0.391c0.045-0.218,0.087-0.435,0.129-0.651
			c0.021-0.104,0.042-0.209,0.062-0.313c0.059-0.315,0.115-0.628,0.17-0.933c0.23-1.286,0.578-3.223,0.931-3.531
			c0.295-0.168,0.582-0.201,0.812-0.089c0.175,0.083,0.294,0.241,0.322,0.411c0.023,0.172-0.001,0.487-0.021,0.797
			c-0.071,1.136-0.21,3.254,1.901,3.787c1.786,0.444,2.562-1.77,3.249-3.732c0.067-0.183,0.142-0.393,0.219-0.612
			c-0.099,0.898-0.25,1.933-0.377,2.811c-0.724,4.946-1.104,8.3,0.105,9.82c0.369,0.457,0.861,0.724,1.437,0.773
			c0.072,0.006,0.139,0.007,0.211,0.008c0.117-0.001,0.229-0.006,0.345-0.021c0.689-0.094,1.279-0.471,1.807-1.038
			c1.224-1.323,2.093-3.684,2.948-5.995c0.449-1.219,1.093-2.97,1.564-3.647c0.221,0.646,0.302,2.109,0.356,3.044
			c0.146,2.561,0.314,5.467,2.517,5.573c2.201,0.105,3.192-2.296,3.917-4.054c0.056-0.125,0.113-0.266,0.171-0.406
			c0.013,0.06,0.025,0.114,0.033,0.169c0.128,0.644,0.275,1.392,0.548,2.081c0.216,0.534,0.498,1.028,0.908,1.408
			c-0.191,0.974-0.444,1.98-0.786,3.045c-0.125,0.401,0.011,0.839,0.338,1.102C198.557,204.781,199.945,205.924,199.484,206.796z"/>
		<path fill="#232323" d="M189.379,203.238c-0.55,0.105-0.913,0.636-0.808,1.189c0.101,0.55,0.631,0.913,1.186,0.808
			c0.664-0.126,1.557-0.077,1.723,0.089c0.223,0.323,0.607,0.481,0.976,0.432c0.15-0.021,0.302-0.076,0.438-0.172
			c0.459-0.313,0.578-0.948,0.26-1.407C192.201,202.785,189.844,203.155,189.379,203.238z"/>
		<path fill="#232323" d="M188.566,208.935c-0.981,1.295-3.245,0.239-3.283,0.224c-0.505-0.243-1.111-0.033-1.355,0.471
			c-0.245,0.499-0.034,1.11,0.466,1.355c0.811,0.392,2.089,0.756,3.332,0.588c0.905-0.123,1.788-0.523,2.462-1.414
			c0.334-0.444,0.247-1.083-0.198-1.422C189.539,208.398,188.906,208.489,188.566,208.935z"/>
		<path fill="#232323" d="M178.337,206.47c-2.668-0.791-4.809,1.787-4.896,1.901c-0.356,0.433-0.29,1.073,0.146,1.424
			c0.225,0.185,0.506,0.254,0.777,0.218c0.246-0.033,0.481-0.152,0.647-0.364c0.013-0.018,1.382-1.636,2.743-1.231
			c0.538,0.157,1.102-0.145,1.265-0.684C179.178,207.195,178.871,206.633,178.337,206.47z"/>
		<path fill="#232323" d="M164.597,202.785c-0.49,0.271-0.663,0.888-0.392,1.379c0.271,0.49,0.89,0.668,1.38,0.396
			c0.61-0.339,2.609-1.121,3.734-0.306c0.221,0.159,0.485,0.216,0.731,0.183c0.267-0.036,0.519-0.178,0.688-0.411
			c0.327-0.453,0.226-1.09-0.229-1.417C168.108,200.876,164.739,202.704,164.597,202.785z"/>
		<path fill="#232323" d="M34.702,70.285c0.579,1.097,1.544,1.535,2.431,1.64c-0.091,0.792-0.014,1.805,0.576,2.899
			c0.548,1.021,1.304,1.416,1.841,1.57c0.138,0.039,0.273,0.067,0.409,0.086c0.422,0.057,0.817,0.019,1.154-0.054l25.134,47.828
			c0.155,0.297,0.446,0.491,0.763,0.534c0.11,0.015,0.228,0.016,0.344-0.01c0.143-0.032,0.273-0.091,0.388-0.178
			c0.238-0.167,0.393-0.438,0.419-0.747l3.434-48.44l0.012-0.203c0.125,0.094,0.251,0.188,0.388,0.273
			c0.264,0.168,0.547,0.309,0.841,0.411c0.52,0.172,1.068,0.211,1.629,0c0.713-0.272,1.196-0.703,1.445-1.289
			c0.44-1.057-0.079-2.217-0.534-3.241c-0.251-0.566-0.538-1.209-0.533-1.588c0.001-0.353,0.335-0.697,0.876-1.217
			c0.729-0.695,1.724-1.651,1.612-3.202c-0.128-1.778-1.68-2.762-3.004-3.197c0.115-1.49,0.119-2.918,0.02-4.272
			c-0.308-4.271-1.662-7.854-4.043-10.695c-3.891-4.633-9.413-6.026-12.918-6.429c0.028-0.432,0.009-0.864-0.04-1.296
			c-0.038-0.363-0.096-0.725-0.161-1.081c-0.44-2.384-2.22-4.069-4.645-4.397c-0.664-0.09-1.348-0.07-2.031,0.053
			c-2.396,0.449-3.729,1.707-4.42,2.684c-0.88,1.238-1.24,2.725-0.987,4.075c0.127,0.693,0.354,1.317,0.659,1.871
			c-5.465,2.532-12.999,8.271-10.897,20.218c0.003,0.011,0.002,0.021,0.006,0.031c0.187,1.044,0.434,2.132,0.775,3.28
			C34.738,67.141,33.861,68.702,34.702,70.285z M44.304,78.133l-1.332-2.536c0.395-0.151,0.832-0.235,1.123-0.079
			c0.172,0.131,0.599,0.757,1.01,1.392L44.304,78.133z M45.383,80.189l0.93-1.42c0.388,0.58,0.791,1.157,1.209,1.7l-1.166,1.578
			L45.383,80.189z M47.407,84.042l1.493-2.025c0.232,0.216,0.467,0.412,0.709,0.588c0.103,0.075,0.21,0.146,0.314,0.211L49.608,83.3
			l-1.431,2.208L47.407,84.042z M49.245,87.531c0.053-0.054,0.107-0.108,0.151-0.174l1.288-1.981l1.308-2.02
			c0.124-0.009,0.253-0.017,0.38-0.045c2.393-0.537,2.847-3.209,3.182-5.155c0.12-0.731,0.332-1.952,0.584-2.158
			c0.037-0.01,0.078-0.01,0.128-0.003c0.357,0.048,1.055,0.496,1.644,0.914l-6.431,9.814l-1.478,2.252L49.245,87.531z
			 M51.081,91.031l1.563-2.389l6.926-10.562c0.33,0.214,0.657,0.406,0.989,0.564l-7.255,11.064l-1.621,2.474L51.081,91.031z
			 M52.768,94.239l1.717-2.619l8.129-12.411c0.07-0.103,0.111-0.215,0.138-0.335c0.032-0.011,0.064-0.022,0.097-0.033
			c0.016-0.003,0.026-0.007,0.043-0.015c1.34-0.592,2.052-2.333,2.741-4.017c0.406-0.995,0.913-2.237,1.361-2.565
			c0.392-0.285,0.749-0.421,1.081-0.417c0.087-0.003,0.173,0.008,0.257,0.03c0.109,0.025,0.206,0.069,0.301,0.118L55.187,92.791
			l-1.756,2.716L52.768,94.239z M66.383,120.151l-0.172-0.32l-1.25-2.386l0.271-0.414l1.542-2.347L66.383,120.151z M67.065,110.531
			l-2.706,4.134l-0.478,0.724l-0.721-1.373l0.617-0.884l3.456-4.944L67.065,110.531z M67.512,104.243l-4.601,6.591l-0.812,1.16
			l-0.758-1.439l0.924-1.416l5.494-8.385L67.512,104.243z M68.055,96.606l-6.668,10.167l-1.13,1.726l-0.729-1.394l1.272-1.942
			l7.451-11.371L68.055,96.606z M68.547,89.638l-8.614,13.149l-1.484,2.262l-0.621-1.169l1.604-2.42l9.27-13.992L68.547,89.638z
			 M68.988,83.396c-0.047,0.044-0.09,0.1-0.129,0.156L58.506,99.184l-1.751,2.646l-0.603-1.146l1.801-2.751l11.219-17.148
			L68.988,83.396z M69.466,76.687c-0.059,0.053-0.107,0.108-0.152,0.179L56.908,95.819l-1.835,2.808l-0.553-1.058l1.814-2.806
			l13.311-20.607L69.466,76.687z M47.743,37.901c0.476-0.673,1.407-1.54,3.136-1.864c0.473-0.084,0.936-0.099,1.388-0.038
			c1.549,0.209,2.64,1.238,2.92,2.756c0.184,0.987,0.307,2.007-0.03,2.755c-0.372,0.815-1.337,1.36-2.95,1.659
			c-0.825,0.155-1.567,0.188-2.211,0.1c-2.012-0.272-2.685-1.695-2.899-2.84C46.946,39.626,47.187,38.681,47.743,37.901z
			 M47.153,44.267c0.214,0.157,0.436,0.3,0.676,0.419c0.563,0.301,1.197,0.5,1.896,0.595c0.855,0.116,1.818,0.077,2.854-0.116
			c1.997-0.37,3.342-1.114,4.105-2.25c0.038-0.057,0.077-0.118,0.111-0.18c3.144,0.313,8.373,1.492,11.949,5.76
			c1.13,1.341,1.996,2.886,2.602,4.622c-0.998-0.616-2.2-1.04-3.487-0.769c-2.248,0.484-2.018,3.25-1.81,5.689
			c0.091,1.067,0.257,3.061-0.118,3.404c-0.018,0.018-0.114,0.046-0.354,0.009c-1.623-0.271-2.239-3.703-2.689-6.206
			c-0.439-2.471-0.761-4.255-1.905-4.922c-0.883-0.514-1.878-0.577-2.723-0.164c-0.784,0.38-1.323,1.111-1.443,1.96
			c-0.05,0.372-0.023,0.775,0.006,1.204c0.071,1.1,0.011,1.471-0.203,1.616c-0.319-0.407-0.745-1.611-1.007-2.363
			c-0.688-1.952-1.403-3.974-3.069-3.667c-1.645,0.305-1.331,2.488-0.694,6.828c0.33,2.292,1.115,7.657,0.292,8.288
			c-1.086,0.079-2.48-3.699-3.229-5.731c-1.153-3.136-1.989-5.399-3.73-5.174c-1.847,0.247-1.98,2.63-2.127,5.155
			c-0.067,1.173-0.194,3.357-0.615,3.674c-0.742,0.033-1.448-1.681-1.914-2.814c-0.568-1.367-1.047-2.553-2.178-2.563
			c-0.287-0.003-0.525,0.057-0.725,0.168c-0.609,0.337-0.87,1.132-1.054,1.957C36.755,50.278,42.863,46.139,47.153,44.267z
			 M37.436,67.307c0.328-0.263,0.464-0.7,0.339-1.101c-0.343-1.065-0.596-2.072-0.787-3.045c0.41-0.38,0.692-0.874,0.908-1.408
			c0.272-0.69,0.42-1.438,0.548-2.081c0.007-0.055,0.02-0.11,0.033-0.17c0.058,0.141,0.115,0.282,0.17,0.407
			c0.725,1.757,1.716,4.159,3.917,4.053s2.37-3.012,2.517-5.572c0.055-0.935,0.135-2.398,0.356-3.044
			c0.472,0.678,1.115,2.429,1.565,3.647c0.854,2.312,1.724,4.672,2.948,5.995c0.528,0.568,1.117,0.945,1.806,1.038
			c0.116,0.016,0.228,0.021,0.345,0.021c0.072,0,0.139-0.001,0.211-0.007c0.575-0.05,1.067-0.316,1.437-0.773
			c1.21-1.521,0.829-4.875,0.105-9.821c-0.127-0.877-0.279-1.911-0.377-2.811c0.078,0.22,0.152,0.43,0.219,0.613
			c0.687,1.962,1.463,4.176,3.249,3.732c2.111-0.533,1.973-2.651,1.901-3.787c-0.019-0.31-0.043-0.625-0.02-0.796
			c0.028-0.17,0.147-0.328,0.322-0.412c0.23-0.112,0.518-0.078,0.812,0.09c0.353,0.309,0.7,2.245,0.931,3.531
			c0.055,0.305,0.111,0.618,0.17,0.933c0.019,0.101,0.041,0.204,0.06,0.306c0.042,0.22,0.085,0.439,0.131,0.66
			c0.027,0.129,0.058,0.256,0.087,0.385c0.043,0.193,0.086,0.386,0.134,0.578c0.035,0.139,0.074,0.275,0.111,0.412
			c0.048,0.178,0.097,0.355,0.15,0.529c0.043,0.139,0.091,0.273,0.138,0.409c0.056,0.164,0.113,0.328,0.175,0.485
			c0.053,0.134,0.111,0.262,0.168,0.392c0.066,0.149,0.134,0.295,0.208,0.437c0.064,0.124,0.133,0.241,0.203,0.358
			c0.079,0.132,0.161,0.259,0.247,0.38c0.077,0.109,0.158,0.211,0.241,0.312c0.141,0.168,0.283,0.336,0.444,0.477
			c0.467,0.406,1.019,0.686,1.685,0.797c1.041,0.182,1.7-0.185,2.063-0.52c1.105-1.018,0.942-2.985,0.763-5.068
			c-0.09-1.113-0.285-3.423,0.216-3.529c1.499-0.324,3.189,1.343,3.876,2.205c0.043,0.323,0.086,0.646,0.113,0.978
			c0.161,1.65,0.147,3.419-0.047,5.308c-0.052,0.536,0.317,1.021,0.849,1.108c0.015,0.002,2.146,0.414,2.23,1.572
			c0.041,0.569-0.329,0.954-0.993,1.586c-0.66,0.638-1.489,1.427-1.501,2.654c-0.014,0.822,0.356,1.646,0.709,2.441
			c0.216,0.485,0.617,1.384,0.511,1.636c-0.008,0.02-0.079,0.092-0.284,0.171c-0.399,0.146-1.48-0.794-2.124-1.685
			c-0.22-0.419-1.156-2.015-2.801-2.422c-0.694-0.171-1.783-0.185-3.027,0.717c-0.916,0.675-1.466,2.018-2.048,3.439
			c-0.46,1.125-1.083,2.664-1.677,2.927c-0.386,0.168-1.696-0.788-2.405-1.304c-1.371-0.994-2.784-2.021-4.164-1.593
			c-1.39,0.432-1.664,2.038-1.951,3.74c-0.26,1.542-0.512,2.726-1.111,3.254c-0.15,0.128-0.316,0.218-0.512,0.263
			c-0.285,0.064-0.61-0.031-0.95-0.246c-1.281-0.793-2.831-3.194-3.748-4.629c-0.021-0.034-0.042-0.067-0.072-0.112
			c-0.987-1.526-1.503-2.292-2.109-2.615c-1.644-0.878-3.521,0.276-3.961,0.575c-0.17,0.085-0.618,0.25-0.987,0.138
			c-0.089-0.022-0.35-0.104-0.604-0.573c-0.748-1.397-0.119-2.525-0.113-2.534c0.218-0.36,0.188-0.82-0.074-1.152
			c-0.263-0.333-0.706-0.464-1.107-0.334c-0.117,0.035-1.251,0.348-1.708-0.513C36.035,68.463,37.424,67.32,37.436,67.307z"/>
		<path fill="#232323" d="M43.526,68.295c0.367,0.05,0.752-0.108,0.975-0.431c0.166-0.167,1.059-0.215,1.723-0.089
			c0.555,0.106,1.085-0.257,1.185-0.807c0.106-0.554-0.258-1.084-0.807-1.189c-0.465-0.083-2.822-0.454-3.773,0.938
			c-0.318,0.458-0.2,1.094,0.26,1.407C43.224,68.218,43.375,68.274,43.526,68.295z"/>
		<path fill="#232323" d="M45.991,71.275c-0.445,0.339-0.532,0.978-0.198,1.422c0.674,0.89,1.557,1.291,2.462,1.414
			c1.243,0.168,2.521-0.196,3.333-0.588c0.499-0.245,0.71-0.856,0.465-1.355c-0.244-0.504-0.851-0.714-1.355-0.47
			c-0.038,0.016-2.302,1.071-3.284-0.224C47.074,71.028,46.441,70.938,45.991,71.275z"/>
		<path fill="#232323" d="M58.225,70.956c1.361-0.404,2.73,1.215,2.743,1.232c0.166,0.212,0.401,0.331,0.647,0.364
			c0.272,0.037,0.553-0.033,0.777-0.218c0.437-0.351,0.503-0.992,0.147-1.424c-0.087-0.114-2.228-2.692-4.896-1.902
			c-0.535,0.163-0.841,0.726-0.684,1.264C57.123,70.812,57.687,71.113,58.225,70.956z"/>
		<path fill="#232323" d="M65.93,66.977c0.247,0.033,0.51-0.023,0.731-0.183c1.125-0.815,3.124-0.033,3.734,0.306
			c0.491,0.271,1.109,0.094,1.38-0.396c0.271-0.491,0.099-1.108-0.392-1.379c-0.143-0.081-3.512-1.909-5.913-0.176
			c-0.455,0.328-0.556,0.964-0.228,1.418C65.411,66.799,65.663,66.94,65.93,66.977z"/>
		<path fill="#232323" d="M169.636,154.671c0.25,0.292,0.598,0.441,0.953,0.441c0.286,0,0.572-0.1,0.803-0.299
			c0.528-0.441,0.591-1.231,0.143-1.754l-2.943-3.465l2.943-3.458c0.448-0.522,0.386-1.312-0.143-1.754
			c-0.523-0.448-1.308-0.38-1.756,0.143l-3.628,4.267c-0.393,0.467-0.393,1.145,0,1.611L169.636,154.671z"/>
		<path fill="#232323" d="M163.232,154.671c0.249,0.292,0.598,0.441,0.952,0.441c0.28,0,0.566-0.1,0.803-0.299
			c0.522-0.441,0.585-1.231,0.144-1.754l-2.944-3.465l2.944-3.458c0.441-0.522,0.379-1.312-0.144-1.754
			c-0.522-0.448-1.307-0.38-1.755,0.143l-3.628,4.267c-0.398,0.467-0.398,1.145,0,1.611L163.232,154.671z"/>
		<path fill="#232323" d="M96.588,86.379l3.464-2.944l3.459,2.944c0.522,0.448,1.312,0.386,1.754-0.144
			c0.448-0.523,0.38-1.307-0.143-1.755l-4.267-3.628c-0.467-0.392-1.145-0.392-1.611,0l-4.267,3.628
			c-0.292,0.249-0.442,0.598-0.442,0.952c0,0.286,0.1,0.573,0.299,0.803C95.275,86.765,96.065,86.827,96.588,86.379z"/>
		<path fill="#232323" d="M254.098,62.168c0.523,0.448,1.307,0.38,1.755-0.143l3.629-4.267c0.392-0.467,0.392-1.145,0-1.611
			l-3.629-4.268c-0.249-0.292-0.598-0.441-0.952-0.441c-0.286,0-0.572,0.1-0.803,0.298c-0.529,0.442-0.591,1.232-0.143,1.754
			l2.943,3.465l-2.943,3.459C253.507,60.937,253.568,61.727,254.098,62.168z"/>
		<path fill="#232323" d="M240.934,142.045c-0.448,0.523-0.38,1.307,0.144,1.755l4.267,3.628c0.467,0.392,1.145,0.392,1.611,0
			l4.268-3.628c0.292-0.249,0.441-0.598,0.441-0.952c0-0.286-0.1-0.573-0.299-0.803c-0.441-0.529-1.231-0.591-1.754-0.143
			l-3.465,2.943l-3.459-2.943C242.165,141.454,241.375,141.516,240.934,142.045z"/>
		<path fill="#232323" d="M192.769,260.612c-0.523-0.448-1.308-0.38-1.756,0.144l-3.628,4.267c-0.392,0.467-0.392,1.145,0,1.611
			l3.628,4.268c0.25,0.292,0.598,0.441,0.953,0.441c0.286,0,0.572-0.1,0.803-0.299c0.529-0.441,0.591-1.231,0.143-1.754
			l-2.943-3.465l2.943-3.459C193.359,261.844,193.298,261.054,192.769,260.612z"/>
		<path fill="#232323" d="M38.217,226.257c-0.249-0.292-0.598-0.441-0.952-0.441c-0.287,0-0.573,0.1-0.803,0.299
			c-0.529,0.441-0.591,1.231-0.143,1.754l2.944,3.465l-2.944,3.459c-0.448,0.522-0.386,1.312,0.143,1.754
			c0.523,0.448,1.307,0.38,1.755-0.143l3.628-4.268c0.393-0.467,0.393-1.145,0-1.611L38.217,226.257z"/>
		<path fill="#232323" d="M44.621,226.257c-0.249-0.292-0.598-0.441-0.952-0.441c-0.28,0-0.566,0.1-0.803,0.299
			c-0.523,0.441-0.585,1.231-0.143,1.754l2.943,3.465l-2.943,3.459c-0.442,0.522-0.38,1.312,0.143,1.754
			c0.522,0.448,1.307,0.38,1.755-0.143l3.628-4.268c0.398-0.467,0.398-1.145,0-1.611L44.621,226.257z"/>
		<path fill="#232323" d="M38.512,123.969c0.522,0.448,1.312,0.386,1.754-0.143c0.448-0.523,0.38-1.307-0.143-1.755l-4.267-3.628
			c-0.467-0.393-1.145-0.393-1.611,0l-4.268,3.628c-0.292,0.25-0.441,0.598-0.441,0.953c0,0.286,0.1,0.572,0.298,0.803
			c0.442,0.529,1.232,0.591,1.754,0.143l3.465-2.944L38.512,123.969z"/>
		<path fill="#232323" d="M31.588,117.565l3.465-2.944l3.459,2.944c0.522,0.442,1.312,0.379,1.754-0.144
			c0.448-0.522,0.38-1.307-0.143-1.755l-4.267-3.628c-0.467-0.398-1.145-0.398-1.611,0l-4.268,3.628
			c-0.292,0.249-0.441,0.598-0.441,0.952c0,0.28,0.1,0.566,0.298,0.803C30.276,117.945,31.066,118.007,31.588,117.565z"/>
		<path fill="#232323" d="M140.843,240.539l-3.465,2.943l-3.458-2.943c-0.522-0.448-1.312-0.386-1.754,0.143
			c-0.448,0.523-0.379,1.308,0.143,1.756l4.267,3.628c0.467,0.393,1.145,0.393,1.611,0l4.268-3.628
			c0.292-0.249,0.441-0.598,0.441-0.953c0-0.286-0.1-0.572-0.298-0.803C142.156,240.153,141.366,240.091,140.843,240.539z"/>
		<path fill="#232323" d="M140.843,246.943l-3.465,2.943l-3.458-2.943c-0.522-0.442-1.312-0.38-1.754,0.143
			c-0.448,0.522-0.379,1.307,0.143,1.755l4.267,3.629c0.467,0.398,1.145,0.398,1.611,0l4.268-3.629
			c0.292-0.249,0.441-0.598,0.441-0.952c0-0.28-0.1-0.566-0.298-0.803C142.156,246.563,141.366,246.501,140.843,246.943z"/>
		<path fill="#232323" d="M242.539,263.685c0.264-0.105,0.469-0.324,0.562-0.592c0.088-0.272,0.052-0.568-0.1-0.812l-2.622-4.223
			c-0.247-0.396-0.742-0.558-1.176-0.388c0,0-1.353,0.544-3.297,1.32c-0.179-0.355-0.399-0.773-0.658-1.183
			c-1.328-2.092-2.528-2.162-3.3-1.859l-6.664,2.646l-5.74-27.823c-0.053-0.265-0.216-0.491-0.451-0.632
			c-0.229-0.137-0.515-0.169-0.771-0.089l-3.537,1.089c-0.472,0.146-0.757,0.621-0.664,1.103l5.642,28.548l-8.982,3.561
			c-1.806,0.721-1.323,3.344-0.831,4.939c-2.115,0.836-3.621,1.429-3.621,1.429c-0.434,0.174-0.684,0.631-0.589,1.084l0.988,4.874
			c0.059,0.279,0.232,0.519,0.487,0.657c0.177,0.095,0.375,0.133,0.57,0.108c0.081-0.01,0.166-0.03,0.239-0.063l0.97-0.385
			c1.263,2.536,6.219,12.509,11.408,23.006h2.144c-0.462-0.934-0.924-1.868-1.381-2.791c0.364-0.035,0.814-0.081,1.334-0.145
			c4.662-0.574,15.178-2.653,24.111-10.075c1.314,4.332,2.677,8.809,3.961,13.011h2.01c-4.344-14.211-9.691-31.943-10.91-35.977
			L242.539,263.685z M216.175,232.721l1.699-0.523l5.596,27.12l-1.894,0.751L216.175,232.721z M245.999,284.981
			c-10.446,9.062-23.868,10.245-25.757,10.366c-4.353-8.804-8.224-16.596-9.457-19.068l14.562-5.812l14.532-5.734
			C240.737,267.581,243.204,275.77,245.999,284.981z"/>
		<path fill="#232323" d="M242.176,30.962c2.057-0.253,4.279-0.852,6.395-1.688c0.014-0.007,0.021-0.018,0.035-0.024
			c0.015-0.002,0.024-0.003,0.033-0.009c2.9-1.146,5.605-2.782,7.426-4.478c2.885-2.694,2.871-4.812,2.353-6.114
			c-0.457-1.157-2.921-9.111-5.837-18.65h-2.01c0.324,1.062,0.645,2.11,0.957,3.13c-9.875,8.589-20.579,9.185-22.896,9.209
			c-1.908-3.878-4.008-8.135-6.086-12.339h-2.144c6.395,12.934,13.145,26.664,13.78,28.267
			C235.163,30.736,238.388,31.429,242.176,30.962z M256.63,19.359c0.567,1.421-0.934,3.117-1.881,3.998
			c-1.646,1.539-4.131,3.036-6.819,4.098c-0.009,0.006-0.022,0.013-0.032,0.019c-0.013,0.007-0.027,0.008-0.041,0.015
			c-5.579,2.212-11.024,2.243-11.888,0.069c-0.042-0.106-0.11-0.267-0.203-0.469c1.192,0.245,2.868,0.397,5.029,0.131
			c1.775-0.219,3.874-0.719,6.289-1.68c5.385-2.135,8.076-4.858,9.368-6.678C256.528,19.081,256.587,19.249,256.63,19.359z
			 M231.97,14.039c4.575-0.563,12.5-2.493,20.173-8.903c1.439,4.688,2.684,8.704,3.511,11.289c-0.332,0.763-2.269,4.55-9.279,7.33
			c-7.005,2.779-10.951,1.333-11.7,1c-1.156-2.428-2.977-6.16-5.11-10.511C230.199,14.218,231.011,14.157,231.97,14.039z"/>
		<path fill="#232323" d="M176.115,84.197h2.385v2.526c0,0.61,0.494,1.098,1.099,1.098s1.099-0.488,1.099-1.098v-2.526h1.879
			c0.604,0,1.1-0.495,1.1-1.099c0-0.604-0.495-1.098-1.1-1.098h-1.879v-3.07c0-0.604-0.494-1.098-1.099-1.098
			s-1.099,0.494-1.099,1.098V82h-2.385c-0.604,0-1.099,0.495-1.099,1.098C175.017,83.702,175.512,84.197,176.115,84.197z"/>
		<path fill="#232323" d="M262.076,246.804h-1.879v-3.07c0-0.604-0.494-1.098-1.099-1.098S258,243.129,258,243.733v3.07h-2.385
			c-0.604,0-1.099,0.494-1.099,1.098c0,0.604,0.495,1.099,1.099,1.099H258v2.526c0,0.609,0.494,1.098,1.099,1.098
			s1.099-0.488,1.099-1.098V249h1.879c0.604,0,1.1-0.494,1.1-1.099C263.176,247.298,262.681,246.804,262.076,246.804z"/>
		<path fill="#232323" d="M9.198,225h1.879c0.604,0,1.099-0.494,1.099-1.099c0-0.604-0.494-1.098-1.099-1.098H9.198v-3.07
			c0-0.604-0.495-1.098-1.099-1.098c-0.604,0-1.099,0.493-1.099,1.098v3.07H4.616c-0.604,0-1.099,0.494-1.099,1.098
			c0,0.604,0.494,1.099,1.099,1.099H7v2.526c0,0.609,0.495,1.098,1.099,1.098c0.604,0,1.099-0.488,1.099-1.098V225z"/>
		<path fill="#232323" d="M142.879,191.667H141v-3.07c0-0.604-0.495-1.098-1.099-1.098c-0.604,0-1.099,0.493-1.099,1.098v3.07
			h-2.384c-0.604,0-1.099,0.494-1.099,1.098c0,0.604,0.494,1.099,1.099,1.099h2.384v2.526c0,0.609,0.495,1.098,1.099,1.098
			c0.604,0,1.099-0.488,1.099-1.098v-2.526h1.879c0.604,0,1.099-0.494,1.099-1.099C143.978,192.161,143.483,191.667,142.879,191.667
			z"/>
		<path fill="#232323" d="M13,67.667h2.384v2.526c0,0.61,0.495,1.099,1.099,1.099c0.604,0,1.099-0.489,1.099-1.099v-2.526h1.879
			c0.604,0,1.099-0.494,1.099-1.098s-0.494-1.098-1.099-1.098h-1.879V62.4c0-0.604-0.495-1.098-1.099-1.098
			c-0.604,0-1.099,0.494-1.099,1.098v3.07H13c-0.604,0-1.099,0.494-1.099,1.098S12.396,67.667,13,67.667z"/>
		<path fill="#232323" d="M276.615,10.197H279v2.526c0,0.61,0.494,1.098,1.099,1.098s1.099-0.488,1.099-1.098v-2.526h1.879
			c0.604,0,1.1-0.495,1.1-1.099c0-0.604-0.495-1.098-1.1-1.098h-1.879V4.93c0-0.604-0.494-1.098-1.099-1.098S279,4.326,279,4.93V8
			h-2.385c-0.604,0-1.099,0.495-1.099,1.098C275.517,9.702,276.012,10.197,276.615,10.197z"/>
		<path fill="#232323" d="M99.521,28.709h2.384v2.526c0,0.61,0.495,1.099,1.099,1.099c0.604,0,1.099-0.489,1.099-1.099v-2.526h1.879
			c0.604,0,1.099-0.494,1.099-1.098s-0.494-1.098-1.099-1.098h-1.879v-3.07c0-0.604-0.495-1.098-1.099-1.098
			c-0.604,0-1.099,0.494-1.099,1.098v3.07h-2.384c-0.604,0-1.099,0.494-1.099,1.098S98.917,28.709,99.521,28.709z"/>
		<path fill="#232323" d="M218.676,169.599c0-0.604-0.495-1.099-1.1-1.099h-1.879v-3.069c0-0.604-0.494-1.099-1.099-1.099
			s-1.099,0.494-1.099,1.099v3.069h-2.385c-0.604,0-1.099,0.494-1.099,1.099c0,0.604,0.495,1.098,1.099,1.098h2.385v2.526
			c0,0.609,0.494,1.099,1.099,1.099s1.099-0.489,1.099-1.099v-2.526h1.879C218.181,170.696,218.676,170.202,218.676,169.599z"/>
		<path fill="#232323" d="M131.565,215.84c-0.23-0.401-0.446-0.972-0.382-1.198c0.003-0.012,0.008-0.03,0.012-0.043
			c0.46-1.635,0.068-4.276-0.687-5.633c-0.362-0.638-0.894-1.059-1.465-1.213c-1.885-0.511-4.117,0.977-6.401,2.567
			c-0.757,0.526-1.466,1.027-2.122,1.411c-1.816,1.075-6.257,1.88-7.949,2.117c-0.532-0.269-1.079-0.555-1.598-0.826
			c-0.235-0.126-0.501-0.168-0.761-0.136c-1.836,0.257-5.187-0.185-8.734-0.655c-6.32-0.827-12.857-1.684-16.392,0.216
			c-3.872,2.089-7.935,7.251-9.524,12.005c-0.083,0.247-0.158,0.491-0.227,0.735c-0.516,1.831-0.61,3.457-0.29,4.83
			c0.393,1.677,1.46,3.048,3.172,4.079c4.449,2.687,12.783,2.581,18.359,1.124c0.813-0.213,1.612-0.49,2.397-0.818
			c4.222-1.785,7.957-5.122,11.318-8.122c1.262-1.125,2.452-2.184,3.604-3.109c0.24-0.196,0.396-0.47,0.447-0.766
			c0.058-0.017,0.109-0.036,0.167-0.053c0.354-0.105,0.822-0.244,1.356-0.404c2.121-0.612,5.284-1.427,6.372-1.067
			c2.515,0.827,7.327,0.443,9.149-1.172c0.404-0.355,0.63-0.734,0.737-1.114C132.423,217.535,131.941,216.501,131.565,215.84z
			 M108.747,221.728c0.176,0.057,0.975,0.388,1.953,0.808c-0.687,0.587-1.384,1.21-2.1,1.848c-3.767,3.361-8.045,7.174-12.665,8.378
			c-5.036,1.317-12.74,1.369-16.404-0.846c-1.119-0.672-1.775-1.484-2.011-2.477c-0.218-0.94-0.129-2.171,0.263-3.562
			c0.488-1.732,1.399-3.585,2.55-5.303c1.691-2.531,3.887-4.769,5.958-5.884c2.811-1.515,9.488-0.64,14.853,0.065
			c0.057,0.009,0.115,0.012,0.171,0.021c3.574,0.471,6.685,0.871,8.82,0.68c0.75,0.39,1.684,0.87,2.531,1.287
			c-0.567,0.35-1.187,0.718-1.662,1c-2.606,1.559-2.941,1.763-3.119,2.393C107.702,220.793,108.101,221.513,108.747,221.728z
			 M123.07,218.471c-1.511-0.498-4.081-0.012-6.831,0.747c-0.799,0.211-1.631,0.453-2.446,0.699
			c-0.49,0.146-1.051,0.312-1.212,0.346c-0.151,0.018-0.292,0.063-0.421,0.126c0,0-0.001-0.001-0.002-0.001h0
			c-0.125-0.048-0.242-0.101-0.366-0.155c0.174-0.104,0.342-0.208,0.503-0.309c2.089-1.249,3.068-1.865,3.555-2.303
			c0.017,0.043,0.023,0.091,0.039,0.135c0.039-0.03,0.082-0.062,0.114-0.092c0.32-0.293,0.586-0.463,0.662-0.732
			c0.095-0.337-0.087-0.771-0.266-1.073c-0.01-0.01-0.096-0.047-0.106-0.057c1.919-0.411,4.157-1.043,5.558-1.864
			c0.739-0.44,1.5-0.992,2.259-1.526c1.218-0.853,3.347-2.21,4.191-2.203c0.353,0.575,0.761,2.587,0.447,3.701
			c-0.003,0.013-0.007,0.024-0.012,0.043c-0.354,1.255,0.155,2.337,0.624,3.156c0.136,0.243,0.278,0.574,0.345,0.778
			C128.67,218.673,125.028,219.121,123.07,218.471z"/>
		<path fill="#232323" d="M193.449,64.194c0.985,0.872,2.099,1.632,3.352,2.238c4.311,2.077,9.389,2.358,13.784,2.358
			c1.422,0,2.831-0.12,4.197-0.148c1.824-0.042,3.578-0.126,5.205-0.126c-0.252,0.125-0.517,0.23-0.779,0.34
			c0.257,0.003,0.528,0.012,0.779,0.012c0.021,0,0.035,0,0.056,0c0.021,0,0.035,0,0.05,0c0.281,0,0.542-0.246,0.768-0.38
			c0.091,0.042,0.19-0.004,0.296,0.046c1.845,0.802,6.747,3.081,7.571,4.433c1.605,2.62,3.782,5.757,6.493,5.757
			c0.021,0,0.05,0,0.078,0c2.092,0,2.753-2.133,3.197-3.393c0.211-0.613,0.472-1.475,0.774-1.665
			c1.423-0.944,3.184-3.226,3.55-5.071c0.19-0.985-0.077-1.677-0.331-2.05c-1.254-1.823-3.747-2.126-6.396-2.443
			c-0.746-0.084-1.514-0.184-2.253-0.31c-2.304-0.394-6.628-2.9-8.227-3.914c-0.254-0.613-0.515-1.247-0.754-1.845
			c-0.112-0.275-0.303-0.5-0.549-0.662c-1.662-1.056-3.923-3.238-6.317-5.547c-4.466-4.309-9.522-9.187-13.96-10.138
			c-1.443-0.309-2.853-0.464-4.19-0.464c-3.684,0-6.719,1.175-8.782,3.322c-0.979,1.007-1.733,2.239-2.247,3.661
			C187.096,53.015,188.701,59.949,193.449,64.194z M225.586,65.434c0.774,0,1.31-0.282,1.592-0.839
			c0.077-0.147,0.12-0.309,0.141-0.471c1.916,1.035,4.269,2.14,6.043,2.45c0.811,0.134,1.613,0.232,2.395,0.331
			c1.797,0.211,3.648,0.437,4.304,1.105c-0.105,0.71-1.268,2.512-2.339,3.216c-1.099,0.726-1.535,2.162-1.887,3.176
			c-0.155,0.45-0.416,1.506-0.599,1.506c-0.578,0-1.839-0.754-4.1-4.45c-1.127-1.844-4.62-3.643-8.219-5.233
			c-0.212-0.092-0.416-0.227-0.627-0.318c-0.521-0.232-1.105-0.508-1.274-0.6c-0.134-0.091-0.282-0.159-0.438-0.202
			c-0.062-0.126-0.127-0.266-0.189-0.392c0.001,0,0.002,0,0.003,0c-0.001-0.002-0.002-0.004-0.003-0.006
			c0.218,0.035,0.443,0.078,0.647,0.113c0.895,0.155,1.676,0.282,2.346,0.38c0,0-0.001,0-0.001,0.001h0.001
			C224.367,65.35,225.107,65.434,225.586,65.434z M191.47,49.157c1.035-2.921,3.261-4.21,5.359-4.751
			c1.106-0.289,2.177-0.366,3.015-0.366c1.142,0,2.353,0.133,3.599,0.401c3.655,0.781,8.614,5.562,12.593,9.405
			c2.332,2.253,4.543,4.385,6.375,5.646c0.352,0.866,0.795,1.936,1.211,2.894c-0.247-0.035-0.5-0.078-0.754-0.12
			c-0.472-0.071-0.943-0.155-1.366-0.226c-1.824-0.303-2.888-0.479-3.416-0.479c-0.852,0-1.239,0.479-1.395,0.767
			c-0.239,0.437-0.211,1.021,0.05,1.45c0.105,0.169,0.542,1.021,1.07,2.077c-1.007,0.008-2.042,0.028-3.099,0.057
			c-1.346,0.028-2.74,0.063-4.127,0.063c-4.078,0-8.755-0.246-12.565-2.083C192.082,61.033,189.801,53.824,191.47,49.157z"/>
		<path fill="#232323" d="M151.667,95.18c-2.759,0-5,2.24-5,4.998s2.241,4.998,5,4.998c2.759,0,5-2.24,5-4.998
			S154.426,95.18,151.667,95.18z M151.667,102.679c-1.38,0-2.503-1.123-2.503-2.502s1.124-2.502,2.503-2.502
			c1.379,0,2.503,1.123,2.503,2.502S153.046,102.679,151.667,102.679z"/>
		<path fill="#232323" d="M200.497,19.998c2.759,0,5-2.24,5-4.998s-2.241-4.998-5-4.998s-5,2.24-5,4.998
			S197.738,19.998,200.497,19.998z M200.497,12.498c1.38,0,2.503,1.123,2.503,2.502s-1.123,2.502-2.503,2.502
			s-2.503-1.123-2.503-2.502S199.117,12.498,200.497,12.498z"/>
		<path fill="#232323" d="M237.667,100.511c0-2.758-2.241-4.998-5-4.998c-2.76,0-5,2.24-5,4.998c0,2.757,2.24,4.998,5,4.998
			C235.426,105.508,237.667,103.268,237.667,100.511z M232.667,103.012c-1.38,0-2.503-1.123-2.503-2.501
			c0-1.379,1.123-2.502,2.503-2.502c1.379,0,2.503,1.123,2.503,2.502C235.17,101.889,234.046,103.012,232.667,103.012z"/>
		<path fill="#232323" d="M222,202.669c-2.759,0-5,2.24-5,4.998s2.241,4.997,5,4.997s5-2.239,5-4.997S224.759,202.669,222,202.669z
			 M222,210.169c-1.38,0-2.503-1.123-2.503-2.502s1.123-2.502,2.503-2.502s2.503,1.123,2.503,2.502S223.38,210.169,222,210.169z"/>
		<path fill="#232323" d="M271,276.169c-2.759,0-5,2.24-5,4.998s2.241,4.997,5,4.997s5-2.239,5-4.997S273.759,276.169,271,276.169z
			 M271,283.669c-1.38,0-2.503-1.123-2.503-2.502s1.123-2.502,2.503-2.502s2.503,1.123,2.503,2.502S272.38,283.669,271,283.669z"/>
		<path fill="#232323" d="M61.997,250.502c-2.759,0-5,2.24-5,4.998s2.241,4.998,5,4.998c2.759,0,5-2.24,5-4.998
			S64.756,250.502,61.997,250.502z M61.997,258.002c-1.38,0-2.503-1.123-2.503-2.502s1.123-2.502,2.503-2.502
			c1.379,0,2.503,1.123,2.503,2.502S63.376,258.002,61.997,258.002z"/>
		<path fill="#232323" d="M8,164.842c2.759,0,5-2.24,5-4.998s-2.241-4.997-5-4.997c-2.759,0-5,2.239-5,4.997
			S5.241,164.842,8,164.842z M8,157.342c1.379,0,2.503,1.123,2.503,2.502S9.379,162.346,8,162.346s-2.503-1.123-2.503-2.502
			S6.621,157.342,8,157.342z"/>
		<path fill="#232323" d="M91.333,195.342c2.759,0,5-2.24,5-4.998s-2.241-4.997-5-4.997c-2.759,0-5,2.239-5,4.997
			S88.574,195.342,91.333,195.342z M91.333,187.842c1.379,0,2.503,1.123,2.503,2.502s-1.124,2.502-2.503,2.502
			s-2.503-1.123-2.503-2.502S89.954,187.842,91.333,187.842z"/>
		<path fill="#232323" d="M243.438,205.171l14.424-4.427l30.679-9.415l3.456-1.061c0.477-0.146,0.464-0.807,0.317-1.283
			l-1.081-3.522c0.705-0.795,1.257-1.966,0.641-3.972c-0.334-1.088-0.769-1.855-1.274-2.174l0.316-0.098
			c0.234-0.071,0.379-0.405,0.491-0.625c0.108-0.218,0.099-0.561,0.022-0.794c-0.071-0.2-1.785-5.043-6.849-8.852
			c-2.607-1.959-6.421-3.871-11.729-4.395c-4.138-0.404-9.196,0.008-15.305,1.883c-0.959,0.294-1.878,0.604-2.773,0.935
			c-0.01,0.004-0.02,0.007-0.029,0.01c-0.021,0.006-0.042,0.011-0.061,0.02c-7.486,2.768-12.782,6.767-15.778,11.92
			c-0.006,0.012-0.017,0.023-0.025,0.041c-0.148,0.259-0.303,0.514-0.439,0.779c-3.85,7.379-1.683,14.333-1.589,14.622
			c0.098,0.301,0.356,0.542,0.65,0.651c0.065,0.024,0.128,0.049,0.195,0.058c0.105,0.013,0.212,0.015,0.315-0.018l0.004-0.001
			c0.016-0.005,0.286-0.088,0.286-0.088c-0.039,0.012-0.068,0.04-0.082,0.12c-0.116,0.624-0.229,1.339,0.027,2.175
			c0.568,1.851,2.034,2.641,2.655,3.118l1.117,3.641C242.167,204.896,242.96,205.317,243.438,205.171z M238.399,193.44
			c-0.346-1.791-1.049-7.143,1.699-12.381c0.022-0.05,0.036-0.144,0.063-0.194l1.191,0.297c0.172,0.048,0.335,0.025,0.496-0.023
			c0.033-0.01,0.057-0.04,0.088-0.055c0.079-0.035,0.154-0.079,0.221-0.136c0.036-0.031,0.069-0.06,0.101-0.097
			c0.077-0.092,0.143-0.196,0.181-0.317c0.003-0.012,0.014-0.019,0.017-0.03c0.033-0.123,0.039-0.247,0.021-0.366
			c-0.05-0.349-0.3-0.651-0.662-0.748l-0.693-0.188c0-0.001,0.001-0.001,0.001-0.001c1.216-1.82,2.766-3.477,4.651-4.966
			l1.926,1.173c0.229,0.144,0.496,0.165,0.734,0.092c0.204-0.062,0.391-0.196,0.511-0.394c0.263-0.428,0.124-0.986-0.302-1.245
			l-1.278-0.779c1.865-1.265,4-2.394,6.401-3.382l-0.405,1.741c-0.115,0.49,0.19,0.976,0.677,1.092
			c0.162,0.035,0.322,0.029,0.474-0.018c0.295-0.091,0.542-0.337,0.617-0.663l0.679-2.936c0.735-0.264,1.487-0.518,2.268-0.757
			c5.337-1.639,10.24-2.232,14.582-1.811l-1.248,1.512c-0.324,0.384-0.268,0.954,0.117,1.277c0.246,0.199,0.565,0.253,0.848,0.166
			c0.16-0.049,0.315-0.148,0.429-0.288l1.962-2.37c0.9,0.165,1.771,0.376,2.61,0.636c0.942,0.289,1.846,0.638,2.711,1.045
			l-0.751,0.411c-0.086,0.046-0.157,0.105-0.218,0.172c-0.267,0.275-0.339,0.705-0.139,1.062c0.207,0.382,0.653,0.554,1.057,0.43
			c0.061-0.019,0.115-0.041,0.172-0.071l0.091-0.047l1.693-0.928c0.484,0.297,0.955,0.607,1.409,0.942
			c3.431,2.556,5.255,5.824,5.961,7.306l-5.369,1.845l-0.117,0.035l0.165-1.039c0.062-0.252,0.004-0.523-0.132-0.747
			c-0.126-0.209-0.319-0.376-0.553-0.436c-0.486-0.116-0.992,0.137-1.113,0.625l-0.455,1.795c-0.011,0.042-0.125,0.104-0.127,0.142
			l-23.167,7.166l-0.519-1.69c-0.146-0.477-0.656-0.747-1.133-0.601c-0.478,0.146-0.748,0.656-0.602,1.133l0.521,1.694l-4.661,1.445
			l-0.004-0.005l-1.173-1.55c-0.229-0.29-0.585-0.4-0.913-0.317c-0.117,0.03-0.231,0.082-0.334,0.163
			c-0.392,0.315-0.44,0.88-0.13,1.273l0.792,0.98l-9.382,2.903l-0.012,0.003l0.179-0.719c0.03-0.122,0.035-0.244,0.017-0.36
			c-0.056-0.35-0.313-0.649-0.676-0.741c-0.486-0.116-0.947,0.281-1.068,0.769l-0.406,1.889L238.399,193.44z M264.538,187.007
			l15.898-4.927l2.448-0.756c-3.011,1.83-6.126,3.644-7.328,4.103c-1.058,0.4-5.339,0.966-10.083,1.478
			C265.168,186.941,264.85,186.973,264.538,187.007z M242.193,199.389c-0.519-0.315-1.651-0.821-2.086-2.238
			c-0.006-0.021-0.008-0.039-0.014-0.059c-0.344-1.196,0.104-2.082,0.405-2.468c0.02-0.026,0.036-0.054,0.053-0.08
			c0.027-0.043,0.053-0.083,0.075-0.107l1.556-0.494l0.294-0.094l9.607-2.979c0.021-0.007,0.045-0.008,0.067-0.015
			c0.039-0.012,0.076-0.03,0.109-0.045l3.821-1.183c0.038,0.002,0.081,0.003,0.123,0c1.455-0.123,12.247-1.065,17.503-1.946
			c0.195-0.032,0.382-0.065,0.561-0.098c0.357-0.064,0.682-0.129,0.967-0.192c0.284-0.063,0.529-0.126,0.729-0.188
			c0.091-0.027,0.172-0.057,0.24-0.083c2.416-0.922,10.924-6.278,12.419-7.221c0.487,0.216,1.218,0.828,1.587,1.986
			c0.004,0.015,0.012,0.024,0.017,0.039c0.479,1.561-0.159,2.297-0.32,2.82L242.193,199.389z M243.107,201.005l46.607-14.304
			l0.599,1.95l0.066,0.217l-46.824,14.37l-0.665-2.167L243.107,201.005z"/>
		<path fill="#232323" d="M244.093,215.81l1.987,6.474c0.098,0.321,0.416,1.39,1.273,1.956c0.442,0.297,1.357,0.65,2.515,0.296
			l42.792-13.133l4.631-1.421c0.039-0.013-0.065-0.104-0.031-0.118c0.912-0.413,2.309-1.876,1.613-4.142l-1.89-6.158
			c0.343-0.428-0.357-1.394-1.326-1.987c-0.204-0.123-0.321-0.286-0.802-0.309l-0.547-1.781c-0.146-0.477-0.373-0.598-0.85-0.451
			l-0.152,0.047l-18.578,5.701l-28.962,8.889c-0.477,0.146-1.03,0.506-0.884,0.982l0.45,1.469c0.043,0.139-0.52,0.549-0.777,0.96
			c-0.003,0.006-0.062,0.023-0.062,0.023c-0.014,0.022-0.026,0.048-0.04,0.07C244.046,213.866,243.773,214.77,244.093,215.81z
			 M292.906,197.102l0.134,0.434l-45.958,14.104l-0.133-0.434L292.906,197.102z M255.782,210.865l2.276-0.698
			c-0.088,0.501-0.067,0.972,0.013,1.354c0.001,0.003-0.002-0.004-0.002-0.004c0.001,0.007-0.007-0.009-0.001,0.01
			c0.066,0.231,0.307,1.493-0.201,1.649c-0.438,0.134-0.987-0.915-1.141-1.385c-0.019-0.047-0.026-0.056-0.047-0.09
			c-0.003-0.004-0.003,0-0.007-0.008C256.515,211.412,256.116,210.763,255.782,210.865z M251.053,213.294
			c0.008,0.068-0.123,0.062-0.104,0.122l1.081,3.523c0.183,0.594-0.238,0.723-0.416,0.777c-0.572,0.176-0.424-0.425-0.938-0.557
			l-1.326-4.32l2.077-0.637C251.122,212.296,251.03,213.002,251.053,213.294z M246.746,213.511c0.027-0.004,0.191,0.069,0.218,0.062
			l0.65-0.2l1.335,4.352c0.735,0.858,1.572,2.204,3.278,1.698c0.01-0.003,0.017-0.003,0.026-0.005
			c0.432-0.133,0.737-0.324,0.961-0.53c0.223-0.207,0.362-0.429,0.462-0.623c0.456-0.88,0.541-1.925,0.083-1.87l-1.033-3.367
			c0.401-0.236,0.169-0.331,0.334-0.505c0.011-0.012,0.036-0.024,0.05-0.036c0.034-0.032,0.082-0.063,0.129-0.095
			c0.093-0.063,0.203-0.118,0.333-0.172c0.005-0.002,0.009-0.004,0.014-0.006c0.058-0.022,0.104-0.051,0.167-0.07
			c0.019-0.006,0.031-0.002,0.05-0.008c0.134-0.036,0.253-0.052,0.363-0.055c0.022,0,0.052-0.011,0.073-0.011
			c0.424,0.011,0.665,0.235,0.759,0.355c0.271,0.769,0.83,1.755,1.647,2.25c0.487,0.295,1.066,0.416,1.732,0.212
			c1.582-0.485,1.851-2.342,1.423-3.874c-0.003-0.023-0.007-0.065-0.015-0.119c-0.051-0.383-0.069-1.302,0.688-1.534
			c0.096-0.029,0.207,0.003,0.29-0.022l2.181-0.67l17.104-5.249l0.874-0.268l0.082-0.025l7.583-2.327l5.01-1.537
			c0.139-0.043,0.314-0.059,0.492-0.113c0.368-0.113,0.589-0.146,0.792-0.022c0.319,0.191,0.403,0.627,0.438,0.783
			c0.002,0.037-0.095,0.109-0.084,0.145l1.903,6.201c0.363,1.183-0.309,1.498-0.449,2.015l-2.138,0.656l-45.216,13.877
			c-0.26,0.079-0.651,0.039-0.866-0.104c-0.236-0.15-0.458-0.563-0.476-0.682c0-0.001-0.001-0.001-0.001-0.001
			c-0.007-0.061-0.141-0.139-0.158-0.194l-2.008-6.543C245.511,214.246,246.501,213.671,246.746,213.511z"/>
		<path fill="#232323" d="M291.52,192.24c-0.654-0.32-1.547-0.758-2.813-0.369c-1.326,0.406-1.684,1.189-1.924,1.704
			c-0.162,0.354-0.202,0.441-0.519,0.539c-0.611,0.188-0.782,0.093-1.168-0.111c-0.511-0.274-1.21-0.652-2.533-0.247
			c-1.344,0.413-1.705,1.197-1.941,1.71c-0.166,0.355-0.201,0.441-0.518,0.539c-0.611,0.188-0.787,0.094-1.168-0.111
			c-0.512-0.274-1.216-0.651-2.533-0.247c-1.037,0.318-1.381,1.111-1.613,1.639c-0.219,0.493-0.328,0.74-0.857,0.902
			c-0.546,0.168-0.713,0.072-1.079-0.147c-0.438-0.269-1.106-0.67-2.195-0.336c-1.335,0.409-1.705,1.12-1.979,1.636
			c-0.197,0.379-0.287,0.548-0.886,0.731c-0.026,0.009-0.049,0.025-0.075,0.033s-0.055,0.007-0.081,0.015
			c-0.546,0.168-0.713,0.072-1.079-0.147c-0.438-0.269-1.107-0.67-2.195-0.336c-1.336,0.41-1.705,1.121-1.979,1.637
			c-0.196,0.378-0.291,0.549-0.885,0.731c-0.213,0.064-0.308,0.032-0.755-0.248c-0.557-0.346-1.394-0.876-2.716-0.47
			c-1.322,0.405-1.684,1.189-1.924,1.704c-0.162,0.354-0.202,0.441-0.514,0.537c-0.611,0.188-0.787,0.095-1.168-0.11
			c-0.512-0.275-1.216-0.651-2.533-0.247c-0.013,0.004-0.021,0.011-0.033,0.015c-0.014,0.004-0.023,0.003-0.036,0.007
			c-1.318,0.404-1.686,1.109-1.954,1.624c-0.205,0.385-0.294,0.56-0.909,0.748c-0.312,0.096-0.394,0.045-0.727-0.156
			c-0.487-0.292-1.228-0.738-2.55-0.332c-1.959,0.602-2.28,2.198-2.177,2.954c0.066,0.496,0.523,0.854,1.02,0.786
			c0.051-0.005,0.104-0.017,0.151-0.031c0.412-0.127,0.688-0.529,0.63-0.977c-0.018-0.165,0.011-0.724,0.908-0.999
			c0.551-0.169,0.715-0.067,1.081,0.151c0.442,0.268,1.106,0.671,2.195,0.337c1.335-0.409,1.76-0.96,2.033-1.475
			c0.196-0.379,0.335-0.391,0.93-0.572c0.013-0.005,0.021-0.007,0.034-0.011c0.014-0.004,0.021-0.007,0.035-0.011
			c0.594-0.183,0.72-0.252,1.095-0.049c0.512,0.273,1.196,0.572,2.531,0.163c1.088-0.334,1.399-1.081,1.616-1.551
			c0.181-0.387,0.253-0.583,0.804-0.752c0.528-0.163,0.756-0.025,1.214,0.261c0.483,0.307,1.215,0.76,2.251,0.441
			c1.318-0.404,1.689-1.109,1.959-1.623c0.2-0.385,0.293-0.562,0.904-0.749c0.312-0.096,0.393-0.05,0.725,0.151
			c0.489,0.296,1.228,0.737,2.55,0.331c0.025-0.008,0.051-0.02,0.077-0.027c0.025-0.009,0.053-0.012,0.079-0.021
			c1.317-0.404,1.69-1.106,1.96-1.62c0.2-0.385,0.293-0.56,0.904-0.747c0.316-0.098,0.393-0.05,0.73,0.155
			c0.483,0.292,1.222,0.734,2.544,0.328c1.322-0.405,1.724-1.311,1.985-1.908c0.213-0.482,0.276-0.568,0.484-0.633
			c0.599-0.184,0.77-0.089,1.146,0.114c0.516,0.272,1.221,0.654,2.556,0.244c1.089-0.334,1.467-0.879,1.684-1.349
			c0.175-0.386,0.309-0.4,0.854-0.568c0.62-0.19,0.741-0.259,1.117-0.056c0.515,0.272,1.195,0.573,2.531,0.163
			c1.092-0.335,1.403-1.082,1.62-1.552c0.18-0.387,0.253-0.583,0.803-0.753c0.556-0.17,0.886-0.036,1.479,0.256
			c0.597,0.291,1.337,0.646,2.321,0.345c0.477-0.146,0.748-0.654,0.6-1.136c-0.146-0.476-0.656-0.748-1.133-0.602
			C292.237,192.571,292.032,192.491,291.52,192.24z"/>
		<path fill="#232323" d="M282.339,175.73c0.147-0.046,0.284-0.125,0.396-0.244l0.565-0.601l1.121-1.198
			c0.339-0.364,0.323-0.942-0.042-1.281c-0.366-0.343-0.938-0.323-1.282,0.043l-0.761,0.812l-0.001,0.001l-0.921,0.984
			c-0.259,0.271-0.312,0.664-0.168,0.987c0.047,0.107,0.115,0.206,0.205,0.291C281.697,175.757,282.04,175.822,282.339,175.73z"/>
		<path fill="#232323" d="M273.771,172.731l2.328,1.448c0.233,0.142,0.504,0.172,0.746,0.098c0.204-0.062,0.381-0.197,0.502-0.392
			c0.269-0.423,0.136-0.979-0.289-1.248l-2.332-1.447c-0.422-0.264-0.984-0.134-1.247,0.294
			C273.215,171.906,273.345,172.469,273.771,172.731z"/>
		<path fill="#232323" d="M274.892,177.816c-0.501,0.008-0.899,0.424-0.889,0.923c0.007,0.5,0.423,0.899,0.922,0.888l2.462-0.049
			c0.09,0.001,0.171-0.014,0.249-0.038c0.377-0.116,0.647-0.47,0.64-0.884c-0.007-0.501-0.423-0.899-0.923-0.888L274.892,177.816z"
			/>
		<path fill="#232323" d="M267.982,176.528c0.209,0.386,0.659,0.556,1.062,0.433c0.057-0.018,0.11-0.044,0.168-0.071l2.21-1.209
			c0.438-0.239,0.602-0.792,0.362-1.23c-0.245-0.441-0.798-0.604-1.235-0.36l-2.209,1.209
			C267.901,175.538,267.743,176.09,267.982,176.528z"/>
		<path fill="#232323" d="M267.034,170.702c0.21,0.097,0.44,0.106,0.648,0.043c0.239-0.073,0.442-0.245,0.558-0.489l1.223-2.646
			c0.207-0.452,0.008-0.993-0.444-1.201c-0.454-0.211-0.995-0.012-1.203,0.44l-1.223,2.647
			C266.382,169.954,266.58,170.49,267.034,170.702z"/>
		<path fill="#232323" d="M269.905,179.765l-2.571-0.448c-0.491-0.087-0.964,0.243-1.049,0.739c-0.087,0.49,0.243,0.963,0.739,1.048
			l2.571,0.449c0.146,0.025,0.288,0.011,0.418-0.029c0.316-0.097,0.568-0.359,0.631-0.71
			C270.731,180.321,270.401,179.85,269.905,179.765z"/>
		<path fill="#232323" d="M263.479,172.95l1.821,1.608c0.247,0.218,0.574,0.278,0.869,0.188c0.152-0.047,0.296-0.134,0.412-0.265
			c0.331-0.376,0.297-0.949-0.079-1.279l-1.822-1.607c-0.372-0.332-0.944-0.298-1.281,0.075
			C263.068,172.047,263.106,172.619,263.479,172.95z"/>
		<path fill="#232323" d="M260.17,170.779c0.034-0.011,0.067-0.025,0.105-0.042l2.725-1.215c0.454-0.206,0.66-0.739,0.458-1.198
			c-0.207-0.458-0.743-0.659-1.198-0.458l-2.725,1.216c-0.458,0.207-0.665,0.74-0.458,1.198
			C259.264,170.702,259.74,170.911,260.17,170.779z"/>
		<path fill="#232323" d="M264.983,176.912l-2.644-0.25c-0.498-0.047-0.941,0.316-0.987,0.814c-0.051,0.5,0.317,0.941,0.816,0.992
			l2.642,0.246c0.123,0.015,0.243,0.002,0.352-0.031c0.342-0.105,0.601-0.407,0.637-0.784
			C265.846,177.402,265.481,176.959,264.983,176.912z"/>
		<path fill="#232323" d="M263.398,181.438c-0.486-0.116-0.976,0.177-1.097,0.664l-0.451,1.822
			c-0.118,0.481,0.176,0.975,0.664,1.095c0.163,0.04,0.332,0.031,0.483-0.016c0.295-0.09,0.536-0.325,0.617-0.648l0.448-1.816
			C264.184,182.052,263.886,181.56,263.398,181.438z"/>
		<path fill="#232323" d="M257.435,174.497l2.801,0.468c0.144,0.022,0.283,0.013,0.413-0.027c0.321-0.099,0.57-0.369,0.629-0.719
			c0.086-0.491-0.248-0.963-0.742-1.043l-2.801-0.469c-0.49-0.082-0.961,0.253-1.042,0.747
			C256.61,173.943,256.944,174.415,257.435,174.497z"/>
		<path fill="#232323" d="M256.46,182.682l3.468-1.064c0.478-0.146,0.748-0.656,0.602-1.133s-0.656-0.747-1.133-0.601l-3.469,1.064
			c-0.477,0.146-0.747,0.656-0.601,1.133C255.473,182.558,255.982,182.828,256.46,182.682z"/>
		<path fill="#232323" d="M252.354,179.475c0.201,0.085,0.416,0.091,0.611,0.03c0.252-0.077,0.466-0.261,0.576-0.518l1.048-2.536
			c0.19-0.462-0.024-0.993-0.49-1.182c-0.463-0.195-0.993,0.024-1.184,0.486l-1.053,2.537
			C251.673,178.755,251.893,179.284,252.354,179.475z"/>
		<path fill="#232323" d="M250.729,184.645l2.421,0.67c0.172,0.047,0.345,0.041,0.506-0.009c0.286-0.087,0.525-0.312,0.61-0.623
			c0.137-0.482-0.15-0.983-0.632-1.115l-2.417-0.671c-0.482-0.137-0.984,0.146-1.116,0.627
			C249.964,184.007,250.246,184.508,250.729,184.645z"/>
		<path fill="#232323" d="M244.166,184.064c0.147-0.045,0.287-0.131,0.397-0.25l2.393-2.593c0.337-0.369,0.313-0.94-0.053-1.283
			c-0.369-0.337-0.945-0.312-1.284,0.053l-2.388,2.592c-0.342,0.37-0.318,0.941,0.053,1.282
			C243.528,184.09,243.866,184.156,244.166,184.064z"/>
		<path fill="#232323" d="M241.198,188.229l2.531,0.46c0.146,0.026,0.296,0.019,0.43-0.022c0.312-0.096,0.562-0.362,0.628-0.705
			c0.087-0.491-0.239-0.965-0.731-1.056l-2.532-0.46c-0.488-0.092-0.963,0.233-1.054,0.727
			C240.381,187.669,240.705,188.138,241.198,188.229z"/>
		<path fill="#232323" d="M275.736,48.909c-0.398,0.488-0.324,1.205,0.159,1.603L289.1,61.3c0.205,0.165,0.46,0.256,0.722,0.256
			c0.035,0,0.074,0,0.114-0.005c0.302-0.029,0.574-0.177,0.768-0.41l2.849-3.484L300,49.771v-3.591l-7.506,9.181
			c-0.051-0.068-0.113-0.13-0.182-0.188l-11.242-9.19L300,22.838v-3.591l-21.415,26.178L275.736,48.909z M290.868,56.929
			c0.074,0.057,0.147,0.108,0.228,0.142l-1.434,1.751l-11.446-9.35l1.41-1.723L290.868,56.929z"/>
		<path fill="#232323" d="M14.979,31.426c0.005-0.006,0.017-0.017,0.022-0.029c0.012-0.017,1.308-2.256,3.071-1.853
			c1.894,0.426,4.868-0.068,6.893-1.824c1.478-1.279,2.172-2.99,2.013-4.945c-0.165-2.035-1.183-3.615-2.861-4.45
			c-2.007-1-4.555-0.75-5.852,0.074c-1.308,0.824-1.416,0.699-2.007-0.006c-0.978-1.165-2.644-1.358-3.958-0.46
			c-0.551,0.375-1.023,0.955-1.274,1.665l-5.902-4.819c-0.233-0.194-0.529-0.284-0.836-0.256c-0.295,0.034-0.574,0.181-0.762,0.415
			L0,19.247v3.591l1.991-2.434l8.388,6.855c0.228,1.313,0.91,2.552,2.064,3.7L0,46.179v3.591l14.888-18.208
			C14.928,31.522,14.951,31.471,14.979,31.426z M10.657,24.548L3.43,18.643l1.137-1.387l6.938,5.667
			C11.203,23.349,10.891,23.9,10.657,24.548z M13.853,29.146c-0.802-0.863-1.223-1.745-1.251-2.631
			c-0.051-1.648,1.268-2.893,1.274-2.904c0.244-0.222,0.381-0.54,0.375-0.87c-0.012-0.33-0.165-0.642-0.421-0.853l-0.546-0.443
			c-0.358-0.802-0.097-1.365,0.295-1.637c0.097-0.062,0.591-0.363,0.938,0.051c1.638,1.949,3.167,1.591,4.958,0.46
			c0.563-0.353,2.252-0.643,3.623,0.04c0.967,0.483,1.507,1.359,1.609,2.598c0.103,1.222-0.312,2.245-1.234,3.047
			c-1.388,1.205-3.583,1.62-4.902,1.318C16.384,26.833,14.763,28.112,13.853,29.146z"/>
	</g>
</g>
</svg>
